<?xml version="1.0" encoding="utf-8" standalone="no"?>
<!DOCTYPE svg PUBLIC "-//W3C//DTD SVG 1.1//EN"
  "http://www.w3.org/Graphics/SVG/1.1/DTD/svg11.dtd">
<svg xmlns:xlink="http://www.w3.org/1999/xlink" width="708.9085pt" height="423.288641pt" viewBox="0 0 708.9085 423.288641" xmlns="http://www.w3.org/2000/svg" version="1.1">
 <metadata>
  <rdf:RDF xmlns:dc="http://purl.org/dc/elements/1.1/" xmlns:cc="http://creativecommons.org/ns#" xmlns:rdf="http://www.w3.org/1999/02/22-rdf-syntax-ns#">
   <cc:Work>
    <dc:type rdf:resource="http://purl.org/dc/dcmitype/StillImage"/>
    <dc:date>2025-09-23T22:12:44.061858</dc:date>
    <dc:format>image/svg+xml</dc:format>
    <dc:creator>
     <cc:Agent>
      <dc:title>Matplotlib v3.10.3, https://matplotlib.org/</dc:title>
     </cc:Agent>
    </dc:creator>
   </cc:Work>
  </rdf:RDF>
 </metadata>
 <defs>
  <style type="text/css">*{stroke-linejoin: round; stroke-linecap: butt}</style>
 </defs>
 <g id="figure_1">
  <g id="patch_1">
   <path d="M -0 423.288641 
L 708.9085 423.288641 
L 708.9085 0 
L -0 0 
z
" style="fill: #ffffff"/>
  </g>
  <g id="axes_1">
   <g id="patch_2">
    <path d="M 53.4875 293.352911 
L 701.7085 293.352911 
L 701.7085 22.318125 
L 53.4875 22.318125 
z
" style="fill: #ffffff"/>
   </g>
   <g id="line2d_1">
    <path d="M 53.4875 203.007982 
L 701.7085 203.007982 
" clip-path="url(#p79dbaa6cba)" style="fill: none; stroke-dasharray: 8,6; stroke-dashoffset: 0; stroke: #808080; stroke-opacity: 0.7; stroke-width: 2"/>
   </g>
   <g id="patch_3">
    <path d="M 134.515125 293.352911 
L 134.515125 293.352911 
L 134.515125 293.352911 
L 134.515125 293.352911 
z
" clip-path="url(#p79dbaa6cba)" style="fill: #3274a1; stroke: #3d3d3d; stroke-linejoin: miter"/>
   </g>
   <g id="patch_4">
    <path d="M 134.515125 293.352911 
L 134.515125 293.352911 
L 134.515125 293.352911 
L 134.515125 293.352911 
z
" clip-path="url(#p79dbaa6cba)" style="fill: #e1812c; stroke: #3d3d3d; stroke-linejoin: miter"/>
   </g>
   <g id="patch_5">
    <path d="M 134.515125 293.352911 
L 134.515125 293.352911 
L 134.515125 293.352911 
L 134.515125 293.352911 
z
" clip-path="url(#p79dbaa6cba)" style="fill: #3a923a; stroke: #3d3d3d; stroke-linejoin: miter"/>
   </g>
   <g id="matplotlib.axis_1">
    <g id="xtick_1">
     <g id="line2d_2">
      <defs>
       <path id="ma2673992c5" d="M 0 0 
L 0 3.5 
" style="stroke: #000000; stroke-width: 0.8"/>
      </defs>
      <g>
       <use xlink:href="#ma2673992c5" x="134.515125" y="293.352911" style="stroke: #000000; stroke-width: 0.8"/>
      </g>
     </g>
     <g id="text_1">
      <!-- mistral-large-instruct -->
      <g transform="translate(99.223867 380.210678) rotate(-45) scale(0.1 -0.1)">
       <defs>
        <path id="DejaVuSans-6d" d="M 3328 2828 
Q 3544 3216 3844 3400 
Q 4144 3584 4550 3584 
Q 5097 3584 5394 3201 
Q 5691 2819 5691 2113 
L 5691 0 
L 5113 0 
L 5113 2094 
Q 5113 2597 4934 2840 
Q 4756 3084 4391 3084 
Q 3944 3084 3684 2787 
Q 3425 2491 3425 1978 
L 3425 0 
L 2847 0 
L 2847 2094 
Q 2847 2600 2669 2842 
Q 2491 3084 2119 3084 
Q 1678 3084 1418 2786 
Q 1159 2488 1159 1978 
L 1159 0 
L 581 0 
L 581 3500 
L 1159 3500 
L 1159 2956 
Q 1356 3278 1631 3431 
Q 1906 3584 2284 3584 
Q 2666 3584 2933 3390 
Q 3200 3197 3328 2828 
z
" transform="scale(0.015625)"/>
        <path id="DejaVuSans-69" d="M 603 3500 
L 1178 3500 
L 1178 0 
L 603 0 
L 603 3500 
z
M 603 4863 
L 1178 4863 
L 1178 4134 
L 603 4134 
L 603 4863 
z
" transform="scale(0.015625)"/>
        <path id="DejaVuSans-73" d="M 2834 3397 
L 2834 2853 
Q 2591 2978 2328 3040 
Q 2066 3103 1784 3103 
Q 1356 3103 1142 2972 
Q 928 2841 928 2578 
Q 928 2378 1081 2264 
Q 1234 2150 1697 2047 
L 1894 2003 
Q 2506 1872 2764 1633 
Q 3022 1394 3022 966 
Q 3022 478 2636 193 
Q 2250 -91 1575 -91 
Q 1294 -91 989 -36 
Q 684 19 347 128 
L 347 722 
Q 666 556 975 473 
Q 1284 391 1588 391 
Q 1994 391 2212 530 
Q 2431 669 2431 922 
Q 2431 1156 2273 1281 
Q 2116 1406 1581 1522 
L 1381 1569 
Q 847 1681 609 1914 
Q 372 2147 372 2553 
Q 372 3047 722 3315 
Q 1072 3584 1716 3584 
Q 2034 3584 2315 3537 
Q 2597 3491 2834 3397 
z
" transform="scale(0.015625)"/>
        <path id="DejaVuSans-74" d="M 1172 4494 
L 1172 3500 
L 2356 3500 
L 2356 3053 
L 1172 3053 
L 1172 1153 
Q 1172 725 1289 603 
Q 1406 481 1766 481 
L 2356 481 
L 2356 0 
L 1766 0 
Q 1100 0 847 248 
Q 594 497 594 1153 
L 594 3053 
L 172 3053 
L 172 3500 
L 594 3500 
L 594 4494 
L 1172 4494 
z
" transform="scale(0.015625)"/>
        <path id="DejaVuSans-72" d="M 2631 2963 
Q 2534 3019 2420 3045 
Q 2306 3072 2169 3072 
Q 1681 3072 1420 2755 
Q 1159 2438 1159 1844 
L 1159 0 
L 581 0 
L 581 3500 
L 1159 3500 
L 1159 2956 
Q 1341 3275 1631 3429 
Q 1922 3584 2338 3584 
Q 2397 3584 2469 3576 
Q 2541 3569 2628 3553 
L 2631 2963 
z
" transform="scale(0.015625)"/>
        <path id="DejaVuSans-61" d="M 2194 1759 
Q 1497 1759 1228 1600 
Q 959 1441 959 1056 
Q 959 750 1161 570 
Q 1363 391 1709 391 
Q 2188 391 2477 730 
Q 2766 1069 2766 1631 
L 2766 1759 
L 2194 1759 
z
M 3341 1997 
L 3341 0 
L 2766 0 
L 2766 531 
Q 2569 213 2275 61 
Q 1981 -91 1556 -91 
Q 1019 -91 701 211 
Q 384 513 384 1019 
Q 384 1609 779 1909 
Q 1175 2209 1959 2209 
L 2766 2209 
L 2766 2266 
Q 2766 2663 2505 2880 
Q 2244 3097 1772 3097 
Q 1472 3097 1187 3025 
Q 903 2953 641 2809 
L 641 3341 
Q 956 3463 1253 3523 
Q 1550 3584 1831 3584 
Q 2591 3584 2966 3190 
Q 3341 2797 3341 1997 
z
" transform="scale(0.015625)"/>
        <path id="DejaVuSans-6c" d="M 603 4863 
L 1178 4863 
L 1178 0 
L 603 0 
L 603 4863 
z
" transform="scale(0.015625)"/>
        <path id="DejaVuSans-2d" d="M 313 2009 
L 1997 2009 
L 1997 1497 
L 313 1497 
L 313 2009 
z
" transform="scale(0.015625)"/>
        <path id="DejaVuSans-67" d="M 2906 1791 
Q 2906 2416 2648 2759 
Q 2391 3103 1925 3103 
Q 1463 3103 1205 2759 
Q 947 2416 947 1791 
Q 947 1169 1205 825 
Q 1463 481 1925 481 
Q 2391 481 2648 825 
Q 2906 1169 2906 1791 
z
M 3481 434 
Q 3481 -459 3084 -895 
Q 2688 -1331 1869 -1331 
Q 1566 -1331 1297 -1286 
Q 1028 -1241 775 -1147 
L 775 -588 
Q 1028 -725 1275 -790 
Q 1522 -856 1778 -856 
Q 2344 -856 2625 -561 
Q 2906 -266 2906 331 
L 2906 616 
Q 2728 306 2450 153 
Q 2172 0 1784 0 
Q 1141 0 747 490 
Q 353 981 353 1791 
Q 353 2603 747 3093 
Q 1141 3584 1784 3584 
Q 2172 3584 2450 3431 
Q 2728 3278 2906 2969 
L 2906 3500 
L 3481 3500 
L 3481 434 
z
" transform="scale(0.015625)"/>
        <path id="DejaVuSans-65" d="M 3597 1894 
L 3597 1613 
L 953 1613 
Q 991 1019 1311 708 
Q 1631 397 2203 397 
Q 2534 397 2845 478 
Q 3156 559 3463 722 
L 3463 178 
Q 3153 47 2828 -22 
Q 2503 -91 2169 -91 
Q 1331 -91 842 396 
Q 353 884 353 1716 
Q 353 2575 817 3079 
Q 1281 3584 2069 3584 
Q 2775 3584 3186 3129 
Q 3597 2675 3597 1894 
z
M 3022 2063 
Q 3016 2534 2758 2815 
Q 2500 3097 2075 3097 
Q 1594 3097 1305 2825 
Q 1016 2553 972 2059 
L 3022 2063 
z
" transform="scale(0.015625)"/>
        <path id="DejaVuSans-6e" d="M 3513 2113 
L 3513 0 
L 2938 0 
L 2938 2094 
Q 2938 2591 2744 2837 
Q 2550 3084 2163 3084 
Q 1697 3084 1428 2787 
Q 1159 2491 1159 1978 
L 1159 0 
L 581 0 
L 581 3500 
L 1159 3500 
L 1159 2956 
Q 1366 3272 1645 3428 
Q 1925 3584 2291 3584 
Q 2894 3584 3203 3211 
Q 3513 2838 3513 2113 
z
" transform="scale(0.015625)"/>
        <path id="DejaVuSans-75" d="M 544 1381 
L 544 3500 
L 1119 3500 
L 1119 1403 
Q 1119 906 1312 657 
Q 1506 409 1894 409 
Q 2359 409 2629 706 
Q 2900 1003 2900 1516 
L 2900 3500 
L 3475 3500 
L 3475 0 
L 2900 0 
L 2900 538 
Q 2691 219 2414 64 
Q 2138 -91 1772 -91 
Q 1169 -91 856 284 
Q 544 659 544 1381 
z
M 1991 3584 
L 1991 3584 
z
" transform="scale(0.015625)"/>
        <path id="DejaVuSans-63" d="M 3122 3366 
L 3122 2828 
Q 2878 2963 2633 3030 
Q 2388 3097 2138 3097 
Q 1578 3097 1268 2742 
Q 959 2388 959 1747 
Q 959 1106 1268 751 
Q 1578 397 2138 397 
Q 2388 397 2633 464 
Q 2878 531 3122 666 
L 3122 134 
Q 2881 22 2623 -34 
Q 2366 -91 2075 -91 
Q 1284 -91 818 406 
Q 353 903 353 1747 
Q 353 2603 823 3093 
Q 1294 3584 2113 3584 
Q 2378 3584 2631 3529 
Q 2884 3475 3122 3366 
z
" transform="scale(0.015625)"/>
       </defs>
       <use xlink:href="#DejaVuSans-6d"/>
       <use xlink:href="#DejaVuSans-69" transform="translate(97.412109 0)"/>
       <use xlink:href="#DejaVuSans-73" transform="translate(125.195312 0)"/>
       <use xlink:href="#DejaVuSans-74" transform="translate(177.294922 0)"/>
       <use xlink:href="#DejaVuSans-72" transform="translate(216.503906 0)"/>
       <use xlink:href="#DejaVuSans-61" transform="translate(257.617188 0)"/>
       <use xlink:href="#DejaVuSans-6c" transform="translate(318.896484 0)"/>
       <use xlink:href="#DejaVuSans-2d" transform="translate(346.679688 0)"/>
       <use xlink:href="#DejaVuSans-6c" transform="translate(382.763672 0)"/>
       <use xlink:href="#DejaVuSans-61" transform="translate(410.546875 0)"/>
       <use xlink:href="#DejaVuSans-72" transform="translate(471.826172 0)"/>
       <use xlink:href="#DejaVuSans-67" transform="translate(511.189453 0)"/>
       <use xlink:href="#DejaVuSans-65" transform="translate(574.666016 0)"/>
       <use xlink:href="#DejaVuSans-2d" transform="translate(636.189453 0)"/>
       <use xlink:href="#DejaVuSans-69" transform="translate(672.273438 0)"/>
       <use xlink:href="#DejaVuSans-6e" transform="translate(700.056641 0)"/>
       <use xlink:href="#DejaVuSans-73" transform="translate(763.435547 0)"/>
       <use xlink:href="#DejaVuSans-74" transform="translate(815.535156 0)"/>
       <use xlink:href="#DejaVuSans-72" transform="translate(854.744141 0)"/>
       <use xlink:href="#DejaVuSans-75" transform="translate(895.857422 0)"/>
       <use xlink:href="#DejaVuSans-63" transform="translate(959.236328 0)"/>
       <use xlink:href="#DejaVuSans-74" transform="translate(1014.216797 0)"/>
      </g>
     </g>
    </g>
    <g id="xtick_2">
     <g id="line2d_3">
      <g>
       <use xlink:href="#ma2673992c5" x="296.570375" y="293.352911" style="stroke: #000000; stroke-width: 0.8"/>
      </g>
     </g>
     <g id="text_2">
      <!-- meta-llama-3.1-8b-instruct -->
      <g transform="translate(250.914479 400.939955) rotate(-45) scale(0.1 -0.1)">
       <defs>
        <path id="DejaVuSans-33" d="M 2597 2516 
Q 3050 2419 3304 2112 
Q 3559 1806 3559 1356 
Q 3559 666 3084 287 
Q 2609 -91 1734 -91 
Q 1441 -91 1130 -33 
Q 819 25 488 141 
L 488 750 
Q 750 597 1062 519 
Q 1375 441 1716 441 
Q 2309 441 2620 675 
Q 2931 909 2931 1356 
Q 2931 1769 2642 2001 
Q 2353 2234 1838 2234 
L 1294 2234 
L 1294 2753 
L 1863 2753 
Q 2328 2753 2575 2939 
Q 2822 3125 2822 3475 
Q 2822 3834 2567 4026 
Q 2313 4219 1838 4219 
Q 1578 4219 1281 4162 
Q 984 4106 628 3988 
L 628 4550 
Q 988 4650 1302 4700 
Q 1616 4750 1894 4750 
Q 2613 4750 3031 4423 
Q 3450 4097 3450 3541 
Q 3450 3153 3228 2886 
Q 3006 2619 2597 2516 
z
" transform="scale(0.015625)"/>
        <path id="DejaVuSans-2e" d="M 684 794 
L 1344 794 
L 1344 0 
L 684 0 
L 684 794 
z
" transform="scale(0.015625)"/>
        <path id="DejaVuSans-31" d="M 794 531 
L 1825 531 
L 1825 4091 
L 703 3866 
L 703 4441 
L 1819 4666 
L 2450 4666 
L 2450 531 
L 3481 531 
L 3481 0 
L 794 0 
L 794 531 
z
" transform="scale(0.015625)"/>
        <path id="DejaVuSans-38" d="M 2034 2216 
Q 1584 2216 1326 1975 
Q 1069 1734 1069 1313 
Q 1069 891 1326 650 
Q 1584 409 2034 409 
Q 2484 409 2743 651 
Q 3003 894 3003 1313 
Q 3003 1734 2745 1975 
Q 2488 2216 2034 2216 
z
M 1403 2484 
Q 997 2584 770 2862 
Q 544 3141 544 3541 
Q 544 4100 942 4425 
Q 1341 4750 2034 4750 
Q 2731 4750 3128 4425 
Q 3525 4100 3525 3541 
Q 3525 3141 3298 2862 
Q 3072 2584 2669 2484 
Q 3125 2378 3379 2068 
Q 3634 1759 3634 1313 
Q 3634 634 3220 271 
Q 2806 -91 2034 -91 
Q 1263 -91 848 271 
Q 434 634 434 1313 
Q 434 1759 690 2068 
Q 947 2378 1403 2484 
z
M 1172 3481 
Q 1172 3119 1398 2916 
Q 1625 2713 2034 2713 
Q 2441 2713 2670 2916 
Q 2900 3119 2900 3481 
Q 2900 3844 2670 4047 
Q 2441 4250 2034 4250 
Q 1625 4250 1398 4047 
Q 1172 3844 1172 3481 
z
" transform="scale(0.015625)"/>
        <path id="DejaVuSans-62" d="M 3116 1747 
Q 3116 2381 2855 2742 
Q 2594 3103 2138 3103 
Q 1681 3103 1420 2742 
Q 1159 2381 1159 1747 
Q 1159 1113 1420 752 
Q 1681 391 2138 391 
Q 2594 391 2855 752 
Q 3116 1113 3116 1747 
z
M 1159 2969 
Q 1341 3281 1617 3432 
Q 1894 3584 2278 3584 
Q 2916 3584 3314 3078 
Q 3713 2572 3713 1747 
Q 3713 922 3314 415 
Q 2916 -91 2278 -91 
Q 1894 -91 1617 61 
Q 1341 213 1159 525 
L 1159 0 
L 581 0 
L 581 4863 
L 1159 4863 
L 1159 2969 
z
" transform="scale(0.015625)"/>
       </defs>
       <use xlink:href="#DejaVuSans-6d"/>
       <use xlink:href="#DejaVuSans-65" transform="translate(97.412109 0)"/>
       <use xlink:href="#DejaVuSans-74" transform="translate(158.935547 0)"/>
       <use xlink:href="#DejaVuSans-61" transform="translate(198.144531 0)"/>
       <use xlink:href="#DejaVuSans-2d" transform="translate(259.423828 0)"/>
       <use xlink:href="#DejaVuSans-6c" transform="translate(295.507812 0)"/>
       <use xlink:href="#DejaVuSans-6c" transform="translate(323.291016 0)"/>
       <use xlink:href="#DejaVuSans-61" transform="translate(351.074219 0)"/>
       <use xlink:href="#DejaVuSans-6d" transform="translate(412.353516 0)"/>
       <use xlink:href="#DejaVuSans-61" transform="translate(509.765625 0)"/>
       <use xlink:href="#DejaVuSans-2d" transform="translate(571.044922 0)"/>
       <use xlink:href="#DejaVuSans-33" transform="translate(607.128906 0)"/>
       <use xlink:href="#DejaVuSans-2e" transform="translate(670.751953 0)"/>
       <use xlink:href="#DejaVuSans-31" transform="translate(702.539062 0)"/>
       <use xlink:href="#DejaVuSans-2d" transform="translate(766.162109 0)"/>
       <use xlink:href="#DejaVuSans-38" transform="translate(802.246094 0)"/>
       <use xlink:href="#DejaVuSans-62" transform="translate(865.869141 0)"/>
       <use xlink:href="#DejaVuSans-2d" transform="translate(929.345703 0)"/>
       <use xlink:href="#DejaVuSans-69" transform="translate(965.429688 0)"/>
       <use xlink:href="#DejaVuSans-6e" transform="translate(993.212891 0)"/>
       <use xlink:href="#DejaVuSans-73" transform="translate(1056.591797 0)"/>
       <use xlink:href="#DejaVuSans-74" transform="translate(1108.691406 0)"/>
       <use xlink:href="#DejaVuSans-72" transform="translate(1147.900391 0)"/>
       <use xlink:href="#DejaVuSans-75" transform="translate(1189.013672 0)"/>
       <use xlink:href="#DejaVuSans-63" transform="translate(1252.392578 0)"/>
       <use xlink:href="#DejaVuSans-74" transform="translate(1307.373047 0)"/>
      </g>
     </g>
    </g>
    <g id="xtick_3">
     <g id="line2d_4">
      <g>
       <use xlink:href="#ma2673992c5" x="458.625625" y="293.352911" style="stroke: #000000; stroke-width: 0.8"/>
      </g>
     </g>
     <g id="text_3">
      <!-- openai-gpt-oss-120b -->
      <g transform="translate(423.996175 378.887063) rotate(-45) scale(0.1 -0.1)">
       <defs>
        <path id="DejaVuSans-6f" d="M 1959 3097 
Q 1497 3097 1228 2736 
Q 959 2375 959 1747 
Q 959 1119 1226 758 
Q 1494 397 1959 397 
Q 2419 397 2687 759 
Q 2956 1122 2956 1747 
Q 2956 2369 2687 2733 
Q 2419 3097 1959 3097 
z
M 1959 3584 
Q 2709 3584 3137 3096 
Q 3566 2609 3566 1747 
Q 3566 888 3137 398 
Q 2709 -91 1959 -91 
Q 1206 -91 779 398 
Q 353 888 353 1747 
Q 353 2609 779 3096 
Q 1206 3584 1959 3584 
z
" transform="scale(0.015625)"/>
        <path id="DejaVuSans-70" d="M 1159 525 
L 1159 -1331 
L 581 -1331 
L 581 3500 
L 1159 3500 
L 1159 2969 
Q 1341 3281 1617 3432 
Q 1894 3584 2278 3584 
Q 2916 3584 3314 3078 
Q 3713 2572 3713 1747 
Q 3713 922 3314 415 
Q 2916 -91 2278 -91 
Q 1894 -91 1617 61 
Q 1341 213 1159 525 
z
M 3116 1747 
Q 3116 2381 2855 2742 
Q 2594 3103 2138 3103 
Q 1681 3103 1420 2742 
Q 1159 2381 1159 1747 
Q 1159 1113 1420 752 
Q 1681 391 2138 391 
Q 2594 391 2855 752 
Q 3116 1113 3116 1747 
z
" transform="scale(0.015625)"/>
        <path id="DejaVuSans-32" d="M 1228 531 
L 3431 531 
L 3431 0 
L 469 0 
L 469 531 
Q 828 903 1448 1529 
Q 2069 2156 2228 2338 
Q 2531 2678 2651 2914 
Q 2772 3150 2772 3378 
Q 2772 3750 2511 3984 
Q 2250 4219 1831 4219 
Q 1534 4219 1204 4116 
Q 875 4013 500 3803 
L 500 4441 
Q 881 4594 1212 4672 
Q 1544 4750 1819 4750 
Q 2544 4750 2975 4387 
Q 3406 4025 3406 3419 
Q 3406 3131 3298 2873 
Q 3191 2616 2906 2266 
Q 2828 2175 2409 1742 
Q 1991 1309 1228 531 
z
" transform="scale(0.015625)"/>
        <path id="DejaVuSans-30" d="M 2034 4250 
Q 1547 4250 1301 3770 
Q 1056 3291 1056 2328 
Q 1056 1369 1301 889 
Q 1547 409 2034 409 
Q 2525 409 2770 889 
Q 3016 1369 3016 2328 
Q 3016 3291 2770 3770 
Q 2525 4250 2034 4250 
z
M 2034 4750 
Q 2819 4750 3233 4129 
Q 3647 3509 3647 2328 
Q 3647 1150 3233 529 
Q 2819 -91 2034 -91 
Q 1250 -91 836 529 
Q 422 1150 422 2328 
Q 422 3509 836 4129 
Q 1250 4750 2034 4750 
z
" transform="scale(0.015625)"/>
       </defs>
       <use xlink:href="#DejaVuSans-6f"/>
       <use xlink:href="#DejaVuSans-70" transform="translate(61.181641 0)"/>
       <use xlink:href="#DejaVuSans-65" transform="translate(124.658203 0)"/>
       <use xlink:href="#DejaVuSans-6e" transform="translate(186.181641 0)"/>
       <use xlink:href="#DejaVuSans-61" transform="translate(249.560547 0)"/>
       <use xlink:href="#DejaVuSans-69" transform="translate(310.839844 0)"/>
       <use xlink:href="#DejaVuSans-2d" transform="translate(338.623047 0)"/>
       <use xlink:href="#DejaVuSans-67" transform="translate(374.707031 0)"/>
       <use xlink:href="#DejaVuSans-70" transform="translate(438.183594 0)"/>
       <use xlink:href="#DejaVuSans-74" transform="translate(501.660156 0)"/>
       <use xlink:href="#DejaVuSans-2d" transform="translate(540.869141 0)"/>
       <use xlink:href="#DejaVuSans-6f" transform="translate(578.828125 0)"/>
       <use xlink:href="#DejaVuSans-73" transform="translate(640.009766 0)"/>
       <use xlink:href="#DejaVuSans-73" transform="translate(692.109375 0)"/>
       <use xlink:href="#DejaVuSans-2d" transform="translate(744.208984 0)"/>
       <use xlink:href="#DejaVuSans-31" transform="translate(780.292969 0)"/>
       <use xlink:href="#DejaVuSans-32" transform="translate(843.916016 0)"/>
       <use xlink:href="#DejaVuSans-30" transform="translate(907.539062 0)"/>
       <use xlink:href="#DejaVuSans-62" transform="translate(971.162109 0)"/>
      </g>
     </g>
    </g>
    <g id="xtick_4">
     <g id="line2d_5">
      <g>
       <use xlink:href="#ma2673992c5" x="620.680875" y="293.352911" style="stroke: #000000; stroke-width: 0.8"/>
      </g>
     </g>
     <g id="text_4">
      <!-- qwen3-32b -->
      <g transform="translate(602.811513 345.366887) rotate(-45) scale(0.1 -0.1)">
       <defs>
        <path id="DejaVuSans-71" d="M 947 1747 
Q 947 1113 1208 752 
Q 1469 391 1925 391 
Q 2381 391 2643 752 
Q 2906 1113 2906 1747 
Q 2906 2381 2643 2742 
Q 2381 3103 1925 3103 
Q 1469 3103 1208 2742 
Q 947 2381 947 1747 
z
M 2906 525 
Q 2725 213 2448 61 
Q 2172 -91 1784 -91 
Q 1150 -91 751 415 
Q 353 922 353 1747 
Q 353 2572 751 3078 
Q 1150 3584 1784 3584 
Q 2172 3584 2448 3432 
Q 2725 3281 2906 2969 
L 2906 3500 
L 3481 3500 
L 3481 -1331 
L 2906 -1331 
L 2906 525 
z
" transform="scale(0.015625)"/>
        <path id="DejaVuSans-77" d="M 269 3500 
L 844 3500 
L 1563 769 
L 2278 3500 
L 2956 3500 
L 3675 769 
L 4391 3500 
L 4966 3500 
L 4050 0 
L 3372 0 
L 2619 2869 
L 1863 0 
L 1184 0 
L 269 3500 
z
" transform="scale(0.015625)"/>
       </defs>
       <use xlink:href="#DejaVuSans-71"/>
       <use xlink:href="#DejaVuSans-77" transform="translate(63.476562 0)"/>
       <use xlink:href="#DejaVuSans-65" transform="translate(145.263672 0)"/>
       <use xlink:href="#DejaVuSans-6e" transform="translate(206.787109 0)"/>
       <use xlink:href="#DejaVuSans-33" transform="translate(270.166016 0)"/>
       <use xlink:href="#DejaVuSans-2d" transform="translate(333.789062 0)"/>
       <use xlink:href="#DejaVuSans-33" transform="translate(369.873047 0)"/>
       <use xlink:href="#DejaVuSans-32" transform="translate(433.496094 0)"/>
       <use xlink:href="#DejaVuSans-62" transform="translate(497.119141 0)"/>
      </g>
     </g>
    </g>
    <g id="text_5">
     <!-- Paraphraser -->
     <g transform="translate(347.425344 414.008954) scale(0.1 -0.1)">
      <defs>
       <path id="DejaVuSans-50" d="M 1259 4147 
L 1259 2394 
L 2053 2394 
Q 2494 2394 2734 2622 
Q 2975 2850 2975 3272 
Q 2975 3691 2734 3919 
Q 2494 4147 2053 4147 
L 1259 4147 
z
M 628 4666 
L 2053 4666 
Q 2838 4666 3239 4311 
Q 3641 3956 3641 3272 
Q 3641 2581 3239 2228 
Q 2838 1875 2053 1875 
L 1259 1875 
L 1259 0 
L 628 0 
L 628 4666 
z
" transform="scale(0.015625)"/>
       <path id="DejaVuSans-68" d="M 3513 2113 
L 3513 0 
L 2938 0 
L 2938 2094 
Q 2938 2591 2744 2837 
Q 2550 3084 2163 3084 
Q 1697 3084 1428 2787 
Q 1159 2491 1159 1978 
L 1159 0 
L 581 0 
L 581 4863 
L 1159 4863 
L 1159 2956 
Q 1366 3272 1645 3428 
Q 1925 3584 2291 3584 
Q 2894 3584 3203 3211 
Q 3513 2838 3513 2113 
z
" transform="scale(0.015625)"/>
      </defs>
      <use xlink:href="#DejaVuSans-50"/>
      <use xlink:href="#DejaVuSans-61" transform="translate(55.802734 0)"/>
      <use xlink:href="#DejaVuSans-72" transform="translate(117.082031 0)"/>
      <use xlink:href="#DejaVuSans-61" transform="translate(158.195312 0)"/>
      <use xlink:href="#DejaVuSans-70" transform="translate(219.474609 0)"/>
      <use xlink:href="#DejaVuSans-68" transform="translate(282.951172 0)"/>
      <use xlink:href="#DejaVuSans-72" transform="translate(346.330078 0)"/>
      <use xlink:href="#DejaVuSans-61" transform="translate(387.443359 0)"/>
      <use xlink:href="#DejaVuSans-73" transform="translate(448.722656 0)"/>
      <use xlink:href="#DejaVuSans-65" transform="translate(500.822266 0)"/>
      <use xlink:href="#DejaVuSans-72" transform="translate(562.345703 0)"/>
     </g>
    </g>
   </g>
   <g id="matplotlib.axis_2">
    <g id="ytick_1">
     <g id="line2d_6">
      <defs>
       <path id="m908a03c891" d="M 0 0 
L -3.5 0 
" style="stroke: #000000; stroke-width: 0.8"/>
      </defs>
      <g>
       <use xlink:href="#m908a03c891" x="53.4875" y="293.352911" style="stroke: #000000; stroke-width: 0.8"/>
      </g>
     </g>
     <g id="text_6">
      <!-- 0 -->
      <g transform="translate(40.125 297.15213) scale(0.1 -0.1)">
       <use xlink:href="#DejaVuSans-30"/>
      </g>
     </g>
    </g>
    <g id="ytick_2">
     <g id="line2d_7">
      <g>
       <use xlink:href="#m908a03c891" x="53.4875" y="248.180447" style="stroke: #000000; stroke-width: 0.8"/>
      </g>
     </g>
     <g id="text_7">
      <!-- 50 -->
      <g transform="translate(33.7625 251.979665) scale(0.1 -0.1)">
       <defs>
        <path id="DejaVuSans-35" d="M 691 4666 
L 3169 4666 
L 3169 4134 
L 1269 4134 
L 1269 2991 
Q 1406 3038 1543 3061 
Q 1681 3084 1819 3084 
Q 2600 3084 3056 2656 
Q 3513 2228 3513 1497 
Q 3513 744 3044 326 
Q 2575 -91 1722 -91 
Q 1428 -91 1123 -41 
Q 819 9 494 109 
L 494 744 
Q 775 591 1075 516 
Q 1375 441 1709 441 
Q 2250 441 2565 725 
Q 2881 1009 2881 1497 
Q 2881 1984 2565 2268 
Q 2250 2553 1709 2553 
Q 1456 2553 1204 2497 
Q 953 2441 691 2322 
L 691 4666 
z
" transform="scale(0.015625)"/>
       </defs>
       <use xlink:href="#DejaVuSans-35"/>
       <use xlink:href="#DejaVuSans-30" transform="translate(63.623047 0)"/>
      </g>
     </g>
    </g>
    <g id="ytick_3">
     <g id="line2d_8">
      <g>
       <use xlink:href="#m908a03c891" x="53.4875" y="203.007982" style="stroke: #000000; stroke-width: 0.8"/>
      </g>
     </g>
     <g id="text_8">
      <!-- 100 -->
      <g transform="translate(27.4 206.807201) scale(0.1 -0.1)">
       <use xlink:href="#DejaVuSans-31"/>
       <use xlink:href="#DejaVuSans-30" transform="translate(63.623047 0)"/>
       <use xlink:href="#DejaVuSans-30" transform="translate(127.246094 0)"/>
      </g>
     </g>
    </g>
    <g id="ytick_4">
     <g id="line2d_9">
      <g>
       <use xlink:href="#m908a03c891" x="53.4875" y="157.835518" style="stroke: #000000; stroke-width: 0.8"/>
      </g>
     </g>
     <g id="text_9">
      <!-- 150 -->
      <g transform="translate(27.4 161.634737) scale(0.1 -0.1)">
       <use xlink:href="#DejaVuSans-31"/>
       <use xlink:href="#DejaVuSans-35" transform="translate(63.623047 0)"/>
       <use xlink:href="#DejaVuSans-30" transform="translate(127.246094 0)"/>
      </g>
     </g>
    </g>
    <g id="ytick_5">
     <g id="line2d_10">
      <g>
       <use xlink:href="#m908a03c891" x="53.4875" y="112.663054" style="stroke: #000000; stroke-width: 0.8"/>
      </g>
     </g>
     <g id="text_10">
      <!-- 200 -->
      <g transform="translate(27.4 116.462272) scale(0.1 -0.1)">
       <use xlink:href="#DejaVuSans-32"/>
       <use xlink:href="#DejaVuSans-30" transform="translate(63.623047 0)"/>
       <use xlink:href="#DejaVuSans-30" transform="translate(127.246094 0)"/>
      </g>
     </g>
    </g>
    <g id="ytick_6">
     <g id="line2d_11">
      <g>
       <use xlink:href="#m908a03c891" x="53.4875" y="67.490589" style="stroke: #000000; stroke-width: 0.8"/>
      </g>
     </g>
     <g id="text_11">
      <!-- 250 -->
      <g transform="translate(27.4 71.289808) scale(0.1 -0.1)">
       <use xlink:href="#DejaVuSans-32"/>
       <use xlink:href="#DejaVuSans-35" transform="translate(63.623047 0)"/>
       <use xlink:href="#DejaVuSans-30" transform="translate(127.246094 0)"/>
      </g>
     </g>
    </g>
    <g id="ytick_7">
     <g id="line2d_12">
      <g>
       <use xlink:href="#m908a03c891" x="53.4875" y="22.318125" style="stroke: #000000; stroke-width: 0.8"/>
      </g>
     </g>
     <g id="text_12">
      <!-- 300 -->
      <g transform="translate(27.4 26.117344) scale(0.1 -0.1)">
       <use xlink:href="#DejaVuSans-33"/>
       <use xlink:href="#DejaVuSans-30" transform="translate(63.623047 0)"/>
       <use xlink:href="#DejaVuSans-30" transform="translate(127.246094 0)"/>
      </g>
     </g>
    </g>
    <g id="text_13">
     <!-- Relative Length Percentage $\frac{len(paraphrase)}{len(reference)}\times 100\%$ -->
     <g transform="translate(18.4 277.835518) rotate(-90) scale(0.1 -0.1)">
      <defs>
       <path id="DejaVuSans-52" d="M 2841 2188 
Q 3044 2119 3236 1894 
Q 3428 1669 3622 1275 
L 4263 0 
L 3584 0 
L 2988 1197 
Q 2756 1666 2539 1819 
Q 2322 1972 1947 1972 
L 1259 1972 
L 1259 0 
L 628 0 
L 628 4666 
L 2053 4666 
Q 2853 4666 3247 4331 
Q 3641 3997 3641 3322 
Q 3641 2881 3436 2590 
Q 3231 2300 2841 2188 
z
M 1259 4147 
L 1259 2491 
L 2053 2491 
Q 2509 2491 2742 2702 
Q 2975 2913 2975 3322 
Q 2975 3731 2742 3939 
Q 2509 4147 2053 4147 
L 1259 4147 
z
" transform="scale(0.015625)"/>
       <path id="DejaVuSans-76" d="M 191 3500 
L 800 3500 
L 1894 563 
L 2988 3500 
L 3597 3500 
L 2284 0 
L 1503 0 
L 191 3500 
z
" transform="scale(0.015625)"/>
       <path id="DejaVuSans-20" transform="scale(0.015625)"/>
       <path id="DejaVuSans-4c" d="M 628 4666 
L 1259 4666 
L 1259 531 
L 3531 531 
L 3531 0 
L 628 0 
L 628 4666 
z
" transform="scale(0.015625)"/>
       <path id="DejaVuSans-Oblique-6c" d="M 1172 4863 
L 1747 4863 
L 800 0 
L 225 0 
L 1172 4863 
z
" transform="scale(0.015625)"/>
       <path id="DejaVuSans-Oblique-65" d="M 3078 2063 
Q 3088 2113 3092 2166 
Q 3097 2219 3097 2272 
Q 3097 2653 2873 2875 
Q 2650 3097 2266 3097 
Q 1838 3097 1509 2826 
Q 1181 2556 1013 2059 
L 3078 2063 
z
M 3578 1613 
L 903 1613 
Q 884 1494 878 1425 
Q 872 1356 872 1306 
Q 872 872 1139 634 
Q 1406 397 1894 397 
Q 2269 397 2603 481 
Q 2938 566 3225 728 
L 3116 159 
Q 2806 34 2476 -28 
Q 2147 -91 1806 -91 
Q 1078 -91 686 257 
Q 294 606 294 1247 
Q 294 1794 489 2264 
Q 684 2734 1063 3103 
Q 1306 3334 1642 3459 
Q 1978 3584 2356 3584 
Q 2950 3584 3301 3228 
Q 3653 2872 3653 2272 
Q 3653 2128 3634 1964 
Q 3616 1800 3578 1613 
z
" transform="scale(0.015625)"/>
       <path id="DejaVuSans-Oblique-6e" d="M 3566 2113 
L 3156 0 
L 2578 0 
L 2988 2091 
Q 3016 2238 3031 2350 
Q 3047 2463 3047 2528 
Q 3047 2791 2881 2937 
Q 2716 3084 2419 3084 
Q 1956 3084 1622 2776 
Q 1288 2469 1184 1941 
L 800 0 
L 225 0 
L 903 3500 
L 1478 3500 
L 1363 2950 
Q 1603 3253 1940 3418 
Q 2278 3584 2650 3584 
Q 3113 3584 3367 3334 
Q 3622 3084 3622 2631 
Q 3622 2519 3608 2391 
Q 3594 2263 3566 2113 
z
" transform="scale(0.015625)"/>
       <path id="DejaVuSans-28" d="M 1984 4856 
Q 1566 4138 1362 3434 
Q 1159 2731 1159 2009 
Q 1159 1288 1364 580 
Q 1569 -128 1984 -844 
L 1484 -844 
Q 1016 -109 783 600 
Q 550 1309 550 2009 
Q 550 2706 781 3412 
Q 1013 4119 1484 4856 
L 1984 4856 
z
" transform="scale(0.015625)"/>
       <path id="DejaVuSans-Oblique-70" d="M 3175 2156 
Q 3175 2616 2975 2859 
Q 2775 3103 2400 3103 
Q 2144 3103 1911 2972 
Q 1678 2841 1497 2591 
Q 1319 2344 1212 1994 
Q 1106 1644 1106 1300 
Q 1106 863 1306 627 
Q 1506 391 1875 391 
Q 2147 391 2380 519 
Q 2613 647 2778 891 
Q 2956 1147 3065 1494 
Q 3175 1841 3175 2156 
z
M 1394 2969 
Q 1625 3272 1939 3428 
Q 2253 3584 2638 3584 
Q 3175 3584 3472 3232 
Q 3769 2881 3769 2247 
Q 3769 1728 3584 1258 
Q 3400 788 3053 416 
Q 2822 169 2531 39 
Q 2241 -91 1919 -91 
Q 1547 -91 1294 64 
Q 1041 219 916 525 
L 556 -1331 
L -19 -1331 
L 922 3500 
L 1497 3500 
L 1394 2969 
z
" transform="scale(0.015625)"/>
       <path id="DejaVuSans-Oblique-61" d="M 3438 1997 
L 3047 0 
L 2472 0 
L 2578 531 
Q 2325 219 2001 64 
Q 1678 -91 1281 -91 
Q 834 -91 548 182 
Q 263 456 263 884 
Q 263 1497 752 1853 
Q 1241 2209 2100 2209 
L 2900 2209 
L 2931 2363 
Q 2938 2388 2941 2417 
Q 2944 2447 2944 2509 
Q 2944 2788 2717 2942 
Q 2491 3097 2081 3097 
Q 1800 3097 1504 3025 
Q 1209 2953 897 2809 
L 997 3341 
Q 1322 3463 1633 3523 
Q 1944 3584 2234 3584 
Q 2853 3584 3176 3315 
Q 3500 3047 3500 2534 
Q 3500 2431 3484 2292 
Q 3469 2153 3438 1997 
z
M 2816 1759 
L 2241 1759 
Q 1534 1759 1195 1570 
Q 856 1381 856 984 
Q 856 709 1029 553 
Q 1203 397 1509 397 
Q 1978 397 2328 733 
Q 2678 1069 2791 1631 
L 2816 1759 
z
" transform="scale(0.015625)"/>
       <path id="DejaVuSans-Oblique-72" d="M 2853 2969 
Q 2766 3016 2653 3041 
Q 2541 3066 2413 3066 
Q 1953 3066 1609 2717 
Q 1266 2369 1153 1784 
L 800 0 
L 225 0 
L 909 3500 
L 1484 3500 
L 1375 2956 
Q 1603 3259 1920 3421 
Q 2238 3584 2597 3584 
Q 2691 3584 2781 3573 
Q 2872 3563 2963 3538 
L 2853 2969 
z
" transform="scale(0.015625)"/>
       <path id="DejaVuSans-Oblique-68" d="M 3566 2113 
L 3156 0 
L 2578 0 
L 2988 2091 
Q 3016 2238 3031 2350 
Q 3047 2463 3047 2528 
Q 3047 2791 2881 2937 
Q 2716 3084 2419 3084 
Q 1956 3084 1617 2771 
Q 1278 2459 1178 1941 
L 800 0 
L 225 0 
L 1172 4863 
L 1747 4863 
L 1375 2950 
Q 1594 3244 1934 3414 
Q 2275 3584 2650 3584 
Q 3113 3584 3367 3334 
Q 3622 3084 3622 2631 
Q 3622 2519 3608 2391 
Q 3594 2263 3566 2113 
z
" transform="scale(0.015625)"/>
       <path id="DejaVuSans-Oblique-73" d="M 3200 3397 
L 3091 2853 
Q 2863 2978 2609 3040 
Q 2356 3103 2088 3103 
Q 1634 3103 1373 2948 
Q 1113 2794 1113 2528 
Q 1113 2219 1719 2053 
Q 1766 2041 1788 2034 
L 1972 1978 
Q 2547 1819 2739 1644 
Q 2931 1469 2931 1166 
Q 2931 609 2489 259 
Q 2047 -91 1331 -91 
Q 1053 -91 747 -37 
Q 441 16 72 128 
L 184 722 
Q 500 559 806 475 
Q 1113 391 1394 391 
Q 1816 391 2080 572 
Q 2344 753 2344 1031 
Q 2344 1331 1650 1516 
L 1591 1531 
L 1394 1581 
Q 956 1697 753 1886 
Q 550 2075 550 2369 
Q 550 2928 970 3256 
Q 1391 3584 2113 3584 
Q 2397 3584 2667 3537 
Q 2938 3491 3200 3397 
z
" transform="scale(0.015625)"/>
       <path id="DejaVuSans-29" d="M 513 4856 
L 1013 4856 
Q 1481 4119 1714 3412 
Q 1947 2706 1947 2009 
Q 1947 1309 1714 600 
Q 1481 -109 1013 -844 
L 513 -844 
Q 928 -128 1133 580 
Q 1338 1288 1338 2009 
Q 1338 2731 1133 3434 
Q 928 4138 513 4856 
z
" transform="scale(0.015625)"/>
       <path id="DejaVuSans-Oblique-66" d="M 3059 4863 
L 2969 4384 
L 2419 4384 
Q 2106 4384 1964 4261 
Q 1822 4138 1753 3809 
L 1691 3500 
L 2638 3500 
L 2553 3053 
L 1606 3053 
L 1013 0 
L 434 0 
L 1031 3053 
L 481 3053 
L 563 3500 
L 1113 3500 
L 1159 3744 
Q 1278 4363 1576 4613 
Q 1875 4863 2516 4863 
L 3059 4863 
z
" transform="scale(0.015625)"/>
       <path id="DejaVuSans-Oblique-63" d="M 3431 3366 
L 3316 2797 
Q 3109 2947 2876 3022 
Q 2644 3097 2394 3097 
Q 2119 3097 1870 3000 
Q 1622 2903 1453 2725 
Q 1184 2453 1037 2087 
Q 891 1722 891 1331 
Q 891 859 1127 628 
Q 1363 397 1844 397 
Q 2081 397 2348 469 
Q 2616 541 2906 684 
L 2797 116 
Q 2547 13 2283 -39 
Q 2019 -91 1741 -91 
Q 1044 -91 669 257 
Q 294 606 294 1253 
Q 294 1797 489 2255 
Q 684 2713 1069 3078 
Q 1331 3328 1684 3456 
Q 2038 3584 2456 3584 
Q 2700 3584 2940 3529 
Q 3181 3475 3431 3366 
z
" transform="scale(0.015625)"/>
       <path id="DejaVuSans-d7" d="M 4488 3438 
L 3059 2003 
L 4488 575 
L 4116 197 
L 2681 1631 
L 1247 197 
L 878 575 
L 2303 2003 
L 878 3438 
L 1247 3816 
L 2681 2381 
L 4116 3816 
L 4488 3438 
z
" transform="scale(0.015625)"/>
       <path id="DejaVuSans-25" d="M 4653 2053 
Q 4381 2053 4226 1822 
Q 4072 1591 4072 1178 
Q 4072 772 4226 539 
Q 4381 306 4653 306 
Q 4919 306 5073 539 
Q 5228 772 5228 1178 
Q 5228 1588 5073 1820 
Q 4919 2053 4653 2053 
z
M 4653 2450 
Q 5147 2450 5437 2106 
Q 5728 1763 5728 1178 
Q 5728 594 5436 251 
Q 5144 -91 4653 -91 
Q 4153 -91 3862 251 
Q 3572 594 3572 1178 
Q 3572 1766 3864 2108 
Q 4156 2450 4653 2450 
z
M 1428 4353 
Q 1159 4353 1004 4120 
Q 850 3888 850 3481 
Q 850 3069 1003 2837 
Q 1156 2606 1428 2606 
Q 1700 2606 1854 2837 
Q 2009 3069 2009 3481 
Q 2009 3884 1853 4118 
Q 1697 4353 1428 4353 
z
M 4250 4750 
L 4750 4750 
L 1831 -91 
L 1331 -91 
L 4250 4750 
z
M 1428 4750 
Q 1922 4750 2215 4408 
Q 2509 4066 2509 3481 
Q 2509 2891 2217 2550 
Q 1925 2209 1428 2209 
Q 931 2209 642 2551 
Q 353 2894 353 3481 
Q 353 4063 643 4406 
Q 934 4750 1428 4750 
z
" transform="scale(0.015625)"/>
      </defs>
      <use xlink:href="#DejaVuSans-52" transform="translate(0 0.45625)"/>
      <use xlink:href="#DejaVuSans-65" transform="translate(69.482422 0.45625)"/>
      <use xlink:href="#DejaVuSans-6c" transform="translate(131.005859 0.45625)"/>
      <use xlink:href="#DejaVuSans-61" transform="translate(158.789062 0.45625)"/>
      <use xlink:href="#DejaVuSans-74" transform="translate(220.068359 0.45625)"/>
      <use xlink:href="#DejaVuSans-69" transform="translate(259.277344 0.45625)"/>
      <use xlink:href="#DejaVuSans-76" transform="translate(287.060547 0.45625)"/>
      <use xlink:href="#DejaVuSans-65" transform="translate(346.240234 0.45625)"/>
      <use xlink:href="#DejaVuSans-20" transform="translate(407.763672 0.45625)"/>
      <use xlink:href="#DejaVuSans-4c" transform="translate(439.550781 0.45625)"/>
      <use xlink:href="#DejaVuSans-65" transform="translate(495.263672 0.45625)"/>
      <use xlink:href="#DejaVuSans-6e" transform="translate(556.787109 0.45625)"/>
      <use xlink:href="#DejaVuSans-67" transform="translate(620.166016 0.45625)"/>
      <use xlink:href="#DejaVuSans-74" transform="translate(683.642578 0.45625)"/>
      <use xlink:href="#DejaVuSans-68" transform="translate(722.851562 0.45625)"/>
      <use xlink:href="#DejaVuSans-20" transform="translate(786.230469 0.45625)"/>
      <use xlink:href="#DejaVuSans-50" transform="translate(818.017578 0.45625)"/>
      <use xlink:href="#DejaVuSans-65" transform="translate(878.320312 0.45625)"/>
      <use xlink:href="#DejaVuSans-72" transform="translate(939.84375 0.45625)"/>
      <use xlink:href="#DejaVuSans-63" transform="translate(980.957031 0.45625)"/>
      <use xlink:href="#DejaVuSans-65" transform="translate(1035.9375 0.45625)"/>
      <use xlink:href="#DejaVuSans-6e" transform="translate(1097.460938 0.45625)"/>
      <use xlink:href="#DejaVuSans-74" transform="translate(1160.839844 0.45625)"/>
      <use xlink:href="#DejaVuSans-61" transform="translate(1200.048828 0.45625)"/>
      <use xlink:href="#DejaVuSans-67" transform="translate(1261.328125 0.45625)"/>
      <use xlink:href="#DejaVuSans-65" transform="translate(1324.804688 0.45625)"/>
      <use xlink:href="#DejaVuSans-20" transform="translate(1386.328125 0.45625)"/>
      <use xlink:href="#DejaVuSans-Oblique-6c" transform="translate(1418.115234 58.810938) scale(0.7)"/>
      <use xlink:href="#DejaVuSans-Oblique-65" transform="translate(1437.563477 58.810938) scale(0.7)"/>
      <use xlink:href="#DejaVuSans-Oblique-6e" transform="translate(1480.629883 58.810938) scale(0.7)"/>
      <use xlink:href="#DejaVuSans-28" transform="translate(1524.995117 58.810938) scale(0.7)"/>
      <use xlink:href="#DejaVuSans-Oblique-70" transform="translate(1552.304688 58.810938) scale(0.7)"/>
      <use xlink:href="#DejaVuSans-Oblique-61" transform="translate(1596.738281 58.810938) scale(0.7)"/>
      <use xlink:href="#DejaVuSans-Oblique-72" transform="translate(1639.633789 58.810938) scale(0.7)"/>
      <use xlink:href="#DejaVuSans-Oblique-61" transform="translate(1668.413086 58.810938) scale(0.7)"/>
      <use xlink:href="#DejaVuSans-Oblique-70" transform="translate(1711.308594 58.810938) scale(0.7)"/>
      <use xlink:href="#DejaVuSans-Oblique-68" transform="translate(1755.742188 58.810938) scale(0.7)"/>
      <use xlink:href="#DejaVuSans-Oblique-72" transform="translate(1800.107422 58.810938) scale(0.7)"/>
      <use xlink:href="#DejaVuSans-Oblique-61" transform="translate(1828.886719 58.810938) scale(0.7)"/>
      <use xlink:href="#DejaVuSans-Oblique-73" transform="translate(1871.782227 58.810938) scale(0.7)"/>
      <use xlink:href="#DejaVuSans-Oblique-65" transform="translate(1908.251953 58.810938) scale(0.7)"/>
      <use xlink:href="#DejaVuSans-29" transform="translate(1951.318359 58.810938) scale(0.7)"/>
      <use xlink:href="#DejaVuSans-Oblique-6c" transform="translate(1449.115234 -40.185937) scale(0.7)"/>
      <use xlink:href="#DejaVuSans-Oblique-65" transform="translate(1468.563477 -40.185937) scale(0.7)"/>
      <use xlink:href="#DejaVuSans-Oblique-6e" transform="translate(1511.629883 -40.185937) scale(0.7)"/>
      <use xlink:href="#DejaVuSans-28" transform="translate(1555.995117 -40.185937) scale(0.7)"/>
      <use xlink:href="#DejaVuSans-Oblique-72" transform="translate(1583.304688 -40.185937) scale(0.7)"/>
      <use xlink:href="#DejaVuSans-Oblique-65" transform="translate(1612.083984 -40.185937) scale(0.7)"/>
      <use xlink:href="#DejaVuSans-Oblique-66" transform="translate(1655.150391 -40.185937) scale(0.7)"/>
      <use xlink:href="#DejaVuSans-Oblique-65" transform="translate(1679.793945 -40.185937) scale(0.7)"/>
      <use xlink:href="#DejaVuSans-Oblique-72" transform="translate(1722.860352 -40.185937) scale(0.7)"/>
      <use xlink:href="#DejaVuSans-Oblique-65" transform="translate(1751.639648 -40.185937) scale(0.7)"/>
      <use xlink:href="#DejaVuSans-Oblique-6e" transform="translate(1794.706055 -40.185937) scale(0.7)"/>
      <use xlink:href="#DejaVuSans-Oblique-63" transform="translate(1839.071289 -40.185937) scale(0.7)"/>
      <use xlink:href="#DejaVuSans-Oblique-65" transform="translate(1877.557617 -40.185937) scale(0.7)"/>
      <use xlink:href="#DejaVuSans-29" transform="translate(1920.624023 -40.185937) scale(0.7)"/>
      <use xlink:href="#DejaVuSans-d7" transform="translate(2010.610352 0.45625)"/>
      <use xlink:href="#DejaVuSans-31" transform="translate(2113.881836 0.45625)"/>
      <use xlink:href="#DejaVuSans-30" transform="translate(2177.504883 0.45625)"/>
      <use xlink:href="#DejaVuSans-30" transform="translate(2241.12793 0.45625)"/>
      <use xlink:href="#DejaVuSans-25" transform="translate(2304.750977 0.45625)"/>
      <path d="M 1418.115234 19.253125 
L 1418.115234 25.503125 
L 1978.62793 25.503125 
L 1978.62793 19.253125 
L 1418.115234 19.253125 
z
"/>
     </g>
    </g>
   </g>
   <g id="patch_6">
    <path d="M 69.693025 292.286841 
L 112.907758 292.286841 
L 112.907758 291.062667 
L 69.693025 291.062667 
L 69.693025 292.286841 
z
" clip-path="url(#p79dbaa6cba)" style="fill: #3274a1; stroke: #3d3d3d; stroke-linejoin: miter"/>
   </g>
   <g id="line2d_13">
    <path d="M 91.300392 292.286841 
L 91.300392 293.0096 
" clip-path="url(#p79dbaa6cba)" style="fill: none; stroke: #3d3d3d"/>
   </g>
   <g id="line2d_14">
    <path d="M 91.300392 291.062667 
L 91.300392 289.287389 
" clip-path="url(#p79dbaa6cba)" style="fill: none; stroke: #3d3d3d"/>
   </g>
   <g id="line2d_15">
    <path d="M 80.496708 293.0096 
L 102.104075 293.0096 
" clip-path="url(#p79dbaa6cba)" style="fill: none; stroke: #3d3d3d; stroke-linecap: square"/>
   </g>
   <g id="line2d_16">
    <path d="M 80.496708 289.287389 
L 102.104075 289.287389 
" clip-path="url(#p79dbaa6cba)" style="fill: none; stroke: #3d3d3d; stroke-linecap: square"/>
   </g>
   <g id="line2d_17">
    <defs>
     <path id="m1228927c50" d="M 0 3 
C 0.795609 3 1.55874 2.683901 2.12132 2.12132 
C 2.683901 1.55874 3 0.795609 3 0 
C 3 -0.795609 2.683901 -1.55874 2.12132 -2.12132 
C 1.55874 -2.683901 0.795609 -3 0 -3 
C -0.795609 -3 -1.55874 -2.683901 -2.12132 -2.12132 
C -2.683901 -1.55874 -3 -0.795609 -3 0 
C -3 0.795609 -2.683901 1.55874 -2.12132 2.12132 
C -1.55874 2.683901 -0.795609 3 0 3 
z
" style="stroke: #3d3d3d"/>
    </defs>
    <g clip-path="url(#p79dbaa6cba)">
     <use xlink:href="#m1228927c50" x="91.300392" y="288.555595" style="fill-opacity: 0; stroke: #3d3d3d"/>
     <use xlink:href="#m1228927c50" x="91.300392" y="289.124768" style="fill-opacity: 0; stroke: #3d3d3d"/>
    </g>
   </g>
   <g id="patch_7">
    <path d="M 231.748275 275.053546 
L 274.963008 275.053546 
L 274.963008 249.635 
L 231.748275 249.635 
L 231.748275 275.053546 
z
" clip-path="url(#p79dbaa6cba)" style="fill: #3274a1; stroke: #3d3d3d; stroke-linejoin: miter"/>
   </g>
   <g id="line2d_18">
    <path d="M 253.355642 275.053546 
L 253.355642 291.085253 
" clip-path="url(#p79dbaa6cba)" style="fill: none; stroke: #3d3d3d"/>
   </g>
   <g id="line2d_19">
    <path d="M 253.355642 249.635 
L 253.355642 213.11758 
" clip-path="url(#p79dbaa6cba)" style="fill: none; stroke: #3d3d3d"/>
   </g>
   <g id="line2d_20">
    <path d="M 242.551958 291.085253 
L 264.159325 291.085253 
" clip-path="url(#p79dbaa6cba)" style="fill: none; stroke: #3d3d3d; stroke-linecap: square"/>
   </g>
   <g id="line2d_21">
    <path d="M 242.551958 213.11758 
L 264.159325 213.11758 
" clip-path="url(#p79dbaa6cba)" style="fill: none; stroke: #3d3d3d; stroke-linecap: square"/>
   </g>
   <g id="line2d_22">
    <g clip-path="url(#p79dbaa6cba)">
     <use xlink:href="#m1228927c50" x="253.355642" y="196.521216" style="fill-opacity: 0; stroke: #3d3d3d"/>
     <use xlink:href="#m1228927c50" x="253.355642" y="202.33943" style="fill-opacity: 0; stroke: #3d3d3d"/>
     <use xlink:href="#m1228927c50" x="253.355642" y="201.43598" style="fill-opacity: 0; stroke: #3d3d3d"/>
     <use xlink:href="#m1228927c50" x="253.355642" y="210.018749" style="fill-opacity: 0; stroke: #3d3d3d"/>
     <use xlink:href="#m1228927c50" x="253.355642" y="204.73357" style="fill-opacity: 0; stroke: #3d3d3d"/>
     <use xlink:href="#m1228927c50" x="253.355642" y="-1" style="fill-opacity: 0; stroke: #3d3d3d"/>
    </g>
   </g>
   <g id="patch_8">
    <path d="M 393.803525 292.476565 
L 437.018258 292.476565 
L 437.018258 290.782598 
L 393.803525 290.782598 
L 393.803525 292.476565 
z
" clip-path="url(#p79dbaa6cba)" style="fill: #3274a1; stroke: #3d3d3d; stroke-linejoin: miter"/>
   </g>
   <g id="line2d_23">
    <path d="M 415.410892 292.476565 
L 415.410892 293.090911 
" clip-path="url(#p79dbaa6cba)" style="fill: none; stroke: #3d3d3d"/>
   </g>
   <g id="line2d_24">
    <path d="M 415.410892 290.782598 
L 415.410892 288.808561 
" clip-path="url(#p79dbaa6cba)" style="fill: none; stroke: #3d3d3d"/>
   </g>
   <g id="line2d_25">
    <path d="M 404.607208 293.090911 
L 426.214575 293.090911 
" clip-path="url(#p79dbaa6cba)" style="fill: none; stroke: #3d3d3d; stroke-linecap: square"/>
   </g>
   <g id="line2d_26">
    <path d="M 404.607208 288.808561 
L 426.214575 288.808561 
" clip-path="url(#p79dbaa6cba)" style="fill: none; stroke: #3d3d3d; stroke-linecap: square"/>
   </g>
   <g id="line2d_27">
    <g clip-path="url(#p79dbaa6cba)">
     <use xlink:href="#m1228927c50" x="415.410892" y="249.463345" style="fill-opacity: 0; stroke: #3d3d3d"/>
     <use xlink:href="#m1228927c50" x="415.410892" y="220.146415" style="fill-opacity: 0; stroke: #3d3d3d"/>
     <use xlink:href="#m1228927c50" x="415.410892" y="231.945463" style="fill-opacity: 0; stroke: #3d3d3d"/>
     <use xlink:href="#m1228927c50" x="415.410892" y="264.198602" style="fill-opacity: 0; stroke: #3d3d3d"/>
     <use xlink:href="#m1228927c50" x="415.410892" y="221.510624" style="fill-opacity: 0; stroke: #3d3d3d"/>
     <use xlink:href="#m1228927c50" x="415.410892" y="284.72497" style="fill-opacity: 0; stroke: #3d3d3d"/>
     <use xlink:href="#m1228927c50" x="415.410892" y="280.307103" style="fill-opacity: 0; stroke: #3d3d3d"/>
     <use xlink:href="#m1228927c50" x="415.410892" y="284.914695" style="fill-opacity: 0; stroke: #3d3d3d"/>
     <use xlink:href="#m1228927c50" x="415.410892" y="271.516542" style="fill-opacity: 0; stroke: #3d3d3d"/>
     <use xlink:href="#m1228927c50" x="415.410892" y="251.703899" style="fill-opacity: 0; stroke: #3d3d3d"/>
     <use xlink:href="#m1228927c50" x="415.410892" y="278.717032" style="fill-opacity: 0; stroke: #3d3d3d"/>
     <use xlink:href="#m1228927c50" x="415.410892" y="287.489525" style="fill-opacity: 0; stroke: #3d3d3d"/>
     <use xlink:href="#m1228927c50" x="415.410892" y="240.745059" style="fill-opacity: 0; stroke: #3d3d3d"/>
     <use xlink:href="#m1228927c50" x="415.410892" y="287.769594" style="fill-opacity: 0; stroke: #3d3d3d"/>
     <use xlink:href="#m1228927c50" x="415.410892" y="280.713655" style="fill-opacity: 0; stroke: #3d3d3d"/>
     <use xlink:href="#m1228927c50" x="415.410892" y="285.70973" style="fill-opacity: 0; stroke: #3d3d3d"/>
     <use xlink:href="#m1228927c50" x="415.410892" y="276.684272" style="fill-opacity: 0; stroke: #3d3d3d"/>
     <use xlink:href="#m1228927c50" x="415.410892" y="285.321247" style="fill-opacity: 0; stroke: #3d3d3d"/>
     <use xlink:href="#m1228927c50" x="415.410892" y="275.211649" style="fill-opacity: 0; stroke: #3d3d3d"/>
    </g>
   </g>
   <g id="patch_9">
    <path d="M 555.858775 259.49389 
L 599.073508 259.49389 
L 599.073508 186.867861 
L 555.858775 186.867861 
L 555.858775 259.49389 
z
" clip-path="url(#p79dbaa6cba)" style="fill: #3274a1; stroke: #3d3d3d; stroke-linejoin: miter"/>
   </g>
   <g id="line2d_28">
    <path d="M 577.466142 259.49389 
L 577.466142 276.602961 
" clip-path="url(#p79dbaa6cba)" style="fill: none; stroke: #3d3d3d"/>
   </g>
   <g id="line2d_29">
    <path d="M 577.466142 186.867861 
L 577.466142 81.385639 
" clip-path="url(#p79dbaa6cba)" style="fill: none; stroke: #3d3d3d"/>
   </g>
   <g id="line2d_30">
    <path d="M 566.662458 276.602961 
L 588.269825 276.602961 
" clip-path="url(#p79dbaa6cba)" style="fill: none; stroke: #3d3d3d; stroke-linecap: square"/>
   </g>
   <g id="line2d_31">
    <path d="M 566.662458 81.385639 
L 588.269825 81.385639 
" clip-path="url(#p79dbaa6cba)" style="fill: none; stroke: #3d3d3d; stroke-linecap: square"/>
   </g>
   <g id="line2d_32">
    <g clip-path="url(#p79dbaa6cba)">
     <use xlink:href="#m1228927c50" x="577.466142" y="59.919684" style="fill-opacity: 0; stroke: #3d3d3d"/>
     <use xlink:href="#m1228927c50" x="577.466142" y="69.414936" style="fill-opacity: 0; stroke: #3d3d3d"/>
     <use xlink:href="#m1228927c50" x="577.466142" y="68.683142" style="fill-opacity: 0; stroke: #3d3d3d"/>
     <use xlink:href="#m1228927c50" x="577.466142" y="46.521531" style="fill-opacity: 0; stroke: #3d3d3d"/>
     <use xlink:href="#m1228927c50" x="577.466142" y="-1" style="fill-opacity: 0; stroke: #3d3d3d"/>
     <use xlink:href="#m1228927c50" x="577.466142" y="-1" style="fill-opacity: 0; stroke: #3d3d3d"/>
     <use xlink:href="#m1228927c50" x="577.466142" y="9.715007" style="fill-opacity: 0; stroke: #3d3d3d"/>
     <use xlink:href="#m1228927c50" x="577.466142" y="-1" style="fill-opacity: 0; stroke: #3d3d3d"/>
    </g>
   </g>
   <g id="patch_10">
    <path d="M 112.907758 290.69677 
L 156.122492 290.69677 
L 156.122492 280.776897 
L 112.907758 280.776897 
L 112.907758 290.69677 
z
" clip-path="url(#p79dbaa6cba)" style="fill: #e1812c; stroke: #3d3d3d; stroke-linejoin: miter"/>
   </g>
   <g id="line2d_33">
    <path d="M 134.515125 290.69677 
L 134.515125 292.359117 
" clip-path="url(#p79dbaa6cba)" style="fill: none; stroke: #3d3d3d"/>
   </g>
   <g id="line2d_34">
    <path d="M 134.515125 280.776897 
L 134.515125 266.375915 
" clip-path="url(#p79dbaa6cba)" style="fill: none; stroke: #3d3d3d"/>
   </g>
   <g id="line2d_35">
    <path d="M 123.711442 292.359117 
L 145.318808 292.359117 
" clip-path="url(#p79dbaa6cba)" style="fill: none; stroke: #3d3d3d; stroke-linecap: square"/>
   </g>
   <g id="line2d_36">
    <path d="M 123.711442 266.375915 
L 145.318808 266.375915 
" clip-path="url(#p79dbaa6cba)" style="fill: none; stroke: #3d3d3d; stroke-linecap: square"/>
   </g>
   <g id="line2d_37">
    <g clip-path="url(#p79dbaa6cba)">
     <use xlink:href="#m1228927c50" x="134.515125" y="265.815777" style="fill-opacity: 0; stroke: #3d3d3d"/>
     <use xlink:href="#m1228927c50" x="134.515125" y="236.282019" style="fill-opacity: 0; stroke: #3d3d3d"/>
     <use xlink:href="#m1228927c50" x="134.515125" y="258.561079" style="fill-opacity: 0; stroke: #3d3d3d"/>
     <use xlink:href="#m1228927c50" x="134.515125" y="215.782755" style="fill-opacity: 0; stroke: #3d3d3d"/>
     <use xlink:href="#m1228927c50" x="134.515125" y="249.418172" style="fill-opacity: 0; stroke: #3d3d3d"/>
     <use xlink:href="#m1228927c50" x="134.515125" y="257.693768" style="fill-opacity: 0; stroke: #3d3d3d"/>
     <use xlink:href="#m1228927c50" x="134.515125" y="226.145318" style="fill-opacity: 0; stroke: #3d3d3d"/>
     <use xlink:href="#m1228927c50" x="134.515125" y="245.849547" style="fill-opacity: 0; stroke: #3d3d3d"/>
     <use xlink:href="#m1228927c50" x="134.515125" y="258.976666" style="fill-opacity: 0; stroke: #3d3d3d"/>
     <use xlink:href="#m1228927c50" x="134.515125" y="259.310942" style="fill-opacity: 0; stroke: #3d3d3d"/>
     <use xlink:href="#m1228927c50" x="134.515125" y="245.406857" style="fill-opacity: 0; stroke: #3d3d3d"/>
     <use xlink:href="#m1228927c50" x="134.515125" y="255.679076" style="fill-opacity: 0; stroke: #3d3d3d"/>
     <use xlink:href="#m1228927c50" x="134.515125" y="256.555421" style="fill-opacity: 0; stroke: #3d3d3d"/>
     <use xlink:href="#m1228927c50" x="134.515125" y="226.83194" style="fill-opacity: 0; stroke: #3d3d3d"/>
     <use xlink:href="#m1228927c50" x="134.515125" y="260.286667" style="fill-opacity: 0; stroke: #3d3d3d"/>
     <use xlink:href="#m1228927c50" x="134.515125" y="260.205357" style="fill-opacity: 0; stroke: #3d3d3d"/>
     <use xlink:href="#m1228927c50" x="134.515125" y="216.351928" style="fill-opacity: 0; stroke: #3d3d3d"/>
     <use xlink:href="#m1228927c50" x="134.515125" y="246.888514" style="fill-opacity: 0; stroke: #3d3d3d"/>
    </g>
   </g>
   <g id="patch_11">
    <path d="M 274.963008 273.779682 
L 318.177742 273.779682 
L 318.177742 240.666007 
L 274.963008 240.666007 
L 274.963008 273.779682 
z
" clip-path="url(#p79dbaa6cba)" style="fill: #e1812c; stroke: #3d3d3d; stroke-linejoin: miter"/>
   </g>
   <g id="line2d_38">
    <path d="M 296.570375 273.779682 
L 296.570375 289.53132 
" clip-path="url(#p79dbaa6cba)" style="fill: none; stroke: #3d3d3d"/>
   </g>
   <g id="line2d_39">
    <path d="M 296.570375 240.666007 
L 296.570375 207.181918 
" clip-path="url(#p79dbaa6cba)" style="fill: none; stroke: #3d3d3d"/>
   </g>
   <g id="line2d_40">
    <path d="M 285.766692 289.53132 
L 307.374058 289.53132 
" clip-path="url(#p79dbaa6cba)" style="fill: none; stroke: #3d3d3d; stroke-linecap: square"/>
   </g>
   <g id="line2d_41">
    <path d="M 285.766692 207.181918 
L 307.374058 207.181918 
" clip-path="url(#p79dbaa6cba)" style="fill: none; stroke: #3d3d3d; stroke-linecap: square"/>
   </g>
   <g id="line2d_42"/>
   <g id="patch_12">
    <path d="M 437.018258 292.332013 
L 480.232992 292.332013 
L 480.232992 260.584805 
L 437.018258 260.584805 
L 437.018258 292.332013 
z
" clip-path="url(#p79dbaa6cba)" style="fill: #e1812c; stroke: #3d3d3d; stroke-linejoin: miter"/>
   </g>
   <g id="line2d_43">
    <path d="M 458.625625 292.332013 
L 458.625625 293.2716 
" clip-path="url(#p79dbaa6cba)" style="fill: none; stroke: #3d3d3d"/>
   </g>
   <g id="line2d_44">
    <path d="M 458.625625 260.584805 
L 458.625625 220.453588 
" clip-path="url(#p79dbaa6cba)" style="fill: none; stroke: #3d3d3d"/>
   </g>
   <g id="line2d_45">
    <path d="M 447.821942 293.2716 
L 469.429308 293.2716 
" clip-path="url(#p79dbaa6cba)" style="fill: none; stroke: #3d3d3d; stroke-linecap: square"/>
   </g>
   <g id="line2d_46">
    <path d="M 447.821942 220.453588 
L 469.429308 220.453588 
" clip-path="url(#p79dbaa6cba)" style="fill: none; stroke: #3d3d3d; stroke-linecap: square"/>
   </g>
   <g id="line2d_47"/>
   <g id="patch_13">
    <path d="M 599.073508 231.846083 
L 642.288242 231.846083 
L 642.288242 201.548912 
L 599.073508 201.548912 
L 599.073508 231.846083 
z
" clip-path="url(#p79dbaa6cba)" style="fill: #e1812c; stroke: #3d3d3d; stroke-linejoin: miter"/>
   </g>
   <g id="line2d_48">
    <path d="M 620.680875 231.846083 
L 620.680875 260.575771 
" clip-path="url(#p79dbaa6cba)" style="fill: none; stroke: #3d3d3d"/>
   </g>
   <g id="line2d_49">
    <path d="M 620.680875 201.548912 
L 620.680875 166.102079 
" clip-path="url(#p79dbaa6cba)" style="fill: none; stroke: #3d3d3d"/>
   </g>
   <g id="line2d_50">
    <path d="M 609.877192 260.575771 
L 631.484558 260.575771 
" clip-path="url(#p79dbaa6cba)" style="fill: none; stroke: #3d3d3d; stroke-linecap: square"/>
   </g>
   <g id="line2d_51">
    <path d="M 609.877192 166.102079 
L 631.484558 166.102079 
" clip-path="url(#p79dbaa6cba)" style="fill: none; stroke: #3d3d3d; stroke-linecap: square"/>
   </g>
   <g id="line2d_52">
    <g clip-path="url(#p79dbaa6cba)">
     <use xlink:href="#m1228927c50" x="620.680875" y="15.135703" style="fill-opacity: 0; stroke: #3d3d3d"/>
     <use xlink:href="#m1228927c50" x="620.680875" y="27.991787" style="fill-opacity: 0; stroke: #3d3d3d"/>
     <use xlink:href="#m1228927c50" x="620.680875" y="108.552359" style="fill-opacity: 0; stroke: #3d3d3d"/>
     <use xlink:href="#m1228927c50" x="620.680875" y="117.252576" style="fill-opacity: 0; stroke: #3d3d3d"/>
     <use xlink:href="#m1228927c50" x="620.680875" y="117.966301" style="fill-opacity: 0; stroke: #3d3d3d"/>
     <use xlink:href="#m1228927c50" x="620.680875" y="153.462823" style="fill-opacity: 0; stroke: #3d3d3d"/>
     <use xlink:href="#m1228927c50" x="620.680875" y="127.353139" style="fill-opacity: 0; stroke: #3d3d3d"/>
     <use xlink:href="#m1228927c50" x="620.680875" y="64.364655" style="fill-opacity: 0; stroke: #3d3d3d"/>
     <use xlink:href="#m1228927c50" x="620.680875" y="85.153023" style="fill-opacity: 0; stroke: #3d3d3d"/>
     <use xlink:href="#m1228927c50" x="620.680875" y="41.543526" style="fill-opacity: 0; stroke: #3d3d3d"/>
     <use xlink:href="#m1228927c50" x="620.680875" y="147.554265" style="fill-opacity: 0; stroke: #3d3d3d"/>
    </g>
   </g>
   <g id="patch_14">
    <path d="M 156.122492 229.451943 
L 199.337225 229.451943 
L 199.337225 214.581168 
L 156.122492 214.581168 
L 156.122492 229.451943 
z
" clip-path="url(#p79dbaa6cba)" style="fill: #3a923a; stroke: #3d3d3d; stroke-linejoin: miter"/>
   </g>
   <g id="line2d_53">
    <path d="M 177.729858 229.451943 
L 177.729858 239.11885 
" clip-path="url(#p79dbaa6cba)" style="fill: none; stroke: #3d3d3d"/>
   </g>
   <g id="line2d_54">
    <path d="M 177.729858 214.581168 
L 177.729858 192.762867 
" clip-path="url(#p79dbaa6cba)" style="fill: none; stroke: #3d3d3d"/>
   </g>
   <g id="line2d_55">
    <path d="M 166.926175 239.11885 
L 188.533542 239.11885 
" clip-path="url(#p79dbaa6cba)" style="fill: none; stroke: #3d3d3d; stroke-linecap: square"/>
   </g>
   <g id="line2d_56">
    <path d="M 166.926175 192.762867 
L 188.533542 192.762867 
" clip-path="url(#p79dbaa6cba)" style="fill: none; stroke: #3d3d3d; stroke-linecap: square"/>
   </g>
   <g id="line2d_57"/>
   <g id="patch_15">
    <path d="M 318.177742 219.916036 
L 361.392475 219.916036 
L 361.392475 195.215732 
L 318.177742 195.215732 
L 318.177742 219.916036 
z
" clip-path="url(#p79dbaa6cba)" style="fill: #3a923a; stroke: #3d3d3d; stroke-linejoin: miter"/>
   </g>
   <g id="line2d_58">
    <path d="M 339.785108 219.916036 
L 339.785108 239.019471 
" clip-path="url(#p79dbaa6cba)" style="fill: none; stroke: #3d3d3d"/>
   </g>
   <g id="line2d_59">
    <path d="M 339.785108 195.215732 
L 339.785108 158.847381 
" clip-path="url(#p79dbaa6cba)" style="fill: none; stroke: #3d3d3d"/>
   </g>
   <g id="line2d_60">
    <path d="M 328.981425 239.019471 
L 350.588792 239.019471 
" clip-path="url(#p79dbaa6cba)" style="fill: none; stroke: #3d3d3d; stroke-linecap: square"/>
   </g>
   <g id="line2d_61">
    <path d="M 328.981425 158.847381 
L 350.588792 158.847381 
" clip-path="url(#p79dbaa6cba)" style="fill: none; stroke: #3d3d3d; stroke-linecap: square"/>
   </g>
   <g id="line2d_62">
    <g clip-path="url(#p79dbaa6cba)">
     <use xlink:href="#m1228927c50" x="339.785108" y="120.378511" style="fill-opacity: 0; stroke: #3d3d3d"/>
     <use xlink:href="#m1228927c50" x="339.785108" y="143.10026" style="fill-opacity: 0; stroke: #3d3d3d"/>
     <use xlink:href="#m1228927c50" x="339.785108" y="157.898759" style="fill-opacity: 0; stroke: #3d3d3d"/>
     <use xlink:href="#m1228927c50" x="339.785108" y="139.874946" style="fill-opacity: 0; stroke: #3d3d3d"/>
     <use xlink:href="#m1228927c50" x="339.785108" y="153.544134" style="fill-opacity: 0; stroke: #3d3d3d"/>
     <use xlink:href="#m1228927c50" x="339.785108" y="145.810608" style="fill-opacity: 0; stroke: #3d3d3d"/>
     <use xlink:href="#m1228927c50" x="339.785108" y="147.753024" style="fill-opacity: 0; stroke: #3d3d3d"/>
     <use xlink:href="#m1228927c50" x="339.785108" y="145.078814" style="fill-opacity: 0; stroke: #3d3d3d"/>
     <use xlink:href="#m1228927c50" x="339.785108" y="139.730394" style="fill-opacity: 0; stroke: #3d3d3d"/>
     <use xlink:href="#m1228927c50" x="339.785108" y="142.043224" style="fill-opacity: 0; stroke: #3d3d3d"/>
     <use xlink:href="#m1228927c50" x="339.785108" y="154.935446" style="fill-opacity: 0; stroke: #3d3d3d"/>
     <use xlink:href="#m1228927c50" x="339.785108" y="138.185496" style="fill-opacity: 0; stroke: #3d3d3d"/>
     <use xlink:href="#m1228927c50" x="339.785108" y="61.717548" style="fill-opacity: 0; stroke: #3d3d3d"/>
     <use xlink:href="#m1228927c50" x="339.785108" y="154.565032" style="fill-opacity: 0; stroke: #3d3d3d"/>
     <use xlink:href="#m1228927c50" x="339.785108" y="149.966475" style="fill-opacity: 0; stroke: #3d3d3d"/>
     <use xlink:href="#m1228927c50" x="339.785108" y="137.381426" style="fill-opacity: 0; stroke: #3d3d3d"/>
     <use xlink:href="#m1228927c50" x="339.785108" y="129.675004" style="fill-opacity: 0; stroke: #3d3d3d"/>
     <use xlink:href="#m1228927c50" x="339.785108" y="111.109121" style="fill-opacity: 0; stroke: #3d3d3d"/>
     <use xlink:href="#m1228927c50" x="339.785108" y="17.005843" style="fill-opacity: 0; stroke: #3d3d3d"/>
     <use xlink:href="#m1228927c50" x="339.785108" y="145.575711" style="fill-opacity: 0; stroke: #3d3d3d"/>
     <use xlink:href="#m1228927c50" x="339.785108" y="136.739977" style="fill-opacity: 0; stroke: #3d3d3d"/>
     <use xlink:href="#m1228927c50" x="339.785108" y="133.857974" style="fill-opacity: 0; stroke: #3d3d3d"/>
     <use xlink:href="#m1228927c50" x="339.785108" y="155.314894" style="fill-opacity: 0; stroke: #3d3d3d"/>
    </g>
   </g>
   <g id="patch_16">
    <path d="M 480.232992 191.64259 
L 523.447725 191.64259 
L 523.447725 141.042654 
L 480.232992 141.042654 
L 480.232992 191.64259 
z
" clip-path="url(#p79dbaa6cba)" style="fill: #3a923a; stroke: #3d3d3d; stroke-linejoin: miter"/>
   </g>
   <g id="line2d_63">
    <path d="M 501.840358 191.64259 
L 501.840358 233.219326 
" clip-path="url(#p79dbaa6cba)" style="fill: none; stroke: #3d3d3d"/>
   </g>
   <g id="line2d_64">
    <path d="M 501.840358 141.042654 
L 501.840358 66.054105 
" clip-path="url(#p79dbaa6cba)" style="fill: none; stroke: #3d3d3d"/>
   </g>
   <g id="line2d_65">
    <path d="M 491.036675 233.219326 
L 512.644042 233.219326 
" clip-path="url(#p79dbaa6cba)" style="fill: none; stroke: #3d3d3d; stroke-linecap: square"/>
   </g>
   <g id="line2d_66">
    <path d="M 491.036675 66.054105 
L 512.644042 66.054105 
" clip-path="url(#p79dbaa6cba)" style="fill: none; stroke: #3d3d3d; stroke-linecap: square"/>
   </g>
   <g id="line2d_67">
    <g clip-path="url(#p79dbaa6cba)">
     <use xlink:href="#m1228927c50" x="501.840358" y="61.717548" style="fill-opacity: 0; stroke: #3d3d3d"/>
     <use xlink:href="#m1228927c50" x="501.840358" y="-1" style="fill-opacity: 0; stroke: #3d3d3d"/>
     <use xlink:href="#m1228927c50" x="501.840358" y="-1" style="fill-opacity: 0; stroke: #3d3d3d"/>
     <use xlink:href="#m1228927c50" x="501.840358" y="24.938128" style="fill-opacity: 0; stroke: #3d3d3d"/>
     <use xlink:href="#m1228927c50" x="501.840358" y="61.320031" style="fill-opacity: 0; stroke: #3d3d3d"/>
     <use xlink:href="#m1228927c50" x="501.840358" y="43.585321" style="fill-opacity: 0; stroke: #3d3d3d"/>
     <use xlink:href="#m1228927c50" x="501.840358" y="64.418862" style="fill-opacity: 0; stroke: #3d3d3d"/>
     <use xlink:href="#m1228927c50" x="501.840358" y="62.84686" style="fill-opacity: 0; stroke: #3d3d3d"/>
     <use xlink:href="#m1228927c50" x="501.840358" y="51.391123" style="fill-opacity: 0; stroke: #3d3d3d"/>
     <use xlink:href="#m1228927c50" x="501.840358" y="28.208614" style="fill-opacity: 0; stroke: #3d3d3d"/>
     <use xlink:href="#m1228927c50" x="501.840358" y="-1" style="fill-opacity: 0; stroke: #3d3d3d"/>
     <use xlink:href="#m1228927c50" x="501.840358" y="-1" style="fill-opacity: 0; stroke: #3d3d3d"/>
     <use xlink:href="#m1228927c50" x="501.840358" y="27.720752" style="fill-opacity: 0; stroke: #3d3d3d"/>
     <use xlink:href="#m1228927c50" x="501.840358" y="55.248851" style="fill-opacity: 0; stroke: #3d3d3d"/>
     <use xlink:href="#m1228927c50" x="501.840358" y="-1" style="fill-opacity: 0; stroke: #3d3d3d"/>
     <use xlink:href="#m1228927c50" x="501.840358" y="-1" style="fill-opacity: 0; stroke: #3d3d3d"/>
     <use xlink:href="#m1228927c50" x="501.840358" y="6.552935" style="fill-opacity: 0; stroke: #3d3d3d"/>
     <use xlink:href="#m1228927c50" x="501.840358" y="31.750136" style="fill-opacity: 0; stroke: #3d3d3d"/>
     <use xlink:href="#m1228927c50" x="501.840358" y="46.024634" style="fill-opacity: 0; stroke: #3d3d3d"/>
     <use xlink:href="#m1228927c50" x="501.840358" y="61.907273" style="fill-opacity: 0; stroke: #3d3d3d"/>
     <use xlink:href="#m1228927c50" x="501.840358" y="56.69437" style="fill-opacity: 0; stroke: #3d3d3d"/>
     <use xlink:href="#m1228927c50" x="501.840358" y="-1" style="fill-opacity: 0; stroke: #3d3d3d"/>
     <use xlink:href="#m1228927c50" x="501.840358" y="-1" style="fill-opacity: 0; stroke: #3d3d3d"/>
     <use xlink:href="#m1228927c50" x="501.840358" y="59.422787" style="fill-opacity: 0; stroke: #3d3d3d"/>
     <use xlink:href="#m1228927c50" x="501.840358" y="51.336916" style="fill-opacity: 0; stroke: #3d3d3d"/>
     <use xlink:href="#m1228927c50" x="501.840358" y="51.716365" style="fill-opacity: 0; stroke: #3d3d3d"/>
     <use xlink:href="#m1228927c50" x="501.840358" y="23.329988" style="fill-opacity: 0; stroke: #3d3d3d"/>
    </g>
   </g>
   <g id="patch_17">
    <path d="M 642.288242 228.909873 
L 685.502975 228.909873 
L 685.502975 212.372234 
L 642.288242 212.372234 
L 642.288242 228.909873 
z
" clip-path="url(#p79dbaa6cba)" style="fill: #3a923a; stroke: #3d3d3d; stroke-linejoin: miter"/>
   </g>
   <g id="line2d_68">
    <path d="M 663.895608 228.909873 
L 663.895608 239.145954 
" clip-path="url(#p79dbaa6cba)" style="fill: none; stroke: #3d3d3d"/>
   </g>
   <g id="line2d_69">
    <path d="M 663.895608 212.372234 
L 663.895608 188.570863 
" clip-path="url(#p79dbaa6cba)" style="fill: none; stroke: #3d3d3d"/>
   </g>
   <g id="line2d_70">
    <path d="M 653.091925 239.145954 
L 674.699292 239.145954 
" clip-path="url(#p79dbaa6cba)" style="fill: none; stroke: #3d3d3d; stroke-linecap: square"/>
   </g>
   <g id="line2d_71">
    <path d="M 653.091925 188.570863 
L 674.699292 188.570863 
" clip-path="url(#p79dbaa6cba)" style="fill: none; stroke: #3d3d3d; stroke-linecap: square"/>
   </g>
   <g id="line2d_72">
    <g clip-path="url(#p79dbaa6cba)">
     <use xlink:href="#m1228927c50" x="663.895608" y="180.512095" style="fill-opacity: 0; stroke: #3d3d3d"/>
     <use xlink:href="#m1228927c50" x="663.895608" y="187.54093" style="fill-opacity: 0; stroke: #3d3d3d"/>
     <use xlink:href="#m1228927c50" x="663.895608" y="175.940642" style="fill-opacity: 0; stroke: #3d3d3d"/>
     <use xlink:href="#m1228927c50" x="663.895608" y="178.081816" style="fill-opacity: 0; stroke: #3d3d3d"/>
     <use xlink:href="#m1228927c50" x="663.895608" y="172.218431" style="fill-opacity: 0; stroke: #3d3d3d"/>
     <use xlink:href="#m1228927c50" x="663.895608" y="179.039473" style="fill-opacity: 0; stroke: #3d3d3d"/>
    </g>
   </g>
   <g id="line2d_73">
    <path d="M 69.693025 291.853185 
L 112.907758 291.853185 
" clip-path="url(#p79dbaa6cba)" style="fill: none; stroke: #3d3d3d"/>
   </g>
   <g id="line2d_74">
    <path d="M 231.748275 265.607983 
L 274.963008 265.607983 
" clip-path="url(#p79dbaa6cba)" style="fill: none; stroke: #3d3d3d"/>
   </g>
   <g id="line2d_75">
    <path d="M 393.803525 291.997737 
L 437.018258 291.997737 
" clip-path="url(#p79dbaa6cba)" style="fill: none; stroke: #3d3d3d"/>
   </g>
   <g id="line2d_76">
    <path d="M 555.858775 233.955638 
L 599.073508 233.955638 
" clip-path="url(#p79dbaa6cba)" style="fill: none; stroke: #3d3d3d"/>
   </g>
   <g id="line2d_77">
    <path d="M 112.907758 288.889871 
L 156.122492 288.889871 
" clip-path="url(#p79dbaa6cba)" style="fill: none; stroke: #3d3d3d"/>
   </g>
   <g id="line2d_78">
    <path d="M 274.963008 261.420496 
L 318.177742 261.420496 
" clip-path="url(#p79dbaa6cba)" style="fill: none; stroke: #3d3d3d"/>
   </g>
   <g id="line2d_79">
    <path d="M 437.018258 290.750977 
L 480.232992 290.750977 
" clip-path="url(#p79dbaa6cba)" style="fill: none; stroke: #3d3d3d"/>
   </g>
   <g id="line2d_80">
    <path d="M 599.073508 215.096134 
L 642.288242 215.096134 
" clip-path="url(#p79dbaa6cba)" style="fill: none; stroke: #3d3d3d"/>
   </g>
   <g id="line2d_81">
    <path d="M 156.122492 221.835865 
L 199.337225 221.835865 
" clip-path="url(#p79dbaa6cba)" style="fill: none; stroke: #3d3d3d"/>
   </g>
   <g id="line2d_82">
    <path d="M 318.177742 207.046401 
L 361.392475 207.046401 
" clip-path="url(#p79dbaa6cba)" style="fill: none; stroke: #3d3d3d"/>
   </g>
   <g id="line2d_83">
    <path d="M 480.232992 171.567947 
L 523.447725 171.567947 
" clip-path="url(#p79dbaa6cba)" style="fill: none; stroke: #3d3d3d"/>
   </g>
   <g id="line2d_84">
    <path d="M 642.288242 221.167313 
L 685.502975 221.167313 
" clip-path="url(#p79dbaa6cba)" style="fill: none; stroke: #3d3d3d"/>
   </g>
   <g id="patch_18">
    <path d="M 53.4875 293.352911 
L 53.4875 22.318125 
" style="fill: none; stroke: #000000; stroke-width: 0.8; stroke-linejoin: miter; stroke-linecap: square"/>
   </g>
   <g id="patch_19">
    <path d="M 701.7085 293.352911 
L 701.7085 22.318125 
" style="fill: none; stroke: #000000; stroke-width: 0.8; stroke-linejoin: miter; stroke-linecap: square"/>
   </g>
   <g id="patch_20">
    <path d="M 53.4875 293.352911 
L 701.7085 293.352911 
" style="fill: none; stroke: #000000; stroke-width: 0.8; stroke-linejoin: miter; stroke-linecap: square"/>
   </g>
   <g id="patch_21">
    <path d="M 53.4875 22.318125 
L 701.7085 22.318125 
" style="fill: none; stroke: #000000; stroke-width: 0.8; stroke-linejoin: miter; stroke-linecap: square"/>
   </g>
   <g id="text_14">
    <!-- Distribution of Relative Length Percentage per Paraphraser -->
    <g transform="translate(200.555813 16.318125) scale(0.12 -0.12)">
     <defs>
      <path id="DejaVuSans-44" d="M 1259 4147 
L 1259 519 
L 2022 519 
Q 2988 519 3436 956 
Q 3884 1394 3884 2338 
Q 3884 3275 3436 3711 
Q 2988 4147 2022 4147 
L 1259 4147 
z
M 628 4666 
L 1925 4666 
Q 3281 4666 3915 4102 
Q 4550 3538 4550 2338 
Q 4550 1131 3912 565 
Q 3275 0 1925 0 
L 628 0 
L 628 4666 
z
" transform="scale(0.015625)"/>
      <path id="DejaVuSans-66" d="M 2375 4863 
L 2375 4384 
L 1825 4384 
Q 1516 4384 1395 4259 
Q 1275 4134 1275 3809 
L 1275 3500 
L 2222 3500 
L 2222 3053 
L 1275 3053 
L 1275 0 
L 697 0 
L 697 3053 
L 147 3053 
L 147 3500 
L 697 3500 
L 697 3744 
Q 697 4328 969 4595 
Q 1241 4863 1831 4863 
L 2375 4863 
z
" transform="scale(0.015625)"/>
     </defs>
     <use xlink:href="#DejaVuSans-44"/>
     <use xlink:href="#DejaVuSans-69" transform="translate(77.001953 0)"/>
     <use xlink:href="#DejaVuSans-73" transform="translate(104.785156 0)"/>
     <use xlink:href="#DejaVuSans-74" transform="translate(156.884766 0)"/>
     <use xlink:href="#DejaVuSans-72" transform="translate(196.09375 0)"/>
     <use xlink:href="#DejaVuSans-69" transform="translate(237.207031 0)"/>
     <use xlink:href="#DejaVuSans-62" transform="translate(264.990234 0)"/>
     <use xlink:href="#DejaVuSans-75" transform="translate(328.466797 0)"/>
     <use xlink:href="#DejaVuSans-74" transform="translate(391.845703 0)"/>
     <use xlink:href="#DejaVuSans-69" transform="translate(431.054688 0)"/>
     <use xlink:href="#DejaVuSans-6f" transform="translate(458.837891 0)"/>
     <use xlink:href="#DejaVuSans-6e" transform="translate(520.019531 0)"/>
     <use xlink:href="#DejaVuSans-20" transform="translate(583.398438 0)"/>
     <use xlink:href="#DejaVuSans-6f" transform="translate(615.185547 0)"/>
     <use xlink:href="#DejaVuSans-66" transform="translate(676.367188 0)"/>
     <use xlink:href="#DejaVuSans-20" transform="translate(711.572266 0)"/>
     <use xlink:href="#DejaVuSans-52" transform="translate(743.359375 0)"/>
     <use xlink:href="#DejaVuSans-65" transform="translate(808.341797 0)"/>
     <use xlink:href="#DejaVuSans-6c" transform="translate(869.865234 0)"/>
     <use xlink:href="#DejaVuSans-61" transform="translate(897.648438 0)"/>
     <use xlink:href="#DejaVuSans-74" transform="translate(958.927734 0)"/>
     <use xlink:href="#DejaVuSans-69" transform="translate(998.136719 0)"/>
     <use xlink:href="#DejaVuSans-76" transform="translate(1025.919922 0)"/>
     <use xlink:href="#DejaVuSans-65" transform="translate(1085.099609 0)"/>
     <use xlink:href="#DejaVuSans-20" transform="translate(1146.623047 0)"/>
     <use xlink:href="#DejaVuSans-4c" transform="translate(1178.410156 0)"/>
     <use xlink:href="#DejaVuSans-65" transform="translate(1232.373047 0)"/>
     <use xlink:href="#DejaVuSans-6e" transform="translate(1293.896484 0)"/>
     <use xlink:href="#DejaVuSans-67" transform="translate(1357.275391 0)"/>
     <use xlink:href="#DejaVuSans-74" transform="translate(1420.751953 0)"/>
     <use xlink:href="#DejaVuSans-68" transform="translate(1459.960938 0)"/>
     <use xlink:href="#DejaVuSans-20" transform="translate(1523.339844 0)"/>
     <use xlink:href="#DejaVuSans-50" transform="translate(1555.126953 0)"/>
     <use xlink:href="#DejaVuSans-65" transform="translate(1611.804688 0)"/>
     <use xlink:href="#DejaVuSans-72" transform="translate(1673.328125 0)"/>
     <use xlink:href="#DejaVuSans-63" transform="translate(1712.191406 0)"/>
     <use xlink:href="#DejaVuSans-65" transform="translate(1767.171875 0)"/>
     <use xlink:href="#DejaVuSans-6e" transform="translate(1828.695312 0)"/>
     <use xlink:href="#DejaVuSans-74" transform="translate(1892.074219 0)"/>
     <use xlink:href="#DejaVuSans-61" transform="translate(1931.283203 0)"/>
     <use xlink:href="#DejaVuSans-67" transform="translate(1992.5625 0)"/>
     <use xlink:href="#DejaVuSans-65" transform="translate(2056.039062 0)"/>
     <use xlink:href="#DejaVuSans-20" transform="translate(2117.5625 0)"/>
     <use xlink:href="#DejaVuSans-70" transform="translate(2149.349609 0)"/>
     <use xlink:href="#DejaVuSans-65" transform="translate(2212.826172 0)"/>
     <use xlink:href="#DejaVuSans-72" transform="translate(2274.349609 0)"/>
     <use xlink:href="#DejaVuSans-20" transform="translate(2315.462891 0)"/>
     <use xlink:href="#DejaVuSans-50" transform="translate(2347.25 0)"/>
     <use xlink:href="#DejaVuSans-61" transform="translate(2403.052734 0)"/>
     <use xlink:href="#DejaVuSans-72" transform="translate(2464.332031 0)"/>
     <use xlink:href="#DejaVuSans-61" transform="translate(2505.445312 0)"/>
     <use xlink:href="#DejaVuSans-70" transform="translate(2566.724609 0)"/>
     <use xlink:href="#DejaVuSans-68" transform="translate(2630.201172 0)"/>
     <use xlink:href="#DejaVuSans-72" transform="translate(2693.580078 0)"/>
     <use xlink:href="#DejaVuSans-61" transform="translate(2734.693359 0)"/>
     <use xlink:href="#DejaVuSans-73" transform="translate(2795.972656 0)"/>
     <use xlink:href="#DejaVuSans-65" transform="translate(2848.072266 0)"/>
     <use xlink:href="#DejaVuSans-72" transform="translate(2909.595703 0)"/>
    </g>
   </g>
   <g id="legend_1">
    <g id="patch_22">
     <path d="M 60.4875 89.030625 
L 135.2125 89.030625 
Q 137.2125 89.030625 137.2125 87.030625 
L 137.2125 29.318125 
Q 137.2125 27.318125 135.2125 27.318125 
L 60.4875 27.318125 
Q 58.4875 27.318125 58.4875 29.318125 
L 58.4875 87.030625 
Q 58.4875 89.030625 60.4875 89.030625 
z
" style="fill: #ffffff; opacity: 0.8; stroke: #cccccc; stroke-linejoin: miter"/>
    </g>
    <g id="text_15">
     <!-- prompt -->
     <g transform="translate(79.66875 38.916563) scale(0.1 -0.1)">
      <use xlink:href="#DejaVuSans-70"/>
      <use xlink:href="#DejaVuSans-72" transform="translate(63.476562 0)"/>
      <use xlink:href="#DejaVuSans-6f" transform="translate(102.339844 0)"/>
      <use xlink:href="#DejaVuSans-6d" transform="translate(163.521484 0)"/>
      <use xlink:href="#DejaVuSans-70" transform="translate(260.933594 0)"/>
      <use xlink:href="#DejaVuSans-74" transform="translate(324.410156 0)"/>
     </g>
    </g>
    <g id="patch_23">
     <path d="M 62.4875 53.594688 
L 82.4875 53.594688 
L 82.4875 46.594688 
L 62.4875 46.594688 
z
" style="fill: #3274a1; stroke: #3d3d3d; stroke-linejoin: miter"/>
    </g>
    <g id="text_16">
     <!-- prompt0 -->
     <g transform="translate(90.4875 53.594688) scale(0.1 -0.1)">
      <use xlink:href="#DejaVuSans-70"/>
      <use xlink:href="#DejaVuSans-72" transform="translate(63.476562 0)"/>
      <use xlink:href="#DejaVuSans-6f" transform="translate(102.339844 0)"/>
      <use xlink:href="#DejaVuSans-6d" transform="translate(163.521484 0)"/>
      <use xlink:href="#DejaVuSans-70" transform="translate(260.933594 0)"/>
      <use xlink:href="#DejaVuSans-74" transform="translate(324.410156 0)"/>
      <use xlink:href="#DejaVuSans-30" transform="translate(363.619141 0)"/>
     </g>
    </g>
    <g id="patch_24">
     <path d="M 62.4875 68.272813 
L 82.4875 68.272813 
L 82.4875 61.272813 
L 62.4875 61.272813 
z
" style="fill: #e1812c; stroke: #3d3d3d; stroke-linejoin: miter"/>
    </g>
    <g id="text_17">
     <!-- prompt1 -->
     <g transform="translate(90.4875 68.272813) scale(0.1 -0.1)">
      <use xlink:href="#DejaVuSans-70"/>
      <use xlink:href="#DejaVuSans-72" transform="translate(63.476562 0)"/>
      <use xlink:href="#DejaVuSans-6f" transform="translate(102.339844 0)"/>
      <use xlink:href="#DejaVuSans-6d" transform="translate(163.521484 0)"/>
      <use xlink:href="#DejaVuSans-70" transform="translate(260.933594 0)"/>
      <use xlink:href="#DejaVuSans-74" transform="translate(324.410156 0)"/>
      <use xlink:href="#DejaVuSans-31" transform="translate(363.619141 0)"/>
     </g>
    </g>
    <g id="patch_25">
     <path d="M 62.4875 82.950938 
L 82.4875 82.950938 
L 82.4875 75.950938 
L 62.4875 75.950938 
z
" style="fill: #3a923a; stroke: #3d3d3d; stroke-linejoin: miter"/>
    </g>
    <g id="text_18">
     <!-- prompt3 -->
     <g transform="translate(90.4875 82.950938) scale(0.1 -0.1)">
      <use xlink:href="#DejaVuSans-70"/>
      <use xlink:href="#DejaVuSans-72" transform="translate(63.476562 0)"/>
      <use xlink:href="#DejaVuSans-6f" transform="translate(102.339844 0)"/>
      <use xlink:href="#DejaVuSans-6d" transform="translate(163.521484 0)"/>
      <use xlink:href="#DejaVuSans-70" transform="translate(260.933594 0)"/>
      <use xlink:href="#DejaVuSans-74" transform="translate(324.410156 0)"/>
      <use xlink:href="#DejaVuSans-33" transform="translate(363.619141 0)"/>
     </g>
    </g>
   </g>
  </g>
 </g>
 <defs>
  <clipPath id="p79dbaa6cba">
   <rect x="53.4875" y="22.318125" width="648.221" height="271.034786"/>
  </clipPath>
 </defs>
</svg>
