<?xml version="1.0" encoding="utf-8" standalone="no"?>
<!DOCTYPE svg PUBLIC "-//W3C//DTD SVG 1.1//EN"
  "http://www.w3.org/Graphics/SVG/1.1/DTD/svg11.dtd">
<svg xmlns:xlink="http://www.w3.org/1999/xlink" width="704.264469pt" height="503.691471pt" viewBox="0 0 704.264469 503.691471" xmlns="http://www.w3.org/2000/svg" version="1.1">
 <metadata>
  <rdf:RDF xmlns:dc="http://purl.org/dc/elements/1.1/" xmlns:cc="http://creativecommons.org/ns#" xmlns:rdf="http://www.w3.org/1999/02/22-rdf-syntax-ns#">
   <cc:Work>
    <dc:type rdf:resource="http://purl.org/dc/dcmitype/StillImage"/>
    <dc:date>2025-08-19T19:49:26.280564</dc:date>
    <dc:format>image/svg+xml</dc:format>
    <dc:creator>
     <cc:Agent>
      <dc:title>Matplotlib v3.10.3, https://matplotlib.org/</dc:title>
     </cc:Agent>
    </dc:creator>
   </cc:Work>
  </rdf:RDF>
 </metadata>
 <defs>
  <style type="text/css">*{stroke-linejoin: round; stroke-linecap: butt}</style>
 </defs>
 <g id="figure_1">
  <g id="patch_1">
   <path d="M 0 503.691471 
L 704.264469 503.691471 
L 704.264469 0 
L 0 0 
L 0 503.691471 
z
" style="fill: none"/>
  </g>
  <g id="axes_1">
   <g id="patch_2">
    <path d="M 495.525156 266.053954 
C 495.525156 237.523961 489.90537 209.271385 478.987414 182.913108 
C 468.069458 156.554831 452.06566 132.603455 431.891908 112.429703 
C 411.718156 92.255951 387.766779 76.252152 361.408502 65.334197 
C 335.050225 54.416241 306.79765 48.796454 278.267656 48.796454 
C 249.737663 48.796454 221.485087 54.416241 195.12681 65.334197 
C 168.768533 76.252152 144.817157 92.255951 124.643405 112.429703 
C 104.469653 132.603455 88.465855 156.554831 77.547899 182.913108 
C 66.629943 209.271385 61.010156 237.523961 61.010156 266.053954 
C 61.010156 294.583948 66.629943 322.836523 77.547899 349.1948 
C 88.465855 375.553077 104.469653 399.504454 124.643405 419.678206 
C 144.817157 439.851958 168.768533 455.855756 195.12681 466.773712 
C 221.485087 477.691668 249.737663 483.311454 278.267656 483.311454 
C 306.79765 483.311454 335.050225 477.691668 361.408502 466.773712 
C 387.766779 455.855756 411.718156 439.851958 431.891908 419.678206 
C 452.06566 399.504454 468.069458 375.553077 478.987414 349.1948 
C 489.90537 322.836523 495.525156 294.583948 495.525156 266.053954 
M 278.267656 266.053954 
C 278.267656 266.053954 278.267656 266.053954 278.267656 266.053954 
C 278.267656 266.053954 278.267656 266.053954 278.267656 266.053954 
C 278.267656 266.053954 278.267656 266.053954 278.267656 266.053954 
C 278.267656 266.053954 278.267656 266.053954 278.267656 266.053954 
C 278.267656 266.053954 278.267656 266.053954 278.267656 266.053954 
C 278.267656 266.053954 278.267656 266.053954 278.267656 266.053954 
C 278.267656 266.053954 278.267656 266.053954 278.267656 266.053954 
C 278.267656 266.053954 278.267656 266.053954 278.267656 266.053954 
C 278.267656 266.053954 278.267656 266.053954 278.267656 266.053954 
C 278.267656 266.053954 278.267656 266.053954 278.267656 266.053954 
C 278.267656 266.053954 278.267656 266.053954 278.267656 266.053954 
C 278.267656 266.053954 278.267656 266.053954 278.267656 266.053954 
C 278.267656 266.053954 278.267656 266.053954 278.267656 266.053954 
C 278.267656 266.053954 278.267656 266.053954 278.267656 266.053954 
C 278.267656 266.053954 278.267656 266.053954 278.267656 266.053954 
C 278.267656 266.053954 278.267656 266.053954 278.267656 266.053954 
L 278.267656 266.053954 
z
" style="fill: none"/>
   </g>
   <g id="FillBetweenPolyCollection_1">
    <defs>
     <path id="m3d0ffbcf40" d="M 279.741217 -237.637517 
L 279.567604 -237.637517 
L 330.260741 -262.676067 
L 329.373717 -301.72249 
L 281.272832 -250.804052 
L 271.856973 -265.724554 
L 260.305322 -260.161572 
L 136.034659 -306.133318 
L 121.286642 -237.637517 
L 136.434303 -169.334173 
L 254.581999 -207.936642 
L 241.096689 -74.780866 
L 308.774767 -103.977131 
L 301.596705 -208.383815 
L 366.959475 -194.925788 
L 279.567604 -237.637517 
L 279.741217 -237.637517 
L 279.741217 -237.637517 
L 368.076975 -194.387628 
L 302.694206 -207.007592 
L 308.890461 -103.470242 
L 239.769808 -68.967423 
L 253.19718 -206.200133 
L 133.195484 -167.77444 
L 116.889311 -237.637517 
L 133.519606 -307.344504 
L 259.961168 -260.593127 
L 271.734146 -266.262695 
L 281.304165 -250.941332 
L 332.430314 -305.555341 
L 333.271542 -264.125992 
L 279.741217 -237.637517 
z
" style="stroke: #1f77b4; stroke-opacity: 0.2"/>
    </defs>
    <g clip-path="url(#pb920eff0e1)">
     <use xlink:href="#m3d0ffbcf40" x="0" y="503.691471" style="fill: #1f77b4; fill-opacity: 0.2; stroke: #1f77b4; stroke-opacity: 0.2"/>
    </g>
   </g>
   <g id="FillBetweenPolyCollection_2">
    <defs>
     <path id="mdc8d18c693" d="M 280.253498 -237.637517 
L 279.925681 -237.637517 
L 322.19362 -258.791146 
L 328.774649 -300.971282 
L 280.731446 -248.432085 
L 271.824047 -265.868812 
L 260.213065 -260.277257 
L 135.630654 -306.327877 
L 123.071959 -237.637517 
L 137.049592 -169.630481 
L 255.037467 -208.507781 
L 240.322929 -71.390805 
L 308.650811 -104.520218 
L 301.687282 -208.270234 
L 366.358183 -195.215355 
L 279.925681 -237.637517 
L 280.253498 -237.637517 
L 280.253498 -237.637517 
L 371.1431 -192.91106 
L 302.438828 -207.327826 
L 309.564364 -100.517679 
L 238.403683 -62.982037 
L 252.124616 -204.855181 
L 132.066047 -167.230532 
L 116.946444 -237.637517 
L 131.200266 -308.461439 
L 259.753922 -260.853005 
L 271.660181 -266.586757 
L 282.042179 -254.17478 
L 331.692819 -304.630552 
L 330.827193 -262.948856 
L 280.253498 -237.637517 
z
" style="stroke: #ff7f0e; stroke-opacity: 0.2"/>
    </defs>
    <g clip-path="url(#pb920eff0e1)">
     <use xlink:href="#mdc8d18c693" x="0" y="503.691471" style="fill: #ff7f0e; fill-opacity: 0.2; stroke: #ff7f0e; stroke-opacity: 0.2"/>
    </g>
   </g>
   <g id="FillBetweenPolyCollection_3">
    <defs>
     <path id="me626448370" d="M 279.572873 -237.637517 
L 278.895114 -237.637517 
L 316.036887 -255.82622 
L 324.138392 -295.1576 
L 280.528067 -247.541023 
L 271.766618 -266.120425 
L 260.052153 -260.479036 
L 135.154005 -306.557419 
L 119.85479 -237.637517 
L 135.348459 -168.811259 
L 258.152055 -212.413351 
L 244.593432 -90.101099 
L 307.754879 -108.445552 
L 299.893843 -210.519137 
L 365.541466 -195.608665 
L 278.895114 -237.637517 
L 279.572873 -237.637517 
L 279.572873 -237.637517 
L 366.40824 -195.191249 
L 301.925061 -207.97207 
L 308.265737 -106.207337 
L 243.905175 -87.085649 
L 252.271296 -205.039112 
L 133.805972 -168.068436 
L 118.516132 -237.637517 
L 133.27172 -307.463879 
L 259.651046 -260.982008 
L 271.623465 -266.747621 
L 280.693428 -248.265515 
L 330.210577 -302.771879 
L 331.668528 -263.354021 
L 279.572873 -237.637517 
z
" style="stroke: #2ca02c; stroke-opacity: 0.2"/>
    </defs>
    <g clip-path="url(#pb920eff0e1)">
     <use xlink:href="#me626448370" x="0" y="503.691471" style="fill: #2ca02c; fill-opacity: 0.2; stroke: #2ca02c; stroke-opacity: 0.2"/>
    </g>
   </g>
   <g id="FillBetweenPolyCollection_4">
    <defs>
     <path id="m626d7ae43e" d="M 279.677434 -237.637517 
L 279.036545 -237.637517 
L 329.50716 -262.313161 
L 327.763191 -299.702954 
L 280.840508 -248.909916 
L 272.216857 -264.147802 
L 261.313692 -258.897115 
L 136.148099 -306.078688 
L 119.289804 -237.637517 
L 135.590545 -168.927841 
L 253.826531 -206.989316 
L 247.108233 -101.119165 
L 307.387102 -110.05689 
L 300.685897 -209.525932 
L 363.263462 -196.705694 
L 279.036545 -237.637517 
L 279.677434 -237.637517 
L 279.677434 -237.637517 
L 368.704537 -194.08541 
L 301.039607 -209.082393 
L 308.604699 -104.722249 
L 243.58459 -85.681076 
L 250.520558 -202.843756 
L 133.72641 -168.030121 
L 119.077478 -237.637517 
L 132.597994 -307.788329 
L 260.987862 -259.305693 
L 272.100569 -264.657291 
L 280.94183 -249.353839 
L 328.750563 -300.94108 
L 333.463099 -264.218241 
L 279.677434 -237.637517 
z
" style="stroke: #d62728; stroke-opacity: 0.2"/>
    </defs>
    <g clip-path="url(#pb920eff0e1)">
     <use xlink:href="#m626d7ae43e" x="0" y="503.691471" style="fill: #d62728; fill-opacity: 0.2; stroke: #d62728; stroke-opacity: 0.2"/>
    </g>
   </g>
   <g id="FillBetweenPolyCollection_5">
    <defs>
     <path id="m0ce9916486" d="M 338.855565 -237.637517 
L 321.025926 -237.637517 
L 364.493933 -279.161903 
L 371.111178 -354.05961 
L 295.494853 -313.114798 
L 250.688466 -358.469846 
L 200.992481 -334.537521 
L 110.666443 -318.350007 
L 91.774613 -237.637517 
L 110.454687 -156.82305 
L 222.963675 -168.288518 
L 234.984841 -48.003113 
L 315.739585 -73.462268 
L 343.860337 -155.386897 
L 332.011075 -211.75605 
L 321.025926 -237.637517 
L 338.855565 -237.637517 
L 338.855565 -237.637517 
L 335.20423 -210.218308 
L 352.94731 -143.992193 
L 318.194044 -62.708582 
L 232.474082 -37.00276 
L 209.874404 -151.875091 
L 103.585904 -153.515218 
L 84.974266 -237.637517 
L 103.053022 -322.016437 
L 194.236761 -343.008926 
L 248.277377 -369.033515 
L 298.670098 -327.026455 
L 380.499778 -365.832542 
L 374.346501 -283.90665 
L 338.855565 -237.637517 
z
" style="stroke: #9467bd; stroke-opacity: 0.2"/>
    </defs>
    <g clip-path="url(#pb920eff0e1)">
     <use xlink:href="#m0ce9916486" x="0" y="503.691471" style="fill: #9467bd; fill-opacity: 0.2; stroke: #9467bd; stroke-opacity: 0.2"/>
    </g>
   </g>
   <g id="FillBetweenPolyCollection_6">
    <defs>
     <path id="m1dc681027e" d="M 278.946376 -237.637517 
L 278.267656 -237.637517 
L 280.1398 -238.539094 
L 283.169054 -243.783675 
L 278.388085 -238.165151 
L 276.978735 -243.284652 
L 274.656178 -242.166167 
L 133.85582 -307.182591 
L 144.508402 -237.637517 
L 146.768527 -174.310874 
L 264.327459 -220.157062 
L 249.737503 -112.638749 
L 304.55045 -122.485075 
L 281.08108 -234.109595 
L 372.85313 -192.087553 
L 278.267656 -237.637517 
L 278.946376 -237.637517 
L 278.946376 -237.637517 
L 380.618999 -188.347708 
L 298.783659 -211.911262 
L 308.950416 -103.207564 
L 244.385614 -89.190592 
L 259.181864 -213.70469 
L 126.085288 -164.350351 
L 111.543701 -237.637517 
L 124.268689 -311.799511 
L 255.746463 -265.8782 
L 270.229935 -272.853072 
L 282.759306 -257.316721 
L 316.871297 -286.044951 
L 298.142873 -247.208917 
L 278.946376 -237.637517 
z
" style="stroke: #8c564b; stroke-opacity: 0.2"/>
    </defs>
    <g clip-path="url(#pb920eff0e1)">
     <use xlink:href="#m1dc681027e" x="0" y="503.691471" style="fill: #8c564b; fill-opacity: 0.2; stroke: #8c564b; stroke-opacity: 0.2"/>
    </g>
   </g>
   <g id="FillBetweenPolyCollection_7">
    <defs>
     <path id="mf11526a58d" d="M 278.267656 -237.637517 
L 278.267656 -237.637517 
L 282.289443 -239.574307 
L 287.480863 -249.190513 
L 279.331858 -242.300089 
L 275.874533 -248.122474 
L 271.562274 -246.0458 
L 114.968802 -316.2781 
L 136.093129 -237.637517 
L 134.696995 -168.49753 
L 266.373019 -222.722113 
L 249.136185 -110.004204 
L 306.428444 -114.257045 
L 283.573853 -230.983757 
L 384.620681 -186.420599 
L 278.267656 -237.637517 
L 278.267656 -237.637517 
L 278.267656 -237.637517 
L 386.649448 -185.443597 
L 284.327309 -230.038952 
L 307.198413 -110.883588 
L 248.308938 -106.379796 
L 266.297808 -222.627802 
L 130.801548 -166.621582 
L 132.804273 -237.637517 
L 109.69783 -318.816466 
L 270.055361 -247.935409 
L 275.336722 -250.478778 
L 279.870729 -244.661036 
L 288.23432 -250.135317 
L 282.454513 -239.6538 
L 278.267656 -237.637517 
z
" style="stroke: #e377c2; stroke-opacity: 0.2"/>
    </defs>
    <g clip-path="url(#pb920eff0e1)">
     <use xlink:href="#mf11526a58d" x="0" y="503.691471" style="fill: #e377c2; fill-opacity: 0.2; stroke: #e377c2; stroke-opacity: 0.2"/>
    </g>
   </g>
   <g id="FillBetweenPolyCollection_8">
    <defs>
     <path id="m101d567f7b" d="M 278.267656 -237.637517 
L 278.267656 -237.637517 
L 280.690007 -238.804059 
L 283.119955 -243.722107 
L 278.614015 -239.155013 
L 276.957993 -243.375524 
L 274.598063 -242.239042 
L 129.695709 -309.185996 
L 138.754 -237.637517 
L 141.993679 -172.011428 
L 273.147848 -231.21748 
L 245.488437 -94.022373 
L 305.479016 -118.416758 
L 281.108287 -234.075478 
L 384.339374 -186.556069 
L 278.267656 -237.637517 
L 278.267656 -237.637517 
L 278.267656 -237.637517 
L 386.668296 -185.43452 
L 281.999589 -232.957821 
L 306.372315 -114.502962 
L 244.553181 -89.924748 
L 264.394433 -220.241045 
L 141.362774 -171.7076 
L 137.379485 -237.637517 
L 129.47504 -309.292264 
L 273.834089 -243.197034 
L 276.685335 -244.570121 
L 278.887219 -240.351996 
L 285.029888 -246.117087 
L 283.059722 -239.945254 
L 278.267656 -237.637517 
z
" style="stroke: #7f7f7f; stroke-opacity: 0.2"/>
    </defs>
    <g clip-path="url(#pb920eff0e1)">
     <use xlink:href="#m101d567f7b" x="0" y="503.691471" style="fill: #7f7f7f; fill-opacity: 0.2; stroke: #7f7f7f; stroke-opacity: 0.2"/>
    </g>
   </g>
   <g id="FillBetweenPolyCollection_9">
    <defs>
     <path id="m495c33e84c" d="M 306.917559 -237.637517 
L 280.974447 -237.637517 
L 293.245162 -244.850303 
L 308.203731 -275.176167 
L 280.954407 -249.40894 
L 274.842823 -252.64269 
L 268.671488 -249.670731 
L 142.489297 -303.024928 
L 125.944833 -237.637517 
L 141.759259 -171.898538 
L 260.272892 -215.072795 
L 250.80715 -117.325179 
L 305.273067 -119.31908 
L 292.007623 -220.408144 
L 327.510946 -213.923198 
L 280.974447 -237.637517 
L 306.917559 -237.637517 
L 306.917559 -237.637517 
L 367.755507 -194.542439 
L 329.154953 -173.826865 
L 308.59121 -104.781346 
L 248.220199 -105.991004 
L 239.719973 -189.30025 
L 132.765677 -167.567456 
L 118.312452 -237.637517 
L 131.359166 -308.384917 
L 227.444601 -301.367612 
L 260.129118 -317.107646 
L 290.222376 -290.014568 
L 362.243568 -342.939979 
L 345.300452 -269.91881 
L 306.917559 -237.637517 
z
" style="stroke: #bcbd22; stroke-opacity: 0.2"/>
    </defs>
    <g clip-path="url(#pb920eff0e1)">
     <use xlink:href="#m495c33e84c" x="0" y="503.691471" style="fill: #bcbd22; fill-opacity: 0.2; stroke: #bcbd22; stroke-opacity: 0.2"/>
    </g>
   </g>
   <g id="matplotlib.axis_1">
    <g id="xtick_1">
     <g id="line2d_1">
      <path d="M 278.267656 266.053954 
L 495.525156 266.053954 
" clip-path="url(#pb920eff0e1)" style="fill: none; stroke: #b0b0b0; stroke-width: 0.8; stroke-linecap: square"/>
     </g>
     <g id="text_1">
      <!-- bleu_score -->
      <g transform="translate(482.78375 268.674267) scale(0.1 -0.1)">
       <defs>
        <path id="DejaVuSans-62" d="M 3116 1747 
Q 3116 2381 2855 2742 
Q 2594 3103 2138 3103 
Q 1681 3103 1420 2742 
Q 1159 2381 1159 1747 
Q 1159 1113 1420 752 
Q 1681 391 2138 391 
Q 2594 391 2855 752 
Q 3116 1113 3116 1747 
z
M 1159 2969 
Q 1341 3281 1617 3432 
Q 1894 3584 2278 3584 
Q 2916 3584 3314 3078 
Q 3713 2572 3713 1747 
Q 3713 922 3314 415 
Q 2916 -91 2278 -91 
Q 1894 -91 1617 61 
Q 1341 213 1159 525 
L 1159 0 
L 581 0 
L 581 4863 
L 1159 4863 
L 1159 2969 
z
" transform="scale(0.015625)"/>
        <path id="DejaVuSans-6c" d="M 603 4863 
L 1178 4863 
L 1178 0 
L 603 0 
L 603 4863 
z
" transform="scale(0.015625)"/>
        <path id="DejaVuSans-65" d="M 3597 1894 
L 3597 1613 
L 953 1613 
Q 991 1019 1311 708 
Q 1631 397 2203 397 
Q 2534 397 2845 478 
Q 3156 559 3463 722 
L 3463 178 
Q 3153 47 2828 -22 
Q 2503 -91 2169 -91 
Q 1331 -91 842 396 
Q 353 884 353 1716 
Q 353 2575 817 3079 
Q 1281 3584 2069 3584 
Q 2775 3584 3186 3129 
Q 3597 2675 3597 1894 
z
M 3022 2063 
Q 3016 2534 2758 2815 
Q 2500 3097 2075 3097 
Q 1594 3097 1305 2825 
Q 1016 2553 972 2059 
L 3022 2063 
z
" transform="scale(0.015625)"/>
        <path id="DejaVuSans-75" d="M 544 1381 
L 544 3500 
L 1119 3500 
L 1119 1403 
Q 1119 906 1312 657 
Q 1506 409 1894 409 
Q 2359 409 2629 706 
Q 2900 1003 2900 1516 
L 2900 3500 
L 3475 3500 
L 3475 0 
L 2900 0 
L 2900 538 
Q 2691 219 2414 64 
Q 2138 -91 1772 -91 
Q 1169 -91 856 284 
Q 544 659 544 1381 
z
M 1991 3584 
L 1991 3584 
z
" transform="scale(0.015625)"/>
        <path id="DejaVuSans-5f" d="M 3263 -1063 
L 3263 -1509 
L -63 -1509 
L -63 -1063 
L 3263 -1063 
z
" transform="scale(0.015625)"/>
        <path id="DejaVuSans-73" d="M 2834 3397 
L 2834 2853 
Q 2591 2978 2328 3040 
Q 2066 3103 1784 3103 
Q 1356 3103 1142 2972 
Q 928 2841 928 2578 
Q 928 2378 1081 2264 
Q 1234 2150 1697 2047 
L 1894 2003 
Q 2506 1872 2764 1633 
Q 3022 1394 3022 966 
Q 3022 478 2636 193 
Q 2250 -91 1575 -91 
Q 1294 -91 989 -36 
Q 684 19 347 128 
L 347 722 
Q 666 556 975 473 
Q 1284 391 1588 391 
Q 1994 391 2212 530 
Q 2431 669 2431 922 
Q 2431 1156 2273 1281 
Q 2116 1406 1581 1522 
L 1381 1569 
Q 847 1681 609 1914 
Q 372 2147 372 2553 
Q 372 3047 722 3315 
Q 1072 3584 1716 3584 
Q 2034 3584 2315 3537 
Q 2597 3491 2834 3397 
z
" transform="scale(0.015625)"/>
        <path id="DejaVuSans-63" d="M 3122 3366 
L 3122 2828 
Q 2878 2963 2633 3030 
Q 2388 3097 2138 3097 
Q 1578 3097 1268 2742 
Q 959 2388 959 1747 
Q 959 1106 1268 751 
Q 1578 397 2138 397 
Q 2388 397 2633 464 
Q 2878 531 3122 666 
L 3122 134 
Q 2881 22 2623 -34 
Q 2366 -91 2075 -91 
Q 1284 -91 818 406 
Q 353 903 353 1747 
Q 353 2603 823 3093 
Q 1294 3584 2113 3584 
Q 2378 3584 2631 3529 
Q 2884 3475 3122 3366 
z
" transform="scale(0.015625)"/>
        <path id="DejaVuSans-6f" d="M 1959 3097 
Q 1497 3097 1228 2736 
Q 959 2375 959 1747 
Q 959 1119 1226 758 
Q 1494 397 1959 397 
Q 2419 397 2687 759 
Q 2956 1122 2956 1747 
Q 2956 2369 2687 2733 
Q 2419 3097 1959 3097 
z
M 1959 3584 
Q 2709 3584 3137 3096 
Q 3566 2609 3566 1747 
Q 3566 888 3137 398 
Q 2709 -91 1959 -91 
Q 1206 -91 779 398 
Q 353 888 353 1747 
Q 353 2609 779 3096 
Q 1206 3584 1959 3584 
z
" transform="scale(0.015625)"/>
        <path id="DejaVuSans-72" d="M 2631 2963 
Q 2534 3019 2420 3045 
Q 2306 3072 2169 3072 
Q 1681 3072 1420 2755 
Q 1159 2438 1159 1844 
L 1159 0 
L 581 0 
L 581 3500 
L 1159 3500 
L 1159 2956 
Q 1341 3275 1631 3429 
Q 1922 3584 2338 3584 
Q 2397 3584 2469 3576 
Q 2541 3569 2628 3553 
L 2631 2963 
z
" transform="scale(0.015625)"/>
       </defs>
       <use xlink:href="#DejaVuSans-62"/>
       <use xlink:href="#DejaVuSans-6c" transform="translate(63.476562 0)"/>
       <use xlink:href="#DejaVuSans-65" transform="translate(91.259766 0)"/>
       <use xlink:href="#DejaVuSans-75" transform="translate(152.783203 0)"/>
       <use xlink:href="#DejaVuSans-5f" transform="translate(216.162109 0)"/>
       <use xlink:href="#DejaVuSans-73" transform="translate(266.162109 0)"/>
       <use xlink:href="#DejaVuSans-63" transform="translate(318.261719 0)"/>
       <use xlink:href="#DejaVuSans-6f" transform="translate(373.242188 0)"/>
       <use xlink:href="#DejaVuSans-72" transform="translate(434.423828 0)"/>
       <use xlink:href="#DejaVuSans-65" transform="translate(473.287109 0)"/>
      </g>
     </g>
    </g>
    <g id="xtick_2">
     <g id="line2d_2">
      <path d="M 278.267656 266.053954 
L 474.0099 171.789458 
" clip-path="url(#pb920eff0e1)" style="fill: none; stroke: #b0b0b0; stroke-width: 0.8; stroke-linecap: square"/>
     </g>
     <g id="text_2">
      <!-- meteor_score -->
      <g transform="translate(452.592214 168.196335) scale(0.1 -0.1)">
       <defs>
        <path id="DejaVuSans-6d" d="M 3328 2828 
Q 3544 3216 3844 3400 
Q 4144 3584 4550 3584 
Q 5097 3584 5394 3201 
Q 5691 2819 5691 2113 
L 5691 0 
L 5113 0 
L 5113 2094 
Q 5113 2597 4934 2840 
Q 4756 3084 4391 3084 
Q 3944 3084 3684 2787 
Q 3425 2491 3425 1978 
L 3425 0 
L 2847 0 
L 2847 2094 
Q 2847 2600 2669 2842 
Q 2491 3084 2119 3084 
Q 1678 3084 1418 2786 
Q 1159 2488 1159 1978 
L 1159 0 
L 581 0 
L 581 3500 
L 1159 3500 
L 1159 2956 
Q 1356 3278 1631 3431 
Q 1906 3584 2284 3584 
Q 2666 3584 2933 3390 
Q 3200 3197 3328 2828 
z
" transform="scale(0.015625)"/>
        <path id="DejaVuSans-74" d="M 1172 4494 
L 1172 3500 
L 2356 3500 
L 2356 3053 
L 1172 3053 
L 1172 1153 
Q 1172 725 1289 603 
Q 1406 481 1766 481 
L 2356 481 
L 2356 0 
L 1766 0 
Q 1100 0 847 248 
Q 594 497 594 1153 
L 594 3053 
L 172 3053 
L 172 3500 
L 594 3500 
L 594 4494 
L 1172 4494 
z
" transform="scale(0.015625)"/>
       </defs>
       <use xlink:href="#DejaVuSans-6d"/>
       <use xlink:href="#DejaVuSans-65" transform="translate(97.412109 0)"/>
       <use xlink:href="#DejaVuSans-74" transform="translate(158.935547 0)"/>
       <use xlink:href="#DejaVuSans-65" transform="translate(198.144531 0)"/>
       <use xlink:href="#DejaVuSans-6f" transform="translate(259.667969 0)"/>
       <use xlink:href="#DejaVuSans-72" transform="translate(320.849609 0)"/>
       <use xlink:href="#DejaVuSans-5f" transform="translate(361.962891 0)"/>
       <use xlink:href="#DejaVuSans-73" transform="translate(411.962891 0)"/>
       <use xlink:href="#DejaVuSans-63" transform="translate(464.0625 0)"/>
       <use xlink:href="#DejaVuSans-6f" transform="translate(519.042969 0)"/>
       <use xlink:href="#DejaVuSans-72" transform="translate(580.224609 0)"/>
       <use xlink:href="#DejaVuSans-65" transform="translate(619.087891 0)"/>
      </g>
     </g>
    </g>
    <g id="xtick_3">
     <g id="line2d_3">
      <path d="M 278.267656 266.053954 
L 413.725492 96.195201 
" clip-path="url(#pb920eff0e1)" style="fill: none; stroke: #b0b0b0; stroke-width: 0.8; stroke-linecap: square"/>
     </g>
     <g id="text_3">
      <!-- rouge1 -->
      <g transform="translate(404.851224 88.008935) scale(0.1 -0.1)">
       <defs>
        <path id="DejaVuSans-67" d="M 2906 1791 
Q 2906 2416 2648 2759 
Q 2391 3103 1925 3103 
Q 1463 3103 1205 2759 
Q 947 2416 947 1791 
Q 947 1169 1205 825 
Q 1463 481 1925 481 
Q 2391 481 2648 825 
Q 2906 1169 2906 1791 
z
M 3481 434 
Q 3481 -459 3084 -895 
Q 2688 -1331 1869 -1331 
Q 1566 -1331 1297 -1286 
Q 1028 -1241 775 -1147 
L 775 -588 
Q 1028 -725 1275 -790 
Q 1522 -856 1778 -856 
Q 2344 -856 2625 -561 
Q 2906 -266 2906 331 
L 2906 616 
Q 2728 306 2450 153 
Q 2172 0 1784 0 
Q 1141 0 747 490 
Q 353 981 353 1791 
Q 353 2603 747 3093 
Q 1141 3584 1784 3584 
Q 2172 3584 2450 3431 
Q 2728 3278 2906 2969 
L 2906 3500 
L 3481 3500 
L 3481 434 
z
" transform="scale(0.015625)"/>
        <path id="DejaVuSans-31" d="M 794 531 
L 1825 531 
L 1825 4091 
L 703 3866 
L 703 4441 
L 1819 4666 
L 2450 4666 
L 2450 531 
L 3481 531 
L 3481 0 
L 794 0 
L 794 531 
z
" transform="scale(0.015625)"/>
       </defs>
       <use xlink:href="#DejaVuSans-72"/>
       <use xlink:href="#DejaVuSans-6f" transform="translate(38.863281 0)"/>
       <use xlink:href="#DejaVuSans-75" transform="translate(100.044922 0)"/>
       <use xlink:href="#DejaVuSans-67" transform="translate(163.423828 0)"/>
       <use xlink:href="#DejaVuSans-65" transform="translate(226.900391 0)"/>
       <use xlink:href="#DejaVuSans-31" transform="translate(288.423828 0)"/>
      </g>
     </g>
    </g>
    <g id="xtick_4">
     <g id="line2d_4">
      <path d="M 278.267656 266.053954 
L 326.611998 54.243553 
" clip-path="url(#pb920eff0e1)" style="fill: none; stroke: #b0b0b0; stroke-width: 0.8; stroke-linecap: square"/>
     </g>
     <g id="text_4">
      <!-- rouge2 -->
      <g transform="translate(312.124166 43.353938) scale(0.1 -0.1)">
       <defs>
        <path id="DejaVuSans-32" d="M 1228 531 
L 3431 531 
L 3431 0 
L 469 0 
L 469 531 
Q 828 903 1448 1529 
Q 2069 2156 2228 2338 
Q 2531 2678 2651 2914 
Q 2772 3150 2772 3378 
Q 2772 3750 2511 3984 
Q 2250 4219 1831 4219 
Q 1534 4219 1204 4116 
Q 875 4013 500 3803 
L 500 4441 
Q 881 4594 1212 4672 
Q 1544 4750 1819 4750 
Q 2544 4750 2975 4387 
Q 3406 4025 3406 3419 
Q 3406 3131 3298 2873 
Q 3191 2616 2906 2266 
Q 2828 2175 2409 1742 
Q 1991 1309 1228 531 
z
" transform="scale(0.015625)"/>
       </defs>
       <use xlink:href="#DejaVuSans-72"/>
       <use xlink:href="#DejaVuSans-6f" transform="translate(38.863281 0)"/>
       <use xlink:href="#DejaVuSans-75" transform="translate(100.044922 0)"/>
       <use xlink:href="#DejaVuSans-67" transform="translate(163.423828 0)"/>
       <use xlink:href="#DejaVuSans-65" transform="translate(226.900391 0)"/>
       <use xlink:href="#DejaVuSans-32" transform="translate(288.423828 0)"/>
      </g>
     </g>
    </g>
    <g id="xtick_5">
     <g id="line2d_5">
      <path d="M 278.267656 266.053954 
L 229.923314 54.243553 
" clip-path="url(#pb920eff0e1)" style="fill: none; stroke: #b0b0b0; stroke-width: 0.8; stroke-linecap: square"/>
     </g>
     <g id="text_5">
      <!-- rougeL -->
      <g transform="translate(209.600209 43.353938) scale(0.1 -0.1)">
       <defs>
        <path id="DejaVuSans-4c" d="M 628 4666 
L 1259 4666 
L 1259 531 
L 3531 531 
L 3531 0 
L 628 0 
L 628 4666 
z
" transform="scale(0.015625)"/>
       </defs>
       <use xlink:href="#DejaVuSans-72"/>
       <use xlink:href="#DejaVuSans-6f" transform="translate(38.863281 0)"/>
       <use xlink:href="#DejaVuSans-75" transform="translate(100.044922 0)"/>
       <use xlink:href="#DejaVuSans-67" transform="translate(163.423828 0)"/>
       <use xlink:href="#DejaVuSans-65" transform="translate(226.900391 0)"/>
       <use xlink:href="#DejaVuSans-4c" transform="translate(288.423828 0)"/>
      </g>
     </g>
    </g>
    <g id="xtick_6">
     <g id="line2d_6">
      <path d="M 278.267656 266.053954 
L 142.809821 96.195201 
" clip-path="url(#pb920eff0e1)" style="fill: none; stroke: #b0b0b0; stroke-width: 0.8; stroke-linecap: square"/>
     </g>
     <g id="text_6">
      <!-- rougeLsum -->
      <g transform="translate(106.229401 88.008935) scale(0.1 -0.1)">
       <use xlink:href="#DejaVuSans-72"/>
       <use xlink:href="#DejaVuSans-6f" transform="translate(38.863281 0)"/>
       <use xlink:href="#DejaVuSans-75" transform="translate(100.044922 0)"/>
       <use xlink:href="#DejaVuSans-67" transform="translate(163.423828 0)"/>
       <use xlink:href="#DejaVuSans-65" transform="translate(226.900391 0)"/>
       <use xlink:href="#DejaVuSans-4c" transform="translate(288.423828 0)"/>
       <use xlink:href="#DejaVuSans-73" transform="translate(344.136719 0)"/>
       <use xlink:href="#DejaVuSans-75" transform="translate(396.236328 0)"/>
       <use xlink:href="#DejaVuSans-6d" transform="translate(459.615234 0)"/>
      </g>
     </g>
    </g>
    <g id="xtick_7">
     <g id="line2d_7">
      <path d="M 278.267656 266.053954 
L 82.525412 171.789458 
" clip-path="url(#pb920eff0e1)" style="fill: none; stroke: #b0b0b0; stroke-width: 0.8; stroke-linecap: square"/>
     </g>
     <g id="text_7">
      <!-- bertscore_precision -->
      <g transform="translate(21.158723 168.335398) scale(0.1 -0.1)">
       <defs>
        <path id="DejaVuSans-70" d="M 1159 525 
L 1159 -1331 
L 581 -1331 
L 581 3500 
L 1159 3500 
L 1159 2969 
Q 1341 3281 1617 3432 
Q 1894 3584 2278 3584 
Q 2916 3584 3314 3078 
Q 3713 2572 3713 1747 
Q 3713 922 3314 415 
Q 2916 -91 2278 -91 
Q 1894 -91 1617 61 
Q 1341 213 1159 525 
z
M 3116 1747 
Q 3116 2381 2855 2742 
Q 2594 3103 2138 3103 
Q 1681 3103 1420 2742 
Q 1159 2381 1159 1747 
Q 1159 1113 1420 752 
Q 1681 391 2138 391 
Q 2594 391 2855 752 
Q 3116 1113 3116 1747 
z
" transform="scale(0.015625)"/>
        <path id="DejaVuSans-69" d="M 603 3500 
L 1178 3500 
L 1178 0 
L 603 0 
L 603 3500 
z
M 603 4863 
L 1178 4863 
L 1178 4134 
L 603 4134 
L 603 4863 
z
" transform="scale(0.015625)"/>
        <path id="DejaVuSans-6e" d="M 3513 2113 
L 3513 0 
L 2938 0 
L 2938 2094 
Q 2938 2591 2744 2837 
Q 2550 3084 2163 3084 
Q 1697 3084 1428 2787 
Q 1159 2491 1159 1978 
L 1159 0 
L 581 0 
L 581 3500 
L 1159 3500 
L 1159 2956 
Q 1366 3272 1645 3428 
Q 1925 3584 2291 3584 
Q 2894 3584 3203 3211 
Q 3513 2838 3513 2113 
z
" transform="scale(0.015625)"/>
       </defs>
       <use xlink:href="#DejaVuSans-62"/>
       <use xlink:href="#DejaVuSans-65" transform="translate(63.476562 0)"/>
       <use xlink:href="#DejaVuSans-72" transform="translate(125 0)"/>
       <use xlink:href="#DejaVuSans-74" transform="translate(166.113281 0)"/>
       <use xlink:href="#DejaVuSans-73" transform="translate(205.322266 0)"/>
       <use xlink:href="#DejaVuSans-63" transform="translate(257.421875 0)"/>
       <use xlink:href="#DejaVuSans-6f" transform="translate(312.402344 0)"/>
       <use xlink:href="#DejaVuSans-72" transform="translate(373.583984 0)"/>
       <use xlink:href="#DejaVuSans-65" transform="translate(412.447266 0)"/>
       <use xlink:href="#DejaVuSans-5f" transform="translate(473.970703 0)"/>
       <use xlink:href="#DejaVuSans-70" transform="translate(523.970703 0)"/>
       <use xlink:href="#DejaVuSans-72" transform="translate(587.447266 0)"/>
       <use xlink:href="#DejaVuSans-65" transform="translate(626.310547 0)"/>
       <use xlink:href="#DejaVuSans-63" transform="translate(687.833984 0)"/>
       <use xlink:href="#DejaVuSans-69" transform="translate(742.814453 0)"/>
       <use xlink:href="#DejaVuSans-73" transform="translate(770.597656 0)"/>
       <use xlink:href="#DejaVuSans-69" transform="translate(822.697266 0)"/>
       <use xlink:href="#DejaVuSans-6f" transform="translate(850.480469 0)"/>
       <use xlink:href="#DejaVuSans-6e" transform="translate(911.662109 0)"/>
      </g>
     </g>
    </g>
    <g id="xtick_8">
     <g id="line2d_8">
      <path d="M 278.267656 266.053954 
L 61.010156 266.053954 
" clip-path="url(#pb920eff0e1)" style="fill: none; stroke: #b0b0b0; stroke-width: 0.8; stroke-linecap: square"/>
     </g>
     <g id="text_8">
      <!-- bertscore_recall -->
      <g transform="translate(7.2 268.674267) scale(0.1 -0.1)">
       <defs>
        <path id="DejaVuSans-61" d="M 2194 1759 
Q 1497 1759 1228 1600 
Q 959 1441 959 1056 
Q 959 750 1161 570 
Q 1363 391 1709 391 
Q 2188 391 2477 730 
Q 2766 1069 2766 1631 
L 2766 1759 
L 2194 1759 
z
M 3341 1997 
L 3341 0 
L 2766 0 
L 2766 531 
Q 2569 213 2275 61 
Q 1981 -91 1556 -91 
Q 1019 -91 701 211 
Q 384 513 384 1019 
Q 384 1609 779 1909 
Q 1175 2209 1959 2209 
L 2766 2209 
L 2766 2266 
Q 2766 2663 2505 2880 
Q 2244 3097 1772 3097 
Q 1472 3097 1187 3025 
Q 903 2953 641 2809 
L 641 3341 
Q 956 3463 1253 3523 
Q 1550 3584 1831 3584 
Q 2591 3584 2966 3190 
Q 3341 2797 3341 1997 
z
" transform="scale(0.015625)"/>
       </defs>
       <use xlink:href="#DejaVuSans-62"/>
       <use xlink:href="#DejaVuSans-65" transform="translate(63.476562 0)"/>
       <use xlink:href="#DejaVuSans-72" transform="translate(125 0)"/>
       <use xlink:href="#DejaVuSans-74" transform="translate(166.113281 0)"/>
       <use xlink:href="#DejaVuSans-73" transform="translate(205.322266 0)"/>
       <use xlink:href="#DejaVuSans-63" transform="translate(257.421875 0)"/>
       <use xlink:href="#DejaVuSans-6f" transform="translate(312.402344 0)"/>
       <use xlink:href="#DejaVuSans-72" transform="translate(373.583984 0)"/>
       <use xlink:href="#DejaVuSans-65" transform="translate(412.447266 0)"/>
       <use xlink:href="#DejaVuSans-5f" transform="translate(473.970703 0)"/>
       <use xlink:href="#DejaVuSans-72" transform="translate(523.970703 0)"/>
       <use xlink:href="#DejaVuSans-65" transform="translate(562.833984 0)"/>
       <use xlink:href="#DejaVuSans-63" transform="translate(624.357422 0)"/>
       <use xlink:href="#DejaVuSans-61" transform="translate(679.337891 0)"/>
       <use xlink:href="#DejaVuSans-6c" transform="translate(740.617188 0)"/>
       <use xlink:href="#DejaVuSans-6c" transform="translate(768.400391 0)"/>
      </g>
     </g>
    </g>
    <g id="xtick_9">
     <g id="line2d_9">
      <path d="M 278.267656 266.053954 
L 82.525412 360.318451 
" clip-path="url(#pb920eff0e1)" style="fill: none; stroke: #b0b0b0; stroke-width: 0.8; stroke-linecap: square"/>
     </g>
     <g id="text_9">
      <!-- bertscore_f1 -->
      <g transform="translate(38.771223 369.013135) scale(0.1 -0.1)">
       <defs>
        <path id="DejaVuSans-66" d="M 2375 4863 
L 2375 4384 
L 1825 4384 
Q 1516 4384 1395 4259 
Q 1275 4134 1275 3809 
L 1275 3500 
L 2222 3500 
L 2222 3053 
L 1275 3053 
L 1275 0 
L 697 0 
L 697 3053 
L 147 3053 
L 147 3500 
L 697 3500 
L 697 3744 
Q 697 4328 969 4595 
Q 1241 4863 1831 4863 
L 2375 4863 
z
" transform="scale(0.015625)"/>
       </defs>
       <use xlink:href="#DejaVuSans-62"/>
       <use xlink:href="#DejaVuSans-65" transform="translate(63.476562 0)"/>
       <use xlink:href="#DejaVuSans-72" transform="translate(125 0)"/>
       <use xlink:href="#DejaVuSans-74" transform="translate(166.113281 0)"/>
       <use xlink:href="#DejaVuSans-73" transform="translate(205.322266 0)"/>
       <use xlink:href="#DejaVuSans-63" transform="translate(257.421875 0)"/>
       <use xlink:href="#DejaVuSans-6f" transform="translate(312.402344 0)"/>
       <use xlink:href="#DejaVuSans-72" transform="translate(373.583984 0)"/>
       <use xlink:href="#DejaVuSans-65" transform="translate(412.447266 0)"/>
       <use xlink:href="#DejaVuSans-5f" transform="translate(473.970703 0)"/>
       <use xlink:href="#DejaVuSans-66" transform="translate(523.970703 0)"/>
       <use xlink:href="#DejaVuSans-31" transform="translate(559.175781 0)"/>
      </g>
     </g>
    </g>
    <g id="xtick_10">
     <g id="line2d_10">
      <path d="M 278.267656 266.053954 
L 142.809821 435.912707 
" clip-path="url(#pb920eff0e1)" style="fill: none; stroke: #b0b0b0; stroke-width: 0.8; stroke-linecap: square"/>
     </g>
     <g id="text_10">
      <!-- sbert_wms -->
      <g transform="translate(107.145807 449.478661) scale(0.1 -0.1)">
       <defs>
        <path id="DejaVuSans-77" d="M 269 3500 
L 844 3500 
L 1563 769 
L 2278 3500 
L 2956 3500 
L 3675 769 
L 4391 3500 
L 4966 3500 
L 4050 0 
L 3372 0 
L 2619 2869 
L 1863 0 
L 1184 0 
L 269 3500 
z
" transform="scale(0.015625)"/>
       </defs>
       <use xlink:href="#DejaVuSans-73"/>
       <use xlink:href="#DejaVuSans-62" transform="translate(52.099609 0)"/>
       <use xlink:href="#DejaVuSans-65" transform="translate(115.576172 0)"/>
       <use xlink:href="#DejaVuSans-72" transform="translate(177.099609 0)"/>
       <use xlink:href="#DejaVuSans-74" transform="translate(218.212891 0)"/>
       <use xlink:href="#DejaVuSans-5f" transform="translate(257.421875 0)"/>
       <use xlink:href="#DejaVuSans-77" transform="translate(307.421875 0)"/>
       <use xlink:href="#DejaVuSans-6d" transform="translate(389.208984 0)"/>
       <use xlink:href="#DejaVuSans-73" transform="translate(486.621094 0)"/>
      </g>
     </g>
    </g>
    <g id="xtick_11">
     <g id="line2d_11">
      <path d="M 278.267656 266.053954 
L 229.923314 477.864355 
" clip-path="url(#pb920eff0e1)" style="fill: none; stroke: #b0b0b0; stroke-width: 0.8; stroke-linecap: square"/>
     </g>
     <g id="text_11">
      <!-- sbert_cos -->
      <g transform="translate(203.023646 494.133658) scale(0.1 -0.1)">
       <use xlink:href="#DejaVuSans-73"/>
       <use xlink:href="#DejaVuSans-62" transform="translate(52.099609 0)"/>
       <use xlink:href="#DejaVuSans-65" transform="translate(115.576172 0)"/>
       <use xlink:href="#DejaVuSans-72" transform="translate(177.099609 0)"/>
       <use xlink:href="#DejaVuSans-74" transform="translate(218.212891 0)"/>
       <use xlink:href="#DejaVuSans-5f" transform="translate(257.421875 0)"/>
       <use xlink:href="#DejaVuSans-63" transform="translate(307.421875 0)"/>
       <use xlink:href="#DejaVuSans-6f" transform="translate(362.402344 0)"/>
       <use xlink:href="#DejaVuSans-73" transform="translate(423.583984 0)"/>
      </g>
     </g>
    </g>
    <g id="xtick_12">
     <g id="line2d_12">
      <path d="M 278.267656 266.053954 
L 326.611998 477.864355 
" clip-path="url(#pb920eff0e1)" style="fill: none; stroke: #b0b0b0; stroke-width: 0.8; stroke-linecap: square"/>
     </g>
     <g id="text_12">
      <!-- sem_sim_avg -->
      <g transform="translate(296.11401 494.133658) scale(0.1 -0.1)">
       <defs>
        <path id="DejaVuSans-76" d="M 191 3500 
L 800 3500 
L 1894 563 
L 2988 3500 
L 3597 3500 
L 2284 0 
L 1503 0 
L 191 3500 
z
" transform="scale(0.015625)"/>
       </defs>
       <use xlink:href="#DejaVuSans-73"/>
       <use xlink:href="#DejaVuSans-65" transform="translate(52.099609 0)"/>
       <use xlink:href="#DejaVuSans-6d" transform="translate(113.623047 0)"/>
       <use xlink:href="#DejaVuSans-5f" transform="translate(211.035156 0)"/>
       <use xlink:href="#DejaVuSans-73" transform="translate(261.035156 0)"/>
       <use xlink:href="#DejaVuSans-69" transform="translate(313.134766 0)"/>
       <use xlink:href="#DejaVuSans-6d" transform="translate(340.917969 0)"/>
       <use xlink:href="#DejaVuSans-5f" transform="translate(438.330078 0)"/>
       <use xlink:href="#DejaVuSans-61" transform="translate(488.330078 0)"/>
       <use xlink:href="#DejaVuSans-76" transform="translate(549.609375 0)"/>
       <use xlink:href="#DejaVuSans-67" transform="translate(608.789062 0)"/>
      </g>
     </g>
    </g>
    <g id="xtick_13">
     <g id="line2d_13">
      <path d="M 278.267656 266.053954 
L 413.725492 435.912707 
" clip-path="url(#pb920eff0e1)" style="fill: none; stroke: #b0b0b0; stroke-width: 0.8; stroke-linecap: square"/>
     </g>
     <g id="text_13">
      <!-- syn_sim_avg -->
      <g transform="translate(390.659818 449.478661) scale(0.1 -0.1)">
       <defs>
        <path id="DejaVuSans-79" d="M 2059 -325 
Q 1816 -950 1584 -1140 
Q 1353 -1331 966 -1331 
L 506 -1331 
L 506 -850 
L 844 -850 
Q 1081 -850 1212 -737 
Q 1344 -625 1503 -206 
L 1606 56 
L 191 3500 
L 800 3500 
L 1894 763 
L 2988 3500 
L 3597 3500 
L 2059 -325 
z
" transform="scale(0.015625)"/>
       </defs>
       <use xlink:href="#DejaVuSans-73"/>
       <use xlink:href="#DejaVuSans-79" transform="translate(52.099609 0)"/>
       <use xlink:href="#DejaVuSans-6e" transform="translate(111.279297 0)"/>
       <use xlink:href="#DejaVuSans-5f" transform="translate(174.658203 0)"/>
       <use xlink:href="#DejaVuSans-73" transform="translate(224.658203 0)"/>
       <use xlink:href="#DejaVuSans-69" transform="translate(276.757812 0)"/>
       <use xlink:href="#DejaVuSans-6d" transform="translate(304.541016 0)"/>
       <use xlink:href="#DejaVuSans-5f" transform="translate(401.953125 0)"/>
       <use xlink:href="#DejaVuSans-61" transform="translate(451.953125 0)"/>
       <use xlink:href="#DejaVuSans-76" transform="translate(513.232422 0)"/>
       <use xlink:href="#DejaVuSans-67" transform="translate(572.412109 0)"/>
      </g>
     </g>
    </g>
    <g id="xtick_14">
     <g id="line2d_14">
      <path d="M 278.267656 266.053954 
L 474.0099 360.318451 
" clip-path="url(#pb920eff0e1)" style="fill: none; stroke: #b0b0b0; stroke-width: 0.8; stroke-linecap: square"/>
     </g>
     <g id="text_14">
      <!-- gohsen_delta -->
      <g transform="translate(453.207058 369.013135) scale(0.1 -0.1)">
       <defs>
        <path id="DejaVuSans-68" d="M 3513 2113 
L 3513 0 
L 2938 0 
L 2938 2094 
Q 2938 2591 2744 2837 
Q 2550 3084 2163 3084 
Q 1697 3084 1428 2787 
Q 1159 2491 1159 1978 
L 1159 0 
L 581 0 
L 581 4863 
L 1159 4863 
L 1159 2956 
Q 1366 3272 1645 3428 
Q 1925 3584 2291 3584 
Q 2894 3584 3203 3211 
Q 3513 2838 3513 2113 
z
" transform="scale(0.015625)"/>
        <path id="DejaVuSans-64" d="M 2906 2969 
L 2906 4863 
L 3481 4863 
L 3481 0 
L 2906 0 
L 2906 525 
Q 2725 213 2448 61 
Q 2172 -91 1784 -91 
Q 1150 -91 751 415 
Q 353 922 353 1747 
Q 353 2572 751 3078 
Q 1150 3584 1784 3584 
Q 2172 3584 2448 3432 
Q 2725 3281 2906 2969 
z
M 947 1747 
Q 947 1113 1208 752 
Q 1469 391 1925 391 
Q 2381 391 2643 752 
Q 2906 1113 2906 1747 
Q 2906 2381 2643 2742 
Q 2381 3103 1925 3103 
Q 1469 3103 1208 2742 
Q 947 2381 947 1747 
z
" transform="scale(0.015625)"/>
       </defs>
       <use xlink:href="#DejaVuSans-67"/>
       <use xlink:href="#DejaVuSans-6f" transform="translate(63.476562 0)"/>
       <use xlink:href="#DejaVuSans-68" transform="translate(124.658203 0)"/>
       <use xlink:href="#DejaVuSans-73" transform="translate(188.037109 0)"/>
       <use xlink:href="#DejaVuSans-65" transform="translate(240.136719 0)"/>
       <use xlink:href="#DejaVuSans-6e" transform="translate(301.660156 0)"/>
       <use xlink:href="#DejaVuSans-5f" transform="translate(365.039062 0)"/>
       <use xlink:href="#DejaVuSans-64" transform="translate(415.039062 0)"/>
       <use xlink:href="#DejaVuSans-65" transform="translate(478.515625 0)"/>
       <use xlink:href="#DejaVuSans-6c" transform="translate(540.039062 0)"/>
       <use xlink:href="#DejaVuSans-74" transform="translate(567.822266 0)"/>
       <use xlink:href="#DejaVuSans-61" transform="translate(607.03125 0)"/>
      </g>
     </g>
    </g>
   </g>
   <g id="matplotlib.axis_2">
    <g id="ytick_1">
     <g id="line2d_15">
      <path d="M 321.719156 266.053954 
C 321.719156 260.347955 320.595199 254.69744 318.411608 249.425785 
C 316.228017 244.15413 313.027257 239.363854 308.992507 235.329104 
C 304.957756 231.294353 300.167481 228.093594 294.895825 225.910003 
C 289.62417 223.726411 283.973655 222.602454 278.267656 222.602454 
C 272.561658 222.602454 266.911142 223.726411 261.639487 225.910003 
C 256.367832 228.093594 251.577556 231.294353 247.542806 235.329104 
C 243.508056 239.363854 240.307296 244.15413 238.123705 249.425785 
C 235.940114 254.69744 234.816156 260.347955 234.816156 266.053954 
C 234.816156 271.759953 235.940114 277.410468 238.123705 282.682123 
C 240.307296 287.953779 243.508056 292.744054 247.542806 296.778804 
C 251.577556 300.813555 256.367832 304.014314 261.639487 306.197906 
C 266.911142 308.381497 272.561658 309.505454 278.267656 309.505454 
C 283.973655 309.505454 289.62417 308.381497 294.895825 306.197906 
C 300.167481 304.014314 304.957756 300.813555 308.992507 296.778804 
C 313.027257 292.744054 316.228017 287.953779 318.411608 282.682123 
C 320.595199 277.410468 321.719156 271.759953 321.719156 266.053954 
" clip-path="url(#pb920eff0e1)" style="fill: none; stroke: #b0b0b0; stroke-width: 0.8; stroke-linecap: square"/>
     </g>
     <g id="text_15">
      <!-- 0.2 -->
      <g transform="translate(318.411608 247.762035) scale(0.08 -0.08)">
       <defs>
        <path id="DejaVuSans-30" d="M 2034 4250 
Q 1547 4250 1301 3770 
Q 1056 3291 1056 2328 
Q 1056 1369 1301 889 
Q 1547 409 2034 409 
Q 2525 409 2770 889 
Q 3016 1369 3016 2328 
Q 3016 3291 2770 3770 
Q 2525 4250 2034 4250 
z
M 2034 4750 
Q 2819 4750 3233 4129 
Q 3647 3509 3647 2328 
Q 3647 1150 3233 529 
Q 2819 -91 2034 -91 
Q 1250 -91 836 529 
Q 422 1150 422 2328 
Q 422 3509 836 4129 
Q 1250 4750 2034 4750 
z
" transform="scale(0.015625)"/>
        <path id="DejaVuSans-2e" d="M 684 794 
L 1344 794 
L 1344 0 
L 684 0 
L 684 794 
z
" transform="scale(0.015625)"/>
       </defs>
       <use xlink:href="#DejaVuSans-30"/>
       <use xlink:href="#DejaVuSans-2e" transform="translate(63.623047 0)"/>
       <use xlink:href="#DejaVuSans-32" transform="translate(95.410156 0)"/>
      </g>
     </g>
    </g>
    <g id="ytick_2">
     <g id="line2d_16">
      <path d="M 365.170656 266.053954 
C 365.170656 254.641957 362.922742 243.340927 358.555559 232.797616 
C 354.188377 222.254305 347.786858 212.673754 339.717357 204.604254 
C 331.647856 196.534753 322.067305 190.133233 311.523995 185.766051 
C 300.980684 181.398869 289.679654 179.150954 278.267656 179.150954 
C 266.855659 179.150954 255.554629 181.398869 245.011318 185.766051 
C 234.468007 190.133233 224.887456 196.534753 216.817956 204.604254 
C 208.748455 212.673754 202.346936 222.254305 197.979753 232.797616 
C 193.612571 243.340927 191.364656 254.641957 191.364656 266.053954 
C 191.364656 277.465952 193.612571 288.766982 197.979753 299.310292 
C 202.346936 309.853603 208.748455 319.434154 216.817956 327.503655 
C 224.887456 335.573156 234.468007 341.974675 245.011318 346.341857 
C 255.554629 350.709039 266.855659 352.956954 278.267656 352.956954 
C 289.679654 352.956954 300.980684 350.709039 311.523995 346.341857 
C 322.067305 341.974675 331.647856 335.573156 339.717357 327.503655 
C 347.786858 319.434154 354.188377 309.853603 358.555559 299.310292 
C 362.922742 288.766982 365.170656 277.465952 365.170656 266.053954 
" clip-path="url(#pb920eff0e1)" style="fill: none; stroke: #b0b0b0; stroke-width: 0.8; stroke-linecap: square"/>
     </g>
     <g id="text_16">
      <!-- 0.4 -->
      <g transform="translate(358.555559 231.133866) scale(0.08 -0.08)">
       <defs>
        <path id="DejaVuSans-34" d="M 2419 4116 
L 825 1625 
L 2419 1625 
L 2419 4116 
z
M 2253 4666 
L 3047 4666 
L 3047 1625 
L 3713 1625 
L 3713 1100 
L 3047 1100 
L 3047 0 
L 2419 0 
L 2419 1100 
L 313 1100 
L 313 1709 
L 2253 4666 
z
" transform="scale(0.015625)"/>
       </defs>
       <use xlink:href="#DejaVuSans-30"/>
       <use xlink:href="#DejaVuSans-2e" transform="translate(63.623047 0)"/>
       <use xlink:href="#DejaVuSans-34" transform="translate(95.410156 0)"/>
      </g>
     </g>
    </g>
    <g id="ytick_3">
     <g id="line2d_17">
      <path d="M 408.622156 266.053954 
C 408.622156 248.935958 405.250284 231.984413 398.699511 216.169447 
C 392.148737 200.35448 382.546458 185.983654 370.442207 173.879403 
C 358.337956 161.775152 343.96713 152.172873 328.152164 145.6221 
C 312.337198 139.071326 295.385652 135.699454 278.267656 135.699454 
C 261.14966 135.699454 244.198115 139.071326 228.383149 145.6221 
C 212.568183 152.172873 198.197356 161.775152 186.093105 173.879403 
C 173.988854 185.983654 164.386575 200.35448 157.835802 216.169447 
C 151.285028 231.984413 147.913156 248.935958 147.913156 266.053954 
C 147.913156 283.17195 151.285028 300.123495 157.835802 315.938462 
C 164.386575 331.753428 173.988854 346.124254 186.093105 358.228505 
C 198.197356 370.332756 212.568183 379.935035 228.383149 386.485809 
C 244.198115 393.036582 261.14966 396.408454 278.267656 396.408454 
C 295.385652 396.408454 312.337198 393.036582 328.152164 386.485809 
C 343.96713 379.935035 358.337956 370.332756 370.442207 358.228505 
C 382.546458 346.124254 392.148737 331.753428 398.699511 315.938462 
C 405.250284 300.123495 408.622156 283.17195 408.622156 266.053954 
" clip-path="url(#pb920eff0e1)" style="fill: none; stroke: #b0b0b0; stroke-width: 0.8; stroke-linecap: square"/>
     </g>
     <g id="text_17">
      <!-- 0.6 -->
      <g transform="translate(398.699511 214.505697) scale(0.08 -0.08)">
       <defs>
        <path id="DejaVuSans-36" d="M 2113 2584 
Q 1688 2584 1439 2293 
Q 1191 2003 1191 1497 
Q 1191 994 1439 701 
Q 1688 409 2113 409 
Q 2538 409 2786 701 
Q 3034 994 3034 1497 
Q 3034 2003 2786 2293 
Q 2538 2584 2113 2584 
z
M 3366 4563 
L 3366 3988 
Q 3128 4100 2886 4159 
Q 2644 4219 2406 4219 
Q 1781 4219 1451 3797 
Q 1122 3375 1075 2522 
Q 1259 2794 1537 2939 
Q 1816 3084 2150 3084 
Q 2853 3084 3261 2657 
Q 3669 2231 3669 1497 
Q 3669 778 3244 343 
Q 2819 -91 2113 -91 
Q 1303 -91 875 529 
Q 447 1150 447 2328 
Q 447 3434 972 4092 
Q 1497 4750 2381 4750 
Q 2619 4750 2861 4703 
Q 3103 4656 3366 4563 
z
" transform="scale(0.015625)"/>
       </defs>
       <use xlink:href="#DejaVuSans-30"/>
       <use xlink:href="#DejaVuSans-2e" transform="translate(63.623047 0)"/>
       <use xlink:href="#DejaVuSans-36" transform="translate(95.410156 0)"/>
      </g>
     </g>
    </g>
    <g id="ytick_4">
     <g id="line2d_18">
      <path d="M 452.073656 266.053954 
C 452.073656 243.229959 447.577827 220.627899 438.843462 199.541278 
C 430.109098 178.454656 417.306059 159.293554 401.167057 143.154553 
C 385.028056 127.015551 365.866955 114.212513 344.780333 105.478148 
C 323.693711 96.743783 301.091651 92.247954 278.267656 92.247954 
C 255.443661 92.247954 232.841601 96.743783 211.75498 105.478148 
C 190.668358 114.212513 171.507257 127.015551 155.368255 143.154553 
C 139.229254 159.293554 126.426215 178.454656 117.69185 199.541278 
C 108.957486 220.627899 104.461656 243.229959 104.461656 266.053954 
C 104.461656 288.877949 108.957486 311.480009 117.69185 332.566631 
C 126.426215 353.653252 139.229254 372.814354 155.368255 388.953355 
C 171.507257 405.092357 190.668358 417.895396 211.75498 426.62976 
C 232.841601 435.364125 255.443661 439.859954 278.267656 439.859954 
C 301.091651 439.859954 323.693711 435.364125 344.780333 426.62976 
C 365.866955 417.895396 385.028056 405.092357 401.167057 388.953355 
C 417.306059 372.814354 430.109098 353.653252 438.843462 332.566631 
C 447.577827 311.480009 452.073656 288.877949 452.073656 266.053954 
" clip-path="url(#pb920eff0e1)" style="fill: none; stroke: #b0b0b0; stroke-width: 0.8; stroke-linecap: square"/>
     </g>
     <g id="text_18">
      <!-- 0.8 -->
      <g transform="translate(438.843462 197.877528) scale(0.08 -0.08)">
       <defs>
        <path id="DejaVuSans-38" d="M 2034 2216 
Q 1584 2216 1326 1975 
Q 1069 1734 1069 1313 
Q 1069 891 1326 650 
Q 1584 409 2034 409 
Q 2484 409 2743 651 
Q 3003 894 3003 1313 
Q 3003 1734 2745 1975 
Q 2488 2216 2034 2216 
z
M 1403 2484 
Q 997 2584 770 2862 
Q 544 3141 544 3541 
Q 544 4100 942 4425 
Q 1341 4750 2034 4750 
Q 2731 4750 3128 4425 
Q 3525 4100 3525 3541 
Q 3525 3141 3298 2862 
Q 3072 2584 2669 2484 
Q 3125 2378 3379 2068 
Q 3634 1759 3634 1313 
Q 3634 634 3220 271 
Q 2806 -91 2034 -91 
Q 1263 -91 848 271 
Q 434 634 434 1313 
Q 434 1759 690 2068 
Q 947 2378 1403 2484 
z
M 1172 3481 
Q 1172 3119 1398 2916 
Q 1625 2713 2034 2713 
Q 2441 2713 2670 2916 
Q 2900 3119 2900 3481 
Q 2900 3844 2670 4047 
Q 2441 4250 2034 4250 
Q 1625 4250 1398 4047 
Q 1172 3844 1172 3481 
z
" transform="scale(0.015625)"/>
       </defs>
       <use xlink:href="#DejaVuSans-30"/>
       <use xlink:href="#DejaVuSans-2e" transform="translate(63.623047 0)"/>
       <use xlink:href="#DejaVuSans-38" transform="translate(95.410156 0)"/>
      </g>
     </g>
    </g>
    <g id="ytick_5">
     <g id="line2d_19">
      <path d="M 495.525156 266.053954 
C 495.525156 237.523961 489.90537 209.271385 478.987414 182.913108 
C 468.069458 156.554831 452.06566 132.603455 431.891908 112.429703 
C 411.718156 92.255951 387.766779 76.252152 361.408502 65.334197 
C 335.050225 54.416241 306.79765 48.796454 278.267656 48.796454 
C 249.737663 48.796454 221.485087 54.416241 195.12681 65.334197 
C 168.768533 76.252152 144.817157 92.255951 124.643405 112.429703 
C 104.469653 132.603455 88.465855 156.554831 77.547899 182.913108 
C 66.629943 209.271385 61.010156 237.523961 61.010156 266.053954 
C 61.010156 294.583948 66.629943 322.836523 77.547899 349.1948 
C 88.465855 375.553077 104.469653 399.504454 124.643405 419.678206 
C 144.817157 439.851958 168.768533 455.855756 195.12681 466.773712 
C 221.485087 477.691668 249.737663 483.311454 278.267656 483.311454 
C 306.79765 483.311454 335.050225 477.691668 361.408502 466.773712 
C 387.766779 455.855756 411.718156 439.851958 431.891908 419.678206 
C 452.06566 399.504454 468.069458 375.553077 478.987414 349.1948 
C 489.90537 322.836523 495.525156 294.583948 495.525156 266.053954 
" clip-path="url(#pb920eff0e1)" style="fill: none; stroke: #b0b0b0; stroke-width: 0.8; stroke-linecap: square"/>
     </g>
     <g id="text_19">
      <!-- 1.0 -->
      <g transform="translate(478.987414 181.249358) scale(0.08 -0.08)">
       <use xlink:href="#DejaVuSans-31"/>
       <use xlink:href="#DejaVuSans-2e" transform="translate(63.623047 0)"/>
       <use xlink:href="#DejaVuSans-30" transform="translate(95.410156 0)"/>
      </g>
     </g>
    </g>
   </g>
   <g id="line2d_20">
    <path d="M 279.65441 266.053954 
L 331.766142 240.290442 
L 330.902015 200.052555 
L 281.288499 252.818778 
L 271.79556 237.697846 
L 260.133245 243.314121 
L 134.777132 196.95256 
L 119.087977 266.053954 
L 134.814893 335.137164 
L 253.88959 296.623083 
L 240.433248 431.817326 
L 308.832614 399.967785 
L 302.145455 295.995767 
L 367.518225 309.034763 
L 279.65441 266.053954 
" clip-path="url(#pb920eff0e1)" style="fill: none; stroke: #1f77b4; stroke-opacity: 0.7; stroke-width: 1.5; stroke-linecap: square"/>
   </g>
   <g id="line2d_21">
    <path d="M 280.089589 266.053954 
L 326.510407 242.82147 
L 330.233734 200.890554 
L 281.386812 252.388038 
L 271.742114 237.463687 
L 259.983494 243.12634 
L 133.41546 196.296813 
L 120.009202 266.053954 
L 134.557819 335.260964 
L 253.581042 297.00999 
L 239.363306 436.50505 
L 309.107588 401.172522 
L 302.063055 295.892441 
L 368.750641 309.628263 
L 280.089589 266.053954 
" clip-path="url(#pb920eff0e1)" style="fill: none; stroke: #ff7f0e; stroke-opacity: 0.7; stroke-width: 1.5; stroke-linecap: square"/>
   </g>
   <g id="line2d_22">
    <path d="M 279.233993 266.053954 
L 323.852708 244.10135 
L 327.174484 204.726731 
L 280.610747 255.788202 
L 271.695042 237.257448 
L 259.851599 242.960949 
L 134.212862 196.680822 
L 119.185461 266.053954 
L 134.577216 335.251623 
L 255.211676 294.965239 
L 244.249303 415.098097 
L 308.010308 396.365027 
L 300.909452 294.445868 
L 365.974853 308.291514 
L 279.233993 266.053954 
" clip-path="url(#pb920eff0e1)" style="fill: none; stroke: #2ca02c; stroke-opacity: 0.7; stroke-width: 1.5; stroke-linecap: square"/>
   </g>
   <g id="line2d_23">
    <path d="M 279.356989 266.053954 
L 331.485129 240.42577 
L 328.256877 203.369454 
L 280.891169 254.559594 
L 272.158713 239.288924 
L 261.150777 244.590067 
L 134.373047 196.757962 
L 119.183641 266.053954 
L 134.658478 335.21249 
L 252.173545 298.774935 
L 245.346412 410.29135 
L 307.9959 396.301902 
L 300.862752 294.387308 
L 365.983999 308.295919 
L 279.356989 266.053954 
" clip-path="url(#pb920eff0e1)" style="fill: none; stroke: #d62728; stroke-opacity: 0.7; stroke-width: 1.5; stroke-linecap: square"/>
   </g>
   <g id="line2d_24">
    <path d="M 329.940745 266.053954 
L 369.420217 222.157195 
L 375.805478 143.745395 
L 297.082476 183.620844 
L 249.482921 139.93979 
L 197.614621 164.918247 
L 106.859732 183.508249 
L 88.37444 266.053954 
L 107.020296 348.522337 
L 216.41904 343.609666 
L 233.729462 461.188534 
L 316.966815 435.606046 
L 348.403823 354.001926 
L 333.607653 292.704292 
L 329.940745 266.053954 
" clip-path="url(#pb920eff0e1)" style="fill: none; stroke: #9467bd; stroke-opacity: 0.7; stroke-width: 1.5; stroke-linecap: square"/>
   </g>
   <g id="line2d_25">
    <path d="M 278.548791 266.053954 
L 289.141337 260.817466 
L 300.020176 238.777157 
L 280.573696 255.950535 
L 273.604335 245.622609 
L 265.20132 249.669287 
L 129.062255 194.20042 
L 128.026052 266.053954 
L 136.426908 334.360859 
L 261.754662 286.760595 
L 247.061559 402.7768 
L 306.750433 390.845151 
L 289.93237 280.681042 
L 376.736064 313.47384 
L 278.548791 266.053954 
" clip-path="url(#pb920eff0e1)" style="fill: none; stroke: #8c564b; stroke-opacity: 0.7; stroke-width: 1.5; stroke-linecap: square"/>
   </g>
   <g id="line2d_26">
    <path d="M 278.267656 266.053954 
L 282.371978 264.077417 
L 287.857592 254.028556 
L 279.601293 260.210909 
L 275.605628 254.390845 
L 270.808818 256.700866 
L 112.333316 186.144188 
L 134.448701 266.053954 
L 132.749271 336.131915 
L 266.335413 281.016513 
L 248.722562 395.499471 
L 306.813429 391.121154 
L 283.950581 273.180116 
L 385.635065 317.759373 
L 278.267656 266.053954 
" clip-path="url(#pb920eff0e1)" style="fill: none; stroke: #e377c2; stroke-opacity: 0.7; stroke-width: 1.5; stroke-linecap: square"/>
   </g>
   <g id="line2d_27">
    <path d="M 278.267656 266.053954 
L 281.874864 264.316814 
L 284.074921 258.771874 
L 278.750617 263.937966 
L 276.821664 259.718648 
L 274.216076 260.973433 
L 129.585375 194.452341 
L 138.066742 266.053954 
L 141.678226 331.831957 
L 268.771141 277.962208 
L 245.020809 411.71791 
L 305.925666 387.231611 
L 281.553938 270.174821 
L 385.503835 317.696176 
L 278.267656 266.053954 
" clip-path="url(#pb920eff0e1)" style="fill: none; stroke: #7f7f7f; stroke-opacity: 0.7; stroke-width: 1.5; stroke-linecap: square"/>
   </g>
   <g id="line2d_28">
    <path d="M 293.946003 266.053954 
L 319.272807 246.306914 
L 335.223649 194.633398 
L 285.588392 233.979717 
L 267.485971 218.816303 
L 248.058044 228.172299 
L 136.924232 197.986548 
L 122.128642 266.053954 
L 137.262468 333.958474 
L 249.996432 301.504948 
L 249.513675 392.033379 
L 306.932139 391.641258 
L 310.581288 306.573966 
L 347.633226 299.458652 
L 293.946003 266.053954 
" clip-path="url(#pb920eff0e1)" style="fill: none; stroke: #bcbd22; stroke-opacity: 0.7; stroke-width: 1.5; stroke-linecap: square"/>
   </g>
   <g id="patch_3">
    <path d="M 495.525156 266.053954 
C 495.525156 237.523961 489.90537 209.271385 478.987414 182.913108 
C 468.069458 156.554831 452.06566 132.603455 431.891908 112.429703 
C 411.718156 92.255951 387.766779 76.252152 361.408502 65.334197 
C 335.050225 54.416241 306.79765 48.796454 278.267656 48.796454 
C 249.737663 48.796454 221.485087 54.416241 195.12681 65.334197 
C 168.768533 76.252152 144.817157 92.255951 124.643405 112.429703 
C 104.469653 132.603455 88.465855 156.554831 77.547899 182.913108 
C 66.629943 209.271385 61.010156 237.523961 61.010156 266.053954 
C 61.010156 294.583948 66.629943 322.836523 77.547899 349.1948 
C 88.465855 375.553077 104.469653 399.504454 124.643405 419.678206 
C 144.817157 439.851958 168.768533 455.855756 195.12681 466.773712 
C 221.485087 477.691668 249.737663 483.311454 278.267656 483.311454 
C 306.79765 483.311454 335.050225 477.691668 361.408502 466.773712 
C 387.766779 455.855756 411.718156 439.851958 431.891908 419.678206 
C 452.06566 399.504454 468.069458 375.553077 478.987414 349.1948 
C 489.90537 322.836523 495.525156 294.583948 495.525156 266.053954 
" style="fill: none; stroke: #000000; stroke-width: 0.8; stroke-linejoin: miter; stroke-linecap: square"/>
   </g>
   <g id="text_20">
    <!-- Radar Chart of Paraphrasing Metrics -->
    <g transform="translate(169.599219 16.318125) scale(0.12 -0.12)">
     <defs>
      <path id="DejaVuSans-52" d="M 2841 2188 
Q 3044 2119 3236 1894 
Q 3428 1669 3622 1275 
L 4263 0 
L 3584 0 
L 2988 1197 
Q 2756 1666 2539 1819 
Q 2322 1972 1947 1972 
L 1259 1972 
L 1259 0 
L 628 0 
L 628 4666 
L 2053 4666 
Q 2853 4666 3247 4331 
Q 3641 3997 3641 3322 
Q 3641 2881 3436 2590 
Q 3231 2300 2841 2188 
z
M 1259 4147 
L 1259 2491 
L 2053 2491 
Q 2509 2491 2742 2702 
Q 2975 2913 2975 3322 
Q 2975 3731 2742 3939 
Q 2509 4147 2053 4147 
L 1259 4147 
z
" transform="scale(0.015625)"/>
      <path id="DejaVuSans-20" transform="scale(0.015625)"/>
      <path id="DejaVuSans-43" d="M 4122 4306 
L 4122 3641 
Q 3803 3938 3442 4084 
Q 3081 4231 2675 4231 
Q 1875 4231 1450 3742 
Q 1025 3253 1025 2328 
Q 1025 1406 1450 917 
Q 1875 428 2675 428 
Q 3081 428 3442 575 
Q 3803 722 4122 1019 
L 4122 359 
Q 3791 134 3420 21 
Q 3050 -91 2638 -91 
Q 1578 -91 968 557 
Q 359 1206 359 2328 
Q 359 3453 968 4101 
Q 1578 4750 2638 4750 
Q 3056 4750 3426 4639 
Q 3797 4528 4122 4306 
z
" transform="scale(0.015625)"/>
      <path id="DejaVuSans-50" d="M 1259 4147 
L 1259 2394 
L 2053 2394 
Q 2494 2394 2734 2622 
Q 2975 2850 2975 3272 
Q 2975 3691 2734 3919 
Q 2494 4147 2053 4147 
L 1259 4147 
z
M 628 4666 
L 2053 4666 
Q 2838 4666 3239 4311 
Q 3641 3956 3641 3272 
Q 3641 2581 3239 2228 
Q 2838 1875 2053 1875 
L 1259 1875 
L 1259 0 
L 628 0 
L 628 4666 
z
" transform="scale(0.015625)"/>
      <path id="DejaVuSans-4d" d="M 628 4666 
L 1569 4666 
L 2759 1491 
L 3956 4666 
L 4897 4666 
L 4897 0 
L 4281 0 
L 4281 4097 
L 3078 897 
L 2444 897 
L 1241 4097 
L 1241 0 
L 628 0 
L 628 4666 
z
" transform="scale(0.015625)"/>
     </defs>
     <use xlink:href="#DejaVuSans-52"/>
     <use xlink:href="#DejaVuSans-61" transform="translate(67.232422 0)"/>
     <use xlink:href="#DejaVuSans-64" transform="translate(128.511719 0)"/>
     <use xlink:href="#DejaVuSans-61" transform="translate(191.988281 0)"/>
     <use xlink:href="#DejaVuSans-72" transform="translate(253.267578 0)"/>
     <use xlink:href="#DejaVuSans-20" transform="translate(294.380859 0)"/>
     <use xlink:href="#DejaVuSans-43" transform="translate(326.167969 0)"/>
     <use xlink:href="#DejaVuSans-68" transform="translate(395.992188 0)"/>
     <use xlink:href="#DejaVuSans-61" transform="translate(459.371094 0)"/>
     <use xlink:href="#DejaVuSans-72" transform="translate(520.650391 0)"/>
     <use xlink:href="#DejaVuSans-74" transform="translate(561.763672 0)"/>
     <use xlink:href="#DejaVuSans-20" transform="translate(600.972656 0)"/>
     <use xlink:href="#DejaVuSans-6f" transform="translate(632.759766 0)"/>
     <use xlink:href="#DejaVuSans-66" transform="translate(693.941406 0)"/>
     <use xlink:href="#DejaVuSans-20" transform="translate(729.146484 0)"/>
     <use xlink:href="#DejaVuSans-50" transform="translate(760.933594 0)"/>
     <use xlink:href="#DejaVuSans-61" transform="translate(816.736328 0)"/>
     <use xlink:href="#DejaVuSans-72" transform="translate(878.015625 0)"/>
     <use xlink:href="#DejaVuSans-61" transform="translate(919.128906 0)"/>
     <use xlink:href="#DejaVuSans-70" transform="translate(980.408203 0)"/>
     <use xlink:href="#DejaVuSans-68" transform="translate(1043.884766 0)"/>
     <use xlink:href="#DejaVuSans-72" transform="translate(1107.263672 0)"/>
     <use xlink:href="#DejaVuSans-61" transform="translate(1148.376953 0)"/>
     <use xlink:href="#DejaVuSans-73" transform="translate(1209.65625 0)"/>
     <use xlink:href="#DejaVuSans-69" transform="translate(1261.755859 0)"/>
     <use xlink:href="#DejaVuSans-6e" transform="translate(1289.539062 0)"/>
     <use xlink:href="#DejaVuSans-67" transform="translate(1352.917969 0)"/>
     <use xlink:href="#DejaVuSans-20" transform="translate(1416.394531 0)"/>
     <use xlink:href="#DejaVuSans-4d" transform="translate(1448.181641 0)"/>
     <use xlink:href="#DejaVuSans-65" transform="translate(1534.460938 0)"/>
     <use xlink:href="#DejaVuSans-74" transform="translate(1595.984375 0)"/>
     <use xlink:href="#DejaVuSans-72" transform="translate(1635.193359 0)"/>
     <use xlink:href="#DejaVuSans-69" transform="translate(1676.306641 0)"/>
     <use xlink:href="#DejaVuSans-63" transform="translate(1704.089844 0)"/>
     <use xlink:href="#DejaVuSans-73" transform="translate(1759.070312 0)"/>
    </g>
    <!-- on Blog Dataset, grouped by Paraphraser -->
    <g transform="translate(154.101406 29.7555) scale(0.12 -0.12)">
     <defs>
      <path id="DejaVuSans-42" d="M 1259 2228 
L 1259 519 
L 2272 519 
Q 2781 519 3026 730 
Q 3272 941 3272 1375 
Q 3272 1813 3026 2020 
Q 2781 2228 2272 2228 
L 1259 2228 
z
M 1259 4147 
L 1259 2741 
L 2194 2741 
Q 2656 2741 2882 2914 
Q 3109 3088 3109 3444 
Q 3109 3797 2882 3972 
Q 2656 4147 2194 4147 
L 1259 4147 
z
M 628 4666 
L 2241 4666 
Q 2963 4666 3353 4366 
Q 3744 4066 3744 3513 
Q 3744 3084 3544 2831 
Q 3344 2578 2956 2516 
Q 3422 2416 3680 2098 
Q 3938 1781 3938 1306 
Q 3938 681 3513 340 
Q 3088 0 2303 0 
L 628 0 
L 628 4666 
z
" transform="scale(0.015625)"/>
      <path id="DejaVuSans-44" d="M 1259 4147 
L 1259 519 
L 2022 519 
Q 2988 519 3436 956 
Q 3884 1394 3884 2338 
Q 3884 3275 3436 3711 
Q 2988 4147 2022 4147 
L 1259 4147 
z
M 628 4666 
L 1925 4666 
Q 3281 4666 3915 4102 
Q 4550 3538 4550 2338 
Q 4550 1131 3912 565 
Q 3275 0 1925 0 
L 628 0 
L 628 4666 
z
" transform="scale(0.015625)"/>
      <path id="DejaVuSans-2c" d="M 750 794 
L 1409 794 
L 1409 256 
L 897 -744 
L 494 -744 
L 750 256 
L 750 794 
z
" transform="scale(0.015625)"/>
     </defs>
     <use xlink:href="#DejaVuSans-6f"/>
     <use xlink:href="#DejaVuSans-6e" transform="translate(61.181641 0)"/>
     <use xlink:href="#DejaVuSans-20" transform="translate(124.560547 0)"/>
     <use xlink:href="#DejaVuSans-42" transform="translate(156.347656 0)"/>
     <use xlink:href="#DejaVuSans-6c" transform="translate(224.951172 0)"/>
     <use xlink:href="#DejaVuSans-6f" transform="translate(252.734375 0)"/>
     <use xlink:href="#DejaVuSans-67" transform="translate(313.916016 0)"/>
     <use xlink:href="#DejaVuSans-20" transform="translate(377.392578 0)"/>
     <use xlink:href="#DejaVuSans-44" transform="translate(409.179688 0)"/>
     <use xlink:href="#DejaVuSans-61" transform="translate(486.181641 0)"/>
     <use xlink:href="#DejaVuSans-74" transform="translate(547.460938 0)"/>
     <use xlink:href="#DejaVuSans-61" transform="translate(586.669922 0)"/>
     <use xlink:href="#DejaVuSans-73" transform="translate(647.949219 0)"/>
     <use xlink:href="#DejaVuSans-65" transform="translate(700.048828 0)"/>
     <use xlink:href="#DejaVuSans-74" transform="translate(761.572266 0)"/>
     <use xlink:href="#DejaVuSans-2c" transform="translate(800.78125 0)"/>
     <use xlink:href="#DejaVuSans-20" transform="translate(832.568359 0)"/>
     <use xlink:href="#DejaVuSans-67" transform="translate(864.355469 0)"/>
     <use xlink:href="#DejaVuSans-72" transform="translate(927.832031 0)"/>
     <use xlink:href="#DejaVuSans-6f" transform="translate(966.695312 0)"/>
     <use xlink:href="#DejaVuSans-75" transform="translate(1027.876953 0)"/>
     <use xlink:href="#DejaVuSans-70" transform="translate(1091.255859 0)"/>
     <use xlink:href="#DejaVuSans-65" transform="translate(1154.732422 0)"/>
     <use xlink:href="#DejaVuSans-64" transform="translate(1216.255859 0)"/>
     <use xlink:href="#DejaVuSans-20" transform="translate(1279.732422 0)"/>
     <use xlink:href="#DejaVuSans-62" transform="translate(1311.519531 0)"/>
     <use xlink:href="#DejaVuSans-79" transform="translate(1374.996094 0)"/>
     <use xlink:href="#DejaVuSans-20" transform="translate(1434.175781 0)"/>
     <use xlink:href="#DejaVuSans-50" transform="translate(1465.962891 0)"/>
     <use xlink:href="#DejaVuSans-61" transform="translate(1521.765625 0)"/>
     <use xlink:href="#DejaVuSans-72" transform="translate(1583.044922 0)"/>
     <use xlink:href="#DejaVuSans-61" transform="translate(1624.158203 0)"/>
     <use xlink:href="#DejaVuSans-70" transform="translate(1685.4375 0)"/>
     <use xlink:href="#DejaVuSans-68" transform="translate(1748.914062 0)"/>
     <use xlink:href="#DejaVuSans-72" transform="translate(1812.292969 0)"/>
     <use xlink:href="#DejaVuSans-61" transform="translate(1853.40625 0)"/>
     <use xlink:href="#DejaVuSans-73" transform="translate(1914.685547 0)"/>
     <use xlink:href="#DejaVuSans-65" transform="translate(1966.785156 0)"/>
     <use xlink:href="#DejaVuSans-72" transform="translate(2028.308594 0)"/>
    </g>
   </g>
   <g id="legend_1">
    <g id="patch_4">
     <path d="M 545.276656 174.650954 
L 695.264469 174.650954 
Q 697.064469 174.650954 697.064469 172.850954 
L 697.064469 40.680017 
Q 697.064469 38.880017 695.264469 38.880017 
L 545.276656 38.880017 
Q 543.476656 38.880017 543.476656 40.680017 
L 543.476656 172.850954 
Q 543.476656 174.650954 545.276656 174.650954 
z
" style="fill: #ffffff; opacity: 0.8; stroke: #cccccc; stroke-linejoin: miter"/>
    </g>
    <g id="text_21">
     <!-- Paraphraser -->
     <g transform="translate(590.097906 50.078454) scale(0.1 -0.1)">
      <use xlink:href="#DejaVuSans-50"/>
      <use xlink:href="#DejaVuSans-61" transform="translate(55.802734 0)"/>
      <use xlink:href="#DejaVuSans-72" transform="translate(117.082031 0)"/>
      <use xlink:href="#DejaVuSans-61" transform="translate(158.195312 0)"/>
      <use xlink:href="#DejaVuSans-70" transform="translate(219.474609 0)"/>
      <use xlink:href="#DejaVuSans-68" transform="translate(282.951172 0)"/>
      <use xlink:href="#DejaVuSans-72" transform="translate(346.330078 0)"/>
      <use xlink:href="#DejaVuSans-61" transform="translate(387.443359 0)"/>
      <use xlink:href="#DejaVuSans-73" transform="translate(448.722656 0)"/>
      <use xlink:href="#DejaVuSans-65" transform="translate(500.822266 0)"/>
      <use xlink:href="#DejaVuSans-72" transform="translate(562.345703 0)"/>
     </g>
    </g>
    <g id="line2d_29">
     <path d="M 547.076656 60.346735 
L 556.076656 60.346735 
L 565.076656 60.346735 
" style="fill: none; stroke: #1f77b4; stroke-opacity: 0.7; stroke-width: 1.5; stroke-linecap: square"/>
    </g>
    <g id="text_22">
     <!-- BulletPoint -->
     <g transform="translate(572.276656 63.496735) scale(0.09 -0.09)">
      <use xlink:href="#DejaVuSans-42"/>
      <use xlink:href="#DejaVuSans-75" transform="translate(68.603516 0)"/>
      <use xlink:href="#DejaVuSans-6c" transform="translate(131.982422 0)"/>
      <use xlink:href="#DejaVuSans-6c" transform="translate(159.765625 0)"/>
      <use xlink:href="#DejaVuSans-65" transform="translate(187.548828 0)"/>
      <use xlink:href="#DejaVuSans-74" transform="translate(249.072266 0)"/>
      <use xlink:href="#DejaVuSans-50" transform="translate(288.28125 0)"/>
      <use xlink:href="#DejaVuSans-6f" transform="translate(344.958984 0)"/>
      <use xlink:href="#DejaVuSans-69" transform="translate(406.140625 0)"/>
      <use xlink:href="#DejaVuSans-6e" transform="translate(433.923828 0)"/>
      <use xlink:href="#DejaVuSans-74" transform="translate(497.302734 0)"/>
     </g>
    </g>
    <g id="line2d_30">
     <path d="M 547.076656 73.557048 
L 556.076656 73.557048 
L 565.076656 73.557048 
" style="fill: none; stroke: #ff7f0e; stroke-opacity: 0.7; stroke-width: 1.5; stroke-linecap: square"/>
    </g>
    <g id="text_23">
     <!-- Task -->
     <g transform="translate(572.276656 76.707048) scale(0.09 -0.09)">
      <defs>
       <path id="DejaVuSans-54" d="M -19 4666 
L 3928 4666 
L 3928 4134 
L 2272 4134 
L 2272 0 
L 1638 0 
L 1638 4134 
L -19 4134 
L -19 4666 
z
" transform="scale(0.015625)"/>
       <path id="DejaVuSans-6b" d="M 581 4863 
L 1159 4863 
L 1159 1991 
L 2875 3500 
L 3609 3500 
L 1753 1863 
L 3688 0 
L 2938 0 
L 1159 1709 
L 1159 0 
L 581 0 
L 581 4863 
z
" transform="scale(0.015625)"/>
      </defs>
      <use xlink:href="#DejaVuSans-54"/>
      <use xlink:href="#DejaVuSans-61" transform="translate(44.583984 0)"/>
      <use xlink:href="#DejaVuSans-73" transform="translate(105.863281 0)"/>
      <use xlink:href="#DejaVuSans-6b" transform="translate(157.962891 0)"/>
     </g>
    </g>
    <g id="line2d_31">
     <path d="M 547.076656 86.76736 
L 556.076656 86.76736 
L 565.076656 86.76736 
" style="fill: none; stroke: #2ca02c; stroke-opacity: 0.7; stroke-width: 1.5; stroke-linecap: square"/>
    </g>
    <g id="text_24">
     <!-- Title -->
     <g transform="translate(572.276656 89.91736) scale(0.09 -0.09)">
      <use xlink:href="#DejaVuSans-54"/>
      <use xlink:href="#DejaVuSans-69" transform="translate(57.958984 0)"/>
      <use xlink:href="#DejaVuSans-74" transform="translate(85.742188 0)"/>
      <use xlink:href="#DejaVuSans-6c" transform="translate(124.951172 0)"/>
      <use xlink:href="#DejaVuSans-65" transform="translate(152.734375 0)"/>
     </g>
    </g>
    <g id="line2d_32">
     <path d="M 547.076656 99.977673 
L 556.076656 99.977673 
L 565.076656 99.977673 
" style="fill: none; stroke: #d62728; stroke-opacity: 0.7; stroke-width: 1.5; stroke-linecap: square"/>
    </g>
    <g id="text_25">
     <!-- Topic -->
     <g transform="translate(572.276656 103.127673) scale(0.09 -0.09)">
      <use xlink:href="#DejaVuSans-54"/>
      <use xlink:href="#DejaVuSans-6f" transform="translate(44.083984 0)"/>
      <use xlink:href="#DejaVuSans-70" transform="translate(105.265625 0)"/>
      <use xlink:href="#DejaVuSans-69" transform="translate(168.742188 0)"/>
      <use xlink:href="#DejaVuSans-63" transform="translate(196.525391 0)"/>
     </g>
    </g>
    <g id="line2d_33">
     <path d="M 547.076656 113.187985 
L 556.076656 113.187985 
L 565.076656 113.187985 
" style="fill: none; stroke: #9467bd; stroke-opacity: 0.7; stroke-width: 1.5; stroke-linecap: square"/>
    </g>
    <g id="text_26">
     <!-- Translation -->
     <g transform="translate(572.276656 116.337985) scale(0.09 -0.09)">
      <use xlink:href="#DejaVuSans-54"/>
      <use xlink:href="#DejaVuSans-72" transform="translate(46.333984 0)"/>
      <use xlink:href="#DejaVuSans-61" transform="translate(87.447266 0)"/>
      <use xlink:href="#DejaVuSans-6e" transform="translate(148.726562 0)"/>
      <use xlink:href="#DejaVuSans-73" transform="translate(212.105469 0)"/>
      <use xlink:href="#DejaVuSans-6c" transform="translate(264.205078 0)"/>
      <use xlink:href="#DejaVuSans-61" transform="translate(291.988281 0)"/>
      <use xlink:href="#DejaVuSans-74" transform="translate(353.267578 0)"/>
      <use xlink:href="#DejaVuSans-69" transform="translate(392.476562 0)"/>
      <use xlink:href="#DejaVuSans-6f" transform="translate(420.259766 0)"/>
      <use xlink:href="#DejaVuSans-6e" transform="translate(481.441406 0)"/>
     </g>
    </g>
    <g id="line2d_34">
     <path d="M 547.076656 126.398298 
L 556.076656 126.398298 
L 565.076656 126.398298 
" style="fill: none; stroke: #8c564b; stroke-opacity: 0.7; stroke-width: 1.5; stroke-linecap: square"/>
    </g>
    <g id="text_27">
     <!-- meta-llama-3.1-8b-instruct -->
     <g transform="translate(572.276656 129.548298) scale(0.09 -0.09)">
      <defs>
       <path id="DejaVuSans-2d" d="M 313 2009 
L 1997 2009 
L 1997 1497 
L 313 1497 
L 313 2009 
z
" transform="scale(0.015625)"/>
       <path id="DejaVuSans-33" d="M 2597 2516 
Q 3050 2419 3304 2112 
Q 3559 1806 3559 1356 
Q 3559 666 3084 287 
Q 2609 -91 1734 -91 
Q 1441 -91 1130 -33 
Q 819 25 488 141 
L 488 750 
Q 750 597 1062 519 
Q 1375 441 1716 441 
Q 2309 441 2620 675 
Q 2931 909 2931 1356 
Q 2931 1769 2642 2001 
Q 2353 2234 1838 2234 
L 1294 2234 
L 1294 2753 
L 1863 2753 
Q 2328 2753 2575 2939 
Q 2822 3125 2822 3475 
Q 2822 3834 2567 4026 
Q 2313 4219 1838 4219 
Q 1578 4219 1281 4162 
Q 984 4106 628 3988 
L 628 4550 
Q 988 4650 1302 4700 
Q 1616 4750 1894 4750 
Q 2613 4750 3031 4423 
Q 3450 4097 3450 3541 
Q 3450 3153 3228 2886 
Q 3006 2619 2597 2516 
z
" transform="scale(0.015625)"/>
      </defs>
      <use xlink:href="#DejaVuSans-6d"/>
      <use xlink:href="#DejaVuSans-65" transform="translate(97.412109 0)"/>
      <use xlink:href="#DejaVuSans-74" transform="translate(158.935547 0)"/>
      <use xlink:href="#DejaVuSans-61" transform="translate(198.144531 0)"/>
      <use xlink:href="#DejaVuSans-2d" transform="translate(259.423828 0)"/>
      <use xlink:href="#DejaVuSans-6c" transform="translate(295.507812 0)"/>
      <use xlink:href="#DejaVuSans-6c" transform="translate(323.291016 0)"/>
      <use xlink:href="#DejaVuSans-61" transform="translate(351.074219 0)"/>
      <use xlink:href="#DejaVuSans-6d" transform="translate(412.353516 0)"/>
      <use xlink:href="#DejaVuSans-61" transform="translate(509.765625 0)"/>
      <use xlink:href="#DejaVuSans-2d" transform="translate(571.044922 0)"/>
      <use xlink:href="#DejaVuSans-33" transform="translate(607.128906 0)"/>
      <use xlink:href="#DejaVuSans-2e" transform="translate(670.751953 0)"/>
      <use xlink:href="#DejaVuSans-31" transform="translate(702.539062 0)"/>
      <use xlink:href="#DejaVuSans-2d" transform="translate(766.162109 0)"/>
      <use xlink:href="#DejaVuSans-38" transform="translate(802.246094 0)"/>
      <use xlink:href="#DejaVuSans-62" transform="translate(865.869141 0)"/>
      <use xlink:href="#DejaVuSans-2d" transform="translate(929.345703 0)"/>
      <use xlink:href="#DejaVuSans-69" transform="translate(965.429688 0)"/>
      <use xlink:href="#DejaVuSans-6e" transform="translate(993.212891 0)"/>
      <use xlink:href="#DejaVuSans-73" transform="translate(1056.591797 0)"/>
      <use xlink:href="#DejaVuSans-74" transform="translate(1108.691406 0)"/>
      <use xlink:href="#DejaVuSans-72" transform="translate(1147.900391 0)"/>
      <use xlink:href="#DejaVuSans-75" transform="translate(1189.013672 0)"/>
      <use xlink:href="#DejaVuSans-63" transform="translate(1252.392578 0)"/>
      <use xlink:href="#DejaVuSans-74" transform="translate(1307.373047 0)"/>
     </g>
    </g>
    <g id="line2d_35">
     <path d="M 547.076656 139.60861 
L 556.076656 139.60861 
L 565.076656 139.60861 
" style="fill: none; stroke: #e377c2; stroke-opacity: 0.7; stroke-width: 1.5; stroke-linecap: square"/>
    </g>
    <g id="text_28">
     <!-- mistral-large-instruct -->
     <g transform="translate(572.276656 142.75861) scale(0.09 -0.09)">
      <use xlink:href="#DejaVuSans-6d"/>
      <use xlink:href="#DejaVuSans-69" transform="translate(97.412109 0)"/>
      <use xlink:href="#DejaVuSans-73" transform="translate(125.195312 0)"/>
      <use xlink:href="#DejaVuSans-74" transform="translate(177.294922 0)"/>
      <use xlink:href="#DejaVuSans-72" transform="translate(216.503906 0)"/>
      <use xlink:href="#DejaVuSans-61" transform="translate(257.617188 0)"/>
      <use xlink:href="#DejaVuSans-6c" transform="translate(318.896484 0)"/>
      <use xlink:href="#DejaVuSans-2d" transform="translate(346.679688 0)"/>
      <use xlink:href="#DejaVuSans-6c" transform="translate(382.763672 0)"/>
      <use xlink:href="#DejaVuSans-61" transform="translate(410.546875 0)"/>
      <use xlink:href="#DejaVuSans-72" transform="translate(471.826172 0)"/>
      <use xlink:href="#DejaVuSans-67" transform="translate(511.189453 0)"/>
      <use xlink:href="#DejaVuSans-65" transform="translate(574.666016 0)"/>
      <use xlink:href="#DejaVuSans-2d" transform="translate(636.189453 0)"/>
      <use xlink:href="#DejaVuSans-69" transform="translate(672.273438 0)"/>
      <use xlink:href="#DejaVuSans-6e" transform="translate(700.056641 0)"/>
      <use xlink:href="#DejaVuSans-73" transform="translate(763.435547 0)"/>
      <use xlink:href="#DejaVuSans-74" transform="translate(815.535156 0)"/>
      <use xlink:href="#DejaVuSans-72" transform="translate(854.744141 0)"/>
      <use xlink:href="#DejaVuSans-75" transform="translate(895.857422 0)"/>
      <use xlink:href="#DejaVuSans-63" transform="translate(959.236328 0)"/>
      <use xlink:href="#DejaVuSans-74" transform="translate(1014.216797 0)"/>
     </g>
    </g>
    <g id="line2d_36">
     <path d="M 547.076656 152.818923 
L 556.076656 152.818923 
L 565.076656 152.818923 
" style="fill: none; stroke: #7f7f7f; stroke-opacity: 0.7; stroke-width: 1.5; stroke-linecap: square"/>
    </g>
    <g id="text_29">
     <!-- openai-gpt-oss-120b -->
     <g transform="translate(572.276656 155.968923) scale(0.09 -0.09)">
      <use xlink:href="#DejaVuSans-6f"/>
      <use xlink:href="#DejaVuSans-70" transform="translate(61.181641 0)"/>
      <use xlink:href="#DejaVuSans-65" transform="translate(124.658203 0)"/>
      <use xlink:href="#DejaVuSans-6e" transform="translate(186.181641 0)"/>
      <use xlink:href="#DejaVuSans-61" transform="translate(249.560547 0)"/>
      <use xlink:href="#DejaVuSans-69" transform="translate(310.839844 0)"/>
      <use xlink:href="#DejaVuSans-2d" transform="translate(338.623047 0)"/>
      <use xlink:href="#DejaVuSans-67" transform="translate(374.707031 0)"/>
      <use xlink:href="#DejaVuSans-70" transform="translate(438.183594 0)"/>
      <use xlink:href="#DejaVuSans-74" transform="translate(501.660156 0)"/>
      <use xlink:href="#DejaVuSans-2d" transform="translate(540.869141 0)"/>
      <use xlink:href="#DejaVuSans-6f" transform="translate(578.828125 0)"/>
      <use xlink:href="#DejaVuSans-73" transform="translate(640.009766 0)"/>
      <use xlink:href="#DejaVuSans-73" transform="translate(692.109375 0)"/>
      <use xlink:href="#DejaVuSans-2d" transform="translate(744.208984 0)"/>
      <use xlink:href="#DejaVuSans-31" transform="translate(780.292969 0)"/>
      <use xlink:href="#DejaVuSans-32" transform="translate(843.916016 0)"/>
      <use xlink:href="#DejaVuSans-30" transform="translate(907.539062 0)"/>
      <use xlink:href="#DejaVuSans-62" transform="translate(971.162109 0)"/>
     </g>
    </g>
    <g id="line2d_37">
     <path d="M 547.076656 166.029235 
L 556.076656 166.029235 
L 565.076656 166.029235 
" style="fill: none; stroke: #bcbd22; stroke-opacity: 0.7; stroke-width: 1.5; stroke-linecap: square"/>
    </g>
    <g id="text_30">
     <!-- qwen3-32b -->
     <g transform="translate(572.276656 169.179235) scale(0.09 -0.09)">
      <defs>
       <path id="DejaVuSans-71" d="M 947 1747 
Q 947 1113 1208 752 
Q 1469 391 1925 391 
Q 2381 391 2643 752 
Q 2906 1113 2906 1747 
Q 2906 2381 2643 2742 
Q 2381 3103 1925 3103 
Q 1469 3103 1208 2742 
Q 947 2381 947 1747 
z
M 2906 525 
Q 2725 213 2448 61 
Q 2172 -91 1784 -91 
Q 1150 -91 751 415 
Q 353 922 353 1747 
Q 353 2572 751 3078 
Q 1150 3584 1784 3584 
Q 2172 3584 2448 3432 
Q 2725 3281 2906 2969 
L 2906 3500 
L 3481 3500 
L 3481 -1331 
L 2906 -1331 
L 2906 525 
z
" transform="scale(0.015625)"/>
      </defs>
      <use xlink:href="#DejaVuSans-71"/>
      <use xlink:href="#DejaVuSans-77" transform="translate(63.476562 0)"/>
      <use xlink:href="#DejaVuSans-65" transform="translate(145.263672 0)"/>
      <use xlink:href="#DejaVuSans-6e" transform="translate(206.787109 0)"/>
      <use xlink:href="#DejaVuSans-33" transform="translate(270.166016 0)"/>
      <use xlink:href="#DejaVuSans-2d" transform="translate(333.789062 0)"/>
      <use xlink:href="#DejaVuSans-33" transform="translate(369.873047 0)"/>
      <use xlink:href="#DejaVuSans-32" transform="translate(433.496094 0)"/>
      <use xlink:href="#DejaVuSans-62" transform="translate(497.119141 0)"/>
     </g>
    </g>
   </g>
  </g>
 </g>
 <defs>
  <clipPath id="pb920eff0e1">
   <path d="M 495.525156 266.053954 
C 495.525156 237.523961 489.90537 209.271385 478.987414 182.913108 
C 468.069458 156.554831 452.06566 132.603455 431.891908 112.429703 
C 411.718156 92.255951 387.766779 76.252152 361.408502 65.334197 
C 335.050225 54.416241 306.79765 48.796454 278.267656 48.796454 
C 249.737663 48.796454 221.485087 54.416241 195.12681 65.334197 
C 168.768533 76.252152 144.817157 92.255951 124.643405 112.429703 
C 104.469653 132.603455 88.465855 156.554831 77.547899 182.913108 
C 66.629943 209.271385 61.010156 237.523961 61.010156 266.053954 
C 61.010156 294.583948 66.629943 322.836523 77.547899 349.1948 
C 88.465855 375.553077 104.469653 399.504454 124.643405 419.678206 
C 144.817157 439.851958 168.768533 455.855756 195.12681 466.773712 
C 221.485087 477.691668 249.737663 483.311454 278.267656 483.311454 
C 306.79765 483.311454 335.050225 477.691668 361.408502 466.773712 
C 387.766779 455.855756 411.718156 439.851958 431.891908 419.678206 
C 452.06566 399.504454 468.069458 375.553077 478.987414 349.1948 
C 489.90537 322.836523 495.525156 294.583948 495.525156 266.053954 
M 278.267656 266.053954 
C 278.267656 266.053954 278.267656 266.053954 278.267656 266.053954 
C 278.267656 266.053954 278.267656 266.053954 278.267656 266.053954 
C 278.267656 266.053954 278.267656 266.053954 278.267656 266.053954 
C 278.267656 266.053954 278.267656 266.053954 278.267656 266.053954 
C 278.267656 266.053954 278.267656 266.053954 278.267656 266.053954 
C 278.267656 266.053954 278.267656 266.053954 278.267656 266.053954 
C 278.267656 266.053954 278.267656 266.053954 278.267656 266.053954 
C 278.267656 266.053954 278.267656 266.053954 278.267656 266.053954 
C 278.267656 266.053954 278.267656 266.053954 278.267656 266.053954 
C 278.267656 266.053954 278.267656 266.053954 278.267656 266.053954 
C 278.267656 266.053954 278.267656 266.053954 278.267656 266.053954 
C 278.267656 266.053954 278.267656 266.053954 278.267656 266.053954 
C 278.267656 266.053954 278.267656 266.053954 278.267656 266.053954 
C 278.267656 266.053954 278.267656 266.053954 278.267656 266.053954 
C 278.267656 266.053954 278.267656 266.053954 278.267656 266.053954 
C 278.267656 266.053954 278.267656 266.053954 278.267656 266.053954 
z
"/>
  </clipPath>
 </defs>
</svg>
