<?xml version="1.0" encoding="utf-8" standalone="no"?>
<!DOCTYPE svg PUBLIC "-//W3C//DTD SVG 1.1//EN"
  "http://www.w3.org/Graphics/SVG/1.1/DTD/svg11.dtd">
<svg xmlns:xlink="http://www.w3.org/1999/xlink" width="709.5085pt" height="423.21125pt" viewBox="0 0 709.5085 423.21125" xmlns="http://www.w3.org/2000/svg" version="1.1">
 <metadata>
  <rdf:RDF xmlns:dc="http://purl.org/dc/elements/1.1/" xmlns:cc="http://creativecommons.org/ns#" xmlns:rdf="http://www.w3.org/1999/02/22-rdf-syntax-ns#">
   <cc:Work>
    <dc:type rdf:resource="http://purl.org/dc/dcmitype/StillImage"/>
    <dc:date>2025-08-24T15:19:46.045815</dc:date>
    <dc:format>image/svg+xml</dc:format>
    <dc:creator>
     <cc:Agent>
      <dc:title>Matplotlib v3.10.3, https://matplotlib.org/</dc:title>
     </cc:Agent>
    </dc:creator>
   </cc:Work>
  </rdf:RDF>
 </metadata>
 <defs>
  <style type="text/css">*{stroke-linejoin: round; stroke-linecap: butt}</style>
 </defs>
 <g id="figure_1">
  <g id="patch_1">
   <path d="M 0 423.21125 
L 709.5085 423.21125 
L 709.5085 0 
L 0 0 
z
" style="fill: #ffffff"/>
  </g>
  <g id="axes_1">
   <g id="patch_2">
    <path d="M 43.78125 385.376875 
L 543.80125 385.376875 
L 543.80125 22.318125 
L 43.78125 22.318125 
z
" style="fill: #ffffff"/>
   </g>
   <g id="FillBetweenPolyCollection_1">
    <defs>
     <path id="mdc2f5c9f51" d="M 66.509432 -73.889635 
L 66.509432 -73.889635 
L 180.150341 -58.943817 
L 293.79125 -159.09281 
L 407.432159 -54.337045 
L 521.073068 -55.90081 
L 521.073068 -119.714695 
L 521.073068 -119.714695 
L 407.432159 -154.034048 
L 293.79125 -182.099347 
L 180.150341 -79.256412 
L 66.509432 -73.889635 
z
" style="stroke: #de8f05; stroke-opacity: 0.3"/>
    </defs>
    <g clip-path="url(#p71a2049bd8)">
     <use xlink:href="#mdc2f5c9f51" x="0" y="423.21125" style="fill: #de8f05; fill-opacity: 0.3; stroke: #de8f05; stroke-opacity: 0.3"/>
    </g>
   </g>
   <g id="FillBetweenPolyCollection_2">
    <defs>
     <path id="m3f22dda87a" d="M 66.509432 -115.111511 
L 66.509432 -115.111511 
L 180.150341 -92.635738 
L 293.79125 -200.319905 
L 407.432159 -102.567147 
L 521.073068 -93.824823 
L 521.073068 -154.134442 
L 521.073068 -154.134442 
L 407.432159 -176.025577 
L 293.79125 -206.010082 
L 180.150341 -162.952739 
L 66.509432 -115.111511 
z
" style="stroke: #029e73; stroke-opacity: 0.3"/>
    </defs>
    <g clip-path="url(#p71a2049bd8)">
     <use xlink:href="#m3f22dda87a" x="0" y="423.21125" style="fill: #029e73; fill-opacity: 0.3; stroke: #029e73; stroke-opacity: 0.3"/>
    </g>
   </g>
   <g id="FillBetweenPolyCollection_3">
    <defs>
     <path id="m73bd69a124" d="M 66.509432 -201.986508 
L 66.509432 -201.986508 
L 180.150341 -164.920074 
L 293.79125 -262.139824 
L 407.432159 -174.068429 
L 521.073068 -160.316795 
L 521.073068 -244.845842 
L 521.073068 -244.845842 
L 407.432159 -271.155716 
L 293.79125 -273.618412 
L 180.150341 -239.513257 
L 66.509432 -201.986508 
z
" style="stroke: #d55e00; stroke-opacity: 0.3"/>
    </defs>
    <g clip-path="url(#p71a2049bd8)">
     <use xlink:href="#m73bd69a124" x="0" y="423.21125" style="fill: #d55e00; fill-opacity: 0.3; stroke: #d55e00; stroke-opacity: 0.3"/>
    </g>
   </g>
   <g id="FillBetweenPolyCollection_4">
    <defs>
     <path id="m291a31b1b4" d="M 66.509432 -84.80927 
L 66.509432 -84.80927 
L 180.150341 -75.903633 
L 293.79125 -172.18283 
L 407.432159 -79.249984 
L 521.073068 -73.830603 
L 521.073068 -137.511203 
L 521.073068 -137.511203 
L 407.432159 -162.721764 
L 293.79125 -188.230443 
L 180.150341 -108.383929 
L 66.509432 -84.80927 
z
" style="stroke: #cc78bc; stroke-opacity: 0.3"/>
    </defs>
    <g clip-path="url(#p71a2049bd8)">
     <use xlink:href="#m291a31b1b4" x="0" y="423.21125" style="fill: #cc78bc; fill-opacity: 0.3; stroke: #cc78bc; stroke-opacity: 0.3"/>
    </g>
   </g>
   <g id="FillBetweenPolyCollection_5">
    <defs>
     <path id="ma8c888d5c9" d="M 66.509432 -121.503578 
L 66.509432 -121.503578 
L 180.150341 -100.324851 
L 293.79125 -180.776192 
L 407.432159 -108.72904 
L 521.073068 -105.173375 
L 521.073068 -160.291449 
L 521.073068 -160.291449 
L 407.432159 -171.713255 
L 293.79125 -192.460037 
L 180.150341 -157.842397 
L 66.509432 -121.503578 
z
" style="stroke: #ca9161; stroke-opacity: 0.3"/>
    </defs>
    <g clip-path="url(#p71a2049bd8)">
     <use xlink:href="#ma8c888d5c9" x="0" y="423.21125" style="fill: #ca9161; fill-opacity: 0.3; stroke: #ca9161; stroke-opacity: 0.3"/>
    </g>
   </g>
   <g id="FillBetweenPolyCollection_6">
    <defs>
     <path id="m0ee01c291b" d="M 66.509432 -121.503578 
L 66.509432 -121.503578 
L 180.150341 -100.324851 
L 293.79125 -180.776192 
L 407.432159 -108.72904 
L 521.073068 -105.173375 
L 521.073068 -160.291449 
L 521.073068 -160.291449 
L 407.432159 -171.713255 
L 293.79125 -192.460037 
L 180.150341 -157.842397 
L 66.509432 -121.503578 
z
" style="stroke: #fbafe4; stroke-opacity: 0.3"/>
    </defs>
    <g clip-path="url(#p71a2049bd8)">
     <use xlink:href="#m0ee01c291b" x="0" y="423.21125" style="fill: #fbafe4; fill-opacity: 0.3; stroke: #fbafe4; stroke-opacity: 0.3"/>
    </g>
   </g>
   <g id="FillBetweenPolyCollection_7">
    <defs>
     <path id="mc9949f8e67" d="M 66.509432 -350.56539 
L 66.509432 -350.56539 
L 180.150341 -324.155227 
L 293.79125 -353.718648 
L 407.432159 -339.227059 
L 521.073068 -329.557539 
L 521.073068 -363.567708 
L 521.073068 -363.567708 
L 407.432159 -346.92848 
L 293.79125 -384.390455 
L 180.150341 -335.981452 
L 66.509432 -350.56539 
z
" style="stroke: #949494; stroke-opacity: 0.3"/>
    </defs>
    <g clip-path="url(#p71a2049bd8)">
     <use xlink:href="#mc9949f8e67" x="0" y="423.21125" style="fill: #949494; fill-opacity: 0.3; stroke: #949494; stroke-opacity: 0.3"/>
    </g>
   </g>
   <g id="FillBetweenPolyCollection_8">
    <defs>
     <path id="m2c55cd639d" d="M 66.509432 -335.495241 
L 66.509432 -335.495241 
L 180.150341 -328.023889 
L 293.79125 -354.788159 
L 407.432159 -332.455516 
L 521.073068 -327.599506 
L 521.073068 -355.255935 
L 521.073068 -355.255935 
L 407.432159 -350.256356 
L 293.79125 -378.603371 
L 180.150341 -331.357092 
L 66.509432 -335.495241 
z
" style="stroke: #ece133; stroke-opacity: 0.3"/>
    </defs>
    <g clip-path="url(#p71a2049bd8)">
     <use xlink:href="#m2c55cd639d" x="0" y="423.21125" style="fill: #ece133; fill-opacity: 0.3; stroke: #ece133; stroke-opacity: 0.3"/>
    </g>
   </g>
   <g id="FillBetweenPolyCollection_9">
    <defs>
     <path id="mc7c36595c0" d="M 66.509432 -342.838714 
L 66.509432 -342.838714 
L 180.150341 -326.078849 
L 293.79125 -354.262776 
L 407.432159 -336.324167 
L 521.073068 -328.958453 
L 521.073068 -358.89942 
L 521.073068 -358.89942 
L 407.432159 -348.021045 
L 293.79125 -381.461261 
L 180.150341 -333.653287 
L 66.509432 -342.838714 
z
" style="stroke: #56b4e9; stroke-opacity: 0.3"/>
    </defs>
    <g clip-path="url(#p71a2049bd8)">
     <use xlink:href="#mc7c36595c0" x="0" y="423.21125" style="fill: #56b4e9; fill-opacity: 0.3; stroke: #56b4e9; stroke-opacity: 0.3"/>
    </g>
   </g>
   <g id="FillBetweenPolyCollection_10">
    <defs>
     <path id="ma7c9e163c4" d="M 66.509432 -118.023921 
L 66.509432 -118.023921 
L 180.150341 -107.631795 
L 293.79125 -168.102865 
L 407.432159 -113.65795 
L 521.073068 -105.090335 
L 521.073068 -138.791934 
L 521.073068 -138.791934 
L 407.432159 -163.446827 
L 293.79125 -171.848447 
L 180.150341 -134.062568 
L 66.509432 -118.023921 
z
" style="stroke: #0173b2; stroke-opacity: 0.3"/>
    </defs>
    <g clip-path="url(#p71a2049bd8)">
     <use xlink:href="#ma7c9e163c4" x="0" y="423.21125" style="fill: #0173b2; fill-opacity: 0.3; stroke: #0173b2; stroke-opacity: 0.3"/>
    </g>
   </g>
   <g id="FillBetweenPolyCollection_11">
    <defs>
     <path id="mc658ac54f3" d="M 66.509432 -323.405606 
L 66.509432 -323.405606 
L 180.150341 -259.448774 
L 293.79125 -326.288317 
L 407.432159 -304.529051 
L 521.073068 -287.147419 
L 521.073068 -325.023566 
L 521.073068 -325.023566 
L 407.432159 -340.400791 
L 293.79125 -335.874285 
L 180.150341 -292.268112 
L 66.509432 -323.405606 
z
" style="stroke: #de8f05; stroke-opacity: 0.3"/>
    </defs>
    <g clip-path="url(#p71a2049bd8)">
     <use xlink:href="#mc658ac54f3" x="0" y="423.21125" style="fill: #de8f05; fill-opacity: 0.3; stroke: #de8f05; stroke-opacity: 0.3"/>
    </g>
   </g>
   <g id="FillBetweenPolyCollection_12">
    <defs>
     <path id="mc8b066b2b0" d="M 66.509432 -294.065774 
L 66.509432 -294.065774 
L 180.150341 -274.353861 
L 293.79125 -311.924397 
L 407.432159 -286.818418 
L 521.073068 -276.805886 
L 521.073068 -307.172477 
L 521.073068 -307.172477 
L 407.432159 -308.231031 
L 293.79125 -329.943319 
L 180.150341 -280.178348 
L 66.509432 -294.065774 
z
" style="stroke: #029e73; stroke-opacity: 0.3"/>
    </defs>
    <g clip-path="url(#p71a2049bd8)">
     <use xlink:href="#mc8b066b2b0" x="0" y="423.21125" style="fill: #029e73; fill-opacity: 0.3; stroke: #029e73; stroke-opacity: 0.3"/>
    </g>
   </g>
   <g id="FillBetweenPolyCollection_13">
    <defs>
     <path id="m4e5eb6ed21" d="M 66.509432 -132.459907 
L 66.509432 -132.459907 
L 180.150341 -108.062914 
L 293.79125 -205.559193 
L 407.432159 -113.210343 
L 521.073068 -107.982757 
L 521.073068 -174.098232 
L 521.073068 -174.098232 
L 407.432159 -198.135501 
L 293.79125 -211.169681 
L 180.150341 -158.870689 
L 66.509432 -132.459907 
z
" style="stroke: #d55e00; stroke-opacity: 0.3"/>
    </defs>
    <g clip-path="url(#p71a2049bd8)">
     <use xlink:href="#m4e5eb6ed21" x="0" y="423.21125" style="fill: #d55e00; fill-opacity: 0.3; stroke: #d55e00; stroke-opacity: 0.3"/>
    </g>
   </g>
   <g id="FillBetweenPolyCollection_14">
    <defs>
     <path id="ma15d392d54" d="M 66.509432 -208.33003 
L 66.509432 -208.33003 
L 180.150341 -162.207335 
L 293.79125 -147.790577 
L 407.432159 -154.670363 
L 521.073068 -177.578883 
L 521.073068 -217.766817 
L 521.073068 -217.766817 
L 407.432159 -222.481566 
L 293.79125 -170.796591 
L 180.150341 -218.839596 
L 66.509432 -208.33003 
z
" style="stroke: #cc78bc; stroke-opacity: 0.3"/>
    </defs>
    <g clip-path="url(#p71a2049bd8)">
     <use xlink:href="#ma15d392d54" x="0" y="423.21125" style="fill: #cc78bc; fill-opacity: 0.3; stroke: #cc78bc; stroke-opacity: 0.3"/>
    </g>
   </g>
   <g id="matplotlib.axis_1">
    <g id="xtick_1">
     <g id="line2d_1">
      <path d="M 66.509432 385.376875 
L 66.509432 22.318125 
" clip-path="url(#p71a2049bd8)" style="fill: none; stroke: #b0b0b0; stroke-width: 0.8; stroke-linecap: square"/>
     </g>
     <g id="line2d_2">
      <defs>
       <path id="m28810fb184" d="M 0 0 
L 0 3.5 
" style="stroke: #000000; stroke-width: 0.8"/>
      </defs>
      <g>
       <use xlink:href="#m28810fb184" x="66.509432" y="385.376875" style="stroke: #000000; stroke-width: 0.8"/>
      </g>
     </g>
     <g id="text_1">
      <!-- 1 -->
      <g transform="translate(63.328182 399.975312) scale(0.1 -0.1)">
       <defs>
        <path id="DejaVuSans-31" d="M 794 531 
L 1825 531 
L 1825 4091 
L 703 3866 
L 703 4441 
L 1819 4666 
L 2450 4666 
L 2450 531 
L 3481 531 
L 3481 0 
L 794 0 
L 794 531 
z
" transform="scale(0.015625)"/>
       </defs>
       <use xlink:href="#DejaVuSans-31"/>
      </g>
     </g>
    </g>
    <g id="xtick_2">
     <g id="line2d_3">
      <path d="M 180.150341 385.376875 
L 180.150341 22.318125 
" clip-path="url(#p71a2049bd8)" style="fill: none; stroke: #b0b0b0; stroke-width: 0.8; stroke-linecap: square"/>
     </g>
     <g id="line2d_4">
      <g>
       <use xlink:href="#m28810fb184" x="180.150341" y="385.376875" style="stroke: #000000; stroke-width: 0.8"/>
      </g>
     </g>
     <g id="text_2">
      <!-- 2 -->
      <g transform="translate(176.969091 399.975312) scale(0.1 -0.1)">
       <defs>
        <path id="DejaVuSans-32" d="M 1228 531 
L 3431 531 
L 3431 0 
L 469 0 
L 469 531 
Q 828 903 1448 1529 
Q 2069 2156 2228 2338 
Q 2531 2678 2651 2914 
Q 2772 3150 2772 3378 
Q 2772 3750 2511 3984 
Q 2250 4219 1831 4219 
Q 1534 4219 1204 4116 
Q 875 4013 500 3803 
L 500 4441 
Q 881 4594 1212 4672 
Q 1544 4750 1819 4750 
Q 2544 4750 2975 4387 
Q 3406 4025 3406 3419 
Q 3406 3131 3298 2873 
Q 3191 2616 2906 2266 
Q 2828 2175 2409 1742 
Q 1991 1309 1228 531 
z
" transform="scale(0.015625)"/>
       </defs>
       <use xlink:href="#DejaVuSans-32"/>
      </g>
     </g>
    </g>
    <g id="xtick_3">
     <g id="line2d_5">
      <path d="M 293.79125 385.376875 
L 293.79125 22.318125 
" clip-path="url(#p71a2049bd8)" style="fill: none; stroke: #b0b0b0; stroke-width: 0.8; stroke-linecap: square"/>
     </g>
     <g id="line2d_6">
      <g>
       <use xlink:href="#m28810fb184" x="293.79125" y="385.376875" style="stroke: #000000; stroke-width: 0.8"/>
      </g>
     </g>
     <g id="text_3">
      <!-- 3 -->
      <g transform="translate(290.61 399.975312) scale(0.1 -0.1)">
       <defs>
        <path id="DejaVuSans-33" d="M 2597 2516 
Q 3050 2419 3304 2112 
Q 3559 1806 3559 1356 
Q 3559 666 3084 287 
Q 2609 -91 1734 -91 
Q 1441 -91 1130 -33 
Q 819 25 488 141 
L 488 750 
Q 750 597 1062 519 
Q 1375 441 1716 441 
Q 2309 441 2620 675 
Q 2931 909 2931 1356 
Q 2931 1769 2642 2001 
Q 2353 2234 1838 2234 
L 1294 2234 
L 1294 2753 
L 1863 2753 
Q 2328 2753 2575 2939 
Q 2822 3125 2822 3475 
Q 2822 3834 2567 4026 
Q 2313 4219 1838 4219 
Q 1578 4219 1281 4162 
Q 984 4106 628 3988 
L 628 4550 
Q 988 4650 1302 4700 
Q 1616 4750 1894 4750 
Q 2613 4750 3031 4423 
Q 3450 4097 3450 3541 
Q 3450 3153 3228 2886 
Q 3006 2619 2597 2516 
z
" transform="scale(0.015625)"/>
       </defs>
       <use xlink:href="#DejaVuSans-33"/>
      </g>
     </g>
    </g>
    <g id="xtick_4">
     <g id="line2d_7">
      <path d="M 407.432159 385.376875 
L 407.432159 22.318125 
" clip-path="url(#p71a2049bd8)" style="fill: none; stroke: #b0b0b0; stroke-width: 0.8; stroke-linecap: square"/>
     </g>
     <g id="line2d_8">
      <g>
       <use xlink:href="#m28810fb184" x="407.432159" y="385.376875" style="stroke: #000000; stroke-width: 0.8"/>
      </g>
     </g>
     <g id="text_4">
      <!-- 4 -->
      <g transform="translate(404.250909 399.975312) scale(0.1 -0.1)">
       <defs>
        <path id="DejaVuSans-34" d="M 2419 4116 
L 825 1625 
L 2419 1625 
L 2419 4116 
z
M 2253 4666 
L 3047 4666 
L 3047 1625 
L 3713 1625 
L 3713 1100 
L 3047 1100 
L 3047 0 
L 2419 0 
L 2419 1100 
L 313 1100 
L 313 1709 
L 2253 4666 
z
" transform="scale(0.015625)"/>
       </defs>
       <use xlink:href="#DejaVuSans-34"/>
      </g>
     </g>
    </g>
    <g id="xtick_5">
     <g id="line2d_9">
      <path d="M 521.073068 385.376875 
L 521.073068 22.318125 
" clip-path="url(#p71a2049bd8)" style="fill: none; stroke: #b0b0b0; stroke-width: 0.8; stroke-linecap: square"/>
     </g>
     <g id="line2d_10">
      <g>
       <use xlink:href="#m28810fb184" x="521.073068" y="385.376875" style="stroke: #000000; stroke-width: 0.8"/>
      </g>
     </g>
     <g id="text_5">
      <!-- 5 -->
      <g transform="translate(517.891818 399.975312) scale(0.1 -0.1)">
       <defs>
        <path id="DejaVuSans-35" d="M 691 4666 
L 3169 4666 
L 3169 4134 
L 1269 4134 
L 1269 2991 
Q 1406 3038 1543 3061 
Q 1681 3084 1819 3084 
Q 2600 3084 3056 2656 
Q 3513 2228 3513 1497 
Q 3513 744 3044 326 
Q 2575 -91 1722 -91 
Q 1428 -91 1123 -41 
Q 819 9 494 109 
L 494 744 
Q 775 591 1075 516 
Q 1375 441 1709 441 
Q 2250 441 2565 725 
Q 2881 1009 2881 1497 
Q 2881 1984 2565 2268 
Q 2250 2553 1709 2553 
Q 1456 2553 1204 2497 
Q 953 2441 691 2322 
L 691 4666 
z
" transform="scale(0.015625)"/>
       </defs>
       <use xlink:href="#DejaVuSans-35"/>
      </g>
     </g>
    </g>
    <g id="text_6">
     <!-- num_chunks -->
     <g transform="translate(262.327969 413.653437) scale(0.1 -0.1)">
      <defs>
       <path id="DejaVuSans-6e" d="M 3513 2113 
L 3513 0 
L 2938 0 
L 2938 2094 
Q 2938 2591 2744 2837 
Q 2550 3084 2163 3084 
Q 1697 3084 1428 2787 
Q 1159 2491 1159 1978 
L 1159 0 
L 581 0 
L 581 3500 
L 1159 3500 
L 1159 2956 
Q 1366 3272 1645 3428 
Q 1925 3584 2291 3584 
Q 2894 3584 3203 3211 
Q 3513 2838 3513 2113 
z
" transform="scale(0.015625)"/>
       <path id="DejaVuSans-75" d="M 544 1381 
L 544 3500 
L 1119 3500 
L 1119 1403 
Q 1119 906 1312 657 
Q 1506 409 1894 409 
Q 2359 409 2629 706 
Q 2900 1003 2900 1516 
L 2900 3500 
L 3475 3500 
L 3475 0 
L 2900 0 
L 2900 538 
Q 2691 219 2414 64 
Q 2138 -91 1772 -91 
Q 1169 -91 856 284 
Q 544 659 544 1381 
z
M 1991 3584 
L 1991 3584 
z
" transform="scale(0.015625)"/>
       <path id="DejaVuSans-6d" d="M 3328 2828 
Q 3544 3216 3844 3400 
Q 4144 3584 4550 3584 
Q 5097 3584 5394 3201 
Q 5691 2819 5691 2113 
L 5691 0 
L 5113 0 
L 5113 2094 
Q 5113 2597 4934 2840 
Q 4756 3084 4391 3084 
Q 3944 3084 3684 2787 
Q 3425 2491 3425 1978 
L 3425 0 
L 2847 0 
L 2847 2094 
Q 2847 2600 2669 2842 
Q 2491 3084 2119 3084 
Q 1678 3084 1418 2786 
Q 1159 2488 1159 1978 
L 1159 0 
L 581 0 
L 581 3500 
L 1159 3500 
L 1159 2956 
Q 1356 3278 1631 3431 
Q 1906 3584 2284 3584 
Q 2666 3584 2933 3390 
Q 3200 3197 3328 2828 
z
" transform="scale(0.015625)"/>
       <path id="DejaVuSans-5f" d="M 3263 -1063 
L 3263 -1509 
L -63 -1509 
L -63 -1063 
L 3263 -1063 
z
" transform="scale(0.015625)"/>
       <path id="DejaVuSans-63" d="M 3122 3366 
L 3122 2828 
Q 2878 2963 2633 3030 
Q 2388 3097 2138 3097 
Q 1578 3097 1268 2742 
Q 959 2388 959 1747 
Q 959 1106 1268 751 
Q 1578 397 2138 397 
Q 2388 397 2633 464 
Q 2878 531 3122 666 
L 3122 134 
Q 2881 22 2623 -34 
Q 2366 -91 2075 -91 
Q 1284 -91 818 406 
Q 353 903 353 1747 
Q 353 2603 823 3093 
Q 1294 3584 2113 3584 
Q 2378 3584 2631 3529 
Q 2884 3475 3122 3366 
z
" transform="scale(0.015625)"/>
       <path id="DejaVuSans-68" d="M 3513 2113 
L 3513 0 
L 2938 0 
L 2938 2094 
Q 2938 2591 2744 2837 
Q 2550 3084 2163 3084 
Q 1697 3084 1428 2787 
Q 1159 2491 1159 1978 
L 1159 0 
L 581 0 
L 581 4863 
L 1159 4863 
L 1159 2956 
Q 1366 3272 1645 3428 
Q 1925 3584 2291 3584 
Q 2894 3584 3203 3211 
Q 3513 2838 3513 2113 
z
" transform="scale(0.015625)"/>
       <path id="DejaVuSans-6b" d="M 581 4863 
L 1159 4863 
L 1159 1991 
L 2875 3500 
L 3609 3500 
L 1753 1863 
L 3688 0 
L 2938 0 
L 1159 1709 
L 1159 0 
L 581 0 
L 581 4863 
z
" transform="scale(0.015625)"/>
       <path id="DejaVuSans-73" d="M 2834 3397 
L 2834 2853 
Q 2591 2978 2328 3040 
Q 2066 3103 1784 3103 
Q 1356 3103 1142 2972 
Q 928 2841 928 2578 
Q 928 2378 1081 2264 
Q 1234 2150 1697 2047 
L 1894 2003 
Q 2506 1872 2764 1633 
Q 3022 1394 3022 966 
Q 3022 478 2636 193 
Q 2250 -91 1575 -91 
Q 1294 -91 989 -36 
Q 684 19 347 128 
L 347 722 
Q 666 556 975 473 
Q 1284 391 1588 391 
Q 1994 391 2212 530 
Q 2431 669 2431 922 
Q 2431 1156 2273 1281 
Q 2116 1406 1581 1522 
L 1381 1569 
Q 847 1681 609 1914 
Q 372 2147 372 2553 
Q 372 3047 722 3315 
Q 1072 3584 1716 3584 
Q 2034 3584 2315 3537 
Q 2597 3491 2834 3397 
z
" transform="scale(0.015625)"/>
      </defs>
      <use xlink:href="#DejaVuSans-6e"/>
      <use xlink:href="#DejaVuSans-75" transform="translate(63.378906 0)"/>
      <use xlink:href="#DejaVuSans-6d" transform="translate(126.757812 0)"/>
      <use xlink:href="#DejaVuSans-5f" transform="translate(224.169922 0)"/>
      <use xlink:href="#DejaVuSans-63" transform="translate(274.169922 0)"/>
      <use xlink:href="#DejaVuSans-68" transform="translate(329.150391 0)"/>
      <use xlink:href="#DejaVuSans-75" transform="translate(392.529297 0)"/>
      <use xlink:href="#DejaVuSans-6e" transform="translate(455.908203 0)"/>
      <use xlink:href="#DejaVuSans-6b" transform="translate(519.287109 0)"/>
      <use xlink:href="#DejaVuSans-73" transform="translate(577.197266 0)"/>
     </g>
    </g>
   </g>
   <g id="matplotlib.axis_2">
    <g id="ytick_1">
     <g id="line2d_11">
      <path d="M 43.78125 376.487087 
L 543.80125 376.487087 
" clip-path="url(#p71a2049bd8)" style="fill: none; stroke: #b0b0b0; stroke-width: 0.8; stroke-linecap: square"/>
     </g>
     <g id="line2d_12">
      <defs>
       <path id="m613e576110" d="M 0 0 
L -3.5 0 
" style="stroke: #000000; stroke-width: 0.8"/>
      </defs>
      <g>
       <use xlink:href="#m613e576110" x="43.78125" y="376.487087" style="stroke: #000000; stroke-width: 0.8"/>
      </g>
     </g>
     <g id="text_7">
      <!-- 0.0 -->
      <g transform="translate(20.878125 380.286306) scale(0.1 -0.1)">
       <defs>
        <path id="DejaVuSans-30" d="M 2034 4250 
Q 1547 4250 1301 3770 
Q 1056 3291 1056 2328 
Q 1056 1369 1301 889 
Q 1547 409 2034 409 
Q 2525 409 2770 889 
Q 3016 1369 3016 2328 
Q 3016 3291 2770 3770 
Q 2525 4250 2034 4250 
z
M 2034 4750 
Q 2819 4750 3233 4129 
Q 3647 3509 3647 2328 
Q 3647 1150 3233 529 
Q 2819 -91 2034 -91 
Q 1250 -91 836 529 
Q 422 1150 422 2328 
Q 422 3509 836 4129 
Q 1250 4750 2034 4750 
z
" transform="scale(0.015625)"/>
        <path id="DejaVuSans-2e" d="M 684 794 
L 1344 794 
L 1344 0 
L 684 0 
L 684 794 
z
" transform="scale(0.015625)"/>
       </defs>
       <use xlink:href="#DejaVuSans-30"/>
       <use xlink:href="#DejaVuSans-2e" transform="translate(63.623047 0)"/>
       <use xlink:href="#DejaVuSans-30" transform="translate(95.410156 0)"/>
      </g>
     </g>
    </g>
    <g id="ytick_2">
     <g id="line2d_13">
      <path d="M 43.78125 298.222191 
L 543.80125 298.222191 
" clip-path="url(#p71a2049bd8)" style="fill: none; stroke: #b0b0b0; stroke-width: 0.8; stroke-linecap: square"/>
     </g>
     <g id="line2d_14">
      <g>
       <use xlink:href="#m613e576110" x="43.78125" y="298.222191" style="stroke: #000000; stroke-width: 0.8"/>
      </g>
     </g>
     <g id="text_8">
      <!-- 0.2 -->
      <g transform="translate(20.878125 302.02141) scale(0.1 -0.1)">
       <use xlink:href="#DejaVuSans-30"/>
       <use xlink:href="#DejaVuSans-2e" transform="translate(63.623047 0)"/>
       <use xlink:href="#DejaVuSans-32" transform="translate(95.410156 0)"/>
      </g>
     </g>
    </g>
    <g id="ytick_3">
     <g id="line2d_15">
      <path d="M 43.78125 219.957294 
L 543.80125 219.957294 
" clip-path="url(#p71a2049bd8)" style="fill: none; stroke: #b0b0b0; stroke-width: 0.8; stroke-linecap: square"/>
     </g>
     <g id="line2d_16">
      <g>
       <use xlink:href="#m613e576110" x="43.78125" y="219.957294" style="stroke: #000000; stroke-width: 0.8"/>
      </g>
     </g>
     <g id="text_9">
      <!-- 0.4 -->
      <g transform="translate(20.878125 223.756513) scale(0.1 -0.1)">
       <use xlink:href="#DejaVuSans-30"/>
       <use xlink:href="#DejaVuSans-2e" transform="translate(63.623047 0)"/>
       <use xlink:href="#DejaVuSans-34" transform="translate(95.410156 0)"/>
      </g>
     </g>
    </g>
    <g id="ytick_4">
     <g id="line2d_17">
      <path d="M 43.78125 141.692398 
L 543.80125 141.692398 
" clip-path="url(#p71a2049bd8)" style="fill: none; stroke: #b0b0b0; stroke-width: 0.8; stroke-linecap: square"/>
     </g>
     <g id="line2d_18">
      <g>
       <use xlink:href="#m613e576110" x="43.78125" y="141.692398" style="stroke: #000000; stroke-width: 0.8"/>
      </g>
     </g>
     <g id="text_10">
      <!-- 0.6 -->
      <g transform="translate(20.878125 145.491617) scale(0.1 -0.1)">
       <defs>
        <path id="DejaVuSans-36" d="M 2113 2584 
Q 1688 2584 1439 2293 
Q 1191 2003 1191 1497 
Q 1191 994 1439 701 
Q 1688 409 2113 409 
Q 2538 409 2786 701 
Q 3034 994 3034 1497 
Q 3034 2003 2786 2293 
Q 2538 2584 2113 2584 
z
M 3366 4563 
L 3366 3988 
Q 3128 4100 2886 4159 
Q 2644 4219 2406 4219 
Q 1781 4219 1451 3797 
Q 1122 3375 1075 2522 
Q 1259 2794 1537 2939 
Q 1816 3084 2150 3084 
Q 2853 3084 3261 2657 
Q 3669 2231 3669 1497 
Q 3669 778 3244 343 
Q 2819 -91 2113 -91 
Q 1303 -91 875 529 
Q 447 1150 447 2328 
Q 447 3434 972 4092 
Q 1497 4750 2381 4750 
Q 2619 4750 2861 4703 
Q 3103 4656 3366 4563 
z
" transform="scale(0.015625)"/>
       </defs>
       <use xlink:href="#DejaVuSans-30"/>
       <use xlink:href="#DejaVuSans-2e" transform="translate(63.623047 0)"/>
       <use xlink:href="#DejaVuSans-36" transform="translate(95.410156 0)"/>
      </g>
     </g>
    </g>
    <g id="ytick_5">
     <g id="line2d_19">
      <path d="M 43.78125 63.427501 
L 543.80125 63.427501 
" clip-path="url(#p71a2049bd8)" style="fill: none; stroke: #b0b0b0; stroke-width: 0.8; stroke-linecap: square"/>
     </g>
     <g id="line2d_20">
      <g>
       <use xlink:href="#m613e576110" x="43.78125" y="63.427501" style="stroke: #000000; stroke-width: 0.8"/>
      </g>
     </g>
     <g id="text_11">
      <!-- 0.8 -->
      <g transform="translate(20.878125 67.22672) scale(0.1 -0.1)">
       <defs>
        <path id="DejaVuSans-38" d="M 2034 2216 
Q 1584 2216 1326 1975 
Q 1069 1734 1069 1313 
Q 1069 891 1326 650 
Q 1584 409 2034 409 
Q 2484 409 2743 651 
Q 3003 894 3003 1313 
Q 3003 1734 2745 1975 
Q 2488 2216 2034 2216 
z
M 1403 2484 
Q 997 2584 770 2862 
Q 544 3141 544 3541 
Q 544 4100 942 4425 
Q 1341 4750 2034 4750 
Q 2731 4750 3128 4425 
Q 3525 4100 3525 3541 
Q 3525 3141 3298 2862 
Q 3072 2584 2669 2484 
Q 3125 2378 3379 2068 
Q 3634 1759 3634 1313 
Q 3634 634 3220 271 
Q 2806 -91 2034 -91 
Q 1263 -91 848 271 
Q 434 634 434 1313 
Q 434 1759 690 2068 
Q 947 2378 1403 2484 
z
M 1172 3481 
Q 1172 3119 1398 2916 
Q 1625 2713 2034 2713 
Q 2441 2713 2670 2916 
Q 2900 3119 2900 3481 
Q 2900 3844 2670 4047 
Q 2441 4250 2034 4250 
Q 1625 4250 1398 4047 
Q 1172 3844 1172 3481 
z
" transform="scale(0.015625)"/>
       </defs>
       <use xlink:href="#DejaVuSans-30"/>
       <use xlink:href="#DejaVuSans-2e" transform="translate(63.623047 0)"/>
       <use xlink:href="#DejaVuSans-38" transform="translate(95.410156 0)"/>
      </g>
     </g>
    </g>
    <g id="text_12">
     <!-- Score -->
     <g transform="translate(14.798438 217.849844) rotate(-90) scale(0.1 -0.1)">
      <defs>
       <path id="DejaVuSans-53" d="M 3425 4513 
L 3425 3897 
Q 3066 4069 2747 4153 
Q 2428 4238 2131 4238 
Q 1616 4238 1336 4038 
Q 1056 3838 1056 3469 
Q 1056 3159 1242 3001 
Q 1428 2844 1947 2747 
L 2328 2669 
Q 3034 2534 3370 2195 
Q 3706 1856 3706 1288 
Q 3706 609 3251 259 
Q 2797 -91 1919 -91 
Q 1588 -91 1214 -16 
Q 841 59 441 206 
L 441 856 
Q 825 641 1194 531 
Q 1563 422 1919 422 
Q 2459 422 2753 634 
Q 3047 847 3047 1241 
Q 3047 1584 2836 1778 
Q 2625 1972 2144 2069 
L 1759 2144 
Q 1053 2284 737 2584 
Q 422 2884 422 3419 
Q 422 4038 858 4394 
Q 1294 4750 2059 4750 
Q 2388 4750 2728 4690 
Q 3069 4631 3425 4513 
z
" transform="scale(0.015625)"/>
       <path id="DejaVuSans-6f" d="M 1959 3097 
Q 1497 3097 1228 2736 
Q 959 2375 959 1747 
Q 959 1119 1226 758 
Q 1494 397 1959 397 
Q 2419 397 2687 759 
Q 2956 1122 2956 1747 
Q 2956 2369 2687 2733 
Q 2419 3097 1959 3097 
z
M 1959 3584 
Q 2709 3584 3137 3096 
Q 3566 2609 3566 1747 
Q 3566 888 3137 398 
Q 2709 -91 1959 -91 
Q 1206 -91 779 398 
Q 353 888 353 1747 
Q 353 2609 779 3096 
Q 1206 3584 1959 3584 
z
" transform="scale(0.015625)"/>
       <path id="DejaVuSans-72" d="M 2631 2963 
Q 2534 3019 2420 3045 
Q 2306 3072 2169 3072 
Q 1681 3072 1420 2755 
Q 1159 2438 1159 1844 
L 1159 0 
L 581 0 
L 581 3500 
L 1159 3500 
L 1159 2956 
Q 1341 3275 1631 3429 
Q 1922 3584 2338 3584 
Q 2397 3584 2469 3576 
Q 2541 3569 2628 3553 
L 2631 2963 
z
" transform="scale(0.015625)"/>
       <path id="DejaVuSans-65" d="M 3597 1894 
L 3597 1613 
L 953 1613 
Q 991 1019 1311 708 
Q 1631 397 2203 397 
Q 2534 397 2845 478 
Q 3156 559 3463 722 
L 3463 178 
Q 3153 47 2828 -22 
Q 2503 -91 2169 -91 
Q 1331 -91 842 396 
Q 353 884 353 1716 
Q 353 2575 817 3079 
Q 1281 3584 2069 3584 
Q 2775 3584 3186 3129 
Q 3597 2675 3597 1894 
z
M 3022 2063 
Q 3016 2534 2758 2815 
Q 2500 3097 2075 3097 
Q 1594 3097 1305 2825 
Q 1016 2553 972 2059 
L 3022 2063 
z
" transform="scale(0.015625)"/>
      </defs>
      <use xlink:href="#DejaVuSans-53"/>
      <use xlink:href="#DejaVuSans-63" transform="translate(63.476562 0)"/>
      <use xlink:href="#DejaVuSans-6f" transform="translate(118.457031 0)"/>
      <use xlink:href="#DejaVuSans-72" transform="translate(179.638672 0)"/>
      <use xlink:href="#DejaVuSans-65" transform="translate(218.501953 0)"/>
     </g>
    </g>
   </g>
   <g id="line2d_21">
    <path d="M 66.509432 349.321615 
L 180.150341 354.111136 
L 293.79125 252.615172 
L 407.432159 319.025703 
L 521.073068 335.403498 
" clip-path="url(#p71a2049bd8)" style="fill: none; stroke-dasharray: 5.55,2.4; stroke-dashoffset: 0; stroke: #de8f05; stroke-width: 1.5"/>
    <defs>
     <path id="mb140684763" d="M -3 3 
L 3 3 
L 3 -3 
L -3 -3 
z
" style="stroke: #de8f05; stroke-linejoin: miter"/>
    </defs>
    <g clip-path="url(#p71a2049bd8)">
     <use xlink:href="#mb140684763" x="66.509432" y="349.321615" style="fill: #de8f05; stroke: #de8f05; stroke-linejoin: miter"/>
     <use xlink:href="#mb140684763" x="180.150341" y="354.111136" style="fill: #de8f05; stroke: #de8f05; stroke-linejoin: miter"/>
     <use xlink:href="#mb140684763" x="293.79125" y="252.615172" style="fill: #de8f05; stroke: #de8f05; stroke-linejoin: miter"/>
     <use xlink:href="#mb140684763" x="407.432159" y="319.025703" style="fill: #de8f05; stroke: #de8f05; stroke-linejoin: miter"/>
     <use xlink:href="#mb140684763" x="521.073068" y="335.403498" style="fill: #de8f05; stroke: #de8f05; stroke-linejoin: miter"/>
    </g>
   </g>
   <g id="line2d_22">
    <path d="M 66.509432 308.099739 
L 180.150341 295.417011 
L 293.79125 220.046256 
L 407.432159 283.914888 
L 521.073068 299.231618 
" clip-path="url(#p71a2049bd8)" style="fill: none; stroke-dasharray: 9.6,2.4,1.5,2.4; stroke-dashoffset: 0; stroke: #029e73; stroke-width: 1.5"/>
    <defs>
     <path id="m4a9cd088c9" d="M 0 -3 
L -3 3 
L 3 3 
z
" style="stroke: #029e73; stroke-linejoin: miter"/>
    </defs>
    <g clip-path="url(#p71a2049bd8)">
     <use xlink:href="#m4a9cd088c9" x="66.509432" y="308.099739" style="fill: #029e73; stroke: #029e73; stroke-linejoin: miter"/>
     <use xlink:href="#m4a9cd088c9" x="180.150341" y="295.417011" style="fill: #029e73; stroke: #029e73; stroke-linejoin: miter"/>
     <use xlink:href="#m4a9cd088c9" x="293.79125" y="220.046256" style="fill: #029e73; stroke: #029e73; stroke-linejoin: miter"/>
     <use xlink:href="#m4a9cd088c9" x="407.432159" y="283.914888" style="fill: #029e73; stroke: #029e73; stroke-linejoin: miter"/>
     <use xlink:href="#m4a9cd088c9" x="521.073068" y="299.231618" style="fill: #029e73; stroke: #029e73; stroke-linejoin: miter"/>
    </g>
   </g>
   <g id="line2d_23">
    <path d="M 66.509432 221.224742 
L 180.150341 220.994584 
L 293.79125 155.332132 
L 407.432159 200.599178 
L 521.073068 220.629931 
" clip-path="url(#p71a2049bd8)" style="fill: none; stroke-dasharray: 1.5,2.475; stroke-dashoffset: 0; stroke: #d55e00; stroke-width: 1.5"/>
    <defs>
     <path id="md814678ef5" d="M -0 4.242641 
L 4.242641 0 
L 0 -4.242641 
L -4.242641 -0 
z
" style="stroke: #d55e00; stroke-linejoin: miter"/>
    </defs>
    <g clip-path="url(#p71a2049bd8)">
     <use xlink:href="#md814678ef5" x="66.509432" y="221.224742" style="fill: #d55e00; stroke: #d55e00; stroke-linejoin: miter"/>
     <use xlink:href="#md814678ef5" x="180.150341" y="220.994584" style="fill: #d55e00; stroke: #d55e00; stroke-linejoin: miter"/>
     <use xlink:href="#md814678ef5" x="293.79125" y="155.332132" style="fill: #d55e00; stroke: #d55e00; stroke-linejoin: miter"/>
     <use xlink:href="#md814678ef5" x="407.432159" y="200.599178" style="fill: #d55e00; stroke: #d55e00; stroke-linejoin: miter"/>
     <use xlink:href="#md814678ef5" x="521.073068" y="220.629931" style="fill: #d55e00; stroke: #d55e00; stroke-linejoin: miter"/>
    </g>
   </g>
   <g id="line2d_24">
    <path d="M 66.509432 338.40198 
L 180.150341 331.067469 
L 293.79125 243.004613 
L 407.432159 302.225376 
L 521.073068 317.540347 
" clip-path="url(#p71a2049bd8)" style="fill: none; stroke: #cc78bc; stroke-width: 1.5; stroke-linecap: square"/>
    <defs>
     <path id="m44076389b4" d="M -0 3 
L 3 -3 
L -3 -3 
z
" style="stroke: #cc78bc; stroke-linejoin: miter"/>
    </defs>
    <g clip-path="url(#p71a2049bd8)">
     <use xlink:href="#m44076389b4" x="66.509432" y="338.40198" style="fill: #cc78bc; stroke: #cc78bc; stroke-linejoin: miter"/>
     <use xlink:href="#m44076389b4" x="180.150341" y="331.067469" style="fill: #cc78bc; stroke: #cc78bc; stroke-linejoin: miter"/>
     <use xlink:href="#m44076389b4" x="293.79125" y="243.004613" style="fill: #cc78bc; stroke: #cc78bc; stroke-linejoin: miter"/>
     <use xlink:href="#m44076389b4" x="407.432159" y="302.225376" style="fill: #cc78bc; stroke: #cc78bc; stroke-linejoin: miter"/>
     <use xlink:href="#m44076389b4" x="521.073068" y="317.540347" style="fill: #cc78bc; stroke: #cc78bc; stroke-linejoin: miter"/>
    </g>
   </g>
   <g id="line2d_25">
    <path d="M 66.509432 301.707672 
L 180.150341 294.127626 
L 293.79125 236.593135 
L 407.432159 282.990103 
L 521.073068 290.478838 
" clip-path="url(#p71a2049bd8)" style="fill: none; stroke-dasharray: 5.55,2.4; stroke-dashoffset: 0; stroke: #ca9161; stroke-width: 1.5"/>
    <defs>
     <path id="m962853acc1" d="M -1 3 
L 1 3 
L 1 1 
L 3 1 
L 3 -1 
L 1 -1 
L 1 -3 
L -1 -3 
L -1 -1 
L -3 -1 
L -3 1 
L -1 1 
z
" style="stroke: #ca9161; stroke-linejoin: miter"/>
    </defs>
    <g clip-path="url(#p71a2049bd8)">
     <use xlink:href="#m962853acc1" x="66.509432" y="301.707672" style="fill: #ca9161; stroke: #ca9161; stroke-linejoin: miter"/>
     <use xlink:href="#m962853acc1" x="180.150341" y="294.127626" style="fill: #ca9161; stroke: #ca9161; stroke-linejoin: miter"/>
     <use xlink:href="#m962853acc1" x="293.79125" y="236.593135" style="fill: #ca9161; stroke: #ca9161; stroke-linejoin: miter"/>
     <use xlink:href="#m962853acc1" x="407.432159" y="282.990103" style="fill: #ca9161; stroke: #ca9161; stroke-linejoin: miter"/>
     <use xlink:href="#m962853acc1" x="521.073068" y="290.478838" style="fill: #ca9161; stroke: #ca9161; stroke-linejoin: miter"/>
    </g>
   </g>
   <g id="line2d_26">
    <path d="M 66.509432 301.707672 
L 180.150341 294.127626 
L 293.79125 236.593135 
L 407.432159 282.990103 
L 521.073068 290.478838 
" clip-path="url(#p71a2049bd8)" style="fill: none; stroke-dasharray: 9.6,2.4,1.5,2.4; stroke-dashoffset: 0; stroke: #fbafe4; stroke-width: 1.5"/>
    <defs>
     <path id="m6a2a3ec13c" d="M 0 -3 
L -0.673542 -0.927051 
L -2.85317 -0.927051 
L -1.089814 0.354102 
L -1.763356 2.427051 
L -0 1.145898 
L 1.763356 2.427051 
L 1.089814 0.354102 
L 2.85317 -0.927051 
L 0.673542 -0.927051 
z
" style="stroke: #fbafe4; stroke-linejoin: bevel"/>
    </defs>
    <g clip-path="url(#p71a2049bd8)">
     <use xlink:href="#m6a2a3ec13c" x="66.509432" y="301.707672" style="fill: #fbafe4; stroke: #fbafe4; stroke-linejoin: bevel"/>
     <use xlink:href="#m6a2a3ec13c" x="180.150341" y="294.127626" style="fill: #fbafe4; stroke: #fbafe4; stroke-linejoin: bevel"/>
     <use xlink:href="#m6a2a3ec13c" x="293.79125" y="236.593135" style="fill: #fbafe4; stroke: #fbafe4; stroke-linejoin: bevel"/>
     <use xlink:href="#m6a2a3ec13c" x="407.432159" y="282.990103" style="fill: #fbafe4; stroke: #fbafe4; stroke-linejoin: bevel"/>
     <use xlink:href="#m6a2a3ec13c" x="521.073068" y="290.478838" style="fill: #fbafe4; stroke: #fbafe4; stroke-linejoin: bevel"/>
    </g>
   </g>
   <g id="line2d_27">
    <path d="M 66.509432 72.64586 
L 180.150341 93.14291 
L 293.79125 54.156699 
L 407.432159 80.13348 
L 521.073068 76.648626 
" clip-path="url(#p71a2049bd8)" style="fill: none; stroke-dasharray: 1.5,2.475; stroke-dashoffset: 0; stroke: #949494; stroke-width: 1.5"/>
    <defs>
     <path id="m5a923eaac5" d="M -1.5 3 
L 0 1.5 
L 1.5 3 
L 3 1.5 
L 1.5 0 
L 3 -1.5 
L 1.5 -3 
L 0 -1.5 
L -1.5 -3 
L -3 -1.5 
L -1.5 0 
L -3 1.5 
z
" style="stroke: #949494; stroke-linejoin: miter"/>
    </defs>
    <g clip-path="url(#p71a2049bd8)">
     <use xlink:href="#m5a923eaac5" x="66.509432" y="72.64586" style="fill: #949494; stroke: #949494; stroke-linejoin: miter"/>
     <use xlink:href="#m5a923eaac5" x="180.150341" y="93.14291" style="fill: #949494; stroke: #949494; stroke-linejoin: miter"/>
     <use xlink:href="#m5a923eaac5" x="293.79125" y="54.156699" style="fill: #949494; stroke: #949494; stroke-linejoin: miter"/>
     <use xlink:href="#m5a923eaac5" x="407.432159" y="80.13348" style="fill: #949494; stroke: #949494; stroke-linejoin: miter"/>
     <use xlink:href="#m5a923eaac5" x="521.073068" y="76.648626" style="fill: #949494; stroke: #949494; stroke-linejoin: miter"/>
    </g>
   </g>
   <g id="line2d_28">
    <path d="M 66.509432 87.716009 
L 180.150341 93.52076 
L 293.79125 56.515485 
L 407.432159 81.855314 
L 521.073068 81.78353 
" clip-path="url(#p71a2049bd8)" style="fill: none; stroke: #ece133; stroke-width: 1.5; stroke-linecap: square"/>
    <defs>
     <path id="m56077c103c" d="M -3 -0 
L 3 3 
L 3 -3 
z
" style="stroke: #ece133; stroke-linejoin: miter"/>
    </defs>
    <g clip-path="url(#p71a2049bd8)">
     <use xlink:href="#m56077c103c" x="66.509432" y="87.716009" style="fill: #ece133; stroke: #ece133; stroke-linejoin: miter"/>
     <use xlink:href="#m56077c103c" x="180.150341" y="93.52076" style="fill: #ece133; stroke: #ece133; stroke-linejoin: miter"/>
     <use xlink:href="#m56077c103c" x="293.79125" y="56.515485" style="fill: #ece133; stroke: #ece133; stroke-linejoin: miter"/>
     <use xlink:href="#m56077c103c" x="407.432159" y="81.855314" style="fill: #ece133; stroke: #ece133; stroke-linejoin: miter"/>
     <use xlink:href="#m56077c103c" x="521.073068" y="81.78353" style="fill: #ece133; stroke: #ece133; stroke-linejoin: miter"/>
    </g>
   </g>
   <g id="line2d_29">
    <path d="M 66.509432 80.372536 
L 180.150341 93.345182 
L 293.79125 55.349231 
L 407.432159 81.038644 
L 521.073068 79.282313 
" clip-path="url(#p71a2049bd8)" style="fill: none; stroke-dasharray: 5.55,2.4; stroke-dashoffset: 0; stroke: #56b4e9; stroke-width: 1.5"/>
    <defs>
     <path id="m0ce584b3d3" d="M 3 0 
L -3 -3 
L -3 3 
z
" style="stroke: #56b4e9; stroke-linejoin: miter"/>
    </defs>
    <g clip-path="url(#p71a2049bd8)">
     <use xlink:href="#m0ce584b3d3" x="66.509432" y="80.372536" style="fill: #56b4e9; stroke: #56b4e9; stroke-linejoin: miter"/>
     <use xlink:href="#m0ce584b3d3" x="180.150341" y="93.345182" style="fill: #56b4e9; stroke: #56b4e9; stroke-linejoin: miter"/>
     <use xlink:href="#m0ce584b3d3" x="293.79125" y="55.349231" style="fill: #56b4e9; stroke: #56b4e9; stroke-linejoin: miter"/>
     <use xlink:href="#m0ce584b3d3" x="407.432159" y="81.038644" style="fill: #56b4e9; stroke: #56b4e9; stroke-linejoin: miter"/>
     <use xlink:href="#m0ce584b3d3" x="521.073068" y="79.282313" style="fill: #56b4e9; stroke: #56b4e9; stroke-linejoin: miter"/>
    </g>
   </g>
   <g id="line2d_30">
    <path d="M 66.509432 305.187329 
L 180.150341 302.364069 
L 293.79125 253.235594 
L 407.432159 284.658862 
L 521.073068 301.270115 
" clip-path="url(#p71a2049bd8)" style="fill: none; stroke-dasharray: 9.6,2.4,1.5,2.4; stroke-dashoffset: 0; stroke: #0173b2; stroke-width: 1.5"/>
    <defs>
     <path id="ma11d0ee6b9" d="M -1.5 -2.598076 
L -3 -0 
L -1.5 2.598076 
L 1.5 2.598076 
L 3 0 
L 1.5 -2.598076 
z
" style="stroke: #0173b2; stroke-linejoin: miter"/>
    </defs>
    <g clip-path="url(#p71a2049bd8)">
     <use xlink:href="#ma11d0ee6b9" x="66.509432" y="305.187329" style="fill: #0173b2; stroke: #0173b2; stroke-linejoin: miter"/>
     <use xlink:href="#ma11d0ee6b9" x="180.150341" y="302.364069" style="fill: #0173b2; stroke: #0173b2; stroke-linejoin: miter"/>
     <use xlink:href="#ma11d0ee6b9" x="293.79125" y="253.235594" style="fill: #0173b2; stroke: #0173b2; stroke-linejoin: miter"/>
     <use xlink:href="#ma11d0ee6b9" x="407.432159" y="284.658862" style="fill: #0173b2; stroke: #0173b2; stroke-linejoin: miter"/>
     <use xlink:href="#ma11d0ee6b9" x="521.073068" y="301.270115" style="fill: #0173b2; stroke: #0173b2; stroke-linejoin: miter"/>
    </g>
   </g>
   <g id="line2d_31">
    <path d="M 66.509432 99.805644 
L 180.150341 147.352807 
L 293.79125 92.129949 
L 407.432159 100.746329 
L 521.073068 117.125757 
" clip-path="url(#p71a2049bd8)" style="fill: none; stroke-dasharray: 1.5,2.475; stroke-dashoffset: 0; stroke: #de8f05; stroke-width: 1.5"/>
    <defs>
     <path id="m314eff2b0e" d="M 0 3 
L 0 -3 
" style="stroke: #de8f05"/>
    </defs>
    <g clip-path="url(#p71a2049bd8)">
     <use xlink:href="#m314eff2b0e" x="66.509432" y="99.805644" style="fill: #de8f05; stroke: #de8f05"/>
     <use xlink:href="#m314eff2b0e" x="180.150341" y="147.352807" style="fill: #de8f05; stroke: #de8f05"/>
     <use xlink:href="#m314eff2b0e" x="293.79125" y="92.129949" style="fill: #de8f05; stroke: #de8f05"/>
     <use xlink:href="#m314eff2b0e" x="407.432159" y="100.746329" style="fill: #de8f05; stroke: #de8f05"/>
     <use xlink:href="#m314eff2b0e" x="521.073068" y="117.125757" style="fill: #de8f05; stroke: #de8f05"/>
    </g>
   </g>
   <g id="line2d_32">
    <path d="M 66.509432 129.145476 
L 180.150341 145.945146 
L 293.79125 102.277392 
L 407.432159 125.686526 
L 521.073068 131.222068 
" clip-path="url(#p71a2049bd8)" style="fill: none; stroke: #029e73; stroke-width: 1.5; stroke-linecap: square"/>
    <defs>
     <path id="meeb2eea592" d="M 3 0 
L -3 -0 
" style="stroke: #029e73"/>
    </defs>
    <g clip-path="url(#p71a2049bd8)">
     <use xlink:href="#meeb2eea592" x="66.509432" y="129.145476" style="fill: #029e73; stroke: #029e73"/>
     <use xlink:href="#meeb2eea592" x="180.150341" y="145.945146" style="fill: #029e73; stroke: #029e73"/>
     <use xlink:href="#meeb2eea592" x="293.79125" y="102.277392" style="fill: #029e73; stroke: #029e73"/>
     <use xlink:href="#meeb2eea592" x="407.432159" y="125.686526" style="fill: #029e73; stroke: #029e73"/>
     <use xlink:href="#meeb2eea592" x="521.073068" y="131.222068" style="fill: #029e73; stroke: #029e73"/>
    </g>
   </g>
   <g id="line2d_33">
    <path d="M 66.509432 290.751343 
L 180.150341 289.744448 
L 293.79125 214.846813 
L 407.432159 267.538328 
L 521.073068 282.170756 
" clip-path="url(#p71a2049bd8)" style="fill: none; stroke-dasharray: 5.55,2.4; stroke-dashoffset: 0; stroke: #d55e00; stroke-width: 1.5"/>
    <defs>
     <path id="m6557d006ab" d="M 0 3 
C 0.795609 3 1.55874 2.683901 2.12132 2.12132 
C 2.683901 1.55874 3 0.795609 3 0 
C 3 -0.795609 2.683901 -1.55874 2.12132 -2.12132 
C 1.55874 -2.683901 0.795609 -3 0 -3 
C -0.795609 -3 -1.55874 -2.683901 -2.12132 -2.12132 
C -2.683901 -1.55874 -3 -0.795609 -3 0 
C -3 0.795609 -2.683901 1.55874 -2.12132 2.12132 
C -1.55874 2.683901 -0.795609 3 0 3 
z
" style="stroke: #d55e00"/>
    </defs>
    <g clip-path="url(#p71a2049bd8)">
     <use xlink:href="#m6557d006ab" x="66.509432" y="290.751343" style="fill: #d55e00; stroke: #d55e00"/>
     <use xlink:href="#m6557d006ab" x="180.150341" y="289.744448" style="fill: #d55e00; stroke: #d55e00"/>
     <use xlink:href="#m6557d006ab" x="293.79125" y="214.846813" style="fill: #d55e00; stroke: #d55e00"/>
     <use xlink:href="#m6557d006ab" x="407.432159" y="267.538328" style="fill: #d55e00; stroke: #d55e00"/>
     <use xlink:href="#m6557d006ab" x="521.073068" y="282.170756" style="fill: #d55e00; stroke: #d55e00"/>
    </g>
   </g>
   <g id="line2d_34">
    <path d="M 66.509432 214.88122 
L 180.150341 232.687785 
L 293.79125 263.917666 
L 407.432159 234.635285 
L 521.073068 225.5384 
" clip-path="url(#p71a2049bd8)" style="fill: none; stroke-dasharray: 9.6,2.4,1.5,2.4; stroke-dashoffset: 0; stroke: #cc78bc; stroke-width: 1.5"/>
    <defs>
     <path id="mee0b5db8d7" d="M -3 3 
L 3 3 
L 3 -3 
L -3 -3 
z
" style="stroke: #cc78bc; stroke-linejoin: miter"/>
    </defs>
    <g clip-path="url(#p71a2049bd8)">
     <use xlink:href="#mee0b5db8d7" x="66.509432" y="214.88122" style="fill: #cc78bc; stroke: #cc78bc; stroke-linejoin: miter"/>
     <use xlink:href="#mee0b5db8d7" x="180.150341" y="232.687785" style="fill: #cc78bc; stroke: #cc78bc; stroke-linejoin: miter"/>
     <use xlink:href="#mee0b5db8d7" x="293.79125" y="263.917666" style="fill: #cc78bc; stroke: #cc78bc; stroke-linejoin: miter"/>
     <use xlink:href="#mee0b5db8d7" x="407.432159" y="234.635285" style="fill: #cc78bc; stroke: #cc78bc; stroke-linejoin: miter"/>
     <use xlink:href="#mee0b5db8d7" x="521.073068" y="225.5384" style="fill: #cc78bc; stroke: #cc78bc; stroke-linejoin: miter"/>
    </g>
   </g>
   <g id="patch_3">
    <path d="M 43.78125 385.376875 
L 43.78125 22.318125 
" style="fill: none; stroke: #000000; stroke-width: 0.8; stroke-linejoin: miter; stroke-linecap: square"/>
   </g>
   <g id="patch_4">
    <path d="M 543.80125 385.376875 
L 543.80125 22.318125 
" style="fill: none; stroke: #000000; stroke-width: 0.8; stroke-linejoin: miter; stroke-linecap: square"/>
   </g>
   <g id="patch_5">
    <path d="M 43.78125 385.376875 
L 543.80125 385.376875 
" style="fill: none; stroke: #000000; stroke-width: 0.8; stroke-linejoin: miter; stroke-linecap: square"/>
   </g>
   <g id="patch_6">
    <path d="M 43.78125 22.318125 
L 543.80125 22.318125 
" style="fill: none; stroke: #000000; stroke-width: 0.8; stroke-linejoin: miter; stroke-linecap: square"/>
   </g>
   <g id="text_13">
    <!-- Metrics for paraphraser: qwen3-32b -->
    <g transform="translate(185.820312 16.318125) scale(0.12 -0.12)">
     <defs>
      <path id="DejaVuSans-4d" d="M 628 4666 
L 1569 4666 
L 2759 1491 
L 3956 4666 
L 4897 4666 
L 4897 0 
L 4281 0 
L 4281 4097 
L 3078 897 
L 2444 897 
L 1241 4097 
L 1241 0 
L 628 0 
L 628 4666 
z
" transform="scale(0.015625)"/>
      <path id="DejaVuSans-74" d="M 1172 4494 
L 1172 3500 
L 2356 3500 
L 2356 3053 
L 1172 3053 
L 1172 1153 
Q 1172 725 1289 603 
Q 1406 481 1766 481 
L 2356 481 
L 2356 0 
L 1766 0 
Q 1100 0 847 248 
Q 594 497 594 1153 
L 594 3053 
L 172 3053 
L 172 3500 
L 594 3500 
L 594 4494 
L 1172 4494 
z
" transform="scale(0.015625)"/>
      <path id="DejaVuSans-69" d="M 603 3500 
L 1178 3500 
L 1178 0 
L 603 0 
L 603 3500 
z
M 603 4863 
L 1178 4863 
L 1178 4134 
L 603 4134 
L 603 4863 
z
" transform="scale(0.015625)"/>
      <path id="DejaVuSans-20" transform="scale(0.015625)"/>
      <path id="DejaVuSans-66" d="M 2375 4863 
L 2375 4384 
L 1825 4384 
Q 1516 4384 1395 4259 
Q 1275 4134 1275 3809 
L 1275 3500 
L 2222 3500 
L 2222 3053 
L 1275 3053 
L 1275 0 
L 697 0 
L 697 3053 
L 147 3053 
L 147 3500 
L 697 3500 
L 697 3744 
Q 697 4328 969 4595 
Q 1241 4863 1831 4863 
L 2375 4863 
z
" transform="scale(0.015625)"/>
      <path id="DejaVuSans-70" d="M 1159 525 
L 1159 -1331 
L 581 -1331 
L 581 3500 
L 1159 3500 
L 1159 2969 
Q 1341 3281 1617 3432 
Q 1894 3584 2278 3584 
Q 2916 3584 3314 3078 
Q 3713 2572 3713 1747 
Q 3713 922 3314 415 
Q 2916 -91 2278 -91 
Q 1894 -91 1617 61 
Q 1341 213 1159 525 
z
M 3116 1747 
Q 3116 2381 2855 2742 
Q 2594 3103 2138 3103 
Q 1681 3103 1420 2742 
Q 1159 2381 1159 1747 
Q 1159 1113 1420 752 
Q 1681 391 2138 391 
Q 2594 391 2855 752 
Q 3116 1113 3116 1747 
z
" transform="scale(0.015625)"/>
      <path id="DejaVuSans-61" d="M 2194 1759 
Q 1497 1759 1228 1600 
Q 959 1441 959 1056 
Q 959 750 1161 570 
Q 1363 391 1709 391 
Q 2188 391 2477 730 
Q 2766 1069 2766 1631 
L 2766 1759 
L 2194 1759 
z
M 3341 1997 
L 3341 0 
L 2766 0 
L 2766 531 
Q 2569 213 2275 61 
Q 1981 -91 1556 -91 
Q 1019 -91 701 211 
Q 384 513 384 1019 
Q 384 1609 779 1909 
Q 1175 2209 1959 2209 
L 2766 2209 
L 2766 2266 
Q 2766 2663 2505 2880 
Q 2244 3097 1772 3097 
Q 1472 3097 1187 3025 
Q 903 2953 641 2809 
L 641 3341 
Q 956 3463 1253 3523 
Q 1550 3584 1831 3584 
Q 2591 3584 2966 3190 
Q 3341 2797 3341 1997 
z
" transform="scale(0.015625)"/>
      <path id="DejaVuSans-3a" d="M 750 794 
L 1409 794 
L 1409 0 
L 750 0 
L 750 794 
z
M 750 3309 
L 1409 3309 
L 1409 2516 
L 750 2516 
L 750 3309 
z
" transform="scale(0.015625)"/>
      <path id="DejaVuSans-71" d="M 947 1747 
Q 947 1113 1208 752 
Q 1469 391 1925 391 
Q 2381 391 2643 752 
Q 2906 1113 2906 1747 
Q 2906 2381 2643 2742 
Q 2381 3103 1925 3103 
Q 1469 3103 1208 2742 
Q 947 2381 947 1747 
z
M 2906 525 
Q 2725 213 2448 61 
Q 2172 -91 1784 -91 
Q 1150 -91 751 415 
Q 353 922 353 1747 
Q 353 2572 751 3078 
Q 1150 3584 1784 3584 
Q 2172 3584 2448 3432 
Q 2725 3281 2906 2969 
L 2906 3500 
L 3481 3500 
L 3481 -1331 
L 2906 -1331 
L 2906 525 
z
" transform="scale(0.015625)"/>
      <path id="DejaVuSans-77" d="M 269 3500 
L 844 3500 
L 1563 769 
L 2278 3500 
L 2956 3500 
L 3675 769 
L 4391 3500 
L 4966 3500 
L 4050 0 
L 3372 0 
L 2619 2869 
L 1863 0 
L 1184 0 
L 269 3500 
z
" transform="scale(0.015625)"/>
      <path id="DejaVuSans-2d" d="M 313 2009 
L 1997 2009 
L 1997 1497 
L 313 1497 
L 313 2009 
z
" transform="scale(0.015625)"/>
      <path id="DejaVuSans-62" d="M 3116 1747 
Q 3116 2381 2855 2742 
Q 2594 3103 2138 3103 
Q 1681 3103 1420 2742 
Q 1159 2381 1159 1747 
Q 1159 1113 1420 752 
Q 1681 391 2138 391 
Q 2594 391 2855 752 
Q 3116 1113 3116 1747 
z
M 1159 2969 
Q 1341 3281 1617 3432 
Q 1894 3584 2278 3584 
Q 2916 3584 3314 3078 
Q 3713 2572 3713 1747 
Q 3713 922 3314 415 
Q 2916 -91 2278 -91 
Q 1894 -91 1617 61 
Q 1341 213 1159 525 
L 1159 0 
L 581 0 
L 581 4863 
L 1159 4863 
L 1159 2969 
z
" transform="scale(0.015625)"/>
     </defs>
     <use xlink:href="#DejaVuSans-4d"/>
     <use xlink:href="#DejaVuSans-65" transform="translate(86.279297 0)"/>
     <use xlink:href="#DejaVuSans-74" transform="translate(147.802734 0)"/>
     <use xlink:href="#DejaVuSans-72" transform="translate(187.011719 0)"/>
     <use xlink:href="#DejaVuSans-69" transform="translate(228.125 0)"/>
     <use xlink:href="#DejaVuSans-63" transform="translate(255.908203 0)"/>
     <use xlink:href="#DejaVuSans-73" transform="translate(310.888672 0)"/>
     <use xlink:href="#DejaVuSans-20" transform="translate(362.988281 0)"/>
     <use xlink:href="#DejaVuSans-66" transform="translate(394.775391 0)"/>
     <use xlink:href="#DejaVuSans-6f" transform="translate(429.980469 0)"/>
     <use xlink:href="#DejaVuSans-72" transform="translate(491.162109 0)"/>
     <use xlink:href="#DejaVuSans-20" transform="translate(532.275391 0)"/>
     <use xlink:href="#DejaVuSans-70" transform="translate(564.0625 0)"/>
     <use xlink:href="#DejaVuSans-61" transform="translate(627.539062 0)"/>
     <use xlink:href="#DejaVuSans-72" transform="translate(688.818359 0)"/>
     <use xlink:href="#DejaVuSans-61" transform="translate(729.931641 0)"/>
     <use xlink:href="#DejaVuSans-70" transform="translate(791.210938 0)"/>
     <use xlink:href="#DejaVuSans-68" transform="translate(854.6875 0)"/>
     <use xlink:href="#DejaVuSans-72" transform="translate(918.066406 0)"/>
     <use xlink:href="#DejaVuSans-61" transform="translate(959.179688 0)"/>
     <use xlink:href="#DejaVuSans-73" transform="translate(1020.458984 0)"/>
     <use xlink:href="#DejaVuSans-65" transform="translate(1072.558594 0)"/>
     <use xlink:href="#DejaVuSans-72" transform="translate(1134.082031 0)"/>
     <use xlink:href="#DejaVuSans-3a" transform="translate(1173.445312 0)"/>
     <use xlink:href="#DejaVuSans-20" transform="translate(1207.136719 0)"/>
     <use xlink:href="#DejaVuSans-71" transform="translate(1238.923828 0)"/>
     <use xlink:href="#DejaVuSans-77" transform="translate(1302.400391 0)"/>
     <use xlink:href="#DejaVuSans-65" transform="translate(1384.1875 0)"/>
     <use xlink:href="#DejaVuSans-6e" transform="translate(1445.710938 0)"/>
     <use xlink:href="#DejaVuSans-33" transform="translate(1509.089844 0)"/>
     <use xlink:href="#DejaVuSans-2d" transform="translate(1572.712891 0)"/>
     <use xlink:href="#DejaVuSans-33" transform="translate(1608.796875 0)"/>
     <use xlink:href="#DejaVuSans-32" transform="translate(1672.419922 0)"/>
     <use xlink:href="#DejaVuSans-62" transform="translate(1736.042969 0)"/>
    </g>
   </g>
   <g id="legend_1">
    <g id="patch_7">
     <path d="M 570.80225 248.27125 
L 700.3085 248.27125 
Q 702.3085 248.27125 702.3085 246.27125 
L 702.3085 24.318125 
Q 702.3085 22.318125 700.3085 22.318125 
L 570.80225 22.318125 
Q 568.80225 22.318125 568.80225 24.318125 
L 568.80225 246.27125 
Q 568.80225 248.27125 570.80225 248.27125 
z
" style="fill: #ffffff; opacity: 0.8; stroke: #cccccc; stroke-linejoin: miter"/>
    </g>
    <g id="text_14">
     <!-- Metric -->
     <g transform="translate(620.010844 33.916562) scale(0.1 -0.1)">
      <use xlink:href="#DejaVuSans-4d"/>
      <use xlink:href="#DejaVuSans-65" transform="translate(86.279297 0)"/>
      <use xlink:href="#DejaVuSans-74" transform="translate(147.802734 0)"/>
      <use xlink:href="#DejaVuSans-72" transform="translate(187.011719 0)"/>
      <use xlink:href="#DejaVuSans-69" transform="translate(228.125 0)"/>
      <use xlink:href="#DejaVuSans-63" transform="translate(255.908203 0)"/>
     </g>
    </g>
    <g id="line2d_35">
     <path d="M 572.80225 45.094687 
L 582.80225 45.094687 
L 592.80225 45.094687 
" style="fill: none; stroke-dasharray: 5.55,2.4; stroke-dashoffset: 0; stroke: #de8f05; stroke-width: 1.5"/>
     <g>
      <use xlink:href="#mb140684763" x="582.80225" y="45.094687" style="fill: #de8f05; stroke: #de8f05; stroke-linejoin: miter"/>
     </g>
    </g>
    <g id="text_15">
     <!-- bleu_score -->
     <g transform="translate(600.80225 48.594687) scale(0.1 -0.1)">
      <defs>
       <path id="DejaVuSans-6c" d="M 603 4863 
L 1178 4863 
L 1178 0 
L 603 0 
L 603 4863 
z
" transform="scale(0.015625)"/>
      </defs>
      <use xlink:href="#DejaVuSans-62"/>
      <use xlink:href="#DejaVuSans-6c" transform="translate(63.476562 0)"/>
      <use xlink:href="#DejaVuSans-65" transform="translate(91.259766 0)"/>
      <use xlink:href="#DejaVuSans-75" transform="translate(152.783203 0)"/>
      <use xlink:href="#DejaVuSans-5f" transform="translate(216.162109 0)"/>
      <use xlink:href="#DejaVuSans-73" transform="translate(266.162109 0)"/>
      <use xlink:href="#DejaVuSans-63" transform="translate(318.261719 0)"/>
      <use xlink:href="#DejaVuSans-6f" transform="translate(373.242188 0)"/>
      <use xlink:href="#DejaVuSans-72" transform="translate(434.423828 0)"/>
      <use xlink:href="#DejaVuSans-65" transform="translate(473.287109 0)"/>
     </g>
    </g>
    <g id="line2d_36">
     <path d="M 572.80225 60.050937 
L 582.80225 60.050937 
L 592.80225 60.050937 
" style="fill: none; stroke-dasharray: 9.6,2.4,1.5,2.4; stroke-dashoffset: 0; stroke: #029e73; stroke-width: 1.5"/>
     <g>
      <use xlink:href="#m4a9cd088c9" x="582.80225" y="60.050937" style="fill: #029e73; stroke: #029e73; stroke-linejoin: miter"/>
     </g>
    </g>
    <g id="text_16">
     <!-- meteor_score -->
     <g transform="translate(600.80225 63.550937) scale(0.1 -0.1)">
      <use xlink:href="#DejaVuSans-6d"/>
      <use xlink:href="#DejaVuSans-65" transform="translate(97.412109 0)"/>
      <use xlink:href="#DejaVuSans-74" transform="translate(158.935547 0)"/>
      <use xlink:href="#DejaVuSans-65" transform="translate(198.144531 0)"/>
      <use xlink:href="#DejaVuSans-6f" transform="translate(259.667969 0)"/>
      <use xlink:href="#DejaVuSans-72" transform="translate(320.849609 0)"/>
      <use xlink:href="#DejaVuSans-5f" transform="translate(361.962891 0)"/>
      <use xlink:href="#DejaVuSans-73" transform="translate(411.962891 0)"/>
      <use xlink:href="#DejaVuSans-63" transform="translate(464.0625 0)"/>
      <use xlink:href="#DejaVuSans-6f" transform="translate(519.042969 0)"/>
      <use xlink:href="#DejaVuSans-72" transform="translate(580.224609 0)"/>
      <use xlink:href="#DejaVuSans-65" transform="translate(619.087891 0)"/>
     </g>
    </g>
    <g id="line2d_37">
     <path d="M 572.80225 75.007187 
L 582.80225 75.007187 
L 592.80225 75.007187 
" style="fill: none; stroke-dasharray: 1.5,2.475; stroke-dashoffset: 0; stroke: #d55e00; stroke-width: 1.5"/>
     <g>
      <use xlink:href="#md814678ef5" x="582.80225" y="75.007187" style="fill: #d55e00; stroke: #d55e00; stroke-linejoin: miter"/>
     </g>
    </g>
    <g id="text_17">
     <!-- rouge1 -->
     <g transform="translate(600.80225 78.507187) scale(0.1 -0.1)">
      <defs>
       <path id="DejaVuSans-67" d="M 2906 1791 
Q 2906 2416 2648 2759 
Q 2391 3103 1925 3103 
Q 1463 3103 1205 2759 
Q 947 2416 947 1791 
Q 947 1169 1205 825 
Q 1463 481 1925 481 
Q 2391 481 2648 825 
Q 2906 1169 2906 1791 
z
M 3481 434 
Q 3481 -459 3084 -895 
Q 2688 -1331 1869 -1331 
Q 1566 -1331 1297 -1286 
Q 1028 -1241 775 -1147 
L 775 -588 
Q 1028 -725 1275 -790 
Q 1522 -856 1778 -856 
Q 2344 -856 2625 -561 
Q 2906 -266 2906 331 
L 2906 616 
Q 2728 306 2450 153 
Q 2172 0 1784 0 
Q 1141 0 747 490 
Q 353 981 353 1791 
Q 353 2603 747 3093 
Q 1141 3584 1784 3584 
Q 2172 3584 2450 3431 
Q 2728 3278 2906 2969 
L 2906 3500 
L 3481 3500 
L 3481 434 
z
" transform="scale(0.015625)"/>
      </defs>
      <use xlink:href="#DejaVuSans-72"/>
      <use xlink:href="#DejaVuSans-6f" transform="translate(38.863281 0)"/>
      <use xlink:href="#DejaVuSans-75" transform="translate(100.044922 0)"/>
      <use xlink:href="#DejaVuSans-67" transform="translate(163.423828 0)"/>
      <use xlink:href="#DejaVuSans-65" transform="translate(226.900391 0)"/>
      <use xlink:href="#DejaVuSans-31" transform="translate(288.423828 0)"/>
     </g>
    </g>
    <g id="line2d_38">
     <path d="M 572.80225 89.685313 
L 582.80225 89.685313 
L 592.80225 89.685313 
" style="fill: none; stroke: #cc78bc; stroke-width: 1.5; stroke-linecap: square"/>
     <g>
      <use xlink:href="#m44076389b4" x="582.80225" y="89.685313" style="fill: #cc78bc; stroke: #cc78bc; stroke-linejoin: miter"/>
     </g>
    </g>
    <g id="text_18">
     <!-- rouge2 -->
     <g transform="translate(600.80225 93.185313) scale(0.1 -0.1)">
      <use xlink:href="#DejaVuSans-72"/>
      <use xlink:href="#DejaVuSans-6f" transform="translate(38.863281 0)"/>
      <use xlink:href="#DejaVuSans-75" transform="translate(100.044922 0)"/>
      <use xlink:href="#DejaVuSans-67" transform="translate(163.423828 0)"/>
      <use xlink:href="#DejaVuSans-65" transform="translate(226.900391 0)"/>
      <use xlink:href="#DejaVuSans-32" transform="translate(288.423828 0)"/>
     </g>
    </g>
    <g id="line2d_39">
     <path d="M 572.80225 104.363437 
L 582.80225 104.363437 
L 592.80225 104.363437 
" style="fill: none; stroke-dasharray: 5.55,2.4; stroke-dashoffset: 0; stroke: #ca9161; stroke-width: 1.5"/>
     <g>
      <use xlink:href="#m962853acc1" x="582.80225" y="104.363437" style="fill: #ca9161; stroke: #ca9161; stroke-linejoin: miter"/>
     </g>
    </g>
    <g id="text_19">
     <!-- rougeL -->
     <g transform="translate(600.80225 107.863437) scale(0.1 -0.1)">
      <defs>
       <path id="DejaVuSans-4c" d="M 628 4666 
L 1259 4666 
L 1259 531 
L 3531 531 
L 3531 0 
L 628 0 
L 628 4666 
z
" transform="scale(0.015625)"/>
      </defs>
      <use xlink:href="#DejaVuSans-72"/>
      <use xlink:href="#DejaVuSans-6f" transform="translate(38.863281 0)"/>
      <use xlink:href="#DejaVuSans-75" transform="translate(100.044922 0)"/>
      <use xlink:href="#DejaVuSans-67" transform="translate(163.423828 0)"/>
      <use xlink:href="#DejaVuSans-65" transform="translate(226.900391 0)"/>
      <use xlink:href="#DejaVuSans-4c" transform="translate(288.423828 0)"/>
     </g>
    </g>
    <g id="line2d_40">
     <path d="M 572.80225 119.041562 
L 582.80225 119.041562 
L 592.80225 119.041562 
" style="fill: none; stroke-dasharray: 9.6,2.4,1.5,2.4; stroke-dashoffset: 0; stroke: #fbafe4; stroke-width: 1.5"/>
     <g>
      <use xlink:href="#m6a2a3ec13c" x="582.80225" y="119.041562" style="fill: #fbafe4; stroke: #fbafe4; stroke-linejoin: bevel"/>
     </g>
    </g>
    <g id="text_20">
     <!-- rougeLsum -->
     <g transform="translate(600.80225 122.541562) scale(0.1 -0.1)">
      <use xlink:href="#DejaVuSans-72"/>
      <use xlink:href="#DejaVuSans-6f" transform="translate(38.863281 0)"/>
      <use xlink:href="#DejaVuSans-75" transform="translate(100.044922 0)"/>
      <use xlink:href="#DejaVuSans-67" transform="translate(163.423828 0)"/>
      <use xlink:href="#DejaVuSans-65" transform="translate(226.900391 0)"/>
      <use xlink:href="#DejaVuSans-4c" transform="translate(288.423828 0)"/>
      <use xlink:href="#DejaVuSans-73" transform="translate(344.136719 0)"/>
      <use xlink:href="#DejaVuSans-75" transform="translate(396.236328 0)"/>
      <use xlink:href="#DejaVuSans-6d" transform="translate(459.615234 0)"/>
     </g>
    </g>
    <g id="line2d_41">
     <path d="M 572.80225 133.719687 
L 582.80225 133.719687 
L 592.80225 133.719687 
" style="fill: none; stroke-dasharray: 1.5,2.475; stroke-dashoffset: 0; stroke: #949494; stroke-width: 1.5"/>
     <g>
      <use xlink:href="#m5a923eaac5" x="582.80225" y="133.719687" style="fill: #949494; stroke: #949494; stroke-linejoin: miter"/>
     </g>
    </g>
    <g id="text_21">
     <!-- bertscore_precision -->
     <g transform="translate(600.80225 137.219687) scale(0.1 -0.1)">
      <use xlink:href="#DejaVuSans-62"/>
      <use xlink:href="#DejaVuSans-65" transform="translate(63.476562 0)"/>
      <use xlink:href="#DejaVuSans-72" transform="translate(125 0)"/>
      <use xlink:href="#DejaVuSans-74" transform="translate(166.113281 0)"/>
      <use xlink:href="#DejaVuSans-73" transform="translate(205.322266 0)"/>
      <use xlink:href="#DejaVuSans-63" transform="translate(257.421875 0)"/>
      <use xlink:href="#DejaVuSans-6f" transform="translate(312.402344 0)"/>
      <use xlink:href="#DejaVuSans-72" transform="translate(373.583984 0)"/>
      <use xlink:href="#DejaVuSans-65" transform="translate(412.447266 0)"/>
      <use xlink:href="#DejaVuSans-5f" transform="translate(473.970703 0)"/>
      <use xlink:href="#DejaVuSans-70" transform="translate(523.970703 0)"/>
      <use xlink:href="#DejaVuSans-72" transform="translate(587.447266 0)"/>
      <use xlink:href="#DejaVuSans-65" transform="translate(626.310547 0)"/>
      <use xlink:href="#DejaVuSans-63" transform="translate(687.833984 0)"/>
      <use xlink:href="#DejaVuSans-69" transform="translate(742.814453 0)"/>
      <use xlink:href="#DejaVuSans-73" transform="translate(770.597656 0)"/>
      <use xlink:href="#DejaVuSans-69" transform="translate(822.697266 0)"/>
      <use xlink:href="#DejaVuSans-6f" transform="translate(850.480469 0)"/>
      <use xlink:href="#DejaVuSans-6e" transform="translate(911.662109 0)"/>
     </g>
    </g>
    <g id="line2d_42">
     <path d="M 572.80225 148.675937 
L 582.80225 148.675937 
L 592.80225 148.675937 
" style="fill: none; stroke: #ece133; stroke-width: 1.5; stroke-linecap: square"/>
     <g>
      <use xlink:href="#m56077c103c" x="582.80225" y="148.675937" style="fill: #ece133; stroke: #ece133; stroke-linejoin: miter"/>
     </g>
    </g>
    <g id="text_22">
     <!-- bertscore_recall -->
     <g transform="translate(600.80225 152.175937) scale(0.1 -0.1)">
      <use xlink:href="#DejaVuSans-62"/>
      <use xlink:href="#DejaVuSans-65" transform="translate(63.476562 0)"/>
      <use xlink:href="#DejaVuSans-72" transform="translate(125 0)"/>
      <use xlink:href="#DejaVuSans-74" transform="translate(166.113281 0)"/>
      <use xlink:href="#DejaVuSans-73" transform="translate(205.322266 0)"/>
      <use xlink:href="#DejaVuSans-63" transform="translate(257.421875 0)"/>
      <use xlink:href="#DejaVuSans-6f" transform="translate(312.402344 0)"/>
      <use xlink:href="#DejaVuSans-72" transform="translate(373.583984 0)"/>
      <use xlink:href="#DejaVuSans-65" transform="translate(412.447266 0)"/>
      <use xlink:href="#DejaVuSans-5f" transform="translate(473.970703 0)"/>
      <use xlink:href="#DejaVuSans-72" transform="translate(523.970703 0)"/>
      <use xlink:href="#DejaVuSans-65" transform="translate(562.833984 0)"/>
      <use xlink:href="#DejaVuSans-63" transform="translate(624.357422 0)"/>
      <use xlink:href="#DejaVuSans-61" transform="translate(679.337891 0)"/>
      <use xlink:href="#DejaVuSans-6c" transform="translate(740.617188 0)"/>
      <use xlink:href="#DejaVuSans-6c" transform="translate(768.400391 0)"/>
     </g>
    </g>
    <g id="line2d_43">
     <path d="M 572.80225 163.632187 
L 582.80225 163.632187 
L 592.80225 163.632187 
" style="fill: none; stroke-dasharray: 5.55,2.4; stroke-dashoffset: 0; stroke: #56b4e9; stroke-width: 1.5"/>
     <g>
      <use xlink:href="#m0ce584b3d3" x="582.80225" y="163.632187" style="fill: #56b4e9; stroke: #56b4e9; stroke-linejoin: miter"/>
     </g>
    </g>
    <g id="text_23">
     <!-- bertscore_f1 -->
     <g transform="translate(600.80225 167.132187) scale(0.1 -0.1)">
      <use xlink:href="#DejaVuSans-62"/>
      <use xlink:href="#DejaVuSans-65" transform="translate(63.476562 0)"/>
      <use xlink:href="#DejaVuSans-72" transform="translate(125 0)"/>
      <use xlink:href="#DejaVuSans-74" transform="translate(166.113281 0)"/>
      <use xlink:href="#DejaVuSans-73" transform="translate(205.322266 0)"/>
      <use xlink:href="#DejaVuSans-63" transform="translate(257.421875 0)"/>
      <use xlink:href="#DejaVuSans-6f" transform="translate(312.402344 0)"/>
      <use xlink:href="#DejaVuSans-72" transform="translate(373.583984 0)"/>
      <use xlink:href="#DejaVuSans-65" transform="translate(412.447266 0)"/>
      <use xlink:href="#DejaVuSans-5f" transform="translate(473.970703 0)"/>
      <use xlink:href="#DejaVuSans-66" transform="translate(523.970703 0)"/>
      <use xlink:href="#DejaVuSans-31" transform="translate(559.175781 0)"/>
     </g>
    </g>
    <g id="line2d_44">
     <path d="M 572.80225 178.588437 
L 582.80225 178.588437 
L 592.80225 178.588437 
" style="fill: none; stroke-dasharray: 9.6,2.4,1.5,2.4; stroke-dashoffset: 0; stroke: #0173b2; stroke-width: 1.5"/>
     <g>
      <use xlink:href="#ma11d0ee6b9" x="582.80225" y="178.588437" style="fill: #0173b2; stroke: #0173b2; stroke-linejoin: miter"/>
     </g>
    </g>
    <g id="text_24">
     <!-- sbert_wms -->
     <g transform="translate(600.80225 182.088437) scale(0.1 -0.1)">
      <use xlink:href="#DejaVuSans-73"/>
      <use xlink:href="#DejaVuSans-62" transform="translate(52.099609 0)"/>
      <use xlink:href="#DejaVuSans-65" transform="translate(115.576172 0)"/>
      <use xlink:href="#DejaVuSans-72" transform="translate(177.099609 0)"/>
      <use xlink:href="#DejaVuSans-74" transform="translate(218.212891 0)"/>
      <use xlink:href="#DejaVuSans-5f" transform="translate(257.421875 0)"/>
      <use xlink:href="#DejaVuSans-77" transform="translate(307.421875 0)"/>
      <use xlink:href="#DejaVuSans-6d" transform="translate(389.208984 0)"/>
      <use xlink:href="#DejaVuSans-73" transform="translate(486.621094 0)"/>
     </g>
    </g>
    <g id="line2d_45">
     <path d="M 572.80225 193.544687 
L 582.80225 193.544687 
L 592.80225 193.544687 
" style="fill: none; stroke-dasharray: 1.5,2.475; stroke-dashoffset: 0; stroke: #de8f05; stroke-width: 1.5"/>
     <g>
      <use xlink:href="#m314eff2b0e" x="582.80225" y="193.544687" style="fill: #de8f05; stroke: #de8f05"/>
     </g>
    </g>
    <g id="text_25">
     <!-- sbert_cos -->
     <g transform="translate(600.80225 197.044687) scale(0.1 -0.1)">
      <use xlink:href="#DejaVuSans-73"/>
      <use xlink:href="#DejaVuSans-62" transform="translate(52.099609 0)"/>
      <use xlink:href="#DejaVuSans-65" transform="translate(115.576172 0)"/>
      <use xlink:href="#DejaVuSans-72" transform="translate(177.099609 0)"/>
      <use xlink:href="#DejaVuSans-74" transform="translate(218.212891 0)"/>
      <use xlink:href="#DejaVuSans-5f" transform="translate(257.421875 0)"/>
      <use xlink:href="#DejaVuSans-63" transform="translate(307.421875 0)"/>
      <use xlink:href="#DejaVuSans-6f" transform="translate(362.402344 0)"/>
      <use xlink:href="#DejaVuSans-73" transform="translate(423.583984 0)"/>
     </g>
    </g>
    <g id="line2d_46">
     <path d="M 572.80225 208.500937 
L 582.80225 208.500937 
L 592.80225 208.500937 
" style="fill: none; stroke: #029e73; stroke-width: 1.5; stroke-linecap: square"/>
     <g>
      <use xlink:href="#meeb2eea592" x="582.80225" y="208.500937" style="fill: #029e73; stroke: #029e73"/>
     </g>
    </g>
    <g id="text_26">
     <!-- sem_sim_avg -->
     <g transform="translate(600.80225 212.000937) scale(0.1 -0.1)">
      <defs>
       <path id="DejaVuSans-76" d="M 191 3500 
L 800 3500 
L 1894 563 
L 2988 3500 
L 3597 3500 
L 2284 0 
L 1503 0 
L 191 3500 
z
" transform="scale(0.015625)"/>
      </defs>
      <use xlink:href="#DejaVuSans-73"/>
      <use xlink:href="#DejaVuSans-65" transform="translate(52.099609 0)"/>
      <use xlink:href="#DejaVuSans-6d" transform="translate(113.623047 0)"/>
      <use xlink:href="#DejaVuSans-5f" transform="translate(211.035156 0)"/>
      <use xlink:href="#DejaVuSans-73" transform="translate(261.035156 0)"/>
      <use xlink:href="#DejaVuSans-69" transform="translate(313.134766 0)"/>
      <use xlink:href="#DejaVuSans-6d" transform="translate(340.917969 0)"/>
      <use xlink:href="#DejaVuSans-5f" transform="translate(438.330078 0)"/>
      <use xlink:href="#DejaVuSans-61" transform="translate(488.330078 0)"/>
      <use xlink:href="#DejaVuSans-76" transform="translate(549.609375 0)"/>
      <use xlink:href="#DejaVuSans-67" transform="translate(608.789062 0)"/>
     </g>
    </g>
    <g id="line2d_47">
     <path d="M 572.80225 223.457188 
L 582.80225 223.457188 
L 592.80225 223.457188 
" style="fill: none; stroke-dasharray: 5.55,2.4; stroke-dashoffset: 0; stroke: #d55e00; stroke-width: 1.5"/>
     <g>
      <use xlink:href="#m6557d006ab" x="582.80225" y="223.457188" style="fill: #d55e00; stroke: #d55e00"/>
     </g>
    </g>
    <g id="text_27">
     <!-- syn_sim_avg -->
     <g transform="translate(600.80225 226.957188) scale(0.1 -0.1)">
      <defs>
       <path id="DejaVuSans-79" d="M 2059 -325 
Q 1816 -950 1584 -1140 
Q 1353 -1331 966 -1331 
L 506 -1331 
L 506 -850 
L 844 -850 
Q 1081 -850 1212 -737 
Q 1344 -625 1503 -206 
L 1606 56 
L 191 3500 
L 800 3500 
L 1894 763 
L 2988 3500 
L 3597 3500 
L 2059 -325 
z
" transform="scale(0.015625)"/>
      </defs>
      <use xlink:href="#DejaVuSans-73"/>
      <use xlink:href="#DejaVuSans-79" transform="translate(52.099609 0)"/>
      <use xlink:href="#DejaVuSans-6e" transform="translate(111.279297 0)"/>
      <use xlink:href="#DejaVuSans-5f" transform="translate(174.658203 0)"/>
      <use xlink:href="#DejaVuSans-73" transform="translate(224.658203 0)"/>
      <use xlink:href="#DejaVuSans-69" transform="translate(276.757812 0)"/>
      <use xlink:href="#DejaVuSans-6d" transform="translate(304.541016 0)"/>
      <use xlink:href="#DejaVuSans-5f" transform="translate(401.953125 0)"/>
      <use xlink:href="#DejaVuSans-61" transform="translate(451.953125 0)"/>
      <use xlink:href="#DejaVuSans-76" transform="translate(513.232422 0)"/>
      <use xlink:href="#DejaVuSans-67" transform="translate(572.412109 0)"/>
     </g>
    </g>
    <g id="line2d_48">
     <path d="M 572.80225 238.413438 
L 582.80225 238.413438 
L 592.80225 238.413438 
" style="fill: none; stroke-dasharray: 9.6,2.4,1.5,2.4; stroke-dashoffset: 0; stroke: #cc78bc; stroke-width: 1.5"/>
     <g>
      <use xlink:href="#mee0b5db8d7" x="582.80225" y="238.413438" style="fill: #cc78bc; stroke: #cc78bc; stroke-linejoin: miter"/>
     </g>
    </g>
    <g id="text_28">
     <!-- gohsen_delta -->
     <g transform="translate(600.80225 241.913438) scale(0.1 -0.1)">
      <defs>
       <path id="DejaVuSans-64" d="M 2906 2969 
L 2906 4863 
L 3481 4863 
L 3481 0 
L 2906 0 
L 2906 525 
Q 2725 213 2448 61 
Q 2172 -91 1784 -91 
Q 1150 -91 751 415 
Q 353 922 353 1747 
Q 353 2572 751 3078 
Q 1150 3584 1784 3584 
Q 2172 3584 2448 3432 
Q 2725 3281 2906 2969 
z
M 947 1747 
Q 947 1113 1208 752 
Q 1469 391 1925 391 
Q 2381 391 2643 752 
Q 2906 1113 2906 1747 
Q 2906 2381 2643 2742 
Q 2381 3103 1925 3103 
Q 1469 3103 1208 2742 
Q 947 2381 947 1747 
z
" transform="scale(0.015625)"/>
      </defs>
      <use xlink:href="#DejaVuSans-67"/>
      <use xlink:href="#DejaVuSans-6f" transform="translate(63.476562 0)"/>
      <use xlink:href="#DejaVuSans-68" transform="translate(124.658203 0)"/>
      <use xlink:href="#DejaVuSans-73" transform="translate(188.037109 0)"/>
      <use xlink:href="#DejaVuSans-65" transform="translate(240.136719 0)"/>
      <use xlink:href="#DejaVuSans-6e" transform="translate(301.660156 0)"/>
      <use xlink:href="#DejaVuSans-5f" transform="translate(365.039062 0)"/>
      <use xlink:href="#DejaVuSans-64" transform="translate(415.039062 0)"/>
      <use xlink:href="#DejaVuSans-65" transform="translate(478.515625 0)"/>
      <use xlink:href="#DejaVuSans-6c" transform="translate(540.039062 0)"/>
      <use xlink:href="#DejaVuSans-74" transform="translate(567.822266 0)"/>
      <use xlink:href="#DejaVuSans-61" transform="translate(607.03125 0)"/>
     </g>
    </g>
   </g>
  </g>
 </g>
 <defs>
  <clipPath id="p71a2049bd8">
   <rect x="43.78125" y="22.318125" width="500.02" height="363.05875"/>
  </clipPath>
 </defs>
</svg>
