<?xml version="1.0" encoding="utf-8" standalone="no"?>
<!DOCTYPE svg PUBLIC "-//W3C//DTD SVG 1.1//EN"
  "http://www.w3.org/Graphics/SVG/1.1/DTD/svg11.dtd">
<svg xmlns:xlink="http://www.w3.org/1999/xlink" width="720.472522pt" height="423.94225pt" viewBox="0 0 720.472522 423.94225" xmlns="http://www.w3.org/2000/svg" version="1.1">
 <metadata>
  <rdf:RDF xmlns:dc="http://purl.org/dc/elements/1.1/" xmlns:cc="http://creativecommons.org/ns#" xmlns:rdf="http://www.w3.org/1999/02/22-rdf-syntax-ns#">
   <cc:Work>
    <dc:type rdf:resource="http://purl.org/dc/dcmitype/StillImage"/>
    <dc:date>2025-08-23T01:10:51.562383</dc:date>
    <dc:format>image/svg+xml</dc:format>
    <dc:creator>
     <cc:Agent>
      <dc:title>Matplotlib v3.10.3, https://matplotlib.org/</dc:title>
     </cc:Agent>
    </dc:creator>
   </cc:Work>
  </rdf:RDF>
 </metadata>
 <defs>
  <style type="text/css">*{stroke-linejoin: round; stroke-linecap: butt}</style>
 </defs>
 <g id="figure_1">
  <g id="patch_1">
   <path d="M 0 423.94225 
L 720.472522 423.94225 
L 720.472522 0 
L 0 0 
z
" style="fill: #ffffff"/>
  </g>
  <g id="axes_1">
   <g id="patch_2">
    <path d="M 53.003125 382.51475 
L 503.526125 382.51475 
L 503.526125 39.51475 
L 53.003125 39.51475 
z
" style="fill: #ffffff"/>
   </g>
   <g id="matplotlib.axis_1">
    <g id="xtick_1">
     <g id="line2d_1">
      <defs>
       <path id="mfda0452870" d="M 0 0 
L 0 3.5 
" style="stroke: #000000; stroke-width: 0.8"/>
      </defs>
      <g>
       <use xlink:href="#mfda0452870" x="73.481443" y="382.51475" style="stroke: #000000; stroke-width: 0.8"/>
      </g>
     </g>
     <g id="text_1">
      <!-- 0.0 -->
      <g transform="translate(65.529881 397.113187) scale(0.1 -0.1)">
       <defs>
        <path id="DejaVuSans-30" d="M 2034 4250 
Q 1547 4250 1301 3770 
Q 1056 3291 1056 2328 
Q 1056 1369 1301 889 
Q 1547 409 2034 409 
Q 2525 409 2770 889 
Q 3016 1369 3016 2328 
Q 3016 3291 2770 3770 
Q 2525 4250 2034 4250 
z
M 2034 4750 
Q 2819 4750 3233 4129 
Q 3647 3509 3647 2328 
Q 3647 1150 3233 529 
Q 2819 -91 2034 -91 
Q 1250 -91 836 529 
Q 422 1150 422 2328 
Q 422 3509 836 4129 
Q 1250 4750 2034 4750 
z
" transform="scale(0.015625)"/>
        <path id="DejaVuSans-2e" d="M 684 794 
L 1344 794 
L 1344 0 
L 684 0 
L 684 794 
z
" transform="scale(0.015625)"/>
       </defs>
       <use xlink:href="#DejaVuSans-30"/>
       <use xlink:href="#DejaVuSans-2e" transform="translate(63.623047 0)"/>
       <use xlink:href="#DejaVuSans-30" transform="translate(95.410156 0)"/>
      </g>
     </g>
    </g>
    <g id="xtick_2">
     <g id="line2d_2">
      <g>
       <use xlink:href="#mfda0452870" x="155.394716" y="382.51475" style="stroke: #000000; stroke-width: 0.8"/>
      </g>
     </g>
     <g id="text_2">
      <!-- 0.2 -->
      <g transform="translate(147.443153 397.113187) scale(0.1 -0.1)">
       <defs>
        <path id="DejaVuSans-32" d="M 1228 531 
L 3431 531 
L 3431 0 
L 469 0 
L 469 531 
Q 828 903 1448 1529 
Q 2069 2156 2228 2338 
Q 2531 2678 2651 2914 
Q 2772 3150 2772 3378 
Q 2772 3750 2511 3984 
Q 2250 4219 1831 4219 
Q 1534 4219 1204 4116 
Q 875 4013 500 3803 
L 500 4441 
Q 881 4594 1212 4672 
Q 1544 4750 1819 4750 
Q 2544 4750 2975 4387 
Q 3406 4025 3406 3419 
Q 3406 3131 3298 2873 
Q 3191 2616 2906 2266 
Q 2828 2175 2409 1742 
Q 1991 1309 1228 531 
z
" transform="scale(0.015625)"/>
       </defs>
       <use xlink:href="#DejaVuSans-30"/>
       <use xlink:href="#DejaVuSans-2e" transform="translate(63.623047 0)"/>
       <use xlink:href="#DejaVuSans-32" transform="translate(95.410156 0)"/>
      </g>
     </g>
    </g>
    <g id="xtick_3">
     <g id="line2d_3">
      <g>
       <use xlink:href="#mfda0452870" x="237.307989" y="382.51475" style="stroke: #000000; stroke-width: 0.8"/>
      </g>
     </g>
     <g id="text_3">
      <!-- 0.4 -->
      <g transform="translate(229.356426 397.113187) scale(0.1 -0.1)">
       <defs>
        <path id="DejaVuSans-34" d="M 2419 4116 
L 825 1625 
L 2419 1625 
L 2419 4116 
z
M 2253 4666 
L 3047 4666 
L 3047 1625 
L 3713 1625 
L 3713 1100 
L 3047 1100 
L 3047 0 
L 2419 0 
L 2419 1100 
L 313 1100 
L 313 1709 
L 2253 4666 
z
" transform="scale(0.015625)"/>
       </defs>
       <use xlink:href="#DejaVuSans-30"/>
       <use xlink:href="#DejaVuSans-2e" transform="translate(63.623047 0)"/>
       <use xlink:href="#DejaVuSans-34" transform="translate(95.410156 0)"/>
      </g>
     </g>
    </g>
    <g id="xtick_4">
     <g id="line2d_4">
      <g>
       <use xlink:href="#mfda0452870" x="319.221261" y="382.51475" style="stroke: #000000; stroke-width: 0.8"/>
      </g>
     </g>
     <g id="text_4">
      <!-- 0.6 -->
      <g transform="translate(311.269699 397.113187) scale(0.1 -0.1)">
       <defs>
        <path id="DejaVuSans-36" d="M 2113 2584 
Q 1688 2584 1439 2293 
Q 1191 2003 1191 1497 
Q 1191 994 1439 701 
Q 1688 409 2113 409 
Q 2538 409 2786 701 
Q 3034 994 3034 1497 
Q 3034 2003 2786 2293 
Q 2538 2584 2113 2584 
z
M 3366 4563 
L 3366 3988 
Q 3128 4100 2886 4159 
Q 2644 4219 2406 4219 
Q 1781 4219 1451 3797 
Q 1122 3375 1075 2522 
Q 1259 2794 1537 2939 
Q 1816 3084 2150 3084 
Q 2853 3084 3261 2657 
Q 3669 2231 3669 1497 
Q 3669 778 3244 343 
Q 2819 -91 2113 -91 
Q 1303 -91 875 529 
Q 447 1150 447 2328 
Q 447 3434 972 4092 
Q 1497 4750 2381 4750 
Q 2619 4750 2861 4703 
Q 3103 4656 3366 4563 
z
" transform="scale(0.015625)"/>
       </defs>
       <use xlink:href="#DejaVuSans-30"/>
       <use xlink:href="#DejaVuSans-2e" transform="translate(63.623047 0)"/>
       <use xlink:href="#DejaVuSans-36" transform="translate(95.410156 0)"/>
      </g>
     </g>
    </g>
    <g id="xtick_5">
     <g id="line2d_5">
      <g>
       <use xlink:href="#mfda0452870" x="401.134534" y="382.51475" style="stroke: #000000; stroke-width: 0.8"/>
      </g>
     </g>
     <g id="text_5">
      <!-- 0.8 -->
      <g transform="translate(393.182972 397.113187) scale(0.1 -0.1)">
       <defs>
        <path id="DejaVuSans-38" d="M 2034 2216 
Q 1584 2216 1326 1975 
Q 1069 1734 1069 1313 
Q 1069 891 1326 650 
Q 1584 409 2034 409 
Q 2484 409 2743 651 
Q 3003 894 3003 1313 
Q 3003 1734 2745 1975 
Q 2488 2216 2034 2216 
z
M 1403 2484 
Q 997 2584 770 2862 
Q 544 3141 544 3541 
Q 544 4100 942 4425 
Q 1341 4750 2034 4750 
Q 2731 4750 3128 4425 
Q 3525 4100 3525 3541 
Q 3525 3141 3298 2862 
Q 3072 2584 2669 2484 
Q 3125 2378 3379 2068 
Q 3634 1759 3634 1313 
Q 3634 634 3220 271 
Q 2806 -91 2034 -91 
Q 1263 -91 848 271 
Q 434 634 434 1313 
Q 434 1759 690 2068 
Q 947 2378 1403 2484 
z
M 1172 3481 
Q 1172 3119 1398 2916 
Q 1625 2713 2034 2713 
Q 2441 2713 2670 2916 
Q 2900 3119 2900 3481 
Q 2900 3844 2670 4047 
Q 2441 4250 2034 4250 
Q 1625 4250 1398 4047 
Q 1172 3844 1172 3481 
z
" transform="scale(0.015625)"/>
       </defs>
       <use xlink:href="#DejaVuSans-30"/>
       <use xlink:href="#DejaVuSans-2e" transform="translate(63.623047 0)"/>
       <use xlink:href="#DejaVuSans-38" transform="translate(95.410156 0)"/>
      </g>
     </g>
    </g>
    <g id="xtick_6">
     <g id="line2d_6">
      <g>
       <use xlink:href="#mfda0452870" x="483.047807" y="382.51475" style="stroke: #000000; stroke-width: 0.8"/>
      </g>
     </g>
     <g id="text_6">
      <!-- 1.0 -->
      <g transform="translate(475.096244 397.113187) scale(0.1 -0.1)">
       <defs>
        <path id="DejaVuSans-31" d="M 794 531 
L 1825 531 
L 1825 4091 
L 703 3866 
L 703 4441 
L 1819 4666 
L 2450 4666 
L 2450 531 
L 3481 531 
L 3481 0 
L 794 0 
L 794 531 
z
" transform="scale(0.015625)"/>
       </defs>
       <use xlink:href="#DejaVuSans-31"/>
       <use xlink:href="#DejaVuSans-2e" transform="translate(63.623047 0)"/>
       <use xlink:href="#DejaVuSans-30" transform="translate(95.410156 0)"/>
      </g>
     </g>
    </g>
    <g id="text_7">
     <!-- Threshold -->
     <g transform="translate(243.771031 413.830687) scale(0.14 -0.14)">
      <defs>
       <path id="DejaVuSans-54" d="M -19 4666 
L 3928 4666 
L 3928 4134 
L 2272 4134 
L 2272 0 
L 1638 0 
L 1638 4134 
L -19 4134 
L -19 4666 
z
" transform="scale(0.015625)"/>
       <path id="DejaVuSans-68" d="M 3513 2113 
L 3513 0 
L 2938 0 
L 2938 2094 
Q 2938 2591 2744 2837 
Q 2550 3084 2163 3084 
Q 1697 3084 1428 2787 
Q 1159 2491 1159 1978 
L 1159 0 
L 581 0 
L 581 4863 
L 1159 4863 
L 1159 2956 
Q 1366 3272 1645 3428 
Q 1925 3584 2291 3584 
Q 2894 3584 3203 3211 
Q 3513 2838 3513 2113 
z
" transform="scale(0.015625)"/>
       <path id="DejaVuSans-72" d="M 2631 2963 
Q 2534 3019 2420 3045 
Q 2306 3072 2169 3072 
Q 1681 3072 1420 2755 
Q 1159 2438 1159 1844 
L 1159 0 
L 581 0 
L 581 3500 
L 1159 3500 
L 1159 2956 
Q 1341 3275 1631 3429 
Q 1922 3584 2338 3584 
Q 2397 3584 2469 3576 
Q 2541 3569 2628 3553 
L 2631 2963 
z
" transform="scale(0.015625)"/>
       <path id="DejaVuSans-65" d="M 3597 1894 
L 3597 1613 
L 953 1613 
Q 991 1019 1311 708 
Q 1631 397 2203 397 
Q 2534 397 2845 478 
Q 3156 559 3463 722 
L 3463 178 
Q 3153 47 2828 -22 
Q 2503 -91 2169 -91 
Q 1331 -91 842 396 
Q 353 884 353 1716 
Q 353 2575 817 3079 
Q 1281 3584 2069 3584 
Q 2775 3584 3186 3129 
Q 3597 2675 3597 1894 
z
M 3022 2063 
Q 3016 2534 2758 2815 
Q 2500 3097 2075 3097 
Q 1594 3097 1305 2825 
Q 1016 2553 972 2059 
L 3022 2063 
z
" transform="scale(0.015625)"/>
       <path id="DejaVuSans-73" d="M 2834 3397 
L 2834 2853 
Q 2591 2978 2328 3040 
Q 2066 3103 1784 3103 
Q 1356 3103 1142 2972 
Q 928 2841 928 2578 
Q 928 2378 1081 2264 
Q 1234 2150 1697 2047 
L 1894 2003 
Q 2506 1872 2764 1633 
Q 3022 1394 3022 966 
Q 3022 478 2636 193 
Q 2250 -91 1575 -91 
Q 1294 -91 989 -36 
Q 684 19 347 128 
L 347 722 
Q 666 556 975 473 
Q 1284 391 1588 391 
Q 1994 391 2212 530 
Q 2431 669 2431 922 
Q 2431 1156 2273 1281 
Q 2116 1406 1581 1522 
L 1381 1569 
Q 847 1681 609 1914 
Q 372 2147 372 2553 
Q 372 3047 722 3315 
Q 1072 3584 1716 3584 
Q 2034 3584 2315 3537 
Q 2597 3491 2834 3397 
z
" transform="scale(0.015625)"/>
       <path id="DejaVuSans-6f" d="M 1959 3097 
Q 1497 3097 1228 2736 
Q 959 2375 959 1747 
Q 959 1119 1226 758 
Q 1494 397 1959 397 
Q 2419 397 2687 759 
Q 2956 1122 2956 1747 
Q 2956 2369 2687 2733 
Q 2419 3097 1959 3097 
z
M 1959 3584 
Q 2709 3584 3137 3096 
Q 3566 2609 3566 1747 
Q 3566 888 3137 398 
Q 2709 -91 1959 -91 
Q 1206 -91 779 398 
Q 353 888 353 1747 
Q 353 2609 779 3096 
Q 1206 3584 1959 3584 
z
" transform="scale(0.015625)"/>
       <path id="DejaVuSans-6c" d="M 603 4863 
L 1178 4863 
L 1178 0 
L 603 0 
L 603 4863 
z
" transform="scale(0.015625)"/>
       <path id="DejaVuSans-64" d="M 2906 2969 
L 2906 4863 
L 3481 4863 
L 3481 0 
L 2906 0 
L 2906 525 
Q 2725 213 2448 61 
Q 2172 -91 1784 -91 
Q 1150 -91 751 415 
Q 353 922 353 1747 
Q 353 2572 751 3078 
Q 1150 3584 1784 3584 
Q 2172 3584 2448 3432 
Q 2725 3281 2906 2969 
z
M 947 1747 
Q 947 1113 1208 752 
Q 1469 391 1925 391 
Q 2381 391 2643 752 
Q 2906 1113 2906 1747 
Q 2906 2381 2643 2742 
Q 2381 3103 1925 3103 
Q 1469 3103 1208 2742 
Q 947 2381 947 1747 
z
" transform="scale(0.015625)"/>
      </defs>
      <use xlink:href="#DejaVuSans-54"/>
      <use xlink:href="#DejaVuSans-68" transform="translate(61.083984 0)"/>
      <use xlink:href="#DejaVuSans-72" transform="translate(124.462891 0)"/>
      <use xlink:href="#DejaVuSans-65" transform="translate(163.326172 0)"/>
      <use xlink:href="#DejaVuSans-73" transform="translate(224.849609 0)"/>
      <use xlink:href="#DejaVuSans-68" transform="translate(276.949219 0)"/>
      <use xlink:href="#DejaVuSans-6f" transform="translate(340.328125 0)"/>
      <use xlink:href="#DejaVuSans-6c" transform="translate(401.509766 0)"/>
      <use xlink:href="#DejaVuSans-64" transform="translate(429.292969 0)"/>
     </g>
    </g>
   </g>
   <g id="matplotlib.axis_2">
    <g id="ytick_1">
     <g id="line2d_7">
      <defs>
       <path id="m5567fc1446" d="M 0 0 
L -3.5 0 
" style="stroke: #000000; stroke-width: 0.8"/>
      </defs>
      <g>
       <use xlink:href="#m5567fc1446" x="53.003125" y="382.51475" style="stroke: #000000; stroke-width: 0.8"/>
      </g>
     </g>
     <g id="text_8">
      <!-- 0.0 -->
      <g transform="translate(30.1 386.313969) scale(0.1 -0.1)">
       <use xlink:href="#DejaVuSans-30"/>
       <use xlink:href="#DejaVuSans-2e" transform="translate(63.623047 0)"/>
       <use xlink:href="#DejaVuSans-30" transform="translate(95.410156 0)"/>
      </g>
     </g>
    </g>
    <g id="ytick_2">
     <g id="line2d_8">
      <g>
       <use xlink:href="#m5567fc1446" x="53.003125" y="313.91475" style="stroke: #000000; stroke-width: 0.8"/>
      </g>
     </g>
     <g id="text_9">
      <!-- 0.2 -->
      <g transform="translate(30.1 317.713969) scale(0.1 -0.1)">
       <use xlink:href="#DejaVuSans-30"/>
       <use xlink:href="#DejaVuSans-2e" transform="translate(63.623047 0)"/>
       <use xlink:href="#DejaVuSans-32" transform="translate(95.410156 0)"/>
      </g>
     </g>
    </g>
    <g id="ytick_3">
     <g id="line2d_9">
      <g>
       <use xlink:href="#m5567fc1446" x="53.003125" y="245.31475" style="stroke: #000000; stroke-width: 0.8"/>
      </g>
     </g>
     <g id="text_10">
      <!-- 0.4 -->
      <g transform="translate(30.1 249.113969) scale(0.1 -0.1)">
       <use xlink:href="#DejaVuSans-30"/>
       <use xlink:href="#DejaVuSans-2e" transform="translate(63.623047 0)"/>
       <use xlink:href="#DejaVuSans-34" transform="translate(95.410156 0)"/>
      </g>
     </g>
    </g>
    <g id="ytick_4">
     <g id="line2d_10">
      <g>
       <use xlink:href="#m5567fc1446" x="53.003125" y="176.71475" style="stroke: #000000; stroke-width: 0.8"/>
      </g>
     </g>
     <g id="text_11">
      <!-- 0.6 -->
      <g transform="translate(30.1 180.513969) scale(0.1 -0.1)">
       <use xlink:href="#DejaVuSans-30"/>
       <use xlink:href="#DejaVuSans-2e" transform="translate(63.623047 0)"/>
       <use xlink:href="#DejaVuSans-36" transform="translate(95.410156 0)"/>
      </g>
     </g>
    </g>
    <g id="ytick_5">
     <g id="line2d_11">
      <g>
       <use xlink:href="#m5567fc1446" x="53.003125" y="108.11475" style="stroke: #000000; stroke-width: 0.8"/>
      </g>
     </g>
     <g id="text_12">
      <!-- 0.8 -->
      <g transform="translate(30.1 111.913969) scale(0.1 -0.1)">
       <use xlink:href="#DejaVuSans-30"/>
       <use xlink:href="#DejaVuSans-2e" transform="translate(63.623047 0)"/>
       <use xlink:href="#DejaVuSans-38" transform="translate(95.410156 0)"/>
      </g>
     </g>
    </g>
    <g id="ytick_6">
     <g id="line2d_12">
      <g>
       <use xlink:href="#m5567fc1446" x="53.003125" y="39.51475" style="stroke: #000000; stroke-width: 0.8"/>
      </g>
     </g>
     <g id="text_13">
      <!-- 1.0 -->
      <g transform="translate(30.1 43.313969) scale(0.1 -0.1)">
       <use xlink:href="#DejaVuSans-31"/>
       <use xlink:href="#DejaVuSans-2e" transform="translate(63.623047 0)"/>
       <use xlink:href="#DejaVuSans-30" transform="translate(95.410156 0)"/>
      </g>
     </g>
    </g>
    <g id="text_14">
     <!-- F1 Score $\frac{{2PR}}{{P+R}}$ -->
     <g transform="translate(20.64 257.00475) rotate(-90) scale(0.14 -0.14)">
      <defs>
       <path id="DejaVuSans-46" d="M 628 4666 
L 3309 4666 
L 3309 4134 
L 1259 4134 
L 1259 2759 
L 3109 2759 
L 3109 2228 
L 1259 2228 
L 1259 0 
L 628 0 
L 628 4666 
z
" transform="scale(0.015625)"/>
       <path id="DejaVuSans-20" transform="scale(0.015625)"/>
       <path id="DejaVuSans-53" d="M 3425 4513 
L 3425 3897 
Q 3066 4069 2747 4153 
Q 2428 4238 2131 4238 
Q 1616 4238 1336 4038 
Q 1056 3838 1056 3469 
Q 1056 3159 1242 3001 
Q 1428 2844 1947 2747 
L 2328 2669 
Q 3034 2534 3370 2195 
Q 3706 1856 3706 1288 
Q 3706 609 3251 259 
Q 2797 -91 1919 -91 
Q 1588 -91 1214 -16 
Q 841 59 441 206 
L 441 856 
Q 825 641 1194 531 
Q 1563 422 1919 422 
Q 2459 422 2753 634 
Q 3047 847 3047 1241 
Q 3047 1584 2836 1778 
Q 2625 1972 2144 2069 
L 1759 2144 
Q 1053 2284 737 2584 
Q 422 2884 422 3419 
Q 422 4038 858 4394 
Q 1294 4750 2059 4750 
Q 2388 4750 2728 4690 
Q 3069 4631 3425 4513 
z
" transform="scale(0.015625)"/>
       <path id="DejaVuSans-63" d="M 3122 3366 
L 3122 2828 
Q 2878 2963 2633 3030 
Q 2388 3097 2138 3097 
Q 1578 3097 1268 2742 
Q 959 2388 959 1747 
Q 959 1106 1268 751 
Q 1578 397 2138 397 
Q 2388 397 2633 464 
Q 2878 531 3122 666 
L 3122 134 
Q 2881 22 2623 -34 
Q 2366 -91 2075 -91 
Q 1284 -91 818 406 
Q 353 903 353 1747 
Q 353 2603 823 3093 
Q 1294 3584 2113 3584 
Q 2378 3584 2631 3529 
Q 2884 3475 3122 3366 
z
" transform="scale(0.015625)"/>
       <path id="DejaVuSans-Oblique-50" d="M 1081 4666 
L 2541 4666 
Q 3178 4666 3512 4369 
Q 3847 4072 3847 3500 
Q 3847 2731 3353 2303 
Q 2859 1875 1966 1875 
L 1172 1875 
L 806 0 
L 172 0 
L 1081 4666 
z
M 1613 4147 
L 1275 2394 
L 2069 2394 
Q 2606 2394 2893 2669 
Q 3181 2944 3181 3456 
Q 3181 3784 2986 3965 
Q 2791 4147 2438 4147 
L 1613 4147 
z
" transform="scale(0.015625)"/>
       <path id="DejaVuSans-Oblique-52" d="M 1613 4147 
L 1294 2491 
L 2106 2491 
Q 2584 2491 2879 2755 
Q 3175 3019 3175 3444 
Q 3175 3784 2976 3965 
Q 2778 4147 2406 4147 
L 1613 4147 
z
M 2772 2241 
Q 2972 2194 3105 2009 
Q 3238 1825 3413 1275 
L 3809 0 
L 3144 0 
L 2778 1197 
Q 2638 1659 2453 1815 
Q 2269 1972 1888 1972 
L 1191 1972 
L 806 0 
L 172 0 
L 1081 4666 
L 2503 4666 
Q 3150 4666 3495 4373 
Q 3841 4081 3841 3531 
Q 3841 3044 3547 2687 
Q 3253 2331 2772 2241 
z
" transform="scale(0.015625)"/>
       <path id="DejaVuSans-2b" d="M 2944 4013 
L 2944 2272 
L 4684 2272 
L 4684 1741 
L 2944 1741 
L 2944 0 
L 2419 0 
L 2419 1741 
L 678 1741 
L 678 2272 
L 2419 2272 
L 2419 4013 
L 2944 4013 
z
" transform="scale(0.015625)"/>
      </defs>
      <use xlink:href="#DejaVuSans-46" transform="translate(0 0.25)"/>
      <use xlink:href="#DejaVuSans-31" transform="translate(57.519531 0.25)"/>
      <use xlink:href="#DejaVuSans-20" transform="translate(121.142578 0.25)"/>
      <use xlink:href="#DejaVuSans-53" transform="translate(152.929688 0.25)"/>
      <use xlink:href="#DejaVuSans-63" transform="translate(216.40625 0.25)"/>
      <use xlink:href="#DejaVuSans-6f" transform="translate(271.386719 0.25)"/>
      <use xlink:href="#DejaVuSans-72" transform="translate(332.568359 0.25)"/>
      <use xlink:href="#DejaVuSans-65" transform="translate(373.681641 0.25)"/>
      <use xlink:href="#DejaVuSans-20" transform="translate(435.205078 0.25)"/>
      <use xlink:href="#DejaVuSans-32" transform="translate(487.992188 44.046875) scale(0.7)"/>
      <use xlink:href="#DejaVuSans-Oblique-50" transform="translate(532.52832 44.046875) scale(0.7)"/>
      <use xlink:href="#DejaVuSans-Oblique-52" transform="translate(574.740234 44.046875) scale(0.7)"/>
      <use xlink:href="#DejaVuSans-Oblique-50" transform="translate(466.992188 -38.2375) scale(0.7)"/>
      <use xlink:href="#DejaVuSans-2b" transform="translate(522.841797 -38.2375) scale(0.7)"/>
      <use xlink:href="#DejaVuSans-Oblique-52" transform="translate(595.131836 -38.2375) scale(0.7)"/>
      <path d="M 466.992188 19.046875 
L 466.992188 25.296875 
L 643.769531 25.296875 
L 643.769531 19.046875 
L 466.992188 19.046875 
z
"/>
     </g>
    </g>
   </g>
   <g id="line2d_13">
    <path d="M 73.481443 153.848083 
L 77.577107 164.242023 
L 81.67277 186.51475 
L 85.768434 186.51475 
L 89.864098 186.51475 
L 93.959761 186.51475 
L 98.055425 186.51475 
L 102.151089 186.51475 
L 106.246752 186.51475 
L 110.342416 211.01475 
L 114.43808 211.01475 
L 118.533743 211.01475 
L 122.629407 211.01475 
L 126.72507 211.01475 
L 130.820734 211.01475 
L 134.916398 211.01475 
L 139.012061 201.988434 
L 143.107725 191.959194 
L 147.203389 191.959194 
L 151.299052 191.959194 
L 155.394716 191.959194 
L 159.49038 191.959194 
L 163.586043 191.959194 
L 167.681707 191.959194 
L 171.77737 191.959194 
L 175.873034 191.959194 
L 179.968698 191.959194 
L 184.064361 191.959194 
L 188.160025 191.959194 
L 192.255689 191.959194 
L 196.351352 191.959194 
L 200.447016 191.959194 
L 204.54268 191.959194 
L 208.638343 191.959194 
L 212.734007 221.102985 
L 216.82967 221.102985 
L 220.925334 221.102985 
L 225.020998 221.102985 
L 229.116661 221.102985 
L 233.212325 221.102985 
L 237.307989 221.102985 
L 241.403652 221.102985 
L 245.499316 221.102985 
L 249.59498 211.01475 
L 253.690643 211.01475 
L 257.786307 245.31475 
L 261.88197 245.31475 
L 265.977634 245.31475 
L 270.073298 245.31475 
L 274.168961 245.31475 
L 278.264625 245.31475 
L 282.360289 245.31475 
L 286.455952 245.31475 
L 290.551616 245.31475 
L 294.64728 284.51475 
L 298.742943 284.51475 
L 302.838607 284.51475 
L 306.93427 284.51475 
L 311.029934 284.51475 
L 315.125598 284.51475 
L 319.221261 284.51475 
L 323.316925 284.51475 
L 327.412589 284.51475 
L 331.508252 284.51475 
L 335.603916 284.51475 
L 339.69958 276.976288 
L 343.795243 276.976288 
L 347.890907 276.976288 
L 351.98657 276.976288 
L 356.082234 276.976288 
L 360.177898 276.976288 
L 364.273561 276.976288 
L 368.369225 276.976288 
L 372.464889 276.976288 
L 376.560552 276.976288 
L 380.656216 276.976288 
L 384.75188 276.976288 
L 388.847543 276.976288 
L 392.943207 276.976288 
L 397.03887 276.976288 
L 401.134534 276.976288 
L 405.230198 276.976288 
L 409.325861 276.976288 
L 413.421525 268.181417 
L 417.517189 268.181417 
L 421.612852 268.181417 
L 425.708516 268.181417 
L 429.80418 268.181417 
L 433.899843 268.181417 
L 437.995507 268.181417 
L 442.09117 268.181417 
L 446.186834 268.181417 
L 450.282498 268.181417 
L 454.378161 268.181417 
L 458.473825 320.151114 
L 462.569489 320.151114 
L 466.665152 320.151114 
L 470.760816 320.151114 
L 474.85648 320.151114 
L 478.952143 320.151114 
L 483.047807 320.151114 
" clip-path="url(#p505340c831)" style="fill: none; stroke-dasharray: 5.55,2.4; stroke-dashoffset: 0; stroke: #1f77b4; stroke-width: 1.5"/>
   </g>
   <g id="line2d_14">
    <path d="M 73.481443 153.848083 
L 77.577107 153.848083 
L 81.67277 176.71475 
L 85.768434 191.959194 
L 89.864098 191.959194 
L 93.959761 191.959194 
L 98.055425 191.959194 
L 102.151089 191.959194 
L 106.246752 191.959194 
L 110.342416 191.959194 
L 114.43808 191.959194 
L 118.533743 191.959194 
L 122.629407 191.959194 
L 126.72507 191.959194 
L 130.820734 221.102985 
L 134.916398 221.102985 
L 139.012061 221.102985 
L 143.107725 221.102985 
L 147.203389 221.102985 
L 151.299052 221.102985 
L 155.394716 221.102985 
L 159.49038 221.102985 
L 163.586043 221.102985 
L 167.681707 221.102985 
L 171.77737 221.102985 
L 175.873034 221.102985 
L 179.968698 221.102985 
L 184.064361 221.102985 
L 188.160025 221.102985 
L 192.255689 211.01475 
L 196.351352 211.01475 
L 200.447016 211.01475 
L 204.54268 211.01475 
L 208.638343 211.01475 
L 212.734007 211.01475 
L 216.82967 211.01475 
L 220.925334 211.01475 
L 225.020998 211.01475 
L 229.116661 211.01475 
L 233.212325 211.01475 
L 237.307989 199.581417 
L 241.403652 199.581417 
L 245.499316 199.581417 
L 249.59498 199.581417 
L 253.690643 199.581417 
L 257.786307 235.51475 
L 261.88197 235.51475 
L 265.977634 235.51475 
L 270.073298 235.51475 
L 274.168961 235.51475 
L 278.264625 276.976288 
L 282.360289 276.976288 
L 286.455952 276.976288 
L 290.551616 276.976288 
L 294.64728 276.976288 
L 298.742943 276.976288 
L 302.838607 276.976288 
L 306.93427 276.976288 
L 311.029934 276.976288 
L 315.125598 276.976288 
L 319.221261 276.976288 
L 323.316925 276.976288 
L 327.412589 276.976288 
L 331.508252 276.976288 
L 335.603916 276.976288 
L 339.69958 276.976288 
L 343.795243 276.976288 
L 347.890907 276.976288 
L 351.98657 276.976288 
L 356.082234 276.976288 
L 360.177898 276.976288 
L 364.273561 276.976288 
L 368.369225 276.976288 
L 372.464889 276.976288 
L 376.560552 276.976288 
L 380.656216 276.976288 
L 384.75188 276.976288 
L 388.847543 276.976288 
L 392.943207 276.976288 
L 397.03887 276.976288 
L 401.134534 276.976288 
L 405.230198 276.976288 
L 409.325861 276.976288 
L 413.421525 276.976288 
L 417.517189 276.976288 
L 421.612852 276.976288 
L 425.708516 276.976288 
L 429.80418 276.976288 
L 433.899843 276.976288 
L 437.995507 276.976288 
L 442.09117 276.976288 
L 446.186834 276.976288 
L 450.282498 276.976288 
L 454.378161 276.976288 
L 458.473825 276.976288 
L 462.569489 276.976288 
L 466.665152 276.976288 
L 470.760816 276.976288 
L 474.85648 276.976288 
L 478.952143 325.348083 
L 483.047807 325.348083 
" clip-path="url(#p505340c831)" style="fill: none; stroke-dasharray: 1.5,2.475; stroke-dashoffset: 0; stroke: #ff7f0e; stroke-width: 1.5"/>
   </g>
   <g id="line2d_15">
    <path d="M 73.481443 153.848083 
L 77.577107 143.906054 
L 81.67277 164.242023 
L 85.768434 186.51475 
L 89.864098 186.51475 
L 93.959761 186.51475 
L 98.055425 186.51475 
L 102.151089 186.51475 
L 106.246752 186.51475 
L 110.342416 186.51475 
L 114.43808 186.51475 
L 118.533743 176.71475 
L 122.629407 176.71475 
L 126.72507 176.71475 
L 130.820734 176.71475 
L 134.916398 176.71475 
L 139.012061 176.71475 
L 143.107725 176.71475 
L 147.203389 176.71475 
L 151.299052 176.71475 
L 155.394716 176.71475 
L 159.49038 176.71475 
L 163.586043 176.71475 
L 167.681707 176.71475 
L 171.77737 165.883171 
L 175.873034 165.883171 
L 179.968698 165.883171 
L 184.064361 165.883171 
L 188.160025 165.883171 
L 192.255689 165.883171 
L 196.351352 165.883171 
L 200.447016 165.883171 
L 204.54268 165.883171 
L 208.638343 165.883171 
L 212.734007 165.883171 
L 216.82967 165.883171 
L 220.925334 165.883171 
L 225.020998 165.883171 
L 229.116661 165.883171 
L 233.212325 191.959194 
L 237.307989 191.959194 
L 241.403652 191.959194 
L 245.499316 191.959194 
L 249.59498 221.102985 
L 253.690643 211.01475 
L 257.786307 211.01475 
L 261.88197 211.01475 
L 265.977634 211.01475 
L 270.073298 211.01475 
L 274.168961 211.01475 
L 278.264625 211.01475 
L 282.360289 245.31475 
L 286.455952 245.31475 
L 290.551616 245.31475 
L 294.64728 245.31475 
L 298.742943 245.31475 
L 302.838607 245.31475 
L 306.93427 245.31475 
L 311.029934 245.31475 
L 315.125598 245.31475 
L 319.221261 245.31475 
L 323.316925 245.31475 
L 327.412589 245.31475 
L 331.508252 245.31475 
L 335.603916 245.31475 
L 339.69958 245.31475 
L 343.795243 245.31475 
L 347.890907 235.51475 
L 351.98657 235.51475 
L 356.082234 235.51475 
L 360.177898 235.51475 
L 364.273561 235.51475 
L 368.369225 235.51475 
L 372.464889 235.51475 
L 376.560552 235.51475 
L 380.656216 235.51475 
L 384.75188 235.51475 
L 388.847543 235.51475 
L 392.943207 235.51475 
L 397.03887 235.51475 
L 401.134534 235.51475 
L 405.230198 235.51475 
L 409.325861 235.51475 
L 413.421525 235.51475 
L 417.517189 235.51475 
L 421.612852 235.51475 
L 425.708516 235.51475 
L 429.80418 235.51475 
L 433.899843 235.51475 
L 437.995507 235.51475 
L 442.09117 224.207058 
L 446.186834 224.207058 
L 450.282498 224.207058 
L 454.378161 268.181417 
L 458.473825 268.181417 
L 462.569489 268.181417 
L 466.665152 268.181417 
L 470.760816 268.181417 
L 474.85648 320.151114 
L 478.952143 320.151114 
L 483.047807 320.151114 
" clip-path="url(#p505340c831)" style="fill: none; stroke-dasharray: 9.6,2.4,1.5,2.4; stroke-dashoffset: 0; stroke: #2ca02c; stroke-width: 1.5"/>
   </g>
   <g id="line2d_16">
    <path d="M 73.481443 153.848083 
L 77.577107 153.848083 
L 81.67277 153.848083 
L 85.768434 153.848083 
L 89.864098 153.848083 
L 93.959761 153.848083 
L 98.055425 153.848083 
L 102.151089 153.848083 
L 106.246752 153.848083 
L 110.342416 153.848083 
L 114.43808 153.848083 
L 118.533743 153.848083 
L 122.629407 153.848083 
L 126.72507 153.848083 
L 130.820734 153.848083 
L 134.916398 153.848083 
L 139.012061 153.848083 
L 143.107725 153.848083 
L 147.203389 153.848083 
L 151.299052 153.848083 
L 155.394716 153.848083 
L 159.49038 169.618198 
L 163.586043 169.618198 
L 167.681707 169.618198 
L 171.77737 169.618198 
L 175.873034 169.618198 
L 179.968698 169.618198 
L 184.064361 169.618198 
L 188.160025 169.618198 
L 192.255689 169.618198 
L 196.351352 169.618198 
L 200.447016 169.618198 
L 204.54268 169.618198 
L 208.638343 169.618198 
L 212.734007 169.618198 
L 216.82967 162.01475 
L 220.925334 162.01475 
L 225.020998 162.01475 
L 229.116661 162.01475 
L 233.212325 162.01475 
L 237.307989 162.01475 
L 241.403652 153.848083 
L 245.499316 153.848083 
L 249.59498 153.848083 
L 253.690643 153.848083 
L 257.786307 153.848083 
L 261.88197 153.848083 
L 265.977634 153.848083 
L 270.073298 153.848083 
L 274.168961 153.848083 
L 278.264625 153.848083 
L 282.360289 153.848083 
L 286.455952 153.848083 
L 290.551616 153.848083 
L 294.64728 153.848083 
L 298.742943 153.848083 
L 302.838607 153.848083 
L 306.93427 153.848083 
L 311.029934 153.848083 
L 315.125598 153.848083 
L 319.221261 153.848083 
L 323.316925 153.848083 
L 327.412589 153.848083 
L 331.508252 153.848083 
L 335.603916 153.848083 
L 339.69958 153.848083 
L 343.795243 153.848083 
L 347.890907 153.848083 
L 351.98657 153.848083 
L 356.082234 153.848083 
L 360.177898 153.848083 
L 364.273561 153.848083 
L 368.369225 153.848083 
L 372.464889 153.848083 
L 376.560552 153.848083 
L 380.656216 153.848083 
L 384.75188 153.848083 
L 388.847543 153.848083 
L 392.943207 153.848083 
L 397.03887 153.848083 
L 401.134534 153.848083 
L 405.230198 153.848083 
L 409.325861 153.848083 
L 413.421525 153.848083 
L 417.517189 153.848083 
L 421.612852 171.437827 
L 425.708516 171.437827 
L 429.80418 171.437827 
L 433.899843 171.437827 
L 437.995507 171.437827 
L 442.09117 171.437827 
L 446.186834 171.437827 
L 450.282498 171.437827 
L 454.378161 171.437827 
L 458.473825 171.437827 
L 462.569489 171.437827 
L 466.665152 171.437827 
L 470.760816 171.437827 
L 474.85648 171.437827 
L 478.952143 171.437827 
L 483.047807 171.437827 
" clip-path="url(#p505340c831)" style="fill: none; stroke-dasharray: 15,4.5; stroke-dashoffset: 7.5; stroke: #d62728; stroke-width: 1.5"/>
   </g>
   <g id="line2d_17">
    <path d="M 73.481443 153.848083 
L 77.577107 153.848083 
L 81.67277 153.848083 
L 85.768434 153.848083 
L 89.864098 153.848083 
L 93.959761 153.848083 
L 98.055425 153.848083 
L 102.151089 153.848083 
L 106.246752 153.848083 
L 110.342416 153.848083 
L 114.43808 169.618198 
L 118.533743 169.618198 
L 122.629407 169.618198 
L 126.72507 169.618198 
L 130.820734 186.51475 
L 134.916398 179.255491 
L 139.012061 179.255491 
L 143.107725 179.255491 
L 147.203389 179.255491 
L 151.299052 179.255491 
L 155.394716 179.255491 
L 159.49038 179.255491 
L 163.586043 179.255491 
L 167.681707 179.255491 
L 171.77737 171.437827 
L 175.873034 171.437827 
L 179.968698 171.437827 
L 184.064361 171.437827 
L 188.160025 171.437827 
L 192.255689 171.437827 
L 196.351352 171.437827 
L 200.447016 171.437827 
L 204.54268 171.437827 
L 208.638343 171.437827 
L 212.734007 171.437827 
L 216.82967 171.437827 
L 220.925334 171.437827 
L 225.020998 171.437827 
L 229.116661 171.437827 
L 233.212325 171.437827 
L 237.307989 171.437827 
L 241.403652 171.437827 
L 245.499316 171.437827 
L 249.59498 171.437827 
L 253.690643 171.437827 
L 257.786307 171.437827 
L 261.88197 171.437827 
L 265.977634 171.437827 
L 270.073298 171.437827 
L 274.168961 171.437827 
L 278.264625 171.437827 
L 282.360289 162.99475 
L 286.455952 162.99475 
L 290.551616 162.99475 
L 294.64728 162.99475 
L 298.742943 153.848083 
L 302.838607 153.848083 
L 306.93427 153.848083 
L 311.029934 153.848083 
L 315.125598 153.848083 
L 319.221261 153.848083 
L 323.316925 153.848083 
L 327.412589 153.848083 
L 331.508252 153.848083 
L 335.603916 153.848083 
L 339.69958 153.848083 
L 343.795243 153.848083 
L 347.890907 143.906054 
L 351.98657 143.906054 
L 356.082234 143.906054 
L 360.177898 186.51475 
L 364.273561 186.51475 
L 368.369225 186.51475 
L 372.464889 186.51475 
L 376.560552 186.51475 
L 380.656216 186.51475 
L 384.75188 186.51475 
L 388.847543 186.51475 
L 392.943207 186.51475 
L 397.03887 186.51475 
L 401.134534 186.51475 
L 405.230198 186.51475 
L 409.325861 211.01475 
L 413.421525 201.988434 
L 417.517189 201.988434 
L 421.612852 201.988434 
L 425.708516 201.988434 
L 429.80418 201.988434 
L 433.899843 201.988434 
L 437.995507 201.988434 
L 442.09117 201.988434 
L 446.186834 201.988434 
L 450.282498 191.959194 
L 454.378161 191.959194 
L 458.473825 191.959194 
L 462.569489 191.959194 
L 466.665152 191.959194 
L 470.760816 180.750044 
L 474.85648 180.750044 
L 478.952143 180.750044 
L 483.047807 211.01475 
" clip-path="url(#p505340c831)" style="fill: none; stroke-dasharray: 4.5,1.5,1.5,1.5,1.5,1.5; stroke-dashoffset: 0; stroke: #9467bd; stroke-width: 1.5"/>
   </g>
   <g id="line2d_18">
    <path d="M 73.481443 153.848083 
L 77.577107 153.848083 
L 81.67277 153.848083 
L 85.768434 153.848083 
L 89.864098 153.848083 
L 93.959761 153.848083 
L 98.055425 153.848083 
L 102.151089 153.848083 
L 106.246752 153.848083 
L 110.342416 153.848083 
L 114.43808 153.848083 
L 118.533743 153.848083 
L 122.629407 153.848083 
L 126.72507 153.848083 
L 130.820734 153.848083 
L 134.916398 153.848083 
L 139.012061 153.848083 
L 143.107725 204.662898 
L 147.203389 204.662898 
L 151.299052 239.598083 
L 155.394716 226.605659 
L 159.49038 306.292528 
L 163.586043 339.63975 
L 167.681707 333.51475 
L 171.77737 382.51475 
L 175.873034 382.51475 
L 179.968698 382.51475 
L 184.064361 382.51475 
L 188.160025 382.51475 
L 192.255689 382.51475 
L 196.351352 382.51475 
L 200.447016 382.51475 
L 204.54268 382.51475 
L 208.638343 382.51475 
L 212.734007 382.51475 
L 216.82967 382.51475 
L 220.925334 382.51475 
L 225.020998 382.51475 
L 229.116661 382.51475 
L 233.212325 382.51475 
L 237.307989 382.51475 
L 241.403652 382.51475 
L 245.499316 382.51475 
L 249.59498 382.51475 
L 253.690643 382.51475 
L 257.786307 382.51475 
L 261.88197 382.51475 
L 265.977634 382.51475 
L 270.073298 382.51475 
L 274.168961 382.51475 
L 278.264625 382.51475 
L 282.360289 382.51475 
L 286.455952 382.51475 
L 290.551616 382.51475 
L 294.64728 382.51475 
L 298.742943 382.51475 
L 302.838607 382.51475 
L 306.93427 382.51475 
L 311.029934 382.51475 
L 315.125598 382.51475 
L 319.221261 382.51475 
L 323.316925 382.51475 
L 327.412589 382.51475 
L 331.508252 382.51475 
L 335.603916 382.51475 
L 339.69958 382.51475 
L 343.795243 382.51475 
L 347.890907 382.51475 
L 351.98657 382.51475 
L 356.082234 382.51475 
L 360.177898 382.51475 
L 364.273561 382.51475 
L 368.369225 382.51475 
L 372.464889 382.51475 
L 376.560552 382.51475 
L 380.656216 382.51475 
L 384.75188 382.51475 
L 388.847543 382.51475 
L 392.943207 382.51475 
L 397.03887 382.51475 
L 401.134534 382.51475 
L 405.230198 382.51475 
L 409.325861 382.51475 
L 413.421525 382.51475 
L 417.517189 382.51475 
L 421.612852 382.51475 
L 425.708516 382.51475 
L 429.80418 382.51475 
L 433.899843 382.51475 
L 437.995507 382.51475 
L 442.09117 382.51475 
L 446.186834 382.51475 
L 450.282498 382.51475 
L 454.378161 382.51475 
L 458.473825 382.51475 
L 462.569489 382.51475 
L 466.665152 382.51475 
L 470.760816 382.51475 
L 474.85648 382.51475 
L 478.952143 382.51475 
L 483.047807 382.51475 
" clip-path="url(#p505340c831)" style="fill: none; stroke-dasharray: 4.5,1.5,1.5,1.5; stroke-dashoffset: 0; stroke: #8c564b; stroke-width: 1.5"/>
   </g>
   <g id="line2d_19">
    <path d="M 73.481443 153.848083 
L 77.577107 153.848083 
L 81.67277 153.848083 
L 85.768434 153.848083 
L 89.864098 153.848083 
L 93.959761 153.848083 
L 98.055425 153.848083 
L 102.151089 153.848083 
L 106.246752 153.848083 
L 110.342416 153.848083 
L 114.43808 153.848083 
L 118.533743 153.848083 
L 122.629407 153.848083 
L 126.72507 153.848083 
L 130.820734 153.848083 
L 134.916398 153.848083 
L 139.012061 153.848083 
L 143.107725 153.848083 
L 147.203389 153.848083 
L 151.299052 153.848083 
L 155.394716 153.848083 
L 159.49038 153.848083 
L 163.586043 153.848083 
L 167.681707 153.848083 
L 171.77737 153.848083 
L 175.873034 153.848083 
L 179.968698 153.848083 
L 184.064361 153.848083 
L 188.160025 153.848083 
L 192.255689 153.848083 
L 196.351352 153.848083 
L 200.447016 153.848083 
L 204.54268 153.848083 
L 208.638343 153.848083 
L 212.734007 153.848083 
L 216.82967 153.848083 
L 220.925334 153.848083 
L 225.020998 153.848083 
L 229.116661 153.848083 
L 233.212325 153.848083 
L 237.307989 153.848083 
L 241.403652 153.848083 
L 245.499316 153.848083 
L 249.59498 153.848083 
L 253.690643 169.618198 
L 257.786307 162.01475 
L 261.88197 197.822442 
L 265.977634 190.43475 
L 270.073298 211.01475 
L 274.168961 251.848083 
L 278.264625 245.31475 
L 282.360289 274.198961 
L 286.455952 274.198961 
L 290.551616 301.808868 
L 294.64728 301.808868 
L 298.742943 301.808868 
L 302.838607 339.63975 
L 306.93427 339.63975 
L 311.029934 336.781417 
L 315.125598 333.51475 
L 319.221261 329.745519 
L 323.316925 329.745519 
L 327.412589 329.745519 
L 331.508252 382.51475 
L 335.603916 382.51475 
L 339.69958 382.51475 
L 343.795243 382.51475 
L 347.890907 382.51475 
L 351.98657 382.51475 
L 356.082234 382.51475 
L 360.177898 382.51475 
L 364.273561 382.51475 
L 368.369225 382.51475 
L 372.464889 382.51475 
L 376.560552 382.51475 
L 380.656216 382.51475 
L 384.75188 382.51475 
L 388.847543 382.51475 
L 392.943207 382.51475 
L 397.03887 382.51475 
L 401.134534 382.51475 
L 405.230198 382.51475 
L 409.325861 382.51475 
L 413.421525 382.51475 
L 417.517189 382.51475 
L 421.612852 382.51475 
L 425.708516 382.51475 
L 429.80418 382.51475 
L 433.899843 382.51475 
L 437.995507 382.51475 
L 442.09117 382.51475 
L 446.186834 382.51475 
L 450.282498 382.51475 
L 454.378161 382.51475 
L 458.473825 382.51475 
L 462.569489 382.51475 
L 466.665152 382.51475 
L 470.760816 382.51475 
L 474.85648 382.51475 
L 478.952143 382.51475 
L 483.047807 382.51475 
" clip-path="url(#p505340c831)" style="fill: none; stroke-dasharray: 5.55,2.4; stroke-dashoffset: 0; stroke: #e377c2; stroke-width: 1.5"/>
   </g>
   <g id="line2d_20">
    <path d="M 73.481443 162.01475 
L 77.577107 162.01475 
L 81.67277 162.01475 
L 85.768434 162.01475 
L 89.864098 171.437827 
L 93.959761 190.43475 
L 98.055425 190.43475 
L 102.151089 203.558228 
L 106.246752 203.558228 
L 110.342416 226.605659 
L 114.43808 226.605659 
L 118.533743 251.848083 
L 122.629407 251.848083 
L 126.72507 251.848083 
L 130.820734 279.61475 
L 134.916398 279.61475 
L 139.012061 279.61475 
L 143.107725 279.61475 
L 147.203389 279.61475 
L 151.299052 310.304224 
L 155.394716 310.304224 
L 159.49038 310.304224 
L 163.586043 310.304224 
L 167.681707 306.292528 
L 171.77737 306.292528 
L 175.873034 306.292528 
L 179.968698 301.808868 
L 184.064361 301.808868 
L 188.160025 301.808868 
L 192.255689 339.63975 
L 196.351352 339.63975 
L 200.447016 382.51475 
L 204.54268 382.51475 
L 208.638343 382.51475 
L 212.734007 382.51475 
L 216.82967 382.51475 
L 220.925334 382.51475 
L 225.020998 382.51475 
L 229.116661 382.51475 
L 233.212325 382.51475 
L 237.307989 382.51475 
L 241.403652 382.51475 
L 245.499316 382.51475 
L 249.59498 382.51475 
L 253.690643 382.51475 
L 257.786307 382.51475 
L 261.88197 382.51475 
L 265.977634 382.51475 
L 270.073298 382.51475 
L 274.168961 382.51475 
L 278.264625 382.51475 
L 282.360289 382.51475 
L 286.455952 382.51475 
L 290.551616 382.51475 
L 294.64728 382.51475 
L 298.742943 382.51475 
L 302.838607 382.51475 
L 306.93427 382.51475 
L 311.029934 382.51475 
L 315.125598 382.51475 
L 319.221261 382.51475 
L 323.316925 382.51475 
L 327.412589 382.51475 
L 331.508252 382.51475 
L 335.603916 382.51475 
L 339.69958 382.51475 
L 343.795243 382.51475 
L 347.890907 382.51475 
L 351.98657 382.51475 
L 356.082234 382.51475 
L 360.177898 382.51475 
L 364.273561 382.51475 
L 368.369225 382.51475 
L 372.464889 382.51475 
L 376.560552 382.51475 
L 380.656216 382.51475 
L 384.75188 382.51475 
L 388.847543 382.51475 
L 392.943207 382.51475 
L 397.03887 382.51475 
L 401.134534 382.51475 
L 405.230198 382.51475 
L 409.325861 382.51475 
L 413.421525 382.51475 
L 417.517189 382.51475 
L 421.612852 382.51475 
L 425.708516 382.51475 
L 429.80418 382.51475 
L 433.899843 382.51475 
L 437.995507 382.51475 
L 442.09117 382.51475 
L 446.186834 382.51475 
L 450.282498 382.51475 
L 454.378161 382.51475 
L 458.473825 382.51475 
L 462.569489 382.51475 
L 466.665152 382.51475 
L 470.760816 382.51475 
L 474.85648 382.51475 
L 478.952143 382.51475 
L 483.047807 382.51475 
" clip-path="url(#p505340c831)" style="fill: none; stroke-dasharray: 1.5,2.475; stroke-dashoffset: 0; stroke: #7f7f7f; stroke-width: 1.5"/>
   </g>
   <g id="line2d_21">
    <path d="M 73.481443 153.848083 
L 77.577107 153.848083 
L 81.67277 153.848083 
L 85.768434 153.848083 
L 89.864098 153.848083 
L 93.959761 153.848083 
L 98.055425 153.848083 
L 102.151089 153.848083 
L 106.246752 153.848083 
L 110.342416 153.848083 
L 114.43808 153.848083 
L 118.533743 153.848083 
L 122.629407 153.848083 
L 126.72507 153.848083 
L 130.820734 153.848083 
L 134.916398 153.848083 
L 139.012061 153.848083 
L 143.107725 153.848083 
L 147.203389 153.848083 
L 151.299052 153.848083 
L 155.394716 153.848083 
L 159.49038 153.848083 
L 163.586043 153.848083 
L 167.681707 153.848083 
L 171.77737 153.848083 
L 175.873034 153.848083 
L 179.968698 153.848083 
L 184.064361 153.848083 
L 188.160025 153.848083 
L 192.255689 153.848083 
L 196.351352 153.848083 
L 200.447016 153.848083 
L 204.54268 153.848083 
L 208.638343 153.848083 
L 212.734007 153.848083 
L 216.82967 153.848083 
L 220.925334 153.848083 
L 225.020998 153.848083 
L 229.116661 153.848083 
L 233.212325 153.848083 
L 237.307989 162.01475 
L 241.403652 153.848083 
L 245.499316 153.848083 
L 249.59498 219.181417 
L 253.690643 211.01475 
L 257.786307 268.181417 
L 261.88197 291.048083 
L 265.977634 276.976288 
L 270.073298 382.51475 
L 274.168961 382.51475 
L 278.264625 382.51475 
L 282.360289 382.51475 
L 286.455952 382.51475 
L 290.551616 382.51475 
L 294.64728 382.51475 
L 298.742943 382.51475 
L 302.838607 382.51475 
L 306.93427 382.51475 
L 311.029934 382.51475 
L 315.125598 382.51475 
L 319.221261 382.51475 
L 323.316925 382.51475 
L 327.412589 382.51475 
L 331.508252 382.51475 
L 335.603916 382.51475 
L 339.69958 382.51475 
L 343.795243 382.51475 
L 347.890907 382.51475 
L 351.98657 382.51475 
L 356.082234 382.51475 
L 360.177898 382.51475 
L 364.273561 382.51475 
L 368.369225 382.51475 
L 372.464889 382.51475 
L 376.560552 382.51475 
L 380.656216 382.51475 
L 384.75188 382.51475 
L 388.847543 382.51475 
L 392.943207 382.51475 
L 397.03887 382.51475 
L 401.134534 382.51475 
L 405.230198 382.51475 
L 409.325861 382.51475 
L 413.421525 382.51475 
L 417.517189 382.51475 
L 421.612852 382.51475 
L 425.708516 382.51475 
L 429.80418 382.51475 
L 433.899843 382.51475 
L 437.995507 382.51475 
L 442.09117 382.51475 
L 446.186834 382.51475 
L 450.282498 382.51475 
L 454.378161 382.51475 
L 458.473825 382.51475 
L 462.569489 382.51475 
L 466.665152 382.51475 
L 470.760816 382.51475 
L 474.85648 382.51475 
L 478.952143 382.51475 
L 483.047807 382.51475 
" clip-path="url(#p505340c831)" style="fill: none; stroke-dasharray: 9.6,2.4,1.5,2.4; stroke-dashoffset: 0; stroke: #bcbd22; stroke-width: 1.5"/>
   </g>
   <g id="line2d_22">
    <path d="M 73.481443 153.848083 
L 77.577107 153.848083 
L 81.67277 153.848083 
L 85.768434 153.848083 
L 89.864098 153.848083 
L 93.959761 153.848083 
L 98.055425 153.848083 
L 102.151089 153.848083 
L 106.246752 153.848083 
L 110.342416 153.848083 
L 114.43808 153.848083 
L 118.533743 153.848083 
L 122.629407 186.51475 
L 126.72507 179.255491 
L 130.820734 190.43475 
L 134.916398 203.558228 
L 139.012061 226.605659 
L 143.107725 301.808868 
L 147.203389 336.781417 
L 151.299052 382.51475 
L 155.394716 382.51475 
L 159.49038 382.51475 
L 163.586043 382.51475 
L 167.681707 382.51475 
L 171.77737 382.51475 
L 175.873034 382.51475 
L 179.968698 382.51475 
L 184.064361 382.51475 
L 188.160025 382.51475 
L 192.255689 382.51475 
L 196.351352 382.51475 
L 200.447016 382.51475 
L 204.54268 382.51475 
L 208.638343 382.51475 
L 212.734007 382.51475 
L 216.82967 382.51475 
L 220.925334 382.51475 
L 225.020998 382.51475 
L 229.116661 382.51475 
L 233.212325 382.51475 
L 237.307989 382.51475 
L 241.403652 382.51475 
L 245.499316 382.51475 
L 249.59498 382.51475 
L 253.690643 382.51475 
L 257.786307 382.51475 
L 261.88197 382.51475 
L 265.977634 382.51475 
L 270.073298 382.51475 
L 274.168961 382.51475 
L 278.264625 382.51475 
L 282.360289 382.51475 
L 286.455952 382.51475 
L 290.551616 382.51475 
L 294.64728 382.51475 
L 298.742943 382.51475 
L 302.838607 382.51475 
L 306.93427 382.51475 
L 311.029934 382.51475 
L 315.125598 382.51475 
L 319.221261 382.51475 
L 323.316925 382.51475 
L 327.412589 382.51475 
L 331.508252 382.51475 
L 335.603916 382.51475 
L 339.69958 382.51475 
L 343.795243 382.51475 
L 347.890907 382.51475 
L 351.98657 382.51475 
L 356.082234 382.51475 
L 360.177898 382.51475 
L 364.273561 382.51475 
L 368.369225 382.51475 
L 372.464889 382.51475 
L 376.560552 382.51475 
L 380.656216 382.51475 
L 384.75188 382.51475 
L 388.847543 382.51475 
L 392.943207 382.51475 
L 397.03887 382.51475 
L 401.134534 382.51475 
L 405.230198 382.51475 
L 409.325861 382.51475 
L 413.421525 382.51475 
L 417.517189 382.51475 
L 421.612852 382.51475 
L 425.708516 382.51475 
L 429.80418 382.51475 
L 433.899843 382.51475 
L 437.995507 382.51475 
L 442.09117 382.51475 
L 446.186834 382.51475 
L 450.282498 382.51475 
L 454.378161 382.51475 
L 458.473825 382.51475 
L 462.569489 382.51475 
L 466.665152 382.51475 
L 470.760816 382.51475 
L 474.85648 382.51475 
L 478.952143 382.51475 
L 483.047807 382.51475 
" clip-path="url(#p505340c831)" style="fill: none; stroke-dasharray: 15,4.5; stroke-dashoffset: 7.5; stroke: #17becf; stroke-width: 1.5"/>
   </g>
   <g id="patch_3">
    <path d="M 53.003125 382.51475 
L 53.003125 39.51475 
" style="fill: none; stroke: #000000; stroke-width: 0.8; stroke-linejoin: miter; stroke-linecap: square"/>
   </g>
   <g id="patch_4">
    <path d="M 503.526125 382.51475 
L 503.526125 39.51475 
" style="fill: none; stroke: #000000; stroke-width: 0.8; stroke-linejoin: miter; stroke-linecap: square"/>
   </g>
   <g id="patch_5">
    <path d="M 53.003125 382.51475 
L 503.526125 382.51475 
" style="fill: none; stroke: #000000; stroke-width: 0.8; stroke-linejoin: miter; stroke-linecap: square"/>
   </g>
   <g id="patch_6">
    <path d="M 53.003125 39.51475 
L 503.526125 39.51475 
" style="fill: none; stroke: #000000; stroke-width: 0.8; stroke-linejoin: miter; stroke-linecap: square"/>
   </g>
   <g id="text_15">
    <!-- Threshold vs F1 Score -->
    <g transform="translate(201.224156 17.837812) scale(0.14 -0.14)">
     <defs>
      <path id="DejaVuSans-76" d="M 191 3500 
L 800 3500 
L 1894 563 
L 2988 3500 
L 3597 3500 
L 2284 0 
L 1503 0 
L 191 3500 
z
" transform="scale(0.015625)"/>
     </defs>
     <use xlink:href="#DejaVuSans-54"/>
     <use xlink:href="#DejaVuSans-68" transform="translate(61.083984 0)"/>
     <use xlink:href="#DejaVuSans-72" transform="translate(124.462891 0)"/>
     <use xlink:href="#DejaVuSans-65" transform="translate(163.326172 0)"/>
     <use xlink:href="#DejaVuSans-73" transform="translate(224.849609 0)"/>
     <use xlink:href="#DejaVuSans-68" transform="translate(276.949219 0)"/>
     <use xlink:href="#DejaVuSans-6f" transform="translate(340.328125 0)"/>
     <use xlink:href="#DejaVuSans-6c" transform="translate(401.509766 0)"/>
     <use xlink:href="#DejaVuSans-64" transform="translate(429.292969 0)"/>
     <use xlink:href="#DejaVuSans-20" transform="translate(492.769531 0)"/>
     <use xlink:href="#DejaVuSans-76" transform="translate(524.556641 0)"/>
     <use xlink:href="#DejaVuSans-73" transform="translate(583.736328 0)"/>
     <use xlink:href="#DejaVuSans-20" transform="translate(635.835938 0)"/>
     <use xlink:href="#DejaVuSans-46" transform="translate(667.623047 0)"/>
     <use xlink:href="#DejaVuSans-31" transform="translate(725.142578 0)"/>
     <use xlink:href="#DejaVuSans-20" transform="translate(788.765625 0)"/>
     <use xlink:href="#DejaVuSans-53" transform="translate(820.552734 0)"/>
     <use xlink:href="#DejaVuSans-63" transform="translate(884.029297 0)"/>
     <use xlink:href="#DejaVuSans-6f" transform="translate(939.009766 0)"/>
     <use xlink:href="#DejaVuSans-72" transform="translate(1000.191406 0)"/>
     <use xlink:href="#DejaVuSans-65" transform="translate(1039.054688 0)"/>
    </g>
    <!-- in Human-Human scenario -->
    <g transform="translate(184.785094 33.51475) scale(0.14 -0.14)">
     <defs>
      <path id="DejaVuSans-69" d="M 603 3500 
L 1178 3500 
L 1178 0 
L 603 0 
L 603 3500 
z
M 603 4863 
L 1178 4863 
L 1178 4134 
L 603 4134 
L 603 4863 
z
" transform="scale(0.015625)"/>
      <path id="DejaVuSans-6e" d="M 3513 2113 
L 3513 0 
L 2938 0 
L 2938 2094 
Q 2938 2591 2744 2837 
Q 2550 3084 2163 3084 
Q 1697 3084 1428 2787 
Q 1159 2491 1159 1978 
L 1159 0 
L 581 0 
L 581 3500 
L 1159 3500 
L 1159 2956 
Q 1366 3272 1645 3428 
Q 1925 3584 2291 3584 
Q 2894 3584 3203 3211 
Q 3513 2838 3513 2113 
z
" transform="scale(0.015625)"/>
      <path id="DejaVuSans-48" d="M 628 4666 
L 1259 4666 
L 1259 2753 
L 3553 2753 
L 3553 4666 
L 4184 4666 
L 4184 0 
L 3553 0 
L 3553 2222 
L 1259 2222 
L 1259 0 
L 628 0 
L 628 4666 
z
" transform="scale(0.015625)"/>
      <path id="DejaVuSans-75" d="M 544 1381 
L 544 3500 
L 1119 3500 
L 1119 1403 
Q 1119 906 1312 657 
Q 1506 409 1894 409 
Q 2359 409 2629 706 
Q 2900 1003 2900 1516 
L 2900 3500 
L 3475 3500 
L 3475 0 
L 2900 0 
L 2900 538 
Q 2691 219 2414 64 
Q 2138 -91 1772 -91 
Q 1169 -91 856 284 
Q 544 659 544 1381 
z
M 1991 3584 
L 1991 3584 
z
" transform="scale(0.015625)"/>
      <path id="DejaVuSans-6d" d="M 3328 2828 
Q 3544 3216 3844 3400 
Q 4144 3584 4550 3584 
Q 5097 3584 5394 3201 
Q 5691 2819 5691 2113 
L 5691 0 
L 5113 0 
L 5113 2094 
Q 5113 2597 4934 2840 
Q 4756 3084 4391 3084 
Q 3944 3084 3684 2787 
Q 3425 2491 3425 1978 
L 3425 0 
L 2847 0 
L 2847 2094 
Q 2847 2600 2669 2842 
Q 2491 3084 2119 3084 
Q 1678 3084 1418 2786 
Q 1159 2488 1159 1978 
L 1159 0 
L 581 0 
L 581 3500 
L 1159 3500 
L 1159 2956 
Q 1356 3278 1631 3431 
Q 1906 3584 2284 3584 
Q 2666 3584 2933 3390 
Q 3200 3197 3328 2828 
z
" transform="scale(0.015625)"/>
      <path id="DejaVuSans-61" d="M 2194 1759 
Q 1497 1759 1228 1600 
Q 959 1441 959 1056 
Q 959 750 1161 570 
Q 1363 391 1709 391 
Q 2188 391 2477 730 
Q 2766 1069 2766 1631 
L 2766 1759 
L 2194 1759 
z
M 3341 1997 
L 3341 0 
L 2766 0 
L 2766 531 
Q 2569 213 2275 61 
Q 1981 -91 1556 -91 
Q 1019 -91 701 211 
Q 384 513 384 1019 
Q 384 1609 779 1909 
Q 1175 2209 1959 2209 
L 2766 2209 
L 2766 2266 
Q 2766 2663 2505 2880 
Q 2244 3097 1772 3097 
Q 1472 3097 1187 3025 
Q 903 2953 641 2809 
L 641 3341 
Q 956 3463 1253 3523 
Q 1550 3584 1831 3584 
Q 2591 3584 2966 3190 
Q 3341 2797 3341 1997 
z
" transform="scale(0.015625)"/>
      <path id="DejaVuSans-2d" d="M 313 2009 
L 1997 2009 
L 1997 1497 
L 313 1497 
L 313 2009 
z
" transform="scale(0.015625)"/>
     </defs>
     <use xlink:href="#DejaVuSans-69"/>
     <use xlink:href="#DejaVuSans-6e" transform="translate(27.783203 0)"/>
     <use xlink:href="#DejaVuSans-20" transform="translate(91.162109 0)"/>
     <use xlink:href="#DejaVuSans-48" transform="translate(122.949219 0)"/>
     <use xlink:href="#DejaVuSans-75" transform="translate(198.144531 0)"/>
     <use xlink:href="#DejaVuSans-6d" transform="translate(261.523438 0)"/>
     <use xlink:href="#DejaVuSans-61" transform="translate(358.935547 0)"/>
     <use xlink:href="#DejaVuSans-6e" transform="translate(420.214844 0)"/>
     <use xlink:href="#DejaVuSans-2d" transform="translate(483.59375 0)"/>
     <use xlink:href="#DejaVuSans-48" transform="translate(519.677734 0)"/>
     <use xlink:href="#DejaVuSans-75" transform="translate(594.873047 0)"/>
     <use xlink:href="#DejaVuSans-6d" transform="translate(658.251953 0)"/>
     <use xlink:href="#DejaVuSans-61" transform="translate(755.664062 0)"/>
     <use xlink:href="#DejaVuSans-6e" transform="translate(816.943359 0)"/>
     <use xlink:href="#DejaVuSans-20" transform="translate(880.322266 0)"/>
     <use xlink:href="#DejaVuSans-73" transform="translate(912.109375 0)"/>
     <use xlink:href="#DejaVuSans-63" transform="translate(964.208984 0)"/>
     <use xlink:href="#DejaVuSans-65" transform="translate(1019.189453 0)"/>
     <use xlink:href="#DejaVuSans-6e" transform="translate(1080.712891 0)"/>
     <use xlink:href="#DejaVuSans-61" transform="translate(1144.091797 0)"/>
     <use xlink:href="#DejaVuSans-72" transform="translate(1205.371094 0)"/>
     <use xlink:href="#DejaVuSans-69" transform="translate(1246.484375 0)"/>
     <use xlink:href="#DejaVuSans-6f" transform="translate(1274.267578 0)"/>
    </g>
   </g>
   <g id="legend_1">
    <g id="line2d_23">
     <path d="M 521.536585 143.805375 
L 531.536585 143.805375 
L 541.536585 143.805375 
" style="fill: none; stroke-dasharray: 5.55,2.4; stroke-dashoffset: 0; stroke: #1f77b4; stroke-width: 1.5"/>
    </g>
    <g id="text_16">
     <!-- content -->
     <g transform="translate(549.536585 147.305375) scale(0.1 -0.1)">
      <defs>
       <path id="DejaVuSans-74" d="M 1172 4494 
L 1172 3500 
L 2356 3500 
L 2356 3053 
L 1172 3053 
L 1172 1153 
Q 1172 725 1289 603 
Q 1406 481 1766 481 
L 2356 481 
L 2356 0 
L 1766 0 
Q 1100 0 847 248 
Q 594 497 594 1153 
L 594 3053 
L 172 3053 
L 172 3500 
L 594 3500 
L 594 4494 
L 1172 4494 
z
" transform="scale(0.015625)"/>
      </defs>
      <use xlink:href="#DejaVuSans-63"/>
      <use xlink:href="#DejaVuSans-6f" transform="translate(54.980469 0)"/>
      <use xlink:href="#DejaVuSans-6e" transform="translate(116.162109 0)"/>
      <use xlink:href="#DejaVuSans-74" transform="translate(179.541016 0)"/>
      <use xlink:href="#DejaVuSans-65" transform="translate(218.75 0)"/>
      <use xlink:href="#DejaVuSans-6e" transform="translate(280.273438 0)"/>
      <use xlink:href="#DejaVuSans-74" transform="translate(343.652344 0)"/>
     </g>
    </g>
    <g id="line2d_24">
     <path d="M 521.536585 158.4835 
L 531.536585 158.4835 
L 541.536585 158.4835 
" style="fill: none; stroke-dasharray: 1.5,2.475; stroke-dashoffset: 0; stroke: #ff7f0e; stroke-width: 1.5"/>
    </g>
    <g id="text_17">
     <!-- fixed -->
     <g transform="translate(549.536585 161.9835) scale(0.1 -0.1)">
      <defs>
       <path id="DejaVuSans-66" d="M 2375 4863 
L 2375 4384 
L 1825 4384 
Q 1516 4384 1395 4259 
Q 1275 4134 1275 3809 
L 1275 3500 
L 2222 3500 
L 2222 3053 
L 1275 3053 
L 1275 0 
L 697 0 
L 697 3053 
L 147 3053 
L 147 3500 
L 697 3500 
L 697 3744 
Q 697 4328 969 4595 
Q 1241 4863 1831 4863 
L 2375 4863 
z
" transform="scale(0.015625)"/>
       <path id="DejaVuSans-78" d="M 3513 3500 
L 2247 1797 
L 3578 0 
L 2900 0 
L 1881 1375 
L 863 0 
L 184 0 
L 1544 1831 
L 300 3500 
L 978 3500 
L 1906 2253 
L 2834 3500 
L 3513 3500 
z
" transform="scale(0.015625)"/>
      </defs>
      <use xlink:href="#DejaVuSans-66"/>
      <use xlink:href="#DejaVuSans-69" transform="translate(35.205078 0)"/>
      <use xlink:href="#DejaVuSans-78" transform="translate(62.988281 0)"/>
      <use xlink:href="#DejaVuSans-65" transform="translate(119.042969 0)"/>
      <use xlink:href="#DejaVuSans-64" transform="translate(180.566406 0)"/>
     </g>
    </g>
    <g id="line2d_25">
     <path d="M 521.536585 173.161625 
L 531.536585 173.161625 
L 541.536585 173.161625 
" style="fill: none; stroke-dasharray: 9.6,2.4,1.5,2.4; stroke-dashoffset: 0; stroke: #2ca02c; stroke-width: 1.5"/>
    </g>
    <g id="text_18">
     <!-- text_len -->
     <g transform="translate(549.536585 176.661625) scale(0.1 -0.1)">
      <defs>
       <path id="DejaVuSans-5f" d="M 3263 -1063 
L 3263 -1509 
L -63 -1509 
L -63 -1063 
L 3263 -1063 
z
" transform="scale(0.015625)"/>
      </defs>
      <use xlink:href="#DejaVuSans-74"/>
      <use xlink:href="#DejaVuSans-65" transform="translate(39.208984 0)"/>
      <use xlink:href="#DejaVuSans-78" transform="translate(98.982422 0)"/>
      <use xlink:href="#DejaVuSans-74" transform="translate(158.162109 0)"/>
      <use xlink:href="#DejaVuSans-5f" transform="translate(197.371094 0)"/>
      <use xlink:href="#DejaVuSans-6c" transform="translate(247.371094 0)"/>
      <use xlink:href="#DejaVuSans-65" transform="translate(275.154297 0)"/>
      <use xlink:href="#DejaVuSans-6e" transform="translate(336.677734 0)"/>
     </g>
    </g>
    <g id="line2d_26">
     <path d="M 521.536585 188.117875 
L 531.536585 188.117875 
L 541.536585 188.117875 
" style="fill: none; stroke-dasharray: 15,4.5; stroke-dashoffset: 7.5; stroke: #d62728; stroke-width: 1.5"/>
    </g>
    <g id="text_19">
     <!-- mirror_minds -->
     <g transform="translate(549.536585 191.617875) scale(0.1 -0.1)">
      <use xlink:href="#DejaVuSans-6d"/>
      <use xlink:href="#DejaVuSans-69" transform="translate(97.412109 0)"/>
      <use xlink:href="#DejaVuSans-72" transform="translate(125.195312 0)"/>
      <use xlink:href="#DejaVuSans-72" transform="translate(164.558594 0)"/>
      <use xlink:href="#DejaVuSans-6f" transform="translate(203.421875 0)"/>
      <use xlink:href="#DejaVuSans-72" transform="translate(264.603516 0)"/>
      <use xlink:href="#DejaVuSans-5f" transform="translate(305.716797 0)"/>
      <use xlink:href="#DejaVuSans-6d" transform="translate(355.716797 0)"/>
      <use xlink:href="#DejaVuSans-69" transform="translate(453.128906 0)"/>
      <use xlink:href="#DejaVuSans-6e" transform="translate(480.912109 0)"/>
      <use xlink:href="#DejaVuSans-64" transform="translate(544.291016 0)"/>
      <use xlink:href="#DejaVuSans-73" transform="translate(607.767578 0)"/>
     </g>
    </g>
    <g id="line2d_27">
     <path d="M 521.536585 203.074125 
L 531.536585 203.074125 
L 541.536585 203.074125 
" style="fill: none; stroke-dasharray: 4.5,1.5,1.5,1.5,1.5,1.5; stroke-dashoffset: 0; stroke: #9467bd; stroke-width: 1.5"/>
    </g>
    <g id="text_20">
     <!-- naive_llm -->
     <g transform="translate(549.536585 206.574125) scale(0.1 -0.1)">
      <use xlink:href="#DejaVuSans-6e"/>
      <use xlink:href="#DejaVuSans-61" transform="translate(63.378906 0)"/>
      <use xlink:href="#DejaVuSans-69" transform="translate(124.658203 0)"/>
      <use xlink:href="#DejaVuSans-76" transform="translate(152.441406 0)"/>
      <use xlink:href="#DejaVuSans-65" transform="translate(211.621094 0)"/>
      <use xlink:href="#DejaVuSans-5f" transform="translate(273.144531 0)"/>
      <use xlink:href="#DejaVuSans-6c" transform="translate(323.144531 0)"/>
      <use xlink:href="#DejaVuSans-6c" transform="translate(350.927734 0)"/>
      <use xlink:href="#DejaVuSans-6d" transform="translate(378.710938 0)"/>
     </g>
    </g>
    <g id="line2d_28">
     <path d="M 521.536585 218.030375 
L 531.536585 218.030375 
L 541.536585 218.030375 
" style="fill: none; stroke-dasharray: 4.5,1.5,1.5,1.5; stroke-dashoffset: 0; stroke: #8c564b; stroke-width: 1.5"/>
    </g>
    <g id="text_21">
     <!-- unsupervised baseline min-max -->
     <g transform="translate(549.536585 221.530375) scale(0.1 -0.1)">
      <defs>
       <path id="DejaVuSans-70" d="M 1159 525 
L 1159 -1331 
L 581 -1331 
L 581 3500 
L 1159 3500 
L 1159 2969 
Q 1341 3281 1617 3432 
Q 1894 3584 2278 3584 
Q 2916 3584 3314 3078 
Q 3713 2572 3713 1747 
Q 3713 922 3314 415 
Q 2916 -91 2278 -91 
Q 1894 -91 1617 61 
Q 1341 213 1159 525 
z
M 3116 1747 
Q 3116 2381 2855 2742 
Q 2594 3103 2138 3103 
Q 1681 3103 1420 2742 
Q 1159 2381 1159 1747 
Q 1159 1113 1420 752 
Q 1681 391 2138 391 
Q 2594 391 2855 752 
Q 3116 1113 3116 1747 
z
" transform="scale(0.015625)"/>
       <path id="DejaVuSans-62" d="M 3116 1747 
Q 3116 2381 2855 2742 
Q 2594 3103 2138 3103 
Q 1681 3103 1420 2742 
Q 1159 2381 1159 1747 
Q 1159 1113 1420 752 
Q 1681 391 2138 391 
Q 2594 391 2855 752 
Q 3116 1113 3116 1747 
z
M 1159 2969 
Q 1341 3281 1617 3432 
Q 1894 3584 2278 3584 
Q 2916 3584 3314 3078 
Q 3713 2572 3713 1747 
Q 3713 922 3314 415 
Q 2916 -91 2278 -91 
Q 1894 -91 1617 61 
Q 1341 213 1159 525 
L 1159 0 
L 581 0 
L 581 4863 
L 1159 4863 
L 1159 2969 
z
" transform="scale(0.015625)"/>
      </defs>
      <use xlink:href="#DejaVuSans-75"/>
      <use xlink:href="#DejaVuSans-6e" transform="translate(63.378906 0)"/>
      <use xlink:href="#DejaVuSans-73" transform="translate(126.757812 0)"/>
      <use xlink:href="#DejaVuSans-75" transform="translate(178.857422 0)"/>
      <use xlink:href="#DejaVuSans-70" transform="translate(242.236328 0)"/>
      <use xlink:href="#DejaVuSans-65" transform="translate(305.712891 0)"/>
      <use xlink:href="#DejaVuSans-72" transform="translate(367.236328 0)"/>
      <use xlink:href="#DejaVuSans-76" transform="translate(408.349609 0)"/>
      <use xlink:href="#DejaVuSans-69" transform="translate(467.529297 0)"/>
      <use xlink:href="#DejaVuSans-73" transform="translate(495.3125 0)"/>
      <use xlink:href="#DejaVuSans-65" transform="translate(547.412109 0)"/>
      <use xlink:href="#DejaVuSans-64" transform="translate(608.935547 0)"/>
      <use xlink:href="#DejaVuSans-20" transform="translate(672.412109 0)"/>
      <use xlink:href="#DejaVuSans-62" transform="translate(704.199219 0)"/>
      <use xlink:href="#DejaVuSans-61" transform="translate(767.675781 0)"/>
      <use xlink:href="#DejaVuSans-73" transform="translate(828.955078 0)"/>
      <use xlink:href="#DejaVuSans-65" transform="translate(881.054688 0)"/>
      <use xlink:href="#DejaVuSans-6c" transform="translate(942.578125 0)"/>
      <use xlink:href="#DejaVuSans-69" transform="translate(970.361328 0)"/>
      <use xlink:href="#DejaVuSans-6e" transform="translate(998.144531 0)"/>
      <use xlink:href="#DejaVuSans-65" transform="translate(1061.523438 0)"/>
      <use xlink:href="#DejaVuSans-20" transform="translate(1123.046875 0)"/>
      <use xlink:href="#DejaVuSans-6d" transform="translate(1154.833984 0)"/>
      <use xlink:href="#DejaVuSans-69" transform="translate(1252.246094 0)"/>
      <use xlink:href="#DejaVuSans-6e" transform="translate(1280.029297 0)"/>
      <use xlink:href="#DejaVuSans-2d" transform="translate(1343.408203 0)"/>
      <use xlink:href="#DejaVuSans-6d" transform="translate(1379.492188 0)"/>
      <use xlink:href="#DejaVuSans-61" transform="translate(1476.904297 0)"/>
      <use xlink:href="#DejaVuSans-78" transform="translate(1538.183594 0)"/>
     </g>
    </g>
    <g id="line2d_29">
     <path d="M 521.536585 232.7085 
L 531.536585 232.7085 
L 541.536585 232.7085 
" style="fill: none; stroke-dasharray: 5.55,2.4; stroke-dashoffset: 0; stroke: #e377c2; stroke-width: 1.5"/>
    </g>
    <g id="text_22">
     <!-- unsupervised baseline cosine -->
     <g transform="translate(549.536585 236.2085) scale(0.1 -0.1)">
      <use xlink:href="#DejaVuSans-75"/>
      <use xlink:href="#DejaVuSans-6e" transform="translate(63.378906 0)"/>
      <use xlink:href="#DejaVuSans-73" transform="translate(126.757812 0)"/>
      <use xlink:href="#DejaVuSans-75" transform="translate(178.857422 0)"/>
      <use xlink:href="#DejaVuSans-70" transform="translate(242.236328 0)"/>
      <use xlink:href="#DejaVuSans-65" transform="translate(305.712891 0)"/>
      <use xlink:href="#DejaVuSans-72" transform="translate(367.236328 0)"/>
      <use xlink:href="#DejaVuSans-76" transform="translate(408.349609 0)"/>
      <use xlink:href="#DejaVuSans-69" transform="translate(467.529297 0)"/>
      <use xlink:href="#DejaVuSans-73" transform="translate(495.3125 0)"/>
      <use xlink:href="#DejaVuSans-65" transform="translate(547.412109 0)"/>
      <use xlink:href="#DejaVuSans-64" transform="translate(608.935547 0)"/>
      <use xlink:href="#DejaVuSans-20" transform="translate(672.412109 0)"/>
      <use xlink:href="#DejaVuSans-62" transform="translate(704.199219 0)"/>
      <use xlink:href="#DejaVuSans-61" transform="translate(767.675781 0)"/>
      <use xlink:href="#DejaVuSans-73" transform="translate(828.955078 0)"/>
      <use xlink:href="#DejaVuSans-65" transform="translate(881.054688 0)"/>
      <use xlink:href="#DejaVuSans-6c" transform="translate(942.578125 0)"/>
      <use xlink:href="#DejaVuSans-69" transform="translate(970.361328 0)"/>
      <use xlink:href="#DejaVuSans-6e" transform="translate(998.144531 0)"/>
      <use xlink:href="#DejaVuSans-65" transform="translate(1061.523438 0)"/>
      <use xlink:href="#DejaVuSans-20" transform="translate(1123.046875 0)"/>
      <use xlink:href="#DejaVuSans-63" transform="translate(1154.833984 0)"/>
      <use xlink:href="#DejaVuSans-6f" transform="translate(1209.814453 0)"/>
      <use xlink:href="#DejaVuSans-73" transform="translate(1270.996094 0)"/>
      <use xlink:href="#DejaVuSans-69" transform="translate(1323.095703 0)"/>
      <use xlink:href="#DejaVuSans-6e" transform="translate(1350.878906 0)"/>
      <use xlink:href="#DejaVuSans-65" transform="translate(1414.257812 0)"/>
     </g>
    </g>
    <g id="line2d_30">
     <path d="M 521.536585 247.386625 
L 531.536585 247.386625 
L 541.536585 247.386625 
" style="fill: none; stroke-dasharray: 1.5,2.475; stroke-dashoffset: 0; stroke: #7f7f7f; stroke-width: 1.5"/>
    </g>
    <g id="text_23">
     <!-- supervised baseline -->
     <g transform="translate(549.536585 250.886625) scale(0.1 -0.1)">
      <use xlink:href="#DejaVuSans-73"/>
      <use xlink:href="#DejaVuSans-75" transform="translate(52.099609 0)"/>
      <use xlink:href="#DejaVuSans-70" transform="translate(115.478516 0)"/>
      <use xlink:href="#DejaVuSans-65" transform="translate(178.955078 0)"/>
      <use xlink:href="#DejaVuSans-72" transform="translate(240.478516 0)"/>
      <use xlink:href="#DejaVuSans-76" transform="translate(281.591797 0)"/>
      <use xlink:href="#DejaVuSans-69" transform="translate(340.771484 0)"/>
      <use xlink:href="#DejaVuSans-73" transform="translate(368.554688 0)"/>
      <use xlink:href="#DejaVuSans-65" transform="translate(420.654297 0)"/>
      <use xlink:href="#DejaVuSans-64" transform="translate(482.177734 0)"/>
      <use xlink:href="#DejaVuSans-20" transform="translate(545.654297 0)"/>
      <use xlink:href="#DejaVuSans-62" transform="translate(577.441406 0)"/>
      <use xlink:href="#DejaVuSans-61" transform="translate(640.917969 0)"/>
      <use xlink:href="#DejaVuSans-73" transform="translate(702.197266 0)"/>
      <use xlink:href="#DejaVuSans-65" transform="translate(754.296875 0)"/>
      <use xlink:href="#DejaVuSans-6c" transform="translate(815.820312 0)"/>
      <use xlink:href="#DejaVuSans-69" transform="translate(843.603516 0)"/>
      <use xlink:href="#DejaVuSans-6e" transform="translate(871.386719 0)"/>
      <use xlink:href="#DejaVuSans-65" transform="translate(934.765625 0)"/>
     </g>
    </g>
    <g id="line2d_31">
     <path d="M 521.536585 262.06475 
L 531.536585 262.06475 
L 541.536585 262.06475 
" style="fill: none; stroke-dasharray: 9.6,2.4,1.5,2.4; stroke-dashoffset: 0; stroke: #bcbd22; stroke-width: 1.5"/>
    </g>
    <g id="text_24">
     <!-- unmasking baseline -->
     <g transform="translate(549.536585 265.56475) scale(0.1 -0.1)">
      <defs>
       <path id="DejaVuSans-6b" d="M 581 4863 
L 1159 4863 
L 1159 1991 
L 2875 3500 
L 3609 3500 
L 1753 1863 
L 3688 0 
L 2938 0 
L 1159 1709 
L 1159 0 
L 581 0 
L 581 4863 
z
" transform="scale(0.015625)"/>
       <path id="DejaVuSans-67" d="M 2906 1791 
Q 2906 2416 2648 2759 
Q 2391 3103 1925 3103 
Q 1463 3103 1205 2759 
Q 947 2416 947 1791 
Q 947 1169 1205 825 
Q 1463 481 1925 481 
Q 2391 481 2648 825 
Q 2906 1169 2906 1791 
z
M 3481 434 
Q 3481 -459 3084 -895 
Q 2688 -1331 1869 -1331 
Q 1566 -1331 1297 -1286 
Q 1028 -1241 775 -1147 
L 775 -588 
Q 1028 -725 1275 -790 
Q 1522 -856 1778 -856 
Q 2344 -856 2625 -561 
Q 2906 -266 2906 331 
L 2906 616 
Q 2728 306 2450 153 
Q 2172 0 1784 0 
Q 1141 0 747 490 
Q 353 981 353 1791 
Q 353 2603 747 3093 
Q 1141 3584 1784 3584 
Q 2172 3584 2450 3431 
Q 2728 3278 2906 2969 
L 2906 3500 
L 3481 3500 
L 3481 434 
z
" transform="scale(0.015625)"/>
      </defs>
      <use xlink:href="#DejaVuSans-75"/>
      <use xlink:href="#DejaVuSans-6e" transform="translate(63.378906 0)"/>
      <use xlink:href="#DejaVuSans-6d" transform="translate(126.757812 0)"/>
      <use xlink:href="#DejaVuSans-61" transform="translate(224.169922 0)"/>
      <use xlink:href="#DejaVuSans-73" transform="translate(285.449219 0)"/>
      <use xlink:href="#DejaVuSans-6b" transform="translate(337.548828 0)"/>
      <use xlink:href="#DejaVuSans-69" transform="translate(395.458984 0)"/>
      <use xlink:href="#DejaVuSans-6e" transform="translate(423.242188 0)"/>
      <use xlink:href="#DejaVuSans-67" transform="translate(486.621094 0)"/>
      <use xlink:href="#DejaVuSans-20" transform="translate(550.097656 0)"/>
      <use xlink:href="#DejaVuSans-62" transform="translate(581.884766 0)"/>
      <use xlink:href="#DejaVuSans-61" transform="translate(645.361328 0)"/>
      <use xlink:href="#DejaVuSans-73" transform="translate(706.640625 0)"/>
      <use xlink:href="#DejaVuSans-65" transform="translate(758.740234 0)"/>
      <use xlink:href="#DejaVuSans-6c" transform="translate(820.263672 0)"/>
      <use xlink:href="#DejaVuSans-69" transform="translate(848.046875 0)"/>
      <use xlink:href="#DejaVuSans-6e" transform="translate(875.830078 0)"/>
      <use xlink:href="#DejaVuSans-65" transform="translate(939.208984 0)"/>
     </g>
    </g>
    <g id="line2d_32">
     <path d="M 521.536585 276.742875 
L 531.536585 276.742875 
L 541.536585 276.742875 
" style="fill: none; stroke-dasharray: 15,4.5; stroke-dashoffset: 7.5; stroke: #17becf; stroke-width: 1.5"/>
    </g>
    <g id="text_25">
     <!-- ppmd baseline -->
     <g transform="translate(549.536585 280.242875) scale(0.1 -0.1)">
      <use xlink:href="#DejaVuSans-70"/>
      <use xlink:href="#DejaVuSans-70" transform="translate(63.476562 0)"/>
      <use xlink:href="#DejaVuSans-6d" transform="translate(126.953125 0)"/>
      <use xlink:href="#DejaVuSans-64" transform="translate(224.365234 0)"/>
      <use xlink:href="#DejaVuSans-20" transform="translate(287.841797 0)"/>
      <use xlink:href="#DejaVuSans-62" transform="translate(319.628906 0)"/>
      <use xlink:href="#DejaVuSans-61" transform="translate(383.105469 0)"/>
      <use xlink:href="#DejaVuSans-73" transform="translate(444.384766 0)"/>
      <use xlink:href="#DejaVuSans-65" transform="translate(496.484375 0)"/>
      <use xlink:href="#DejaVuSans-6c" transform="translate(558.007812 0)"/>
      <use xlink:href="#DejaVuSans-69" transform="translate(585.791016 0)"/>
      <use xlink:href="#DejaVuSans-6e" transform="translate(613.574219 0)"/>
      <use xlink:href="#DejaVuSans-65" transform="translate(676.953125 0)"/>
     </g>
    </g>
   </g>
  </g>
 </g>
 <defs>
  <clipPath id="p505340c831">
   <rect x="53.003125" y="39.51475" width="450.523" height="343"/>
  </clipPath>
 </defs>
</svg>
