<?xml version="1.0" encoding="utf-8" standalone="no"?>
<!DOCTYPE svg PUBLIC "-//W3C//DTD SVG 1.1//EN"
  "http://www.w3.org/Graphics/SVG/1.1/DTD/svg11.dtd">
<svg xmlns:xlink="http://www.w3.org/1999/xlink" width="845.76101pt" height="440.39952pt" viewBox="0 0 845.76101 440.39952" xmlns="http://www.w3.org/2000/svg" version="1.1">
 <metadata>
  <rdf:RDF xmlns:dc="http://purl.org/dc/elements/1.1/" xmlns:cc="http://creativecommons.org/ns#" xmlns:rdf="http://www.w3.org/1999/02/22-rdf-syntax-ns#">
   <cc:Work>
    <dc:type rdf:resource="http://purl.org/dc/dcmitype/StillImage"/>
    <dc:date>2025-08-19T19:49:26.620612</dc:date>
    <dc:format>image/svg+xml</dc:format>
    <dc:creator>
     <cc:Agent>
      <dc:title>Matplotlib v3.10.3, https://matplotlib.org/</dc:title>
     </cc:Agent>
    </dc:creator>
   </cc:Work>
  </rdf:RDF>
 </metadata>
 <defs>
  <style type="text/css">*{stroke-linejoin: round; stroke-linecap: butt}</style>
 </defs>
 <g id="figure_1">
  <g id="patch_1">
   <path d="M 0 440.39952 
L 845.76101 440.39952 
L 845.76101 0 
L 0 0 
L 0 440.39952 
z
" style="fill: none"/>
  </g>
  <g id="axes_1">
   <g id="patch_2">
    <path d="M 44.059375 402.565145 
L 552.407338 402.565145 
L 552.407338 35.7555 
L 44.059375 35.7555 
L 44.059375 402.565145 
z
" style="fill: none"/>
   </g>
   <g id="PathCollection_1">
    <defs>
     <path id="C0_0_b041302fee" d="M 0 5 
C 1.326016 5 2.597899 4.473168 3.535534 3.535534 
C 4.473168 2.597899 5 1.326016 5 -0 
C 5 -1.326016 4.473168 -2.597899 3.535534 -3.535534 
C 2.597899 -4.473168 1.326016 -5 0 -5 
C -1.326016 -5 -2.597899 -4.473168 -3.535534 -3.535534 
C -4.473168 -2.597899 -5 -1.326016 -5 0 
C -5 1.326016 -4.473168 2.597899 -3.535534 3.535534 
C -2.597899 4.473168 -1.326016 5 0 5 
z
"/>
    </defs>
    <g clip-path="url(#p6881ccc80b)">
     <use xlink:href="#C0_0_b041302fee" x="87.793893" y="311.038719" style="fill: #1f77b4; fill-opacity: 0.7; stroke: #000000; stroke-opacity: 0.7; stroke-width: 0.8"/>
    </g>
    <g clip-path="url(#p6881ccc80b)">
     <use xlink:href="#C0_0_b041302fee" x="173.578374" y="185.693148" style="fill: #1f77b4; fill-opacity: 0.7; stroke: #000000; stroke-opacity: 0.7; stroke-width: 0.8"/>
    </g>
    <g clip-path="url(#p6881ccc80b)">
     <use xlink:href="#C0_0_b041302fee" x="136.298937" y="374.175294" style="fill: #aec7e8; fill-opacity: 0.7; stroke: #000000; stroke-opacity: 0.7; stroke-width: 0.8"/>
    </g>
    <g clip-path="url(#p6881ccc80b)">
     <use xlink:href="#C0_0_b041302fee" x="116.392792" y="376.717669" style="fill: #aec7e8; fill-opacity: 0.7; stroke: #000000; stroke-opacity: 0.7; stroke-width: 0.8"/>
    </g>
    <g clip-path="url(#p6881ccc80b)">
     <use xlink:href="#C0_0_b041302fee" x="82.340283" y="388.386907" style="fill: #ff7f0e; fill-opacity: 0.7; stroke: #000000; stroke-opacity: 0.7; stroke-width: 0.8"/>
    </g>
    <g clip-path="url(#p6881ccc80b)">
     <use xlink:href="#C0_0_b041302fee" x="105.434869" y="385.379402" style="fill: #ff7f0e; fill-opacity: 0.7; stroke: #000000; stroke-opacity: 0.7; stroke-width: 0.8"/>
    </g>
    <g clip-path="url(#p6881ccc80b)">
     <use xlink:href="#C0_0_b041302fee" x="180.91913" y="317.034903" style="fill: #ffbb78; fill-opacity: 0.7; stroke: #000000; stroke-opacity: 0.7; stroke-width: 0.8"/>
    </g>
    <g clip-path="url(#p6881ccc80b)">
     <use xlink:href="#C0_0_b041302fee" x="67.166101" y="376.7684" style="fill: #ffbb78; fill-opacity: 0.7; stroke: #000000; stroke-opacity: 0.7; stroke-width: 0.8"/>
    </g>
    <g clip-path="url(#p6881ccc80b)">
     <use xlink:href="#C0_0_b041302fee" x="201.666636" y="286.769709" style="fill: #2ca02c; fill-opacity: 0.7; stroke: #000000; stroke-opacity: 0.7; stroke-width: 0.8"/>
    </g>
    <g clip-path="url(#p6881ccc80b)">
     <use xlink:href="#C0_0_b041302fee" x="198.675578" y="290.472989" style="fill: #2ca02c; fill-opacity: 0.7; stroke: #000000; stroke-opacity: 0.7; stroke-width: 0.8"/>
    </g>
    <g clip-path="url(#p6881ccc80b)">
     <use xlink:href="#C0_0_b041302fee" x="222.033777" y="290.282523" style="fill: #98df8a; fill-opacity: 0.7; stroke: #000000; stroke-opacity: 0.7; stroke-width: 0.8"/>
    </g>
    <g clip-path="url(#p6881ccc80b)">
     <use xlink:href="#C0_0_b041302fee" x="198.415536" y="287.746596" style="fill: #98df8a; fill-opacity: 0.7; stroke: #000000; stroke-opacity: 0.7; stroke-width: 0.8"/>
    </g>
    <g clip-path="url(#p6881ccc80b)">
     <use xlink:href="#C0_0_b041302fee" x="153.839902" y="294.145593" style="fill: #d62728; fill-opacity: 0.7; stroke: #000000; stroke-opacity: 0.7; stroke-width: 0.8"/>
    </g>
    <g clip-path="url(#p6881ccc80b)">
     <use xlink:href="#C0_0_b041302fee" x="185.318633" y="295.339111" style="fill: #d62728; fill-opacity: 0.7; stroke: #000000; stroke-opacity: 0.7; stroke-width: 0.8"/>
    </g>
    <g clip-path="url(#p6881ccc80b)">
     <use xlink:href="#C0_0_b041302fee" x="176.709693" y="291.092553" style="fill: #ff9896; fill-opacity: 0.7; stroke: #000000; stroke-opacity: 0.7; stroke-width: 0.8"/>
    </g>
    <g clip-path="url(#p6881ccc80b)">
     <use xlink:href="#C0_0_b041302fee" x="163.502399" y="297.946456" style="fill: #ff9896; fill-opacity: 0.7; stroke: #000000; stroke-opacity: 0.7; stroke-width: 0.8"/>
    </g>
    <g clip-path="url(#p6881ccc80b)">
     <use xlink:href="#C0_0_b041302fee" x="465.845094" y="83.209482" style="fill: #9467bd; fill-opacity: 0.7; stroke: #000000; stroke-opacity: 0.7; stroke-width: 0.8"/>
    </g>
    <g clip-path="url(#p6881ccc80b)">
     <use xlink:href="#C0_0_b041302fee" x="529.300612" y="52.547472" style="fill: #9467bd; fill-opacity: 0.7; stroke: #000000; stroke-opacity: 0.7; stroke-width: 0.8"/>
    </g>
   </g>
   <g id="matplotlib.axis_1">
    <g id="xtick_1">
     <g id="line2d_1">
      <path d="M 54.816757 402.565145 
L 54.816757 35.7555 
" clip-path="url(#p6881ccc80b)" style="fill: none; stroke: #b0b0b0; stroke-width: 0.8; stroke-linecap: square"/>
     </g>
     <g id="line2d_2">
      <defs>
       <path id="m45c01f26a7" d="M 0 0 
L 0 3.5 
" style="stroke: #000000; stroke-width: 0.8"/>
      </defs>
      <g>
       <use xlink:href="#m45c01f26a7" x="54.816757" y="402.565145" style="stroke: #000000; stroke-width: 0.8"/>
      </g>
     </g>
     <g id="text_1">
      <!-- 0.55 -->
      <g transform="translate(43.683944 417.163582) scale(0.1 -0.1)">
       <defs>
        <path id="DejaVuSans-30" d="M 2034 4250 
Q 1547 4250 1301 3770 
Q 1056 3291 1056 2328 
Q 1056 1369 1301 889 
Q 1547 409 2034 409 
Q 2525 409 2770 889 
Q 3016 1369 3016 2328 
Q 3016 3291 2770 3770 
Q 2525 4250 2034 4250 
z
M 2034 4750 
Q 2819 4750 3233 4129 
Q 3647 3509 3647 2328 
Q 3647 1150 3233 529 
Q 2819 -91 2034 -91 
Q 1250 -91 836 529 
Q 422 1150 422 2328 
Q 422 3509 836 4129 
Q 1250 4750 2034 4750 
z
" transform="scale(0.015625)"/>
        <path id="DejaVuSans-2e" d="M 684 794 
L 1344 794 
L 1344 0 
L 684 0 
L 684 794 
z
" transform="scale(0.015625)"/>
        <path id="DejaVuSans-35" d="M 691 4666 
L 3169 4666 
L 3169 4134 
L 1269 4134 
L 1269 2991 
Q 1406 3038 1543 3061 
Q 1681 3084 1819 3084 
Q 2600 3084 3056 2656 
Q 3513 2228 3513 1497 
Q 3513 744 3044 326 
Q 2575 -91 1722 -91 
Q 1428 -91 1123 -41 
Q 819 9 494 109 
L 494 744 
Q 775 591 1075 516 
Q 1375 441 1709 441 
Q 2250 441 2565 725 
Q 2881 1009 2881 1497 
Q 2881 1984 2565 2268 
Q 2250 2553 1709 2553 
Q 1456 2553 1204 2497 
Q 953 2441 691 2322 
L 691 4666 
z
" transform="scale(0.015625)"/>
       </defs>
       <use xlink:href="#DejaVuSans-30"/>
       <use xlink:href="#DejaVuSans-2e" transform="translate(63.623047 0)"/>
       <use xlink:href="#DejaVuSans-35" transform="translate(95.410156 0)"/>
       <use xlink:href="#DejaVuSans-35" transform="translate(159.033203 0)"/>
      </g>
     </g>
    </g>
    <g id="xtick_2">
     <g id="line2d_3">
      <path d="M 143.194782 402.565145 
L 143.194782 35.7555 
" clip-path="url(#p6881ccc80b)" style="fill: none; stroke: #b0b0b0; stroke-width: 0.8; stroke-linecap: square"/>
     </g>
     <g id="line2d_4">
      <g>
       <use xlink:href="#m45c01f26a7" x="143.194782" y="402.565145" style="stroke: #000000; stroke-width: 0.8"/>
      </g>
     </g>
     <g id="text_2">
      <!-- 0.60 -->
      <g transform="translate(132.06197 417.163582) scale(0.1 -0.1)">
       <defs>
        <path id="DejaVuSans-36" d="M 2113 2584 
Q 1688 2584 1439 2293 
Q 1191 2003 1191 1497 
Q 1191 994 1439 701 
Q 1688 409 2113 409 
Q 2538 409 2786 701 
Q 3034 994 3034 1497 
Q 3034 2003 2786 2293 
Q 2538 2584 2113 2584 
z
M 3366 4563 
L 3366 3988 
Q 3128 4100 2886 4159 
Q 2644 4219 2406 4219 
Q 1781 4219 1451 3797 
Q 1122 3375 1075 2522 
Q 1259 2794 1537 2939 
Q 1816 3084 2150 3084 
Q 2853 3084 3261 2657 
Q 3669 2231 3669 1497 
Q 3669 778 3244 343 
Q 2819 -91 2113 -91 
Q 1303 -91 875 529 
Q 447 1150 447 2328 
Q 447 3434 972 4092 
Q 1497 4750 2381 4750 
Q 2619 4750 2861 4703 
Q 3103 4656 3366 4563 
z
" transform="scale(0.015625)"/>
       </defs>
       <use xlink:href="#DejaVuSans-30"/>
       <use xlink:href="#DejaVuSans-2e" transform="translate(63.623047 0)"/>
       <use xlink:href="#DejaVuSans-36" transform="translate(95.410156 0)"/>
       <use xlink:href="#DejaVuSans-30" transform="translate(159.033203 0)"/>
      </g>
     </g>
    </g>
    <g id="xtick_3">
     <g id="line2d_5">
      <path d="M 231.572807 402.565145 
L 231.572807 35.7555 
" clip-path="url(#p6881ccc80b)" style="fill: none; stroke: #b0b0b0; stroke-width: 0.8; stroke-linecap: square"/>
     </g>
     <g id="line2d_6">
      <g>
       <use xlink:href="#m45c01f26a7" x="231.572807" y="402.565145" style="stroke: #000000; stroke-width: 0.8"/>
      </g>
     </g>
     <g id="text_3">
      <!-- 0.65 -->
      <g transform="translate(220.439995 417.163582) scale(0.1 -0.1)">
       <use xlink:href="#DejaVuSans-30"/>
       <use xlink:href="#DejaVuSans-2e" transform="translate(63.623047 0)"/>
       <use xlink:href="#DejaVuSans-36" transform="translate(95.410156 0)"/>
       <use xlink:href="#DejaVuSans-35" transform="translate(159.033203 0)"/>
      </g>
     </g>
    </g>
    <g id="xtick_4">
     <g id="line2d_7">
      <path d="M 319.950832 402.565145 
L 319.950832 35.7555 
" clip-path="url(#p6881ccc80b)" style="fill: none; stroke: #b0b0b0; stroke-width: 0.8; stroke-linecap: square"/>
     </g>
     <g id="line2d_8">
      <g>
       <use xlink:href="#m45c01f26a7" x="319.950832" y="402.565145" style="stroke: #000000; stroke-width: 0.8"/>
      </g>
     </g>
     <g id="text_4">
      <!-- 0.70 -->
      <g transform="translate(308.81802 417.163582) scale(0.1 -0.1)">
       <defs>
        <path id="DejaVuSans-37" d="M 525 4666 
L 3525 4666 
L 3525 4397 
L 1831 0 
L 1172 0 
L 2766 4134 
L 525 4134 
L 525 4666 
z
" transform="scale(0.015625)"/>
       </defs>
       <use xlink:href="#DejaVuSans-30"/>
       <use xlink:href="#DejaVuSans-2e" transform="translate(63.623047 0)"/>
       <use xlink:href="#DejaVuSans-37" transform="translate(95.410156 0)"/>
       <use xlink:href="#DejaVuSans-30" transform="translate(159.033203 0)"/>
      </g>
     </g>
    </g>
    <g id="xtick_5">
     <g id="line2d_9">
      <path d="M 408.328857 402.565145 
L 408.328857 35.7555 
" clip-path="url(#p6881ccc80b)" style="fill: none; stroke: #b0b0b0; stroke-width: 0.8; stroke-linecap: square"/>
     </g>
     <g id="line2d_10">
      <g>
       <use xlink:href="#m45c01f26a7" x="408.328857" y="402.565145" style="stroke: #000000; stroke-width: 0.8"/>
      </g>
     </g>
     <g id="text_5">
      <!-- 0.75 -->
      <g transform="translate(397.196045 417.163582) scale(0.1 -0.1)">
       <use xlink:href="#DejaVuSans-30"/>
       <use xlink:href="#DejaVuSans-2e" transform="translate(63.623047 0)"/>
       <use xlink:href="#DejaVuSans-37" transform="translate(95.410156 0)"/>
       <use xlink:href="#DejaVuSans-35" transform="translate(159.033203 0)"/>
      </g>
     </g>
    </g>
    <g id="xtick_6">
     <g id="line2d_11">
      <path d="M 496.706883 402.565145 
L 496.706883 35.7555 
" clip-path="url(#p6881ccc80b)" style="fill: none; stroke: #b0b0b0; stroke-width: 0.8; stroke-linecap: square"/>
     </g>
     <g id="line2d_12">
      <g>
       <use xlink:href="#m45c01f26a7" x="496.706883" y="402.565145" style="stroke: #000000; stroke-width: 0.8"/>
      </g>
     </g>
     <g id="text_6">
      <!-- 0.80 -->
      <g transform="translate(485.57407 417.163582) scale(0.1 -0.1)">
       <defs>
        <path id="DejaVuSans-38" d="M 2034 2216 
Q 1584 2216 1326 1975 
Q 1069 1734 1069 1313 
Q 1069 891 1326 650 
Q 1584 409 2034 409 
Q 2484 409 2743 651 
Q 3003 894 3003 1313 
Q 3003 1734 2745 1975 
Q 2488 2216 2034 2216 
z
M 1403 2484 
Q 997 2584 770 2862 
Q 544 3141 544 3541 
Q 544 4100 942 4425 
Q 1341 4750 2034 4750 
Q 2731 4750 3128 4425 
Q 3525 4100 3525 3541 
Q 3525 3141 3298 2862 
Q 3072 2584 2669 2484 
Q 3125 2378 3379 2068 
Q 3634 1759 3634 1313 
Q 3634 634 3220 271 
Q 2806 -91 2034 -91 
Q 1263 -91 848 271 
Q 434 634 434 1313 
Q 434 1759 690 2068 
Q 947 2378 1403 2484 
z
M 1172 3481 
Q 1172 3119 1398 2916 
Q 1625 2713 2034 2713 
Q 2441 2713 2670 2916 
Q 2900 3119 2900 3481 
Q 2900 3844 2670 4047 
Q 2441 4250 2034 4250 
Q 1625 4250 1398 4047 
Q 1172 3844 1172 3481 
z
" transform="scale(0.015625)"/>
       </defs>
       <use xlink:href="#DejaVuSans-30"/>
       <use xlink:href="#DejaVuSans-2e" transform="translate(63.623047 0)"/>
       <use xlink:href="#DejaVuSans-38" transform="translate(95.410156 0)"/>
       <use xlink:href="#DejaVuSans-30" transform="translate(159.033203 0)"/>
      </g>
     </g>
    </g>
    <g id="text_7">
     <!-- Semantic Similarity (sem_sim_avg) -->
     <g transform="translate(210.4482 430.841707) scale(0.1 -0.1)">
      <defs>
       <path id="DejaVuSans-53" d="M 3425 4513 
L 3425 3897 
Q 3066 4069 2747 4153 
Q 2428 4238 2131 4238 
Q 1616 4238 1336 4038 
Q 1056 3838 1056 3469 
Q 1056 3159 1242 3001 
Q 1428 2844 1947 2747 
L 2328 2669 
Q 3034 2534 3370 2195 
Q 3706 1856 3706 1288 
Q 3706 609 3251 259 
Q 2797 -91 1919 -91 
Q 1588 -91 1214 -16 
Q 841 59 441 206 
L 441 856 
Q 825 641 1194 531 
Q 1563 422 1919 422 
Q 2459 422 2753 634 
Q 3047 847 3047 1241 
Q 3047 1584 2836 1778 
Q 2625 1972 2144 2069 
L 1759 2144 
Q 1053 2284 737 2584 
Q 422 2884 422 3419 
Q 422 4038 858 4394 
Q 1294 4750 2059 4750 
Q 2388 4750 2728 4690 
Q 3069 4631 3425 4513 
z
" transform="scale(0.015625)"/>
       <path id="DejaVuSans-65" d="M 3597 1894 
L 3597 1613 
L 953 1613 
Q 991 1019 1311 708 
Q 1631 397 2203 397 
Q 2534 397 2845 478 
Q 3156 559 3463 722 
L 3463 178 
Q 3153 47 2828 -22 
Q 2503 -91 2169 -91 
Q 1331 -91 842 396 
Q 353 884 353 1716 
Q 353 2575 817 3079 
Q 1281 3584 2069 3584 
Q 2775 3584 3186 3129 
Q 3597 2675 3597 1894 
z
M 3022 2063 
Q 3016 2534 2758 2815 
Q 2500 3097 2075 3097 
Q 1594 3097 1305 2825 
Q 1016 2553 972 2059 
L 3022 2063 
z
" transform="scale(0.015625)"/>
       <path id="DejaVuSans-6d" d="M 3328 2828 
Q 3544 3216 3844 3400 
Q 4144 3584 4550 3584 
Q 5097 3584 5394 3201 
Q 5691 2819 5691 2113 
L 5691 0 
L 5113 0 
L 5113 2094 
Q 5113 2597 4934 2840 
Q 4756 3084 4391 3084 
Q 3944 3084 3684 2787 
Q 3425 2491 3425 1978 
L 3425 0 
L 2847 0 
L 2847 2094 
Q 2847 2600 2669 2842 
Q 2491 3084 2119 3084 
Q 1678 3084 1418 2786 
Q 1159 2488 1159 1978 
L 1159 0 
L 581 0 
L 581 3500 
L 1159 3500 
L 1159 2956 
Q 1356 3278 1631 3431 
Q 1906 3584 2284 3584 
Q 2666 3584 2933 3390 
Q 3200 3197 3328 2828 
z
" transform="scale(0.015625)"/>
       <path id="DejaVuSans-61" d="M 2194 1759 
Q 1497 1759 1228 1600 
Q 959 1441 959 1056 
Q 959 750 1161 570 
Q 1363 391 1709 391 
Q 2188 391 2477 730 
Q 2766 1069 2766 1631 
L 2766 1759 
L 2194 1759 
z
M 3341 1997 
L 3341 0 
L 2766 0 
L 2766 531 
Q 2569 213 2275 61 
Q 1981 -91 1556 -91 
Q 1019 -91 701 211 
Q 384 513 384 1019 
Q 384 1609 779 1909 
Q 1175 2209 1959 2209 
L 2766 2209 
L 2766 2266 
Q 2766 2663 2505 2880 
Q 2244 3097 1772 3097 
Q 1472 3097 1187 3025 
Q 903 2953 641 2809 
L 641 3341 
Q 956 3463 1253 3523 
Q 1550 3584 1831 3584 
Q 2591 3584 2966 3190 
Q 3341 2797 3341 1997 
z
" transform="scale(0.015625)"/>
       <path id="DejaVuSans-6e" d="M 3513 2113 
L 3513 0 
L 2938 0 
L 2938 2094 
Q 2938 2591 2744 2837 
Q 2550 3084 2163 3084 
Q 1697 3084 1428 2787 
Q 1159 2491 1159 1978 
L 1159 0 
L 581 0 
L 581 3500 
L 1159 3500 
L 1159 2956 
Q 1366 3272 1645 3428 
Q 1925 3584 2291 3584 
Q 2894 3584 3203 3211 
Q 3513 2838 3513 2113 
z
" transform="scale(0.015625)"/>
       <path id="DejaVuSans-74" d="M 1172 4494 
L 1172 3500 
L 2356 3500 
L 2356 3053 
L 1172 3053 
L 1172 1153 
Q 1172 725 1289 603 
Q 1406 481 1766 481 
L 2356 481 
L 2356 0 
L 1766 0 
Q 1100 0 847 248 
Q 594 497 594 1153 
L 594 3053 
L 172 3053 
L 172 3500 
L 594 3500 
L 594 4494 
L 1172 4494 
z
" transform="scale(0.015625)"/>
       <path id="DejaVuSans-69" d="M 603 3500 
L 1178 3500 
L 1178 0 
L 603 0 
L 603 3500 
z
M 603 4863 
L 1178 4863 
L 1178 4134 
L 603 4134 
L 603 4863 
z
" transform="scale(0.015625)"/>
       <path id="DejaVuSans-63" d="M 3122 3366 
L 3122 2828 
Q 2878 2963 2633 3030 
Q 2388 3097 2138 3097 
Q 1578 3097 1268 2742 
Q 959 2388 959 1747 
Q 959 1106 1268 751 
Q 1578 397 2138 397 
Q 2388 397 2633 464 
Q 2878 531 3122 666 
L 3122 134 
Q 2881 22 2623 -34 
Q 2366 -91 2075 -91 
Q 1284 -91 818 406 
Q 353 903 353 1747 
Q 353 2603 823 3093 
Q 1294 3584 2113 3584 
Q 2378 3584 2631 3529 
Q 2884 3475 3122 3366 
z
" transform="scale(0.015625)"/>
       <path id="DejaVuSans-20" transform="scale(0.015625)"/>
       <path id="DejaVuSans-6c" d="M 603 4863 
L 1178 4863 
L 1178 0 
L 603 0 
L 603 4863 
z
" transform="scale(0.015625)"/>
       <path id="DejaVuSans-72" d="M 2631 2963 
Q 2534 3019 2420 3045 
Q 2306 3072 2169 3072 
Q 1681 3072 1420 2755 
Q 1159 2438 1159 1844 
L 1159 0 
L 581 0 
L 581 3500 
L 1159 3500 
L 1159 2956 
Q 1341 3275 1631 3429 
Q 1922 3584 2338 3584 
Q 2397 3584 2469 3576 
Q 2541 3569 2628 3553 
L 2631 2963 
z
" transform="scale(0.015625)"/>
       <path id="DejaVuSans-79" d="M 2059 -325 
Q 1816 -950 1584 -1140 
Q 1353 -1331 966 -1331 
L 506 -1331 
L 506 -850 
L 844 -850 
Q 1081 -850 1212 -737 
Q 1344 -625 1503 -206 
L 1606 56 
L 191 3500 
L 800 3500 
L 1894 763 
L 2988 3500 
L 3597 3500 
L 2059 -325 
z
" transform="scale(0.015625)"/>
       <path id="DejaVuSans-28" d="M 1984 4856 
Q 1566 4138 1362 3434 
Q 1159 2731 1159 2009 
Q 1159 1288 1364 580 
Q 1569 -128 1984 -844 
L 1484 -844 
Q 1016 -109 783 600 
Q 550 1309 550 2009 
Q 550 2706 781 3412 
Q 1013 4119 1484 4856 
L 1984 4856 
z
" transform="scale(0.015625)"/>
       <path id="DejaVuSans-73" d="M 2834 3397 
L 2834 2853 
Q 2591 2978 2328 3040 
Q 2066 3103 1784 3103 
Q 1356 3103 1142 2972 
Q 928 2841 928 2578 
Q 928 2378 1081 2264 
Q 1234 2150 1697 2047 
L 1894 2003 
Q 2506 1872 2764 1633 
Q 3022 1394 3022 966 
Q 3022 478 2636 193 
Q 2250 -91 1575 -91 
Q 1294 -91 989 -36 
Q 684 19 347 128 
L 347 722 
Q 666 556 975 473 
Q 1284 391 1588 391 
Q 1994 391 2212 530 
Q 2431 669 2431 922 
Q 2431 1156 2273 1281 
Q 2116 1406 1581 1522 
L 1381 1569 
Q 847 1681 609 1914 
Q 372 2147 372 2553 
Q 372 3047 722 3315 
Q 1072 3584 1716 3584 
Q 2034 3584 2315 3537 
Q 2597 3491 2834 3397 
z
" transform="scale(0.015625)"/>
       <path id="DejaVuSans-5f" d="M 3263 -1063 
L 3263 -1509 
L -63 -1509 
L -63 -1063 
L 3263 -1063 
z
" transform="scale(0.015625)"/>
       <path id="DejaVuSans-76" d="M 191 3500 
L 800 3500 
L 1894 563 
L 2988 3500 
L 3597 3500 
L 2284 0 
L 1503 0 
L 191 3500 
z
" transform="scale(0.015625)"/>
       <path id="DejaVuSans-67" d="M 2906 1791 
Q 2906 2416 2648 2759 
Q 2391 3103 1925 3103 
Q 1463 3103 1205 2759 
Q 947 2416 947 1791 
Q 947 1169 1205 825 
Q 1463 481 1925 481 
Q 2391 481 2648 825 
Q 2906 1169 2906 1791 
z
M 3481 434 
Q 3481 -459 3084 -895 
Q 2688 -1331 1869 -1331 
Q 1566 -1331 1297 -1286 
Q 1028 -1241 775 -1147 
L 775 -588 
Q 1028 -725 1275 -790 
Q 1522 -856 1778 -856 
Q 2344 -856 2625 -561 
Q 2906 -266 2906 331 
L 2906 616 
Q 2728 306 2450 153 
Q 2172 0 1784 0 
Q 1141 0 747 490 
Q 353 981 353 1791 
Q 353 2603 747 3093 
Q 1141 3584 1784 3584 
Q 2172 3584 2450 3431 
Q 2728 3278 2906 2969 
L 2906 3500 
L 3481 3500 
L 3481 434 
z
" transform="scale(0.015625)"/>
       <path id="DejaVuSans-29" d="M 513 4856 
L 1013 4856 
Q 1481 4119 1714 3412 
Q 1947 2706 1947 2009 
Q 1947 1309 1714 600 
Q 1481 -109 1013 -844 
L 513 -844 
Q 928 -128 1133 580 
Q 1338 1288 1338 2009 
Q 1338 2731 1133 3434 
Q 928 4138 513 4856 
z
" transform="scale(0.015625)"/>
      </defs>
      <use xlink:href="#DejaVuSans-53"/>
      <use xlink:href="#DejaVuSans-65" transform="translate(63.476562 0)"/>
      <use xlink:href="#DejaVuSans-6d" transform="translate(125 0)"/>
      <use xlink:href="#DejaVuSans-61" transform="translate(222.412109 0)"/>
      <use xlink:href="#DejaVuSans-6e" transform="translate(283.691406 0)"/>
      <use xlink:href="#DejaVuSans-74" transform="translate(347.070312 0)"/>
      <use xlink:href="#DejaVuSans-69" transform="translate(386.279297 0)"/>
      <use xlink:href="#DejaVuSans-63" transform="translate(414.0625 0)"/>
      <use xlink:href="#DejaVuSans-20" transform="translate(469.042969 0)"/>
      <use xlink:href="#DejaVuSans-53" transform="translate(500.830078 0)"/>
      <use xlink:href="#DejaVuSans-69" transform="translate(564.306641 0)"/>
      <use xlink:href="#DejaVuSans-6d" transform="translate(592.089844 0)"/>
      <use xlink:href="#DejaVuSans-69" transform="translate(689.501953 0)"/>
      <use xlink:href="#DejaVuSans-6c" transform="translate(717.285156 0)"/>
      <use xlink:href="#DejaVuSans-61" transform="translate(745.068359 0)"/>
      <use xlink:href="#DejaVuSans-72" transform="translate(806.347656 0)"/>
      <use xlink:href="#DejaVuSans-69" transform="translate(847.460938 0)"/>
      <use xlink:href="#DejaVuSans-74" transform="translate(875.244141 0)"/>
      <use xlink:href="#DejaVuSans-79" transform="translate(914.453125 0)"/>
      <use xlink:href="#DejaVuSans-20" transform="translate(973.632812 0)"/>
      <use xlink:href="#DejaVuSans-28" transform="translate(1005.419922 0)"/>
      <use xlink:href="#DejaVuSans-73" transform="translate(1044.433594 0)"/>
      <use xlink:href="#DejaVuSans-65" transform="translate(1096.533203 0)"/>
      <use xlink:href="#DejaVuSans-6d" transform="translate(1158.056641 0)"/>
      <use xlink:href="#DejaVuSans-5f" transform="translate(1255.46875 0)"/>
      <use xlink:href="#DejaVuSans-73" transform="translate(1305.46875 0)"/>
      <use xlink:href="#DejaVuSans-69" transform="translate(1357.568359 0)"/>
      <use xlink:href="#DejaVuSans-6d" transform="translate(1385.351562 0)"/>
      <use xlink:href="#DejaVuSans-5f" transform="translate(1482.763672 0)"/>
      <use xlink:href="#DejaVuSans-61" transform="translate(1532.763672 0)"/>
      <use xlink:href="#DejaVuSans-76" transform="translate(1594.042969 0)"/>
      <use xlink:href="#DejaVuSans-67" transform="translate(1653.222656 0)"/>
      <use xlink:href="#DejaVuSans-29" transform="translate(1716.699219 0)"/>
     </g>
    </g>
   </g>
   <g id="matplotlib.axis_2">
    <g id="ytick_1">
     <g id="line2d_13">
      <path d="M 44.059375 402.565145 
L 552.407338 402.565145 
" clip-path="url(#p6881ccc80b)" style="fill: none; stroke: #b0b0b0; stroke-width: 0.8; stroke-linecap: square"/>
     </g>
     <g id="line2d_14">
      <defs>
       <path id="mac614a4111" d="M 0 0 
L -3.5 0 
" style="stroke: #000000; stroke-width: 0.8"/>
      </defs>
      <g>
       <use xlink:href="#mac614a4111" x="44.059375" y="402.565145" style="stroke: #000000; stroke-width: 0.8"/>
      </g>
     </g>
     <g id="text_8">
      <!-- 0.0 -->
      <g transform="translate(21.15625 406.364364) scale(0.1 -0.1)">
       <use xlink:href="#DejaVuSans-30"/>
       <use xlink:href="#DejaVuSans-2e" transform="translate(63.623047 0)"/>
       <use xlink:href="#DejaVuSans-30" transform="translate(95.410156 0)"/>
      </g>
     </g>
    </g>
    <g id="ytick_2">
     <g id="line2d_15">
      <path d="M 44.059375 337.925268 
L 552.407338 337.925268 
" clip-path="url(#p6881ccc80b)" style="fill: none; stroke: #b0b0b0; stroke-width: 0.8; stroke-linecap: square"/>
     </g>
     <g id="line2d_16">
      <g>
       <use xlink:href="#mac614a4111" x="44.059375" y="337.925268" style="stroke: #000000; stroke-width: 0.8"/>
      </g>
     </g>
     <g id="text_9">
      <!-- 0.1 -->
      <g transform="translate(21.15625 341.724487) scale(0.1 -0.1)">
       <defs>
        <path id="DejaVuSans-31" d="M 794 531 
L 1825 531 
L 1825 4091 
L 703 3866 
L 703 4441 
L 1819 4666 
L 2450 4666 
L 2450 531 
L 3481 531 
L 3481 0 
L 794 0 
L 794 531 
z
" transform="scale(0.015625)"/>
       </defs>
       <use xlink:href="#DejaVuSans-30"/>
       <use xlink:href="#DejaVuSans-2e" transform="translate(63.623047 0)"/>
       <use xlink:href="#DejaVuSans-31" transform="translate(95.410156 0)"/>
      </g>
     </g>
    </g>
    <g id="ytick_3">
     <g id="line2d_17">
      <path d="M 44.059375 273.285392 
L 552.407338 273.285392 
" clip-path="url(#p6881ccc80b)" style="fill: none; stroke: #b0b0b0; stroke-width: 0.8; stroke-linecap: square"/>
     </g>
     <g id="line2d_18">
      <g>
       <use xlink:href="#mac614a4111" x="44.059375" y="273.285392" style="stroke: #000000; stroke-width: 0.8"/>
      </g>
     </g>
     <g id="text_10">
      <!-- 0.2 -->
      <g transform="translate(21.15625 277.084611) scale(0.1 -0.1)">
       <defs>
        <path id="DejaVuSans-32" d="M 1228 531 
L 3431 531 
L 3431 0 
L 469 0 
L 469 531 
Q 828 903 1448 1529 
Q 2069 2156 2228 2338 
Q 2531 2678 2651 2914 
Q 2772 3150 2772 3378 
Q 2772 3750 2511 3984 
Q 2250 4219 1831 4219 
Q 1534 4219 1204 4116 
Q 875 4013 500 3803 
L 500 4441 
Q 881 4594 1212 4672 
Q 1544 4750 1819 4750 
Q 2544 4750 2975 4387 
Q 3406 4025 3406 3419 
Q 3406 3131 3298 2873 
Q 3191 2616 2906 2266 
Q 2828 2175 2409 1742 
Q 1991 1309 1228 531 
z
" transform="scale(0.015625)"/>
       </defs>
       <use xlink:href="#DejaVuSans-30"/>
       <use xlink:href="#DejaVuSans-2e" transform="translate(63.623047 0)"/>
       <use xlink:href="#DejaVuSans-32" transform="translate(95.410156 0)"/>
      </g>
     </g>
    </g>
    <g id="ytick_4">
     <g id="line2d_19">
      <path d="M 44.059375 208.645515 
L 552.407338 208.645515 
" clip-path="url(#p6881ccc80b)" style="fill: none; stroke: #b0b0b0; stroke-width: 0.8; stroke-linecap: square"/>
     </g>
     <g id="line2d_20">
      <g>
       <use xlink:href="#mac614a4111" x="44.059375" y="208.645515" style="stroke: #000000; stroke-width: 0.8"/>
      </g>
     </g>
     <g id="text_11">
      <!-- 0.3 -->
      <g transform="translate(21.15625 212.444734) scale(0.1 -0.1)">
       <defs>
        <path id="DejaVuSans-33" d="M 2597 2516 
Q 3050 2419 3304 2112 
Q 3559 1806 3559 1356 
Q 3559 666 3084 287 
Q 2609 -91 1734 -91 
Q 1441 -91 1130 -33 
Q 819 25 488 141 
L 488 750 
Q 750 597 1062 519 
Q 1375 441 1716 441 
Q 2309 441 2620 675 
Q 2931 909 2931 1356 
Q 2931 1769 2642 2001 
Q 2353 2234 1838 2234 
L 1294 2234 
L 1294 2753 
L 1863 2753 
Q 2328 2753 2575 2939 
Q 2822 3125 2822 3475 
Q 2822 3834 2567 4026 
Q 2313 4219 1838 4219 
Q 1578 4219 1281 4162 
Q 984 4106 628 3988 
L 628 4550 
Q 988 4650 1302 4700 
Q 1616 4750 1894 4750 
Q 2613 4750 3031 4423 
Q 3450 4097 3450 3541 
Q 3450 3153 3228 2886 
Q 3006 2619 2597 2516 
z
" transform="scale(0.015625)"/>
       </defs>
       <use xlink:href="#DejaVuSans-30"/>
       <use xlink:href="#DejaVuSans-2e" transform="translate(63.623047 0)"/>
       <use xlink:href="#DejaVuSans-33" transform="translate(95.410156 0)"/>
      </g>
     </g>
    </g>
    <g id="ytick_5">
     <g id="line2d_21">
      <path d="M 44.059375 144.005639 
L 552.407338 144.005639 
" clip-path="url(#p6881ccc80b)" style="fill: none; stroke: #b0b0b0; stroke-width: 0.8; stroke-linecap: square"/>
     </g>
     <g id="line2d_22">
      <g>
       <use xlink:href="#mac614a4111" x="44.059375" y="144.005639" style="stroke: #000000; stroke-width: 0.8"/>
      </g>
     </g>
     <g id="text_12">
      <!-- 0.4 -->
      <g transform="translate(21.15625 147.804857) scale(0.1 -0.1)">
       <defs>
        <path id="DejaVuSans-34" d="M 2419 4116 
L 825 1625 
L 2419 1625 
L 2419 4116 
z
M 2253 4666 
L 3047 4666 
L 3047 1625 
L 3713 1625 
L 3713 1100 
L 3047 1100 
L 3047 0 
L 2419 0 
L 2419 1100 
L 313 1100 
L 313 1709 
L 2253 4666 
z
" transform="scale(0.015625)"/>
       </defs>
       <use xlink:href="#DejaVuSans-30"/>
       <use xlink:href="#DejaVuSans-2e" transform="translate(63.623047 0)"/>
       <use xlink:href="#DejaVuSans-34" transform="translate(95.410156 0)"/>
      </g>
     </g>
    </g>
    <g id="ytick_6">
     <g id="line2d_23">
      <path d="M 44.059375 79.365762 
L 552.407338 79.365762 
" clip-path="url(#p6881ccc80b)" style="fill: none; stroke: #b0b0b0; stroke-width: 0.8; stroke-linecap: square"/>
     </g>
     <g id="line2d_24">
      <g>
       <use xlink:href="#mac614a4111" x="44.059375" y="79.365762" style="stroke: #000000; stroke-width: 0.8"/>
      </g>
     </g>
     <g id="text_13">
      <!-- 0.5 -->
      <g transform="translate(21.15625 83.164981) scale(0.1 -0.1)">
       <use xlink:href="#DejaVuSans-30"/>
       <use xlink:href="#DejaVuSans-2e" transform="translate(63.623047 0)"/>
       <use xlink:href="#DejaVuSans-35" transform="translate(95.410156 0)"/>
      </g>
     </g>
    </g>
    <g id="text_14">
     <!-- Syntactic Similarity (syn_sim_avg) -->
     <g transform="translate(14.798438 304.848604) rotate(-90) scale(0.1 -0.1)">
      <use xlink:href="#DejaVuSans-53"/>
      <use xlink:href="#DejaVuSans-79" transform="translate(63.476562 0)"/>
      <use xlink:href="#DejaVuSans-6e" transform="translate(122.65625 0)"/>
      <use xlink:href="#DejaVuSans-74" transform="translate(186.035156 0)"/>
      <use xlink:href="#DejaVuSans-61" transform="translate(225.244141 0)"/>
      <use xlink:href="#DejaVuSans-63" transform="translate(286.523438 0)"/>
      <use xlink:href="#DejaVuSans-74" transform="translate(341.503906 0)"/>
      <use xlink:href="#DejaVuSans-69" transform="translate(380.712891 0)"/>
      <use xlink:href="#DejaVuSans-63" transform="translate(408.496094 0)"/>
      <use xlink:href="#DejaVuSans-20" transform="translate(463.476562 0)"/>
      <use xlink:href="#DejaVuSans-53" transform="translate(495.263672 0)"/>
      <use xlink:href="#DejaVuSans-69" transform="translate(558.740234 0)"/>
      <use xlink:href="#DejaVuSans-6d" transform="translate(586.523438 0)"/>
      <use xlink:href="#DejaVuSans-69" transform="translate(683.935547 0)"/>
      <use xlink:href="#DejaVuSans-6c" transform="translate(711.71875 0)"/>
      <use xlink:href="#DejaVuSans-61" transform="translate(739.501953 0)"/>
      <use xlink:href="#DejaVuSans-72" transform="translate(800.78125 0)"/>
      <use xlink:href="#DejaVuSans-69" transform="translate(841.894531 0)"/>
      <use xlink:href="#DejaVuSans-74" transform="translate(869.677734 0)"/>
      <use xlink:href="#DejaVuSans-79" transform="translate(908.886719 0)"/>
      <use xlink:href="#DejaVuSans-20" transform="translate(968.066406 0)"/>
      <use xlink:href="#DejaVuSans-28" transform="translate(999.853516 0)"/>
      <use xlink:href="#DejaVuSans-73" transform="translate(1038.867188 0)"/>
      <use xlink:href="#DejaVuSans-79" transform="translate(1090.966797 0)"/>
      <use xlink:href="#DejaVuSans-6e" transform="translate(1150.146484 0)"/>
      <use xlink:href="#DejaVuSans-5f" transform="translate(1213.525391 0)"/>
      <use xlink:href="#DejaVuSans-73" transform="translate(1263.525391 0)"/>
      <use xlink:href="#DejaVuSans-69" transform="translate(1315.625 0)"/>
      <use xlink:href="#DejaVuSans-6d" transform="translate(1343.408203 0)"/>
      <use xlink:href="#DejaVuSans-5f" transform="translate(1440.820312 0)"/>
      <use xlink:href="#DejaVuSans-61" transform="translate(1490.820312 0)"/>
      <use xlink:href="#DejaVuSans-76" transform="translate(1552.099609 0)"/>
      <use xlink:href="#DejaVuSans-67" transform="translate(1611.279297 0)"/>
      <use xlink:href="#DejaVuSans-29" transform="translate(1674.755859 0)"/>
     </g>
    </g>
   </g>
   <g id="line2d_25"/>
   <g id="line2d_26"/>
   <g id="line2d_27"/>
   <g id="line2d_28"/>
   <g id="line2d_29"/>
   <g id="line2d_30"/>
   <g id="line2d_31"/>
   <g id="line2d_32"/>
   <g id="line2d_33"/>
   <g id="patch_3">
    <path d="M 44.059375 402.565145 
L 44.059375 35.7555 
" style="fill: none; stroke: #000000; stroke-width: 0.8; stroke-linejoin: miter; stroke-linecap: square"/>
   </g>
   <g id="patch_4">
    <path d="M 552.407338 402.565145 
L 552.407338 35.7555 
" style="fill: none; stroke: #000000; stroke-width: 0.8; stroke-linejoin: miter; stroke-linecap: square"/>
   </g>
   <g id="patch_5">
    <path d="M 44.059375 402.565145 
L 552.407338 402.565145 
" style="fill: none; stroke: #000000; stroke-width: 0.8; stroke-linejoin: miter; stroke-linecap: square"/>
   </g>
   <g id="patch_6">
    <path d="M 44.059375 35.7555 
L 552.407338 35.7555 
" style="fill: none; stroke: #000000; stroke-width: 0.8; stroke-linejoin: miter; stroke-linecap: square"/>
   </g>
   <g id="text_15">
    <!-- Semantic vs Syntactic Similarity -->
    <g transform="translate(201.516169 16.318125) scale(0.12 -0.12)">
     <use xlink:href="#DejaVuSans-53"/>
     <use xlink:href="#DejaVuSans-65" transform="translate(63.476562 0)"/>
     <use xlink:href="#DejaVuSans-6d" transform="translate(125 0)"/>
     <use xlink:href="#DejaVuSans-61" transform="translate(222.412109 0)"/>
     <use xlink:href="#DejaVuSans-6e" transform="translate(283.691406 0)"/>
     <use xlink:href="#DejaVuSans-74" transform="translate(347.070312 0)"/>
     <use xlink:href="#DejaVuSans-69" transform="translate(386.279297 0)"/>
     <use xlink:href="#DejaVuSans-63" transform="translate(414.0625 0)"/>
     <use xlink:href="#DejaVuSans-20" transform="translate(469.042969 0)"/>
     <use xlink:href="#DejaVuSans-76" transform="translate(500.830078 0)"/>
     <use xlink:href="#DejaVuSans-73" transform="translate(560.009766 0)"/>
     <use xlink:href="#DejaVuSans-20" transform="translate(612.109375 0)"/>
     <use xlink:href="#DejaVuSans-53" transform="translate(643.896484 0)"/>
     <use xlink:href="#DejaVuSans-79" transform="translate(707.373047 0)"/>
     <use xlink:href="#DejaVuSans-6e" transform="translate(766.552734 0)"/>
     <use xlink:href="#DejaVuSans-74" transform="translate(829.931641 0)"/>
     <use xlink:href="#DejaVuSans-61" transform="translate(869.140625 0)"/>
     <use xlink:href="#DejaVuSans-63" transform="translate(930.419922 0)"/>
     <use xlink:href="#DejaVuSans-74" transform="translate(985.400391 0)"/>
     <use xlink:href="#DejaVuSans-69" transform="translate(1024.609375 0)"/>
     <use xlink:href="#DejaVuSans-63" transform="translate(1052.392578 0)"/>
     <use xlink:href="#DejaVuSans-20" transform="translate(1107.373047 0)"/>
     <use xlink:href="#DejaVuSans-53" transform="translate(1139.160156 0)"/>
     <use xlink:href="#DejaVuSans-69" transform="translate(1202.636719 0)"/>
     <use xlink:href="#DejaVuSans-6d" transform="translate(1230.419922 0)"/>
     <use xlink:href="#DejaVuSans-69" transform="translate(1327.832031 0)"/>
     <use xlink:href="#DejaVuSans-6c" transform="translate(1355.615234 0)"/>
     <use xlink:href="#DejaVuSans-61" transform="translate(1383.398438 0)"/>
     <use xlink:href="#DejaVuSans-72" transform="translate(1444.677734 0)"/>
     <use xlink:href="#DejaVuSans-69" transform="translate(1485.791016 0)"/>
     <use xlink:href="#DejaVuSans-74" transform="translate(1513.574219 0)"/>
     <use xlink:href="#DejaVuSans-79" transform="translate(1552.783203 0)"/>
    </g>
    <!-- on Blog Dataset, grouped by Paraphraser -->
    <g transform="translate(174.067106 29.7555) scale(0.12 -0.12)">
     <defs>
      <path id="DejaVuSans-6f" d="M 1959 3097 
Q 1497 3097 1228 2736 
Q 959 2375 959 1747 
Q 959 1119 1226 758 
Q 1494 397 1959 397 
Q 2419 397 2687 759 
Q 2956 1122 2956 1747 
Q 2956 2369 2687 2733 
Q 2419 3097 1959 3097 
z
M 1959 3584 
Q 2709 3584 3137 3096 
Q 3566 2609 3566 1747 
Q 3566 888 3137 398 
Q 2709 -91 1959 -91 
Q 1206 -91 779 398 
Q 353 888 353 1747 
Q 353 2609 779 3096 
Q 1206 3584 1959 3584 
z
" transform="scale(0.015625)"/>
      <path id="DejaVuSans-42" d="M 1259 2228 
L 1259 519 
L 2272 519 
Q 2781 519 3026 730 
Q 3272 941 3272 1375 
Q 3272 1813 3026 2020 
Q 2781 2228 2272 2228 
L 1259 2228 
z
M 1259 4147 
L 1259 2741 
L 2194 2741 
Q 2656 2741 2882 2914 
Q 3109 3088 3109 3444 
Q 3109 3797 2882 3972 
Q 2656 4147 2194 4147 
L 1259 4147 
z
M 628 4666 
L 2241 4666 
Q 2963 4666 3353 4366 
Q 3744 4066 3744 3513 
Q 3744 3084 3544 2831 
Q 3344 2578 2956 2516 
Q 3422 2416 3680 2098 
Q 3938 1781 3938 1306 
Q 3938 681 3513 340 
Q 3088 0 2303 0 
L 628 0 
L 628 4666 
z
" transform="scale(0.015625)"/>
      <path id="DejaVuSans-44" d="M 1259 4147 
L 1259 519 
L 2022 519 
Q 2988 519 3436 956 
Q 3884 1394 3884 2338 
Q 3884 3275 3436 3711 
Q 2988 4147 2022 4147 
L 1259 4147 
z
M 628 4666 
L 1925 4666 
Q 3281 4666 3915 4102 
Q 4550 3538 4550 2338 
Q 4550 1131 3912 565 
Q 3275 0 1925 0 
L 628 0 
L 628 4666 
z
" transform="scale(0.015625)"/>
      <path id="DejaVuSans-2c" d="M 750 794 
L 1409 794 
L 1409 256 
L 897 -744 
L 494 -744 
L 750 256 
L 750 794 
z
" transform="scale(0.015625)"/>
      <path id="DejaVuSans-75" d="M 544 1381 
L 544 3500 
L 1119 3500 
L 1119 1403 
Q 1119 906 1312 657 
Q 1506 409 1894 409 
Q 2359 409 2629 706 
Q 2900 1003 2900 1516 
L 2900 3500 
L 3475 3500 
L 3475 0 
L 2900 0 
L 2900 538 
Q 2691 219 2414 64 
Q 2138 -91 1772 -91 
Q 1169 -91 856 284 
Q 544 659 544 1381 
z
M 1991 3584 
L 1991 3584 
z
" transform="scale(0.015625)"/>
      <path id="DejaVuSans-70" d="M 1159 525 
L 1159 -1331 
L 581 -1331 
L 581 3500 
L 1159 3500 
L 1159 2969 
Q 1341 3281 1617 3432 
Q 1894 3584 2278 3584 
Q 2916 3584 3314 3078 
Q 3713 2572 3713 1747 
Q 3713 922 3314 415 
Q 2916 -91 2278 -91 
Q 1894 -91 1617 61 
Q 1341 213 1159 525 
z
M 3116 1747 
Q 3116 2381 2855 2742 
Q 2594 3103 2138 3103 
Q 1681 3103 1420 2742 
Q 1159 2381 1159 1747 
Q 1159 1113 1420 752 
Q 1681 391 2138 391 
Q 2594 391 2855 752 
Q 3116 1113 3116 1747 
z
" transform="scale(0.015625)"/>
      <path id="DejaVuSans-64" d="M 2906 2969 
L 2906 4863 
L 3481 4863 
L 3481 0 
L 2906 0 
L 2906 525 
Q 2725 213 2448 61 
Q 2172 -91 1784 -91 
Q 1150 -91 751 415 
Q 353 922 353 1747 
Q 353 2572 751 3078 
Q 1150 3584 1784 3584 
Q 2172 3584 2448 3432 
Q 2725 3281 2906 2969 
z
M 947 1747 
Q 947 1113 1208 752 
Q 1469 391 1925 391 
Q 2381 391 2643 752 
Q 2906 1113 2906 1747 
Q 2906 2381 2643 2742 
Q 2381 3103 1925 3103 
Q 1469 3103 1208 2742 
Q 947 2381 947 1747 
z
" transform="scale(0.015625)"/>
      <path id="DejaVuSans-62" d="M 3116 1747 
Q 3116 2381 2855 2742 
Q 2594 3103 2138 3103 
Q 1681 3103 1420 2742 
Q 1159 2381 1159 1747 
Q 1159 1113 1420 752 
Q 1681 391 2138 391 
Q 2594 391 2855 752 
Q 3116 1113 3116 1747 
z
M 1159 2969 
Q 1341 3281 1617 3432 
Q 1894 3584 2278 3584 
Q 2916 3584 3314 3078 
Q 3713 2572 3713 1747 
Q 3713 922 3314 415 
Q 2916 -91 2278 -91 
Q 1894 -91 1617 61 
Q 1341 213 1159 525 
L 1159 0 
L 581 0 
L 581 4863 
L 1159 4863 
L 1159 2969 
z
" transform="scale(0.015625)"/>
      <path id="DejaVuSans-50" d="M 1259 4147 
L 1259 2394 
L 2053 2394 
Q 2494 2394 2734 2622 
Q 2975 2850 2975 3272 
Q 2975 3691 2734 3919 
Q 2494 4147 2053 4147 
L 1259 4147 
z
M 628 4666 
L 2053 4666 
Q 2838 4666 3239 4311 
Q 3641 3956 3641 3272 
Q 3641 2581 3239 2228 
Q 2838 1875 2053 1875 
L 1259 1875 
L 1259 0 
L 628 0 
L 628 4666 
z
" transform="scale(0.015625)"/>
      <path id="DejaVuSans-68" d="M 3513 2113 
L 3513 0 
L 2938 0 
L 2938 2094 
Q 2938 2591 2744 2837 
Q 2550 3084 2163 3084 
Q 1697 3084 1428 2787 
Q 1159 2491 1159 1978 
L 1159 0 
L 581 0 
L 581 4863 
L 1159 4863 
L 1159 2956 
Q 1366 3272 1645 3428 
Q 1925 3584 2291 3584 
Q 2894 3584 3203 3211 
Q 3513 2838 3513 2113 
z
" transform="scale(0.015625)"/>
     </defs>
     <use xlink:href="#DejaVuSans-6f"/>
     <use xlink:href="#DejaVuSans-6e" transform="translate(61.181641 0)"/>
     <use xlink:href="#DejaVuSans-20" transform="translate(124.560547 0)"/>
     <use xlink:href="#DejaVuSans-42" transform="translate(156.347656 0)"/>
     <use xlink:href="#DejaVuSans-6c" transform="translate(224.951172 0)"/>
     <use xlink:href="#DejaVuSans-6f" transform="translate(252.734375 0)"/>
     <use xlink:href="#DejaVuSans-67" transform="translate(313.916016 0)"/>
     <use xlink:href="#DejaVuSans-20" transform="translate(377.392578 0)"/>
     <use xlink:href="#DejaVuSans-44" transform="translate(409.179688 0)"/>
     <use xlink:href="#DejaVuSans-61" transform="translate(486.181641 0)"/>
     <use xlink:href="#DejaVuSans-74" transform="translate(547.460938 0)"/>
     <use xlink:href="#DejaVuSans-61" transform="translate(586.669922 0)"/>
     <use xlink:href="#DejaVuSans-73" transform="translate(647.949219 0)"/>
     <use xlink:href="#DejaVuSans-65" transform="translate(700.048828 0)"/>
     <use xlink:href="#DejaVuSans-74" transform="translate(761.572266 0)"/>
     <use xlink:href="#DejaVuSans-2c" transform="translate(800.78125 0)"/>
     <use xlink:href="#DejaVuSans-20" transform="translate(832.568359 0)"/>
     <use xlink:href="#DejaVuSans-67" transform="translate(864.355469 0)"/>
     <use xlink:href="#DejaVuSans-72" transform="translate(927.832031 0)"/>
     <use xlink:href="#DejaVuSans-6f" transform="translate(966.695312 0)"/>
     <use xlink:href="#DejaVuSans-75" transform="translate(1027.876953 0)"/>
     <use xlink:href="#DejaVuSans-70" transform="translate(1091.255859 0)"/>
     <use xlink:href="#DejaVuSans-65" transform="translate(1154.732422 0)"/>
     <use xlink:href="#DejaVuSans-64" transform="translate(1216.255859 0)"/>
     <use xlink:href="#DejaVuSans-20" transform="translate(1279.732422 0)"/>
     <use xlink:href="#DejaVuSans-62" transform="translate(1311.519531 0)"/>
     <use xlink:href="#DejaVuSans-79" transform="translate(1374.996094 0)"/>
     <use xlink:href="#DejaVuSans-20" transform="translate(1434.175781 0)"/>
     <use xlink:href="#DejaVuSans-50" transform="translate(1465.962891 0)"/>
     <use xlink:href="#DejaVuSans-61" transform="translate(1521.765625 0)"/>
     <use xlink:href="#DejaVuSans-72" transform="translate(1583.044922 0)"/>
     <use xlink:href="#DejaVuSans-61" transform="translate(1624.158203 0)"/>
     <use xlink:href="#DejaVuSans-70" transform="translate(1685.4375 0)"/>
     <use xlink:href="#DejaVuSans-68" transform="translate(1748.914062 0)"/>
     <use xlink:href="#DejaVuSans-72" transform="translate(1812.292969 0)"/>
     <use xlink:href="#DejaVuSans-61" transform="translate(1853.40625 0)"/>
     <use xlink:href="#DejaVuSans-73" transform="translate(1914.685547 0)"/>
     <use xlink:href="#DejaVuSans-65" transform="translate(1966.785156 0)"/>
     <use xlink:href="#DejaVuSans-72" transform="translate(2028.308594 0)"/>
    </g>
   </g>
   <g id="legend_1">
    <g id="patch_7">
     <path d="M 569.457776 171.526437 
L 719.445589 171.526437 
Q 721.245589 171.526437 721.245589 169.726437 
L 721.245589 37.5555 
Q 721.245589 35.7555 719.445589 35.7555 
L 569.457776 35.7555 
Q 567.657776 35.7555 567.657776 37.5555 
L 567.657776 169.726437 
Q 567.657776 171.526437 569.457776 171.526437 
z
" style="fill: #ffffff; opacity: 0.8; stroke: #cccccc; stroke-linejoin: miter"/>
    </g>
    <g id="text_16">
     <!-- Paraphraser -->
     <g transform="translate(614.279026 46.953937) scale(0.1 -0.1)">
      <use xlink:href="#DejaVuSans-50"/>
      <use xlink:href="#DejaVuSans-61" transform="translate(55.802734 0)"/>
      <use xlink:href="#DejaVuSans-72" transform="translate(117.082031 0)"/>
      <use xlink:href="#DejaVuSans-61" transform="translate(158.195312 0)"/>
      <use xlink:href="#DejaVuSans-70" transform="translate(219.474609 0)"/>
      <use xlink:href="#DejaVuSans-68" transform="translate(282.951172 0)"/>
      <use xlink:href="#DejaVuSans-72" transform="translate(346.330078 0)"/>
      <use xlink:href="#DejaVuSans-61" transform="translate(387.443359 0)"/>
      <use xlink:href="#DejaVuSans-73" transform="translate(448.722656 0)"/>
      <use xlink:href="#DejaVuSans-65" transform="translate(500.822266 0)"/>
      <use xlink:href="#DejaVuSans-72" transform="translate(562.345703 0)"/>
     </g>
    </g>
    <g id="patch_8">
     <path d="M 571.257776 60.372219 
L 589.257776 60.372219 
L 589.257776 54.072219 
L 571.257776 54.072219 
z
" style="fill: #1f77b4; stroke: #1f77b4; stroke-linejoin: miter"/>
    </g>
    <g id="text_17">
     <!-- qwen3-32b -->
     <g transform="translate(596.457776 60.372219) scale(0.09 -0.09)">
      <defs>
       <path id="DejaVuSans-71" d="M 947 1747 
Q 947 1113 1208 752 
Q 1469 391 1925 391 
Q 2381 391 2643 752 
Q 2906 1113 2906 1747 
Q 2906 2381 2643 2742 
Q 2381 3103 1925 3103 
Q 1469 3103 1208 2742 
Q 947 2381 947 1747 
z
M 2906 525 
Q 2725 213 2448 61 
Q 2172 -91 1784 -91 
Q 1150 -91 751 415 
Q 353 922 353 1747 
Q 353 2572 751 3078 
Q 1150 3584 1784 3584 
Q 2172 3584 2448 3432 
Q 2725 3281 2906 2969 
L 2906 3500 
L 3481 3500 
L 3481 -1331 
L 2906 -1331 
L 2906 525 
z
" transform="scale(0.015625)"/>
       <path id="DejaVuSans-77" d="M 269 3500 
L 844 3500 
L 1563 769 
L 2278 3500 
L 2956 3500 
L 3675 769 
L 4391 3500 
L 4966 3500 
L 4050 0 
L 3372 0 
L 2619 2869 
L 1863 0 
L 1184 0 
L 269 3500 
z
" transform="scale(0.015625)"/>
       <path id="DejaVuSans-2d" d="M 313 2009 
L 1997 2009 
L 1997 1497 
L 313 1497 
L 313 2009 
z
" transform="scale(0.015625)"/>
      </defs>
      <use xlink:href="#DejaVuSans-71"/>
      <use xlink:href="#DejaVuSans-77" transform="translate(63.476562 0)"/>
      <use xlink:href="#DejaVuSans-65" transform="translate(145.263672 0)"/>
      <use xlink:href="#DejaVuSans-6e" transform="translate(206.787109 0)"/>
      <use xlink:href="#DejaVuSans-33" transform="translate(270.166016 0)"/>
      <use xlink:href="#DejaVuSans-2d" transform="translate(333.789062 0)"/>
      <use xlink:href="#DejaVuSans-33" transform="translate(369.873047 0)"/>
      <use xlink:href="#DejaVuSans-32" transform="translate(433.496094 0)"/>
      <use xlink:href="#DejaVuSans-62" transform="translate(497.119141 0)"/>
     </g>
    </g>
    <g id="patch_9">
     <path d="M 571.257776 73.582531 
L 589.257776 73.582531 
L 589.257776 67.282531 
L 571.257776 67.282531 
z
" style="fill: #aec7e8; stroke: #aec7e8; stroke-linejoin: miter"/>
    </g>
    <g id="text_18">
     <!-- mistral-large-instruct -->
     <g transform="translate(596.457776 73.582531) scale(0.09 -0.09)">
      <use xlink:href="#DejaVuSans-6d"/>
      <use xlink:href="#DejaVuSans-69" transform="translate(97.412109 0)"/>
      <use xlink:href="#DejaVuSans-73" transform="translate(125.195312 0)"/>
      <use xlink:href="#DejaVuSans-74" transform="translate(177.294922 0)"/>
      <use xlink:href="#DejaVuSans-72" transform="translate(216.503906 0)"/>
      <use xlink:href="#DejaVuSans-61" transform="translate(257.617188 0)"/>
      <use xlink:href="#DejaVuSans-6c" transform="translate(318.896484 0)"/>
      <use xlink:href="#DejaVuSans-2d" transform="translate(346.679688 0)"/>
      <use xlink:href="#DejaVuSans-6c" transform="translate(382.763672 0)"/>
      <use xlink:href="#DejaVuSans-61" transform="translate(410.546875 0)"/>
      <use xlink:href="#DejaVuSans-72" transform="translate(471.826172 0)"/>
      <use xlink:href="#DejaVuSans-67" transform="translate(511.189453 0)"/>
      <use xlink:href="#DejaVuSans-65" transform="translate(574.666016 0)"/>
      <use xlink:href="#DejaVuSans-2d" transform="translate(636.189453 0)"/>
      <use xlink:href="#DejaVuSans-69" transform="translate(672.273438 0)"/>
      <use xlink:href="#DejaVuSans-6e" transform="translate(700.056641 0)"/>
      <use xlink:href="#DejaVuSans-73" transform="translate(763.435547 0)"/>
      <use xlink:href="#DejaVuSans-74" transform="translate(815.535156 0)"/>
      <use xlink:href="#DejaVuSans-72" transform="translate(854.744141 0)"/>
      <use xlink:href="#DejaVuSans-75" transform="translate(895.857422 0)"/>
      <use xlink:href="#DejaVuSans-63" transform="translate(959.236328 0)"/>
      <use xlink:href="#DejaVuSans-74" transform="translate(1014.216797 0)"/>
     </g>
    </g>
    <g id="patch_10">
     <path d="M 571.257776 86.792844 
L 589.257776 86.792844 
L 589.257776 80.492844 
L 571.257776 80.492844 
z
" style="fill: #ff7f0e; stroke: #ff7f0e; stroke-linejoin: miter"/>
    </g>
    <g id="text_19">
     <!-- openai-gpt-oss-120b -->
     <g transform="translate(596.457776 86.792844) scale(0.09 -0.09)">
      <use xlink:href="#DejaVuSans-6f"/>
      <use xlink:href="#DejaVuSans-70" transform="translate(61.181641 0)"/>
      <use xlink:href="#DejaVuSans-65" transform="translate(124.658203 0)"/>
      <use xlink:href="#DejaVuSans-6e" transform="translate(186.181641 0)"/>
      <use xlink:href="#DejaVuSans-61" transform="translate(249.560547 0)"/>
      <use xlink:href="#DejaVuSans-69" transform="translate(310.839844 0)"/>
      <use xlink:href="#DejaVuSans-2d" transform="translate(338.623047 0)"/>
      <use xlink:href="#DejaVuSans-67" transform="translate(374.707031 0)"/>
      <use xlink:href="#DejaVuSans-70" transform="translate(438.183594 0)"/>
      <use xlink:href="#DejaVuSans-74" transform="translate(501.660156 0)"/>
      <use xlink:href="#DejaVuSans-2d" transform="translate(540.869141 0)"/>
      <use xlink:href="#DejaVuSans-6f" transform="translate(578.828125 0)"/>
      <use xlink:href="#DejaVuSans-73" transform="translate(640.009766 0)"/>
      <use xlink:href="#DejaVuSans-73" transform="translate(692.109375 0)"/>
      <use xlink:href="#DejaVuSans-2d" transform="translate(744.208984 0)"/>
      <use xlink:href="#DejaVuSans-31" transform="translate(780.292969 0)"/>
      <use xlink:href="#DejaVuSans-32" transform="translate(843.916016 0)"/>
      <use xlink:href="#DejaVuSans-30" transform="translate(907.539062 0)"/>
      <use xlink:href="#DejaVuSans-62" transform="translate(971.162109 0)"/>
     </g>
    </g>
    <g id="patch_11">
     <path d="M 571.257776 100.003156 
L 589.257776 100.003156 
L 589.257776 93.703156 
L 571.257776 93.703156 
z
" style="fill: #ffbb78; stroke: #ffbb78; stroke-linejoin: miter"/>
    </g>
    <g id="text_20">
     <!-- meta-llama-3.1-8b-instruct -->
     <g transform="translate(596.457776 100.003156) scale(0.09 -0.09)">
      <use xlink:href="#DejaVuSans-6d"/>
      <use xlink:href="#DejaVuSans-65" transform="translate(97.412109 0)"/>
      <use xlink:href="#DejaVuSans-74" transform="translate(158.935547 0)"/>
      <use xlink:href="#DejaVuSans-61" transform="translate(198.144531 0)"/>
      <use xlink:href="#DejaVuSans-2d" transform="translate(259.423828 0)"/>
      <use xlink:href="#DejaVuSans-6c" transform="translate(295.507812 0)"/>
      <use xlink:href="#DejaVuSans-6c" transform="translate(323.291016 0)"/>
      <use xlink:href="#DejaVuSans-61" transform="translate(351.074219 0)"/>
      <use xlink:href="#DejaVuSans-6d" transform="translate(412.353516 0)"/>
      <use xlink:href="#DejaVuSans-61" transform="translate(509.765625 0)"/>
      <use xlink:href="#DejaVuSans-2d" transform="translate(571.044922 0)"/>
      <use xlink:href="#DejaVuSans-33" transform="translate(607.128906 0)"/>
      <use xlink:href="#DejaVuSans-2e" transform="translate(670.751953 0)"/>
      <use xlink:href="#DejaVuSans-31" transform="translate(702.539062 0)"/>
      <use xlink:href="#DejaVuSans-2d" transform="translate(766.162109 0)"/>
      <use xlink:href="#DejaVuSans-38" transform="translate(802.246094 0)"/>
      <use xlink:href="#DejaVuSans-62" transform="translate(865.869141 0)"/>
      <use xlink:href="#DejaVuSans-2d" transform="translate(929.345703 0)"/>
      <use xlink:href="#DejaVuSans-69" transform="translate(965.429688 0)"/>
      <use xlink:href="#DejaVuSans-6e" transform="translate(993.212891 0)"/>
      <use xlink:href="#DejaVuSans-73" transform="translate(1056.591797 0)"/>
      <use xlink:href="#DejaVuSans-74" transform="translate(1108.691406 0)"/>
      <use xlink:href="#DejaVuSans-72" transform="translate(1147.900391 0)"/>
      <use xlink:href="#DejaVuSans-75" transform="translate(1189.013672 0)"/>
      <use xlink:href="#DejaVuSans-63" transform="translate(1252.392578 0)"/>
      <use xlink:href="#DejaVuSans-74" transform="translate(1307.373047 0)"/>
     </g>
    </g>
    <g id="patch_12">
     <path d="M 571.257776 113.213469 
L 589.257776 113.213469 
L 589.257776 106.913469 
L 571.257776 106.913469 
z
" style="fill: #2ca02c; stroke: #2ca02c; stroke-linejoin: miter"/>
    </g>
    <g id="text_21">
     <!-- BulletPoint -->
     <g transform="translate(596.457776 113.213469) scale(0.09 -0.09)">
      <use xlink:href="#DejaVuSans-42"/>
      <use xlink:href="#DejaVuSans-75" transform="translate(68.603516 0)"/>
      <use xlink:href="#DejaVuSans-6c" transform="translate(131.982422 0)"/>
      <use xlink:href="#DejaVuSans-6c" transform="translate(159.765625 0)"/>
      <use xlink:href="#DejaVuSans-65" transform="translate(187.548828 0)"/>
      <use xlink:href="#DejaVuSans-74" transform="translate(249.072266 0)"/>
      <use xlink:href="#DejaVuSans-50" transform="translate(288.28125 0)"/>
      <use xlink:href="#DejaVuSans-6f" transform="translate(344.958984 0)"/>
      <use xlink:href="#DejaVuSans-69" transform="translate(406.140625 0)"/>
      <use xlink:href="#DejaVuSans-6e" transform="translate(433.923828 0)"/>
      <use xlink:href="#DejaVuSans-74" transform="translate(497.302734 0)"/>
     </g>
    </g>
    <g id="patch_13">
     <path d="M 571.257776 126.423781 
L 589.257776 126.423781 
L 589.257776 120.123781 
L 571.257776 120.123781 
z
" style="fill: #98df8a; stroke: #98df8a; stroke-linejoin: miter"/>
    </g>
    <g id="text_22">
     <!-- Task -->
     <g transform="translate(596.457776 126.423781) scale(0.09 -0.09)">
      <defs>
       <path id="DejaVuSans-54" d="M -19 4666 
L 3928 4666 
L 3928 4134 
L 2272 4134 
L 2272 0 
L 1638 0 
L 1638 4134 
L -19 4134 
L -19 4666 
z
" transform="scale(0.015625)"/>
       <path id="DejaVuSans-6b" d="M 581 4863 
L 1159 4863 
L 1159 1991 
L 2875 3500 
L 3609 3500 
L 1753 1863 
L 3688 0 
L 2938 0 
L 1159 1709 
L 1159 0 
L 581 0 
L 581 4863 
z
" transform="scale(0.015625)"/>
      </defs>
      <use xlink:href="#DejaVuSans-54"/>
      <use xlink:href="#DejaVuSans-61" transform="translate(44.583984 0)"/>
      <use xlink:href="#DejaVuSans-73" transform="translate(105.863281 0)"/>
      <use xlink:href="#DejaVuSans-6b" transform="translate(157.962891 0)"/>
     </g>
    </g>
    <g id="patch_14">
     <path d="M 571.257776 139.634094 
L 589.257776 139.634094 
L 589.257776 133.334094 
L 571.257776 133.334094 
z
" style="fill: #d62728; stroke: #d62728; stroke-linejoin: miter"/>
    </g>
    <g id="text_23">
     <!-- Topic -->
     <g transform="translate(596.457776 139.634094) scale(0.09 -0.09)">
      <use xlink:href="#DejaVuSans-54"/>
      <use xlink:href="#DejaVuSans-6f" transform="translate(44.083984 0)"/>
      <use xlink:href="#DejaVuSans-70" transform="translate(105.265625 0)"/>
      <use xlink:href="#DejaVuSans-69" transform="translate(168.742188 0)"/>
      <use xlink:href="#DejaVuSans-63" transform="translate(196.525391 0)"/>
     </g>
    </g>
    <g id="patch_15">
     <path d="M 571.257776 152.844406 
L 589.257776 152.844406 
L 589.257776 146.544406 
L 571.257776 146.544406 
z
" style="fill: #ff9896; stroke: #ff9896; stroke-linejoin: miter"/>
    </g>
    <g id="text_24">
     <!-- Title -->
     <g transform="translate(596.457776 152.844406) scale(0.09 -0.09)">
      <use xlink:href="#DejaVuSans-54"/>
      <use xlink:href="#DejaVuSans-69" transform="translate(57.958984 0)"/>
      <use xlink:href="#DejaVuSans-74" transform="translate(85.742188 0)"/>
      <use xlink:href="#DejaVuSans-6c" transform="translate(124.951172 0)"/>
      <use xlink:href="#DejaVuSans-65" transform="translate(152.734375 0)"/>
     </g>
    </g>
    <g id="patch_16">
     <path d="M 571.257776 166.054719 
L 589.257776 166.054719 
L 589.257776 159.754719 
L 571.257776 159.754719 
z
" style="fill: #9467bd; stroke: #9467bd; stroke-linejoin: miter"/>
    </g>
    <g id="text_25">
     <!-- Translation -->
     <g transform="translate(596.457776 166.054719) scale(0.09 -0.09)">
      <use xlink:href="#DejaVuSans-54"/>
      <use xlink:href="#DejaVuSans-72" transform="translate(46.333984 0)"/>
      <use xlink:href="#DejaVuSans-61" transform="translate(87.447266 0)"/>
      <use xlink:href="#DejaVuSans-6e" transform="translate(148.726562 0)"/>
      <use xlink:href="#DejaVuSans-73" transform="translate(212.105469 0)"/>
      <use xlink:href="#DejaVuSans-6c" transform="translate(264.205078 0)"/>
      <use xlink:href="#DejaVuSans-61" transform="translate(291.988281 0)"/>
      <use xlink:href="#DejaVuSans-74" transform="translate(353.267578 0)"/>
      <use xlink:href="#DejaVuSans-69" transform="translate(392.476562 0)"/>
      <use xlink:href="#DejaVuSans-6f" transform="translate(420.259766 0)"/>
      <use xlink:href="#DejaVuSans-6e" transform="translate(481.441406 0)"/>
     </g>
    </g>
   </g>
  </g>
  <g id="axes_2">
   <g id="patch_17">
    <path d="M 652.19976 392.99976 
L 832.19976 392.99976 
L 832.19976 284.99976 
L 652.19976 284.99976 
L 652.19976 392.99976 
z
" style="fill: none"/>
   </g>
   <g id="PathCollection_2">
    <defs>
     <path id="C1_0_d8a9549d1e" d="M 0 3.162278 
C 0.838646 3.162278 1.643056 2.82908 2.236068 2.236068 
C 2.82908 1.643056 3.162278 0.838646 3.162278 -0 
C 3.162278 -0.838646 2.82908 -1.643056 2.236068 -2.236068 
C 1.643056 -2.82908 0.838646 -3.162278 0 -3.162278 
C -0.838646 -3.162278 -1.643056 -2.82908 -2.236068 -2.236068 
C -2.82908 -1.643056 -3.162278 -0.838646 -3.162278 0 
C -3.162278 0.838646 -2.82908 1.643056 -2.236068 2.236068 
C -1.643056 2.82908 -0.838646 3.162278 0 3.162278 
z
"/>
    </defs>
    <g clip-path="url(#p23a1873959)">
     <use xlink:href="#C1_0_d8a9549d1e" x="754.557996" y="377.707568" style="fill: #1f77b4; fill-opacity: 0.7; stroke: #000000; stroke-opacity: 0.7; stroke-width: 0.505964"/>
    </g>
    <g clip-path="url(#p23a1873959)">
     <use xlink:href="#C1_0_d8a9549d1e" x="763.293881" y="356.764889" style="fill: #1f77b4; fill-opacity: 0.7; stroke: #000000; stroke-opacity: 0.7; stroke-width: 0.505964"/>
    </g>
    <g clip-path="url(#p23a1873959)">
     <use xlink:href="#C1_0_d8a9549d1e" x="759.49752" y="388.256397" style="fill: #aec7e8; fill-opacity: 0.7; stroke: #000000; stroke-opacity: 0.7; stroke-width: 0.505964"/>
    </g>
    <g clip-path="url(#p23a1873959)">
     <use xlink:href="#C1_0_d8a9549d1e" x="757.470372" y="388.681176" style="fill: #aec7e8; fill-opacity: 0.7; stroke: #000000; stroke-opacity: 0.7; stroke-width: 0.505964"/>
    </g>
    <g clip-path="url(#p23a1873959)">
     <use xlink:href="#C1_0_d8a9549d1e" x="754.002626" y="390.630867" style="fill: #ff7f0e; fill-opacity: 0.7; stroke: #000000; stroke-opacity: 0.7; stroke-width: 0.505964"/>
    </g>
    <g clip-path="url(#p23a1873959)">
     <use xlink:href="#C1_0_d8a9549d1e" x="756.354469" y="390.128374" style="fill: #ff7f0e; fill-opacity: 0.7; stroke: #000000; stroke-opacity: 0.7; stroke-width: 0.505964"/>
    </g>
    <g clip-path="url(#p23a1873959)">
     <use xlink:href="#C1_0_d8a9549d1e" x="764.041429" y="378.709408" style="fill: #ffbb78; fill-opacity: 0.7; stroke: #000000; stroke-opacity: 0.7; stroke-width: 0.505964"/>
    </g>
    <g clip-path="url(#p23a1873959)">
     <use xlink:href="#C1_0_d8a9549d1e" x="752.457359" y="388.689652" style="fill: #ffbb78; fill-opacity: 0.7; stroke: #000000; stroke-opacity: 0.7; stroke-width: 0.505964"/>
    </g>
    <g clip-path="url(#p23a1873959)">
     <use xlink:href="#C1_0_d8a9549d1e" x="766.154257" y="373.652713" style="fill: #2ca02c; fill-opacity: 0.7; stroke: #000000; stroke-opacity: 0.7; stroke-width: 0.505964"/>
    </g>
    <g clip-path="url(#p23a1873959)">
     <use xlink:href="#C1_0_d8a9549d1e" x="765.849662" y="374.271456" style="fill: #2ca02c; fill-opacity: 0.7; stroke: #000000; stroke-opacity: 0.7; stroke-width: 0.505964"/>
    </g>
    <g clip-path="url(#p23a1873959)">
     <use xlink:href="#C1_0_d8a9549d1e" x="768.22835" y="374.239633" style="fill: #98df8a; fill-opacity: 0.7; stroke: #000000; stroke-opacity: 0.7; stroke-width: 0.505964"/>
    </g>
    <g clip-path="url(#p23a1873959)">
     <use xlink:href="#C1_0_d8a9549d1e" x="765.82318" y="373.815931" style="fill: #98df8a; fill-opacity: 0.7; stroke: #000000; stroke-opacity: 0.7; stroke-width: 0.505964"/>
    </g>
    <g clip-path="url(#p23a1873959)">
     <use xlink:href="#C1_0_d8a9549d1e" x="761.283809" y="374.885073" style="fill: #d62728; fill-opacity: 0.7; stroke: #000000; stroke-opacity: 0.7; stroke-width: 0.505964"/>
    </g>
    <g clip-path="url(#p23a1873959)">
     <use xlink:href="#C1_0_d8a9549d1e" x="764.489454" y="375.084485" style="fill: #d62728; fill-opacity: 0.7; stroke: #000000; stroke-opacity: 0.7; stroke-width: 0.505964"/>
    </g>
    <g clip-path="url(#p23a1873959)">
     <use xlink:href="#C1_0_d8a9549d1e" x="763.61276" y="374.374972" style="fill: #ff9896; fill-opacity: 0.7; stroke: #000000; stroke-opacity: 0.7; stroke-width: 0.505964"/>
    </g>
    <g clip-path="url(#p23a1873959)">
     <use xlink:href="#C1_0_d8a9549d1e" x="762.267792" y="375.520119" style="fill: #ff9896; fill-opacity: 0.7; stroke: #000000; stroke-opacity: 0.7; stroke-width: 0.505964"/>
    </g>
    <g clip-path="url(#p23a1873959)">
     <use xlink:href="#C1_0_d8a9549d1e" x="793.056941" y="339.641967" style="fill: #9467bd; fill-opacity: 0.7; stroke: #000000; stroke-opacity: 0.7; stroke-width: 0.505964"/>
    </g>
    <g clip-path="url(#p23a1873959)">
     <use xlink:href="#C1_0_d8a9549d1e" x="799.518951" y="334.518973" style="fill: #9467bd; fill-opacity: 0.7; stroke: #000000; stroke-opacity: 0.7; stroke-width: 0.505964"/>
    </g>
   </g>
   <g id="matplotlib.axis_3">
    <g id="xtick_7">
     <g id="line2d_34">
      <path d="M 652.19976 392.99976 
L 652.19976 284.99976 
" clip-path="url(#p23a1873959)" style="fill: none; stroke: #b0b0b0; stroke-width: 0.8; stroke-linecap: square"/>
     </g>
     <g id="line2d_35">
      <g>
       <use xlink:href="#m45c01f26a7" x="652.19976" y="392.99976" style="stroke: #000000; stroke-width: 0.8"/>
      </g>
     </g>
     <g id="text_26">
      <!-- 0.0 -->
      <g transform="translate(645.83851 406.07851) scale(0.08 -0.08)">
       <use xlink:href="#DejaVuSans-30"/>
       <use xlink:href="#DejaVuSans-2e" transform="translate(63.623047 0)"/>
       <use xlink:href="#DejaVuSans-30" transform="translate(95.410156 0)"/>
      </g>
     </g>
    </g>
    <g id="xtick_8">
     <g id="line2d_36">
      <path d="M 742.19976 392.99976 
L 742.19976 284.99976 
" clip-path="url(#p23a1873959)" style="fill: none; stroke: #b0b0b0; stroke-width: 0.8; stroke-linecap: square"/>
     </g>
     <g id="line2d_37">
      <g>
       <use xlink:href="#m45c01f26a7" x="742.19976" y="392.99976" style="stroke: #000000; stroke-width: 0.8"/>
      </g>
     </g>
     <g id="text_27">
      <!-- 0.5 -->
      <g transform="translate(735.83851 406.07851) scale(0.08 -0.08)">
       <use xlink:href="#DejaVuSans-30"/>
       <use xlink:href="#DejaVuSans-2e" transform="translate(63.623047 0)"/>
       <use xlink:href="#DejaVuSans-35" transform="translate(95.410156 0)"/>
      </g>
     </g>
    </g>
    <g id="xtick_9">
     <g id="line2d_38">
      <path d="M 832.19976 392.99976 
L 832.19976 284.99976 
" clip-path="url(#p23a1873959)" style="fill: none; stroke: #b0b0b0; stroke-width: 0.8; stroke-linecap: square"/>
     </g>
     <g id="line2d_39">
      <g>
       <use xlink:href="#m45c01f26a7" x="832.19976" y="392.99976" style="stroke: #000000; stroke-width: 0.8"/>
      </g>
     </g>
     <g id="text_28">
      <!-- 1.0 -->
      <g transform="translate(825.83851 406.07851) scale(0.08 -0.08)">
       <use xlink:href="#DejaVuSans-31"/>
       <use xlink:href="#DejaVuSans-2e" transform="translate(63.623047 0)"/>
       <use xlink:href="#DejaVuSans-30" transform="translate(95.410156 0)"/>
      </g>
     </g>
    </g>
    <g id="text_29">
     <!-- sem_sim_avg -->
     <g transform="translate(708.586479 419.340697) scale(0.1 -0.1)">
      <use xlink:href="#DejaVuSans-73"/>
      <use xlink:href="#DejaVuSans-65" transform="translate(52.099609 0)"/>
      <use xlink:href="#DejaVuSans-6d" transform="translate(113.623047 0)"/>
      <use xlink:href="#DejaVuSans-5f" transform="translate(211.035156 0)"/>
      <use xlink:href="#DejaVuSans-73" transform="translate(261.035156 0)"/>
      <use xlink:href="#DejaVuSans-69" transform="translate(313.134766 0)"/>
      <use xlink:href="#DejaVuSans-6d" transform="translate(340.917969 0)"/>
      <use xlink:href="#DejaVuSans-5f" transform="translate(438.330078 0)"/>
      <use xlink:href="#DejaVuSans-61" transform="translate(488.330078 0)"/>
      <use xlink:href="#DejaVuSans-76" transform="translate(549.609375 0)"/>
      <use xlink:href="#DejaVuSans-67" transform="translate(608.789062 0)"/>
     </g>
    </g>
   </g>
   <g id="matplotlib.axis_4">
    <g id="ytick_7">
     <g id="line2d_40">
      <path d="M 652.19976 392.99976 
L 832.19976 392.99976 
" clip-path="url(#p23a1873959)" style="fill: none; stroke: #b0b0b0; stroke-width: 0.8; stroke-linecap: square"/>
     </g>
     <g id="line2d_41">
      <g>
       <use xlink:href="#mac614a4111" x="652.19976" y="392.99976" style="stroke: #000000; stroke-width: 0.8"/>
      </g>
     </g>
     <g id="text_30">
      <!-- 0.0 -->
      <g transform="translate(632.47726 396.039135) scale(0.08 -0.08)">
       <use xlink:href="#DejaVuSans-30"/>
       <use xlink:href="#DejaVuSans-2e" transform="translate(63.623047 0)"/>
       <use xlink:href="#DejaVuSans-30" transform="translate(95.410156 0)"/>
      </g>
     </g>
    </g>
    <g id="ytick_8">
     <g id="line2d_42">
      <path d="M 652.19976 338.99976 
L 832.19976 338.99976 
" clip-path="url(#p23a1873959)" style="fill: none; stroke: #b0b0b0; stroke-width: 0.8; stroke-linecap: square"/>
     </g>
     <g id="line2d_43">
      <g>
       <use xlink:href="#mac614a4111" x="652.19976" y="338.99976" style="stroke: #000000; stroke-width: 0.8"/>
      </g>
     </g>
     <g id="text_31">
      <!-- 0.5 -->
      <g transform="translate(632.47726 342.039135) scale(0.08 -0.08)">
       <use xlink:href="#DejaVuSans-30"/>
       <use xlink:href="#DejaVuSans-2e" transform="translate(63.623047 0)"/>
       <use xlink:href="#DejaVuSans-35" transform="translate(95.410156 0)"/>
      </g>
     </g>
    </g>
    <g id="ytick_9">
     <g id="line2d_44">
      <path d="M 652.19976 284.99976 
L 832.19976 284.99976 
" clip-path="url(#p23a1873959)" style="fill: none; stroke: #b0b0b0; stroke-width: 0.8; stroke-linecap: square"/>
     </g>
     <g id="line2d_45">
      <g>
       <use xlink:href="#mac614a4111" x="652.19976" y="284.99976" style="stroke: #000000; stroke-width: 0.8"/>
      </g>
     </g>
     <g id="text_32">
      <!-- 1.0 -->
      <g transform="translate(632.47726 288.039135) scale(0.08 -0.08)">
       <use xlink:href="#DejaVuSans-31"/>
       <use xlink:href="#DejaVuSans-2e" transform="translate(63.623047 0)"/>
       <use xlink:href="#DejaVuSans-30" transform="translate(95.410156 0)"/>
      </g>
     </g>
    </g>
    <g id="text_33">
     <!-- syn_sim_avg -->
     <g transform="translate(626.119447 370.794291) rotate(-90) scale(0.1 -0.1)">
      <use xlink:href="#DejaVuSans-73"/>
      <use xlink:href="#DejaVuSans-79" transform="translate(52.099609 0)"/>
      <use xlink:href="#DejaVuSans-6e" transform="translate(111.279297 0)"/>
      <use xlink:href="#DejaVuSans-5f" transform="translate(174.658203 0)"/>
      <use xlink:href="#DejaVuSans-73" transform="translate(224.658203 0)"/>
      <use xlink:href="#DejaVuSans-69" transform="translate(276.757812 0)"/>
      <use xlink:href="#DejaVuSans-6d" transform="translate(304.541016 0)"/>
      <use xlink:href="#DejaVuSans-5f" transform="translate(401.953125 0)"/>
      <use xlink:href="#DejaVuSans-61" transform="translate(451.953125 0)"/>
      <use xlink:href="#DejaVuSans-76" transform="translate(513.232422 0)"/>
      <use xlink:href="#DejaVuSans-67" transform="translate(572.412109 0)"/>
     </g>
    </g>
   </g>
   <g id="patch_18">
    <path d="M 652.19976 392.99976 
L 652.19976 284.99976 
" style="fill: none; stroke: #000000; stroke-width: 0.8; stroke-linejoin: miter; stroke-linecap: square"/>
   </g>
   <g id="patch_19">
    <path d="M 832.19976 392.99976 
L 832.19976 284.99976 
" style="fill: none; stroke: #000000; stroke-width: 0.8; stroke-linejoin: miter; stroke-linecap: square"/>
   </g>
   <g id="patch_20">
    <path d="M 652.19976 392.99976 
L 832.19976 392.99976 
" style="fill: none; stroke: #000000; stroke-width: 0.8; stroke-linejoin: miter; stroke-linecap: square"/>
   </g>
   <g id="patch_21">
    <path d="M 652.19976 284.99976 
L 832.19976 284.99976 
" style="fill: none; stroke: #000000; stroke-width: 0.8; stroke-linejoin: miter; stroke-linecap: square"/>
   </g>
   <g id="text_34">
    <!-- Full range -->
    <g transform="translate(712.588822 278.99976) scale(0.12 -0.12)">
     <defs>
      <path id="DejaVuSans-46" d="M 628 4666 
L 3309 4666 
L 3309 4134 
L 1259 4134 
L 1259 2759 
L 3109 2759 
L 3109 2228 
L 1259 2228 
L 1259 0 
L 628 0 
L 628 4666 
z
" transform="scale(0.015625)"/>
     </defs>
     <use xlink:href="#DejaVuSans-46"/>
     <use xlink:href="#DejaVuSans-75" transform="translate(52.019531 0)"/>
     <use xlink:href="#DejaVuSans-6c" transform="translate(115.398438 0)"/>
     <use xlink:href="#DejaVuSans-6c" transform="translate(143.181641 0)"/>
     <use xlink:href="#DejaVuSans-20" transform="translate(170.964844 0)"/>
     <use xlink:href="#DejaVuSans-72" transform="translate(202.751953 0)"/>
     <use xlink:href="#DejaVuSans-61" transform="translate(243.865234 0)"/>
     <use xlink:href="#DejaVuSans-6e" transform="translate(305.144531 0)"/>
     <use xlink:href="#DejaVuSans-67" transform="translate(368.523438 0)"/>
     <use xlink:href="#DejaVuSans-65" transform="translate(432 0)"/>
    </g>
   </g>
  </g>
 </g>
 <defs>
  <clipPath id="p6881ccc80b">
   <rect x="44.059375" y="35.7555" width="508.347963" height="366.809645"/>
  </clipPath>
  <clipPath id="p23a1873959">
   <rect x="652.19976" y="284.99976" width="180" height="108"/>
  </clipPath>
 </defs>
</svg>
