<?xml version="1.0" encoding="utf-8" standalone="no"?>
<!DOCTYPE svg PUBLIC "-//W3C//DTD SVG 1.1//EN"
  "http://www.w3.org/Graphics/SVG/1.1/DTD/svg11.dtd">
<svg xmlns:xlink="http://www.w3.org/1999/xlink" width="709.5085pt" height="423.21125pt" viewBox="0 0 709.5085 423.21125" xmlns="http://www.w3.org/2000/svg" version="1.1">
 <metadata>
  <rdf:RDF xmlns:dc="http://purl.org/dc/elements/1.1/" xmlns:cc="http://creativecommons.org/ns#" xmlns:rdf="http://www.w3.org/1999/02/22-rdf-syntax-ns#">
   <cc:Work>
    <dc:type rdf:resource="http://purl.org/dc/dcmitype/StillImage"/>
    <dc:date>2025-08-17T13:38:14.579868</dc:date>
    <dc:format>image/svg+xml</dc:format>
    <dc:creator>
     <cc:Agent>
      <dc:title>Matplotlib v3.10.3, https://matplotlib.org/</dc:title>
     </cc:Agent>
    </dc:creator>
   </cc:Work>
  </rdf:RDF>
 </metadata>
 <defs>
  <style type="text/css">*{stroke-linejoin: round; stroke-linecap: butt}</style>
 </defs>
 <g id="figure_1">
  <g id="patch_1">
   <path d="M 0 423.21125 
L 709.5085 423.21125 
L 709.5085 0 
L 0 0 
z
" style="fill: #ffffff"/>
  </g>
  <g id="axes_1">
   <g id="patch_2">
    <path d="M 43.78125 385.376875 
L 543.80125 385.376875 
L 543.80125 22.318125 
L 43.78125 22.318125 
z
" style="fill: #ffffff"/>
   </g>
   <g id="FillBetweenPolyCollection_1">
    <defs>
     <path id="m26b17b3112" d="M 66.509432 -56.454269 
L 66.509432 -56.454269 
L 180.150341 -56.454269 
L 293.79125 -56.454269 
L 407.432159 -56.454269 
L 521.073068 -56.454269 
L 521.073068 -56.454269 
L 521.073068 -56.454269 
L 407.432159 -56.454269 
L 293.79125 -56.454269 
L 180.150341 -56.454269 
L 66.509432 -56.454269 
z
" style="stroke: #0173b2; stroke-opacity: 0.3"/>
    </defs>
    <g clip-path="url(#p416b1aadb5)">
     <use xlink:href="#m26b17b3112" x="0" y="423.21125" style="fill: #0173b2; fill-opacity: 0.3; stroke: #0173b2; stroke-opacity: 0.3"/>
    </g>
   </g>
   <g id="FillBetweenPolyCollection_2">
    <defs>
     <path id="mc112ea0bb0" d="M 66.509432 -69.386342 
L 66.509432 -56.052926 
L 180.150341 -56.776781 
L 293.79125 -56.358536 
L 407.432159 -56.399957 
L 521.073068 -56.409284 
L 521.073068 -57.207813 
L 521.073068 -57.207813 
L 407.432159 -58.19305 
L 293.79125 -59.331941 
L 180.150341 -60.346378 
L 66.509432 -69.386342 
z
" style="stroke: #de8f05; stroke-opacity: 0.3"/>
    </defs>
    <g clip-path="url(#p416b1aadb5)">
     <use xlink:href="#mc112ea0bb0" x="0" y="423.21125" style="fill: #de8f05; fill-opacity: 0.3; stroke: #de8f05; stroke-opacity: 0.3"/>
    </g>
   </g>
   <g id="FillBetweenPolyCollection_3">
    <defs>
     <path id="m8c5a2e22eb" d="M 66.509432 -170.476277 
L 66.509432 -54.337045 
L 180.150341 -75.109384 
L 293.79125 -69.773788 
L 407.432159 -66.104481 
L 521.073068 -64.570172 
L 521.073068 -97.082792 
L 521.073068 -97.082792 
L 407.432159 -106.629625 
L 293.79125 -118.700514 
L 180.150341 -137.177997 
L 66.509432 -170.476277 
z
" style="stroke: #029e73; stroke-opacity: 0.3"/>
    </defs>
    <g clip-path="url(#p416b1aadb5)">
     <use xlink:href="#m8c5a2e22eb" x="0" y="423.21125" style="fill: #029e73; fill-opacity: 0.3; stroke: #029e73; stroke-opacity: 0.3"/>
    </g>
   </g>
   <g id="FillBetweenPolyCollection_4">
    <defs>
     <path id="m89f4b3859a" d="M 66.509432 -224.322156 
L 66.509432 -54.67514 
L 180.150341 -98.748099 
L 293.79125 -89.894941 
L 407.432159 -82.96762 
L 521.073068 -78.701336 
L 521.073068 -161.204612 
L 521.073068 -161.204612 
L 407.432159 -183.22739 
L 293.79125 -203.54944 
L 180.150341 -230.57582 
L 66.509432 -224.322156 
z
" style="stroke: #d55e00; stroke-opacity: 0.3"/>
    </defs>
    <g clip-path="url(#p416b1aadb5)">
     <use xlink:href="#m89f4b3859a" x="0" y="423.21125" style="fill: #d55e00; fill-opacity: 0.3; stroke: #d55e00; stroke-opacity: 0.3"/>
    </g>
   </g>
   <g id="FillBetweenPolyCollection_5">
    <defs>
     <path id="m931cc677e7" d="M 66.509432 -94.635869 
L 66.509432 -55.213247 
L 180.150341 -62.339191 
L 293.79125 -61.57046 
L 407.432159 -61.605433 
L 521.073068 -60.159704 
L 521.073068 -81.497383 
L 521.073068 -81.497383 
L 407.432159 -86.522843 
L 293.79125 -87.8415 
L 180.150341 -91.520137 
L 66.509432 -94.635869 
z
" style="stroke: #cc78bc; stroke-opacity: 0.3"/>
    </defs>
    <g clip-path="url(#p416b1aadb5)">
     <use xlink:href="#m931cc677e7" x="0" y="423.21125" style="fill: #cc78bc; fill-opacity: 0.3; stroke: #cc78bc; stroke-opacity: 0.3"/>
    </g>
   </g>
   <g id="FillBetweenPolyCollection_6">
    <defs>
     <path id="m9a7eda2215" d="M 66.509432 -119.151167 
L 66.509432 -56.897177 
L 180.150341 -73.261644 
L 293.79125 -71.640915 
L 407.432159 -70.070339 
L 521.073068 -68.507829 
L 521.073068 -105.114371 
L 521.073068 -105.114371 
L 407.432159 -112.094552 
L 293.79125 -117.733196 
L 180.150341 -121.891779 
L 66.509432 -119.151167 
z
" style="stroke: #ca9161; stroke-opacity: 0.3"/>
    </defs>
    <g clip-path="url(#p416b1aadb5)">
     <use xlink:href="#m9a7eda2215" x="0" y="423.21125" style="fill: #ca9161; fill-opacity: 0.3; stroke: #ca9161; stroke-opacity: 0.3"/>
    </g>
   </g>
   <g id="FillBetweenPolyCollection_7">
    <defs>
     <path id="mcaeb3c3ae1" d="M 66.509432 -119.151167 
L 66.509432 -56.897177 
L 180.150341 -73.261644 
L 293.79125 -71.640915 
L 407.432159 -70.070339 
L 521.073068 -68.507829 
L 521.073068 -105.114371 
L 521.073068 -105.114371 
L 407.432159 -112.094552 
L 293.79125 -117.733196 
L 180.150341 -121.891779 
L 66.509432 -119.151167 
z
" style="stroke: #fbafe4; stroke-opacity: 0.3"/>
    </defs>
    <g clip-path="url(#p416b1aadb5)">
     <use xlink:href="#mcaeb3c3ae1" x="0" y="423.21125" style="fill: #fbafe4; fill-opacity: 0.3; stroke: #fbafe4; stroke-opacity: 0.3"/>
    </g>
   </g>
   <g id="FillBetweenPolyCollection_8">
    <defs>
     <path id="m7ad448a9a8" d="M 66.509432 -352.909252 
L 66.509432 -317.439549 
L 180.150341 -319.723603 
L 293.79125 -319.690492 
L 407.432159 -319.962103 
L 521.073068 -322.041209 
L 521.073068 -361.171972 
L 521.073068 -361.171972 
L 407.432159 -361.646437 
L 293.79125 -358.568331 
L 180.150341 -356.687324 
L 66.509432 -352.909252 
z
" style="stroke: #949494; stroke-opacity: 0.3"/>
    </defs>
    <g clip-path="url(#p416b1aadb5)">
     <use xlink:href="#m7ad448a9a8" x="0" y="423.21125" style="fill: #949494; fill-opacity: 0.3; stroke: #949494; stroke-opacity: 0.3"/>
    </g>
   </g>
   <g id="FillBetweenPolyCollection_9">
    <defs>
     <path id="m8f109f1d03" d="M 66.509432 -356.350174 
L 66.509432 -282.37759 
L 180.150341 -291.441975 
L 293.79125 -290.176644 
L 407.432159 -289.735418 
L 521.073068 -292.787163 
L 521.073068 -353.218936 
L 521.073068 -353.218936 
L 407.432159 -357.26267 
L 293.79125 -359.974735 
L 180.150341 -364.429821 
L 66.509432 -356.350174 
z
" style="stroke: #ece133; stroke-opacity: 0.3"/>
    </defs>
    <g clip-path="url(#p416b1aadb5)">
     <use xlink:href="#m8f109f1d03" x="0" y="423.21125" style="fill: #ece133; fill-opacity: 0.3; stroke: #ece133; stroke-opacity: 0.3"/>
    </g>
   </g>
   <g id="FillBetweenPolyCollection_10">
    <defs>
     <path id="m8b29e3a2e4" d="M 66.509432 -354.651583 
L 66.509432 -298.62353 
L 180.150341 -304.395991 
L 293.79125 -303.81047 
L 407.432159 -303.820888 
L 521.073068 -306.647205 
L 521.073068 -356.887022 
L 521.073068 -356.887022 
L 407.432159 -359.424157 
L 293.79125 -359.432791 
L 180.150341 -360.830417 
L 66.509432 -354.651583 
z
" style="stroke: #56b4e9; stroke-opacity: 0.3"/>
    </defs>
    <g clip-path="url(#p416b1aadb5)">
     <use xlink:href="#m8b29e3a2e4" x="0" y="423.21125" style="fill: #56b4e9; fill-opacity: 0.3; stroke: #56b4e9; stroke-opacity: 0.3"/>
    </g>
   </g>
   <g id="FillBetweenPolyCollection_11">
    <defs>
     <path id="m4c46239826" d="M 66.509432 -139.523673 
L 66.509432 -75.832385 
L 180.150341 -85.215971 
L 293.79125 -85.001965 
L 407.432159 -84.03415 
L 521.073068 -84.293718 
L 521.073068 -136.060689 
L 521.073068 -136.060689 
L 407.432159 -141.243503 
L 293.79125 -143.893135 
L 180.150341 -143.035241 
L 66.509432 -139.523673 
z
" style="stroke: #0173b2; stroke-opacity: 0.3"/>
    </defs>
    <g clip-path="url(#p416b1aadb5)">
     <use xlink:href="#m4c46239826" x="0" y="423.21125" style="fill: #0173b2; fill-opacity: 0.3; stroke: #0173b2; stroke-opacity: 0.3"/>
    </g>
   </g>
   <g id="FillBetweenPolyCollection_12">
    <defs>
     <path id="m60bacaedf4" d="M 66.509432 -372.290226 
L 66.509432 -266.257728 
L 180.150341 -282.821939 
L 293.79125 -275.218478 
L 407.432159 -279.490861 
L 521.073068 -278.350668 
L 521.073068 -369.877641 
L 521.073068 -369.877641 
L 407.432159 -379.454991 
L 293.79125 -379.843979 
L 180.150341 -384.390455 
L 66.509432 -372.290226 
z
" style="stroke: #de8f05; stroke-opacity: 0.3"/>
    </defs>
    <g clip-path="url(#p416b1aadb5)">
     <use xlink:href="#m60bacaedf4" x="0" y="423.21125" style="fill: #de8f05; fill-opacity: 0.3; stroke: #de8f05; stroke-opacity: 0.3"/>
    </g>
   </g>
   <g id="FillBetweenPolyCollection_13">
    <defs>
     <path id="m048a51304c" d="M 66.509432 -314.833628 
L 66.509432 -248.41751 
L 180.150341 -257.340572 
L 293.79125 -256.09674 
L 407.432159 -256.716405 
L 521.073068 -258.559307 
L 521.073068 -313.707938 
L 521.073068 -313.707938 
L 407.432159 -318.498631 
L 293.79125 -319.025464 
L 180.150341 -321.253976 
L 66.509432 -314.833628 
z
" style="stroke: #029e73; stroke-opacity: 0.3"/>
    </defs>
    <g clip-path="url(#p416b1aadb5)">
     <use xlink:href="#m048a51304c" x="0" y="423.21125" style="fill: #029e73; fill-opacity: 0.3; stroke: #029e73; stroke-opacity: 0.3"/>
    </g>
   </g>
   <g id="FillBetweenPolyCollection_14">
    <defs>
     <path id="m8dd06a4e84" d="M 66.509432 -137.60469 
L 66.509432 -55.890279 
L 180.150341 -76.583306 
L 293.79125 -73.017471 
L 407.432159 -70.120982 
L 521.073068 -68.072187 
L 521.073068 -107.642895 
L 521.073068 -107.642895 
L 407.432159 -117.529987 
L 293.79125 -126.485518 
L 180.150341 -137.283528 
L 66.509432 -137.60469 
z
" style="stroke: #d55e00; stroke-opacity: 0.3"/>
    </defs>
    <g clip-path="url(#p416b1aadb5)">
     <use xlink:href="#m8dd06a4e84" x="0" y="423.21125" style="fill: #d55e00; fill-opacity: 0.3; stroke: #d55e00; stroke-opacity: 0.3"/>
    </g>
   </g>
   <g id="FillBetweenPolyCollection_15">
    <defs>
     <path id="m885e02b8f8" d="M 66.509432 -256.417572 
L 66.509432 -226.247134 
L 180.150341 -228.537824 
L 293.79125 -229.840363 
L 407.432159 -234.71886 
L 521.073068 -239.031951 
L 521.073068 -270.42875 
L 521.073068 -270.42875 
L 407.432159 -265.753744 
L 293.79125 -258.687389 
L 180.150341 -249.098428 
L 66.509432 -256.417572 
z
" style="stroke: #cc78bc; stroke-opacity: 0.3"/>
    </defs>
    <g clip-path="url(#p416b1aadb5)">
     <use xlink:href="#m885e02b8f8" x="0" y="423.21125" style="fill: #cc78bc; fill-opacity: 0.3; stroke: #cc78bc; stroke-opacity: 0.3"/>
    </g>
   </g>
   <g id="matplotlib.axis_1">
    <g id="xtick_1">
     <g id="line2d_1">
      <path d="M 66.509432 385.376875 
L 66.509432 22.318125 
" clip-path="url(#p416b1aadb5)" style="fill: none; stroke: #b0b0b0; stroke-width: 0.8; stroke-linecap: square"/>
     </g>
     <g id="line2d_2">
      <defs>
       <path id="m16fe9ac9ba" d="M 0 0 
L 0 3.5 
" style="stroke: #000000; stroke-width: 0.8"/>
      </defs>
      <g>
       <use xlink:href="#m16fe9ac9ba" x="66.509432" y="385.376875" style="stroke: #000000; stroke-width: 0.8"/>
      </g>
     </g>
     <g id="text_1">
      <!-- 1 -->
      <g transform="translate(63.328182 399.975312) scale(0.1 -0.1)">
       <defs>
        <path id="DejaVuSans-31" d="M 794 531 
L 1825 531 
L 1825 4091 
L 703 3866 
L 703 4441 
L 1819 4666 
L 2450 4666 
L 2450 531 
L 3481 531 
L 3481 0 
L 794 0 
L 794 531 
z
" transform="scale(0.015625)"/>
       </defs>
       <use xlink:href="#DejaVuSans-31"/>
      </g>
     </g>
    </g>
    <g id="xtick_2">
     <g id="line2d_3">
      <path d="M 180.150341 385.376875 
L 180.150341 22.318125 
" clip-path="url(#p416b1aadb5)" style="fill: none; stroke: #b0b0b0; stroke-width: 0.8; stroke-linecap: square"/>
     </g>
     <g id="line2d_4">
      <g>
       <use xlink:href="#m16fe9ac9ba" x="180.150341" y="385.376875" style="stroke: #000000; stroke-width: 0.8"/>
      </g>
     </g>
     <g id="text_2">
      <!-- 2 -->
      <g transform="translate(176.969091 399.975312) scale(0.1 -0.1)">
       <defs>
        <path id="DejaVuSans-32" d="M 1228 531 
L 3431 531 
L 3431 0 
L 469 0 
L 469 531 
Q 828 903 1448 1529 
Q 2069 2156 2228 2338 
Q 2531 2678 2651 2914 
Q 2772 3150 2772 3378 
Q 2772 3750 2511 3984 
Q 2250 4219 1831 4219 
Q 1534 4219 1204 4116 
Q 875 4013 500 3803 
L 500 4441 
Q 881 4594 1212 4672 
Q 1544 4750 1819 4750 
Q 2544 4750 2975 4387 
Q 3406 4025 3406 3419 
Q 3406 3131 3298 2873 
Q 3191 2616 2906 2266 
Q 2828 2175 2409 1742 
Q 1991 1309 1228 531 
z
" transform="scale(0.015625)"/>
       </defs>
       <use xlink:href="#DejaVuSans-32"/>
      </g>
     </g>
    </g>
    <g id="xtick_3">
     <g id="line2d_5">
      <path d="M 293.79125 385.376875 
L 293.79125 22.318125 
" clip-path="url(#p416b1aadb5)" style="fill: none; stroke: #b0b0b0; stroke-width: 0.8; stroke-linecap: square"/>
     </g>
     <g id="line2d_6">
      <g>
       <use xlink:href="#m16fe9ac9ba" x="293.79125" y="385.376875" style="stroke: #000000; stroke-width: 0.8"/>
      </g>
     </g>
     <g id="text_3">
      <!-- 3 -->
      <g transform="translate(290.61 399.975312) scale(0.1 -0.1)">
       <defs>
        <path id="DejaVuSans-33" d="M 2597 2516 
Q 3050 2419 3304 2112 
Q 3559 1806 3559 1356 
Q 3559 666 3084 287 
Q 2609 -91 1734 -91 
Q 1441 -91 1130 -33 
Q 819 25 488 141 
L 488 750 
Q 750 597 1062 519 
Q 1375 441 1716 441 
Q 2309 441 2620 675 
Q 2931 909 2931 1356 
Q 2931 1769 2642 2001 
Q 2353 2234 1838 2234 
L 1294 2234 
L 1294 2753 
L 1863 2753 
Q 2328 2753 2575 2939 
Q 2822 3125 2822 3475 
Q 2822 3834 2567 4026 
Q 2313 4219 1838 4219 
Q 1578 4219 1281 4162 
Q 984 4106 628 3988 
L 628 4550 
Q 988 4650 1302 4700 
Q 1616 4750 1894 4750 
Q 2613 4750 3031 4423 
Q 3450 4097 3450 3541 
Q 3450 3153 3228 2886 
Q 3006 2619 2597 2516 
z
" transform="scale(0.015625)"/>
       </defs>
       <use xlink:href="#DejaVuSans-33"/>
      </g>
     </g>
    </g>
    <g id="xtick_4">
     <g id="line2d_7">
      <path d="M 407.432159 385.376875 
L 407.432159 22.318125 
" clip-path="url(#p416b1aadb5)" style="fill: none; stroke: #b0b0b0; stroke-width: 0.8; stroke-linecap: square"/>
     </g>
     <g id="line2d_8">
      <g>
       <use xlink:href="#m16fe9ac9ba" x="407.432159" y="385.376875" style="stroke: #000000; stroke-width: 0.8"/>
      </g>
     </g>
     <g id="text_4">
      <!-- 4 -->
      <g transform="translate(404.250909 399.975312) scale(0.1 -0.1)">
       <defs>
        <path id="DejaVuSans-34" d="M 2419 4116 
L 825 1625 
L 2419 1625 
L 2419 4116 
z
M 2253 4666 
L 3047 4666 
L 3047 1625 
L 3713 1625 
L 3713 1100 
L 3047 1100 
L 3047 0 
L 2419 0 
L 2419 1100 
L 313 1100 
L 313 1709 
L 2253 4666 
z
" transform="scale(0.015625)"/>
       </defs>
       <use xlink:href="#DejaVuSans-34"/>
      </g>
     </g>
    </g>
    <g id="xtick_5">
     <g id="line2d_9">
      <path d="M 521.073068 385.376875 
L 521.073068 22.318125 
" clip-path="url(#p416b1aadb5)" style="fill: none; stroke: #b0b0b0; stroke-width: 0.8; stroke-linecap: square"/>
     </g>
     <g id="line2d_10">
      <g>
       <use xlink:href="#m16fe9ac9ba" x="521.073068" y="385.376875" style="stroke: #000000; stroke-width: 0.8"/>
      </g>
     </g>
     <g id="text_5">
      <!-- 5 -->
      <g transform="translate(517.891818 399.975312) scale(0.1 -0.1)">
       <defs>
        <path id="DejaVuSans-35" d="M 691 4666 
L 3169 4666 
L 3169 4134 
L 1269 4134 
L 1269 2991 
Q 1406 3038 1543 3061 
Q 1681 3084 1819 3084 
Q 2600 3084 3056 2656 
Q 3513 2228 3513 1497 
Q 3513 744 3044 326 
Q 2575 -91 1722 -91 
Q 1428 -91 1123 -41 
Q 819 9 494 109 
L 494 744 
Q 775 591 1075 516 
Q 1375 441 1709 441 
Q 2250 441 2565 725 
Q 2881 1009 2881 1497 
Q 2881 1984 2565 2268 
Q 2250 2553 1709 2553 
Q 1456 2553 1204 2497 
Q 953 2441 691 2322 
L 691 4666 
z
" transform="scale(0.015625)"/>
       </defs>
       <use xlink:href="#DejaVuSans-35"/>
      </g>
     </g>
    </g>
    <g id="text_6">
     <!-- num_chunks -->
     <g transform="translate(262.327969 413.653437) scale(0.1 -0.1)">
      <defs>
       <path id="DejaVuSans-6e" d="M 3513 2113 
L 3513 0 
L 2938 0 
L 2938 2094 
Q 2938 2591 2744 2837 
Q 2550 3084 2163 3084 
Q 1697 3084 1428 2787 
Q 1159 2491 1159 1978 
L 1159 0 
L 581 0 
L 581 3500 
L 1159 3500 
L 1159 2956 
Q 1366 3272 1645 3428 
Q 1925 3584 2291 3584 
Q 2894 3584 3203 3211 
Q 3513 2838 3513 2113 
z
" transform="scale(0.015625)"/>
       <path id="DejaVuSans-75" d="M 544 1381 
L 544 3500 
L 1119 3500 
L 1119 1403 
Q 1119 906 1312 657 
Q 1506 409 1894 409 
Q 2359 409 2629 706 
Q 2900 1003 2900 1516 
L 2900 3500 
L 3475 3500 
L 3475 0 
L 2900 0 
L 2900 538 
Q 2691 219 2414 64 
Q 2138 -91 1772 -91 
Q 1169 -91 856 284 
Q 544 659 544 1381 
z
M 1991 3584 
L 1991 3584 
z
" transform="scale(0.015625)"/>
       <path id="DejaVuSans-6d" d="M 3328 2828 
Q 3544 3216 3844 3400 
Q 4144 3584 4550 3584 
Q 5097 3584 5394 3201 
Q 5691 2819 5691 2113 
L 5691 0 
L 5113 0 
L 5113 2094 
Q 5113 2597 4934 2840 
Q 4756 3084 4391 3084 
Q 3944 3084 3684 2787 
Q 3425 2491 3425 1978 
L 3425 0 
L 2847 0 
L 2847 2094 
Q 2847 2600 2669 2842 
Q 2491 3084 2119 3084 
Q 1678 3084 1418 2786 
Q 1159 2488 1159 1978 
L 1159 0 
L 581 0 
L 581 3500 
L 1159 3500 
L 1159 2956 
Q 1356 3278 1631 3431 
Q 1906 3584 2284 3584 
Q 2666 3584 2933 3390 
Q 3200 3197 3328 2828 
z
" transform="scale(0.015625)"/>
       <path id="DejaVuSans-5f" d="M 3263 -1063 
L 3263 -1509 
L -63 -1509 
L -63 -1063 
L 3263 -1063 
z
" transform="scale(0.015625)"/>
       <path id="DejaVuSans-63" d="M 3122 3366 
L 3122 2828 
Q 2878 2963 2633 3030 
Q 2388 3097 2138 3097 
Q 1578 3097 1268 2742 
Q 959 2388 959 1747 
Q 959 1106 1268 751 
Q 1578 397 2138 397 
Q 2388 397 2633 464 
Q 2878 531 3122 666 
L 3122 134 
Q 2881 22 2623 -34 
Q 2366 -91 2075 -91 
Q 1284 -91 818 406 
Q 353 903 353 1747 
Q 353 2603 823 3093 
Q 1294 3584 2113 3584 
Q 2378 3584 2631 3529 
Q 2884 3475 3122 3366 
z
" transform="scale(0.015625)"/>
       <path id="DejaVuSans-68" d="M 3513 2113 
L 3513 0 
L 2938 0 
L 2938 2094 
Q 2938 2591 2744 2837 
Q 2550 3084 2163 3084 
Q 1697 3084 1428 2787 
Q 1159 2491 1159 1978 
L 1159 0 
L 581 0 
L 581 4863 
L 1159 4863 
L 1159 2956 
Q 1366 3272 1645 3428 
Q 1925 3584 2291 3584 
Q 2894 3584 3203 3211 
Q 3513 2838 3513 2113 
z
" transform="scale(0.015625)"/>
       <path id="DejaVuSans-6b" d="M 581 4863 
L 1159 4863 
L 1159 1991 
L 2875 3500 
L 3609 3500 
L 1753 1863 
L 3688 0 
L 2938 0 
L 1159 1709 
L 1159 0 
L 581 0 
L 581 4863 
z
" transform="scale(0.015625)"/>
       <path id="DejaVuSans-73" d="M 2834 3397 
L 2834 2853 
Q 2591 2978 2328 3040 
Q 2066 3103 1784 3103 
Q 1356 3103 1142 2972 
Q 928 2841 928 2578 
Q 928 2378 1081 2264 
Q 1234 2150 1697 2047 
L 1894 2003 
Q 2506 1872 2764 1633 
Q 3022 1394 3022 966 
Q 3022 478 2636 193 
Q 2250 -91 1575 -91 
Q 1294 -91 989 -36 
Q 684 19 347 128 
L 347 722 
Q 666 556 975 473 
Q 1284 391 1588 391 
Q 1994 391 2212 530 
Q 2431 669 2431 922 
Q 2431 1156 2273 1281 
Q 2116 1406 1581 1522 
L 1381 1569 
Q 847 1681 609 1914 
Q 372 2147 372 2553 
Q 372 3047 722 3315 
Q 1072 3584 1716 3584 
Q 2034 3584 2315 3537 
Q 2597 3491 2834 3397 
z
" transform="scale(0.015625)"/>
      </defs>
      <use xlink:href="#DejaVuSans-6e"/>
      <use xlink:href="#DejaVuSans-75" transform="translate(63.378906 0)"/>
      <use xlink:href="#DejaVuSans-6d" transform="translate(126.757812 0)"/>
      <use xlink:href="#DejaVuSans-5f" transform="translate(224.169922 0)"/>
      <use xlink:href="#DejaVuSans-63" transform="translate(274.169922 0)"/>
      <use xlink:href="#DejaVuSans-68" transform="translate(329.150391 0)"/>
      <use xlink:href="#DejaVuSans-75" transform="translate(392.529297 0)"/>
      <use xlink:href="#DejaVuSans-6e" transform="translate(455.908203 0)"/>
      <use xlink:href="#DejaVuSans-6b" transform="translate(519.287109 0)"/>
      <use xlink:href="#DejaVuSans-73" transform="translate(577.197266 0)"/>
     </g>
    </g>
   </g>
   <g id="matplotlib.axis_2">
    <g id="ytick_1">
     <g id="line2d_11">
      <path d="M 43.78125 366.756981 
L 543.80125 366.756981 
" clip-path="url(#p416b1aadb5)" style="fill: none; stroke: #b0b0b0; stroke-width: 0.8; stroke-linecap: square"/>
     </g>
     <g id="line2d_12">
      <defs>
       <path id="m19f9ab6fd6" d="M 0 0 
L -3.5 0 
" style="stroke: #000000; stroke-width: 0.8"/>
      </defs>
      <g>
       <use xlink:href="#m19f9ab6fd6" x="43.78125" y="366.756981" style="stroke: #000000; stroke-width: 0.8"/>
      </g>
     </g>
     <g id="text_7">
      <!-- 0.0 -->
      <g transform="translate(20.878125 370.5562) scale(0.1 -0.1)">
       <defs>
        <path id="DejaVuSans-30" d="M 2034 4250 
Q 1547 4250 1301 3770 
Q 1056 3291 1056 2328 
Q 1056 1369 1301 889 
Q 1547 409 2034 409 
Q 2525 409 2770 889 
Q 3016 1369 3016 2328 
Q 3016 3291 2770 3770 
Q 2525 4250 2034 4250 
z
M 2034 4750 
Q 2819 4750 3233 4129 
Q 3647 3509 3647 2328 
Q 3647 1150 3233 529 
Q 2819 -91 2034 -91 
Q 1250 -91 836 529 
Q 422 1150 422 2328 
Q 422 3509 836 4129 
Q 1250 4750 2034 4750 
z
" transform="scale(0.015625)"/>
        <path id="DejaVuSans-2e" d="M 684 794 
L 1344 794 
L 1344 0 
L 684 0 
L 684 794 
z
" transform="scale(0.015625)"/>
       </defs>
       <use xlink:href="#DejaVuSans-30"/>
       <use xlink:href="#DejaVuSans-2e" transform="translate(63.623047 0)"/>
       <use xlink:href="#DejaVuSans-30" transform="translate(95.410156 0)"/>
      </g>
     </g>
    </g>
    <g id="ytick_2">
     <g id="line2d_13">
      <path d="M 43.78125 289.15199 
L 543.80125 289.15199 
" clip-path="url(#p416b1aadb5)" style="fill: none; stroke: #b0b0b0; stroke-width: 0.8; stroke-linecap: square"/>
     </g>
     <g id="line2d_14">
      <g>
       <use xlink:href="#m19f9ab6fd6" x="43.78125" y="289.15199" style="stroke: #000000; stroke-width: 0.8"/>
      </g>
     </g>
     <g id="text_8">
      <!-- 0.2 -->
      <g transform="translate(20.878125 292.951208) scale(0.1 -0.1)">
       <use xlink:href="#DejaVuSans-30"/>
       <use xlink:href="#DejaVuSans-2e" transform="translate(63.623047 0)"/>
       <use xlink:href="#DejaVuSans-32" transform="translate(95.410156 0)"/>
      </g>
     </g>
    </g>
    <g id="ytick_3">
     <g id="line2d_15">
      <path d="M 43.78125 211.546998 
L 543.80125 211.546998 
" clip-path="url(#p416b1aadb5)" style="fill: none; stroke: #b0b0b0; stroke-width: 0.8; stroke-linecap: square"/>
     </g>
     <g id="line2d_16">
      <g>
       <use xlink:href="#m19f9ab6fd6" x="43.78125" y="211.546998" style="stroke: #000000; stroke-width: 0.8"/>
      </g>
     </g>
     <g id="text_9">
      <!-- 0.4 -->
      <g transform="translate(20.878125 215.346217) scale(0.1 -0.1)">
       <use xlink:href="#DejaVuSans-30"/>
       <use xlink:href="#DejaVuSans-2e" transform="translate(63.623047 0)"/>
       <use xlink:href="#DejaVuSans-34" transform="translate(95.410156 0)"/>
      </g>
     </g>
    </g>
    <g id="ytick_4">
     <g id="line2d_17">
      <path d="M 43.78125 133.942006 
L 543.80125 133.942006 
" clip-path="url(#p416b1aadb5)" style="fill: none; stroke: #b0b0b0; stroke-width: 0.8; stroke-linecap: square"/>
     </g>
     <g id="line2d_18">
      <g>
       <use xlink:href="#m19f9ab6fd6" x="43.78125" y="133.942006" style="stroke: #000000; stroke-width: 0.8"/>
      </g>
     </g>
     <g id="text_10">
      <!-- 0.6 -->
      <g transform="translate(20.878125 137.741225) scale(0.1 -0.1)">
       <defs>
        <path id="DejaVuSans-36" d="M 2113 2584 
Q 1688 2584 1439 2293 
Q 1191 2003 1191 1497 
Q 1191 994 1439 701 
Q 1688 409 2113 409 
Q 2538 409 2786 701 
Q 3034 994 3034 1497 
Q 3034 2003 2786 2293 
Q 2538 2584 2113 2584 
z
M 3366 4563 
L 3366 3988 
Q 3128 4100 2886 4159 
Q 2644 4219 2406 4219 
Q 1781 4219 1451 3797 
Q 1122 3375 1075 2522 
Q 1259 2794 1537 2939 
Q 1816 3084 2150 3084 
Q 2853 3084 3261 2657 
Q 3669 2231 3669 1497 
Q 3669 778 3244 343 
Q 2819 -91 2113 -91 
Q 1303 -91 875 529 
Q 447 1150 447 2328 
Q 447 3434 972 4092 
Q 1497 4750 2381 4750 
Q 2619 4750 2861 4703 
Q 3103 4656 3366 4563 
z
" transform="scale(0.015625)"/>
       </defs>
       <use xlink:href="#DejaVuSans-30"/>
       <use xlink:href="#DejaVuSans-2e" transform="translate(63.623047 0)"/>
       <use xlink:href="#DejaVuSans-36" transform="translate(95.410156 0)"/>
      </g>
     </g>
    </g>
    <g id="ytick_5">
     <g id="line2d_19">
      <path d="M 43.78125 56.337015 
L 543.80125 56.337015 
" clip-path="url(#p416b1aadb5)" style="fill: none; stroke: #b0b0b0; stroke-width: 0.8; stroke-linecap: square"/>
     </g>
     <g id="line2d_20">
      <g>
       <use xlink:href="#m19f9ab6fd6" x="43.78125" y="56.337015" style="stroke: #000000; stroke-width: 0.8"/>
      </g>
     </g>
     <g id="text_11">
      <!-- 0.8 -->
      <g transform="translate(20.878125 60.136233) scale(0.1 -0.1)">
       <defs>
        <path id="DejaVuSans-38" d="M 2034 2216 
Q 1584 2216 1326 1975 
Q 1069 1734 1069 1313 
Q 1069 891 1326 650 
Q 1584 409 2034 409 
Q 2484 409 2743 651 
Q 3003 894 3003 1313 
Q 3003 1734 2745 1975 
Q 2488 2216 2034 2216 
z
M 1403 2484 
Q 997 2584 770 2862 
Q 544 3141 544 3541 
Q 544 4100 942 4425 
Q 1341 4750 2034 4750 
Q 2731 4750 3128 4425 
Q 3525 4100 3525 3541 
Q 3525 3141 3298 2862 
Q 3072 2584 2669 2484 
Q 3125 2378 3379 2068 
Q 3634 1759 3634 1313 
Q 3634 634 3220 271 
Q 2806 -91 2034 -91 
Q 1263 -91 848 271 
Q 434 634 434 1313 
Q 434 1759 690 2068 
Q 947 2378 1403 2484 
z
M 1172 3481 
Q 1172 3119 1398 2916 
Q 1625 2713 2034 2713 
Q 2441 2713 2670 2916 
Q 2900 3119 2900 3481 
Q 2900 3844 2670 4047 
Q 2441 4250 2034 4250 
Q 1625 4250 1398 4047 
Q 1172 3844 1172 3481 
z
" transform="scale(0.015625)"/>
       </defs>
       <use xlink:href="#DejaVuSans-30"/>
       <use xlink:href="#DejaVuSans-2e" transform="translate(63.623047 0)"/>
       <use xlink:href="#DejaVuSans-38" transform="translate(95.410156 0)"/>
      </g>
     </g>
    </g>
    <g id="text_12">
     <!-- Score -->
     <g transform="translate(14.798438 217.849844) rotate(-90) scale(0.1 -0.1)">
      <defs>
       <path id="DejaVuSans-53" d="M 3425 4513 
L 3425 3897 
Q 3066 4069 2747 4153 
Q 2428 4238 2131 4238 
Q 1616 4238 1336 4038 
Q 1056 3838 1056 3469 
Q 1056 3159 1242 3001 
Q 1428 2844 1947 2747 
L 2328 2669 
Q 3034 2534 3370 2195 
Q 3706 1856 3706 1288 
Q 3706 609 3251 259 
Q 2797 -91 1919 -91 
Q 1588 -91 1214 -16 
Q 841 59 441 206 
L 441 856 
Q 825 641 1194 531 
Q 1563 422 1919 422 
Q 2459 422 2753 634 
Q 3047 847 3047 1241 
Q 3047 1584 2836 1778 
Q 2625 1972 2144 2069 
L 1759 2144 
Q 1053 2284 737 2584 
Q 422 2884 422 3419 
Q 422 4038 858 4394 
Q 1294 4750 2059 4750 
Q 2388 4750 2728 4690 
Q 3069 4631 3425 4513 
z
" transform="scale(0.015625)"/>
       <path id="DejaVuSans-6f" d="M 1959 3097 
Q 1497 3097 1228 2736 
Q 959 2375 959 1747 
Q 959 1119 1226 758 
Q 1494 397 1959 397 
Q 2419 397 2687 759 
Q 2956 1122 2956 1747 
Q 2956 2369 2687 2733 
Q 2419 3097 1959 3097 
z
M 1959 3584 
Q 2709 3584 3137 3096 
Q 3566 2609 3566 1747 
Q 3566 888 3137 398 
Q 2709 -91 1959 -91 
Q 1206 -91 779 398 
Q 353 888 353 1747 
Q 353 2609 779 3096 
Q 1206 3584 1959 3584 
z
" transform="scale(0.015625)"/>
       <path id="DejaVuSans-72" d="M 2631 2963 
Q 2534 3019 2420 3045 
Q 2306 3072 2169 3072 
Q 1681 3072 1420 2755 
Q 1159 2438 1159 1844 
L 1159 0 
L 581 0 
L 581 3500 
L 1159 3500 
L 1159 2956 
Q 1341 3275 1631 3429 
Q 1922 3584 2338 3584 
Q 2397 3584 2469 3576 
Q 2541 3569 2628 3553 
L 2631 2963 
z
" transform="scale(0.015625)"/>
       <path id="DejaVuSans-65" d="M 3597 1894 
L 3597 1613 
L 953 1613 
Q 991 1019 1311 708 
Q 1631 397 2203 397 
Q 2534 397 2845 478 
Q 3156 559 3463 722 
L 3463 178 
Q 3153 47 2828 -22 
Q 2503 -91 2169 -91 
Q 1331 -91 842 396 
Q 353 884 353 1716 
Q 353 2575 817 3079 
Q 1281 3584 2069 3584 
Q 2775 3584 3186 3129 
Q 3597 2675 3597 1894 
z
M 3022 2063 
Q 3016 2534 2758 2815 
Q 2500 3097 2075 3097 
Q 1594 3097 1305 2825 
Q 1016 2553 972 2059 
L 3022 2063 
z
" transform="scale(0.015625)"/>
      </defs>
      <use xlink:href="#DejaVuSans-53"/>
      <use xlink:href="#DejaVuSans-63" transform="translate(63.476562 0)"/>
      <use xlink:href="#DejaVuSans-6f" transform="translate(118.457031 0)"/>
      <use xlink:href="#DejaVuSans-72" transform="translate(179.638672 0)"/>
      <use xlink:href="#DejaVuSans-65" transform="translate(218.501953 0)"/>
     </g>
    </g>
   </g>
   <g id="line2d_21">
    <path d="M 66.509432 366.756981 
L 180.150341 366.756981 
L 293.79125 366.756981 
L 407.432159 366.756981 
L 521.073068 366.756981 
" clip-path="url(#p416b1aadb5)" style="fill: none; stroke: #0173b2; stroke-width: 1.5; stroke-linecap: square"/>
    <defs>
     <path id="m0152ce42e7" d="M 0 3 
C 0.795609 3 1.55874 2.683901 2.12132 2.12132 
C 2.683901 1.55874 3 0.795609 3 0 
C 3 -0.795609 2.683901 -1.55874 2.12132 -2.12132 
C 1.55874 -2.683901 0.795609 -3 0 -3 
C -0.795609 -3 -1.55874 -2.683901 -2.12132 -2.12132 
C -2.683901 -1.55874 -3 -0.795609 -3 0 
C -3 0.795609 -2.683901 1.55874 -2.12132 2.12132 
C -1.55874 2.683901 -0.795609 3 0 3 
z
" style="stroke: #0173b2"/>
    </defs>
    <g clip-path="url(#p416b1aadb5)">
     <use xlink:href="#m0152ce42e7" x="66.509432" y="366.756981" style="fill: #0173b2; stroke: #0173b2"/>
     <use xlink:href="#m0152ce42e7" x="180.150341" y="366.756981" style="fill: #0173b2; stroke: #0173b2"/>
     <use xlink:href="#m0152ce42e7" x="293.79125" y="366.756981" style="fill: #0173b2; stroke: #0173b2"/>
     <use xlink:href="#m0152ce42e7" x="407.432159" y="366.756981" style="fill: #0173b2; stroke: #0173b2"/>
     <use xlink:href="#m0152ce42e7" x="521.073068" y="366.756981" style="fill: #0173b2; stroke: #0173b2"/>
    </g>
   </g>
   <g id="line2d_22">
    <path d="M 66.509432 360.491616 
L 180.150341 364.649671 
L 293.79125 365.366011 
L 407.432159 365.914747 
L 521.073068 366.402702 
" clip-path="url(#p416b1aadb5)" style="fill: none; stroke-dasharray: 5.55,2.4; stroke-dashoffset: 0; stroke: #de8f05; stroke-width: 1.5"/>
    <defs>
     <path id="mbf4b900615" d="M -3 3 
L 3 3 
L 3 -3 
L -3 -3 
z
" style="stroke: #de8f05; stroke-linejoin: miter"/>
    </defs>
    <g clip-path="url(#p416b1aadb5)">
     <use xlink:href="#mbf4b900615" x="66.509432" y="360.491616" style="fill: #de8f05; stroke: #de8f05; stroke-linejoin: miter"/>
     <use xlink:href="#mbf4b900615" x="180.150341" y="364.649671" style="fill: #de8f05; stroke: #de8f05; stroke-linejoin: miter"/>
     <use xlink:href="#mbf4b900615" x="293.79125" y="365.366011" style="fill: #de8f05; stroke: #de8f05; stroke-linejoin: miter"/>
     <use xlink:href="#mbf4b900615" x="407.432159" y="365.914747" style="fill: #de8f05; stroke: #de8f05; stroke-linejoin: miter"/>
     <use xlink:href="#mbf4b900615" x="521.073068" y="366.402702" style="fill: #de8f05; stroke: #de8f05; stroke-linejoin: miter"/>
    </g>
   </g>
   <g id="line2d_23">
    <path d="M 66.509432 310.804589 
L 180.150341 317.067559 
L 293.79125 328.974099 
L 407.432159 336.844197 
L 521.073068 342.384768 
" clip-path="url(#p416b1aadb5)" style="fill: none; stroke-dasharray: 9.6,2.4,1.5,2.4; stroke-dashoffset: 0; stroke: #029e73; stroke-width: 1.5"/>
    <defs>
     <path id="md6b78631b4" d="M 0 -3 
L -3 3 
L 3 3 
z
" style="stroke: #029e73; stroke-linejoin: miter"/>
    </defs>
    <g clip-path="url(#p416b1aadb5)">
     <use xlink:href="#md6b78631b4" x="66.509432" y="310.804589" style="fill: #029e73; stroke: #029e73; stroke-linejoin: miter"/>
     <use xlink:href="#md6b78631b4" x="180.150341" y="317.067559" style="fill: #029e73; stroke: #029e73; stroke-linejoin: miter"/>
     <use xlink:href="#md6b78631b4" x="293.79125" y="328.974099" style="fill: #029e73; stroke: #029e73; stroke-linejoin: miter"/>
     <use xlink:href="#md6b78631b4" x="407.432159" y="336.844197" style="fill: #029e73; stroke: #029e73; stroke-linejoin: miter"/>
     <use xlink:href="#md6b78631b4" x="521.073068" y="342.384768" style="fill: #029e73; stroke: #029e73; stroke-linejoin: miter"/>
    </g>
   </g>
   <g id="line2d_24">
    <path d="M 66.509432 283.712602 
L 180.150341 258.549291 
L 293.79125 276.489059 
L 407.432159 290.113745 
L 521.073068 303.258276 
" clip-path="url(#p416b1aadb5)" style="fill: none; stroke-dasharray: 1.5,2.475; stroke-dashoffset: 0; stroke: #d55e00; stroke-width: 1.5"/>
    <defs>
     <path id="m389ffae683" d="M -0 4.242641 
L 4.242641 0 
L 0 -4.242641 
L -4.242641 -0 
z
" style="stroke: #d55e00; stroke-linejoin: miter"/>
    </defs>
    <g clip-path="url(#p416b1aadb5)">
     <use xlink:href="#m389ffae683" x="66.509432" y="283.712602" style="fill: #d55e00; stroke: #d55e00; stroke-linejoin: miter"/>
     <use xlink:href="#m389ffae683" x="180.150341" y="258.549291" style="fill: #d55e00; stroke: #d55e00; stroke-linejoin: miter"/>
     <use xlink:href="#m389ffae683" x="293.79125" y="276.489059" style="fill: #d55e00; stroke: #d55e00; stroke-linejoin: miter"/>
     <use xlink:href="#m389ffae683" x="407.432159" y="290.113745" style="fill: #d55e00; stroke: #d55e00; stroke-linejoin: miter"/>
     <use xlink:href="#m389ffae683" x="521.073068" y="303.258276" style="fill: #d55e00; stroke: #d55e00; stroke-linejoin: miter"/>
    </g>
   </g>
   <g id="line2d_25">
    <path d="M 66.509432 348.286692 
L 180.150341 346.281586 
L 293.79125 348.50527 
L 407.432159 349.147112 
L 521.073068 352.382706 
" clip-path="url(#p416b1aadb5)" style="fill: none; stroke: #cc78bc; stroke-width: 1.5; stroke-linecap: square"/>
    <defs>
     <path id="maa41ee06d5" d="M -0 3 
L 3 -3 
L -3 -3 
z
" style="stroke: #cc78bc; stroke-linejoin: miter"/>
    </defs>
    <g clip-path="url(#p416b1aadb5)">
     <use xlink:href="#maa41ee06d5" x="66.509432" y="348.286692" style="fill: #cc78bc; stroke: #cc78bc; stroke-linejoin: miter"/>
     <use xlink:href="#maa41ee06d5" x="180.150341" y="346.281586" style="fill: #cc78bc; stroke: #cc78bc; stroke-linejoin: miter"/>
     <use xlink:href="#maa41ee06d5" x="293.79125" y="348.50527" style="fill: #cc78bc; stroke: #cc78bc; stroke-linejoin: miter"/>
     <use xlink:href="#maa41ee06d5" x="407.432159" y="349.147112" style="fill: #cc78bc; stroke: #cc78bc; stroke-linejoin: miter"/>
     <use xlink:href="#maa41ee06d5" x="521.073068" y="352.382706" style="fill: #cc78bc; stroke: #cc78bc; stroke-linejoin: miter"/>
    </g>
   </g>
   <g id="line2d_26">
    <path d="M 66.509432 335.187078 
L 180.150341 325.634539 
L 293.79125 328.524195 
L 407.432159 332.128804 
L 521.073068 336.40015 
" clip-path="url(#p416b1aadb5)" style="fill: none; stroke-dasharray: 5.55,2.4; stroke-dashoffset: 0; stroke: #ca9161; stroke-width: 1.5"/>
    <defs>
     <path id="m43ff9503fb" d="M -1 3 
L 1 3 
L 1 1 
L 3 1 
L 3 -1 
L 1 -1 
L 1 -3 
L -1 -3 
L -1 -1 
L -3 -1 
L -3 1 
L -1 1 
z
" style="stroke: #ca9161; stroke-linejoin: miter"/>
    </defs>
    <g clip-path="url(#p416b1aadb5)">
     <use xlink:href="#m43ff9503fb" x="66.509432" y="335.187078" style="fill: #ca9161; stroke: #ca9161; stroke-linejoin: miter"/>
     <use xlink:href="#m43ff9503fb" x="180.150341" y="325.634539" style="fill: #ca9161; stroke: #ca9161; stroke-linejoin: miter"/>
     <use xlink:href="#m43ff9503fb" x="293.79125" y="328.524195" style="fill: #ca9161; stroke: #ca9161; stroke-linejoin: miter"/>
     <use xlink:href="#m43ff9503fb" x="407.432159" y="332.128804" style="fill: #ca9161; stroke: #ca9161; stroke-linejoin: miter"/>
     <use xlink:href="#m43ff9503fb" x="521.073068" y="336.40015" style="fill: #ca9161; stroke: #ca9161; stroke-linejoin: miter"/>
    </g>
   </g>
   <g id="line2d_27">
    <path d="M 66.509432 335.187078 
L 180.150341 325.634539 
L 293.79125 328.524195 
L 407.432159 332.128804 
L 521.073068 336.40015 
" clip-path="url(#p416b1aadb5)" style="fill: none; stroke-dasharray: 9.6,2.4,1.5,2.4; stroke-dashoffset: 0; stroke: #fbafe4; stroke-width: 1.5"/>
    <defs>
     <path id="mc85f108198" d="M 0 -3 
L -0.673542 -0.927051 
L -2.85317 -0.927051 
L -1.089814 0.354102 
L -1.763356 2.427051 
L -0 1.145898 
L 1.763356 2.427051 
L 1.089814 0.354102 
L 2.85317 -0.927051 
L 0.673542 -0.927051 
z
" style="stroke: #fbafe4; stroke-linejoin: bevel"/>
    </defs>
    <g clip-path="url(#p416b1aadb5)">
     <use xlink:href="#mc85f108198" x="66.509432" y="335.187078" style="fill: #fbafe4; stroke: #fbafe4; stroke-linejoin: bevel"/>
     <use xlink:href="#mc85f108198" x="180.150341" y="325.634539" style="fill: #fbafe4; stroke: #fbafe4; stroke-linejoin: bevel"/>
     <use xlink:href="#mc85f108198" x="293.79125" y="328.524195" style="fill: #fbafe4; stroke: #fbafe4; stroke-linejoin: bevel"/>
     <use xlink:href="#mc85f108198" x="407.432159" y="332.128804" style="fill: #fbafe4; stroke: #fbafe4; stroke-linejoin: bevel"/>
     <use xlink:href="#mc85f108198" x="521.073068" y="336.40015" style="fill: #fbafe4; stroke: #fbafe4; stroke-linejoin: bevel"/>
    </g>
   </g>
   <g id="line2d_28">
    <path d="M 66.509432 88.03685 
L 180.150341 85.005786 
L 293.79125 84.081838 
L 407.432159 82.40698 
L 521.073068 81.60466 
" clip-path="url(#p416b1aadb5)" style="fill: none; stroke-dasharray: 1.5,2.475; stroke-dashoffset: 0; stroke: #949494; stroke-width: 1.5"/>
    <defs>
     <path id="m79c52424e4" d="M -1.5 3 
L 0 1.5 
L 1.5 3 
L 3 1.5 
L 1.5 0 
L 3 -1.5 
L 1.5 -3 
L 0 -1.5 
L -1.5 -3 
L -3 -1.5 
L -1.5 0 
L -3 1.5 
z
" style="stroke: #949494; stroke-linejoin: miter"/>
    </defs>
    <g clip-path="url(#p416b1aadb5)">
     <use xlink:href="#m79c52424e4" x="66.509432" y="88.03685" style="fill: #949494; stroke: #949494; stroke-linejoin: miter"/>
     <use xlink:href="#m79c52424e4" x="180.150341" y="85.005786" style="fill: #949494; stroke: #949494; stroke-linejoin: miter"/>
     <use xlink:href="#m79c52424e4" x="293.79125" y="84.081838" style="fill: #949494; stroke: #949494; stroke-linejoin: miter"/>
     <use xlink:href="#m79c52424e4" x="407.432159" y="82.40698" style="fill: #949494; stroke: #949494; stroke-linejoin: miter"/>
     <use xlink:href="#m79c52424e4" x="521.073068" y="81.60466" style="fill: #949494; stroke: #949494; stroke-linejoin: miter"/>
    </g>
   </g>
   <g id="line2d_29">
    <path d="M 66.509432 103.847368 
L 180.150341 95.275352 
L 293.79125 98.135561 
L 407.432159 99.712206 
L 521.073068 100.2082 
" clip-path="url(#p416b1aadb5)" style="fill: none; stroke: #ece133; stroke-width: 1.5; stroke-linecap: square"/>
    <defs>
     <path id="mcf57cb089e" d="M -3 -0 
L 3 3 
L 3 -3 
z
" style="stroke: #ece133; stroke-linejoin: miter"/>
    </defs>
    <g clip-path="url(#p416b1aadb5)">
     <use xlink:href="#mcf57cb089e" x="66.509432" y="103.847368" style="fill: #ece133; stroke: #ece133; stroke-linejoin: miter"/>
     <use xlink:href="#mcf57cb089e" x="180.150341" y="95.275352" style="fill: #ece133; stroke: #ece133; stroke-linejoin: miter"/>
     <use xlink:href="#mcf57cb089e" x="293.79125" y="98.135561" style="fill: #ece133; stroke: #ece133; stroke-linejoin: miter"/>
     <use xlink:href="#mcf57cb089e" x="407.432159" y="99.712206" style="fill: #ece133; stroke: #ece133; stroke-linejoin: miter"/>
     <use xlink:href="#mcf57cb089e" x="521.073068" y="100.2082" style="fill: #ece133; stroke: #ece133; stroke-linejoin: miter"/>
    </g>
   </g>
   <g id="line2d_30">
    <path d="M 66.509432 96.573694 
L 180.150341 90.598046 
L 293.79125 91.589619 
L 407.432159 91.588727 
L 521.073068 91.444137 
" clip-path="url(#p416b1aadb5)" style="fill: none; stroke-dasharray: 5.55,2.4; stroke-dashoffset: 0; stroke: #56b4e9; stroke-width: 1.5"/>
    <defs>
     <path id="mab554aa5fb" d="M 3 0 
L -3 -3 
L -3 3 
z
" style="stroke: #56b4e9; stroke-linejoin: miter"/>
    </defs>
    <g clip-path="url(#p416b1aadb5)">
     <use xlink:href="#mab554aa5fb" x="66.509432" y="96.573694" style="fill: #56b4e9; stroke: #56b4e9; stroke-linejoin: miter"/>
     <use xlink:href="#mab554aa5fb" x="180.150341" y="90.598046" style="fill: #56b4e9; stroke: #56b4e9; stroke-linejoin: miter"/>
     <use xlink:href="#mab554aa5fb" x="293.79125" y="91.589619" style="fill: #56b4e9; stroke: #56b4e9; stroke-linejoin: miter"/>
     <use xlink:href="#mab554aa5fb" x="407.432159" y="91.588727" style="fill: #56b4e9; stroke: #56b4e9; stroke-linejoin: miter"/>
     <use xlink:href="#mab554aa5fb" x="521.073068" y="91.444137" style="fill: #56b4e9; stroke: #56b4e9; stroke-linejoin: miter"/>
    </g>
   </g>
   <g id="line2d_31">
    <path d="M 66.509432 315.533221 
L 180.150341 309.085644 
L 293.79125 308.7637 
L 407.432159 310.572424 
L 521.073068 313.034046 
" clip-path="url(#p416b1aadb5)" style="fill: none; stroke-dasharray: 9.6,2.4,1.5,2.4; stroke-dashoffset: 0; stroke: #0173b2; stroke-width: 1.5"/>
    <defs>
     <path id="mf12d0d8404" d="M -1.5 -2.598076 
L -3 -0 
L -1.5 2.598076 
L 1.5 2.598076 
L 3 0 
L 1.5 -2.598076 
z
" style="stroke: #0173b2; stroke-linejoin: miter"/>
    </defs>
    <g clip-path="url(#p416b1aadb5)">
     <use xlink:href="#mf12d0d8404" x="66.509432" y="315.533221" style="fill: #0173b2; stroke: #0173b2; stroke-linejoin: miter"/>
     <use xlink:href="#mf12d0d8404" x="180.150341" y="309.085644" style="fill: #0173b2; stroke: #0173b2; stroke-linejoin: miter"/>
     <use xlink:href="#mf12d0d8404" x="293.79125" y="308.7637" style="fill: #0173b2; stroke: #0173b2; stroke-linejoin: miter"/>
     <use xlink:href="#mf12d0d8404" x="407.432159" y="310.572424" style="fill: #0173b2; stroke: #0173b2; stroke-linejoin: miter"/>
     <use xlink:href="#mf12d0d8404" x="521.073068" y="313.034046" style="fill: #0173b2; stroke: #0173b2; stroke-linejoin: miter"/>
    </g>
   </g>
   <g id="line2d_32">
    <path d="M 66.509432 103.937273 
L 180.150341 89.605053 
L 293.79125 95.680022 
L 407.432159 93.738324 
L 521.073068 99.097096 
" clip-path="url(#p416b1aadb5)" style="fill: none; stroke-dasharray: 1.5,2.475; stroke-dashoffset: 0; stroke: #de8f05; stroke-width: 1.5"/>
    <defs>
     <path id="mce524015f5" d="M 0 3 
L 0 -3 
" style="stroke: #de8f05"/>
    </defs>
    <g clip-path="url(#p416b1aadb5)">
     <use xlink:href="#mce524015f5" x="66.509432" y="103.937273" style="fill: #de8f05; stroke: #de8f05"/>
     <use xlink:href="#mce524015f5" x="180.150341" y="89.605053" style="fill: #de8f05; stroke: #de8f05"/>
     <use xlink:href="#mce524015f5" x="293.79125" y="95.680022" style="fill: #de8f05; stroke: #de8f05"/>
     <use xlink:href="#mce524015f5" x="407.432159" y="93.738324" style="fill: #de8f05; stroke: #de8f05"/>
     <use xlink:href="#mce524015f5" x="521.073068" y="99.097096" style="fill: #de8f05; stroke: #de8f05"/>
    </g>
   </g>
   <g id="line2d_33">
    <path d="M 66.509432 141.585681 
L 180.150341 133.913976 
L 293.79125 135.650148 
L 407.432159 135.603732 
L 521.073068 137.077628 
" clip-path="url(#p416b1aadb5)" style="fill: none; stroke: #029e73; stroke-width: 1.5; stroke-linecap: square"/>
    <defs>
     <path id="m69183579b7" d="M 3 0 
L -3 -0 
" style="stroke: #029e73"/>
    </defs>
    <g clip-path="url(#p416b1aadb5)">
     <use xlink:href="#m69183579b7" x="66.509432" y="141.585681" style="fill: #029e73; stroke: #029e73"/>
     <use xlink:href="#m69183579b7" x="180.150341" y="133.913976" style="fill: #029e73; stroke: #029e73"/>
     <use xlink:href="#m69183579b7" x="293.79125" y="135.650148" style="fill: #029e73; stroke: #029e73"/>
     <use xlink:href="#m69183579b7" x="407.432159" y="135.603732" style="fill: #029e73; stroke: #029e73"/>
     <use xlink:href="#m69183579b7" x="521.073068" y="137.077628" style="fill: #029e73; stroke: #029e73"/>
    </g>
   </g>
   <g id="line2d_34">
    <path d="M 66.509432 326.463765 
L 180.150341 316.277833 
L 293.79125 323.459755 
L 407.432159 329.385765 
L 521.073068 335.353709 
" clip-path="url(#p416b1aadb5)" style="fill: none; stroke-dasharray: 5.55,2.4; stroke-dashoffset: 0; stroke: #d55e00; stroke-width: 1.5"/>
    <defs>
     <path id="m01b53e02b6" d="M 0 3 
C 0.795609 3 1.55874 2.683901 2.12132 2.12132 
C 2.683901 1.55874 3 0.795609 3 0 
C 3 -0.795609 2.683901 -1.55874 2.12132 -2.12132 
C 1.55874 -2.683901 0.795609 -3 0 -3 
C -0.795609 -3 -1.55874 -2.683901 -2.12132 -2.12132 
C -2.683901 -1.55874 -3 -0.795609 -3 0 
C -3 0.795609 -2.683901 1.55874 -2.12132 2.12132 
C -1.55874 2.683901 -0.795609 3 0 3 
z
" style="stroke: #d55e00"/>
    </defs>
    <g clip-path="url(#p416b1aadb5)">
     <use xlink:href="#m01b53e02b6" x="66.509432" y="326.463765" style="fill: #d55e00; stroke: #d55e00"/>
     <use xlink:href="#m01b53e02b6" x="180.150341" y="316.277833" style="fill: #d55e00; stroke: #d55e00"/>
     <use xlink:href="#m01b53e02b6" x="293.79125" y="323.459755" style="fill: #d55e00; stroke: #d55e00"/>
     <use xlink:href="#m01b53e02b6" x="407.432159" y="329.385765" style="fill: #d55e00; stroke: #d55e00"/>
     <use xlink:href="#m01b53e02b6" x="521.073068" y="335.353709" style="fill: #d55e00; stroke: #d55e00"/>
    </g>
   </g>
   <g id="line2d_35">
    <path d="M 66.509432 181.878897 
L 180.150341 184.393124 
L 293.79125 178.947374 
L 407.432159 172.974948 
L 521.073068 168.4809 
" clip-path="url(#p416b1aadb5)" style="fill: none; stroke-dasharray: 9.6,2.4,1.5,2.4; stroke-dashoffset: 0; stroke: #cc78bc; stroke-width: 1.5"/>
    <defs>
     <path id="m73cb3d23e0" d="M -3 3 
L 3 3 
L 3 -3 
L -3 -3 
z
" style="stroke: #cc78bc; stroke-linejoin: miter"/>
    </defs>
    <g clip-path="url(#p416b1aadb5)">
     <use xlink:href="#m73cb3d23e0" x="66.509432" y="181.878897" style="fill: #cc78bc; stroke: #cc78bc; stroke-linejoin: miter"/>
     <use xlink:href="#m73cb3d23e0" x="180.150341" y="184.393124" style="fill: #cc78bc; stroke: #cc78bc; stroke-linejoin: miter"/>
     <use xlink:href="#m73cb3d23e0" x="293.79125" y="178.947374" style="fill: #cc78bc; stroke: #cc78bc; stroke-linejoin: miter"/>
     <use xlink:href="#m73cb3d23e0" x="407.432159" y="172.974948" style="fill: #cc78bc; stroke: #cc78bc; stroke-linejoin: miter"/>
     <use xlink:href="#m73cb3d23e0" x="521.073068" y="168.4809" style="fill: #cc78bc; stroke: #cc78bc; stroke-linejoin: miter"/>
    </g>
   </g>
   <g id="patch_3">
    <path d="M 43.78125 385.376875 
L 43.78125 22.318125 
" style="fill: none; stroke: #000000; stroke-width: 0.8; stroke-linejoin: miter; stroke-linecap: square"/>
   </g>
   <g id="patch_4">
    <path d="M 543.80125 385.376875 
L 543.80125 22.318125 
" style="fill: none; stroke: #000000; stroke-width: 0.8; stroke-linejoin: miter; stroke-linecap: square"/>
   </g>
   <g id="patch_5">
    <path d="M 43.78125 385.376875 
L 543.80125 385.376875 
" style="fill: none; stroke: #000000; stroke-width: 0.8; stroke-linejoin: miter; stroke-linecap: square"/>
   </g>
   <g id="patch_6">
    <path d="M 43.78125 22.318125 
L 543.80125 22.318125 
" style="fill: none; stroke: #000000; stroke-width: 0.8; stroke-linejoin: miter; stroke-linecap: square"/>
   </g>
   <g id="text_13">
    <!-- Metrics for paraphraser: BulletPoint -->
    <g transform="translate(187.266875 16.318125) scale(0.12 -0.12)">
     <defs>
      <path id="DejaVuSans-4d" d="M 628 4666 
L 1569 4666 
L 2759 1491 
L 3956 4666 
L 4897 4666 
L 4897 0 
L 4281 0 
L 4281 4097 
L 3078 897 
L 2444 897 
L 1241 4097 
L 1241 0 
L 628 0 
L 628 4666 
z
" transform="scale(0.015625)"/>
      <path id="DejaVuSans-74" d="M 1172 4494 
L 1172 3500 
L 2356 3500 
L 2356 3053 
L 1172 3053 
L 1172 1153 
Q 1172 725 1289 603 
Q 1406 481 1766 481 
L 2356 481 
L 2356 0 
L 1766 0 
Q 1100 0 847 248 
Q 594 497 594 1153 
L 594 3053 
L 172 3053 
L 172 3500 
L 594 3500 
L 594 4494 
L 1172 4494 
z
" transform="scale(0.015625)"/>
      <path id="DejaVuSans-69" d="M 603 3500 
L 1178 3500 
L 1178 0 
L 603 0 
L 603 3500 
z
M 603 4863 
L 1178 4863 
L 1178 4134 
L 603 4134 
L 603 4863 
z
" transform="scale(0.015625)"/>
      <path id="DejaVuSans-20" transform="scale(0.015625)"/>
      <path id="DejaVuSans-66" d="M 2375 4863 
L 2375 4384 
L 1825 4384 
Q 1516 4384 1395 4259 
Q 1275 4134 1275 3809 
L 1275 3500 
L 2222 3500 
L 2222 3053 
L 1275 3053 
L 1275 0 
L 697 0 
L 697 3053 
L 147 3053 
L 147 3500 
L 697 3500 
L 697 3744 
Q 697 4328 969 4595 
Q 1241 4863 1831 4863 
L 2375 4863 
z
" transform="scale(0.015625)"/>
      <path id="DejaVuSans-70" d="M 1159 525 
L 1159 -1331 
L 581 -1331 
L 581 3500 
L 1159 3500 
L 1159 2969 
Q 1341 3281 1617 3432 
Q 1894 3584 2278 3584 
Q 2916 3584 3314 3078 
Q 3713 2572 3713 1747 
Q 3713 922 3314 415 
Q 2916 -91 2278 -91 
Q 1894 -91 1617 61 
Q 1341 213 1159 525 
z
M 3116 1747 
Q 3116 2381 2855 2742 
Q 2594 3103 2138 3103 
Q 1681 3103 1420 2742 
Q 1159 2381 1159 1747 
Q 1159 1113 1420 752 
Q 1681 391 2138 391 
Q 2594 391 2855 752 
Q 3116 1113 3116 1747 
z
" transform="scale(0.015625)"/>
      <path id="DejaVuSans-61" d="M 2194 1759 
Q 1497 1759 1228 1600 
Q 959 1441 959 1056 
Q 959 750 1161 570 
Q 1363 391 1709 391 
Q 2188 391 2477 730 
Q 2766 1069 2766 1631 
L 2766 1759 
L 2194 1759 
z
M 3341 1997 
L 3341 0 
L 2766 0 
L 2766 531 
Q 2569 213 2275 61 
Q 1981 -91 1556 -91 
Q 1019 -91 701 211 
Q 384 513 384 1019 
Q 384 1609 779 1909 
Q 1175 2209 1959 2209 
L 2766 2209 
L 2766 2266 
Q 2766 2663 2505 2880 
Q 2244 3097 1772 3097 
Q 1472 3097 1187 3025 
Q 903 2953 641 2809 
L 641 3341 
Q 956 3463 1253 3523 
Q 1550 3584 1831 3584 
Q 2591 3584 2966 3190 
Q 3341 2797 3341 1997 
z
" transform="scale(0.015625)"/>
      <path id="DejaVuSans-3a" d="M 750 794 
L 1409 794 
L 1409 0 
L 750 0 
L 750 794 
z
M 750 3309 
L 1409 3309 
L 1409 2516 
L 750 2516 
L 750 3309 
z
" transform="scale(0.015625)"/>
      <path id="DejaVuSans-42" d="M 1259 2228 
L 1259 519 
L 2272 519 
Q 2781 519 3026 730 
Q 3272 941 3272 1375 
Q 3272 1813 3026 2020 
Q 2781 2228 2272 2228 
L 1259 2228 
z
M 1259 4147 
L 1259 2741 
L 2194 2741 
Q 2656 2741 2882 2914 
Q 3109 3088 3109 3444 
Q 3109 3797 2882 3972 
Q 2656 4147 2194 4147 
L 1259 4147 
z
M 628 4666 
L 2241 4666 
Q 2963 4666 3353 4366 
Q 3744 4066 3744 3513 
Q 3744 3084 3544 2831 
Q 3344 2578 2956 2516 
Q 3422 2416 3680 2098 
Q 3938 1781 3938 1306 
Q 3938 681 3513 340 
Q 3088 0 2303 0 
L 628 0 
L 628 4666 
z
" transform="scale(0.015625)"/>
      <path id="DejaVuSans-6c" d="M 603 4863 
L 1178 4863 
L 1178 0 
L 603 0 
L 603 4863 
z
" transform="scale(0.015625)"/>
      <path id="DejaVuSans-50" d="M 1259 4147 
L 1259 2394 
L 2053 2394 
Q 2494 2394 2734 2622 
Q 2975 2850 2975 3272 
Q 2975 3691 2734 3919 
Q 2494 4147 2053 4147 
L 1259 4147 
z
M 628 4666 
L 2053 4666 
Q 2838 4666 3239 4311 
Q 3641 3956 3641 3272 
Q 3641 2581 3239 2228 
Q 2838 1875 2053 1875 
L 1259 1875 
L 1259 0 
L 628 0 
L 628 4666 
z
" transform="scale(0.015625)"/>
     </defs>
     <use xlink:href="#DejaVuSans-4d"/>
     <use xlink:href="#DejaVuSans-65" transform="translate(86.279297 0)"/>
     <use xlink:href="#DejaVuSans-74" transform="translate(147.802734 0)"/>
     <use xlink:href="#DejaVuSans-72" transform="translate(187.011719 0)"/>
     <use xlink:href="#DejaVuSans-69" transform="translate(228.125 0)"/>
     <use xlink:href="#DejaVuSans-63" transform="translate(255.908203 0)"/>
     <use xlink:href="#DejaVuSans-73" transform="translate(310.888672 0)"/>
     <use xlink:href="#DejaVuSans-20" transform="translate(362.988281 0)"/>
     <use xlink:href="#DejaVuSans-66" transform="translate(394.775391 0)"/>
     <use xlink:href="#DejaVuSans-6f" transform="translate(429.980469 0)"/>
     <use xlink:href="#DejaVuSans-72" transform="translate(491.162109 0)"/>
     <use xlink:href="#DejaVuSans-20" transform="translate(532.275391 0)"/>
     <use xlink:href="#DejaVuSans-70" transform="translate(564.0625 0)"/>
     <use xlink:href="#DejaVuSans-61" transform="translate(627.539062 0)"/>
     <use xlink:href="#DejaVuSans-72" transform="translate(688.818359 0)"/>
     <use xlink:href="#DejaVuSans-61" transform="translate(729.931641 0)"/>
     <use xlink:href="#DejaVuSans-70" transform="translate(791.210938 0)"/>
     <use xlink:href="#DejaVuSans-68" transform="translate(854.6875 0)"/>
     <use xlink:href="#DejaVuSans-72" transform="translate(918.066406 0)"/>
     <use xlink:href="#DejaVuSans-61" transform="translate(959.179688 0)"/>
     <use xlink:href="#DejaVuSans-73" transform="translate(1020.458984 0)"/>
     <use xlink:href="#DejaVuSans-65" transform="translate(1072.558594 0)"/>
     <use xlink:href="#DejaVuSans-72" transform="translate(1134.082031 0)"/>
     <use xlink:href="#DejaVuSans-3a" transform="translate(1173.445312 0)"/>
     <use xlink:href="#DejaVuSans-20" transform="translate(1207.136719 0)"/>
     <use xlink:href="#DejaVuSans-42" transform="translate(1238.923828 0)"/>
     <use xlink:href="#DejaVuSans-75" transform="translate(1307.527344 0)"/>
     <use xlink:href="#DejaVuSans-6c" transform="translate(1370.90625 0)"/>
     <use xlink:href="#DejaVuSans-6c" transform="translate(1398.689453 0)"/>
     <use xlink:href="#DejaVuSans-65" transform="translate(1426.472656 0)"/>
     <use xlink:href="#DejaVuSans-74" transform="translate(1487.996094 0)"/>
     <use xlink:href="#DejaVuSans-50" transform="translate(1527.205078 0)"/>
     <use xlink:href="#DejaVuSans-6f" transform="translate(1583.882812 0)"/>
     <use xlink:href="#DejaVuSans-69" transform="translate(1645.064453 0)"/>
     <use xlink:href="#DejaVuSans-6e" transform="translate(1672.847656 0)"/>
     <use xlink:href="#DejaVuSans-74" transform="translate(1736.226562 0)"/>
    </g>
   </g>
   <g id="legend_1">
    <g id="patch_7">
     <path d="M 570.80225 262.949375 
L 700.3085 262.949375 
Q 702.3085 262.949375 702.3085 260.949375 
L 702.3085 24.318125 
Q 702.3085 22.318125 700.3085 22.318125 
L 570.80225 22.318125 
Q 568.80225 22.318125 568.80225 24.318125 
L 568.80225 260.949375 
Q 568.80225 262.949375 570.80225 262.949375 
z
" style="fill: #ffffff; opacity: 0.8; stroke: #cccccc; stroke-linejoin: miter"/>
    </g>
    <g id="text_14">
     <!-- Metric -->
     <g transform="translate(620.010844 33.916562) scale(0.1 -0.1)">
      <use xlink:href="#DejaVuSans-4d"/>
      <use xlink:href="#DejaVuSans-65" transform="translate(86.279297 0)"/>
      <use xlink:href="#DejaVuSans-74" transform="translate(147.802734 0)"/>
      <use xlink:href="#DejaVuSans-72" transform="translate(187.011719 0)"/>
      <use xlink:href="#DejaVuSans-69" transform="translate(228.125 0)"/>
      <use xlink:href="#DejaVuSans-63" transform="translate(255.908203 0)"/>
     </g>
    </g>
    <g id="line2d_36">
     <path d="M 572.80225 45.094687 
L 582.80225 45.094687 
L 592.80225 45.094687 
" style="fill: none; stroke: #0173b2; stroke-width: 1.5; stroke-linecap: square"/>
     <g>
      <use xlink:href="#m0152ce42e7" x="582.80225" y="45.094687" style="fill: #0173b2; stroke: #0173b2"/>
     </g>
    </g>
    <g id="text_15">
     <!-- temperature -->
     <g transform="translate(600.80225 48.594687) scale(0.1 -0.1)">
      <use xlink:href="#DejaVuSans-74"/>
      <use xlink:href="#DejaVuSans-65" transform="translate(39.208984 0)"/>
      <use xlink:href="#DejaVuSans-6d" transform="translate(100.732422 0)"/>
      <use xlink:href="#DejaVuSans-70" transform="translate(198.144531 0)"/>
      <use xlink:href="#DejaVuSans-65" transform="translate(261.621094 0)"/>
      <use xlink:href="#DejaVuSans-72" transform="translate(323.144531 0)"/>
      <use xlink:href="#DejaVuSans-61" transform="translate(364.257812 0)"/>
      <use xlink:href="#DejaVuSans-74" transform="translate(425.537109 0)"/>
      <use xlink:href="#DejaVuSans-75" transform="translate(464.746094 0)"/>
      <use xlink:href="#DejaVuSans-72" transform="translate(528.125 0)"/>
      <use xlink:href="#DejaVuSans-65" transform="translate(566.988281 0)"/>
     </g>
    </g>
    <g id="line2d_37">
     <path d="M 572.80225 59.772812 
L 582.80225 59.772812 
L 592.80225 59.772812 
" style="fill: none; stroke-dasharray: 5.55,2.4; stroke-dashoffset: 0; stroke: #de8f05; stroke-width: 1.5"/>
     <g>
      <use xlink:href="#mbf4b900615" x="582.80225" y="59.772812" style="fill: #de8f05; stroke: #de8f05; stroke-linejoin: miter"/>
     </g>
    </g>
    <g id="text_16">
     <!-- bleu_score -->
     <g transform="translate(600.80225 63.272812) scale(0.1 -0.1)">
      <defs>
       <path id="DejaVuSans-62" d="M 3116 1747 
Q 3116 2381 2855 2742 
Q 2594 3103 2138 3103 
Q 1681 3103 1420 2742 
Q 1159 2381 1159 1747 
Q 1159 1113 1420 752 
Q 1681 391 2138 391 
Q 2594 391 2855 752 
Q 3116 1113 3116 1747 
z
M 1159 2969 
Q 1341 3281 1617 3432 
Q 1894 3584 2278 3584 
Q 2916 3584 3314 3078 
Q 3713 2572 3713 1747 
Q 3713 922 3314 415 
Q 2916 -91 2278 -91 
Q 1894 -91 1617 61 
Q 1341 213 1159 525 
L 1159 0 
L 581 0 
L 581 4863 
L 1159 4863 
L 1159 2969 
z
" transform="scale(0.015625)"/>
      </defs>
      <use xlink:href="#DejaVuSans-62"/>
      <use xlink:href="#DejaVuSans-6c" transform="translate(63.476562 0)"/>
      <use xlink:href="#DejaVuSans-65" transform="translate(91.259766 0)"/>
      <use xlink:href="#DejaVuSans-75" transform="translate(152.783203 0)"/>
      <use xlink:href="#DejaVuSans-5f" transform="translate(216.162109 0)"/>
      <use xlink:href="#DejaVuSans-73" transform="translate(266.162109 0)"/>
      <use xlink:href="#DejaVuSans-63" transform="translate(318.261719 0)"/>
      <use xlink:href="#DejaVuSans-6f" transform="translate(373.242188 0)"/>
      <use xlink:href="#DejaVuSans-72" transform="translate(434.423828 0)"/>
      <use xlink:href="#DejaVuSans-65" transform="translate(473.287109 0)"/>
     </g>
    </g>
    <g id="line2d_38">
     <path d="M 572.80225 74.729062 
L 582.80225 74.729062 
L 592.80225 74.729062 
" style="fill: none; stroke-dasharray: 9.6,2.4,1.5,2.4; stroke-dashoffset: 0; stroke: #029e73; stroke-width: 1.5"/>
     <g>
      <use xlink:href="#md6b78631b4" x="582.80225" y="74.729062" style="fill: #029e73; stroke: #029e73; stroke-linejoin: miter"/>
     </g>
    </g>
    <g id="text_17">
     <!-- meteor_score -->
     <g transform="translate(600.80225 78.229062) scale(0.1 -0.1)">
      <use xlink:href="#DejaVuSans-6d"/>
      <use xlink:href="#DejaVuSans-65" transform="translate(97.412109 0)"/>
      <use xlink:href="#DejaVuSans-74" transform="translate(158.935547 0)"/>
      <use xlink:href="#DejaVuSans-65" transform="translate(198.144531 0)"/>
      <use xlink:href="#DejaVuSans-6f" transform="translate(259.667969 0)"/>
      <use xlink:href="#DejaVuSans-72" transform="translate(320.849609 0)"/>
      <use xlink:href="#DejaVuSans-5f" transform="translate(361.962891 0)"/>
      <use xlink:href="#DejaVuSans-73" transform="translate(411.962891 0)"/>
      <use xlink:href="#DejaVuSans-63" transform="translate(464.0625 0)"/>
      <use xlink:href="#DejaVuSans-6f" transform="translate(519.042969 0)"/>
      <use xlink:href="#DejaVuSans-72" transform="translate(580.224609 0)"/>
      <use xlink:href="#DejaVuSans-65" transform="translate(619.087891 0)"/>
     </g>
    </g>
    <g id="line2d_39">
     <path d="M 572.80225 89.685313 
L 582.80225 89.685313 
L 592.80225 89.685313 
" style="fill: none; stroke-dasharray: 1.5,2.475; stroke-dashoffset: 0; stroke: #d55e00; stroke-width: 1.5"/>
     <g>
      <use xlink:href="#m389ffae683" x="582.80225" y="89.685313" style="fill: #d55e00; stroke: #d55e00; stroke-linejoin: miter"/>
     </g>
    </g>
    <g id="text_18">
     <!-- rouge1 -->
     <g transform="translate(600.80225 93.185313) scale(0.1 -0.1)">
      <defs>
       <path id="DejaVuSans-67" d="M 2906 1791 
Q 2906 2416 2648 2759 
Q 2391 3103 1925 3103 
Q 1463 3103 1205 2759 
Q 947 2416 947 1791 
Q 947 1169 1205 825 
Q 1463 481 1925 481 
Q 2391 481 2648 825 
Q 2906 1169 2906 1791 
z
M 3481 434 
Q 3481 -459 3084 -895 
Q 2688 -1331 1869 -1331 
Q 1566 -1331 1297 -1286 
Q 1028 -1241 775 -1147 
L 775 -588 
Q 1028 -725 1275 -790 
Q 1522 -856 1778 -856 
Q 2344 -856 2625 -561 
Q 2906 -266 2906 331 
L 2906 616 
Q 2728 306 2450 153 
Q 2172 0 1784 0 
Q 1141 0 747 490 
Q 353 981 353 1791 
Q 353 2603 747 3093 
Q 1141 3584 1784 3584 
Q 2172 3584 2450 3431 
Q 2728 3278 2906 2969 
L 2906 3500 
L 3481 3500 
L 3481 434 
z
" transform="scale(0.015625)"/>
      </defs>
      <use xlink:href="#DejaVuSans-72"/>
      <use xlink:href="#DejaVuSans-6f" transform="translate(38.863281 0)"/>
      <use xlink:href="#DejaVuSans-75" transform="translate(100.044922 0)"/>
      <use xlink:href="#DejaVuSans-67" transform="translate(163.423828 0)"/>
      <use xlink:href="#DejaVuSans-65" transform="translate(226.900391 0)"/>
      <use xlink:href="#DejaVuSans-31" transform="translate(288.423828 0)"/>
     </g>
    </g>
    <g id="line2d_40">
     <path d="M 572.80225 104.363437 
L 582.80225 104.363437 
L 592.80225 104.363437 
" style="fill: none; stroke: #cc78bc; stroke-width: 1.5; stroke-linecap: square"/>
     <g>
      <use xlink:href="#maa41ee06d5" x="582.80225" y="104.363437" style="fill: #cc78bc; stroke: #cc78bc; stroke-linejoin: miter"/>
     </g>
    </g>
    <g id="text_19">
     <!-- rouge2 -->
     <g transform="translate(600.80225 107.863437) scale(0.1 -0.1)">
      <use xlink:href="#DejaVuSans-72"/>
      <use xlink:href="#DejaVuSans-6f" transform="translate(38.863281 0)"/>
      <use xlink:href="#DejaVuSans-75" transform="translate(100.044922 0)"/>
      <use xlink:href="#DejaVuSans-67" transform="translate(163.423828 0)"/>
      <use xlink:href="#DejaVuSans-65" transform="translate(226.900391 0)"/>
      <use xlink:href="#DejaVuSans-32" transform="translate(288.423828 0)"/>
     </g>
    </g>
    <g id="line2d_41">
     <path d="M 572.80225 119.041562 
L 582.80225 119.041562 
L 592.80225 119.041562 
" style="fill: none; stroke-dasharray: 5.55,2.4; stroke-dashoffset: 0; stroke: #ca9161; stroke-width: 1.5"/>
     <g>
      <use xlink:href="#m43ff9503fb" x="582.80225" y="119.041562" style="fill: #ca9161; stroke: #ca9161; stroke-linejoin: miter"/>
     </g>
    </g>
    <g id="text_20">
     <!-- rougeL -->
     <g transform="translate(600.80225 122.541562) scale(0.1 -0.1)">
      <defs>
       <path id="DejaVuSans-4c" d="M 628 4666 
L 1259 4666 
L 1259 531 
L 3531 531 
L 3531 0 
L 628 0 
L 628 4666 
z
" transform="scale(0.015625)"/>
      </defs>
      <use xlink:href="#DejaVuSans-72"/>
      <use xlink:href="#DejaVuSans-6f" transform="translate(38.863281 0)"/>
      <use xlink:href="#DejaVuSans-75" transform="translate(100.044922 0)"/>
      <use xlink:href="#DejaVuSans-67" transform="translate(163.423828 0)"/>
      <use xlink:href="#DejaVuSans-65" transform="translate(226.900391 0)"/>
      <use xlink:href="#DejaVuSans-4c" transform="translate(288.423828 0)"/>
     </g>
    </g>
    <g id="line2d_42">
     <path d="M 572.80225 133.719687 
L 582.80225 133.719687 
L 592.80225 133.719687 
" style="fill: none; stroke-dasharray: 9.6,2.4,1.5,2.4; stroke-dashoffset: 0; stroke: #fbafe4; stroke-width: 1.5"/>
     <g>
      <use xlink:href="#mc85f108198" x="582.80225" y="133.719687" style="fill: #fbafe4; stroke: #fbafe4; stroke-linejoin: bevel"/>
     </g>
    </g>
    <g id="text_21">
     <!-- rougeLsum -->
     <g transform="translate(600.80225 137.219687) scale(0.1 -0.1)">
      <use xlink:href="#DejaVuSans-72"/>
      <use xlink:href="#DejaVuSans-6f" transform="translate(38.863281 0)"/>
      <use xlink:href="#DejaVuSans-75" transform="translate(100.044922 0)"/>
      <use xlink:href="#DejaVuSans-67" transform="translate(163.423828 0)"/>
      <use xlink:href="#DejaVuSans-65" transform="translate(226.900391 0)"/>
      <use xlink:href="#DejaVuSans-4c" transform="translate(288.423828 0)"/>
      <use xlink:href="#DejaVuSans-73" transform="translate(344.136719 0)"/>
      <use xlink:href="#DejaVuSans-75" transform="translate(396.236328 0)"/>
      <use xlink:href="#DejaVuSans-6d" transform="translate(459.615234 0)"/>
     </g>
    </g>
    <g id="line2d_43">
     <path d="M 572.80225 148.397812 
L 582.80225 148.397812 
L 592.80225 148.397812 
" style="fill: none; stroke-dasharray: 1.5,2.475; stroke-dashoffset: 0; stroke: #949494; stroke-width: 1.5"/>
     <g>
      <use xlink:href="#m79c52424e4" x="582.80225" y="148.397812" style="fill: #949494; stroke: #949494; stroke-linejoin: miter"/>
     </g>
    </g>
    <g id="text_22">
     <!-- bertscore_precision -->
     <g transform="translate(600.80225 151.897812) scale(0.1 -0.1)">
      <use xlink:href="#DejaVuSans-62"/>
      <use xlink:href="#DejaVuSans-65" transform="translate(63.476562 0)"/>
      <use xlink:href="#DejaVuSans-72" transform="translate(125 0)"/>
      <use xlink:href="#DejaVuSans-74" transform="translate(166.113281 0)"/>
      <use xlink:href="#DejaVuSans-73" transform="translate(205.322266 0)"/>
      <use xlink:href="#DejaVuSans-63" transform="translate(257.421875 0)"/>
      <use xlink:href="#DejaVuSans-6f" transform="translate(312.402344 0)"/>
      <use xlink:href="#DejaVuSans-72" transform="translate(373.583984 0)"/>
      <use xlink:href="#DejaVuSans-65" transform="translate(412.447266 0)"/>
      <use xlink:href="#DejaVuSans-5f" transform="translate(473.970703 0)"/>
      <use xlink:href="#DejaVuSans-70" transform="translate(523.970703 0)"/>
      <use xlink:href="#DejaVuSans-72" transform="translate(587.447266 0)"/>
      <use xlink:href="#DejaVuSans-65" transform="translate(626.310547 0)"/>
      <use xlink:href="#DejaVuSans-63" transform="translate(687.833984 0)"/>
      <use xlink:href="#DejaVuSans-69" transform="translate(742.814453 0)"/>
      <use xlink:href="#DejaVuSans-73" transform="translate(770.597656 0)"/>
      <use xlink:href="#DejaVuSans-69" transform="translate(822.697266 0)"/>
      <use xlink:href="#DejaVuSans-6f" transform="translate(850.480469 0)"/>
      <use xlink:href="#DejaVuSans-6e" transform="translate(911.662109 0)"/>
     </g>
    </g>
    <g id="line2d_44">
     <path d="M 572.80225 163.354062 
L 582.80225 163.354062 
L 592.80225 163.354062 
" style="fill: none; stroke: #ece133; stroke-width: 1.5; stroke-linecap: square"/>
     <g>
      <use xlink:href="#mcf57cb089e" x="582.80225" y="163.354062" style="fill: #ece133; stroke: #ece133; stroke-linejoin: miter"/>
     </g>
    </g>
    <g id="text_23">
     <!-- bertscore_recall -->
     <g transform="translate(600.80225 166.854062) scale(0.1 -0.1)">
      <use xlink:href="#DejaVuSans-62"/>
      <use xlink:href="#DejaVuSans-65" transform="translate(63.476562 0)"/>
      <use xlink:href="#DejaVuSans-72" transform="translate(125 0)"/>
      <use xlink:href="#DejaVuSans-74" transform="translate(166.113281 0)"/>
      <use xlink:href="#DejaVuSans-73" transform="translate(205.322266 0)"/>
      <use xlink:href="#DejaVuSans-63" transform="translate(257.421875 0)"/>
      <use xlink:href="#DejaVuSans-6f" transform="translate(312.402344 0)"/>
      <use xlink:href="#DejaVuSans-72" transform="translate(373.583984 0)"/>
      <use xlink:href="#DejaVuSans-65" transform="translate(412.447266 0)"/>
      <use xlink:href="#DejaVuSans-5f" transform="translate(473.970703 0)"/>
      <use xlink:href="#DejaVuSans-72" transform="translate(523.970703 0)"/>
      <use xlink:href="#DejaVuSans-65" transform="translate(562.833984 0)"/>
      <use xlink:href="#DejaVuSans-63" transform="translate(624.357422 0)"/>
      <use xlink:href="#DejaVuSans-61" transform="translate(679.337891 0)"/>
      <use xlink:href="#DejaVuSans-6c" transform="translate(740.617188 0)"/>
      <use xlink:href="#DejaVuSans-6c" transform="translate(768.400391 0)"/>
     </g>
    </g>
    <g id="line2d_45">
     <path d="M 572.80225 178.310312 
L 582.80225 178.310312 
L 592.80225 178.310312 
" style="fill: none; stroke-dasharray: 5.55,2.4; stroke-dashoffset: 0; stroke: #56b4e9; stroke-width: 1.5"/>
     <g>
      <use xlink:href="#mab554aa5fb" x="582.80225" y="178.310312" style="fill: #56b4e9; stroke: #56b4e9; stroke-linejoin: miter"/>
     </g>
    </g>
    <g id="text_24">
     <!-- bertscore_f1 -->
     <g transform="translate(600.80225 181.810312) scale(0.1 -0.1)">
      <use xlink:href="#DejaVuSans-62"/>
      <use xlink:href="#DejaVuSans-65" transform="translate(63.476562 0)"/>
      <use xlink:href="#DejaVuSans-72" transform="translate(125 0)"/>
      <use xlink:href="#DejaVuSans-74" transform="translate(166.113281 0)"/>
      <use xlink:href="#DejaVuSans-73" transform="translate(205.322266 0)"/>
      <use xlink:href="#DejaVuSans-63" transform="translate(257.421875 0)"/>
      <use xlink:href="#DejaVuSans-6f" transform="translate(312.402344 0)"/>
      <use xlink:href="#DejaVuSans-72" transform="translate(373.583984 0)"/>
      <use xlink:href="#DejaVuSans-65" transform="translate(412.447266 0)"/>
      <use xlink:href="#DejaVuSans-5f" transform="translate(473.970703 0)"/>
      <use xlink:href="#DejaVuSans-66" transform="translate(523.970703 0)"/>
      <use xlink:href="#DejaVuSans-31" transform="translate(559.175781 0)"/>
     </g>
    </g>
    <g id="line2d_46">
     <path d="M 572.80225 193.266562 
L 582.80225 193.266562 
L 592.80225 193.266562 
" style="fill: none; stroke-dasharray: 9.6,2.4,1.5,2.4; stroke-dashoffset: 0; stroke: #0173b2; stroke-width: 1.5"/>
     <g>
      <use xlink:href="#mf12d0d8404" x="582.80225" y="193.266562" style="fill: #0173b2; stroke: #0173b2; stroke-linejoin: miter"/>
     </g>
    </g>
    <g id="text_25">
     <!-- sbert_wms -->
     <g transform="translate(600.80225 196.766562) scale(0.1 -0.1)">
      <defs>
       <path id="DejaVuSans-77" d="M 269 3500 
L 844 3500 
L 1563 769 
L 2278 3500 
L 2956 3500 
L 3675 769 
L 4391 3500 
L 4966 3500 
L 4050 0 
L 3372 0 
L 2619 2869 
L 1863 0 
L 1184 0 
L 269 3500 
z
" transform="scale(0.015625)"/>
      </defs>
      <use xlink:href="#DejaVuSans-73"/>
      <use xlink:href="#DejaVuSans-62" transform="translate(52.099609 0)"/>
      <use xlink:href="#DejaVuSans-65" transform="translate(115.576172 0)"/>
      <use xlink:href="#DejaVuSans-72" transform="translate(177.099609 0)"/>
      <use xlink:href="#DejaVuSans-74" transform="translate(218.212891 0)"/>
      <use xlink:href="#DejaVuSans-5f" transform="translate(257.421875 0)"/>
      <use xlink:href="#DejaVuSans-77" transform="translate(307.421875 0)"/>
      <use xlink:href="#DejaVuSans-6d" transform="translate(389.208984 0)"/>
      <use xlink:href="#DejaVuSans-73" transform="translate(486.621094 0)"/>
     </g>
    </g>
    <g id="line2d_47">
     <path d="M 572.80225 208.222812 
L 582.80225 208.222812 
L 592.80225 208.222812 
" style="fill: none; stroke-dasharray: 1.5,2.475; stroke-dashoffset: 0; stroke: #de8f05; stroke-width: 1.5"/>
     <g>
      <use xlink:href="#mce524015f5" x="582.80225" y="208.222812" style="fill: #de8f05; stroke: #de8f05"/>
     </g>
    </g>
    <g id="text_26">
     <!-- sbert_cos -->
     <g transform="translate(600.80225 211.722812) scale(0.1 -0.1)">
      <use xlink:href="#DejaVuSans-73"/>
      <use xlink:href="#DejaVuSans-62" transform="translate(52.099609 0)"/>
      <use xlink:href="#DejaVuSans-65" transform="translate(115.576172 0)"/>
      <use xlink:href="#DejaVuSans-72" transform="translate(177.099609 0)"/>
      <use xlink:href="#DejaVuSans-74" transform="translate(218.212891 0)"/>
      <use xlink:href="#DejaVuSans-5f" transform="translate(257.421875 0)"/>
      <use xlink:href="#DejaVuSans-63" transform="translate(307.421875 0)"/>
      <use xlink:href="#DejaVuSans-6f" transform="translate(362.402344 0)"/>
      <use xlink:href="#DejaVuSans-73" transform="translate(423.583984 0)"/>
     </g>
    </g>
    <g id="line2d_48">
     <path d="M 572.80225 223.179062 
L 582.80225 223.179062 
L 592.80225 223.179062 
" style="fill: none; stroke: #029e73; stroke-width: 1.5; stroke-linecap: square"/>
     <g>
      <use xlink:href="#m69183579b7" x="582.80225" y="223.179062" style="fill: #029e73; stroke: #029e73"/>
     </g>
    </g>
    <g id="text_27">
     <!-- sem_sim_avg -->
     <g transform="translate(600.80225 226.679062) scale(0.1 -0.1)">
      <defs>
       <path id="DejaVuSans-76" d="M 191 3500 
L 800 3500 
L 1894 563 
L 2988 3500 
L 3597 3500 
L 2284 0 
L 1503 0 
L 191 3500 
z
" transform="scale(0.015625)"/>
      </defs>
      <use xlink:href="#DejaVuSans-73"/>
      <use xlink:href="#DejaVuSans-65" transform="translate(52.099609 0)"/>
      <use xlink:href="#DejaVuSans-6d" transform="translate(113.623047 0)"/>
      <use xlink:href="#DejaVuSans-5f" transform="translate(211.035156 0)"/>
      <use xlink:href="#DejaVuSans-73" transform="translate(261.035156 0)"/>
      <use xlink:href="#DejaVuSans-69" transform="translate(313.134766 0)"/>
      <use xlink:href="#DejaVuSans-6d" transform="translate(340.917969 0)"/>
      <use xlink:href="#DejaVuSans-5f" transform="translate(438.330078 0)"/>
      <use xlink:href="#DejaVuSans-61" transform="translate(488.330078 0)"/>
      <use xlink:href="#DejaVuSans-76" transform="translate(549.609375 0)"/>
      <use xlink:href="#DejaVuSans-67" transform="translate(608.789062 0)"/>
     </g>
    </g>
    <g id="line2d_49">
     <path d="M 572.80225 238.135312 
L 582.80225 238.135312 
L 592.80225 238.135312 
" style="fill: none; stroke-dasharray: 5.55,2.4; stroke-dashoffset: 0; stroke: #d55e00; stroke-width: 1.5"/>
     <g>
      <use xlink:href="#m01b53e02b6" x="582.80225" y="238.135312" style="fill: #d55e00; stroke: #d55e00"/>
     </g>
    </g>
    <g id="text_28">
     <!-- syn_sim_avg -->
     <g transform="translate(600.80225 241.635312) scale(0.1 -0.1)">
      <defs>
       <path id="DejaVuSans-79" d="M 2059 -325 
Q 1816 -950 1584 -1140 
Q 1353 -1331 966 -1331 
L 506 -1331 
L 506 -850 
L 844 -850 
Q 1081 -850 1212 -737 
Q 1344 -625 1503 -206 
L 1606 56 
L 191 3500 
L 800 3500 
L 1894 763 
L 2988 3500 
L 3597 3500 
L 2059 -325 
z
" transform="scale(0.015625)"/>
      </defs>
      <use xlink:href="#DejaVuSans-73"/>
      <use xlink:href="#DejaVuSans-79" transform="translate(52.099609 0)"/>
      <use xlink:href="#DejaVuSans-6e" transform="translate(111.279297 0)"/>
      <use xlink:href="#DejaVuSans-5f" transform="translate(174.658203 0)"/>
      <use xlink:href="#DejaVuSans-73" transform="translate(224.658203 0)"/>
      <use xlink:href="#DejaVuSans-69" transform="translate(276.757812 0)"/>
      <use xlink:href="#DejaVuSans-6d" transform="translate(304.541016 0)"/>
      <use xlink:href="#DejaVuSans-5f" transform="translate(401.953125 0)"/>
      <use xlink:href="#DejaVuSans-61" transform="translate(451.953125 0)"/>
      <use xlink:href="#DejaVuSans-76" transform="translate(513.232422 0)"/>
      <use xlink:href="#DejaVuSans-67" transform="translate(572.412109 0)"/>
     </g>
    </g>
    <g id="line2d_50">
     <path d="M 572.80225 253.091563 
L 582.80225 253.091563 
L 592.80225 253.091563 
" style="fill: none; stroke-dasharray: 9.6,2.4,1.5,2.4; stroke-dashoffset: 0; stroke: #cc78bc; stroke-width: 1.5"/>
     <g>
      <use xlink:href="#m73cb3d23e0" x="582.80225" y="253.091563" style="fill: #cc78bc; stroke: #cc78bc; stroke-linejoin: miter"/>
     </g>
    </g>
    <g id="text_29">
     <!-- gohsen_delta -->
     <g transform="translate(600.80225 256.591563) scale(0.1 -0.1)">
      <defs>
       <path id="DejaVuSans-64" d="M 2906 2969 
L 2906 4863 
L 3481 4863 
L 3481 0 
L 2906 0 
L 2906 525 
Q 2725 213 2448 61 
Q 2172 -91 1784 -91 
Q 1150 -91 751 415 
Q 353 922 353 1747 
Q 353 2572 751 3078 
Q 1150 3584 1784 3584 
Q 2172 3584 2448 3432 
Q 2725 3281 2906 2969 
z
M 947 1747 
Q 947 1113 1208 752 
Q 1469 391 1925 391 
Q 2381 391 2643 752 
Q 2906 1113 2906 1747 
Q 2906 2381 2643 2742 
Q 2381 3103 1925 3103 
Q 1469 3103 1208 2742 
Q 947 2381 947 1747 
z
" transform="scale(0.015625)"/>
      </defs>
      <use xlink:href="#DejaVuSans-67"/>
      <use xlink:href="#DejaVuSans-6f" transform="translate(63.476562 0)"/>
      <use xlink:href="#DejaVuSans-68" transform="translate(124.658203 0)"/>
      <use xlink:href="#DejaVuSans-73" transform="translate(188.037109 0)"/>
      <use xlink:href="#DejaVuSans-65" transform="translate(240.136719 0)"/>
      <use xlink:href="#DejaVuSans-6e" transform="translate(301.660156 0)"/>
      <use xlink:href="#DejaVuSans-5f" transform="translate(365.039062 0)"/>
      <use xlink:href="#DejaVuSans-64" transform="translate(415.039062 0)"/>
      <use xlink:href="#DejaVuSans-65" transform="translate(478.515625 0)"/>
      <use xlink:href="#DejaVuSans-6c" transform="translate(540.039062 0)"/>
      <use xlink:href="#DejaVuSans-74" transform="translate(567.822266 0)"/>
      <use xlink:href="#DejaVuSans-61" transform="translate(607.03125 0)"/>
     </g>
    </g>
   </g>
  </g>
 </g>
 <defs>
  <clipPath id="p416b1aadb5">
   <rect x="43.78125" y="22.318125" width="500.02" height="363.05875"/>
  </clipPath>
 </defs>
</svg>
