<?xml version="1.0" encoding="utf-8" standalone="no"?>
<!DOCTYPE svg PUBLIC "-//W3C//DTD SVG 1.1//EN"
  "http://www.w3.org/Graphics/SVG/1.1/DTD/svg11.dtd">
<svg xmlns:xlink="http://www.w3.org/1999/xlink" width="709.5085pt" height="423.21125pt" viewBox="0 0 709.5085 423.21125" xmlns="http://www.w3.org/2000/svg" version="1.1">
 <metadata>
  <rdf:RDF xmlns:dc="http://purl.org/dc/elements/1.1/" xmlns:cc="http://creativecommons.org/ns#" xmlns:rdf="http://www.w3.org/1999/02/22-rdf-syntax-ns#">
   <cc:Work>
    <dc:type rdf:resource="http://purl.org/dc/dcmitype/StillImage"/>
    <dc:date>2025-08-17T13:38:13.914788</dc:date>
    <dc:format>image/svg+xml</dc:format>
    <dc:creator>
     <cc:Agent>
      <dc:title>Matplotlib v3.10.3, https://matplotlib.org/</dc:title>
     </cc:Agent>
    </dc:creator>
   </cc:Work>
  </rdf:RDF>
 </metadata>
 <defs>
  <style type="text/css">*{stroke-linejoin: round; stroke-linecap: butt}</style>
 </defs>
 <g id="figure_1">
  <g id="patch_1">
   <path d="M 0 423.21125 
L 709.5085 423.21125 
L 709.5085 0 
L 0 0 
z
" style="fill: #ffffff"/>
  </g>
  <g id="axes_1">
   <g id="patch_2">
    <path d="M 43.78125 385.376875 
L 543.80125 385.376875 
L 543.80125 22.318125 
L 43.78125 22.318125 
z
" style="fill: #ffffff"/>
   </g>
   <g id="FillBetweenPolyCollection_1"/>
   <g id="FillBetweenPolyCollection_2">
    <defs>
     <path id="mba42fd0dcd" d="M 66.509432 -55.434395 
L 66.509432 -55.434395 
L 180.150341 -55.434395 
L 293.79125 -55.434395 
L 407.432159 -55.434395 
L 521.073068 -55.434392 
L 521.073068 -55.434399 
L 521.073068 -55.434399 
L 407.432159 -55.434395 
L 293.79125 -55.434395 
L 180.150341 -55.434395 
L 66.509432 -55.434395 
z
" style="stroke: #de8f05; stroke-opacity: 0.3"/>
    </defs>
    <g clip-path="url(#p90e3afe035)">
     <use xlink:href="#mba42fd0dcd" x="0" y="423.21125" style="fill: #de8f05; fill-opacity: 0.3; stroke: #de8f05; stroke-opacity: 0.3"/>
    </g>
   </g>
   <g id="FillBetweenPolyCollection_3">
    <defs>
     <path id="m01c860eb3c" d="M 66.509432 -60.204761 
L 66.509432 -55.44798 
L 180.150341 -55.469581 
L 293.79125 -55.509976 
L 407.432159 -55.341865 
L 521.073068 -55.071167 
L 521.073068 -60.603857 
L 521.073068 -60.603857 
L 407.432159 -59.769207 
L 293.79125 -58.553941 
L 180.150341 -58.659133 
L 66.509432 -60.204761 
z
" style="stroke: #029e73; stroke-opacity: 0.3"/>
    </defs>
    <g clip-path="url(#p90e3afe035)">
     <use xlink:href="#m01c860eb3c" x="0" y="423.21125" style="fill: #029e73; fill-opacity: 0.3; stroke: #029e73; stroke-opacity: 0.3"/>
    </g>
   </g>
   <g id="FillBetweenPolyCollection_4">
    <defs>
     <path id="mdec49387c6" d="M 66.509432 -72.257928 
L 66.509432 -55.76129 
L 180.150341 -55.285144 
L 293.79125 -55.619366 
L 407.432159 -54.942916 
L 521.073068 -54.370228 
L 521.073068 -70.896679 
L 521.073068 -70.896679 
L 407.432159 -71.003665 
L 293.79125 -65.734776 
L 180.150341 -66.175931 
L 66.509432 -72.257928 
z
" style="stroke: #d55e00; stroke-opacity: 0.3"/>
    </defs>
    <g clip-path="url(#p90e3afe035)">
     <use xlink:href="#mdec49387c6" x="0" y="423.21125" style="fill: #d55e00; fill-opacity: 0.3; stroke: #d55e00; stroke-opacity: 0.3"/>
    </g>
   </g>
   <g id="FillBetweenPolyCollection_5">
    <defs>
     <path id="m21ea9ecfd2" d="M 66.509432 -64.672225 
L 66.509432 -54.624217 
L 180.150341 -54.360515 
L 293.79125 -54.571168 
L 407.432159 -54.337045 
L 521.073068 -54.695199 
L 521.073068 -61.351665 
L 521.073068 -61.351665 
L 407.432159 -62.806912 
L 293.79125 -59.78991 
L 180.150341 -61.093797 
L 66.509432 -64.672225 
z
" style="stroke: #cc78bc; stroke-opacity: 0.3"/>
    </defs>
    <g clip-path="url(#p90e3afe035)">
     <use xlink:href="#m21ea9ecfd2" x="0" y="423.21125" style="fill: #cc78bc; fill-opacity: 0.3; stroke: #cc78bc; stroke-opacity: 0.3"/>
    </g>
   </g>
   <g id="FillBetweenPolyCollection_6">
    <defs>
     <path id="m1b7203c999" d="M 66.509432 -69.761545 
L 66.509432 -55.744077 
L 180.150341 -55.3718 
L 293.79125 -55.558178 
L 407.432159 -55.118579 
L 521.073068 -54.886945 
L 521.073068 -68.420968 
L 521.073068 -68.420968 
L 407.432159 -68.733231 
L 293.79125 -64.873879 
L 180.150341 -65.303125 
L 66.509432 -69.761545 
z
" style="stroke: #ca9161; stroke-opacity: 0.3"/>
    </defs>
    <g clip-path="url(#p90e3afe035)">
     <use xlink:href="#m1b7203c999" x="0" y="423.21125" style="fill: #ca9161; fill-opacity: 0.3; stroke: #ca9161; stroke-opacity: 0.3"/>
    </g>
   </g>
   <g id="FillBetweenPolyCollection_7">
    <defs>
     <path id="ma9e7a42a4b" d="M 66.509432 -69.761545 
L 66.509432 -55.744077 
L 180.150341 -55.3718 
L 293.79125 -55.558178 
L 407.432159 -55.118579 
L 521.073068 -54.886945 
L 521.073068 -68.420968 
L 521.073068 -68.420968 
L 407.432159 -68.733231 
L 293.79125 -64.873879 
L 180.150341 -65.303125 
L 66.509432 -69.761545 
z
" style="stroke: #fbafe4; stroke-opacity: 0.3"/>
    </defs>
    <g clip-path="url(#p90e3afe035)">
     <use xlink:href="#ma9e7a42a4b" x="0" y="423.21125" style="fill: #fbafe4; fill-opacity: 0.3; stroke: #fbafe4; stroke-opacity: 0.3"/>
    </g>
   </g>
   <g id="FillBetweenPolyCollection_8">
    <defs>
     <path id="m8c67425c08" d="M 66.509432 -384.390455 
L 66.509432 -345.042573 
L 180.150341 -337.328566 
L 293.79125 -332.541212 
L 407.432159 -338.632487 
L 521.073068 -327.412112 
L 521.073068 -366.750731 
L 521.073068 -366.750731 
L 407.432159 -374.86432 
L 293.79125 -372.12256 
L 180.150341 -378.37129 
L 66.509432 -384.390455 
z
" style="stroke: #949494; stroke-opacity: 0.3"/>
    </defs>
    <g clip-path="url(#p90e3afe035)">
     <use xlink:href="#m8c67425c08" x="0" y="423.21125" style="fill: #949494; fill-opacity: 0.3; stroke: #949494; stroke-opacity: 0.3"/>
    </g>
   </g>
   <g id="FillBetweenPolyCollection_9">
    <defs>
     <path id="m58b861ebbd" d="M 66.509432 -316.217811 
L 66.509432 -282.133104 
L 180.150341 -265.920662 
L 293.79125 -280.456252 
L 407.432159 -288.097116 
L 521.073068 -279.557297 
L 521.073068 -310.028225 
L 521.073068 -310.028225 
L 407.432159 -314.552416 
L 293.79125 -311.552894 
L 180.150341 -303.710837 
L 66.509432 -316.217811 
z
" style="stroke: #ece133; stroke-opacity: 0.3"/>
    </defs>
    <g clip-path="url(#p90e3afe035)">
     <use xlink:href="#m58b861ebbd" x="0" y="423.21125" style="fill: #ece133; fill-opacity: 0.3; stroke: #ece133; stroke-opacity: 0.3"/>
    </g>
   </g>
   <g id="FillBetweenPolyCollection_10">
    <defs>
     <path id="m091c24b64c" d="M 66.509432 -343.996902 
L 66.509432 -311.659801 
L 180.150341 -297.440921 
L 293.79125 -306.604013 
L 407.432159 -314.429218 
L 521.073068 -302.510987 
L 521.073068 -333.857044 
L 521.073068 -333.857044 
L 407.432159 -337.238095 
L 293.79125 -335.118803 
L 180.150341 -334.81579 
L 66.509432 -343.996902 
z
" style="stroke: #56b4e9; stroke-opacity: 0.3"/>
    </defs>
    <g clip-path="url(#p90e3afe035)">
     <use xlink:href="#m091c24b64c" x="0" y="423.21125" style="fill: #56b4e9; fill-opacity: 0.3; stroke: #56b4e9; stroke-opacity: 0.3"/>
    </g>
   </g>
   <g id="FillBetweenPolyCollection_11">
    <defs>
     <path id="m462dc08d76" d="M 66.509432 -93.979624 
L 66.509432 -71.981468 
L 180.150341 -67.068826 
L 293.79125 -66.47144 
L 407.432159 -72.712957 
L 521.073068 -67.811956 
L 521.073068 -88.734729 
L 521.073068 -88.734729 
L 407.432159 -87.877107 
L 293.79125 -89.366458 
L 180.150341 -85.695484 
L 66.509432 -93.979624 
z
" style="stroke: #0173b2; stroke-opacity: 0.3"/>
    </defs>
    <g clip-path="url(#p90e3afe035)">
     <use xlink:href="#m462dc08d76" x="0" y="423.21125" style="fill: #0173b2; fill-opacity: 0.3; stroke: #0173b2; stroke-opacity: 0.3"/>
    </g>
   </g>
   <g id="FillBetweenPolyCollection_12">
    <defs>
     <path id="m8a73c4aa74" d="M 66.509432 -352.081631 
L 66.509432 -287.433594 
L 180.150341 -269.641252 
L 293.79125 -272.000907 
L 407.432159 -282.15479 
L 521.073068 -268.798216 
L 521.073068 -319.857597 
L 521.073068 -319.857597 
L 407.432159 -337.005458 
L 293.79125 -332.003047 
L 180.150341 -338.638469 
L 66.509432 -352.081631 
z
" style="stroke: #de8f05; stroke-opacity: 0.3"/>
    </defs>
    <g clip-path="url(#p90e3afe035)">
     <use xlink:href="#m8a73c4aa74" x="0" y="423.21125" style="fill: #de8f05; fill-opacity: 0.3; stroke: #de8f05; stroke-opacity: 0.3"/>
    </g>
   </g>
   <g id="FillBetweenPolyCollection_13">
    <defs>
     <path id="m24419c2d9b" d="M 66.509432 -295.515852 
L 66.509432 -262.267541 
L 180.150341 -249.4742 
L 293.79125 -255.189589 
L 407.432159 -262.874052 
L 521.073068 -252.212004 
L 521.073068 -280.851775 
L 521.073068 -280.851775 
L 407.432159 -286.638741 
L 293.79125 -284.457928 
L 180.150341 -286.252219 
L 66.509432 -295.515852 
z
" style="stroke: #029e73; stroke-opacity: 0.3"/>
    </defs>
    <g clip-path="url(#p90e3afe035)">
     <use xlink:href="#m24419c2d9b" x="0" y="423.21125" style="fill: #029e73; fill-opacity: 0.3; stroke: #029e73; stroke-opacity: 0.3"/>
    </g>
   </g>
   <g id="FillBetweenPolyCollection_14">
    <defs>
     <path id="m08a1245707" d="M 66.509432 -65.81765 
L 66.509432 -55.646893 
L 180.150341 -55.367743 
L 293.79125 -55.543824 
L 407.432159 -55.172863 
L 521.073068 -54.910603 
L 521.073068 -64.903934 
L 521.073068 -64.903934 
L 407.432159 -65.049531 
L 293.79125 -62.007839 
L 180.150341 -62.300521 
L 66.509432 -65.81765 
z
" style="stroke: #d55e00; stroke-opacity: 0.3"/>
    </defs>
    <g clip-path="url(#p90e3afe035)">
     <use xlink:href="#m08a1245707" x="0" y="423.21125" style="fill: #d55e00; fill-opacity: 0.3; stroke: #d55e00; stroke-opacity: 0.3"/>
    </g>
   </g>
   <g id="FillBetweenPolyCollection_15">
    <defs>
     <path id="mcb8099a622" d="M 66.509432 -286.936788 
L 66.509432 -260.250851 
L 180.150341 -247.926023 
L 293.79125 -253.333989 
L 407.432159 -259.28532 
L 521.073068 -250.908046 
L 521.073068 -273.209986 
L 521.073068 -273.209986 
L 407.432159 -280.873869 
L 293.79125 -279.630655 
L 180.150341 -281.000923 
L 66.509432 -286.936788 
z
" style="stroke: #cc78bc; stroke-opacity: 0.3"/>
    </defs>
    <g clip-path="url(#p90e3afe035)">
     <use xlink:href="#mcb8099a622" x="0" y="423.21125" style="fill: #cc78bc; fill-opacity: 0.3; stroke: #cc78bc; stroke-opacity: 0.3"/>
    </g>
   </g>
   <g id="matplotlib.axis_1">
    <g id="xtick_1">
     <g id="line2d_1">
      <path d="M 66.509432 385.376875 
L 66.509432 22.318125 
" clip-path="url(#p90e3afe035)" style="fill: none; stroke: #b0b0b0; stroke-width: 0.8; stroke-linecap: square"/>
     </g>
     <g id="line2d_2">
      <defs>
       <path id="m0146c9271b" d="M 0 0 
L 0 3.5 
" style="stroke: #000000; stroke-width: 0.8"/>
      </defs>
      <g>
       <use xlink:href="#m0146c9271b" x="66.509432" y="385.376875" style="stroke: #000000; stroke-width: 0.8"/>
      </g>
     </g>
     <g id="text_1">
      <!-- 1 -->
      <g transform="translate(63.328182 399.975312) scale(0.1 -0.1)">
       <defs>
        <path id="DejaVuSans-31" d="M 794 531 
L 1825 531 
L 1825 4091 
L 703 3866 
L 703 4441 
L 1819 4666 
L 2450 4666 
L 2450 531 
L 3481 531 
L 3481 0 
L 794 0 
L 794 531 
z
" transform="scale(0.015625)"/>
       </defs>
       <use xlink:href="#DejaVuSans-31"/>
      </g>
     </g>
    </g>
    <g id="xtick_2">
     <g id="line2d_3">
      <path d="M 180.150341 385.376875 
L 180.150341 22.318125 
" clip-path="url(#p90e3afe035)" style="fill: none; stroke: #b0b0b0; stroke-width: 0.8; stroke-linecap: square"/>
     </g>
     <g id="line2d_4">
      <g>
       <use xlink:href="#m0146c9271b" x="180.150341" y="385.376875" style="stroke: #000000; stroke-width: 0.8"/>
      </g>
     </g>
     <g id="text_2">
      <!-- 2 -->
      <g transform="translate(176.969091 399.975312) scale(0.1 -0.1)">
       <defs>
        <path id="DejaVuSans-32" d="M 1228 531 
L 3431 531 
L 3431 0 
L 469 0 
L 469 531 
Q 828 903 1448 1529 
Q 2069 2156 2228 2338 
Q 2531 2678 2651 2914 
Q 2772 3150 2772 3378 
Q 2772 3750 2511 3984 
Q 2250 4219 1831 4219 
Q 1534 4219 1204 4116 
Q 875 4013 500 3803 
L 500 4441 
Q 881 4594 1212 4672 
Q 1544 4750 1819 4750 
Q 2544 4750 2975 4387 
Q 3406 4025 3406 3419 
Q 3406 3131 3298 2873 
Q 3191 2616 2906 2266 
Q 2828 2175 2409 1742 
Q 1991 1309 1228 531 
z
" transform="scale(0.015625)"/>
       </defs>
       <use xlink:href="#DejaVuSans-32"/>
      </g>
     </g>
    </g>
    <g id="xtick_3">
     <g id="line2d_5">
      <path d="M 293.79125 385.376875 
L 293.79125 22.318125 
" clip-path="url(#p90e3afe035)" style="fill: none; stroke: #b0b0b0; stroke-width: 0.8; stroke-linecap: square"/>
     </g>
     <g id="line2d_6">
      <g>
       <use xlink:href="#m0146c9271b" x="293.79125" y="385.376875" style="stroke: #000000; stroke-width: 0.8"/>
      </g>
     </g>
     <g id="text_3">
      <!-- 3 -->
      <g transform="translate(290.61 399.975312) scale(0.1 -0.1)">
       <defs>
        <path id="DejaVuSans-33" d="M 2597 2516 
Q 3050 2419 3304 2112 
Q 3559 1806 3559 1356 
Q 3559 666 3084 287 
Q 2609 -91 1734 -91 
Q 1441 -91 1130 -33 
Q 819 25 488 141 
L 488 750 
Q 750 597 1062 519 
Q 1375 441 1716 441 
Q 2309 441 2620 675 
Q 2931 909 2931 1356 
Q 2931 1769 2642 2001 
Q 2353 2234 1838 2234 
L 1294 2234 
L 1294 2753 
L 1863 2753 
Q 2328 2753 2575 2939 
Q 2822 3125 2822 3475 
Q 2822 3834 2567 4026 
Q 2313 4219 1838 4219 
Q 1578 4219 1281 4162 
Q 984 4106 628 3988 
L 628 4550 
Q 988 4650 1302 4700 
Q 1616 4750 1894 4750 
Q 2613 4750 3031 4423 
Q 3450 4097 3450 3541 
Q 3450 3153 3228 2886 
Q 3006 2619 2597 2516 
z
" transform="scale(0.015625)"/>
       </defs>
       <use xlink:href="#DejaVuSans-33"/>
      </g>
     </g>
    </g>
    <g id="xtick_4">
     <g id="line2d_7">
      <path d="M 407.432159 385.376875 
L 407.432159 22.318125 
" clip-path="url(#p90e3afe035)" style="fill: none; stroke: #b0b0b0; stroke-width: 0.8; stroke-linecap: square"/>
     </g>
     <g id="line2d_8">
      <g>
       <use xlink:href="#m0146c9271b" x="407.432159" y="385.376875" style="stroke: #000000; stroke-width: 0.8"/>
      </g>
     </g>
     <g id="text_4">
      <!-- 4 -->
      <g transform="translate(404.250909 399.975312) scale(0.1 -0.1)">
       <defs>
        <path id="DejaVuSans-34" d="M 2419 4116 
L 825 1625 
L 2419 1625 
L 2419 4116 
z
M 2253 4666 
L 3047 4666 
L 3047 1625 
L 3713 1625 
L 3713 1100 
L 3047 1100 
L 3047 0 
L 2419 0 
L 2419 1100 
L 313 1100 
L 313 1709 
L 2253 4666 
z
" transform="scale(0.015625)"/>
       </defs>
       <use xlink:href="#DejaVuSans-34"/>
      </g>
     </g>
    </g>
    <g id="xtick_5">
     <g id="line2d_9">
      <path d="M 521.073068 385.376875 
L 521.073068 22.318125 
" clip-path="url(#p90e3afe035)" style="fill: none; stroke: #b0b0b0; stroke-width: 0.8; stroke-linecap: square"/>
     </g>
     <g id="line2d_10">
      <g>
       <use xlink:href="#m0146c9271b" x="521.073068" y="385.376875" style="stroke: #000000; stroke-width: 0.8"/>
      </g>
     </g>
     <g id="text_5">
      <!-- 5 -->
      <g transform="translate(517.891818 399.975312) scale(0.1 -0.1)">
       <defs>
        <path id="DejaVuSans-35" d="M 691 4666 
L 3169 4666 
L 3169 4134 
L 1269 4134 
L 1269 2991 
Q 1406 3038 1543 3061 
Q 1681 3084 1819 3084 
Q 2600 3084 3056 2656 
Q 3513 2228 3513 1497 
Q 3513 744 3044 326 
Q 2575 -91 1722 -91 
Q 1428 -91 1123 -41 
Q 819 9 494 109 
L 494 744 
Q 775 591 1075 516 
Q 1375 441 1709 441 
Q 2250 441 2565 725 
Q 2881 1009 2881 1497 
Q 2881 1984 2565 2268 
Q 2250 2553 1709 2553 
Q 1456 2553 1204 2497 
Q 953 2441 691 2322 
L 691 4666 
z
" transform="scale(0.015625)"/>
       </defs>
       <use xlink:href="#DejaVuSans-35"/>
      </g>
     </g>
    </g>
    <g id="text_6">
     <!-- num_chunks -->
     <g transform="translate(262.327969 413.653437) scale(0.1 -0.1)">
      <defs>
       <path id="DejaVuSans-6e" d="M 3513 2113 
L 3513 0 
L 2938 0 
L 2938 2094 
Q 2938 2591 2744 2837 
Q 2550 3084 2163 3084 
Q 1697 3084 1428 2787 
Q 1159 2491 1159 1978 
L 1159 0 
L 581 0 
L 581 3500 
L 1159 3500 
L 1159 2956 
Q 1366 3272 1645 3428 
Q 1925 3584 2291 3584 
Q 2894 3584 3203 3211 
Q 3513 2838 3513 2113 
z
" transform="scale(0.015625)"/>
       <path id="DejaVuSans-75" d="M 544 1381 
L 544 3500 
L 1119 3500 
L 1119 1403 
Q 1119 906 1312 657 
Q 1506 409 1894 409 
Q 2359 409 2629 706 
Q 2900 1003 2900 1516 
L 2900 3500 
L 3475 3500 
L 3475 0 
L 2900 0 
L 2900 538 
Q 2691 219 2414 64 
Q 2138 -91 1772 -91 
Q 1169 -91 856 284 
Q 544 659 544 1381 
z
M 1991 3584 
L 1991 3584 
z
" transform="scale(0.015625)"/>
       <path id="DejaVuSans-6d" d="M 3328 2828 
Q 3544 3216 3844 3400 
Q 4144 3584 4550 3584 
Q 5097 3584 5394 3201 
Q 5691 2819 5691 2113 
L 5691 0 
L 5113 0 
L 5113 2094 
Q 5113 2597 4934 2840 
Q 4756 3084 4391 3084 
Q 3944 3084 3684 2787 
Q 3425 2491 3425 1978 
L 3425 0 
L 2847 0 
L 2847 2094 
Q 2847 2600 2669 2842 
Q 2491 3084 2119 3084 
Q 1678 3084 1418 2786 
Q 1159 2488 1159 1978 
L 1159 0 
L 581 0 
L 581 3500 
L 1159 3500 
L 1159 2956 
Q 1356 3278 1631 3431 
Q 1906 3584 2284 3584 
Q 2666 3584 2933 3390 
Q 3200 3197 3328 2828 
z
" transform="scale(0.015625)"/>
       <path id="DejaVuSans-5f" d="M 3263 -1063 
L 3263 -1509 
L -63 -1509 
L -63 -1063 
L 3263 -1063 
z
" transform="scale(0.015625)"/>
       <path id="DejaVuSans-63" d="M 3122 3366 
L 3122 2828 
Q 2878 2963 2633 3030 
Q 2388 3097 2138 3097 
Q 1578 3097 1268 2742 
Q 959 2388 959 1747 
Q 959 1106 1268 751 
Q 1578 397 2138 397 
Q 2388 397 2633 464 
Q 2878 531 3122 666 
L 3122 134 
Q 2881 22 2623 -34 
Q 2366 -91 2075 -91 
Q 1284 -91 818 406 
Q 353 903 353 1747 
Q 353 2603 823 3093 
Q 1294 3584 2113 3584 
Q 2378 3584 2631 3529 
Q 2884 3475 3122 3366 
z
" transform="scale(0.015625)"/>
       <path id="DejaVuSans-68" d="M 3513 2113 
L 3513 0 
L 2938 0 
L 2938 2094 
Q 2938 2591 2744 2837 
Q 2550 3084 2163 3084 
Q 1697 3084 1428 2787 
Q 1159 2491 1159 1978 
L 1159 0 
L 581 0 
L 581 4863 
L 1159 4863 
L 1159 2956 
Q 1366 3272 1645 3428 
Q 1925 3584 2291 3584 
Q 2894 3584 3203 3211 
Q 3513 2838 3513 2113 
z
" transform="scale(0.015625)"/>
       <path id="DejaVuSans-6b" d="M 581 4863 
L 1159 4863 
L 1159 1991 
L 2875 3500 
L 3609 3500 
L 1753 1863 
L 3688 0 
L 2938 0 
L 1159 1709 
L 1159 0 
L 581 0 
L 581 4863 
z
" transform="scale(0.015625)"/>
       <path id="DejaVuSans-73" d="M 2834 3397 
L 2834 2853 
Q 2591 2978 2328 3040 
Q 2066 3103 1784 3103 
Q 1356 3103 1142 2972 
Q 928 2841 928 2578 
Q 928 2378 1081 2264 
Q 1234 2150 1697 2047 
L 1894 2003 
Q 2506 1872 2764 1633 
Q 3022 1394 3022 966 
Q 3022 478 2636 193 
Q 2250 -91 1575 -91 
Q 1294 -91 989 -36 
Q 684 19 347 128 
L 347 722 
Q 666 556 975 473 
Q 1284 391 1588 391 
Q 1994 391 2212 530 
Q 2431 669 2431 922 
Q 2431 1156 2273 1281 
Q 2116 1406 1581 1522 
L 1381 1569 
Q 847 1681 609 1914 
Q 372 2147 372 2553 
Q 372 3047 722 3315 
Q 1072 3584 1716 3584 
Q 2034 3584 2315 3537 
Q 2597 3491 2834 3397 
z
" transform="scale(0.015625)"/>
      </defs>
      <use xlink:href="#DejaVuSans-6e"/>
      <use xlink:href="#DejaVuSans-75" transform="translate(63.378906 0)"/>
      <use xlink:href="#DejaVuSans-6d" transform="translate(126.757812 0)"/>
      <use xlink:href="#DejaVuSans-5f" transform="translate(224.169922 0)"/>
      <use xlink:href="#DejaVuSans-63" transform="translate(274.169922 0)"/>
      <use xlink:href="#DejaVuSans-68" transform="translate(329.150391 0)"/>
      <use xlink:href="#DejaVuSans-75" transform="translate(392.529297 0)"/>
      <use xlink:href="#DejaVuSans-6e" transform="translate(455.908203 0)"/>
      <use xlink:href="#DejaVuSans-6b" transform="translate(519.287109 0)"/>
      <use xlink:href="#DejaVuSans-73" transform="translate(577.197266 0)"/>
     </g>
    </g>
   </g>
   <g id="matplotlib.axis_2">
    <g id="ytick_1">
     <g id="line2d_11">
      <path d="M 43.78125 367.776855 
L 543.80125 367.776855 
" clip-path="url(#p90e3afe035)" style="fill: none; stroke: #b0b0b0; stroke-width: 0.8; stroke-linecap: square"/>
     </g>
     <g id="line2d_12">
      <defs>
       <path id="m73b47b227e" d="M 0 0 
L -3.5 0 
" style="stroke: #000000; stroke-width: 0.8"/>
      </defs>
      <g>
       <use xlink:href="#m73b47b227e" x="43.78125" y="367.776855" style="stroke: #000000; stroke-width: 0.8"/>
      </g>
     </g>
     <g id="text_7">
      <!-- 0.0 -->
      <g transform="translate(20.878125 371.576074) scale(0.1 -0.1)">
       <defs>
        <path id="DejaVuSans-30" d="M 2034 4250 
Q 1547 4250 1301 3770 
Q 1056 3291 1056 2328 
Q 1056 1369 1301 889 
Q 1547 409 2034 409 
Q 2525 409 2770 889 
Q 3016 1369 3016 2328 
Q 3016 3291 2770 3770 
Q 2525 4250 2034 4250 
z
M 2034 4750 
Q 2819 4750 3233 4129 
Q 3647 3509 3647 2328 
Q 3647 1150 3233 529 
Q 2819 -91 2034 -91 
Q 1250 -91 836 529 
Q 422 1150 422 2328 
Q 422 3509 836 4129 
Q 1250 4750 2034 4750 
z
" transform="scale(0.015625)"/>
        <path id="DejaVuSans-2e" d="M 684 794 
L 1344 794 
L 1344 0 
L 684 0 
L 684 794 
z
" transform="scale(0.015625)"/>
       </defs>
       <use xlink:href="#DejaVuSans-30"/>
       <use xlink:href="#DejaVuSans-2e" transform="translate(63.623047 0)"/>
       <use xlink:href="#DejaVuSans-30" transform="translate(95.410156 0)"/>
      </g>
     </g>
    </g>
    <g id="ytick_2">
     <g id="line2d_13">
      <path d="M 43.78125 291.037617 
L 543.80125 291.037617 
" clip-path="url(#p90e3afe035)" style="fill: none; stroke: #b0b0b0; stroke-width: 0.8; stroke-linecap: square"/>
     </g>
     <g id="line2d_14">
      <g>
       <use xlink:href="#m73b47b227e" x="43.78125" y="291.037617" style="stroke: #000000; stroke-width: 0.8"/>
      </g>
     </g>
     <g id="text_8">
      <!-- 0.2 -->
      <g transform="translate(20.878125 294.836835) scale(0.1 -0.1)">
       <use xlink:href="#DejaVuSans-30"/>
       <use xlink:href="#DejaVuSans-2e" transform="translate(63.623047 0)"/>
       <use xlink:href="#DejaVuSans-32" transform="translate(95.410156 0)"/>
      </g>
     </g>
    </g>
    <g id="ytick_3">
     <g id="line2d_15">
      <path d="M 43.78125 214.298378 
L 543.80125 214.298378 
" clip-path="url(#p90e3afe035)" style="fill: none; stroke: #b0b0b0; stroke-width: 0.8; stroke-linecap: square"/>
     </g>
     <g id="line2d_16">
      <g>
       <use xlink:href="#m73b47b227e" x="43.78125" y="214.298378" style="stroke: #000000; stroke-width: 0.8"/>
      </g>
     </g>
     <g id="text_9">
      <!-- 0.4 -->
      <g transform="translate(20.878125 218.097597) scale(0.1 -0.1)">
       <use xlink:href="#DejaVuSans-30"/>
       <use xlink:href="#DejaVuSans-2e" transform="translate(63.623047 0)"/>
       <use xlink:href="#DejaVuSans-34" transform="translate(95.410156 0)"/>
      </g>
     </g>
    </g>
    <g id="ytick_4">
     <g id="line2d_17">
      <path d="M 43.78125 137.55914 
L 543.80125 137.55914 
" clip-path="url(#p90e3afe035)" style="fill: none; stroke: #b0b0b0; stroke-width: 0.8; stroke-linecap: square"/>
     </g>
     <g id="line2d_18">
      <g>
       <use xlink:href="#m73b47b227e" x="43.78125" y="137.55914" style="stroke: #000000; stroke-width: 0.8"/>
      </g>
     </g>
     <g id="text_10">
      <!-- 0.6 -->
      <g transform="translate(20.878125 141.358359) scale(0.1 -0.1)">
       <defs>
        <path id="DejaVuSans-36" d="M 2113 2584 
Q 1688 2584 1439 2293 
Q 1191 2003 1191 1497 
Q 1191 994 1439 701 
Q 1688 409 2113 409 
Q 2538 409 2786 701 
Q 3034 994 3034 1497 
Q 3034 2003 2786 2293 
Q 2538 2584 2113 2584 
z
M 3366 4563 
L 3366 3988 
Q 3128 4100 2886 4159 
Q 2644 4219 2406 4219 
Q 1781 4219 1451 3797 
Q 1122 3375 1075 2522 
Q 1259 2794 1537 2939 
Q 1816 3084 2150 3084 
Q 2853 3084 3261 2657 
Q 3669 2231 3669 1497 
Q 3669 778 3244 343 
Q 2819 -91 2113 -91 
Q 1303 -91 875 529 
Q 447 1150 447 2328 
Q 447 3434 972 4092 
Q 1497 4750 2381 4750 
Q 2619 4750 2861 4703 
Q 3103 4656 3366 4563 
z
" transform="scale(0.015625)"/>
       </defs>
       <use xlink:href="#DejaVuSans-30"/>
       <use xlink:href="#DejaVuSans-2e" transform="translate(63.623047 0)"/>
       <use xlink:href="#DejaVuSans-36" transform="translate(95.410156 0)"/>
      </g>
     </g>
    </g>
    <g id="ytick_5">
     <g id="line2d_19">
      <path d="M 43.78125 60.819901 
L 543.80125 60.819901 
" clip-path="url(#p90e3afe035)" style="fill: none; stroke: #b0b0b0; stroke-width: 0.8; stroke-linecap: square"/>
     </g>
     <g id="line2d_20">
      <g>
       <use xlink:href="#m73b47b227e" x="43.78125" y="60.819901" style="stroke: #000000; stroke-width: 0.8"/>
      </g>
     </g>
     <g id="text_11">
      <!-- 0.8 -->
      <g transform="translate(20.878125 64.61912) scale(0.1 -0.1)">
       <defs>
        <path id="DejaVuSans-38" d="M 2034 2216 
Q 1584 2216 1326 1975 
Q 1069 1734 1069 1313 
Q 1069 891 1326 650 
Q 1584 409 2034 409 
Q 2484 409 2743 651 
Q 3003 894 3003 1313 
Q 3003 1734 2745 1975 
Q 2488 2216 2034 2216 
z
M 1403 2484 
Q 997 2584 770 2862 
Q 544 3141 544 3541 
Q 544 4100 942 4425 
Q 1341 4750 2034 4750 
Q 2731 4750 3128 4425 
Q 3525 4100 3525 3541 
Q 3525 3141 3298 2862 
Q 3072 2584 2669 2484 
Q 3125 2378 3379 2068 
Q 3634 1759 3634 1313 
Q 3634 634 3220 271 
Q 2806 -91 2034 -91 
Q 1263 -91 848 271 
Q 434 634 434 1313 
Q 434 1759 690 2068 
Q 947 2378 1403 2484 
z
M 1172 3481 
Q 1172 3119 1398 2916 
Q 1625 2713 2034 2713 
Q 2441 2713 2670 2916 
Q 2900 3119 2900 3481 
Q 2900 3844 2670 4047 
Q 2441 4250 2034 4250 
Q 1625 4250 1398 4047 
Q 1172 3844 1172 3481 
z
" transform="scale(0.015625)"/>
       </defs>
       <use xlink:href="#DejaVuSans-30"/>
       <use xlink:href="#DejaVuSans-2e" transform="translate(63.623047 0)"/>
       <use xlink:href="#DejaVuSans-38" transform="translate(95.410156 0)"/>
      </g>
     </g>
    </g>
    <g id="text_12">
     <!-- Score -->
     <g transform="translate(14.798438 217.849844) rotate(-90) scale(0.1 -0.1)">
      <defs>
       <path id="DejaVuSans-53" d="M 3425 4513 
L 3425 3897 
Q 3066 4069 2747 4153 
Q 2428 4238 2131 4238 
Q 1616 4238 1336 4038 
Q 1056 3838 1056 3469 
Q 1056 3159 1242 3001 
Q 1428 2844 1947 2747 
L 2328 2669 
Q 3034 2534 3370 2195 
Q 3706 1856 3706 1288 
Q 3706 609 3251 259 
Q 2797 -91 1919 -91 
Q 1588 -91 1214 -16 
Q 841 59 441 206 
L 441 856 
Q 825 641 1194 531 
Q 1563 422 1919 422 
Q 2459 422 2753 634 
Q 3047 847 3047 1241 
Q 3047 1584 2836 1778 
Q 2625 1972 2144 2069 
L 1759 2144 
Q 1053 2284 737 2584 
Q 422 2884 422 3419 
Q 422 4038 858 4394 
Q 1294 4750 2059 4750 
Q 2388 4750 2728 4690 
Q 3069 4631 3425 4513 
z
" transform="scale(0.015625)"/>
       <path id="DejaVuSans-6f" d="M 1959 3097 
Q 1497 3097 1228 2736 
Q 959 2375 959 1747 
Q 959 1119 1226 758 
Q 1494 397 1959 397 
Q 2419 397 2687 759 
Q 2956 1122 2956 1747 
Q 2956 2369 2687 2733 
Q 2419 3097 1959 3097 
z
M 1959 3584 
Q 2709 3584 3137 3096 
Q 3566 2609 3566 1747 
Q 3566 888 3137 398 
Q 2709 -91 1959 -91 
Q 1206 -91 779 398 
Q 353 888 353 1747 
Q 353 2609 779 3096 
Q 1206 3584 1959 3584 
z
" transform="scale(0.015625)"/>
       <path id="DejaVuSans-72" d="M 2631 2963 
Q 2534 3019 2420 3045 
Q 2306 3072 2169 3072 
Q 1681 3072 1420 2755 
Q 1159 2438 1159 1844 
L 1159 0 
L 581 0 
L 581 3500 
L 1159 3500 
L 1159 2956 
Q 1341 3275 1631 3429 
Q 1922 3584 2338 3584 
Q 2397 3584 2469 3576 
Q 2541 3569 2628 3553 
L 2631 2963 
z
" transform="scale(0.015625)"/>
       <path id="DejaVuSans-65" d="M 3597 1894 
L 3597 1613 
L 953 1613 
Q 991 1019 1311 708 
Q 1631 397 2203 397 
Q 2534 397 2845 478 
Q 3156 559 3463 722 
L 3463 178 
Q 3153 47 2828 -22 
Q 2503 -91 2169 -91 
Q 1331 -91 842 396 
Q 353 884 353 1716 
Q 353 2575 817 3079 
Q 1281 3584 2069 3584 
Q 2775 3584 3186 3129 
Q 3597 2675 3597 1894 
z
M 3022 2063 
Q 3016 2534 2758 2815 
Q 2500 3097 2075 3097 
Q 1594 3097 1305 2825 
Q 1016 2553 972 2059 
L 3022 2063 
z
" transform="scale(0.015625)"/>
      </defs>
      <use xlink:href="#DejaVuSans-53"/>
      <use xlink:href="#DejaVuSans-63" transform="translate(63.476562 0)"/>
      <use xlink:href="#DejaVuSans-6f" transform="translate(118.457031 0)"/>
      <use xlink:href="#DejaVuSans-72" transform="translate(179.638672 0)"/>
      <use xlink:href="#DejaVuSans-65" transform="translate(218.501953 0)"/>
     </g>
    </g>
   </g>
   <g id="line2d_21">
    <path clip-path="url(#p90e3afe035)" style="fill: none; stroke: #0173b2; stroke-width: 1.5; stroke-linecap: square"/>
    <defs>
     <path id="mccf5098f5b" d="M 0 3 
C 0.795609 3 1.55874 2.683901 2.12132 2.12132 
C 2.683901 1.55874 3 0.795609 3 0 
C 3 -0.795609 2.683901 -1.55874 2.12132 -2.12132 
C 1.55874 -2.683901 0.795609 -3 0 -3 
C -0.795609 -3 -1.55874 -2.683901 -2.12132 -2.12132 
C -2.683901 -1.55874 -3 -0.795609 -3 0 
C -3 0.795609 -2.683901 1.55874 -2.12132 2.12132 
C -1.55874 2.683901 -0.795609 3 0 3 
z
" style="stroke: #0173b2"/>
    </defs>
    <g clip-path="url(#p90e3afe035)"/>
   </g>
   <g id="line2d_22">
    <path d="M 66.509432 367.776855 
L 180.150341 367.776855 
L 293.79125 367.776855 
L 407.432159 367.776855 
L 521.073068 367.776854 
" clip-path="url(#p90e3afe035)" style="fill: none; stroke-dasharray: 5.55,2.4; stroke-dashoffset: 0; stroke: #de8f05; stroke-width: 1.5"/>
    <defs>
     <path id="mce84fb5126" d="M -3 3 
L 3 3 
L 3 -3 
L -3 -3 
z
" style="stroke: #de8f05; stroke-linejoin: miter"/>
    </defs>
    <g clip-path="url(#p90e3afe035)">
     <use xlink:href="#mce84fb5126" x="66.509432" y="367.776855" style="fill: #de8f05; stroke: #de8f05; stroke-linejoin: miter"/>
     <use xlink:href="#mce84fb5126" x="180.150341" y="367.776855" style="fill: #de8f05; stroke: #de8f05; stroke-linejoin: miter"/>
     <use xlink:href="#mce84fb5126" x="293.79125" y="367.776855" style="fill: #de8f05; stroke: #de8f05; stroke-linejoin: miter"/>
     <use xlink:href="#mce84fb5126" x="407.432159" y="367.776855" style="fill: #de8f05; stroke: #de8f05; stroke-linejoin: miter"/>
     <use xlink:href="#mce84fb5126" x="521.073068" y="367.776854" style="fill: #de8f05; stroke: #de8f05; stroke-linejoin: miter"/>
    </g>
   </g>
   <g id="line2d_23">
    <path d="M 66.509432 365.384879 
L 180.150341 366.146893 
L 293.79125 366.179292 
L 407.432159 365.655714 
L 521.073068 365.373738 
" clip-path="url(#p90e3afe035)" style="fill: none; stroke-dasharray: 9.6,2.4,1.5,2.4; stroke-dashoffset: 0; stroke: #029e73; stroke-width: 1.5"/>
    <defs>
     <path id="m52b1231e6d" d="M 0 -3 
L -3 3 
L 3 3 
z
" style="stroke: #029e73; stroke-linejoin: miter"/>
    </defs>
    <g clip-path="url(#p90e3afe035)">
     <use xlink:href="#m52b1231e6d" x="66.509432" y="365.384879" style="fill: #029e73; stroke: #029e73; stroke-linejoin: miter"/>
     <use xlink:href="#m52b1231e6d" x="180.150341" y="366.146893" style="fill: #029e73; stroke: #029e73; stroke-linejoin: miter"/>
     <use xlink:href="#m52b1231e6d" x="293.79125" y="366.179292" style="fill: #029e73; stroke: #029e73; stroke-linejoin: miter"/>
     <use xlink:href="#m52b1231e6d" x="407.432159" y="365.655714" style="fill: #029e73; stroke: #029e73; stroke-linejoin: miter"/>
     <use xlink:href="#m52b1231e6d" x="521.073068" y="365.373738" style="fill: #029e73; stroke: #029e73; stroke-linejoin: miter"/>
    </g>
   </g>
   <g id="line2d_24">
    <path d="M 66.509432 359.201641 
L 180.150341 362.480712 
L 293.79125 362.534179 
L 407.432159 360.237959 
L 521.073068 360.577797 
" clip-path="url(#p90e3afe035)" style="fill: none; stroke-dasharray: 1.5,2.475; stroke-dashoffset: 0; stroke: #d55e00; stroke-width: 1.5"/>
    <defs>
     <path id="meec8528402" d="M -0 4.242641 
L 4.242641 0 
L 0 -4.242641 
L -4.242641 -0 
z
" style="stroke: #d55e00; stroke-linejoin: miter"/>
    </defs>
    <g clip-path="url(#p90e3afe035)">
     <use xlink:href="#meec8528402" x="66.509432" y="359.201641" style="fill: #d55e00; stroke: #d55e00; stroke-linejoin: miter"/>
     <use xlink:href="#meec8528402" x="180.150341" y="362.480712" style="fill: #d55e00; stroke: #d55e00; stroke-linejoin: miter"/>
     <use xlink:href="#meec8528402" x="293.79125" y="362.534179" style="fill: #d55e00; stroke: #d55e00; stroke-linejoin: miter"/>
     <use xlink:href="#meec8528402" x="407.432159" y="360.237959" style="fill: #d55e00; stroke: #d55e00; stroke-linejoin: miter"/>
     <use xlink:href="#meec8528402" x="521.073068" y="360.577797" style="fill: #d55e00; stroke: #d55e00; stroke-linejoin: miter"/>
    </g>
   </g>
   <g id="line2d_25">
    <path d="M 66.509432 363.563029 
L 180.150341 365.484094 
L 293.79125 366.030711 
L 407.432159 364.639271 
L 521.073068 365.187818 
" clip-path="url(#p90e3afe035)" style="fill: none; stroke: #cc78bc; stroke-width: 1.5; stroke-linecap: square"/>
    <defs>
     <path id="m2f92105fa0" d="M -0 3 
L 3 -3 
L -3 -3 
z
" style="stroke: #cc78bc; stroke-linejoin: miter"/>
    </defs>
    <g clip-path="url(#p90e3afe035)">
     <use xlink:href="#m2f92105fa0" x="66.509432" y="363.563029" style="fill: #cc78bc; stroke: #cc78bc; stroke-linejoin: miter"/>
     <use xlink:href="#m2f92105fa0" x="180.150341" y="365.484094" style="fill: #cc78bc; stroke: #cc78bc; stroke-linejoin: miter"/>
     <use xlink:href="#m2f92105fa0" x="293.79125" y="366.030711" style="fill: #cc78bc; stroke: #cc78bc; stroke-linejoin: miter"/>
     <use xlink:href="#m2f92105fa0" x="407.432159" y="364.639271" style="fill: #cc78bc; stroke: #cc78bc; stroke-linejoin: miter"/>
     <use xlink:href="#m2f92105fa0" x="521.073068" y="365.187818" style="fill: #cc78bc; stroke: #cc78bc; stroke-linejoin: miter"/>
    </g>
   </g>
   <g id="line2d_26">
    <path d="M 66.509432 360.458439 
L 180.150341 362.873787 
L 293.79125 362.995222 
L 407.432159 361.285345 
L 521.073068 361.557294 
" clip-path="url(#p90e3afe035)" style="fill: none; stroke-dasharray: 5.55,2.4; stroke-dashoffset: 0; stroke: #ca9161; stroke-width: 1.5"/>
    <defs>
     <path id="mfbdc3f1ca4" d="M -1 3 
L 1 3 
L 1 1 
L 3 1 
L 3 -1 
L 1 -1 
L 1 -3 
L -1 -3 
L -1 -1 
L -3 -1 
L -3 1 
L -1 1 
z
" style="stroke: #ca9161; stroke-linejoin: miter"/>
    </defs>
    <g clip-path="url(#p90e3afe035)">
     <use xlink:href="#mfbdc3f1ca4" x="66.509432" y="360.458439" style="fill: #ca9161; stroke: #ca9161; stroke-linejoin: miter"/>
     <use xlink:href="#mfbdc3f1ca4" x="180.150341" y="362.873787" style="fill: #ca9161; stroke: #ca9161; stroke-linejoin: miter"/>
     <use xlink:href="#mfbdc3f1ca4" x="293.79125" y="362.995222" style="fill: #ca9161; stroke: #ca9161; stroke-linejoin: miter"/>
     <use xlink:href="#mfbdc3f1ca4" x="407.432159" y="361.285345" style="fill: #ca9161; stroke: #ca9161; stroke-linejoin: miter"/>
     <use xlink:href="#mfbdc3f1ca4" x="521.073068" y="361.557294" style="fill: #ca9161; stroke: #ca9161; stroke-linejoin: miter"/>
    </g>
   </g>
   <g id="line2d_27">
    <path d="M 66.509432 360.458439 
L 180.150341 362.873787 
L 293.79125 362.995222 
L 407.432159 361.285345 
L 521.073068 361.557294 
" clip-path="url(#p90e3afe035)" style="fill: none; stroke-dasharray: 9.6,2.4,1.5,2.4; stroke-dashoffset: 0; stroke: #fbafe4; stroke-width: 1.5"/>
    <defs>
     <path id="m1f7dff7eb0" d="M 0 -3 
L -0.673542 -0.927051 
L -2.85317 -0.927051 
L -1.089814 0.354102 
L -1.763356 2.427051 
L -0 1.145898 
L 1.763356 2.427051 
L 1.089814 0.354102 
L 2.85317 -0.927051 
L 0.673542 -0.927051 
z
" style="stroke: #fbafe4; stroke-linejoin: bevel"/>
    </defs>
    <g clip-path="url(#p90e3afe035)">
     <use xlink:href="#m1f7dff7eb0" x="66.509432" y="360.458439" style="fill: #fbafe4; stroke: #fbafe4; stroke-linejoin: bevel"/>
     <use xlink:href="#m1f7dff7eb0" x="180.150341" y="362.873787" style="fill: #fbafe4; stroke: #fbafe4; stroke-linejoin: bevel"/>
     <use xlink:href="#m1f7dff7eb0" x="293.79125" y="362.995222" style="fill: #fbafe4; stroke: #fbafe4; stroke-linejoin: bevel"/>
     <use xlink:href="#m1f7dff7eb0" x="407.432159" y="361.285345" style="fill: #fbafe4; stroke: #fbafe4; stroke-linejoin: bevel"/>
     <use xlink:href="#m1f7dff7eb0" x="521.073068" y="361.557294" style="fill: #fbafe4; stroke: #fbafe4; stroke-linejoin: bevel"/>
    </g>
   </g>
   <g id="line2d_28">
    <path d="M 66.509432 58.494736 
L 180.150341 65.361322 
L 293.79125 70.879364 
L 407.432159 66.462846 
L 521.073068 76.129829 
" clip-path="url(#p90e3afe035)" style="fill: none; stroke-dasharray: 1.5,2.475; stroke-dashoffset: 0; stroke: #949494; stroke-width: 1.5"/>
    <defs>
     <path id="me2b6087491" d="M -1.5 3 
L 0 1.5 
L 1.5 3 
L 3 1.5 
L 1.5 0 
L 3 -1.5 
L 1.5 -3 
L 0 -1.5 
L -1.5 -3 
L -3 -1.5 
L -1.5 0 
L -3 1.5 
z
" style="stroke: #949494; stroke-linejoin: miter"/>
    </defs>
    <g clip-path="url(#p90e3afe035)">
     <use xlink:href="#me2b6087491" x="66.509432" y="58.494736" style="fill: #949494; stroke: #949494; stroke-linejoin: miter"/>
     <use xlink:href="#me2b6087491" x="180.150341" y="65.361322" style="fill: #949494; stroke: #949494; stroke-linejoin: miter"/>
     <use xlink:href="#me2b6087491" x="293.79125" y="70.879364" style="fill: #949494; stroke: #949494; stroke-linejoin: miter"/>
     <use xlink:href="#me2b6087491" x="407.432159" y="66.462846" style="fill: #949494; stroke: #949494; stroke-linejoin: miter"/>
     <use xlink:href="#me2b6087491" x="521.073068" y="76.129829" style="fill: #949494; stroke: #949494; stroke-linejoin: miter"/>
    </g>
   </g>
   <g id="line2d_29">
    <path d="M 66.509432 124.035792 
L 180.150341 138.395501 
L 293.79125 127.206677 
L 407.432159 121.886484 
L 521.073068 128.418489 
" clip-path="url(#p90e3afe035)" style="fill: none; stroke: #ece133; stroke-width: 1.5; stroke-linecap: square"/>
    <defs>
     <path id="mf50554c3f7" d="M -3 -0 
L 3 3 
L 3 -3 
z
" style="stroke: #ece133; stroke-linejoin: miter"/>
    </defs>
    <g clip-path="url(#p90e3afe035)">
     <use xlink:href="#mf50554c3f7" x="66.509432" y="124.035792" style="fill: #ece133; stroke: #ece133; stroke-linejoin: miter"/>
     <use xlink:href="#mf50554c3f7" x="180.150341" y="138.395501" style="fill: #ece133; stroke: #ece133; stroke-linejoin: miter"/>
     <use xlink:href="#mf50554c3f7" x="293.79125" y="127.206677" style="fill: #ece133; stroke: #ece133; stroke-linejoin: miter"/>
     <use xlink:href="#mf50554c3f7" x="407.432159" y="121.886484" style="fill: #ece133; stroke: #ece133; stroke-linejoin: miter"/>
     <use xlink:href="#mf50554c3f7" x="521.073068" y="128.418489" style="fill: #ece133; stroke: #ece133; stroke-linejoin: miter"/>
    </g>
   </g>
   <g id="line2d_30">
    <path d="M 66.509432 95.382898 
L 180.150341 107.082894 
L 293.79125 102.349842 
L 407.432159 97.377594 
L 521.073068 105.027234 
" clip-path="url(#p90e3afe035)" style="fill: none; stroke-dasharray: 5.55,2.4; stroke-dashoffset: 0; stroke: #56b4e9; stroke-width: 1.5"/>
    <defs>
     <path id="mb4e8f6323f" d="M 3 0 
L -3 -3 
L -3 3 
z
" style="stroke: #56b4e9; stroke-linejoin: miter"/>
    </defs>
    <g clip-path="url(#p90e3afe035)">
     <use xlink:href="#mb4e8f6323f" x="66.509432" y="95.382898" style="fill: #56b4e9; stroke: #56b4e9; stroke-linejoin: miter"/>
     <use xlink:href="#mb4e8f6323f" x="180.150341" y="107.082894" style="fill: #56b4e9; stroke: #56b4e9; stroke-linejoin: miter"/>
     <use xlink:href="#mb4e8f6323f" x="293.79125" y="102.349842" style="fill: #56b4e9; stroke: #56b4e9; stroke-linejoin: miter"/>
     <use xlink:href="#mb4e8f6323f" x="407.432159" y="97.377594" style="fill: #56b4e9; stroke: #56b4e9; stroke-linejoin: miter"/>
     <use xlink:href="#mb4e8f6323f" x="521.073068" y="105.027234" style="fill: #56b4e9; stroke: #56b4e9; stroke-linejoin: miter"/>
    </g>
   </g>
   <g id="line2d_31">
    <path d="M 66.509432 340.230704 
L 180.150341 346.829095 
L 293.79125 345.292301 
L 407.432159 342.916218 
L 521.073068 344.937907 
" clip-path="url(#p90e3afe035)" style="fill: none; stroke-dasharray: 9.6,2.4,1.5,2.4; stroke-dashoffset: 0; stroke: #0173b2; stroke-width: 1.5"/>
    <defs>
     <path id="m2299eec68b" d="M -1.5 -2.598076 
L -3 -0 
L -1.5 2.598076 
L 1.5 2.598076 
L 3 0 
L 1.5 -2.598076 
z
" style="stroke: #0173b2; stroke-linejoin: miter"/>
    </defs>
    <g clip-path="url(#p90e3afe035)">
     <use xlink:href="#m2299eec68b" x="66.509432" y="340.230704" style="fill: #0173b2; stroke: #0173b2; stroke-linejoin: miter"/>
     <use xlink:href="#m2299eec68b" x="180.150341" y="346.829095" style="fill: #0173b2; stroke: #0173b2; stroke-linejoin: miter"/>
     <use xlink:href="#m2299eec68b" x="293.79125" y="345.292301" style="fill: #0173b2; stroke: #0173b2; stroke-linejoin: miter"/>
     <use xlink:href="#m2299eec68b" x="407.432159" y="342.916218" style="fill: #0173b2; stroke: #0173b2; stroke-linejoin: miter"/>
     <use xlink:href="#m2299eec68b" x="521.073068" y="344.937907" style="fill: #0173b2; stroke: #0173b2; stroke-linejoin: miter"/>
    </g>
   </g>
   <g id="line2d_32">
    <path d="M 66.509432 103.453638 
L 180.150341 119.07139 
L 293.79125 121.209273 
L 407.432159 113.631126 
L 521.073068 128.883343 
" clip-path="url(#p90e3afe035)" style="fill: none; stroke-dasharray: 1.5,2.475; stroke-dashoffset: 0; stroke: #de8f05; stroke-width: 1.5"/>
    <defs>
     <path id="mf31912f2e4" d="M 0 3 
L 0 -3 
" style="stroke: #de8f05"/>
    </defs>
    <g clip-path="url(#p90e3afe035)">
     <use xlink:href="#mf31912f2e4" x="66.509432" y="103.453638" style="fill: #de8f05; stroke: #de8f05"/>
     <use xlink:href="#mf31912f2e4" x="180.150341" y="119.07139" style="fill: #de8f05; stroke: #de8f05"/>
     <use xlink:href="#mf31912f2e4" x="293.79125" y="121.209273" style="fill: #de8f05; stroke: #de8f05"/>
     <use xlink:href="#mf31912f2e4" x="407.432159" y="113.631126" style="fill: #de8f05; stroke: #de8f05"/>
     <use xlink:href="#mf31912f2e4" x="521.073068" y="128.883343" style="fill: #de8f05; stroke: #de8f05"/>
    </g>
   </g>
   <g id="line2d_33">
    <path d="M 66.509432 144.319554 
L 180.150341 155.34804 
L 293.79125 153.387491 
L 407.432159 148.454854 
L 521.073068 156.67936 
" clip-path="url(#p90e3afe035)" style="fill: none; stroke: #029e73; stroke-width: 1.5; stroke-linecap: square"/>
    <defs>
     <path id="mdc8a2c90d7" d="M 3 0 
L -3 -0 
" style="stroke: #029e73"/>
    </defs>
    <g clip-path="url(#p90e3afe035)">
     <use xlink:href="#mdc8a2c90d7" x="66.509432" y="144.319554" style="fill: #029e73; stroke: #029e73"/>
     <use xlink:href="#mdc8a2c90d7" x="180.150341" y="155.34804" style="fill: #029e73; stroke: #029e73"/>
     <use xlink:href="#mdc8a2c90d7" x="293.79125" y="153.387491" style="fill: #029e73; stroke: #029e73"/>
     <use xlink:href="#mdc8a2c90d7" x="407.432159" y="148.454854" style="fill: #029e73; stroke: #029e73"/>
     <use xlink:href="#mdc8a2c90d7" x="521.073068" y="156.67936" style="fill: #029e73; stroke: #029e73"/>
    </g>
   </g>
   <g id="line2d_34">
    <path d="M 66.509432 362.478978 
L 180.150341 364.377118 
L 293.79125 364.435418 
L 407.432159 363.100053 
L 521.073068 363.303981 
" clip-path="url(#p90e3afe035)" style="fill: none; stroke-dasharray: 5.55,2.4; stroke-dashoffset: 0; stroke: #d55e00; stroke-width: 1.5"/>
    <defs>
     <path id="mc44a3953fa" d="M 0 3 
C 0.795609 3 1.55874 2.683901 2.12132 2.12132 
C 2.683901 1.55874 3 0.795609 3 0 
C 3 -0.795609 2.683901 -1.55874 2.12132 -2.12132 
C 1.55874 -2.683901 0.795609 -3 0 -3 
C -0.795609 -3 -1.55874 -2.683901 -2.12132 -2.12132 
C -2.683901 -1.55874 -3 -0.795609 -3 0 
C -3 0.795609 -2.683901 1.55874 -2.12132 2.12132 
C -1.55874 2.683901 -0.795609 3 0 3 
z
" style="stroke: #d55e00"/>
    </defs>
    <g clip-path="url(#p90e3afe035)">
     <use xlink:href="#mc44a3953fa" x="66.509432" y="362.478978" style="fill: #d55e00; stroke: #d55e00"/>
     <use xlink:href="#mc44a3953fa" x="180.150341" y="364.377118" style="fill: #d55e00; stroke: #d55e00"/>
     <use xlink:href="#mc44a3953fa" x="293.79125" y="364.435418" style="fill: #d55e00; stroke: #d55e00"/>
     <use xlink:href="#mc44a3953fa" x="407.432159" y="363.100053" style="fill: #d55e00; stroke: #d55e00"/>
     <use xlink:href="#mc44a3953fa" x="521.073068" y="363.303981" style="fill: #d55e00; stroke: #d55e00"/>
    </g>
   </g>
   <g id="line2d_35">
    <path d="M 66.509432 149.61743 
L 180.150341 158.747777 
L 293.79125 156.728928 
L 407.432159 153.131656 
L 521.073068 161.152234 
" clip-path="url(#p90e3afe035)" style="fill: none; stroke-dasharray: 9.6,2.4,1.5,2.4; stroke-dashoffset: 0; stroke: #cc78bc; stroke-width: 1.5"/>
    <defs>
     <path id="mf70b3fa5f6" d="M -3 3 
L 3 3 
L 3 -3 
L -3 -3 
z
" style="stroke: #cc78bc; stroke-linejoin: miter"/>
    </defs>
    <g clip-path="url(#p90e3afe035)">
     <use xlink:href="#mf70b3fa5f6" x="66.509432" y="149.61743" style="fill: #cc78bc; stroke: #cc78bc; stroke-linejoin: miter"/>
     <use xlink:href="#mf70b3fa5f6" x="180.150341" y="158.747777" style="fill: #cc78bc; stroke: #cc78bc; stroke-linejoin: miter"/>
     <use xlink:href="#mf70b3fa5f6" x="293.79125" y="156.728928" style="fill: #cc78bc; stroke: #cc78bc; stroke-linejoin: miter"/>
     <use xlink:href="#mf70b3fa5f6" x="407.432159" y="153.131656" style="fill: #cc78bc; stroke: #cc78bc; stroke-linejoin: miter"/>
     <use xlink:href="#mf70b3fa5f6" x="521.073068" y="161.152234" style="fill: #cc78bc; stroke: #cc78bc; stroke-linejoin: miter"/>
    </g>
   </g>
   <g id="patch_3">
    <path d="M 43.78125 385.376875 
L 43.78125 22.318125 
" style="fill: none; stroke: #000000; stroke-width: 0.8; stroke-linejoin: miter; stroke-linecap: square"/>
   </g>
   <g id="patch_4">
    <path d="M 543.80125 385.376875 
L 543.80125 22.318125 
" style="fill: none; stroke: #000000; stroke-width: 0.8; stroke-linejoin: miter; stroke-linecap: square"/>
   </g>
   <g id="patch_5">
    <path d="M 43.78125 385.376875 
L 543.80125 385.376875 
" style="fill: none; stroke: #000000; stroke-width: 0.8; stroke-linejoin: miter; stroke-linecap: square"/>
   </g>
   <g id="patch_6">
    <path d="M 43.78125 22.318125 
L 543.80125 22.318125 
" style="fill: none; stroke: #000000; stroke-width: 0.8; stroke-linejoin: miter; stroke-linecap: square"/>
   </g>
   <g id="text_13">
    <!-- Metrics for paraphraser: mistral-large-instruct -->
    <g transform="translate(156.254375 16.318125) scale(0.12 -0.12)">
     <defs>
      <path id="DejaVuSans-4d" d="M 628 4666 
L 1569 4666 
L 2759 1491 
L 3956 4666 
L 4897 4666 
L 4897 0 
L 4281 0 
L 4281 4097 
L 3078 897 
L 2444 897 
L 1241 4097 
L 1241 0 
L 628 0 
L 628 4666 
z
" transform="scale(0.015625)"/>
      <path id="DejaVuSans-74" d="M 1172 4494 
L 1172 3500 
L 2356 3500 
L 2356 3053 
L 1172 3053 
L 1172 1153 
Q 1172 725 1289 603 
Q 1406 481 1766 481 
L 2356 481 
L 2356 0 
L 1766 0 
Q 1100 0 847 248 
Q 594 497 594 1153 
L 594 3053 
L 172 3053 
L 172 3500 
L 594 3500 
L 594 4494 
L 1172 4494 
z
" transform="scale(0.015625)"/>
      <path id="DejaVuSans-69" d="M 603 3500 
L 1178 3500 
L 1178 0 
L 603 0 
L 603 3500 
z
M 603 4863 
L 1178 4863 
L 1178 4134 
L 603 4134 
L 603 4863 
z
" transform="scale(0.015625)"/>
      <path id="DejaVuSans-20" transform="scale(0.015625)"/>
      <path id="DejaVuSans-66" d="M 2375 4863 
L 2375 4384 
L 1825 4384 
Q 1516 4384 1395 4259 
Q 1275 4134 1275 3809 
L 1275 3500 
L 2222 3500 
L 2222 3053 
L 1275 3053 
L 1275 0 
L 697 0 
L 697 3053 
L 147 3053 
L 147 3500 
L 697 3500 
L 697 3744 
Q 697 4328 969 4595 
Q 1241 4863 1831 4863 
L 2375 4863 
z
" transform="scale(0.015625)"/>
      <path id="DejaVuSans-70" d="M 1159 525 
L 1159 -1331 
L 581 -1331 
L 581 3500 
L 1159 3500 
L 1159 2969 
Q 1341 3281 1617 3432 
Q 1894 3584 2278 3584 
Q 2916 3584 3314 3078 
Q 3713 2572 3713 1747 
Q 3713 922 3314 415 
Q 2916 -91 2278 -91 
Q 1894 -91 1617 61 
Q 1341 213 1159 525 
z
M 3116 1747 
Q 3116 2381 2855 2742 
Q 2594 3103 2138 3103 
Q 1681 3103 1420 2742 
Q 1159 2381 1159 1747 
Q 1159 1113 1420 752 
Q 1681 391 2138 391 
Q 2594 391 2855 752 
Q 3116 1113 3116 1747 
z
" transform="scale(0.015625)"/>
      <path id="DejaVuSans-61" d="M 2194 1759 
Q 1497 1759 1228 1600 
Q 959 1441 959 1056 
Q 959 750 1161 570 
Q 1363 391 1709 391 
Q 2188 391 2477 730 
Q 2766 1069 2766 1631 
L 2766 1759 
L 2194 1759 
z
M 3341 1997 
L 3341 0 
L 2766 0 
L 2766 531 
Q 2569 213 2275 61 
Q 1981 -91 1556 -91 
Q 1019 -91 701 211 
Q 384 513 384 1019 
Q 384 1609 779 1909 
Q 1175 2209 1959 2209 
L 2766 2209 
L 2766 2266 
Q 2766 2663 2505 2880 
Q 2244 3097 1772 3097 
Q 1472 3097 1187 3025 
Q 903 2953 641 2809 
L 641 3341 
Q 956 3463 1253 3523 
Q 1550 3584 1831 3584 
Q 2591 3584 2966 3190 
Q 3341 2797 3341 1997 
z
" transform="scale(0.015625)"/>
      <path id="DejaVuSans-3a" d="M 750 794 
L 1409 794 
L 1409 0 
L 750 0 
L 750 794 
z
M 750 3309 
L 1409 3309 
L 1409 2516 
L 750 2516 
L 750 3309 
z
" transform="scale(0.015625)"/>
      <path id="DejaVuSans-6c" d="M 603 4863 
L 1178 4863 
L 1178 0 
L 603 0 
L 603 4863 
z
" transform="scale(0.015625)"/>
      <path id="DejaVuSans-2d" d="M 313 2009 
L 1997 2009 
L 1997 1497 
L 313 1497 
L 313 2009 
z
" transform="scale(0.015625)"/>
      <path id="DejaVuSans-67" d="M 2906 1791 
Q 2906 2416 2648 2759 
Q 2391 3103 1925 3103 
Q 1463 3103 1205 2759 
Q 947 2416 947 1791 
Q 947 1169 1205 825 
Q 1463 481 1925 481 
Q 2391 481 2648 825 
Q 2906 1169 2906 1791 
z
M 3481 434 
Q 3481 -459 3084 -895 
Q 2688 -1331 1869 -1331 
Q 1566 -1331 1297 -1286 
Q 1028 -1241 775 -1147 
L 775 -588 
Q 1028 -725 1275 -790 
Q 1522 -856 1778 -856 
Q 2344 -856 2625 -561 
Q 2906 -266 2906 331 
L 2906 616 
Q 2728 306 2450 153 
Q 2172 0 1784 0 
Q 1141 0 747 490 
Q 353 981 353 1791 
Q 353 2603 747 3093 
Q 1141 3584 1784 3584 
Q 2172 3584 2450 3431 
Q 2728 3278 2906 2969 
L 2906 3500 
L 3481 3500 
L 3481 434 
z
" transform="scale(0.015625)"/>
     </defs>
     <use xlink:href="#DejaVuSans-4d"/>
     <use xlink:href="#DejaVuSans-65" transform="translate(86.279297 0)"/>
     <use xlink:href="#DejaVuSans-74" transform="translate(147.802734 0)"/>
     <use xlink:href="#DejaVuSans-72" transform="translate(187.011719 0)"/>
     <use xlink:href="#DejaVuSans-69" transform="translate(228.125 0)"/>
     <use xlink:href="#DejaVuSans-63" transform="translate(255.908203 0)"/>
     <use xlink:href="#DejaVuSans-73" transform="translate(310.888672 0)"/>
     <use xlink:href="#DejaVuSans-20" transform="translate(362.988281 0)"/>
     <use xlink:href="#DejaVuSans-66" transform="translate(394.775391 0)"/>
     <use xlink:href="#DejaVuSans-6f" transform="translate(429.980469 0)"/>
     <use xlink:href="#DejaVuSans-72" transform="translate(491.162109 0)"/>
     <use xlink:href="#DejaVuSans-20" transform="translate(532.275391 0)"/>
     <use xlink:href="#DejaVuSans-70" transform="translate(564.0625 0)"/>
     <use xlink:href="#DejaVuSans-61" transform="translate(627.539062 0)"/>
     <use xlink:href="#DejaVuSans-72" transform="translate(688.818359 0)"/>
     <use xlink:href="#DejaVuSans-61" transform="translate(729.931641 0)"/>
     <use xlink:href="#DejaVuSans-70" transform="translate(791.210938 0)"/>
     <use xlink:href="#DejaVuSans-68" transform="translate(854.6875 0)"/>
     <use xlink:href="#DejaVuSans-72" transform="translate(918.066406 0)"/>
     <use xlink:href="#DejaVuSans-61" transform="translate(959.179688 0)"/>
     <use xlink:href="#DejaVuSans-73" transform="translate(1020.458984 0)"/>
     <use xlink:href="#DejaVuSans-65" transform="translate(1072.558594 0)"/>
     <use xlink:href="#DejaVuSans-72" transform="translate(1134.082031 0)"/>
     <use xlink:href="#DejaVuSans-3a" transform="translate(1173.445312 0)"/>
     <use xlink:href="#DejaVuSans-20" transform="translate(1207.136719 0)"/>
     <use xlink:href="#DejaVuSans-6d" transform="translate(1238.923828 0)"/>
     <use xlink:href="#DejaVuSans-69" transform="translate(1336.335938 0)"/>
     <use xlink:href="#DejaVuSans-73" transform="translate(1364.119141 0)"/>
     <use xlink:href="#DejaVuSans-74" transform="translate(1416.21875 0)"/>
     <use xlink:href="#DejaVuSans-72" transform="translate(1455.427734 0)"/>
     <use xlink:href="#DejaVuSans-61" transform="translate(1496.541016 0)"/>
     <use xlink:href="#DejaVuSans-6c" transform="translate(1557.820312 0)"/>
     <use xlink:href="#DejaVuSans-2d" transform="translate(1585.603516 0)"/>
     <use xlink:href="#DejaVuSans-6c" transform="translate(1621.6875 0)"/>
     <use xlink:href="#DejaVuSans-61" transform="translate(1649.470703 0)"/>
     <use xlink:href="#DejaVuSans-72" transform="translate(1710.75 0)"/>
     <use xlink:href="#DejaVuSans-67" transform="translate(1750.113281 0)"/>
     <use xlink:href="#DejaVuSans-65" transform="translate(1813.589844 0)"/>
     <use xlink:href="#DejaVuSans-2d" transform="translate(1875.113281 0)"/>
     <use xlink:href="#DejaVuSans-69" transform="translate(1911.197266 0)"/>
     <use xlink:href="#DejaVuSans-6e" transform="translate(1938.980469 0)"/>
     <use xlink:href="#DejaVuSans-73" transform="translate(2002.359375 0)"/>
     <use xlink:href="#DejaVuSans-74" transform="translate(2054.458984 0)"/>
     <use xlink:href="#DejaVuSans-72" transform="translate(2093.667969 0)"/>
     <use xlink:href="#DejaVuSans-75" transform="translate(2134.78125 0)"/>
     <use xlink:href="#DejaVuSans-63" transform="translate(2198.160156 0)"/>
     <use xlink:href="#DejaVuSans-74" transform="translate(2253.140625 0)"/>
    </g>
   </g>
   <g id="legend_1">
    <g id="patch_7">
     <path d="M 570.80225 262.949375 
L 700.3085 262.949375 
Q 702.3085 262.949375 702.3085 260.949375 
L 702.3085 24.318125 
Q 702.3085 22.318125 700.3085 22.318125 
L 570.80225 22.318125 
Q 568.80225 22.318125 568.80225 24.318125 
L 568.80225 260.949375 
Q 568.80225 262.949375 570.80225 262.949375 
z
" style="fill: #ffffff; opacity: 0.8; stroke: #cccccc; stroke-linejoin: miter"/>
    </g>
    <g id="text_14">
     <!-- Metric -->
     <g transform="translate(620.010844 33.916562) scale(0.1 -0.1)">
      <use xlink:href="#DejaVuSans-4d"/>
      <use xlink:href="#DejaVuSans-65" transform="translate(86.279297 0)"/>
      <use xlink:href="#DejaVuSans-74" transform="translate(147.802734 0)"/>
      <use xlink:href="#DejaVuSans-72" transform="translate(187.011719 0)"/>
      <use xlink:href="#DejaVuSans-69" transform="translate(228.125 0)"/>
      <use xlink:href="#DejaVuSans-63" transform="translate(255.908203 0)"/>
     </g>
    </g>
    <g id="line2d_36">
     <path d="M 572.80225 45.094687 
L 582.80225 45.094687 
L 592.80225 45.094687 
" style="fill: none; stroke: #0173b2; stroke-width: 1.5; stroke-linecap: square"/>
     <g>
      <use xlink:href="#mccf5098f5b" x="582.80225" y="45.094687" style="fill: #0173b2; stroke: #0173b2"/>
     </g>
    </g>
    <g id="text_15">
     <!-- temperature -->
     <g transform="translate(600.80225 48.594687) scale(0.1 -0.1)">
      <use xlink:href="#DejaVuSans-74"/>
      <use xlink:href="#DejaVuSans-65" transform="translate(39.208984 0)"/>
      <use xlink:href="#DejaVuSans-6d" transform="translate(100.732422 0)"/>
      <use xlink:href="#DejaVuSans-70" transform="translate(198.144531 0)"/>
      <use xlink:href="#DejaVuSans-65" transform="translate(261.621094 0)"/>
      <use xlink:href="#DejaVuSans-72" transform="translate(323.144531 0)"/>
      <use xlink:href="#DejaVuSans-61" transform="translate(364.257812 0)"/>
      <use xlink:href="#DejaVuSans-74" transform="translate(425.537109 0)"/>
      <use xlink:href="#DejaVuSans-75" transform="translate(464.746094 0)"/>
      <use xlink:href="#DejaVuSans-72" transform="translate(528.125 0)"/>
      <use xlink:href="#DejaVuSans-65" transform="translate(566.988281 0)"/>
     </g>
    </g>
    <g id="line2d_37">
     <path d="M 572.80225 59.772812 
L 582.80225 59.772812 
L 592.80225 59.772812 
" style="fill: none; stroke-dasharray: 5.55,2.4; stroke-dashoffset: 0; stroke: #de8f05; stroke-width: 1.5"/>
     <g>
      <use xlink:href="#mce84fb5126" x="582.80225" y="59.772812" style="fill: #de8f05; stroke: #de8f05; stroke-linejoin: miter"/>
     </g>
    </g>
    <g id="text_16">
     <!-- bleu_score -->
     <g transform="translate(600.80225 63.272812) scale(0.1 -0.1)">
      <defs>
       <path id="DejaVuSans-62" d="M 3116 1747 
Q 3116 2381 2855 2742 
Q 2594 3103 2138 3103 
Q 1681 3103 1420 2742 
Q 1159 2381 1159 1747 
Q 1159 1113 1420 752 
Q 1681 391 2138 391 
Q 2594 391 2855 752 
Q 3116 1113 3116 1747 
z
M 1159 2969 
Q 1341 3281 1617 3432 
Q 1894 3584 2278 3584 
Q 2916 3584 3314 3078 
Q 3713 2572 3713 1747 
Q 3713 922 3314 415 
Q 2916 -91 2278 -91 
Q 1894 -91 1617 61 
Q 1341 213 1159 525 
L 1159 0 
L 581 0 
L 581 4863 
L 1159 4863 
L 1159 2969 
z
" transform="scale(0.015625)"/>
      </defs>
      <use xlink:href="#DejaVuSans-62"/>
      <use xlink:href="#DejaVuSans-6c" transform="translate(63.476562 0)"/>
      <use xlink:href="#DejaVuSans-65" transform="translate(91.259766 0)"/>
      <use xlink:href="#DejaVuSans-75" transform="translate(152.783203 0)"/>
      <use xlink:href="#DejaVuSans-5f" transform="translate(216.162109 0)"/>
      <use xlink:href="#DejaVuSans-73" transform="translate(266.162109 0)"/>
      <use xlink:href="#DejaVuSans-63" transform="translate(318.261719 0)"/>
      <use xlink:href="#DejaVuSans-6f" transform="translate(373.242188 0)"/>
      <use xlink:href="#DejaVuSans-72" transform="translate(434.423828 0)"/>
      <use xlink:href="#DejaVuSans-65" transform="translate(473.287109 0)"/>
     </g>
    </g>
    <g id="line2d_38">
     <path d="M 572.80225 74.729062 
L 582.80225 74.729062 
L 592.80225 74.729062 
" style="fill: none; stroke-dasharray: 9.6,2.4,1.5,2.4; stroke-dashoffset: 0; stroke: #029e73; stroke-width: 1.5"/>
     <g>
      <use xlink:href="#m52b1231e6d" x="582.80225" y="74.729062" style="fill: #029e73; stroke: #029e73; stroke-linejoin: miter"/>
     </g>
    </g>
    <g id="text_17">
     <!-- meteor_score -->
     <g transform="translate(600.80225 78.229062) scale(0.1 -0.1)">
      <use xlink:href="#DejaVuSans-6d"/>
      <use xlink:href="#DejaVuSans-65" transform="translate(97.412109 0)"/>
      <use xlink:href="#DejaVuSans-74" transform="translate(158.935547 0)"/>
      <use xlink:href="#DejaVuSans-65" transform="translate(198.144531 0)"/>
      <use xlink:href="#DejaVuSans-6f" transform="translate(259.667969 0)"/>
      <use xlink:href="#DejaVuSans-72" transform="translate(320.849609 0)"/>
      <use xlink:href="#DejaVuSans-5f" transform="translate(361.962891 0)"/>
      <use xlink:href="#DejaVuSans-73" transform="translate(411.962891 0)"/>
      <use xlink:href="#DejaVuSans-63" transform="translate(464.0625 0)"/>
      <use xlink:href="#DejaVuSans-6f" transform="translate(519.042969 0)"/>
      <use xlink:href="#DejaVuSans-72" transform="translate(580.224609 0)"/>
      <use xlink:href="#DejaVuSans-65" transform="translate(619.087891 0)"/>
     </g>
    </g>
    <g id="line2d_39">
     <path d="M 572.80225 89.685313 
L 582.80225 89.685313 
L 592.80225 89.685313 
" style="fill: none; stroke-dasharray: 1.5,2.475; stroke-dashoffset: 0; stroke: #d55e00; stroke-width: 1.5"/>
     <g>
      <use xlink:href="#meec8528402" x="582.80225" y="89.685313" style="fill: #d55e00; stroke: #d55e00; stroke-linejoin: miter"/>
     </g>
    </g>
    <g id="text_18">
     <!-- rouge1 -->
     <g transform="translate(600.80225 93.185313) scale(0.1 -0.1)">
      <use xlink:href="#DejaVuSans-72"/>
      <use xlink:href="#DejaVuSans-6f" transform="translate(38.863281 0)"/>
      <use xlink:href="#DejaVuSans-75" transform="translate(100.044922 0)"/>
      <use xlink:href="#DejaVuSans-67" transform="translate(163.423828 0)"/>
      <use xlink:href="#DejaVuSans-65" transform="translate(226.900391 0)"/>
      <use xlink:href="#DejaVuSans-31" transform="translate(288.423828 0)"/>
     </g>
    </g>
    <g id="line2d_40">
     <path d="M 572.80225 104.363437 
L 582.80225 104.363437 
L 592.80225 104.363437 
" style="fill: none; stroke: #cc78bc; stroke-width: 1.5; stroke-linecap: square"/>
     <g>
      <use xlink:href="#m2f92105fa0" x="582.80225" y="104.363437" style="fill: #cc78bc; stroke: #cc78bc; stroke-linejoin: miter"/>
     </g>
    </g>
    <g id="text_19">
     <!-- rouge2 -->
     <g transform="translate(600.80225 107.863437) scale(0.1 -0.1)">
      <use xlink:href="#DejaVuSans-72"/>
      <use xlink:href="#DejaVuSans-6f" transform="translate(38.863281 0)"/>
      <use xlink:href="#DejaVuSans-75" transform="translate(100.044922 0)"/>
      <use xlink:href="#DejaVuSans-67" transform="translate(163.423828 0)"/>
      <use xlink:href="#DejaVuSans-65" transform="translate(226.900391 0)"/>
      <use xlink:href="#DejaVuSans-32" transform="translate(288.423828 0)"/>
     </g>
    </g>
    <g id="line2d_41">
     <path d="M 572.80225 119.041562 
L 582.80225 119.041562 
L 592.80225 119.041562 
" style="fill: none; stroke-dasharray: 5.55,2.4; stroke-dashoffset: 0; stroke: #ca9161; stroke-width: 1.5"/>
     <g>
      <use xlink:href="#mfbdc3f1ca4" x="582.80225" y="119.041562" style="fill: #ca9161; stroke: #ca9161; stroke-linejoin: miter"/>
     </g>
    </g>
    <g id="text_20">
     <!-- rougeL -->
     <g transform="translate(600.80225 122.541562) scale(0.1 -0.1)">
      <defs>
       <path id="DejaVuSans-4c" d="M 628 4666 
L 1259 4666 
L 1259 531 
L 3531 531 
L 3531 0 
L 628 0 
L 628 4666 
z
" transform="scale(0.015625)"/>
      </defs>
      <use xlink:href="#DejaVuSans-72"/>
      <use xlink:href="#DejaVuSans-6f" transform="translate(38.863281 0)"/>
      <use xlink:href="#DejaVuSans-75" transform="translate(100.044922 0)"/>
      <use xlink:href="#DejaVuSans-67" transform="translate(163.423828 0)"/>
      <use xlink:href="#DejaVuSans-65" transform="translate(226.900391 0)"/>
      <use xlink:href="#DejaVuSans-4c" transform="translate(288.423828 0)"/>
     </g>
    </g>
    <g id="line2d_42">
     <path d="M 572.80225 133.719687 
L 582.80225 133.719687 
L 592.80225 133.719687 
" style="fill: none; stroke-dasharray: 9.6,2.4,1.5,2.4; stroke-dashoffset: 0; stroke: #fbafe4; stroke-width: 1.5"/>
     <g>
      <use xlink:href="#m1f7dff7eb0" x="582.80225" y="133.719687" style="fill: #fbafe4; stroke: #fbafe4; stroke-linejoin: bevel"/>
     </g>
    </g>
    <g id="text_21">
     <!-- rougeLsum -->
     <g transform="translate(600.80225 137.219687) scale(0.1 -0.1)">
      <use xlink:href="#DejaVuSans-72"/>
      <use xlink:href="#DejaVuSans-6f" transform="translate(38.863281 0)"/>
      <use xlink:href="#DejaVuSans-75" transform="translate(100.044922 0)"/>
      <use xlink:href="#DejaVuSans-67" transform="translate(163.423828 0)"/>
      <use xlink:href="#DejaVuSans-65" transform="translate(226.900391 0)"/>
      <use xlink:href="#DejaVuSans-4c" transform="translate(288.423828 0)"/>
      <use xlink:href="#DejaVuSans-73" transform="translate(344.136719 0)"/>
      <use xlink:href="#DejaVuSans-75" transform="translate(396.236328 0)"/>
      <use xlink:href="#DejaVuSans-6d" transform="translate(459.615234 0)"/>
     </g>
    </g>
    <g id="line2d_43">
     <path d="M 572.80225 148.397812 
L 582.80225 148.397812 
L 592.80225 148.397812 
" style="fill: none; stroke-dasharray: 1.5,2.475; stroke-dashoffset: 0; stroke: #949494; stroke-width: 1.5"/>
     <g>
      <use xlink:href="#me2b6087491" x="582.80225" y="148.397812" style="fill: #949494; stroke: #949494; stroke-linejoin: miter"/>
     </g>
    </g>
    <g id="text_22">
     <!-- bertscore_precision -->
     <g transform="translate(600.80225 151.897812) scale(0.1 -0.1)">
      <use xlink:href="#DejaVuSans-62"/>
      <use xlink:href="#DejaVuSans-65" transform="translate(63.476562 0)"/>
      <use xlink:href="#DejaVuSans-72" transform="translate(125 0)"/>
      <use xlink:href="#DejaVuSans-74" transform="translate(166.113281 0)"/>
      <use xlink:href="#DejaVuSans-73" transform="translate(205.322266 0)"/>
      <use xlink:href="#DejaVuSans-63" transform="translate(257.421875 0)"/>
      <use xlink:href="#DejaVuSans-6f" transform="translate(312.402344 0)"/>
      <use xlink:href="#DejaVuSans-72" transform="translate(373.583984 0)"/>
      <use xlink:href="#DejaVuSans-65" transform="translate(412.447266 0)"/>
      <use xlink:href="#DejaVuSans-5f" transform="translate(473.970703 0)"/>
      <use xlink:href="#DejaVuSans-70" transform="translate(523.970703 0)"/>
      <use xlink:href="#DejaVuSans-72" transform="translate(587.447266 0)"/>
      <use xlink:href="#DejaVuSans-65" transform="translate(626.310547 0)"/>
      <use xlink:href="#DejaVuSans-63" transform="translate(687.833984 0)"/>
      <use xlink:href="#DejaVuSans-69" transform="translate(742.814453 0)"/>
      <use xlink:href="#DejaVuSans-73" transform="translate(770.597656 0)"/>
      <use xlink:href="#DejaVuSans-69" transform="translate(822.697266 0)"/>
      <use xlink:href="#DejaVuSans-6f" transform="translate(850.480469 0)"/>
      <use xlink:href="#DejaVuSans-6e" transform="translate(911.662109 0)"/>
     </g>
    </g>
    <g id="line2d_44">
     <path d="M 572.80225 163.354062 
L 582.80225 163.354062 
L 592.80225 163.354062 
" style="fill: none; stroke: #ece133; stroke-width: 1.5; stroke-linecap: square"/>
     <g>
      <use xlink:href="#mf50554c3f7" x="582.80225" y="163.354062" style="fill: #ece133; stroke: #ece133; stroke-linejoin: miter"/>
     </g>
    </g>
    <g id="text_23">
     <!-- bertscore_recall -->
     <g transform="translate(600.80225 166.854062) scale(0.1 -0.1)">
      <use xlink:href="#DejaVuSans-62"/>
      <use xlink:href="#DejaVuSans-65" transform="translate(63.476562 0)"/>
      <use xlink:href="#DejaVuSans-72" transform="translate(125 0)"/>
      <use xlink:href="#DejaVuSans-74" transform="translate(166.113281 0)"/>
      <use xlink:href="#DejaVuSans-73" transform="translate(205.322266 0)"/>
      <use xlink:href="#DejaVuSans-63" transform="translate(257.421875 0)"/>
      <use xlink:href="#DejaVuSans-6f" transform="translate(312.402344 0)"/>
      <use xlink:href="#DejaVuSans-72" transform="translate(373.583984 0)"/>
      <use xlink:href="#DejaVuSans-65" transform="translate(412.447266 0)"/>
      <use xlink:href="#DejaVuSans-5f" transform="translate(473.970703 0)"/>
      <use xlink:href="#DejaVuSans-72" transform="translate(523.970703 0)"/>
      <use xlink:href="#DejaVuSans-65" transform="translate(562.833984 0)"/>
      <use xlink:href="#DejaVuSans-63" transform="translate(624.357422 0)"/>
      <use xlink:href="#DejaVuSans-61" transform="translate(679.337891 0)"/>
      <use xlink:href="#DejaVuSans-6c" transform="translate(740.617188 0)"/>
      <use xlink:href="#DejaVuSans-6c" transform="translate(768.400391 0)"/>
     </g>
    </g>
    <g id="line2d_45">
     <path d="M 572.80225 178.310312 
L 582.80225 178.310312 
L 592.80225 178.310312 
" style="fill: none; stroke-dasharray: 5.55,2.4; stroke-dashoffset: 0; stroke: #56b4e9; stroke-width: 1.5"/>
     <g>
      <use xlink:href="#mb4e8f6323f" x="582.80225" y="178.310312" style="fill: #56b4e9; stroke: #56b4e9; stroke-linejoin: miter"/>
     </g>
    </g>
    <g id="text_24">
     <!-- bertscore_f1 -->
     <g transform="translate(600.80225 181.810312) scale(0.1 -0.1)">
      <use xlink:href="#DejaVuSans-62"/>
      <use xlink:href="#DejaVuSans-65" transform="translate(63.476562 0)"/>
      <use xlink:href="#DejaVuSans-72" transform="translate(125 0)"/>
      <use xlink:href="#DejaVuSans-74" transform="translate(166.113281 0)"/>
      <use xlink:href="#DejaVuSans-73" transform="translate(205.322266 0)"/>
      <use xlink:href="#DejaVuSans-63" transform="translate(257.421875 0)"/>
      <use xlink:href="#DejaVuSans-6f" transform="translate(312.402344 0)"/>
      <use xlink:href="#DejaVuSans-72" transform="translate(373.583984 0)"/>
      <use xlink:href="#DejaVuSans-65" transform="translate(412.447266 0)"/>
      <use xlink:href="#DejaVuSans-5f" transform="translate(473.970703 0)"/>
      <use xlink:href="#DejaVuSans-66" transform="translate(523.970703 0)"/>
      <use xlink:href="#DejaVuSans-31" transform="translate(559.175781 0)"/>
     </g>
    </g>
    <g id="line2d_46">
     <path d="M 572.80225 193.266562 
L 582.80225 193.266562 
L 592.80225 193.266562 
" style="fill: none; stroke-dasharray: 9.6,2.4,1.5,2.4; stroke-dashoffset: 0; stroke: #0173b2; stroke-width: 1.5"/>
     <g>
      <use xlink:href="#m2299eec68b" x="582.80225" y="193.266562" style="fill: #0173b2; stroke: #0173b2; stroke-linejoin: miter"/>
     </g>
    </g>
    <g id="text_25">
     <!-- sbert_wms -->
     <g transform="translate(600.80225 196.766562) scale(0.1 -0.1)">
      <defs>
       <path id="DejaVuSans-77" d="M 269 3500 
L 844 3500 
L 1563 769 
L 2278 3500 
L 2956 3500 
L 3675 769 
L 4391 3500 
L 4966 3500 
L 4050 0 
L 3372 0 
L 2619 2869 
L 1863 0 
L 1184 0 
L 269 3500 
z
" transform="scale(0.015625)"/>
      </defs>
      <use xlink:href="#DejaVuSans-73"/>
      <use xlink:href="#DejaVuSans-62" transform="translate(52.099609 0)"/>
      <use xlink:href="#DejaVuSans-65" transform="translate(115.576172 0)"/>
      <use xlink:href="#DejaVuSans-72" transform="translate(177.099609 0)"/>
      <use xlink:href="#DejaVuSans-74" transform="translate(218.212891 0)"/>
      <use xlink:href="#DejaVuSans-5f" transform="translate(257.421875 0)"/>
      <use xlink:href="#DejaVuSans-77" transform="translate(307.421875 0)"/>
      <use xlink:href="#DejaVuSans-6d" transform="translate(389.208984 0)"/>
      <use xlink:href="#DejaVuSans-73" transform="translate(486.621094 0)"/>
     </g>
    </g>
    <g id="line2d_47">
     <path d="M 572.80225 208.222812 
L 582.80225 208.222812 
L 592.80225 208.222812 
" style="fill: none; stroke-dasharray: 1.5,2.475; stroke-dashoffset: 0; stroke: #de8f05; stroke-width: 1.5"/>
     <g>
      <use xlink:href="#mf31912f2e4" x="582.80225" y="208.222812" style="fill: #de8f05; stroke: #de8f05"/>
     </g>
    </g>
    <g id="text_26">
     <!-- sbert_cos -->
     <g transform="translate(600.80225 211.722812) scale(0.1 -0.1)">
      <use xlink:href="#DejaVuSans-73"/>
      <use xlink:href="#DejaVuSans-62" transform="translate(52.099609 0)"/>
      <use xlink:href="#DejaVuSans-65" transform="translate(115.576172 0)"/>
      <use xlink:href="#DejaVuSans-72" transform="translate(177.099609 0)"/>
      <use xlink:href="#DejaVuSans-74" transform="translate(218.212891 0)"/>
      <use xlink:href="#DejaVuSans-5f" transform="translate(257.421875 0)"/>
      <use xlink:href="#DejaVuSans-63" transform="translate(307.421875 0)"/>
      <use xlink:href="#DejaVuSans-6f" transform="translate(362.402344 0)"/>
      <use xlink:href="#DejaVuSans-73" transform="translate(423.583984 0)"/>
     </g>
    </g>
    <g id="line2d_48">
     <path d="M 572.80225 223.179062 
L 582.80225 223.179062 
L 592.80225 223.179062 
" style="fill: none; stroke: #029e73; stroke-width: 1.5; stroke-linecap: square"/>
     <g>
      <use xlink:href="#mdc8a2c90d7" x="582.80225" y="223.179062" style="fill: #029e73; stroke: #029e73"/>
     </g>
    </g>
    <g id="text_27">
     <!-- sem_sim_avg -->
     <g transform="translate(600.80225 226.679062) scale(0.1 -0.1)">
      <defs>
       <path id="DejaVuSans-76" d="M 191 3500 
L 800 3500 
L 1894 563 
L 2988 3500 
L 3597 3500 
L 2284 0 
L 1503 0 
L 191 3500 
z
" transform="scale(0.015625)"/>
      </defs>
      <use xlink:href="#DejaVuSans-73"/>
      <use xlink:href="#DejaVuSans-65" transform="translate(52.099609 0)"/>
      <use xlink:href="#DejaVuSans-6d" transform="translate(113.623047 0)"/>
      <use xlink:href="#DejaVuSans-5f" transform="translate(211.035156 0)"/>
      <use xlink:href="#DejaVuSans-73" transform="translate(261.035156 0)"/>
      <use xlink:href="#DejaVuSans-69" transform="translate(313.134766 0)"/>
      <use xlink:href="#DejaVuSans-6d" transform="translate(340.917969 0)"/>
      <use xlink:href="#DejaVuSans-5f" transform="translate(438.330078 0)"/>
      <use xlink:href="#DejaVuSans-61" transform="translate(488.330078 0)"/>
      <use xlink:href="#DejaVuSans-76" transform="translate(549.609375 0)"/>
      <use xlink:href="#DejaVuSans-67" transform="translate(608.789062 0)"/>
     </g>
    </g>
    <g id="line2d_49">
     <path d="M 572.80225 238.135312 
L 582.80225 238.135312 
L 592.80225 238.135312 
" style="fill: none; stroke-dasharray: 5.55,2.4; stroke-dashoffset: 0; stroke: #d55e00; stroke-width: 1.5"/>
     <g>
      <use xlink:href="#mc44a3953fa" x="582.80225" y="238.135312" style="fill: #d55e00; stroke: #d55e00"/>
     </g>
    </g>
    <g id="text_28">
     <!-- syn_sim_avg -->
     <g transform="translate(600.80225 241.635312) scale(0.1 -0.1)">
      <defs>
       <path id="DejaVuSans-79" d="M 2059 -325 
Q 1816 -950 1584 -1140 
Q 1353 -1331 966 -1331 
L 506 -1331 
L 506 -850 
L 844 -850 
Q 1081 -850 1212 -737 
Q 1344 -625 1503 -206 
L 1606 56 
L 191 3500 
L 800 3500 
L 1894 763 
L 2988 3500 
L 3597 3500 
L 2059 -325 
z
" transform="scale(0.015625)"/>
      </defs>
      <use xlink:href="#DejaVuSans-73"/>
      <use xlink:href="#DejaVuSans-79" transform="translate(52.099609 0)"/>
      <use xlink:href="#DejaVuSans-6e" transform="translate(111.279297 0)"/>
      <use xlink:href="#DejaVuSans-5f" transform="translate(174.658203 0)"/>
      <use xlink:href="#DejaVuSans-73" transform="translate(224.658203 0)"/>
      <use xlink:href="#DejaVuSans-69" transform="translate(276.757812 0)"/>
      <use xlink:href="#DejaVuSans-6d" transform="translate(304.541016 0)"/>
      <use xlink:href="#DejaVuSans-5f" transform="translate(401.953125 0)"/>
      <use xlink:href="#DejaVuSans-61" transform="translate(451.953125 0)"/>
      <use xlink:href="#DejaVuSans-76" transform="translate(513.232422 0)"/>
      <use xlink:href="#DejaVuSans-67" transform="translate(572.412109 0)"/>
     </g>
    </g>
    <g id="line2d_50">
     <path d="M 572.80225 253.091563 
L 582.80225 253.091563 
L 592.80225 253.091563 
" style="fill: none; stroke-dasharray: 9.6,2.4,1.5,2.4; stroke-dashoffset: 0; stroke: #cc78bc; stroke-width: 1.5"/>
     <g>
      <use xlink:href="#mf70b3fa5f6" x="582.80225" y="253.091563" style="fill: #cc78bc; stroke: #cc78bc; stroke-linejoin: miter"/>
     </g>
    </g>
    <g id="text_29">
     <!-- gohsen_delta -->
     <g transform="translate(600.80225 256.591563) scale(0.1 -0.1)">
      <defs>
       <path id="DejaVuSans-64" d="M 2906 2969 
L 2906 4863 
L 3481 4863 
L 3481 0 
L 2906 0 
L 2906 525 
Q 2725 213 2448 61 
Q 2172 -91 1784 -91 
Q 1150 -91 751 415 
Q 353 922 353 1747 
Q 353 2572 751 3078 
Q 1150 3584 1784 3584 
Q 2172 3584 2448 3432 
Q 2725 3281 2906 2969 
z
M 947 1747 
Q 947 1113 1208 752 
Q 1469 391 1925 391 
Q 2381 391 2643 752 
Q 2906 1113 2906 1747 
Q 2906 2381 2643 2742 
Q 2381 3103 1925 3103 
Q 1469 3103 1208 2742 
Q 947 2381 947 1747 
z
" transform="scale(0.015625)"/>
      </defs>
      <use xlink:href="#DejaVuSans-67"/>
      <use xlink:href="#DejaVuSans-6f" transform="translate(63.476562 0)"/>
      <use xlink:href="#DejaVuSans-68" transform="translate(124.658203 0)"/>
      <use xlink:href="#DejaVuSans-73" transform="translate(188.037109 0)"/>
      <use xlink:href="#DejaVuSans-65" transform="translate(240.136719 0)"/>
      <use xlink:href="#DejaVuSans-6e" transform="translate(301.660156 0)"/>
      <use xlink:href="#DejaVuSans-5f" transform="translate(365.039062 0)"/>
      <use xlink:href="#DejaVuSans-64" transform="translate(415.039062 0)"/>
      <use xlink:href="#DejaVuSans-65" transform="translate(478.515625 0)"/>
      <use xlink:href="#DejaVuSans-6c" transform="translate(540.039062 0)"/>
      <use xlink:href="#DejaVuSans-74" transform="translate(567.822266 0)"/>
      <use xlink:href="#DejaVuSans-61" transform="translate(607.03125 0)"/>
     </g>
    </g>
   </g>
  </g>
 </g>
 <defs>
  <clipPath id="p90e3afe035">
   <rect x="43.78125" y="22.318125" width="500.02" height="363.05875"/>
  </clipPath>
 </defs>
</svg>
