<?xml version="1.0" encoding="utf-8" standalone="no"?>
<!DOCTYPE svg PUBLIC "-//W3C//DTD SVG 1.1//EN"
  "http://www.w3.org/Graphics/SVG/1.1/DTD/svg11.dtd">
<svg xmlns:xlink="http://www.w3.org/1999/xlink" width="720.332523pt" height="424.105312pt" viewBox="0 0 720.332523 424.105312" xmlns="http://www.w3.org/2000/svg" version="1.1">
 <metadata>
  <rdf:RDF xmlns:dc="http://purl.org/dc/elements/1.1/" xmlns:cc="http://creativecommons.org/ns#" xmlns:rdf="http://www.w3.org/1999/02/22-rdf-syntax-ns#">
   <cc:Work>
    <dc:type rdf:resource="http://purl.org/dc/dcmitype/StillImage"/>
    <dc:date>2025-08-22T21:58:53.347972</dc:date>
    <dc:format>image/svg+xml</dc:format>
    <dc:creator>
     <cc:Agent>
      <dc:title>Matplotlib v3.10.3, https://matplotlib.org/</dc:title>
     </cc:Agent>
    </dc:creator>
   </cc:Work>
  </rdf:RDF>
 </metadata>
 <defs>
  <style type="text/css">*{stroke-linejoin: round; stroke-linecap: butt}</style>
 </defs>
 <g id="figure_1">
  <g id="patch_1">
   <path d="M 0 424.105312 
L 720.332523 424.105312 
L 720.332523 0 
L 0 0 
z
" style="fill: #ffffff"/>
  </g>
  <g id="axes_1">
   <g id="patch_2">
    <path d="M 52.863125 382.677812 
L 503.386125 382.677812 
L 503.386125 23.837812 
L 52.863125 23.837812 
z
" style="fill: #ffffff"/>
   </g>
   <g id="matplotlib.axis_1">
    <g id="xtick_1">
     <g id="line2d_1">
      <defs>
       <path id="m8d91ccb756" d="M 0 0 
L 0 3.5 
" style="stroke: #000000; stroke-width: 0.8"/>
      </defs>
      <g>
       <use xlink:href="#m8d91ccb756" x="73.341443" y="382.677812" style="stroke: #000000; stroke-width: 0.8"/>
      </g>
     </g>
     <g id="text_1">
      <!-- 0.0 -->
      <g transform="translate(65.389881 397.27625) scale(0.1 -0.1)">
       <defs>
        <path id="DejaVuSans-30" d="M 2034 4250 
Q 1547 4250 1301 3770 
Q 1056 3291 1056 2328 
Q 1056 1369 1301 889 
Q 1547 409 2034 409 
Q 2525 409 2770 889 
Q 3016 1369 3016 2328 
Q 3016 3291 2770 3770 
Q 2525 4250 2034 4250 
z
M 2034 4750 
Q 2819 4750 3233 4129 
Q 3647 3509 3647 2328 
Q 3647 1150 3233 529 
Q 2819 -91 2034 -91 
Q 1250 -91 836 529 
Q 422 1150 422 2328 
Q 422 3509 836 4129 
Q 1250 4750 2034 4750 
z
" transform="scale(0.015625)"/>
        <path id="DejaVuSans-2e" d="M 684 794 
L 1344 794 
L 1344 0 
L 684 0 
L 684 794 
z
" transform="scale(0.015625)"/>
       </defs>
       <use xlink:href="#DejaVuSans-30"/>
       <use xlink:href="#DejaVuSans-2e" transform="translate(63.623047 0)"/>
       <use xlink:href="#DejaVuSans-30" transform="translate(95.410156 0)"/>
      </g>
     </g>
    </g>
    <g id="xtick_2">
     <g id="line2d_2">
      <g>
       <use xlink:href="#m8d91ccb756" x="155.254716" y="382.677812" style="stroke: #000000; stroke-width: 0.8"/>
      </g>
     </g>
     <g id="text_2">
      <!-- 0.2 -->
      <g transform="translate(147.303153 397.27625) scale(0.1 -0.1)">
       <defs>
        <path id="DejaVuSans-32" d="M 1228 531 
L 3431 531 
L 3431 0 
L 469 0 
L 469 531 
Q 828 903 1448 1529 
Q 2069 2156 2228 2338 
Q 2531 2678 2651 2914 
Q 2772 3150 2772 3378 
Q 2772 3750 2511 3984 
Q 2250 4219 1831 4219 
Q 1534 4219 1204 4116 
Q 875 4013 500 3803 
L 500 4441 
Q 881 4594 1212 4672 
Q 1544 4750 1819 4750 
Q 2544 4750 2975 4387 
Q 3406 4025 3406 3419 
Q 3406 3131 3298 2873 
Q 3191 2616 2906 2266 
Q 2828 2175 2409 1742 
Q 1991 1309 1228 531 
z
" transform="scale(0.015625)"/>
       </defs>
       <use xlink:href="#DejaVuSans-30"/>
       <use xlink:href="#DejaVuSans-2e" transform="translate(63.623047 0)"/>
       <use xlink:href="#DejaVuSans-32" transform="translate(95.410156 0)"/>
      </g>
     </g>
    </g>
    <g id="xtick_3">
     <g id="line2d_3">
      <g>
       <use xlink:href="#m8d91ccb756" x="237.167989" y="382.677812" style="stroke: #000000; stroke-width: 0.8"/>
      </g>
     </g>
     <g id="text_3">
      <!-- 0.4 -->
      <g transform="translate(229.216426 397.27625) scale(0.1 -0.1)">
       <defs>
        <path id="DejaVuSans-34" d="M 2419 4116 
L 825 1625 
L 2419 1625 
L 2419 4116 
z
M 2253 4666 
L 3047 4666 
L 3047 1625 
L 3713 1625 
L 3713 1100 
L 3047 1100 
L 3047 0 
L 2419 0 
L 2419 1100 
L 313 1100 
L 313 1709 
L 2253 4666 
z
" transform="scale(0.015625)"/>
       </defs>
       <use xlink:href="#DejaVuSans-30"/>
       <use xlink:href="#DejaVuSans-2e" transform="translate(63.623047 0)"/>
       <use xlink:href="#DejaVuSans-34" transform="translate(95.410156 0)"/>
      </g>
     </g>
    </g>
    <g id="xtick_4">
     <g id="line2d_4">
      <g>
       <use xlink:href="#m8d91ccb756" x="319.081261" y="382.677812" style="stroke: #000000; stroke-width: 0.8"/>
      </g>
     </g>
     <g id="text_4">
      <!-- 0.6 -->
      <g transform="translate(311.129699 397.27625) scale(0.1 -0.1)">
       <defs>
        <path id="DejaVuSans-36" d="M 2113 2584 
Q 1688 2584 1439 2293 
Q 1191 2003 1191 1497 
Q 1191 994 1439 701 
Q 1688 409 2113 409 
Q 2538 409 2786 701 
Q 3034 994 3034 1497 
Q 3034 2003 2786 2293 
Q 2538 2584 2113 2584 
z
M 3366 4563 
L 3366 3988 
Q 3128 4100 2886 4159 
Q 2644 4219 2406 4219 
Q 1781 4219 1451 3797 
Q 1122 3375 1075 2522 
Q 1259 2794 1537 2939 
Q 1816 3084 2150 3084 
Q 2853 3084 3261 2657 
Q 3669 2231 3669 1497 
Q 3669 778 3244 343 
Q 2819 -91 2113 -91 
Q 1303 -91 875 529 
Q 447 1150 447 2328 
Q 447 3434 972 4092 
Q 1497 4750 2381 4750 
Q 2619 4750 2861 4703 
Q 3103 4656 3366 4563 
z
" transform="scale(0.015625)"/>
       </defs>
       <use xlink:href="#DejaVuSans-30"/>
       <use xlink:href="#DejaVuSans-2e" transform="translate(63.623047 0)"/>
       <use xlink:href="#DejaVuSans-36" transform="translate(95.410156 0)"/>
      </g>
     </g>
    </g>
    <g id="xtick_5">
     <g id="line2d_5">
      <g>
       <use xlink:href="#m8d91ccb756" x="400.994534" y="382.677812" style="stroke: #000000; stroke-width: 0.8"/>
      </g>
     </g>
     <g id="text_5">
      <!-- 0.8 -->
      <g transform="translate(393.042972 397.27625) scale(0.1 -0.1)">
       <defs>
        <path id="DejaVuSans-38" d="M 2034 2216 
Q 1584 2216 1326 1975 
Q 1069 1734 1069 1313 
Q 1069 891 1326 650 
Q 1584 409 2034 409 
Q 2484 409 2743 651 
Q 3003 894 3003 1313 
Q 3003 1734 2745 1975 
Q 2488 2216 2034 2216 
z
M 1403 2484 
Q 997 2584 770 2862 
Q 544 3141 544 3541 
Q 544 4100 942 4425 
Q 1341 4750 2034 4750 
Q 2731 4750 3128 4425 
Q 3525 4100 3525 3541 
Q 3525 3141 3298 2862 
Q 3072 2584 2669 2484 
Q 3125 2378 3379 2068 
Q 3634 1759 3634 1313 
Q 3634 634 3220 271 
Q 2806 -91 2034 -91 
Q 1263 -91 848 271 
Q 434 634 434 1313 
Q 434 1759 690 2068 
Q 947 2378 1403 2484 
z
M 1172 3481 
Q 1172 3119 1398 2916 
Q 1625 2713 2034 2713 
Q 2441 2713 2670 2916 
Q 2900 3119 2900 3481 
Q 2900 3844 2670 4047 
Q 2441 4250 2034 4250 
Q 1625 4250 1398 4047 
Q 1172 3844 1172 3481 
z
" transform="scale(0.015625)"/>
       </defs>
       <use xlink:href="#DejaVuSans-30"/>
       <use xlink:href="#DejaVuSans-2e" transform="translate(63.623047 0)"/>
       <use xlink:href="#DejaVuSans-38" transform="translate(95.410156 0)"/>
      </g>
     </g>
    </g>
    <g id="xtick_6">
     <g id="line2d_6">
      <g>
       <use xlink:href="#m8d91ccb756" x="482.907807" y="382.677812" style="stroke: #000000; stroke-width: 0.8"/>
      </g>
     </g>
     <g id="text_6">
      <!-- 1.0 -->
      <g transform="translate(474.956244 397.27625) scale(0.1 -0.1)">
       <defs>
        <path id="DejaVuSans-31" d="M 794 531 
L 1825 531 
L 1825 4091 
L 703 3866 
L 703 4441 
L 1819 4666 
L 2450 4666 
L 2450 531 
L 3481 531 
L 3481 0 
L 794 0 
L 794 531 
z
" transform="scale(0.015625)"/>
       </defs>
       <use xlink:href="#DejaVuSans-31"/>
       <use xlink:href="#DejaVuSans-2e" transform="translate(63.623047 0)"/>
       <use xlink:href="#DejaVuSans-30" transform="translate(95.410156 0)"/>
      </g>
     </g>
    </g>
    <g id="text_7">
     <!-- Threshold -->
     <g transform="translate(243.631031 413.99375) scale(0.14 -0.14)">
      <defs>
       <path id="DejaVuSans-54" d="M -19 4666 
L 3928 4666 
L 3928 4134 
L 2272 4134 
L 2272 0 
L 1638 0 
L 1638 4134 
L -19 4134 
L -19 4666 
z
" transform="scale(0.015625)"/>
       <path id="DejaVuSans-68" d="M 3513 2113 
L 3513 0 
L 2938 0 
L 2938 2094 
Q 2938 2591 2744 2837 
Q 2550 3084 2163 3084 
Q 1697 3084 1428 2787 
Q 1159 2491 1159 1978 
L 1159 0 
L 581 0 
L 581 4863 
L 1159 4863 
L 1159 2956 
Q 1366 3272 1645 3428 
Q 1925 3584 2291 3584 
Q 2894 3584 3203 3211 
Q 3513 2838 3513 2113 
z
" transform="scale(0.015625)"/>
       <path id="DejaVuSans-72" d="M 2631 2963 
Q 2534 3019 2420 3045 
Q 2306 3072 2169 3072 
Q 1681 3072 1420 2755 
Q 1159 2438 1159 1844 
L 1159 0 
L 581 0 
L 581 3500 
L 1159 3500 
L 1159 2956 
Q 1341 3275 1631 3429 
Q 1922 3584 2338 3584 
Q 2397 3584 2469 3576 
Q 2541 3569 2628 3553 
L 2631 2963 
z
" transform="scale(0.015625)"/>
       <path id="DejaVuSans-65" d="M 3597 1894 
L 3597 1613 
L 953 1613 
Q 991 1019 1311 708 
Q 1631 397 2203 397 
Q 2534 397 2845 478 
Q 3156 559 3463 722 
L 3463 178 
Q 3153 47 2828 -22 
Q 2503 -91 2169 -91 
Q 1331 -91 842 396 
Q 353 884 353 1716 
Q 353 2575 817 3079 
Q 1281 3584 2069 3584 
Q 2775 3584 3186 3129 
Q 3597 2675 3597 1894 
z
M 3022 2063 
Q 3016 2534 2758 2815 
Q 2500 3097 2075 3097 
Q 1594 3097 1305 2825 
Q 1016 2553 972 2059 
L 3022 2063 
z
" transform="scale(0.015625)"/>
       <path id="DejaVuSans-73" d="M 2834 3397 
L 2834 2853 
Q 2591 2978 2328 3040 
Q 2066 3103 1784 3103 
Q 1356 3103 1142 2972 
Q 928 2841 928 2578 
Q 928 2378 1081 2264 
Q 1234 2150 1697 2047 
L 1894 2003 
Q 2506 1872 2764 1633 
Q 3022 1394 3022 966 
Q 3022 478 2636 193 
Q 2250 -91 1575 -91 
Q 1294 -91 989 -36 
Q 684 19 347 128 
L 347 722 
Q 666 556 975 473 
Q 1284 391 1588 391 
Q 1994 391 2212 530 
Q 2431 669 2431 922 
Q 2431 1156 2273 1281 
Q 2116 1406 1581 1522 
L 1381 1569 
Q 847 1681 609 1914 
Q 372 2147 372 2553 
Q 372 3047 722 3315 
Q 1072 3584 1716 3584 
Q 2034 3584 2315 3537 
Q 2597 3491 2834 3397 
z
" transform="scale(0.015625)"/>
       <path id="DejaVuSans-6f" d="M 1959 3097 
Q 1497 3097 1228 2736 
Q 959 2375 959 1747 
Q 959 1119 1226 758 
Q 1494 397 1959 397 
Q 2419 397 2687 759 
Q 2956 1122 2956 1747 
Q 2956 2369 2687 2733 
Q 2419 3097 1959 3097 
z
M 1959 3584 
Q 2709 3584 3137 3096 
Q 3566 2609 3566 1747 
Q 3566 888 3137 398 
Q 2709 -91 1959 -91 
Q 1206 -91 779 398 
Q 353 888 353 1747 
Q 353 2609 779 3096 
Q 1206 3584 1959 3584 
z
" transform="scale(0.015625)"/>
       <path id="DejaVuSans-6c" d="M 603 4863 
L 1178 4863 
L 1178 0 
L 603 0 
L 603 4863 
z
" transform="scale(0.015625)"/>
       <path id="DejaVuSans-64" d="M 2906 2969 
L 2906 4863 
L 3481 4863 
L 3481 0 
L 2906 0 
L 2906 525 
Q 2725 213 2448 61 
Q 2172 -91 1784 -91 
Q 1150 -91 751 415 
Q 353 922 353 1747 
Q 353 2572 751 3078 
Q 1150 3584 1784 3584 
Q 2172 3584 2448 3432 
Q 2725 3281 2906 2969 
z
M 947 1747 
Q 947 1113 1208 752 
Q 1469 391 1925 391 
Q 2381 391 2643 752 
Q 2906 1113 2906 1747 
Q 2906 2381 2643 2742 
Q 2381 3103 1925 3103 
Q 1469 3103 1208 2742 
Q 947 2381 947 1747 
z
" transform="scale(0.015625)"/>
      </defs>
      <use xlink:href="#DejaVuSans-54"/>
      <use xlink:href="#DejaVuSans-68" transform="translate(61.083984 0)"/>
      <use xlink:href="#DejaVuSans-72" transform="translate(124.462891 0)"/>
      <use xlink:href="#DejaVuSans-65" transform="translate(163.326172 0)"/>
      <use xlink:href="#DejaVuSans-73" transform="translate(224.849609 0)"/>
      <use xlink:href="#DejaVuSans-68" transform="translate(276.949219 0)"/>
      <use xlink:href="#DejaVuSans-6f" transform="translate(340.328125 0)"/>
      <use xlink:href="#DejaVuSans-6c" transform="translate(401.509766 0)"/>
      <use xlink:href="#DejaVuSans-64" transform="translate(429.292969 0)"/>
     </g>
    </g>
   </g>
   <g id="matplotlib.axis_2">
    <g id="ytick_1">
     <g id="line2d_7">
      <defs>
       <path id="m2d010fa9f0" d="M 0 0 
L -3.5 0 
" style="stroke: #000000; stroke-width: 0.8"/>
      </defs>
      <g>
       <use xlink:href="#m2d010fa9f0" x="52.863125" y="382.677812" style="stroke: #000000; stroke-width: 0.8"/>
      </g>
     </g>
     <g id="text_8">
      <!-- 0.0 -->
      <g transform="translate(29.96 386.477031) scale(0.1 -0.1)">
       <use xlink:href="#DejaVuSans-30"/>
       <use xlink:href="#DejaVuSans-2e" transform="translate(63.623047 0)"/>
       <use xlink:href="#DejaVuSans-30" transform="translate(95.410156 0)"/>
      </g>
     </g>
    </g>
    <g id="ytick_2">
     <g id="line2d_8">
      <g>
       <use xlink:href="#m2d010fa9f0" x="52.863125" y="310.909812" style="stroke: #000000; stroke-width: 0.8"/>
      </g>
     </g>
     <g id="text_9">
      <!-- 0.2 -->
      <g transform="translate(29.96 314.709031) scale(0.1 -0.1)">
       <use xlink:href="#DejaVuSans-30"/>
       <use xlink:href="#DejaVuSans-2e" transform="translate(63.623047 0)"/>
       <use xlink:href="#DejaVuSans-32" transform="translate(95.410156 0)"/>
      </g>
     </g>
    </g>
    <g id="ytick_3">
     <g id="line2d_9">
      <g>
       <use xlink:href="#m2d010fa9f0" x="52.863125" y="239.141812" style="stroke: #000000; stroke-width: 0.8"/>
      </g>
     </g>
     <g id="text_10">
      <!-- 0.4 -->
      <g transform="translate(29.96 242.941031) scale(0.1 -0.1)">
       <use xlink:href="#DejaVuSans-30"/>
       <use xlink:href="#DejaVuSans-2e" transform="translate(63.623047 0)"/>
       <use xlink:href="#DejaVuSans-34" transform="translate(95.410156 0)"/>
      </g>
     </g>
    </g>
    <g id="ytick_4">
     <g id="line2d_10">
      <g>
       <use xlink:href="#m2d010fa9f0" x="52.863125" y="167.373812" style="stroke: #000000; stroke-width: 0.8"/>
      </g>
     </g>
     <g id="text_11">
      <!-- 0.6 -->
      <g transform="translate(29.96 171.173031) scale(0.1 -0.1)">
       <use xlink:href="#DejaVuSans-30"/>
       <use xlink:href="#DejaVuSans-2e" transform="translate(63.623047 0)"/>
       <use xlink:href="#DejaVuSans-36" transform="translate(95.410156 0)"/>
      </g>
     </g>
    </g>
    <g id="ytick_5">
     <g id="line2d_11">
      <g>
       <use xlink:href="#m2d010fa9f0" x="52.863125" y="95.605812" style="stroke: #000000; stroke-width: 0.8"/>
      </g>
     </g>
     <g id="text_12">
      <!-- 0.8 -->
      <g transform="translate(29.96 99.405031) scale(0.1 -0.1)">
       <use xlink:href="#DejaVuSans-30"/>
       <use xlink:href="#DejaVuSans-2e" transform="translate(63.623047 0)"/>
       <use xlink:href="#DejaVuSans-38" transform="translate(95.410156 0)"/>
      </g>
     </g>
    </g>
    <g id="ytick_6">
     <g id="line2d_12">
      <g>
       <use xlink:href="#m2d010fa9f0" x="52.863125" y="23.837812" style="stroke: #000000; stroke-width: 0.8"/>
      </g>
     </g>
     <g id="text_13">
      <!-- 1.0 -->
      <g transform="translate(29.96 27.637031) scale(0.1 -0.1)">
       <use xlink:href="#DejaVuSans-31"/>
       <use xlink:href="#DejaVuSans-2e" transform="translate(63.623047 0)"/>
       <use xlink:href="#DejaVuSans-30" transform="translate(95.410156 0)"/>
      </g>
     </g>
    </g>
    <g id="text_14">
     <!-- Accuracy Score $\frac{{TP + TN}}{{N}}$ -->
     <g transform="translate(20.5 279.067812) rotate(-90) scale(0.14 -0.14)">
      <defs>
       <path id="DejaVuSans-41" d="M 2188 4044 
L 1331 1722 
L 3047 1722 
L 2188 4044 
z
M 1831 4666 
L 2547 4666 
L 4325 0 
L 3669 0 
L 3244 1197 
L 1141 1197 
L 716 0 
L 50 0 
L 1831 4666 
z
" transform="scale(0.015625)"/>
       <path id="DejaVuSans-63" d="M 3122 3366 
L 3122 2828 
Q 2878 2963 2633 3030 
Q 2388 3097 2138 3097 
Q 1578 3097 1268 2742 
Q 959 2388 959 1747 
Q 959 1106 1268 751 
Q 1578 397 2138 397 
Q 2388 397 2633 464 
Q 2878 531 3122 666 
L 3122 134 
Q 2881 22 2623 -34 
Q 2366 -91 2075 -91 
Q 1284 -91 818 406 
Q 353 903 353 1747 
Q 353 2603 823 3093 
Q 1294 3584 2113 3584 
Q 2378 3584 2631 3529 
Q 2884 3475 3122 3366 
z
" transform="scale(0.015625)"/>
       <path id="DejaVuSans-75" d="M 544 1381 
L 544 3500 
L 1119 3500 
L 1119 1403 
Q 1119 906 1312 657 
Q 1506 409 1894 409 
Q 2359 409 2629 706 
Q 2900 1003 2900 1516 
L 2900 3500 
L 3475 3500 
L 3475 0 
L 2900 0 
L 2900 538 
Q 2691 219 2414 64 
Q 2138 -91 1772 -91 
Q 1169 -91 856 284 
Q 544 659 544 1381 
z
M 1991 3584 
L 1991 3584 
z
" transform="scale(0.015625)"/>
       <path id="DejaVuSans-61" d="M 2194 1759 
Q 1497 1759 1228 1600 
Q 959 1441 959 1056 
Q 959 750 1161 570 
Q 1363 391 1709 391 
Q 2188 391 2477 730 
Q 2766 1069 2766 1631 
L 2766 1759 
L 2194 1759 
z
M 3341 1997 
L 3341 0 
L 2766 0 
L 2766 531 
Q 2569 213 2275 61 
Q 1981 -91 1556 -91 
Q 1019 -91 701 211 
Q 384 513 384 1019 
Q 384 1609 779 1909 
Q 1175 2209 1959 2209 
L 2766 2209 
L 2766 2266 
Q 2766 2663 2505 2880 
Q 2244 3097 1772 3097 
Q 1472 3097 1187 3025 
Q 903 2953 641 2809 
L 641 3341 
Q 956 3463 1253 3523 
Q 1550 3584 1831 3584 
Q 2591 3584 2966 3190 
Q 3341 2797 3341 1997 
z
" transform="scale(0.015625)"/>
       <path id="DejaVuSans-79" d="M 2059 -325 
Q 1816 -950 1584 -1140 
Q 1353 -1331 966 -1331 
L 506 -1331 
L 506 -850 
L 844 -850 
Q 1081 -850 1212 -737 
Q 1344 -625 1503 -206 
L 1606 56 
L 191 3500 
L 800 3500 
L 1894 763 
L 2988 3500 
L 3597 3500 
L 2059 -325 
z
" transform="scale(0.015625)"/>
       <path id="DejaVuSans-20" transform="scale(0.015625)"/>
       <path id="DejaVuSans-53" d="M 3425 4513 
L 3425 3897 
Q 3066 4069 2747 4153 
Q 2428 4238 2131 4238 
Q 1616 4238 1336 4038 
Q 1056 3838 1056 3469 
Q 1056 3159 1242 3001 
Q 1428 2844 1947 2747 
L 2328 2669 
Q 3034 2534 3370 2195 
Q 3706 1856 3706 1288 
Q 3706 609 3251 259 
Q 2797 -91 1919 -91 
Q 1588 -91 1214 -16 
Q 841 59 441 206 
L 441 856 
Q 825 641 1194 531 
Q 1563 422 1919 422 
Q 2459 422 2753 634 
Q 3047 847 3047 1241 
Q 3047 1584 2836 1778 
Q 2625 1972 2144 2069 
L 1759 2144 
Q 1053 2284 737 2584 
Q 422 2884 422 3419 
Q 422 4038 858 4394 
Q 1294 4750 2059 4750 
Q 2388 4750 2728 4690 
Q 3069 4631 3425 4513 
z
" transform="scale(0.015625)"/>
       <path id="DejaVuSans-Oblique-54" d="M 378 4666 
L 4325 4666 
L 4225 4134 
L 2559 4134 
L 1759 0 
L 1125 0 
L 1925 4134 
L 275 4134 
L 378 4666 
z
" transform="scale(0.015625)"/>
       <path id="DejaVuSans-Oblique-50" d="M 1081 4666 
L 2541 4666 
Q 3178 4666 3512 4369 
Q 3847 4072 3847 3500 
Q 3847 2731 3353 2303 
Q 2859 1875 1966 1875 
L 1172 1875 
L 806 0 
L 172 0 
L 1081 4666 
z
M 1613 4147 
L 1275 2394 
L 2069 2394 
Q 2606 2394 2893 2669 
Q 3181 2944 3181 3456 
Q 3181 3784 2986 3965 
Q 2791 4147 2438 4147 
L 1613 4147 
z
" transform="scale(0.015625)"/>
       <path id="DejaVuSans-2b" d="M 2944 4013 
L 2944 2272 
L 4684 2272 
L 4684 1741 
L 2944 1741 
L 2944 0 
L 2419 0 
L 2419 1741 
L 678 1741 
L 678 2272 
L 2419 2272 
L 2419 4013 
L 2944 4013 
z
" transform="scale(0.015625)"/>
       <path id="DejaVuSans-Oblique-4e" d="M 1081 4666 
L 1931 4666 
L 3219 666 
L 4000 4666 
L 4616 4666 
L 3706 0 
L 2853 0 
L 1569 4025 
L 788 0 
L 172 0 
L 1081 4666 
z
" transform="scale(0.015625)"/>
      </defs>
      <use xlink:href="#DejaVuSans-41" transform="translate(0 0.16875)"/>
      <use xlink:href="#DejaVuSans-63" transform="translate(68.408203 0.16875)"/>
      <use xlink:href="#DejaVuSans-63" transform="translate(123.388672 0.16875)"/>
      <use xlink:href="#DejaVuSans-75" transform="translate(178.369141 0.16875)"/>
      <use xlink:href="#DejaVuSans-72" transform="translate(241.748047 0.16875)"/>
      <use xlink:href="#DejaVuSans-61" transform="translate(282.861328 0.16875)"/>
      <use xlink:href="#DejaVuSans-63" transform="translate(344.140625 0.16875)"/>
      <use xlink:href="#DejaVuSans-79" transform="translate(399.121094 0.16875)"/>
      <use xlink:href="#DejaVuSans-20" transform="translate(458.300781 0.16875)"/>
      <use xlink:href="#DejaVuSans-53" transform="translate(490.087891 0.16875)"/>
      <use xlink:href="#DejaVuSans-63" transform="translate(553.564453 0.16875)"/>
      <use xlink:href="#DejaVuSans-6f" transform="translate(608.544922 0.16875)"/>
      <use xlink:href="#DejaVuSans-72" transform="translate(669.726562 0.16875)"/>
      <use xlink:href="#DejaVuSans-65" transform="translate(710.839844 0.16875)"/>
      <use xlink:href="#DejaVuSans-20" transform="translate(772.363281 0.16875)"/>
      <use xlink:href="#DejaVuSans-Oblique-54" transform="translate(804.150391 43.965625) scale(0.7)"/>
      <use xlink:href="#DejaVuSans-Oblique-50" transform="translate(846.90918 43.965625) scale(0.7)"/>
      <use xlink:href="#DejaVuSans-2b" transform="translate(902.758789 43.965625) scale(0.7)"/>
      <use xlink:href="#DejaVuSans-Oblique-54" transform="translate(975.048828 43.965625) scale(0.7)"/>
      <use xlink:href="#DejaVuSans-Oblique-4e" transform="translate(1017.807617 43.965625) scale(0.7)"/>
      <use xlink:href="#DejaVuSans-Oblique-4e" transform="translate(911.150391 -38.31875) scale(0.7)"/>
      <path d="M 804.150391 18.965625 
L 804.150391 25.215625 
L 1070.170898 25.215625 
L 1070.170898 18.965625 
L 804.150391 18.965625 
z
"/>
     </g>
    </g>
   </g>
   <g id="line2d_13">
    <path d="M 73.341443 203.257812 
L 77.437107 190.884019 
L 81.53277 184.697123 
L 85.628434 172.32333 
L 89.724098 166.136433 
L 93.819761 166.136433 
L 97.915425 178.510226 
L 102.011089 184.697123 
L 106.106752 184.697123 
L 110.202416 190.884019 
L 114.29808 190.884019 
L 118.393743 184.697123 
L 122.489407 184.697123 
L 126.58507 190.884019 
L 130.680734 190.884019 
L 134.776398 197.070916 
L 138.872061 197.070916 
L 142.967725 203.257812 
L 147.063389 203.257812 
L 151.159052 203.257812 
L 155.254716 203.257812 
L 159.35038 203.257812 
L 163.446043 203.257812 
L 167.541707 203.257812 
L 171.63737 203.257812 
L 175.733034 203.257812 
L 179.828698 203.257812 
L 183.924361 203.257812 
L 188.020025 203.257812 
L 192.115689 203.257812 
L 196.211352 203.257812 
L 200.307016 203.257812 
L 204.40268 203.257812 
L 208.498343 203.257812 
L 212.594007 203.257812 
L 216.68967 203.257812 
L 220.785334 203.257812 
L 224.880998 203.257812 
L 228.976661 203.257812 
L 233.072325 203.257812 
L 237.167989 203.257812 
L 241.263652 203.257812 
L 245.359316 203.257812 
L 249.45498 203.257812 
L 253.550643 203.257812 
L 257.646307 203.257812 
L 261.74197 203.257812 
L 265.837634 203.257812 
L 269.933298 203.257812 
L 274.028961 203.257812 
L 278.124625 203.257812 
L 282.220289 203.257812 
L 286.315952 203.257812 
L 290.411616 203.257812 
L 294.50728 203.257812 
L 298.602943 203.257812 
L 302.698607 203.257812 
L 306.79427 203.257812 
L 310.889934 203.257812 
L 314.985598 203.257812 
L 319.081261 203.257812 
L 323.176925 203.257812 
L 327.272589 203.257812 
L 331.368252 203.257812 
L 335.463916 203.257812 
L 339.55958 203.257812 
L 343.655243 203.257812 
L 347.750907 203.257812 
L 351.84657 203.257812 
L 355.942234 203.257812 
L 360.037898 203.257812 
L 364.133561 203.257812 
L 368.229225 203.257812 
L 372.324889 203.257812 
L 376.420552 203.257812 
L 380.516216 203.257812 
L 384.61188 203.257812 
L 388.707543 203.257812 
L 392.803207 203.257812 
L 396.89887 203.257812 
L 400.994534 203.257812 
L 405.090198 203.257812 
L 409.185861 203.257812 
L 413.281525 203.257812 
L 417.377189 203.257812 
L 421.472852 203.257812 
L 425.568516 203.257812 
L 429.66418 203.257812 
L 433.759843 203.257812 
L 437.855507 203.257812 
L 441.95117 203.257812 
L 446.046834 203.257812 
L 450.142498 203.257812 
L 454.238161 203.257812 
L 458.333825 203.257812 
L 462.429489 203.257812 
L 466.525152 203.257812 
L 470.620816 203.257812 
L 474.71648 203.257812 
L 478.812143 203.257812 
L 482.907807 203.257812 
" clip-path="url(#p1b03cc80ee)" style="fill: none; stroke-dasharray: 5.55,2.4; stroke-dashoffset: 0; stroke: #1f77b4; stroke-width: 1.5"/>
   </g>
   <g id="line2d_14">
    <path d="M 73.341443 203.257812 
L 77.437107 184.697123 
L 81.53277 184.697123 
L 85.628434 203.257812 
L 89.724098 203.257812 
L 93.819761 203.257812 
L 97.915425 203.257812 
L 102.011089 203.257812 
L 106.106752 203.257812 
L 110.202416 203.257812 
L 114.29808 203.257812 
L 118.393743 203.257812 
L 122.489407 203.257812 
L 126.58507 203.257812 
L 130.680734 203.257812 
L 134.776398 203.257812 
L 138.872061 203.257812 
L 142.967725 203.257812 
L 147.063389 203.257812 
L 151.159052 203.257812 
L 155.254716 203.257812 
L 159.35038 203.257812 
L 163.446043 203.257812 
L 167.541707 203.257812 
L 171.63737 203.257812 
L 175.733034 203.257812 
L 179.828698 203.257812 
L 183.924361 203.257812 
L 188.020025 203.257812 
L 192.115689 203.257812 
L 196.211352 203.257812 
L 200.307016 203.257812 
L 204.40268 203.257812 
L 208.498343 203.257812 
L 212.594007 203.257812 
L 216.68967 203.257812 
L 220.785334 203.257812 
L 224.880998 203.257812 
L 228.976661 203.257812 
L 233.072325 203.257812 
L 237.167989 203.257812 
L 241.263652 203.257812 
L 245.359316 203.257812 
L 249.45498 203.257812 
L 253.550643 203.257812 
L 257.646307 203.257812 
L 261.74197 203.257812 
L 265.837634 203.257812 
L 269.933298 203.257812 
L 274.028961 203.257812 
L 278.124625 203.257812 
L 282.220289 203.257812 
L 286.315952 203.257812 
L 290.411616 203.257812 
L 294.50728 203.257812 
L 298.602943 203.257812 
L 302.698607 203.257812 
L 306.79427 203.257812 
L 310.889934 203.257812 
L 314.985598 203.257812 
L 319.081261 203.257812 
L 323.176925 203.257812 
L 327.272589 203.257812 
L 331.368252 203.257812 
L 335.463916 203.257812 
L 339.55958 203.257812 
L 343.655243 203.257812 
L 347.750907 203.257812 
L 351.84657 203.257812 
L 355.942234 203.257812 
L 360.037898 203.257812 
L 364.133561 203.257812 
L 368.229225 203.257812 
L 372.324889 203.257812 
L 376.420552 203.257812 
L 380.516216 203.257812 
L 384.61188 203.257812 
L 388.707543 203.257812 
L 392.803207 203.257812 
L 396.89887 203.257812 
L 400.994534 203.257812 
L 405.090198 203.257812 
L 409.185861 203.257812 
L 413.281525 203.257812 
L 417.377189 203.257812 
L 421.472852 203.257812 
L 425.568516 203.257812 
L 429.66418 203.257812 
L 433.759843 203.257812 
L 437.855507 203.257812 
L 441.95117 203.257812 
L 446.046834 203.257812 
L 450.142498 203.257812 
L 454.238161 203.257812 
L 458.333825 203.257812 
L 462.429489 203.257812 
L 466.525152 203.257812 
L 470.620816 203.257812 
L 474.71648 203.257812 
L 478.812143 203.257812 
L 482.907807 203.257812 
" clip-path="url(#p1b03cc80ee)" style="fill: none; stroke-dasharray: 1.5,2.475; stroke-dashoffset: 0; stroke: #ff7f0e; stroke-width: 1.5"/>
   </g>
   <g id="line2d_15">
    <path d="M 73.341443 203.257812 
L 77.437107 190.884019 
L 81.53277 190.884019 
L 85.628434 190.884019 
L 89.724098 190.884019 
L 93.819761 197.070916 
L 97.915425 197.070916 
L 102.011089 197.070916 
L 106.106752 197.070916 
L 110.202416 197.070916 
L 114.29808 203.257812 
L 118.393743 203.257812 
L 122.489407 203.257812 
L 126.58507 203.257812 
L 130.680734 203.257812 
L 134.776398 203.257812 
L 138.872061 203.257812 
L 142.967725 203.257812 
L 147.063389 203.257812 
L 151.159052 203.257812 
L 155.254716 203.257812 
L 159.35038 203.257812 
L 163.446043 203.257812 
L 167.541707 203.257812 
L 171.63737 203.257812 
L 175.733034 203.257812 
L 179.828698 203.257812 
L 183.924361 203.257812 
L 188.020025 203.257812 
L 192.115689 203.257812 
L 196.211352 203.257812 
L 200.307016 203.257812 
L 204.40268 203.257812 
L 208.498343 203.257812 
L 212.594007 203.257812 
L 216.68967 203.257812 
L 220.785334 203.257812 
L 224.880998 203.257812 
L 228.976661 203.257812 
L 233.072325 203.257812 
L 237.167989 203.257812 
L 241.263652 203.257812 
L 245.359316 203.257812 
L 249.45498 203.257812 
L 253.550643 203.257812 
L 257.646307 203.257812 
L 261.74197 203.257812 
L 265.837634 203.257812 
L 269.933298 203.257812 
L 274.028961 203.257812 
L 278.124625 203.257812 
L 282.220289 203.257812 
L 286.315952 203.257812 
L 290.411616 203.257812 
L 294.50728 203.257812 
L 298.602943 203.257812 
L 302.698607 203.257812 
L 306.79427 203.257812 
L 310.889934 203.257812 
L 314.985598 203.257812 
L 319.081261 203.257812 
L 323.176925 203.257812 
L 327.272589 203.257812 
L 331.368252 203.257812 
L 335.463916 203.257812 
L 339.55958 203.257812 
L 343.655243 203.257812 
L 347.750907 203.257812 
L 351.84657 203.257812 
L 355.942234 203.257812 
L 360.037898 203.257812 
L 364.133561 203.257812 
L 368.229225 203.257812 
L 372.324889 203.257812 
L 376.420552 203.257812 
L 380.516216 203.257812 
L 384.61188 203.257812 
L 388.707543 203.257812 
L 392.803207 203.257812 
L 396.89887 203.257812 
L 400.994534 203.257812 
L 405.090198 203.257812 
L 409.185861 203.257812 
L 413.281525 203.257812 
L 417.377189 203.257812 
L 421.472852 203.257812 
L 425.568516 203.257812 
L 429.66418 203.257812 
L 433.759843 203.257812 
L 437.855507 203.257812 
L 441.95117 203.257812 
L 446.046834 203.257812 
L 450.142498 203.257812 
L 454.238161 203.257812 
L 458.333825 203.257812 
L 462.429489 203.257812 
L 466.525152 203.257812 
L 470.620816 203.257812 
L 474.71648 203.257812 
L 478.812143 203.257812 
L 482.907807 203.257812 
" clip-path="url(#p1b03cc80ee)" style="fill: none; stroke-dasharray: 9.6,2.4,1.5,2.4; stroke-dashoffset: 0; stroke: #2ca02c; stroke-width: 1.5"/>
   </g>
   <g id="line2d_16">
    <path d="M 73.341443 203.257812 
L 77.437107 203.257812 
L 81.53277 203.257812 
L 85.628434 203.257812 
L 89.724098 203.257812 
L 93.819761 203.257812 
L 97.915425 203.257812 
L 102.011089 203.257812 
L 106.106752 203.257812 
L 110.202416 203.257812 
L 114.29808 203.257812 
L 118.393743 203.257812 
L 122.489407 203.257812 
L 126.58507 190.884019 
L 130.680734 166.136433 
L 134.776398 159.949537 
L 138.872061 172.32333 
L 142.967725 166.136433 
L 147.063389 159.949537 
L 151.159052 178.510226 
L 155.254716 190.884019 
L 159.35038 197.070916 
L 163.446043 203.257812 
L 167.541707 203.257812 
L 171.63737 203.257812 
L 175.733034 203.257812 
L 179.828698 203.257812 
L 183.924361 203.257812 
L 188.020025 203.257812 
L 192.115689 203.257812 
L 196.211352 203.257812 
L 200.307016 203.257812 
L 204.40268 203.257812 
L 208.498343 203.257812 
L 212.594007 203.257812 
L 216.68967 203.257812 
L 220.785334 203.257812 
L 224.880998 203.257812 
L 228.976661 203.257812 
L 233.072325 203.257812 
L 237.167989 203.257812 
L 241.263652 203.257812 
L 245.359316 203.257812 
L 249.45498 203.257812 
L 253.550643 203.257812 
L 257.646307 203.257812 
L 261.74197 203.257812 
L 265.837634 203.257812 
L 269.933298 203.257812 
L 274.028961 203.257812 
L 278.124625 203.257812 
L 282.220289 203.257812 
L 286.315952 203.257812 
L 290.411616 203.257812 
L 294.50728 203.257812 
L 298.602943 203.257812 
L 302.698607 203.257812 
L 306.79427 203.257812 
L 310.889934 203.257812 
L 314.985598 203.257812 
L 319.081261 203.257812 
L 323.176925 203.257812 
L 327.272589 203.257812 
L 331.368252 203.257812 
L 335.463916 203.257812 
L 339.55958 203.257812 
L 343.655243 203.257812 
L 347.750907 203.257812 
L 351.84657 203.257812 
L 355.942234 203.257812 
L 360.037898 203.257812 
L 364.133561 203.257812 
L 368.229225 203.257812 
L 372.324889 203.257812 
L 376.420552 203.257812 
L 380.516216 203.257812 
L 384.61188 203.257812 
L 388.707543 203.257812 
L 392.803207 203.257812 
L 396.89887 203.257812 
L 400.994534 203.257812 
L 405.090198 203.257812 
L 409.185861 203.257812 
L 413.281525 203.257812 
L 417.377189 203.257812 
L 421.472852 203.257812 
L 425.568516 203.257812 
L 429.66418 203.257812 
L 433.759843 203.257812 
L 437.855507 203.257812 
L 441.95117 203.257812 
L 446.046834 203.257812 
L 450.142498 203.257812 
L 454.238161 203.257812 
L 458.333825 203.257812 
L 462.429489 203.257812 
L 466.525152 203.257812 
L 470.620816 203.257812 
L 474.71648 203.257812 
L 478.812143 203.257812 
L 482.907807 203.257812 
" clip-path="url(#p1b03cc80ee)" style="fill: none; stroke-dasharray: 15,4.5; stroke-dashoffset: 7.5; stroke: #d62728; stroke-width: 1.5"/>
   </g>
   <g id="line2d_17">
    <path d="M 73.341443 203.257812 
L 77.437107 203.257812 
L 81.53277 203.257812 
L 85.628434 203.257812 
L 89.724098 203.257812 
L 93.819761 203.257812 
L 97.915425 203.257812 
L 102.011089 203.257812 
L 106.106752 203.257812 
L 110.202416 203.257812 
L 114.29808 203.257812 
L 118.393743 203.257812 
L 122.489407 203.257812 
L 126.58507 203.257812 
L 130.680734 203.257812 
L 134.776398 203.257812 
L 138.872061 203.257812 
L 142.967725 203.257812 
L 147.063389 203.257812 
L 151.159052 203.257812 
L 155.254716 203.257812 
L 159.35038 203.257812 
L 163.446043 203.257812 
L 167.541707 203.257812 
L 171.63737 203.257812 
L 175.733034 203.257812 
L 179.828698 203.257812 
L 183.924361 203.257812 
L 188.020025 197.070916 
L 192.115689 197.070916 
L 196.211352 197.070916 
L 200.307016 197.070916 
L 204.40268 190.884019 
L 208.498343 190.884019 
L 212.594007 190.884019 
L 216.68967 172.32333 
L 220.785334 172.32333 
L 224.880998 166.136433 
L 228.976661 172.32333 
L 233.072325 178.510226 
L 237.167989 178.510226 
L 241.263652 178.510226 
L 245.359316 159.949537 
L 249.45498 159.949537 
L 253.550643 178.510226 
L 257.646307 178.510226 
L 261.74197 172.32333 
L 265.837634 178.510226 
L 269.933298 178.510226 
L 274.028961 190.884019 
L 278.124625 203.257812 
L 282.220289 197.070916 
L 286.315952 197.070916 
L 290.411616 203.257812 
L 294.50728 203.257812 
L 298.602943 203.257812 
L 302.698607 203.257812 
L 306.79427 203.257812 
L 310.889934 203.257812 
L 314.985598 203.257812 
L 319.081261 203.257812 
L 323.176925 203.257812 
L 327.272589 203.257812 
L 331.368252 203.257812 
L 335.463916 203.257812 
L 339.55958 203.257812 
L 343.655243 203.257812 
L 347.750907 203.257812 
L 351.84657 203.257812 
L 355.942234 203.257812 
L 360.037898 203.257812 
L 364.133561 203.257812 
L 368.229225 203.257812 
L 372.324889 203.257812 
L 376.420552 203.257812 
L 380.516216 203.257812 
L 384.61188 203.257812 
L 388.707543 203.257812 
L 392.803207 203.257812 
L 396.89887 203.257812 
L 400.994534 203.257812 
L 405.090198 203.257812 
L 409.185861 203.257812 
L 413.281525 203.257812 
L 417.377189 203.257812 
L 421.472852 203.257812 
L 425.568516 203.257812 
L 429.66418 203.257812 
L 433.759843 203.257812 
L 437.855507 203.257812 
L 441.95117 203.257812 
L 446.046834 203.257812 
L 450.142498 203.257812 
L 454.238161 203.257812 
L 458.333825 203.257812 
L 462.429489 203.257812 
L 466.525152 203.257812 
L 470.620816 203.257812 
L 474.71648 203.257812 
L 478.812143 203.257812 
L 482.907807 203.257812 
" clip-path="url(#p1b03cc80ee)" style="fill: none; stroke-dasharray: 4.5,1.5,1.5,1.5,1.5,1.5; stroke-dashoffset: 0; stroke: #9467bd; stroke-width: 1.5"/>
   </g>
   <g id="line2d_18">
    <path d="M 73.341443 234.192295 
L 77.437107 234.192295 
L 81.53277 221.818502 
L 85.628434 221.818502 
L 89.724098 228.005399 
L 93.819761 228.005399 
L 97.915425 228.005399 
L 102.011089 228.005399 
L 106.106752 234.192295 
L 110.202416 228.005399 
L 114.29808 215.631606 
L 118.393743 221.818502 
L 122.489407 221.818502 
L 126.58507 209.444709 
L 130.680734 203.257812 
L 134.776398 197.070916 
L 138.872061 197.070916 
L 142.967725 209.444709 
L 147.063389 209.444709 
L 151.159052 209.444709 
L 155.254716 209.444709 
L 159.35038 209.444709 
L 163.446043 215.631606 
L 167.541707 209.444709 
L 171.63737 215.631606 
L 175.733034 221.818502 
L 179.828698 221.818502 
L 183.924361 221.818502 
L 188.020025 221.818502 
L 192.115689 215.631606 
L 196.211352 221.818502 
L 200.307016 215.631606 
L 204.40268 215.631606 
L 208.498343 215.631606 
L 212.594007 209.444709 
L 216.68967 203.257812 
L 220.785334 203.257812 
L 224.880998 203.257812 
L 228.976661 203.257812 
L 233.072325 184.697123 
L 237.167989 184.697123 
L 241.263652 184.697123 
L 245.359316 184.697123 
L 249.45498 184.697123 
L 253.550643 184.697123 
L 257.646307 190.884019 
L 261.74197 197.070916 
L 265.837634 197.070916 
L 269.933298 197.070916 
L 274.028961 203.257812 
L 278.124625 203.257812 
L 282.220289 203.257812 
L 286.315952 203.257812 
L 290.411616 203.257812 
L 294.50728 203.257812 
L 298.602943 203.257812 
L 302.698607 203.257812 
L 306.79427 203.257812 
L 310.889934 203.257812 
L 314.985598 203.257812 
L 319.081261 203.257812 
L 323.176925 203.257812 
L 327.272589 203.257812 
L 331.368252 203.257812 
L 335.463916 203.257812 
L 339.55958 203.257812 
L 343.655243 203.257812 
L 347.750907 203.257812 
L 351.84657 203.257812 
L 355.942234 203.257812 
L 360.037898 203.257812 
L 364.133561 203.257812 
L 368.229225 203.257812 
L 372.324889 203.257812 
L 376.420552 203.257812 
L 380.516216 203.257812 
L 384.61188 203.257812 
L 388.707543 203.257812 
L 392.803207 203.257812 
L 396.89887 203.257812 
L 400.994534 203.257812 
L 405.090198 203.257812 
L 409.185861 203.257812 
L 413.281525 203.257812 
L 417.377189 203.257812 
L 421.472852 203.257812 
L 425.568516 203.257812 
L 429.66418 203.257812 
L 433.759843 203.257812 
L 437.855507 203.257812 
L 441.95117 203.257812 
L 446.046834 203.257812 
L 450.142498 203.257812 
L 454.238161 203.257812 
L 458.333825 203.257812 
L 462.429489 203.257812 
L 466.525152 203.257812 
L 470.620816 203.257812 
L 474.71648 203.257812 
L 478.812143 203.257812 
L 482.907807 203.257812 
" clip-path="url(#p1b03cc80ee)" style="fill: none; stroke-dasharray: 4.5,1.5,1.5,1.5; stroke-dashoffset: 0; stroke: #8c564b; stroke-width: 1.5"/>
   </g>
   <g id="line2d_19">
    <path d="M 73.341443 203.257812 
L 77.437107 203.257812 
L 81.53277 203.257812 
L 85.628434 203.257812 
L 89.724098 203.257812 
L 93.819761 203.257812 
L 97.915425 203.257812 
L 102.011089 203.257812 
L 106.106752 203.257812 
L 110.202416 203.257812 
L 114.29808 203.257812 
L 118.393743 203.257812 
L 122.489407 203.257812 
L 126.58507 203.257812 
L 130.680734 203.257812 
L 134.776398 203.257812 
L 138.872061 203.257812 
L 142.967725 203.257812 
L 147.063389 203.257812 
L 151.159052 203.257812 
L 155.254716 203.257812 
L 159.35038 203.257812 
L 163.446043 203.257812 
L 167.541707 203.257812 
L 171.63737 203.257812 
L 175.733034 203.257812 
L 179.828698 203.257812 
L 183.924361 203.257812 
L 188.020025 203.257812 
L 192.115689 203.257812 
L 196.211352 203.257812 
L 200.307016 203.257812 
L 204.40268 203.257812 
L 208.498343 203.257812 
L 212.594007 203.257812 
L 216.68967 203.257812 
L 220.785334 203.257812 
L 224.880998 203.257812 
L 228.976661 203.257812 
L 233.072325 203.257812 
L 237.167989 197.070916 
L 241.263652 166.136433 
L 245.359316 159.949537 
L 249.45498 197.070916 
L 253.550643 190.884019 
L 257.646307 203.257812 
L 261.74197 203.257812 
L 265.837634 203.257812 
L 269.933298 203.257812 
L 274.028961 203.257812 
L 278.124625 203.257812 
L 282.220289 203.257812 
L 286.315952 203.257812 
L 290.411616 203.257812 
L 294.50728 203.257812 
L 298.602943 203.257812 
L 302.698607 203.257812 
L 306.79427 203.257812 
L 310.889934 203.257812 
L 314.985598 203.257812 
L 319.081261 203.257812 
L 323.176925 203.257812 
L 327.272589 203.257812 
L 331.368252 203.257812 
L 335.463916 203.257812 
L 339.55958 203.257812 
L 343.655243 203.257812 
L 347.750907 203.257812 
L 351.84657 203.257812 
L 355.942234 203.257812 
L 360.037898 203.257812 
L 364.133561 203.257812 
L 368.229225 203.257812 
L 372.324889 203.257812 
L 376.420552 203.257812 
L 380.516216 203.257812 
L 384.61188 203.257812 
L 388.707543 203.257812 
L 392.803207 203.257812 
L 396.89887 203.257812 
L 400.994534 203.257812 
L 405.090198 203.257812 
L 409.185861 203.257812 
L 413.281525 203.257812 
L 417.377189 203.257812 
L 421.472852 203.257812 
L 425.568516 203.257812 
L 429.66418 203.257812 
L 433.759843 203.257812 
L 437.855507 203.257812 
L 441.95117 203.257812 
L 446.046834 203.257812 
L 450.142498 203.257812 
L 454.238161 203.257812 
L 458.333825 203.257812 
L 462.429489 203.257812 
L 466.525152 203.257812 
L 470.620816 203.257812 
L 474.71648 203.257812 
L 478.812143 203.257812 
L 482.907807 203.257812 
" clip-path="url(#p1b03cc80ee)" style="fill: none; stroke-dasharray: 5.55,2.4; stroke-dashoffset: 0; stroke: #e377c2; stroke-width: 1.5"/>
   </g>
   <g id="line2d_20">
    <path d="M 73.341443 203.257812 
L 77.437107 203.257812 
L 81.53277 203.257812 
L 85.628434 203.257812 
L 89.724098 203.257812 
L 93.819761 203.257812 
L 97.915425 203.257812 
L 102.011089 203.257812 
L 106.106752 197.070916 
L 110.202416 197.070916 
L 114.29808 178.510226 
L 118.393743 190.884019 
L 122.489407 159.949537 
L 126.58507 172.32333 
L 130.680734 184.697123 
L 134.776398 203.257812 
L 138.872061 203.257812 
L 142.967725 203.257812 
L 147.063389 203.257812 
L 151.159052 203.257812 
L 155.254716 203.257812 
L 159.35038 203.257812 
L 163.446043 203.257812 
L 167.541707 203.257812 
L 171.63737 203.257812 
L 175.733034 203.257812 
L 179.828698 203.257812 
L 183.924361 203.257812 
L 188.020025 203.257812 
L 192.115689 203.257812 
L 196.211352 203.257812 
L 200.307016 203.257812 
L 204.40268 203.257812 
L 208.498343 203.257812 
L 212.594007 203.257812 
L 216.68967 203.257812 
L 220.785334 203.257812 
L 224.880998 203.257812 
L 228.976661 203.257812 
L 233.072325 203.257812 
L 237.167989 203.257812 
L 241.263652 203.257812 
L 245.359316 203.257812 
L 249.45498 203.257812 
L 253.550643 203.257812 
L 257.646307 203.257812 
L 261.74197 203.257812 
L 265.837634 203.257812 
L 269.933298 203.257812 
L 274.028961 203.257812 
L 278.124625 203.257812 
L 282.220289 203.257812 
L 286.315952 203.257812 
L 290.411616 203.257812 
L 294.50728 203.257812 
L 298.602943 203.257812 
L 302.698607 203.257812 
L 306.79427 203.257812 
L 310.889934 203.257812 
L 314.985598 203.257812 
L 319.081261 203.257812 
L 323.176925 203.257812 
L 327.272589 203.257812 
L 331.368252 203.257812 
L 335.463916 203.257812 
L 339.55958 203.257812 
L 343.655243 203.257812 
L 347.750907 203.257812 
L 351.84657 203.257812 
L 355.942234 203.257812 
L 360.037898 203.257812 
L 364.133561 203.257812 
L 368.229225 203.257812 
L 372.324889 203.257812 
L 376.420552 203.257812 
L 380.516216 203.257812 
L 384.61188 203.257812 
L 388.707543 203.257812 
L 392.803207 203.257812 
L 396.89887 203.257812 
L 400.994534 203.257812 
L 405.090198 203.257812 
L 409.185861 203.257812 
L 413.281525 203.257812 
L 417.377189 203.257812 
L 421.472852 203.257812 
L 425.568516 203.257812 
L 429.66418 203.257812 
L 433.759843 203.257812 
L 437.855507 203.257812 
L 441.95117 203.257812 
L 446.046834 203.257812 
L 450.142498 203.257812 
L 454.238161 203.257812 
L 458.333825 203.257812 
L 462.429489 203.257812 
L 466.525152 203.257812 
L 470.620816 203.257812 
L 474.71648 203.257812 
L 478.812143 203.257812 
L 482.907807 203.257812 
" clip-path="url(#p1b03cc80ee)" style="fill: none; stroke-dasharray: 1.5,2.475; stroke-dashoffset: 0; stroke: #7f7f7f; stroke-width: 1.5"/>
   </g>
   <g id="patch_3">
    <path d="M 52.863125 382.677812 
L 52.863125 23.837812 
" style="fill: none; stroke: #000000; stroke-width: 0.8; stroke-linejoin: miter; stroke-linecap: square"/>
   </g>
   <g id="patch_4">
    <path d="M 503.386125 382.677812 
L 503.386125 23.837812 
" style="fill: none; stroke: #000000; stroke-width: 0.8; stroke-linejoin: miter; stroke-linecap: square"/>
   </g>
   <g id="patch_5">
    <path d="M 52.863125 382.677812 
L 503.386125 382.677812 
" style="fill: none; stroke: #000000; stroke-width: 0.8; stroke-linejoin: miter; stroke-linecap: square"/>
   </g>
   <g id="patch_6">
    <path d="M 52.863125 23.837812 
L 503.386125 23.837812 
" style="fill: none; stroke: #000000; stroke-width: 0.8; stroke-linejoin: miter; stroke-linecap: square"/>
   </g>
   <g id="text_15">
    <!-- Threshold vs Accuracy Score -->
    <g transform="translate(177.604625 17.837812) scale(0.14 -0.14)">
     <defs>
      <path id="DejaVuSans-76" d="M 191 3500 
L 800 3500 
L 1894 563 
L 2988 3500 
L 3597 3500 
L 2284 0 
L 1503 0 
L 191 3500 
z
" transform="scale(0.015625)"/>
     </defs>
     <use xlink:href="#DejaVuSans-54"/>
     <use xlink:href="#DejaVuSans-68" transform="translate(61.083984 0)"/>
     <use xlink:href="#DejaVuSans-72" transform="translate(124.462891 0)"/>
     <use xlink:href="#DejaVuSans-65" transform="translate(163.326172 0)"/>
     <use xlink:href="#DejaVuSans-73" transform="translate(224.849609 0)"/>
     <use xlink:href="#DejaVuSans-68" transform="translate(276.949219 0)"/>
     <use xlink:href="#DejaVuSans-6f" transform="translate(340.328125 0)"/>
     <use xlink:href="#DejaVuSans-6c" transform="translate(401.509766 0)"/>
     <use xlink:href="#DejaVuSans-64" transform="translate(429.292969 0)"/>
     <use xlink:href="#DejaVuSans-20" transform="translate(492.769531 0)"/>
     <use xlink:href="#DejaVuSans-76" transform="translate(524.556641 0)"/>
     <use xlink:href="#DejaVuSans-73" transform="translate(583.736328 0)"/>
     <use xlink:href="#DejaVuSans-20" transform="translate(635.835938 0)"/>
     <use xlink:href="#DejaVuSans-41" transform="translate(667.623047 0)"/>
     <use xlink:href="#DejaVuSans-63" transform="translate(734.28125 0)"/>
     <use xlink:href="#DejaVuSans-63" transform="translate(789.261719 0)"/>
     <use xlink:href="#DejaVuSans-75" transform="translate(844.242188 0)"/>
     <use xlink:href="#DejaVuSans-72" transform="translate(907.621094 0)"/>
     <use xlink:href="#DejaVuSans-61" transform="translate(948.734375 0)"/>
     <use xlink:href="#DejaVuSans-63" transform="translate(1010.013672 0)"/>
     <use xlink:href="#DejaVuSans-79" transform="translate(1064.994141 0)"/>
     <use xlink:href="#DejaVuSans-20" transform="translate(1124.173828 0)"/>
     <use xlink:href="#DejaVuSans-53" transform="translate(1155.960938 0)"/>
     <use xlink:href="#DejaVuSans-63" transform="translate(1219.4375 0)"/>
     <use xlink:href="#DejaVuSans-6f" transform="translate(1274.417969 0)"/>
     <use xlink:href="#DejaVuSans-72" transform="translate(1335.599609 0)"/>
     <use xlink:href="#DejaVuSans-65" transform="translate(1374.462891 0)"/>
    </g>
   </g>
   <g id="legend_1">
    <g id="line2d_21">
     <path d="M 521.396585 151.004687 
L 531.396585 151.004687 
L 541.396585 151.004687 
" style="fill: none; stroke-dasharray: 5.55,2.4; stroke-dashoffset: 0; stroke: #1f77b4; stroke-width: 1.5"/>
    </g>
    <g id="text_16">
     <!-- fixed -->
     <g transform="translate(549.396585 154.504687) scale(0.1 -0.1)">
      <defs>
       <path id="DejaVuSans-66" d="M 2375 4863 
L 2375 4384 
L 1825 4384 
Q 1516 4384 1395 4259 
Q 1275 4134 1275 3809 
L 1275 3500 
L 2222 3500 
L 2222 3053 
L 1275 3053 
L 1275 0 
L 697 0 
L 697 3053 
L 147 3053 
L 147 3500 
L 697 3500 
L 697 3744 
Q 697 4328 969 4595 
Q 1241 4863 1831 4863 
L 2375 4863 
z
" transform="scale(0.015625)"/>
       <path id="DejaVuSans-69" d="M 603 3500 
L 1178 3500 
L 1178 0 
L 603 0 
L 603 3500 
z
M 603 4863 
L 1178 4863 
L 1178 4134 
L 603 4134 
L 603 4863 
z
" transform="scale(0.015625)"/>
       <path id="DejaVuSans-78" d="M 3513 3500 
L 2247 1797 
L 3578 0 
L 2900 0 
L 1881 1375 
L 863 0 
L 184 0 
L 1544 1831 
L 300 3500 
L 978 3500 
L 1906 2253 
L 2834 3500 
L 3513 3500 
z
" transform="scale(0.015625)"/>
      </defs>
      <use xlink:href="#DejaVuSans-66"/>
      <use xlink:href="#DejaVuSans-69" transform="translate(35.205078 0)"/>
      <use xlink:href="#DejaVuSans-78" transform="translate(62.988281 0)"/>
      <use xlink:href="#DejaVuSans-65" transform="translate(119.042969 0)"/>
      <use xlink:href="#DejaVuSans-64" transform="translate(180.566406 0)"/>
     </g>
    </g>
    <g id="line2d_22">
     <path d="M 521.396585 165.682812 
L 531.396585 165.682812 
L 541.396585 165.682812 
" style="fill: none; stroke-dasharray: 1.5,2.475; stroke-dashoffset: 0; stroke: #ff7f0e; stroke-width: 1.5"/>
    </g>
    <g id="text_17">
     <!-- text_len -->
     <g transform="translate(549.396585 169.182812) scale(0.1 -0.1)">
      <defs>
       <path id="DejaVuSans-74" d="M 1172 4494 
L 1172 3500 
L 2356 3500 
L 2356 3053 
L 1172 3053 
L 1172 1153 
Q 1172 725 1289 603 
Q 1406 481 1766 481 
L 2356 481 
L 2356 0 
L 1766 0 
Q 1100 0 847 248 
Q 594 497 594 1153 
L 594 3053 
L 172 3053 
L 172 3500 
L 594 3500 
L 594 4494 
L 1172 4494 
z
" transform="scale(0.015625)"/>
       <path id="DejaVuSans-5f" d="M 3263 -1063 
L 3263 -1509 
L -63 -1509 
L -63 -1063 
L 3263 -1063 
z
" transform="scale(0.015625)"/>
       <path id="DejaVuSans-6e" d="M 3513 2113 
L 3513 0 
L 2938 0 
L 2938 2094 
Q 2938 2591 2744 2837 
Q 2550 3084 2163 3084 
Q 1697 3084 1428 2787 
Q 1159 2491 1159 1978 
L 1159 0 
L 581 0 
L 581 3500 
L 1159 3500 
L 1159 2956 
Q 1366 3272 1645 3428 
Q 1925 3584 2291 3584 
Q 2894 3584 3203 3211 
Q 3513 2838 3513 2113 
z
" transform="scale(0.015625)"/>
      </defs>
      <use xlink:href="#DejaVuSans-74"/>
      <use xlink:href="#DejaVuSans-65" transform="translate(39.208984 0)"/>
      <use xlink:href="#DejaVuSans-78" transform="translate(98.982422 0)"/>
      <use xlink:href="#DejaVuSans-74" transform="translate(158.162109 0)"/>
      <use xlink:href="#DejaVuSans-5f" transform="translate(197.371094 0)"/>
      <use xlink:href="#DejaVuSans-6c" transform="translate(247.371094 0)"/>
      <use xlink:href="#DejaVuSans-65" transform="translate(275.154297 0)"/>
      <use xlink:href="#DejaVuSans-6e" transform="translate(336.677734 0)"/>
     </g>
    </g>
    <g id="line2d_23">
     <path d="M 521.396585 180.639062 
L 531.396585 180.639062 
L 541.396585 180.639062 
" style="fill: none; stroke-dasharray: 9.6,2.4,1.5,2.4; stroke-dashoffset: 0; stroke: #2ca02c; stroke-width: 1.5"/>
    </g>
    <g id="text_18">
     <!-- content -->
     <g transform="translate(549.396585 184.139062) scale(0.1 -0.1)">
      <use xlink:href="#DejaVuSans-63"/>
      <use xlink:href="#DejaVuSans-6f" transform="translate(54.980469 0)"/>
      <use xlink:href="#DejaVuSans-6e" transform="translate(116.162109 0)"/>
      <use xlink:href="#DejaVuSans-74" transform="translate(179.541016 0)"/>
      <use xlink:href="#DejaVuSans-65" transform="translate(218.75 0)"/>
      <use xlink:href="#DejaVuSans-6e" transform="translate(280.273438 0)"/>
      <use xlink:href="#DejaVuSans-74" transform="translate(343.652344 0)"/>
     </g>
    </g>
    <g id="line2d_24">
     <path d="M 521.396585 195.317187 
L 531.396585 195.317187 
L 541.396585 195.317187 
" style="fill: none; stroke-dasharray: 15,4.5; stroke-dashoffset: 7.5; stroke: #d62728; stroke-width: 1.5"/>
    </g>
    <g id="text_19">
     <!-- unsupervised baseline min-max -->
     <g transform="translate(549.396585 198.817187) scale(0.1 -0.1)">
      <defs>
       <path id="DejaVuSans-70" d="M 1159 525 
L 1159 -1331 
L 581 -1331 
L 581 3500 
L 1159 3500 
L 1159 2969 
Q 1341 3281 1617 3432 
Q 1894 3584 2278 3584 
Q 2916 3584 3314 3078 
Q 3713 2572 3713 1747 
Q 3713 922 3314 415 
Q 2916 -91 2278 -91 
Q 1894 -91 1617 61 
Q 1341 213 1159 525 
z
M 3116 1747 
Q 3116 2381 2855 2742 
Q 2594 3103 2138 3103 
Q 1681 3103 1420 2742 
Q 1159 2381 1159 1747 
Q 1159 1113 1420 752 
Q 1681 391 2138 391 
Q 2594 391 2855 752 
Q 3116 1113 3116 1747 
z
" transform="scale(0.015625)"/>
       <path id="DejaVuSans-62" d="M 3116 1747 
Q 3116 2381 2855 2742 
Q 2594 3103 2138 3103 
Q 1681 3103 1420 2742 
Q 1159 2381 1159 1747 
Q 1159 1113 1420 752 
Q 1681 391 2138 391 
Q 2594 391 2855 752 
Q 3116 1113 3116 1747 
z
M 1159 2969 
Q 1341 3281 1617 3432 
Q 1894 3584 2278 3584 
Q 2916 3584 3314 3078 
Q 3713 2572 3713 1747 
Q 3713 922 3314 415 
Q 2916 -91 2278 -91 
Q 1894 -91 1617 61 
Q 1341 213 1159 525 
L 1159 0 
L 581 0 
L 581 4863 
L 1159 4863 
L 1159 2969 
z
" transform="scale(0.015625)"/>
       <path id="DejaVuSans-6d" d="M 3328 2828 
Q 3544 3216 3844 3400 
Q 4144 3584 4550 3584 
Q 5097 3584 5394 3201 
Q 5691 2819 5691 2113 
L 5691 0 
L 5113 0 
L 5113 2094 
Q 5113 2597 4934 2840 
Q 4756 3084 4391 3084 
Q 3944 3084 3684 2787 
Q 3425 2491 3425 1978 
L 3425 0 
L 2847 0 
L 2847 2094 
Q 2847 2600 2669 2842 
Q 2491 3084 2119 3084 
Q 1678 3084 1418 2786 
Q 1159 2488 1159 1978 
L 1159 0 
L 581 0 
L 581 3500 
L 1159 3500 
L 1159 2956 
Q 1356 3278 1631 3431 
Q 1906 3584 2284 3584 
Q 2666 3584 2933 3390 
Q 3200 3197 3328 2828 
z
" transform="scale(0.015625)"/>
       <path id="DejaVuSans-2d" d="M 313 2009 
L 1997 2009 
L 1997 1497 
L 313 1497 
L 313 2009 
z
" transform="scale(0.015625)"/>
      </defs>
      <use xlink:href="#DejaVuSans-75"/>
      <use xlink:href="#DejaVuSans-6e" transform="translate(63.378906 0)"/>
      <use xlink:href="#DejaVuSans-73" transform="translate(126.757812 0)"/>
      <use xlink:href="#DejaVuSans-75" transform="translate(178.857422 0)"/>
      <use xlink:href="#DejaVuSans-70" transform="translate(242.236328 0)"/>
      <use xlink:href="#DejaVuSans-65" transform="translate(305.712891 0)"/>
      <use xlink:href="#DejaVuSans-72" transform="translate(367.236328 0)"/>
      <use xlink:href="#DejaVuSans-76" transform="translate(408.349609 0)"/>
      <use xlink:href="#DejaVuSans-69" transform="translate(467.529297 0)"/>
      <use xlink:href="#DejaVuSans-73" transform="translate(495.3125 0)"/>
      <use xlink:href="#DejaVuSans-65" transform="translate(547.412109 0)"/>
      <use xlink:href="#DejaVuSans-64" transform="translate(608.935547 0)"/>
      <use xlink:href="#DejaVuSans-20" transform="translate(672.412109 0)"/>
      <use xlink:href="#DejaVuSans-62" transform="translate(704.199219 0)"/>
      <use xlink:href="#DejaVuSans-61" transform="translate(767.675781 0)"/>
      <use xlink:href="#DejaVuSans-73" transform="translate(828.955078 0)"/>
      <use xlink:href="#DejaVuSans-65" transform="translate(881.054688 0)"/>
      <use xlink:href="#DejaVuSans-6c" transform="translate(942.578125 0)"/>
      <use xlink:href="#DejaVuSans-69" transform="translate(970.361328 0)"/>
      <use xlink:href="#DejaVuSans-6e" transform="translate(998.144531 0)"/>
      <use xlink:href="#DejaVuSans-65" transform="translate(1061.523438 0)"/>
      <use xlink:href="#DejaVuSans-20" transform="translate(1123.046875 0)"/>
      <use xlink:href="#DejaVuSans-6d" transform="translate(1154.833984 0)"/>
      <use xlink:href="#DejaVuSans-69" transform="translate(1252.246094 0)"/>
      <use xlink:href="#DejaVuSans-6e" transform="translate(1280.029297 0)"/>
      <use xlink:href="#DejaVuSans-2d" transform="translate(1343.408203 0)"/>
      <use xlink:href="#DejaVuSans-6d" transform="translate(1379.492188 0)"/>
      <use xlink:href="#DejaVuSans-61" transform="translate(1476.904297 0)"/>
      <use xlink:href="#DejaVuSans-78" transform="translate(1538.183594 0)"/>
     </g>
    </g>
    <g id="line2d_25">
     <path d="M 521.396585 209.995312 
L 531.396585 209.995312 
L 541.396585 209.995312 
" style="fill: none; stroke-dasharray: 4.5,1.5,1.5,1.5,1.5,1.5; stroke-dashoffset: 0; stroke: #9467bd; stroke-width: 1.5"/>
    </g>
    <g id="text_20">
     <!-- unsupervised baseline cosine -->
     <g transform="translate(549.396585 213.495312) scale(0.1 -0.1)">
      <use xlink:href="#DejaVuSans-75"/>
      <use xlink:href="#DejaVuSans-6e" transform="translate(63.378906 0)"/>
      <use xlink:href="#DejaVuSans-73" transform="translate(126.757812 0)"/>
      <use xlink:href="#DejaVuSans-75" transform="translate(178.857422 0)"/>
      <use xlink:href="#DejaVuSans-70" transform="translate(242.236328 0)"/>
      <use xlink:href="#DejaVuSans-65" transform="translate(305.712891 0)"/>
      <use xlink:href="#DejaVuSans-72" transform="translate(367.236328 0)"/>
      <use xlink:href="#DejaVuSans-76" transform="translate(408.349609 0)"/>
      <use xlink:href="#DejaVuSans-69" transform="translate(467.529297 0)"/>
      <use xlink:href="#DejaVuSans-73" transform="translate(495.3125 0)"/>
      <use xlink:href="#DejaVuSans-65" transform="translate(547.412109 0)"/>
      <use xlink:href="#DejaVuSans-64" transform="translate(608.935547 0)"/>
      <use xlink:href="#DejaVuSans-20" transform="translate(672.412109 0)"/>
      <use xlink:href="#DejaVuSans-62" transform="translate(704.199219 0)"/>
      <use xlink:href="#DejaVuSans-61" transform="translate(767.675781 0)"/>
      <use xlink:href="#DejaVuSans-73" transform="translate(828.955078 0)"/>
      <use xlink:href="#DejaVuSans-65" transform="translate(881.054688 0)"/>
      <use xlink:href="#DejaVuSans-6c" transform="translate(942.578125 0)"/>
      <use xlink:href="#DejaVuSans-69" transform="translate(970.361328 0)"/>
      <use xlink:href="#DejaVuSans-6e" transform="translate(998.144531 0)"/>
      <use xlink:href="#DejaVuSans-65" transform="translate(1061.523438 0)"/>
      <use xlink:href="#DejaVuSans-20" transform="translate(1123.046875 0)"/>
      <use xlink:href="#DejaVuSans-63" transform="translate(1154.833984 0)"/>
      <use xlink:href="#DejaVuSans-6f" transform="translate(1209.814453 0)"/>
      <use xlink:href="#DejaVuSans-73" transform="translate(1270.996094 0)"/>
      <use xlink:href="#DejaVuSans-69" transform="translate(1323.095703 0)"/>
      <use xlink:href="#DejaVuSans-6e" transform="translate(1350.878906 0)"/>
      <use xlink:href="#DejaVuSans-65" transform="translate(1414.257812 0)"/>
     </g>
    </g>
    <g id="line2d_26">
     <path d="M 521.396585 224.673437 
L 531.396585 224.673437 
L 541.396585 224.673437 
" style="fill: none; stroke-dasharray: 4.5,1.5,1.5,1.5; stroke-dashoffset: 0; stroke: #8c564b; stroke-width: 1.5"/>
    </g>
    <g id="text_21">
     <!-- supervised baseline -->
     <g transform="translate(549.396585 228.173437) scale(0.1 -0.1)">
      <use xlink:href="#DejaVuSans-73"/>
      <use xlink:href="#DejaVuSans-75" transform="translate(52.099609 0)"/>
      <use xlink:href="#DejaVuSans-70" transform="translate(115.478516 0)"/>
      <use xlink:href="#DejaVuSans-65" transform="translate(178.955078 0)"/>
      <use xlink:href="#DejaVuSans-72" transform="translate(240.478516 0)"/>
      <use xlink:href="#DejaVuSans-76" transform="translate(281.591797 0)"/>
      <use xlink:href="#DejaVuSans-69" transform="translate(340.771484 0)"/>
      <use xlink:href="#DejaVuSans-73" transform="translate(368.554688 0)"/>
      <use xlink:href="#DejaVuSans-65" transform="translate(420.654297 0)"/>
      <use xlink:href="#DejaVuSans-64" transform="translate(482.177734 0)"/>
      <use xlink:href="#DejaVuSans-20" transform="translate(545.654297 0)"/>
      <use xlink:href="#DejaVuSans-62" transform="translate(577.441406 0)"/>
      <use xlink:href="#DejaVuSans-61" transform="translate(640.917969 0)"/>
      <use xlink:href="#DejaVuSans-73" transform="translate(702.197266 0)"/>
      <use xlink:href="#DejaVuSans-65" transform="translate(754.296875 0)"/>
      <use xlink:href="#DejaVuSans-6c" transform="translate(815.820312 0)"/>
      <use xlink:href="#DejaVuSans-69" transform="translate(843.603516 0)"/>
      <use xlink:href="#DejaVuSans-6e" transform="translate(871.386719 0)"/>
      <use xlink:href="#DejaVuSans-65" transform="translate(934.765625 0)"/>
     </g>
    </g>
    <g id="line2d_27">
     <path d="M 521.396585 239.351562 
L 531.396585 239.351562 
L 541.396585 239.351562 
" style="fill: none; stroke-dasharray: 5.55,2.4; stroke-dashoffset: 0; stroke: #e377c2; stroke-width: 1.5"/>
    </g>
    <g id="text_22">
     <!-- unmasking baseline -->
     <g transform="translate(549.396585 242.851562) scale(0.1 -0.1)">
      <defs>
       <path id="DejaVuSans-6b" d="M 581 4863 
L 1159 4863 
L 1159 1991 
L 2875 3500 
L 3609 3500 
L 1753 1863 
L 3688 0 
L 2938 0 
L 1159 1709 
L 1159 0 
L 581 0 
L 581 4863 
z
" transform="scale(0.015625)"/>
       <path id="DejaVuSans-67" d="M 2906 1791 
Q 2906 2416 2648 2759 
Q 2391 3103 1925 3103 
Q 1463 3103 1205 2759 
Q 947 2416 947 1791 
Q 947 1169 1205 825 
Q 1463 481 1925 481 
Q 2391 481 2648 825 
Q 2906 1169 2906 1791 
z
M 3481 434 
Q 3481 -459 3084 -895 
Q 2688 -1331 1869 -1331 
Q 1566 -1331 1297 -1286 
Q 1028 -1241 775 -1147 
L 775 -588 
Q 1028 -725 1275 -790 
Q 1522 -856 1778 -856 
Q 2344 -856 2625 -561 
Q 2906 -266 2906 331 
L 2906 616 
Q 2728 306 2450 153 
Q 2172 0 1784 0 
Q 1141 0 747 490 
Q 353 981 353 1791 
Q 353 2603 747 3093 
Q 1141 3584 1784 3584 
Q 2172 3584 2450 3431 
Q 2728 3278 2906 2969 
L 2906 3500 
L 3481 3500 
L 3481 434 
z
" transform="scale(0.015625)"/>
      </defs>
      <use xlink:href="#DejaVuSans-75"/>
      <use xlink:href="#DejaVuSans-6e" transform="translate(63.378906 0)"/>
      <use xlink:href="#DejaVuSans-6d" transform="translate(126.757812 0)"/>
      <use xlink:href="#DejaVuSans-61" transform="translate(224.169922 0)"/>
      <use xlink:href="#DejaVuSans-73" transform="translate(285.449219 0)"/>
      <use xlink:href="#DejaVuSans-6b" transform="translate(337.548828 0)"/>
      <use xlink:href="#DejaVuSans-69" transform="translate(395.458984 0)"/>
      <use xlink:href="#DejaVuSans-6e" transform="translate(423.242188 0)"/>
      <use xlink:href="#DejaVuSans-67" transform="translate(486.621094 0)"/>
      <use xlink:href="#DejaVuSans-20" transform="translate(550.097656 0)"/>
      <use xlink:href="#DejaVuSans-62" transform="translate(581.884766 0)"/>
      <use xlink:href="#DejaVuSans-61" transform="translate(645.361328 0)"/>
      <use xlink:href="#DejaVuSans-73" transform="translate(706.640625 0)"/>
      <use xlink:href="#DejaVuSans-65" transform="translate(758.740234 0)"/>
      <use xlink:href="#DejaVuSans-6c" transform="translate(820.263672 0)"/>
      <use xlink:href="#DejaVuSans-69" transform="translate(848.046875 0)"/>
      <use xlink:href="#DejaVuSans-6e" transform="translate(875.830078 0)"/>
      <use xlink:href="#DejaVuSans-65" transform="translate(939.208984 0)"/>
     </g>
    </g>
    <g id="line2d_28">
     <path d="M 521.396585 254.029687 
L 531.396585 254.029687 
L 541.396585 254.029687 
" style="fill: none; stroke-dasharray: 1.5,2.475; stroke-dashoffset: 0; stroke: #7f7f7f; stroke-width: 1.5"/>
    </g>
    <g id="text_23">
     <!-- ppmd baseline -->
     <g transform="translate(549.396585 257.529687) scale(0.1 -0.1)">
      <use xlink:href="#DejaVuSans-70"/>
      <use xlink:href="#DejaVuSans-70" transform="translate(63.476562 0)"/>
      <use xlink:href="#DejaVuSans-6d" transform="translate(126.953125 0)"/>
      <use xlink:href="#DejaVuSans-64" transform="translate(224.365234 0)"/>
      <use xlink:href="#DejaVuSans-20" transform="translate(287.841797 0)"/>
      <use xlink:href="#DejaVuSans-62" transform="translate(319.628906 0)"/>
      <use xlink:href="#DejaVuSans-61" transform="translate(383.105469 0)"/>
      <use xlink:href="#DejaVuSans-73" transform="translate(444.384766 0)"/>
      <use xlink:href="#DejaVuSans-65" transform="translate(496.484375 0)"/>
      <use xlink:href="#DejaVuSans-6c" transform="translate(558.007812 0)"/>
      <use xlink:href="#DejaVuSans-69" transform="translate(585.791016 0)"/>
      <use xlink:href="#DejaVuSans-6e" transform="translate(613.574219 0)"/>
      <use xlink:href="#DejaVuSans-65" transform="translate(676.953125 0)"/>
     </g>
    </g>
   </g>
  </g>
 </g>
 <defs>
  <clipPath id="p1b03cc80ee">
   <rect x="52.863125" y="23.837812" width="450.523" height="358.84"/>
  </clipPath>
 </defs>
</svg>
