<?xml version="1.0" encoding="utf-8" standalone="no"?>
<!DOCTYPE svg PUBLIC "-//W3C//DTD SVG 1.1//EN"
  "http://www.w3.org/Graphics/SVG/1.1/DTD/svg11.dtd">
<svg xmlns:xlink="http://www.w3.org/1999/xlink" width="720pt" height="360pt" viewBox="0 0 720 360" xmlns="http://www.w3.org/2000/svg" version="1.1">
 <metadata>
  <rdf:RDF xmlns:dc="http://purl.org/dc/elements/1.1/" xmlns:cc="http://creativecommons.org/ns#" xmlns:rdf="http://www.w3.org/1999/02/22-rdf-syntax-ns#">
   <cc:Work>
    <dc:type rdf:resource="http://purl.org/dc/dcmitype/StillImage"/>
    <dc:date>2025-08-06T21:19:15.945317</dc:date>
    <dc:format>image/svg+xml</dc:format>
    <dc:creator>
     <cc:Agent>
      <dc:title>Matplotlib v3.10.3, https://matplotlib.org/</dc:title>
     </cc:Agent>
    </dc:creator>
   </cc:Work>
  </rdf:RDF>
 </metadata>
 <defs>
  <style type="text/css">*{stroke-linejoin: round; stroke-linecap: butt}</style>
 </defs>
 <g id="figure_1">
  <g id="patch_1">
   <path d="M 0 360 
L 720 360 
L 720 0 
L 0 0 
z
" style="fill: #ffffff"/>
  </g>
  <g id="axes_1">
   <g id="patch_2">
    <path d="M 243.646495 306.465 
L 476.353505 306.465 
L 476.353505 87.35775 
L 243.646495 87.35775 
z
" style="fill: #ffffff"/>
   </g>
   <g id="matplotlib.axis_1">
    <g id="xtick_1">
     <g id="line2d_1">
      <defs>
       <path id="m54045c9043" d="M 0 0 
L 0 3.5 
" style="stroke: #000000; stroke-width: 0.8"/>
      </defs>
      <g>
       <use xlink:href="#m54045c9043" x="246.668664" y="306.465" style="stroke: #000000; stroke-width: 0.8"/>
      </g>
     </g>
     <g id="text_1">
      <!-- 0.0 -->
      <g transform="translate(238.717101 321.063438) scale(0.1 -0.1)">
       <defs>
        <path id="DejaVuSans-30" d="M 2034 4250 
Q 1547 4250 1301 3770 
Q 1056 3291 1056 2328 
Q 1056 1369 1301 889 
Q 1547 409 2034 409 
Q 2525 409 2770 889 
Q 3016 1369 3016 2328 
Q 3016 3291 2770 3770 
Q 2525 4250 2034 4250 
z
M 2034 4750 
Q 2819 4750 3233 4129 
Q 3647 3509 3647 2328 
Q 3647 1150 3233 529 
Q 2819 -91 2034 -91 
Q 1250 -91 836 529 
Q 422 1150 422 2328 
Q 422 3509 836 4129 
Q 1250 4750 2034 4750 
z
" transform="scale(0.015625)"/>
        <path id="DejaVuSans-2e" d="M 684 794 
L 1344 794 
L 1344 0 
L 684 0 
L 684 794 
z
" transform="scale(0.015625)"/>
       </defs>
       <use xlink:href="#DejaVuSans-30"/>
       <use xlink:href="#DejaVuSans-2e" transform="translate(63.623047 0)"/>
       <use xlink:href="#DejaVuSans-30" transform="translate(95.410156 0)"/>
      </g>
     </g>
    </g>
    <g id="xtick_2">
     <g id="line2d_2">
      <g>
       <use xlink:href="#m54045c9043" x="290.490114" y="306.465" style="stroke: #000000; stroke-width: 0.8"/>
      </g>
     </g>
     <g id="text_2">
      <!-- 0.2 -->
      <g transform="translate(282.538551 321.063438) scale(0.1 -0.1)">
       <defs>
        <path id="DejaVuSans-32" d="M 1228 531 
L 3431 531 
L 3431 0 
L 469 0 
L 469 531 
Q 828 903 1448 1529 
Q 2069 2156 2228 2338 
Q 2531 2678 2651 2914 
Q 2772 3150 2772 3378 
Q 2772 3750 2511 3984 
Q 2250 4219 1831 4219 
Q 1534 4219 1204 4116 
Q 875 4013 500 3803 
L 500 4441 
Q 881 4594 1212 4672 
Q 1544 4750 1819 4750 
Q 2544 4750 2975 4387 
Q 3406 4025 3406 3419 
Q 3406 3131 3298 2873 
Q 3191 2616 2906 2266 
Q 2828 2175 2409 1742 
Q 1991 1309 1228 531 
z
" transform="scale(0.015625)"/>
       </defs>
       <use xlink:href="#DejaVuSans-30"/>
       <use xlink:href="#DejaVuSans-2e" transform="translate(63.623047 0)"/>
       <use xlink:href="#DejaVuSans-32" transform="translate(95.410156 0)"/>
      </g>
     </g>
    </g>
    <g id="xtick_3">
     <g id="line2d_3">
      <g>
       <use xlink:href="#m54045c9043" x="334.311564" y="306.465" style="stroke: #000000; stroke-width: 0.8"/>
      </g>
     </g>
     <g id="text_3">
      <!-- 0.4 -->
      <g transform="translate(326.360001 321.063438) scale(0.1 -0.1)">
       <defs>
        <path id="DejaVuSans-34" d="M 2419 4116 
L 825 1625 
L 2419 1625 
L 2419 4116 
z
M 2253 4666 
L 3047 4666 
L 3047 1625 
L 3713 1625 
L 3713 1100 
L 3047 1100 
L 3047 0 
L 2419 0 
L 2419 1100 
L 313 1100 
L 313 1709 
L 2253 4666 
z
" transform="scale(0.015625)"/>
       </defs>
       <use xlink:href="#DejaVuSans-30"/>
       <use xlink:href="#DejaVuSans-2e" transform="translate(63.623047 0)"/>
       <use xlink:href="#DejaVuSans-34" transform="translate(95.410156 0)"/>
      </g>
     </g>
    </g>
    <g id="xtick_4">
     <g id="line2d_4">
      <g>
       <use xlink:href="#m54045c9043" x="378.133014" y="306.465" style="stroke: #000000; stroke-width: 0.8"/>
      </g>
     </g>
     <g id="text_4">
      <!-- 0.6 -->
      <g transform="translate(370.181451 321.063438) scale(0.1 -0.1)">
       <defs>
        <path id="DejaVuSans-36" d="M 2113 2584 
Q 1688 2584 1439 2293 
Q 1191 2003 1191 1497 
Q 1191 994 1439 701 
Q 1688 409 2113 409 
Q 2538 409 2786 701 
Q 3034 994 3034 1497 
Q 3034 2003 2786 2293 
Q 2538 2584 2113 2584 
z
M 3366 4563 
L 3366 3988 
Q 3128 4100 2886 4159 
Q 2644 4219 2406 4219 
Q 1781 4219 1451 3797 
Q 1122 3375 1075 2522 
Q 1259 2794 1537 2939 
Q 1816 3084 2150 3084 
Q 2853 3084 3261 2657 
Q 3669 2231 3669 1497 
Q 3669 778 3244 343 
Q 2819 -91 2113 -91 
Q 1303 -91 875 529 
Q 447 1150 447 2328 
Q 447 3434 972 4092 
Q 1497 4750 2381 4750 
Q 2619 4750 2861 4703 
Q 3103 4656 3366 4563 
z
" transform="scale(0.015625)"/>
       </defs>
       <use xlink:href="#DejaVuSans-30"/>
       <use xlink:href="#DejaVuSans-2e" transform="translate(63.623047 0)"/>
       <use xlink:href="#DejaVuSans-36" transform="translate(95.410156 0)"/>
      </g>
     </g>
    </g>
    <g id="xtick_5">
     <g id="line2d_5">
      <g>
       <use xlink:href="#m54045c9043" x="421.954464" y="306.465" style="stroke: #000000; stroke-width: 0.8"/>
      </g>
     </g>
     <g id="text_5">
      <!-- 0.8 -->
      <g transform="translate(414.002901 321.063438) scale(0.1 -0.1)">
       <defs>
        <path id="DejaVuSans-38" d="M 2034 2216 
Q 1584 2216 1326 1975 
Q 1069 1734 1069 1313 
Q 1069 891 1326 650 
Q 1584 409 2034 409 
Q 2484 409 2743 651 
Q 3003 894 3003 1313 
Q 3003 1734 2745 1975 
Q 2488 2216 2034 2216 
z
M 1403 2484 
Q 997 2584 770 2862 
Q 544 3141 544 3541 
Q 544 4100 942 4425 
Q 1341 4750 2034 4750 
Q 2731 4750 3128 4425 
Q 3525 4100 3525 3541 
Q 3525 3141 3298 2862 
Q 3072 2584 2669 2484 
Q 3125 2378 3379 2068 
Q 3634 1759 3634 1313 
Q 3634 634 3220 271 
Q 2806 -91 2034 -91 
Q 1263 -91 848 271 
Q 434 634 434 1313 
Q 434 1759 690 2068 
Q 947 2378 1403 2484 
z
M 1172 3481 
Q 1172 3119 1398 2916 
Q 1625 2713 2034 2713 
Q 2441 2713 2670 2916 
Q 2900 3119 2900 3481 
Q 2900 3844 2670 4047 
Q 2441 4250 2034 4250 
Q 1625 4250 1398 4047 
Q 1172 3844 1172 3481 
z
" transform="scale(0.015625)"/>
       </defs>
       <use xlink:href="#DejaVuSans-30"/>
       <use xlink:href="#DejaVuSans-2e" transform="translate(63.623047 0)"/>
       <use xlink:href="#DejaVuSans-38" transform="translate(95.410156 0)"/>
      </g>
     </g>
    </g>
    <g id="xtick_6">
     <g id="line2d_6">
      <g>
       <use xlink:href="#m54045c9043" x="465.775914" y="306.465" style="stroke: #000000; stroke-width: 0.8"/>
      </g>
     </g>
     <g id="text_6">
      <!-- 1.0 -->
      <g transform="translate(457.824351 321.063438) scale(0.1 -0.1)">
       <defs>
        <path id="DejaVuSans-31" d="M 794 531 
L 1825 531 
L 1825 4091 
L 703 3866 
L 703 4441 
L 1819 4666 
L 2450 4666 
L 2450 531 
L 3481 531 
L 3481 0 
L 794 0 
L 794 531 
z
" transform="scale(0.015625)"/>
       </defs>
       <use xlink:href="#DejaVuSans-31"/>
       <use xlink:href="#DejaVuSans-2e" transform="translate(63.623047 0)"/>
       <use xlink:href="#DejaVuSans-30" transform="translate(95.410156 0)"/>
      </g>
     </g>
    </g>
    <g id="text_7">
     <!-- Recall $\frac{{TP}}{{TP + FN}}$ -->
     <g transform="translate(317.23 340.443125) scale(0.14 -0.14)">
      <defs>
       <path id="DejaVuSans-52" d="M 2841 2188 
Q 3044 2119 3236 1894 
Q 3428 1669 3622 1275 
L 4263 0 
L 3584 0 
L 2988 1197 
Q 2756 1666 2539 1819 
Q 2322 1972 1947 1972 
L 1259 1972 
L 1259 0 
L 628 0 
L 628 4666 
L 2053 4666 
Q 2853 4666 3247 4331 
Q 3641 3997 3641 3322 
Q 3641 2881 3436 2590 
Q 3231 2300 2841 2188 
z
M 1259 4147 
L 1259 2491 
L 2053 2491 
Q 2509 2491 2742 2702 
Q 2975 2913 2975 3322 
Q 2975 3731 2742 3939 
Q 2509 4147 2053 4147 
L 1259 4147 
z
" transform="scale(0.015625)"/>
       <path id="DejaVuSans-65" d="M 3597 1894 
L 3597 1613 
L 953 1613 
Q 991 1019 1311 708 
Q 1631 397 2203 397 
Q 2534 397 2845 478 
Q 3156 559 3463 722 
L 3463 178 
Q 3153 47 2828 -22 
Q 2503 -91 2169 -91 
Q 1331 -91 842 396 
Q 353 884 353 1716 
Q 353 2575 817 3079 
Q 1281 3584 2069 3584 
Q 2775 3584 3186 3129 
Q 3597 2675 3597 1894 
z
M 3022 2063 
Q 3016 2534 2758 2815 
Q 2500 3097 2075 3097 
Q 1594 3097 1305 2825 
Q 1016 2553 972 2059 
L 3022 2063 
z
" transform="scale(0.015625)"/>
       <path id="DejaVuSans-63" d="M 3122 3366 
L 3122 2828 
Q 2878 2963 2633 3030 
Q 2388 3097 2138 3097 
Q 1578 3097 1268 2742 
Q 959 2388 959 1747 
Q 959 1106 1268 751 
Q 1578 397 2138 397 
Q 2388 397 2633 464 
Q 2878 531 3122 666 
L 3122 134 
Q 2881 22 2623 -34 
Q 2366 -91 2075 -91 
Q 1284 -91 818 406 
Q 353 903 353 1747 
Q 353 2603 823 3093 
Q 1294 3584 2113 3584 
Q 2378 3584 2631 3529 
Q 2884 3475 3122 3366 
z
" transform="scale(0.015625)"/>
       <path id="DejaVuSans-61" d="M 2194 1759 
Q 1497 1759 1228 1600 
Q 959 1441 959 1056 
Q 959 750 1161 570 
Q 1363 391 1709 391 
Q 2188 391 2477 730 
Q 2766 1069 2766 1631 
L 2766 1759 
L 2194 1759 
z
M 3341 1997 
L 3341 0 
L 2766 0 
L 2766 531 
Q 2569 213 2275 61 
Q 1981 -91 1556 -91 
Q 1019 -91 701 211 
Q 384 513 384 1019 
Q 384 1609 779 1909 
Q 1175 2209 1959 2209 
L 2766 2209 
L 2766 2266 
Q 2766 2663 2505 2880 
Q 2244 3097 1772 3097 
Q 1472 3097 1187 3025 
Q 903 2953 641 2809 
L 641 3341 
Q 956 3463 1253 3523 
Q 1550 3584 1831 3584 
Q 2591 3584 2966 3190 
Q 3341 2797 3341 1997 
z
" transform="scale(0.015625)"/>
       <path id="DejaVuSans-6c" d="M 603 4863 
L 1178 4863 
L 1178 0 
L 603 0 
L 603 4863 
z
" transform="scale(0.015625)"/>
       <path id="DejaVuSans-20" transform="scale(0.015625)"/>
       <path id="DejaVuSans-Oblique-54" d="M 378 4666 
L 4325 4666 
L 4225 4134 
L 2559 4134 
L 1759 0 
L 1125 0 
L 1925 4134 
L 275 4134 
L 378 4666 
z
" transform="scale(0.015625)"/>
       <path id="DejaVuSans-Oblique-50" d="M 1081 4666 
L 2541 4666 
Q 3178 4666 3512 4369 
Q 3847 4072 3847 3500 
Q 3847 2731 3353 2303 
Q 2859 1875 1966 1875 
L 1172 1875 
L 806 0 
L 172 0 
L 1081 4666 
z
M 1613 4147 
L 1275 2394 
L 2069 2394 
Q 2606 2394 2893 2669 
Q 3181 2944 3181 3456 
Q 3181 3784 2986 3965 
Q 2791 4147 2438 4147 
L 1613 4147 
z
" transform="scale(0.015625)"/>
       <path id="DejaVuSans-2b" d="M 2944 4013 
L 2944 2272 
L 4684 2272 
L 4684 1741 
L 2944 1741 
L 2944 0 
L 2419 0 
L 2419 1741 
L 678 1741 
L 678 2272 
L 2419 2272 
L 2419 4013 
L 2944 4013 
z
" transform="scale(0.015625)"/>
       <path id="DejaVuSans-Oblique-46" d="M 1081 4666 
L 3756 4666 
L 3653 4134 
L 1606 4134 
L 1338 2759 
L 3188 2759 
L 3084 2228 
L 1234 2228 
L 800 0 
L 172 0 
L 1081 4666 
z
" transform="scale(0.015625)"/>
       <path id="DejaVuSans-Oblique-4e" d="M 1081 4666 
L 1931 4666 
L 3219 666 
L 4000 4666 
L 4616 4666 
L 3706 0 
L 2853 0 
L 1569 4025 
L 788 0 
L 172 0 
L 1081 4666 
z
" transform="scale(0.015625)"/>
      </defs>
      <use xlink:href="#DejaVuSans-52" transform="translate(0 0.16875)"/>
      <use xlink:href="#DejaVuSans-65" transform="translate(69.482422 0.16875)"/>
      <use xlink:href="#DejaVuSans-63" transform="translate(131.005859 0.16875)"/>
      <use xlink:href="#DejaVuSans-61" transform="translate(185.986328 0.16875)"/>
      <use xlink:href="#DejaVuSans-6c" transform="translate(247.265625 0.16875)"/>
      <use xlink:href="#DejaVuSans-6c" transform="translate(275.048828 0.16875)"/>
      <use xlink:href="#DejaVuSans-20" transform="translate(302.832031 0.16875)"/>
      <use xlink:href="#DejaVuSans-Oblique-54" transform="translate(423.619141 43.965625) scale(0.7)"/>
      <use xlink:href="#DejaVuSans-Oblique-50" transform="translate(466.37793 43.965625) scale(0.7)"/>
      <use xlink:href="#DejaVuSans-Oblique-54" transform="translate(334.619141 -38.31875) scale(0.7)"/>
      <use xlink:href="#DejaVuSans-Oblique-50" transform="translate(377.37793 -38.31875) scale(0.7)"/>
      <use xlink:href="#DejaVuSans-2b" transform="translate(433.227539 -38.31875) scale(0.7)"/>
      <use xlink:href="#DejaVuSans-Oblique-46" transform="translate(505.517578 -38.31875) scale(0.7)"/>
      <use xlink:href="#DejaVuSans-Oblique-4e" transform="translate(545.78125 -38.31875) scale(0.7)"/>
      <path d="M 334.619141 18.965625 
L 334.619141 25.215625 
L 598.144531 25.215625 
L 598.144531 18.965625 
L 334.619141 18.965625 
z
"/>
     </g>
    </g>
   </g>
   <g id="matplotlib.axis_2">
    <g id="ytick_1">
     <g id="line2d_7">
      <defs>
       <path id="m47640132bd" d="M 0 0 
L -3.5 0 
" style="stroke: #000000; stroke-width: 0.8"/>
      </defs>
      <g>
       <use xlink:href="#m47640132bd" x="243.646495" y="306.465" style="stroke: #000000; stroke-width: 0.8"/>
      </g>
     </g>
     <g id="text_8">
      <!-- 0.0 -->
      <g transform="translate(220.74337 310.264219) scale(0.1 -0.1)">
       <use xlink:href="#DejaVuSans-30"/>
       <use xlink:href="#DejaVuSans-2e" transform="translate(63.623047 0)"/>
       <use xlink:href="#DejaVuSans-30" transform="translate(95.410156 0)"/>
      </g>
     </g>
    </g>
    <g id="ytick_2">
     <g id="line2d_8">
      <g>
       <use xlink:href="#m47640132bd" x="243.646495" y="262.64355" style="stroke: #000000; stroke-width: 0.8"/>
      </g>
     </g>
     <g id="text_9">
      <!-- 0.2 -->
      <g transform="translate(220.74337 266.442769) scale(0.1 -0.1)">
       <use xlink:href="#DejaVuSans-30"/>
       <use xlink:href="#DejaVuSans-2e" transform="translate(63.623047 0)"/>
       <use xlink:href="#DejaVuSans-32" transform="translate(95.410156 0)"/>
      </g>
     </g>
    </g>
    <g id="ytick_3">
     <g id="line2d_9">
      <g>
       <use xlink:href="#m47640132bd" x="243.646495" y="218.8221" style="stroke: #000000; stroke-width: 0.8"/>
      </g>
     </g>
     <g id="text_10">
      <!-- 0.4 -->
      <g transform="translate(220.74337 222.621319) scale(0.1 -0.1)">
       <use xlink:href="#DejaVuSans-30"/>
       <use xlink:href="#DejaVuSans-2e" transform="translate(63.623047 0)"/>
       <use xlink:href="#DejaVuSans-34" transform="translate(95.410156 0)"/>
      </g>
     </g>
    </g>
    <g id="ytick_4">
     <g id="line2d_10">
      <g>
       <use xlink:href="#m47640132bd" x="243.646495" y="175.00065" style="stroke: #000000; stroke-width: 0.8"/>
      </g>
     </g>
     <g id="text_11">
      <!-- 0.6 -->
      <g transform="translate(220.74337 178.799869) scale(0.1 -0.1)">
       <use xlink:href="#DejaVuSans-30"/>
       <use xlink:href="#DejaVuSans-2e" transform="translate(63.623047 0)"/>
       <use xlink:href="#DejaVuSans-36" transform="translate(95.410156 0)"/>
      </g>
     </g>
    </g>
    <g id="ytick_5">
     <g id="line2d_11">
      <g>
       <use xlink:href="#m47640132bd" x="243.646495" y="131.1792" style="stroke: #000000; stroke-width: 0.8"/>
      </g>
     </g>
     <g id="text_12">
      <!-- 0.8 -->
      <g transform="translate(220.74337 134.978419) scale(0.1 -0.1)">
       <use xlink:href="#DejaVuSans-30"/>
       <use xlink:href="#DejaVuSans-2e" transform="translate(63.623047 0)"/>
       <use xlink:href="#DejaVuSans-38" transform="translate(95.410156 0)"/>
      </g>
     </g>
    </g>
    <g id="ytick_6">
     <g id="line2d_12">
      <g>
       <use xlink:href="#m47640132bd" x="243.646495" y="87.35775" style="stroke: #000000; stroke-width: 0.8"/>
      </g>
     </g>
     <g id="text_13">
      <!-- 1.0 -->
      <g transform="translate(220.74337 91.156969) scale(0.1 -0.1)">
       <use xlink:href="#DejaVuSans-31"/>
       <use xlink:href="#DejaVuSans-2e" transform="translate(63.623047 0)"/>
       <use xlink:href="#DejaVuSans-30" transform="translate(95.410156 0)"/>
      </g>
     </g>
    </g>
    <g id="text_14">
     <!-- Precision $\frac{{TP}}{{TP + FP}}$ -->
     <g transform="translate(211.28337 249.271375) rotate(-90) scale(0.14 -0.14)">
      <defs>
       <path id="DejaVuSans-50" d="M 1259 4147 
L 1259 2394 
L 2053 2394 
Q 2494 2394 2734 2622 
Q 2975 2850 2975 3272 
Q 2975 3691 2734 3919 
Q 2494 4147 2053 4147 
L 1259 4147 
z
M 628 4666 
L 2053 4666 
Q 2838 4666 3239 4311 
Q 3641 3956 3641 3272 
Q 3641 2581 3239 2228 
Q 2838 1875 2053 1875 
L 1259 1875 
L 1259 0 
L 628 0 
L 628 4666 
z
" transform="scale(0.015625)"/>
       <path id="DejaVuSans-72" d="M 2631 2963 
Q 2534 3019 2420 3045 
Q 2306 3072 2169 3072 
Q 1681 3072 1420 2755 
Q 1159 2438 1159 1844 
L 1159 0 
L 581 0 
L 581 3500 
L 1159 3500 
L 1159 2956 
Q 1341 3275 1631 3429 
Q 1922 3584 2338 3584 
Q 2397 3584 2469 3576 
Q 2541 3569 2628 3553 
L 2631 2963 
z
" transform="scale(0.015625)"/>
       <path id="DejaVuSans-69" d="M 603 3500 
L 1178 3500 
L 1178 0 
L 603 0 
L 603 3500 
z
M 603 4863 
L 1178 4863 
L 1178 4134 
L 603 4134 
L 603 4863 
z
" transform="scale(0.015625)"/>
       <path id="DejaVuSans-73" d="M 2834 3397 
L 2834 2853 
Q 2591 2978 2328 3040 
Q 2066 3103 1784 3103 
Q 1356 3103 1142 2972 
Q 928 2841 928 2578 
Q 928 2378 1081 2264 
Q 1234 2150 1697 2047 
L 1894 2003 
Q 2506 1872 2764 1633 
Q 3022 1394 3022 966 
Q 3022 478 2636 193 
Q 2250 -91 1575 -91 
Q 1294 -91 989 -36 
Q 684 19 347 128 
L 347 722 
Q 666 556 975 473 
Q 1284 391 1588 391 
Q 1994 391 2212 530 
Q 2431 669 2431 922 
Q 2431 1156 2273 1281 
Q 2116 1406 1581 1522 
L 1381 1569 
Q 847 1681 609 1914 
Q 372 2147 372 2553 
Q 372 3047 722 3315 
Q 1072 3584 1716 3584 
Q 2034 3584 2315 3537 
Q 2597 3491 2834 3397 
z
" transform="scale(0.015625)"/>
       <path id="DejaVuSans-6f" d="M 1959 3097 
Q 1497 3097 1228 2736 
Q 959 2375 959 1747 
Q 959 1119 1226 758 
Q 1494 397 1959 397 
Q 2419 397 2687 759 
Q 2956 1122 2956 1747 
Q 2956 2369 2687 2733 
Q 2419 3097 1959 3097 
z
M 1959 3584 
Q 2709 3584 3137 3096 
Q 3566 2609 3566 1747 
Q 3566 888 3137 398 
Q 2709 -91 1959 -91 
Q 1206 -91 779 398 
Q 353 888 353 1747 
Q 353 2609 779 3096 
Q 1206 3584 1959 3584 
z
" transform="scale(0.015625)"/>
       <path id="DejaVuSans-6e" d="M 3513 2113 
L 3513 0 
L 2938 0 
L 2938 2094 
Q 2938 2591 2744 2837 
Q 2550 3084 2163 3084 
Q 1697 3084 1428 2787 
Q 1159 2491 1159 1978 
L 1159 0 
L 581 0 
L 581 3500 
L 1159 3500 
L 1159 2956 
Q 1366 3272 1645 3428 
Q 1925 3584 2291 3584 
Q 2894 3584 3203 3211 
Q 3513 2838 3513 2113 
z
" transform="scale(0.015625)"/>
      </defs>
      <use xlink:href="#DejaVuSans-50" transform="translate(0 0.16875)"/>
      <use xlink:href="#DejaVuSans-72" transform="translate(60.302734 0.16875)"/>
      <use xlink:href="#DejaVuSans-65" transform="translate(101.416016 0.16875)"/>
      <use xlink:href="#DejaVuSans-63" transform="translate(162.939453 0.16875)"/>
      <use xlink:href="#DejaVuSans-69" transform="translate(217.919922 0.16875)"/>
      <use xlink:href="#DejaVuSans-73" transform="translate(245.703125 0.16875)"/>
      <use xlink:href="#DejaVuSans-69" transform="translate(297.802734 0.16875)"/>
      <use xlink:href="#DejaVuSans-6f" transform="translate(325.585938 0.16875)"/>
      <use xlink:href="#DejaVuSans-6e" transform="translate(386.767578 0.16875)"/>
      <use xlink:href="#DejaVuSans-20" transform="translate(450.146484 0.16875)"/>
      <use xlink:href="#DejaVuSans-Oblique-54" transform="translate(565.933594 43.965625) scale(0.7)"/>
      <use xlink:href="#DejaVuSans-Oblique-50" transform="translate(608.692383 43.965625) scale(0.7)"/>
      <use xlink:href="#DejaVuSans-Oblique-54" transform="translate(481.933594 -38.31875) scale(0.7)"/>
      <use xlink:href="#DejaVuSans-Oblique-50" transform="translate(524.692383 -38.31875) scale(0.7)"/>
      <use xlink:href="#DejaVuSans-2b" transform="translate(580.541992 -38.31875) scale(0.7)"/>
      <use xlink:href="#DejaVuSans-Oblique-46" transform="translate(652.832031 -38.31875) scale(0.7)"/>
      <use xlink:href="#DejaVuSans-Oblique-50" transform="translate(693.095703 -38.31875) scale(0.7)"/>
      <path d="M 481.933594 18.965625 
L 481.933594 25.215625 
L 735.307617 25.215625 
L 735.307617 18.965625 
L 481.933594 18.965625 
z
"/>
     </g>
    </g>
   </g>
   <g id="line2d_13">
    <path d="M 465.775914 196.911375 
L 458.220491 198.833368 
L 458.220491 196.911375 
L 458.220491 194.919491 
L 458.220491 192.853833 
L 458.220491 190.710226 
L 450.665069 192.697774 
L 450.665069 190.467044 
L 443.109647 192.52923 
L 443.109647 190.20401 
L 435.554224 192.346641 
L 435.554224 189.91859 
L 435.554224 184.73875 
L 435.554224 179.077064 
L 427.998802 181.260857 
L 427.998802 178.207098 
L 427.998802 175.00065 
L 420.443379 177.247904 
L 420.443379 173.847454 
L 405.332534 178.652438 
L 405.332534 175.00065 
L 405.332534 171.134051 
L 397.777112 173.672727 
L 390.22169 176.37007 
L 382.666267 179.241435 
L 382.666267 175.00065 
L 382.666267 170.467397 
L 375.110845 168.508583 
L 375.110845 163.202567 
L 375.110845 157.47207 
L 367.555422 160.3935 
L 367.555422 154.042565 
L 360 157.073693 
L 352.444578 160.3935 
L 344.889155 164.045288 
L 337.333733 168.081474 
L 329.77831 172.566125 
L 314.667466 183.217172 
L 314.667466 175.00065 
L 314.667466 165.610339 
L 314.667466 154.775365 
L 307.112043 160.3935 
L 307.112043 147.114273 
L 299.556621 153.089925 
L 299.556621 136.04825 
L 299.556621 114.746156 
L 292.001198 118.658786 
L 284.445776 123.875625 
L 284.445776 87.35775 
" clip-path="url(#p5e36ef39c8)" style="fill: none; stroke: #1f77b4; stroke-width: 1.5; stroke-linecap: square"/>
   </g>
   <g id="line2d_14">
    <path d="M 465.775914 196.911375 
L 465.775914 194.989382 
L 465.775914 192.998746 
L 465.775914 190.935723 
L 465.775914 188.796292 
L 465.775914 186.576127 
L 465.775914 184.270572 
L 465.775914 181.874603 
L 465.775914 179.382795 
L 465.775914 176.789281 
L 465.775914 174.087703 
L 458.220491 175.933021 
L 458.220491 173.09537 
L 458.220491 170.1316 
L 458.220491 167.033114 
L 458.220491 163.790512 
L 458.220491 160.3935 
L 458.220491 156.83078 
L 458.220491 153.089925 
L 458.220491 149.157231 
L 450.665069 150.783533 
L 443.109647 152.497743 
L 443.109647 148.220875 
L 435.554224 149.959821 
L 427.998802 151.801059 
L 420.443379 153.753886 
L 420.443379 148.981664 
L 412.887957 150.969532 
L 412.887957 145.78635 
L 412.887957 140.245707 
L 405.332534 142.134563 
L 405.332534 136.04825 
L 397.777112 137.920962 
L 390.22169 139.94349 
L 382.666267 142.134563 
L 382.666267 134.989761 
L 382.666267 127.195432 
L 382.666267 118.658786 
L 382.666267 109.268475 
L 375.110845 110.421671 
L 375.110845 99.530375 
L 367.555422 100.246412 
L 360 101.051953 
L 352.444578 101.9649 
L 344.889155 103.008268 
L 337.333733 104.212154 
L 329.77831 105.616688 
L 329.77831 87.35775 
L 322.222888 87.35775 
L 314.667466 87.35775 
L 307.112043 87.35775 
L 299.556621 87.35775 
L 292.001198 87.35775 
L 284.445776 87.35775 
L 276.890353 87.35775 
L 269.334931 87.35775 
L 261.779509 87.35775 
L 254.224086 87.35775 
" clip-path="url(#p5e36ef39c8)" style="fill: none; stroke-dasharray: 5.55,2.4; stroke-dashoffset: 0; stroke: #ff7f0e; stroke-width: 1.5"/>
   </g>
   <g id="line2d_15">
    <path d="M 465.775914 196.911375 
L 465.775914 194.989382 
L 465.775914 192.998746 
L 465.775914 190.935723 
L 465.775914 188.796292 
L 465.775914 186.576127 
L 465.775914 184.270572 
L 465.775914 181.874603 
L 465.775914 179.382795 
L 465.775914 176.789281 
L 465.775914 174.087703 
L 465.775914 171.271165 
L 465.775914 168.332168 
L 465.775914 165.26255 
L 465.775914 162.053403 
L 458.220491 163.790512 
L 458.220491 160.3935 
L 458.220491 156.83078 
L 458.220491 153.089925 
L 458.220491 149.157231 
L 450.665069 150.783533 
L 450.665069 146.575926 
L 450.665069 142.134563 
L 450.665069 137.439407 
L 443.109647 138.912397 
L 435.554224 140.474659 
L 435.554224 135.287461 
L 427.998802 136.833581 
L 420.443379 138.482775 
L 420.443379 132.690284 
L 420.443379 126.484045 
L 412.887957 127.933167 
L 412.887957 121.066558 
L 405.332534 122.41491 
L 405.332534 114.746156 
L 405.332534 106.410554 
L 405.332534 97.31717 
L 397.777112 97.791429 
L 390.22169 98.313113 
L 382.666267 98.889711 
L 375.110845 99.530375 
L 367.555422 100.246412 
L 367.555422 87.35775 
L 360 87.35775 
L 352.444578 87.35775 
L 344.889155 87.35775 
L 337.333733 87.35775 
L 329.77831 87.35775 
L 322.222888 87.35775 
L 314.667466 87.35775 
L 307.112043 87.35775 
L 299.556621 87.35775 
L 292.001198 87.35775 
L 284.445776 87.35775 
L 276.890353 87.35775 
L 269.334931 87.35775 
L 261.779509 87.35775 
L 254.224086 87.35775 
" clip-path="url(#p5e36ef39c8)" style="fill: none; stroke-dasharray: 5.55,2.4; stroke-dashoffset: 0; stroke: #2ca02c; stroke-width: 1.5"/>
   </g>
   <g id="line2d_16">
    <path d="M 465.775914 196.911375 
L 465.775914 194.989382 
L 465.775914 192.998746 
L 465.775914 190.935723 
L 458.220491 192.853833 
L 450.665069 194.844325 
L 450.665069 192.697774 
L 443.109647 194.763265 
L 435.554224 196.911375 
L 435.554224 194.675587 
L 427.998802 196.911375 
L 427.998802 194.580447 
L 427.998802 192.148174 
L 420.443379 194.47685 
L 420.443379 191.931665 
L 412.887957 194.363616 
L 412.887957 191.694536 
L 405.332534 194.239335 
L 405.332534 191.433694 
L 405.332534 188.484173 
L 405.332534 185.379414 
L 397.777112 188.028649 
L 397.777112 184.73875 
L 390.22169 187.521064 
L 382.666267 190.467044 
L 382.666267 186.951955 
L 375.110845 190.064273 
L 367.555422 193.377387 
L 367.555422 189.6078 
L 367.555422 185.578241 
L 367.555422 181.260857 
L 367.555422 176.623667 
L 367.555422 171.629769 
L 367.555422 166.23636 
L 367.555422 160.3935 
L 360 163.568967 
L 360 157.073693 
L 360 149.959821 
L 360 142.134563 
L 360 133.485592 
L 360 123.875625 
L 352.444578 126.023735 
L 352.444578 114.746156 
L 344.889155 116.57205 
L 337.333733 118.658786 
L 329.77831 121.066558 
L 322.222888 123.875625 
L 314.667466 127.195432 
L 307.112043 131.1792 
L 299.556621 136.04825 
L 299.556621 114.746156 
L 292.001198 118.658786 
L 284.445776 123.875625 
L 276.890353 131.1792 
L 269.334931 142.134563 
L 269.334931 87.35775 
L 261.779509 87.35775 
L 254.224086 87.35775 
" clip-path="url(#p5e36ef39c8)" style="fill: none; stroke-dasharray: 5.55,2.4; stroke-dashoffset: 0; stroke: #d62728; stroke-width: 1.5"/>
   </g>
   <g id="patch_3">
    <path d="M 243.646495 306.465 
L 243.646495 87.35775 
" style="fill: none; stroke: #000000; stroke-width: 0.8; stroke-linejoin: miter; stroke-linecap: square"/>
   </g>
   <g id="patch_4">
    <path d="M 476.353505 306.465 
L 476.353505 87.35775 
" style="fill: none; stroke: #000000; stroke-width: 0.8; stroke-linejoin: miter; stroke-linecap: square"/>
   </g>
   <g id="patch_5">
    <path d="M 243.646495 306.465 
L 476.353505 306.465 
" style="fill: none; stroke: #000000; stroke-width: 0.8; stroke-linejoin: miter; stroke-linecap: square"/>
   </g>
   <g id="patch_6">
    <path d="M 243.646495 87.35775 
L 476.353505 87.35775 
" style="fill: none; stroke: #000000; stroke-width: 0.8; stroke-linejoin: miter; stroke-linecap: square"/>
   </g>
   <g id="text_15">
    <!-- Precision-Recall Curve for Different Author Data -->
    <g transform="translate(216.773438 26.607) scale(0.12 -0.12)">
     <defs>
      <path id="DejaVuSans-2d" d="M 313 2009 
L 1997 2009 
L 1997 1497 
L 313 1497 
L 313 2009 
z
" transform="scale(0.015625)"/>
      <path id="DejaVuSans-43" d="M 4122 4306 
L 4122 3641 
Q 3803 3938 3442 4084 
Q 3081 4231 2675 4231 
Q 1875 4231 1450 3742 
Q 1025 3253 1025 2328 
Q 1025 1406 1450 917 
Q 1875 428 2675 428 
Q 3081 428 3442 575 
Q 3803 722 4122 1019 
L 4122 359 
Q 3791 134 3420 21 
Q 3050 -91 2638 -91 
Q 1578 -91 968 557 
Q 359 1206 359 2328 
Q 359 3453 968 4101 
Q 1578 4750 2638 4750 
Q 3056 4750 3426 4639 
Q 3797 4528 4122 4306 
z
" transform="scale(0.015625)"/>
      <path id="DejaVuSans-75" d="M 544 1381 
L 544 3500 
L 1119 3500 
L 1119 1403 
Q 1119 906 1312 657 
Q 1506 409 1894 409 
Q 2359 409 2629 706 
Q 2900 1003 2900 1516 
L 2900 3500 
L 3475 3500 
L 3475 0 
L 2900 0 
L 2900 538 
Q 2691 219 2414 64 
Q 2138 -91 1772 -91 
Q 1169 -91 856 284 
Q 544 659 544 1381 
z
M 1991 3584 
L 1991 3584 
z
" transform="scale(0.015625)"/>
      <path id="DejaVuSans-76" d="M 191 3500 
L 800 3500 
L 1894 563 
L 2988 3500 
L 3597 3500 
L 2284 0 
L 1503 0 
L 191 3500 
z
" transform="scale(0.015625)"/>
      <path id="DejaVuSans-66" d="M 2375 4863 
L 2375 4384 
L 1825 4384 
Q 1516 4384 1395 4259 
Q 1275 4134 1275 3809 
L 1275 3500 
L 2222 3500 
L 2222 3053 
L 1275 3053 
L 1275 0 
L 697 0 
L 697 3053 
L 147 3053 
L 147 3500 
L 697 3500 
L 697 3744 
Q 697 4328 969 4595 
Q 1241 4863 1831 4863 
L 2375 4863 
z
" transform="scale(0.015625)"/>
      <path id="DejaVuSans-44" d="M 1259 4147 
L 1259 519 
L 2022 519 
Q 2988 519 3436 956 
Q 3884 1394 3884 2338 
Q 3884 3275 3436 3711 
Q 2988 4147 2022 4147 
L 1259 4147 
z
M 628 4666 
L 1925 4666 
Q 3281 4666 3915 4102 
Q 4550 3538 4550 2338 
Q 4550 1131 3912 565 
Q 3275 0 1925 0 
L 628 0 
L 628 4666 
z
" transform="scale(0.015625)"/>
      <path id="DejaVuSans-74" d="M 1172 4494 
L 1172 3500 
L 2356 3500 
L 2356 3053 
L 1172 3053 
L 1172 1153 
Q 1172 725 1289 603 
Q 1406 481 1766 481 
L 2356 481 
L 2356 0 
L 1766 0 
Q 1100 0 847 248 
Q 594 497 594 1153 
L 594 3053 
L 172 3053 
L 172 3500 
L 594 3500 
L 594 4494 
L 1172 4494 
z
" transform="scale(0.015625)"/>
      <path id="DejaVuSans-41" d="M 2188 4044 
L 1331 1722 
L 3047 1722 
L 2188 4044 
z
M 1831 4666 
L 2547 4666 
L 4325 0 
L 3669 0 
L 3244 1197 
L 1141 1197 
L 716 0 
L 50 0 
L 1831 4666 
z
" transform="scale(0.015625)"/>
      <path id="DejaVuSans-68" d="M 3513 2113 
L 3513 0 
L 2938 0 
L 2938 2094 
Q 2938 2591 2744 2837 
Q 2550 3084 2163 3084 
Q 1697 3084 1428 2787 
Q 1159 2491 1159 1978 
L 1159 0 
L 581 0 
L 581 4863 
L 1159 4863 
L 1159 2956 
Q 1366 3272 1645 3428 
Q 1925 3584 2291 3584 
Q 2894 3584 3203 3211 
Q 3513 2838 3513 2113 
z
" transform="scale(0.015625)"/>
     </defs>
     <use xlink:href="#DejaVuSans-50"/>
     <use xlink:href="#DejaVuSans-72" transform="translate(58.552734 0)"/>
     <use xlink:href="#DejaVuSans-65" transform="translate(97.416016 0)"/>
     <use xlink:href="#DejaVuSans-63" transform="translate(158.939453 0)"/>
     <use xlink:href="#DejaVuSans-69" transform="translate(213.919922 0)"/>
     <use xlink:href="#DejaVuSans-73" transform="translate(241.703125 0)"/>
     <use xlink:href="#DejaVuSans-69" transform="translate(293.802734 0)"/>
     <use xlink:href="#DejaVuSans-6f" transform="translate(321.585938 0)"/>
     <use xlink:href="#DejaVuSans-6e" transform="translate(382.767578 0)"/>
     <use xlink:href="#DejaVuSans-2d" transform="translate(446.146484 0)"/>
     <use xlink:href="#DejaVuSans-52" transform="translate(482.230469 0)"/>
     <use xlink:href="#DejaVuSans-65" transform="translate(547.212891 0)"/>
     <use xlink:href="#DejaVuSans-63" transform="translate(608.736328 0)"/>
     <use xlink:href="#DejaVuSans-61" transform="translate(663.716797 0)"/>
     <use xlink:href="#DejaVuSans-6c" transform="translate(724.996094 0)"/>
     <use xlink:href="#DejaVuSans-6c" transform="translate(752.779297 0)"/>
     <use xlink:href="#DejaVuSans-20" transform="translate(780.5625 0)"/>
     <use xlink:href="#DejaVuSans-43" transform="translate(812.349609 0)"/>
     <use xlink:href="#DejaVuSans-75" transform="translate(882.173828 0)"/>
     <use xlink:href="#DejaVuSans-72" transform="translate(945.552734 0)"/>
     <use xlink:href="#DejaVuSans-76" transform="translate(986.666016 0)"/>
     <use xlink:href="#DejaVuSans-65" transform="translate(1045.845703 0)"/>
     <use xlink:href="#DejaVuSans-20" transform="translate(1107.369141 0)"/>
     <use xlink:href="#DejaVuSans-66" transform="translate(1139.15625 0)"/>
     <use xlink:href="#DejaVuSans-6f" transform="translate(1174.361328 0)"/>
     <use xlink:href="#DejaVuSans-72" transform="translate(1235.542969 0)"/>
     <use xlink:href="#DejaVuSans-20" transform="translate(1276.65625 0)"/>
     <use xlink:href="#DejaVuSans-44" transform="translate(1308.443359 0)"/>
     <use xlink:href="#DejaVuSans-69" transform="translate(1385.445312 0)"/>
     <use xlink:href="#DejaVuSans-66" transform="translate(1413.228516 0)"/>
     <use xlink:href="#DejaVuSans-66" transform="translate(1448.433594 0)"/>
     <use xlink:href="#DejaVuSans-65" transform="translate(1483.638672 0)"/>
     <use xlink:href="#DejaVuSans-72" transform="translate(1545.162109 0)"/>
     <use xlink:href="#DejaVuSans-65" transform="translate(1584.025391 0)"/>
     <use xlink:href="#DejaVuSans-6e" transform="translate(1645.548828 0)"/>
     <use xlink:href="#DejaVuSans-74" transform="translate(1708.927734 0)"/>
     <use xlink:href="#DejaVuSans-20" transform="translate(1748.136719 0)"/>
     <use xlink:href="#DejaVuSans-41" transform="translate(1779.923828 0)"/>
     <use xlink:href="#DejaVuSans-75" transform="translate(1848.332031 0)"/>
     <use xlink:href="#DejaVuSans-74" transform="translate(1911.710938 0)"/>
     <use xlink:href="#DejaVuSans-68" transform="translate(1950.919922 0)"/>
     <use xlink:href="#DejaVuSans-6f" transform="translate(2014.298828 0)"/>
     <use xlink:href="#DejaVuSans-72" transform="translate(2075.480469 0)"/>
     <use xlink:href="#DejaVuSans-20" transform="translate(2116.59375 0)"/>
     <use xlink:href="#DejaVuSans-44" transform="translate(2148.380859 0)"/>
     <use xlink:href="#DejaVuSans-61" transform="translate(2225.382812 0)"/>
     <use xlink:href="#DejaVuSans-74" transform="translate(2286.662109 0)"/>
     <use xlink:href="#DejaVuSans-61" transform="translate(2325.871094 0)"/>
    </g>
    <!-- rounds=100, top_n=100000 -->
    <g transform="translate(274.595625 40.044375) scale(0.12 -0.12)">
     <defs>
      <path id="DejaVuSans-64" d="M 2906 2969 
L 2906 4863 
L 3481 4863 
L 3481 0 
L 2906 0 
L 2906 525 
Q 2725 213 2448 61 
Q 2172 -91 1784 -91 
Q 1150 -91 751 415 
Q 353 922 353 1747 
Q 353 2572 751 3078 
Q 1150 3584 1784 3584 
Q 2172 3584 2448 3432 
Q 2725 3281 2906 2969 
z
M 947 1747 
Q 947 1113 1208 752 
Q 1469 391 1925 391 
Q 2381 391 2643 752 
Q 2906 1113 2906 1747 
Q 2906 2381 2643 2742 
Q 2381 3103 1925 3103 
Q 1469 3103 1208 2742 
Q 947 2381 947 1747 
z
" transform="scale(0.015625)"/>
      <path id="DejaVuSans-3d" d="M 678 2906 
L 4684 2906 
L 4684 2381 
L 678 2381 
L 678 2906 
z
M 678 1631 
L 4684 1631 
L 4684 1100 
L 678 1100 
L 678 1631 
z
" transform="scale(0.015625)"/>
      <path id="DejaVuSans-2c" d="M 750 794 
L 1409 794 
L 1409 256 
L 897 -744 
L 494 -744 
L 750 256 
L 750 794 
z
" transform="scale(0.015625)"/>
      <path id="DejaVuSans-70" d="M 1159 525 
L 1159 -1331 
L 581 -1331 
L 581 3500 
L 1159 3500 
L 1159 2969 
Q 1341 3281 1617 3432 
Q 1894 3584 2278 3584 
Q 2916 3584 3314 3078 
Q 3713 2572 3713 1747 
Q 3713 922 3314 415 
Q 2916 -91 2278 -91 
Q 1894 -91 1617 61 
Q 1341 213 1159 525 
z
M 3116 1747 
Q 3116 2381 2855 2742 
Q 2594 3103 2138 3103 
Q 1681 3103 1420 2742 
Q 1159 2381 1159 1747 
Q 1159 1113 1420 752 
Q 1681 391 2138 391 
Q 2594 391 2855 752 
Q 3116 1113 3116 1747 
z
" transform="scale(0.015625)"/>
      <path id="DejaVuSans-5f" d="M 3263 -1063 
L 3263 -1509 
L -63 -1509 
L -63 -1063 
L 3263 -1063 
z
" transform="scale(0.015625)"/>
     </defs>
     <use xlink:href="#DejaVuSans-72"/>
     <use xlink:href="#DejaVuSans-6f" transform="translate(38.863281 0)"/>
     <use xlink:href="#DejaVuSans-75" transform="translate(100.044922 0)"/>
     <use xlink:href="#DejaVuSans-6e" transform="translate(163.423828 0)"/>
     <use xlink:href="#DejaVuSans-64" transform="translate(226.802734 0)"/>
     <use xlink:href="#DejaVuSans-73" transform="translate(290.279297 0)"/>
     <use xlink:href="#DejaVuSans-3d" transform="translate(342.378906 0)"/>
     <use xlink:href="#DejaVuSans-31" transform="translate(426.167969 0)"/>
     <use xlink:href="#DejaVuSans-30" transform="translate(489.791016 0)"/>
     <use xlink:href="#DejaVuSans-30" transform="translate(553.414062 0)"/>
     <use xlink:href="#DejaVuSans-2c" transform="translate(617.037109 0)"/>
     <use xlink:href="#DejaVuSans-20" transform="translate(648.824219 0)"/>
     <use xlink:href="#DejaVuSans-74" transform="translate(680.611328 0)"/>
     <use xlink:href="#DejaVuSans-6f" transform="translate(719.820312 0)"/>
     <use xlink:href="#DejaVuSans-70" transform="translate(781.001953 0)"/>
     <use xlink:href="#DejaVuSans-5f" transform="translate(844.478516 0)"/>
     <use xlink:href="#DejaVuSans-6e" transform="translate(894.478516 0)"/>
     <use xlink:href="#DejaVuSans-3d" transform="translate(957.857422 0)"/>
     <use xlink:href="#DejaVuSans-31" transform="translate(1041.646484 0)"/>
     <use xlink:href="#DejaVuSans-30" transform="translate(1105.269531 0)"/>
     <use xlink:href="#DejaVuSans-30" transform="translate(1168.892578 0)"/>
     <use xlink:href="#DejaVuSans-30" transform="translate(1232.515625 0)"/>
     <use xlink:href="#DejaVuSans-30" transform="translate(1296.138672 0)"/>
     <use xlink:href="#DejaVuSans-30" transform="translate(1359.761719 0)"/>
    </g>
    <!-- n_impostors=50, dataset_name=student_essays -->
    <g transform="translate(213.027187 53.8155) scale(0.12 -0.12)">
     <defs>
      <path id="DejaVuSans-6d" d="M 3328 2828 
Q 3544 3216 3844 3400 
Q 4144 3584 4550 3584 
Q 5097 3584 5394 3201 
Q 5691 2819 5691 2113 
L 5691 0 
L 5113 0 
L 5113 2094 
Q 5113 2597 4934 2840 
Q 4756 3084 4391 3084 
Q 3944 3084 3684 2787 
Q 3425 2491 3425 1978 
L 3425 0 
L 2847 0 
L 2847 2094 
Q 2847 2600 2669 2842 
Q 2491 3084 2119 3084 
Q 1678 3084 1418 2786 
Q 1159 2488 1159 1978 
L 1159 0 
L 581 0 
L 581 3500 
L 1159 3500 
L 1159 2956 
Q 1356 3278 1631 3431 
Q 1906 3584 2284 3584 
Q 2666 3584 2933 3390 
Q 3200 3197 3328 2828 
z
" transform="scale(0.015625)"/>
      <path id="DejaVuSans-35" d="M 691 4666 
L 3169 4666 
L 3169 4134 
L 1269 4134 
L 1269 2991 
Q 1406 3038 1543 3061 
Q 1681 3084 1819 3084 
Q 2600 3084 3056 2656 
Q 3513 2228 3513 1497 
Q 3513 744 3044 326 
Q 2575 -91 1722 -91 
Q 1428 -91 1123 -41 
Q 819 9 494 109 
L 494 744 
Q 775 591 1075 516 
Q 1375 441 1709 441 
Q 2250 441 2565 725 
Q 2881 1009 2881 1497 
Q 2881 1984 2565 2268 
Q 2250 2553 1709 2553 
Q 1456 2553 1204 2497 
Q 953 2441 691 2322 
L 691 4666 
z
" transform="scale(0.015625)"/>
      <path id="DejaVuSans-79" d="M 2059 -325 
Q 1816 -950 1584 -1140 
Q 1353 -1331 966 -1331 
L 506 -1331 
L 506 -850 
L 844 -850 
Q 1081 -850 1212 -737 
Q 1344 -625 1503 -206 
L 1606 56 
L 191 3500 
L 800 3500 
L 1894 763 
L 2988 3500 
L 3597 3500 
L 2059 -325 
z
" transform="scale(0.015625)"/>
     </defs>
     <use xlink:href="#DejaVuSans-6e"/>
     <use xlink:href="#DejaVuSans-5f" transform="translate(63.378906 0)"/>
     <use xlink:href="#DejaVuSans-69" transform="translate(113.378906 0)"/>
     <use xlink:href="#DejaVuSans-6d" transform="translate(141.162109 0)"/>
     <use xlink:href="#DejaVuSans-70" transform="translate(238.574219 0)"/>
     <use xlink:href="#DejaVuSans-6f" transform="translate(302.050781 0)"/>
     <use xlink:href="#DejaVuSans-73" transform="translate(363.232422 0)"/>
     <use xlink:href="#DejaVuSans-74" transform="translate(415.332031 0)"/>
     <use xlink:href="#DejaVuSans-6f" transform="translate(454.541016 0)"/>
     <use xlink:href="#DejaVuSans-72" transform="translate(515.722656 0)"/>
     <use xlink:href="#DejaVuSans-73" transform="translate(556.835938 0)"/>
     <use xlink:href="#DejaVuSans-3d" transform="translate(608.935547 0)"/>
     <use xlink:href="#DejaVuSans-35" transform="translate(692.724609 0)"/>
     <use xlink:href="#DejaVuSans-30" transform="translate(756.347656 0)"/>
     <use xlink:href="#DejaVuSans-2c" transform="translate(819.970703 0)"/>
     <use xlink:href="#DejaVuSans-20" transform="translate(851.757812 0)"/>
     <use xlink:href="#DejaVuSans-64" transform="translate(883.544922 0)"/>
     <use xlink:href="#DejaVuSans-61" transform="translate(947.021484 0)"/>
     <use xlink:href="#DejaVuSans-74" transform="translate(1008.300781 0)"/>
     <use xlink:href="#DejaVuSans-61" transform="translate(1047.509766 0)"/>
     <use xlink:href="#DejaVuSans-73" transform="translate(1108.789062 0)"/>
     <use xlink:href="#DejaVuSans-65" transform="translate(1160.888672 0)"/>
     <use xlink:href="#DejaVuSans-74" transform="translate(1222.412109 0)"/>
     <use xlink:href="#DejaVuSans-5f" transform="translate(1261.621094 0)"/>
     <use xlink:href="#DejaVuSans-6e" transform="translate(1311.621094 0)"/>
     <use xlink:href="#DejaVuSans-61" transform="translate(1375 0)"/>
     <use xlink:href="#DejaVuSans-6d" transform="translate(1436.279297 0)"/>
     <use xlink:href="#DejaVuSans-65" transform="translate(1533.691406 0)"/>
     <use xlink:href="#DejaVuSans-3d" transform="translate(1595.214844 0)"/>
     <use xlink:href="#DejaVuSans-73" transform="translate(1679.003906 0)"/>
     <use xlink:href="#DejaVuSans-74" transform="translate(1731.103516 0)"/>
     <use xlink:href="#DejaVuSans-75" transform="translate(1770.3125 0)"/>
     <use xlink:href="#DejaVuSans-64" transform="translate(1833.691406 0)"/>
     <use xlink:href="#DejaVuSans-65" transform="translate(1897.167969 0)"/>
     <use xlink:href="#DejaVuSans-6e" transform="translate(1958.691406 0)"/>
     <use xlink:href="#DejaVuSans-74" transform="translate(2022.070312 0)"/>
     <use xlink:href="#DejaVuSans-5f" transform="translate(2061.279297 0)"/>
     <use xlink:href="#DejaVuSans-65" transform="translate(2111.279297 0)"/>
     <use xlink:href="#DejaVuSans-73" transform="translate(2172.802734 0)"/>
     <use xlink:href="#DejaVuSans-73" transform="translate(2224.902344 0)"/>
     <use xlink:href="#DejaVuSans-61" transform="translate(2277.001953 0)"/>
     <use xlink:href="#DejaVuSans-79" transform="translate(2338.28125 0)"/>
     <use xlink:href="#DejaVuSans-73" transform="translate(2397.460938 0)"/>
    </g>
    <!-- impostor_technique=fixed, balanced=True -->
    <g transform="translate(231.788438 67.586625) scale(0.12 -0.12)">
     <defs>
      <path id="DejaVuSans-71" d="M 947 1747 
Q 947 1113 1208 752 
Q 1469 391 1925 391 
Q 2381 391 2643 752 
Q 2906 1113 2906 1747 
Q 2906 2381 2643 2742 
Q 2381 3103 1925 3103 
Q 1469 3103 1208 2742 
Q 947 2381 947 1747 
z
M 2906 525 
Q 2725 213 2448 61 
Q 2172 -91 1784 -91 
Q 1150 -91 751 415 
Q 353 922 353 1747 
Q 353 2572 751 3078 
Q 1150 3584 1784 3584 
Q 2172 3584 2448 3432 
Q 2725 3281 2906 2969 
L 2906 3500 
L 3481 3500 
L 3481 -1331 
L 2906 -1331 
L 2906 525 
z
" transform="scale(0.015625)"/>
      <path id="DejaVuSans-78" d="M 3513 3500 
L 2247 1797 
L 3578 0 
L 2900 0 
L 1881 1375 
L 863 0 
L 184 0 
L 1544 1831 
L 300 3500 
L 978 3500 
L 1906 2253 
L 2834 3500 
L 3513 3500 
z
" transform="scale(0.015625)"/>
      <path id="DejaVuSans-62" d="M 3116 1747 
Q 3116 2381 2855 2742 
Q 2594 3103 2138 3103 
Q 1681 3103 1420 2742 
Q 1159 2381 1159 1747 
Q 1159 1113 1420 752 
Q 1681 391 2138 391 
Q 2594 391 2855 752 
Q 3116 1113 3116 1747 
z
M 1159 2969 
Q 1341 3281 1617 3432 
Q 1894 3584 2278 3584 
Q 2916 3584 3314 3078 
Q 3713 2572 3713 1747 
Q 3713 922 3314 415 
Q 2916 -91 2278 -91 
Q 1894 -91 1617 61 
Q 1341 213 1159 525 
L 1159 0 
L 581 0 
L 581 4863 
L 1159 4863 
L 1159 2969 
z
" transform="scale(0.015625)"/>
      <path id="DejaVuSans-54" d="M -19 4666 
L 3928 4666 
L 3928 4134 
L 2272 4134 
L 2272 0 
L 1638 0 
L 1638 4134 
L -19 4134 
L -19 4666 
z
" transform="scale(0.015625)"/>
     </defs>
     <use xlink:href="#DejaVuSans-69"/>
     <use xlink:href="#DejaVuSans-6d" transform="translate(27.783203 0)"/>
     <use xlink:href="#DejaVuSans-70" transform="translate(125.195312 0)"/>
     <use xlink:href="#DejaVuSans-6f" transform="translate(188.671875 0)"/>
     <use xlink:href="#DejaVuSans-73" transform="translate(249.853516 0)"/>
     <use xlink:href="#DejaVuSans-74" transform="translate(301.953125 0)"/>
     <use xlink:href="#DejaVuSans-6f" transform="translate(341.162109 0)"/>
     <use xlink:href="#DejaVuSans-72" transform="translate(402.34375 0)"/>
     <use xlink:href="#DejaVuSans-5f" transform="translate(443.457031 0)"/>
     <use xlink:href="#DejaVuSans-74" transform="translate(493.457031 0)"/>
     <use xlink:href="#DejaVuSans-65" transform="translate(532.666016 0)"/>
     <use xlink:href="#DejaVuSans-63" transform="translate(594.189453 0)"/>
     <use xlink:href="#DejaVuSans-68" transform="translate(649.169922 0)"/>
     <use xlink:href="#DejaVuSans-6e" transform="translate(712.548828 0)"/>
     <use xlink:href="#DejaVuSans-69" transform="translate(775.927734 0)"/>
     <use xlink:href="#DejaVuSans-71" transform="translate(803.710938 0)"/>
     <use xlink:href="#DejaVuSans-75" transform="translate(867.1875 0)"/>
     <use xlink:href="#DejaVuSans-65" transform="translate(930.566406 0)"/>
     <use xlink:href="#DejaVuSans-3d" transform="translate(992.089844 0)"/>
     <use xlink:href="#DejaVuSans-66" transform="translate(1075.878906 0)"/>
     <use xlink:href="#DejaVuSans-69" transform="translate(1111.083984 0)"/>
     <use xlink:href="#DejaVuSans-78" transform="translate(1138.867188 0)"/>
     <use xlink:href="#DejaVuSans-65" transform="translate(1194.921875 0)"/>
     <use xlink:href="#DejaVuSans-64" transform="translate(1256.445312 0)"/>
     <use xlink:href="#DejaVuSans-2c" transform="translate(1319.921875 0)"/>
     <use xlink:href="#DejaVuSans-20" transform="translate(1351.708984 0)"/>
     <use xlink:href="#DejaVuSans-62" transform="translate(1383.496094 0)"/>
     <use xlink:href="#DejaVuSans-61" transform="translate(1446.972656 0)"/>
     <use xlink:href="#DejaVuSans-6c" transform="translate(1508.251953 0)"/>
     <use xlink:href="#DejaVuSans-61" transform="translate(1536.035156 0)"/>
     <use xlink:href="#DejaVuSans-6e" transform="translate(1597.314453 0)"/>
     <use xlink:href="#DejaVuSans-63" transform="translate(1660.693359 0)"/>
     <use xlink:href="#DejaVuSans-65" transform="translate(1715.673828 0)"/>
     <use xlink:href="#DejaVuSans-64" transform="translate(1777.197266 0)"/>
     <use xlink:href="#DejaVuSans-3d" transform="translate(1840.673828 0)"/>
     <use xlink:href="#DejaVuSans-54" transform="translate(1924.462891 0)"/>
     <use xlink:href="#DejaVuSans-72" transform="translate(1970.796875 0)"/>
     <use xlink:href="#DejaVuSans-75" transform="translate(2011.910156 0)"/>
     <use xlink:href="#DejaVuSans-65" transform="translate(2075.289062 0)"/>
    </g>
    <!-- upsample=True, fig2reproduce=4 -->
    <g transform="translate(258.302813 81.35775) scale(0.12 -0.12)">
     <defs>
      <path id="DejaVuSans-67" d="M 2906 1791 
Q 2906 2416 2648 2759 
Q 2391 3103 1925 3103 
Q 1463 3103 1205 2759 
Q 947 2416 947 1791 
Q 947 1169 1205 825 
Q 1463 481 1925 481 
Q 2391 481 2648 825 
Q 2906 1169 2906 1791 
z
M 3481 434 
Q 3481 -459 3084 -895 
Q 2688 -1331 1869 -1331 
Q 1566 -1331 1297 -1286 
Q 1028 -1241 775 -1147 
L 775 -588 
Q 1028 -725 1275 -790 
Q 1522 -856 1778 -856 
Q 2344 -856 2625 -561 
Q 2906 -266 2906 331 
L 2906 616 
Q 2728 306 2450 153 
Q 2172 0 1784 0 
Q 1141 0 747 490 
Q 353 981 353 1791 
Q 353 2603 747 3093 
Q 1141 3584 1784 3584 
Q 2172 3584 2450 3431 
Q 2728 3278 2906 2969 
L 2906 3500 
L 3481 3500 
L 3481 434 
z
" transform="scale(0.015625)"/>
     </defs>
     <use xlink:href="#DejaVuSans-75"/>
     <use xlink:href="#DejaVuSans-70" transform="translate(63.378906 0)"/>
     <use xlink:href="#DejaVuSans-73" transform="translate(126.855469 0)"/>
     <use xlink:href="#DejaVuSans-61" transform="translate(178.955078 0)"/>
     <use xlink:href="#DejaVuSans-6d" transform="translate(240.234375 0)"/>
     <use xlink:href="#DejaVuSans-70" transform="translate(337.646484 0)"/>
     <use xlink:href="#DejaVuSans-6c" transform="translate(401.123047 0)"/>
     <use xlink:href="#DejaVuSans-65" transform="translate(428.90625 0)"/>
     <use xlink:href="#DejaVuSans-3d" transform="translate(490.429688 0)"/>
     <use xlink:href="#DejaVuSans-54" transform="translate(574.21875 0)"/>
     <use xlink:href="#DejaVuSans-72" transform="translate(620.552734 0)"/>
     <use xlink:href="#DejaVuSans-75" transform="translate(661.666016 0)"/>
     <use xlink:href="#DejaVuSans-65" transform="translate(725.044922 0)"/>
     <use xlink:href="#DejaVuSans-2c" transform="translate(786.568359 0)"/>
     <use xlink:href="#DejaVuSans-20" transform="translate(818.355469 0)"/>
     <use xlink:href="#DejaVuSans-66" transform="translate(850.142578 0)"/>
     <use xlink:href="#DejaVuSans-69" transform="translate(885.347656 0)"/>
     <use xlink:href="#DejaVuSans-67" transform="translate(913.130859 0)"/>
     <use xlink:href="#DejaVuSans-32" transform="translate(976.607422 0)"/>
     <use xlink:href="#DejaVuSans-72" transform="translate(1040.230469 0)"/>
     <use xlink:href="#DejaVuSans-65" transform="translate(1079.09375 0)"/>
     <use xlink:href="#DejaVuSans-70" transform="translate(1140.617188 0)"/>
     <use xlink:href="#DejaVuSans-72" transform="translate(1204.09375 0)"/>
     <use xlink:href="#DejaVuSans-6f" transform="translate(1242.957031 0)"/>
     <use xlink:href="#DejaVuSans-64" transform="translate(1304.138672 0)"/>
     <use xlink:href="#DejaVuSans-75" transform="translate(1367.615234 0)"/>
     <use xlink:href="#DejaVuSans-63" transform="translate(1430.994141 0)"/>
     <use xlink:href="#DejaVuSans-65" transform="translate(1485.974609 0)"/>
     <use xlink:href="#DejaVuSans-3d" transform="translate(1547.498047 0)"/>
     <use xlink:href="#DejaVuSans-34" transform="translate(1631.287109 0)"/>
    </g>
   </g>
   <g id="legend_1">
    <g id="patch_7">
     <path d="M 250.646495 301.465 
L 446.026182 301.465 
Q 448.026182 301.465 448.026182 299.465 
L 448.026182 240.918125 
Q 448.026182 238.918125 446.026182 238.918125 
L 250.646495 238.918125 
Q 248.646495 238.918125 248.646495 240.918125 
L 248.646495 299.465 
Q 248.646495 301.465 250.646495 301.465 
z
" style="fill: #ffffff; opacity: 0.8; stroke: #cccccc; stroke-linejoin: miter"/>
    </g>
    <g id="line2d_17">
     <path d="M 252.646495 247.016563 
L 262.646495 247.016563 
L 272.646495 247.016563 
" style="fill: none; stroke: #1f77b4; stroke-width: 1.5; stroke-linecap: square"/>
    </g>
    <g id="text_16">
     <!-- fixed -->
     <g transform="translate(280.646495 250.516563) scale(0.1 -0.1)">
      <use xlink:href="#DejaVuSans-66"/>
      <use xlink:href="#DejaVuSans-69" transform="translate(35.205078 0)"/>
      <use xlink:href="#DejaVuSans-78" transform="translate(62.988281 0)"/>
      <use xlink:href="#DejaVuSans-65" transform="translate(119.042969 0)"/>
      <use xlink:href="#DejaVuSans-64" transform="translate(180.566406 0)"/>
     </g>
    </g>
    <g id="line2d_18">
     <path d="M 252.646495 261.694687 
L 262.646495 261.694687 
L 272.646495 261.694687 
" style="fill: none; stroke-dasharray: 5.55,2.4; stroke-dashoffset: 0; stroke: #ff7f0e; stroke-width: 1.5"/>
    </g>
    <g id="text_17">
     <!-- unsupervised_baseline_min-max -->
     <g transform="translate(280.646495 265.194687) scale(0.1 -0.1)">
      <use xlink:href="#DejaVuSans-75"/>
      <use xlink:href="#DejaVuSans-6e" transform="translate(63.378906 0)"/>
      <use xlink:href="#DejaVuSans-73" transform="translate(126.757812 0)"/>
      <use xlink:href="#DejaVuSans-75" transform="translate(178.857422 0)"/>
      <use xlink:href="#DejaVuSans-70" transform="translate(242.236328 0)"/>
      <use xlink:href="#DejaVuSans-65" transform="translate(305.712891 0)"/>
      <use xlink:href="#DejaVuSans-72" transform="translate(367.236328 0)"/>
      <use xlink:href="#DejaVuSans-76" transform="translate(408.349609 0)"/>
      <use xlink:href="#DejaVuSans-69" transform="translate(467.529297 0)"/>
      <use xlink:href="#DejaVuSans-73" transform="translate(495.3125 0)"/>
      <use xlink:href="#DejaVuSans-65" transform="translate(547.412109 0)"/>
      <use xlink:href="#DejaVuSans-64" transform="translate(608.935547 0)"/>
      <use xlink:href="#DejaVuSans-5f" transform="translate(672.412109 0)"/>
      <use xlink:href="#DejaVuSans-62" transform="translate(722.412109 0)"/>
      <use xlink:href="#DejaVuSans-61" transform="translate(785.888672 0)"/>
      <use xlink:href="#DejaVuSans-73" transform="translate(847.167969 0)"/>
      <use xlink:href="#DejaVuSans-65" transform="translate(899.267578 0)"/>
      <use xlink:href="#DejaVuSans-6c" transform="translate(960.791016 0)"/>
      <use xlink:href="#DejaVuSans-69" transform="translate(988.574219 0)"/>
      <use xlink:href="#DejaVuSans-6e" transform="translate(1016.357422 0)"/>
      <use xlink:href="#DejaVuSans-65" transform="translate(1079.736328 0)"/>
      <use xlink:href="#DejaVuSans-5f" transform="translate(1141.259766 0)"/>
      <use xlink:href="#DejaVuSans-6d" transform="translate(1191.259766 0)"/>
      <use xlink:href="#DejaVuSans-69" transform="translate(1288.671875 0)"/>
      <use xlink:href="#DejaVuSans-6e" transform="translate(1316.455078 0)"/>
      <use xlink:href="#DejaVuSans-2d" transform="translate(1379.833984 0)"/>
      <use xlink:href="#DejaVuSans-6d" transform="translate(1415.917969 0)"/>
      <use xlink:href="#DejaVuSans-61" transform="translate(1513.330078 0)"/>
      <use xlink:href="#DejaVuSans-78" transform="translate(1574.609375 0)"/>
     </g>
    </g>
    <g id="line2d_19">
     <path d="M 252.646495 276.650937 
L 262.646495 276.650937 
L 272.646495 276.650937 
" style="fill: none; stroke-dasharray: 5.55,2.4; stroke-dashoffset: 0; stroke: #2ca02c; stroke-width: 1.5"/>
    </g>
    <g id="text_18">
     <!-- unsupervised_baseline_cosine -->
     <g transform="translate(280.646495 280.150937) scale(0.1 -0.1)">
      <use xlink:href="#DejaVuSans-75"/>
      <use xlink:href="#DejaVuSans-6e" transform="translate(63.378906 0)"/>
      <use xlink:href="#DejaVuSans-73" transform="translate(126.757812 0)"/>
      <use xlink:href="#DejaVuSans-75" transform="translate(178.857422 0)"/>
      <use xlink:href="#DejaVuSans-70" transform="translate(242.236328 0)"/>
      <use xlink:href="#DejaVuSans-65" transform="translate(305.712891 0)"/>
      <use xlink:href="#DejaVuSans-72" transform="translate(367.236328 0)"/>
      <use xlink:href="#DejaVuSans-76" transform="translate(408.349609 0)"/>
      <use xlink:href="#DejaVuSans-69" transform="translate(467.529297 0)"/>
      <use xlink:href="#DejaVuSans-73" transform="translate(495.3125 0)"/>
      <use xlink:href="#DejaVuSans-65" transform="translate(547.412109 0)"/>
      <use xlink:href="#DejaVuSans-64" transform="translate(608.935547 0)"/>
      <use xlink:href="#DejaVuSans-5f" transform="translate(672.412109 0)"/>
      <use xlink:href="#DejaVuSans-62" transform="translate(722.412109 0)"/>
      <use xlink:href="#DejaVuSans-61" transform="translate(785.888672 0)"/>
      <use xlink:href="#DejaVuSans-73" transform="translate(847.167969 0)"/>
      <use xlink:href="#DejaVuSans-65" transform="translate(899.267578 0)"/>
      <use xlink:href="#DejaVuSans-6c" transform="translate(960.791016 0)"/>
      <use xlink:href="#DejaVuSans-69" transform="translate(988.574219 0)"/>
      <use xlink:href="#DejaVuSans-6e" transform="translate(1016.357422 0)"/>
      <use xlink:href="#DejaVuSans-65" transform="translate(1079.736328 0)"/>
      <use xlink:href="#DejaVuSans-5f" transform="translate(1141.259766 0)"/>
      <use xlink:href="#DejaVuSans-63" transform="translate(1191.259766 0)"/>
      <use xlink:href="#DejaVuSans-6f" transform="translate(1246.240234 0)"/>
      <use xlink:href="#DejaVuSans-73" transform="translate(1307.421875 0)"/>
      <use xlink:href="#DejaVuSans-69" transform="translate(1359.521484 0)"/>
      <use xlink:href="#DejaVuSans-6e" transform="translate(1387.304688 0)"/>
      <use xlink:href="#DejaVuSans-65" transform="translate(1450.683594 0)"/>
     </g>
    </g>
    <g id="line2d_20">
     <path d="M 252.646495 291.607188 
L 262.646495 291.607188 
L 272.646495 291.607188 
" style="fill: none; stroke-dasharray: 5.55,2.4; stroke-dashoffset: 0; stroke: #d62728; stroke-width: 1.5"/>
    </g>
    <g id="text_19">
     <!-- supervised_baseline -->
     <g transform="translate(280.646495 295.107188) scale(0.1 -0.1)">
      <use xlink:href="#DejaVuSans-73"/>
      <use xlink:href="#DejaVuSans-75" transform="translate(52.099609 0)"/>
      <use xlink:href="#DejaVuSans-70" transform="translate(115.478516 0)"/>
      <use xlink:href="#DejaVuSans-65" transform="translate(178.955078 0)"/>
      <use xlink:href="#DejaVuSans-72" transform="translate(240.478516 0)"/>
      <use xlink:href="#DejaVuSans-76" transform="translate(281.591797 0)"/>
      <use xlink:href="#DejaVuSans-69" transform="translate(340.771484 0)"/>
      <use xlink:href="#DejaVuSans-73" transform="translate(368.554688 0)"/>
      <use xlink:href="#DejaVuSans-65" transform="translate(420.654297 0)"/>
      <use xlink:href="#DejaVuSans-64" transform="translate(482.177734 0)"/>
      <use xlink:href="#DejaVuSans-5f" transform="translate(545.654297 0)"/>
      <use xlink:href="#DejaVuSans-62" transform="translate(595.654297 0)"/>
      <use xlink:href="#DejaVuSans-61" transform="translate(659.130859 0)"/>
      <use xlink:href="#DejaVuSans-73" transform="translate(720.410156 0)"/>
      <use xlink:href="#DejaVuSans-65" transform="translate(772.509766 0)"/>
      <use xlink:href="#DejaVuSans-6c" transform="translate(834.033203 0)"/>
      <use xlink:href="#DejaVuSans-69" transform="translate(861.816406 0)"/>
      <use xlink:href="#DejaVuSans-6e" transform="translate(889.599609 0)"/>
      <use xlink:href="#DejaVuSans-65" transform="translate(952.978516 0)"/>
     </g>
    </g>
   </g>
  </g>
 </g>
 <defs>
  <clipPath id="p5e36ef39c8">
   <rect x="243.646495" y="87.35775" width="232.70701" height="219.10725"/>
  </clipPath>
 </defs>
</svg>
