<?xml version="1.0" encoding="utf-8" standalone="no"?>
<!DOCTYPE svg PUBLIC "-//W3C//DTD SVG 1.1//EN"
  "http://www.w3.org/Graphics/SVG/1.1/DTD/svg11.dtd">
<svg xmlns:xlink="http://www.w3.org/1999/xlink" width="460.8pt" height="345.6pt" viewBox="0 0 460.8 345.6" xmlns="http://www.w3.org/2000/svg" version="1.1">
 <metadata>
  <rdf:RDF xmlns:dc="http://purl.org/dc/elements/1.1/" xmlns:cc="http://creativecommons.org/ns#" xmlns:rdf="http://www.w3.org/1999/02/22-rdf-syntax-ns#">
   <cc:Work>
    <dc:type rdf:resource="http://purl.org/dc/dcmitype/StillImage"/>
    <dc:date>2025-08-21T22:24:52.129400</dc:date>
    <dc:format>image/svg+xml</dc:format>
    <dc:creator>
     <cc:Agent>
      <dc:title>Matplotlib v3.10.3, https://matplotlib.org/</dc:title>
     </cc:Agent>
    </dc:creator>
   </cc:Work>
  </rdf:RDF>
 </metadata>
 <defs>
  <style type="text/css">*{stroke-linejoin: round; stroke-linecap: butt}</style>
 </defs>
 <g id="figure_1">
  <g id="patch_1">
   <path d="M 0 345.6 
L 460.8 345.6 
L 460.8 0 
L 0 0 
z
" style="fill: #ffffff"/>
  </g>
  <g id="axes_1">
   <g id="patch_2">
    <path d="M 94.149969 292.065 
L 380.019399 292.065 
L 380.019399 26.88 
L 94.149969 26.88 
z
" style="fill: #ffffff"/>
   </g>
   <g id="matplotlib.axis_1">
    <g id="xtick_1">
     <g id="line2d_1">
      <defs>
       <path id="me5018951cb" d="M 0 0 
L 0 3.5 
" style="stroke: #000000; stroke-width: 0.8"/>
      </defs>
      <g>
       <use xlink:href="#me5018951cb" x="101.840334" y="292.065" style="stroke: #000000; stroke-width: 0.8"/>
      </g>
     </g>
     <g id="text_1">
      <!-- 0.0 -->
      <g transform="translate(93.888772 306.663437) scale(0.1 -0.1)">
       <defs>
        <path id="DejaVuSans-30" d="M 2034 4250 
Q 1547 4250 1301 3770 
Q 1056 3291 1056 2328 
Q 1056 1369 1301 889 
Q 1547 409 2034 409 
Q 2525 409 2770 889 
Q 3016 1369 3016 2328 
Q 3016 3291 2770 3770 
Q 2525 4250 2034 4250 
z
M 2034 4750 
Q 2819 4750 3233 4129 
Q 3647 3509 3647 2328 
Q 3647 1150 3233 529 
Q 2819 -91 2034 -91 
Q 1250 -91 836 529 
Q 422 1150 422 2328 
Q 422 3509 836 4129 
Q 1250 4750 2034 4750 
z
" transform="scale(0.015625)"/>
        <path id="DejaVuSans-2e" d="M 684 794 
L 1344 794 
L 1344 0 
L 684 0 
L 684 794 
z
" transform="scale(0.015625)"/>
       </defs>
       <use xlink:href="#DejaVuSans-30"/>
       <use xlink:href="#DejaVuSans-2e" transform="translate(63.623047 0)"/>
       <use xlink:href="#DejaVuSans-30" transform="translate(95.410156 0)"/>
      </g>
     </g>
    </g>
    <g id="xtick_2">
     <g id="line2d_2">
      <g>
       <use xlink:href="#me5018951cb" x="154.877334" y="292.065" style="stroke: #000000; stroke-width: 0.8"/>
      </g>
     </g>
     <g id="text_2">
      <!-- 0.2 -->
      <g transform="translate(146.925772 306.663437) scale(0.1 -0.1)">
       <defs>
        <path id="DejaVuSans-32" d="M 1228 531 
L 3431 531 
L 3431 0 
L 469 0 
L 469 531 
Q 828 903 1448 1529 
Q 2069 2156 2228 2338 
Q 2531 2678 2651 2914 
Q 2772 3150 2772 3378 
Q 2772 3750 2511 3984 
Q 2250 4219 1831 4219 
Q 1534 4219 1204 4116 
Q 875 4013 500 3803 
L 500 4441 
Q 881 4594 1212 4672 
Q 1544 4750 1819 4750 
Q 2544 4750 2975 4387 
Q 3406 4025 3406 3419 
Q 3406 3131 3298 2873 
Q 3191 2616 2906 2266 
Q 2828 2175 2409 1742 
Q 1991 1309 1228 531 
z
" transform="scale(0.015625)"/>
       </defs>
       <use xlink:href="#DejaVuSans-30"/>
       <use xlink:href="#DejaVuSans-2e" transform="translate(63.623047 0)"/>
       <use xlink:href="#DejaVuSans-32" transform="translate(95.410156 0)"/>
      </g>
     </g>
    </g>
    <g id="xtick_3">
     <g id="line2d_3">
      <g>
       <use xlink:href="#me5018951cb" x="207.914334" y="292.065" style="stroke: #000000; stroke-width: 0.8"/>
      </g>
     </g>
     <g id="text_3">
      <!-- 0.4 -->
      <g transform="translate(199.962772 306.663437) scale(0.1 -0.1)">
       <defs>
        <path id="DejaVuSans-34" d="M 2419 4116 
L 825 1625 
L 2419 1625 
L 2419 4116 
z
M 2253 4666 
L 3047 4666 
L 3047 1625 
L 3713 1625 
L 3713 1100 
L 3047 1100 
L 3047 0 
L 2419 0 
L 2419 1100 
L 313 1100 
L 313 1709 
L 2253 4666 
z
" transform="scale(0.015625)"/>
       </defs>
       <use xlink:href="#DejaVuSans-30"/>
       <use xlink:href="#DejaVuSans-2e" transform="translate(63.623047 0)"/>
       <use xlink:href="#DejaVuSans-34" transform="translate(95.410156 0)"/>
      </g>
     </g>
    </g>
    <g id="xtick_4">
     <g id="line2d_4">
      <g>
       <use xlink:href="#me5018951cb" x="260.951334" y="292.065" style="stroke: #000000; stroke-width: 0.8"/>
      </g>
     </g>
     <g id="text_4">
      <!-- 0.6 -->
      <g transform="translate(252.999771 306.663437) scale(0.1 -0.1)">
       <defs>
        <path id="DejaVuSans-36" d="M 2113 2584 
Q 1688 2584 1439 2293 
Q 1191 2003 1191 1497 
Q 1191 994 1439 701 
Q 1688 409 2113 409 
Q 2538 409 2786 701 
Q 3034 994 3034 1497 
Q 3034 2003 2786 2293 
Q 2538 2584 2113 2584 
z
M 3366 4563 
L 3366 3988 
Q 3128 4100 2886 4159 
Q 2644 4219 2406 4219 
Q 1781 4219 1451 3797 
Q 1122 3375 1075 2522 
Q 1259 2794 1537 2939 
Q 1816 3084 2150 3084 
Q 2853 3084 3261 2657 
Q 3669 2231 3669 1497 
Q 3669 778 3244 343 
Q 2819 -91 2113 -91 
Q 1303 -91 875 529 
Q 447 1150 447 2328 
Q 447 3434 972 4092 
Q 1497 4750 2381 4750 
Q 2619 4750 2861 4703 
Q 3103 4656 3366 4563 
z
" transform="scale(0.015625)"/>
       </defs>
       <use xlink:href="#DejaVuSans-30"/>
       <use xlink:href="#DejaVuSans-2e" transform="translate(63.623047 0)"/>
       <use xlink:href="#DejaVuSans-36" transform="translate(95.410156 0)"/>
      </g>
     </g>
    </g>
    <g id="xtick_5">
     <g id="line2d_5">
      <g>
       <use xlink:href="#me5018951cb" x="313.988334" y="292.065" style="stroke: #000000; stroke-width: 0.8"/>
      </g>
     </g>
     <g id="text_5">
      <!-- 0.8 -->
      <g transform="translate(306.036771 306.663437) scale(0.1 -0.1)">
       <defs>
        <path id="DejaVuSans-38" d="M 2034 2216 
Q 1584 2216 1326 1975 
Q 1069 1734 1069 1313 
Q 1069 891 1326 650 
Q 1584 409 2034 409 
Q 2484 409 2743 651 
Q 3003 894 3003 1313 
Q 3003 1734 2745 1975 
Q 2488 2216 2034 2216 
z
M 1403 2484 
Q 997 2584 770 2862 
Q 544 3141 544 3541 
Q 544 4100 942 4425 
Q 1341 4750 2034 4750 
Q 2731 4750 3128 4425 
Q 3525 4100 3525 3541 
Q 3525 3141 3298 2862 
Q 3072 2584 2669 2484 
Q 3125 2378 3379 2068 
Q 3634 1759 3634 1313 
Q 3634 634 3220 271 
Q 2806 -91 2034 -91 
Q 1263 -91 848 271 
Q 434 634 434 1313 
Q 434 1759 690 2068 
Q 947 2378 1403 2484 
z
M 1172 3481 
Q 1172 3119 1398 2916 
Q 1625 2713 2034 2713 
Q 2441 2713 2670 2916 
Q 2900 3119 2900 3481 
Q 2900 3844 2670 4047 
Q 2441 4250 2034 4250 
Q 1625 4250 1398 4047 
Q 1172 3844 1172 3481 
z
" transform="scale(0.015625)"/>
       </defs>
       <use xlink:href="#DejaVuSans-30"/>
       <use xlink:href="#DejaVuSans-2e" transform="translate(63.623047 0)"/>
       <use xlink:href="#DejaVuSans-38" transform="translate(95.410156 0)"/>
      </g>
     </g>
    </g>
    <g id="xtick_6">
     <g id="line2d_6">
      <g>
       <use xlink:href="#me5018951cb" x="367.025334" y="292.065" style="stroke: #000000; stroke-width: 0.8"/>
      </g>
     </g>
     <g id="text_6">
      <!-- 1.0 -->
      <g transform="translate(359.073771 306.663437) scale(0.1 -0.1)">
       <defs>
        <path id="DejaVuSans-31" d="M 794 531 
L 1825 531 
L 1825 4091 
L 703 3866 
L 703 4441 
L 1819 4666 
L 2450 4666 
L 2450 531 
L 3481 531 
L 3481 0 
L 794 0 
L 794 531 
z
" transform="scale(0.015625)"/>
       </defs>
       <use xlink:href="#DejaVuSans-31"/>
       <use xlink:href="#DejaVuSans-2e" transform="translate(63.623047 0)"/>
       <use xlink:href="#DejaVuSans-30" transform="translate(95.410156 0)"/>
      </g>
     </g>
    </g>
    <g id="text_7">
     <!-- Recall $\frac{{TP}}{{TP + FN}}$ -->
     <g transform="translate(194.314684 326.043125) scale(0.14 -0.14)">
      <defs>
       <path id="DejaVuSans-52" d="M 2841 2188 
Q 3044 2119 3236 1894 
Q 3428 1669 3622 1275 
L 4263 0 
L 3584 0 
L 2988 1197 
Q 2756 1666 2539 1819 
Q 2322 1972 1947 1972 
L 1259 1972 
L 1259 0 
L 628 0 
L 628 4666 
L 2053 4666 
Q 2853 4666 3247 4331 
Q 3641 3997 3641 3322 
Q 3641 2881 3436 2590 
Q 3231 2300 2841 2188 
z
M 1259 4147 
L 1259 2491 
L 2053 2491 
Q 2509 2491 2742 2702 
Q 2975 2913 2975 3322 
Q 2975 3731 2742 3939 
Q 2509 4147 2053 4147 
L 1259 4147 
z
" transform="scale(0.015625)"/>
       <path id="DejaVuSans-65" d="M 3597 1894 
L 3597 1613 
L 953 1613 
Q 991 1019 1311 708 
Q 1631 397 2203 397 
Q 2534 397 2845 478 
Q 3156 559 3463 722 
L 3463 178 
Q 3153 47 2828 -22 
Q 2503 -91 2169 -91 
Q 1331 -91 842 396 
Q 353 884 353 1716 
Q 353 2575 817 3079 
Q 1281 3584 2069 3584 
Q 2775 3584 3186 3129 
Q 3597 2675 3597 1894 
z
M 3022 2063 
Q 3016 2534 2758 2815 
Q 2500 3097 2075 3097 
Q 1594 3097 1305 2825 
Q 1016 2553 972 2059 
L 3022 2063 
z
" transform="scale(0.015625)"/>
       <path id="DejaVuSans-63" d="M 3122 3366 
L 3122 2828 
Q 2878 2963 2633 3030 
Q 2388 3097 2138 3097 
Q 1578 3097 1268 2742 
Q 959 2388 959 1747 
Q 959 1106 1268 751 
Q 1578 397 2138 397 
Q 2388 397 2633 464 
Q 2878 531 3122 666 
L 3122 134 
Q 2881 22 2623 -34 
Q 2366 -91 2075 -91 
Q 1284 -91 818 406 
Q 353 903 353 1747 
Q 353 2603 823 3093 
Q 1294 3584 2113 3584 
Q 2378 3584 2631 3529 
Q 2884 3475 3122 3366 
z
" transform="scale(0.015625)"/>
       <path id="DejaVuSans-61" d="M 2194 1759 
Q 1497 1759 1228 1600 
Q 959 1441 959 1056 
Q 959 750 1161 570 
Q 1363 391 1709 391 
Q 2188 391 2477 730 
Q 2766 1069 2766 1631 
L 2766 1759 
L 2194 1759 
z
M 3341 1997 
L 3341 0 
L 2766 0 
L 2766 531 
Q 2569 213 2275 61 
Q 1981 -91 1556 -91 
Q 1019 -91 701 211 
Q 384 513 384 1019 
Q 384 1609 779 1909 
Q 1175 2209 1959 2209 
L 2766 2209 
L 2766 2266 
Q 2766 2663 2505 2880 
Q 2244 3097 1772 3097 
Q 1472 3097 1187 3025 
Q 903 2953 641 2809 
L 641 3341 
Q 956 3463 1253 3523 
Q 1550 3584 1831 3584 
Q 2591 3584 2966 3190 
Q 3341 2797 3341 1997 
z
" transform="scale(0.015625)"/>
       <path id="DejaVuSans-6c" d="M 603 4863 
L 1178 4863 
L 1178 0 
L 603 0 
L 603 4863 
z
" transform="scale(0.015625)"/>
       <path id="DejaVuSans-20" transform="scale(0.015625)"/>
       <path id="DejaVuSans-Oblique-54" d="M 378 4666 
L 4325 4666 
L 4225 4134 
L 2559 4134 
L 1759 0 
L 1125 0 
L 1925 4134 
L 275 4134 
L 378 4666 
z
" transform="scale(0.015625)"/>
       <path id="DejaVuSans-Oblique-50" d="M 1081 4666 
L 2541 4666 
Q 3178 4666 3512 4369 
Q 3847 4072 3847 3500 
Q 3847 2731 3353 2303 
Q 2859 1875 1966 1875 
L 1172 1875 
L 806 0 
L 172 0 
L 1081 4666 
z
M 1613 4147 
L 1275 2394 
L 2069 2394 
Q 2606 2394 2893 2669 
Q 3181 2944 3181 3456 
Q 3181 3784 2986 3965 
Q 2791 4147 2438 4147 
L 1613 4147 
z
" transform="scale(0.015625)"/>
       <path id="DejaVuSans-2b" d="M 2944 4013 
L 2944 2272 
L 4684 2272 
L 4684 1741 
L 2944 1741 
L 2944 0 
L 2419 0 
L 2419 1741 
L 678 1741 
L 678 2272 
L 2419 2272 
L 2419 4013 
L 2944 4013 
z
" transform="scale(0.015625)"/>
       <path id="DejaVuSans-Oblique-46" d="M 1081 4666 
L 3756 4666 
L 3653 4134 
L 1606 4134 
L 1338 2759 
L 3188 2759 
L 3084 2228 
L 1234 2228 
L 800 0 
L 172 0 
L 1081 4666 
z
" transform="scale(0.015625)"/>
       <path id="DejaVuSans-Oblique-4e" d="M 1081 4666 
L 1931 4666 
L 3219 666 
L 4000 4666 
L 4616 4666 
L 3706 0 
L 2853 0 
L 1569 4025 
L 788 0 
L 172 0 
L 1081 4666 
z
" transform="scale(0.015625)"/>
      </defs>
      <use xlink:href="#DejaVuSans-52" transform="translate(0 0.16875)"/>
      <use xlink:href="#DejaVuSans-65" transform="translate(69.482422 0.16875)"/>
      <use xlink:href="#DejaVuSans-63" transform="translate(131.005859 0.16875)"/>
      <use xlink:href="#DejaVuSans-61" transform="translate(185.986328 0.16875)"/>
      <use xlink:href="#DejaVuSans-6c" transform="translate(247.265625 0.16875)"/>
      <use xlink:href="#DejaVuSans-6c" transform="translate(275.048828 0.16875)"/>
      <use xlink:href="#DejaVuSans-20" transform="translate(302.832031 0.16875)"/>
      <use xlink:href="#DejaVuSans-Oblique-54" transform="translate(423.619141 43.965625) scale(0.7)"/>
      <use xlink:href="#DejaVuSans-Oblique-50" transform="translate(466.37793 43.965625) scale(0.7)"/>
      <use xlink:href="#DejaVuSans-Oblique-54" transform="translate(334.619141 -38.31875) scale(0.7)"/>
      <use xlink:href="#DejaVuSans-Oblique-50" transform="translate(377.37793 -38.31875) scale(0.7)"/>
      <use xlink:href="#DejaVuSans-2b" transform="translate(433.227539 -38.31875) scale(0.7)"/>
      <use xlink:href="#DejaVuSans-Oblique-46" transform="translate(505.517578 -38.31875) scale(0.7)"/>
      <use xlink:href="#DejaVuSans-Oblique-4e" transform="translate(545.78125 -38.31875) scale(0.7)"/>
      <path d="M 334.619141 18.965625 
L 334.619141 25.215625 
L 598.144531 25.215625 
L 598.144531 18.965625 
L 334.619141 18.965625 
z
"/>
     </g>
    </g>
   </g>
   <g id="matplotlib.axis_2">
    <g id="ytick_1">
     <g id="line2d_7">
      <defs>
       <path id="mdc0b4b32f6" d="M 0 0 
L -3.5 0 
" style="stroke: #000000; stroke-width: 0.8"/>
      </defs>
      <g>
       <use xlink:href="#mdc0b4b32f6" x="94.149969" y="292.065" style="stroke: #000000; stroke-width: 0.8"/>
      </g>
     </g>
     <g id="text_8">
      <!-- 0.0 -->
      <g transform="translate(71.246844 295.864219) scale(0.1 -0.1)">
       <use xlink:href="#DejaVuSans-30"/>
       <use xlink:href="#DejaVuSans-2e" transform="translate(63.623047 0)"/>
       <use xlink:href="#DejaVuSans-30" transform="translate(95.410156 0)"/>
      </g>
     </g>
    </g>
    <g id="ytick_2">
     <g id="line2d_8">
      <g>
       <use xlink:href="#mdc0b4b32f6" x="94.149969" y="239.028" style="stroke: #000000; stroke-width: 0.8"/>
      </g>
     </g>
     <g id="text_9">
      <!-- 0.2 -->
      <g transform="translate(71.246844 242.827219) scale(0.1 -0.1)">
       <use xlink:href="#DejaVuSans-30"/>
       <use xlink:href="#DejaVuSans-2e" transform="translate(63.623047 0)"/>
       <use xlink:href="#DejaVuSans-32" transform="translate(95.410156 0)"/>
      </g>
     </g>
    </g>
    <g id="ytick_3">
     <g id="line2d_9">
      <g>
       <use xlink:href="#mdc0b4b32f6" x="94.149969" y="185.991" style="stroke: #000000; stroke-width: 0.8"/>
      </g>
     </g>
     <g id="text_10">
      <!-- 0.4 -->
      <g transform="translate(71.246844 189.790219) scale(0.1 -0.1)">
       <use xlink:href="#DejaVuSans-30"/>
       <use xlink:href="#DejaVuSans-2e" transform="translate(63.623047 0)"/>
       <use xlink:href="#DejaVuSans-34" transform="translate(95.410156 0)"/>
      </g>
     </g>
    </g>
    <g id="ytick_4">
     <g id="line2d_10">
      <g>
       <use xlink:href="#mdc0b4b32f6" x="94.149969" y="132.954" style="stroke: #000000; stroke-width: 0.8"/>
      </g>
     </g>
     <g id="text_11">
      <!-- 0.6 -->
      <g transform="translate(71.246844 136.753219) scale(0.1 -0.1)">
       <use xlink:href="#DejaVuSans-30"/>
       <use xlink:href="#DejaVuSans-2e" transform="translate(63.623047 0)"/>
       <use xlink:href="#DejaVuSans-36" transform="translate(95.410156 0)"/>
      </g>
     </g>
    </g>
    <g id="ytick_5">
     <g id="line2d_11">
      <g>
       <use xlink:href="#mdc0b4b32f6" x="94.149969" y="79.917" style="stroke: #000000; stroke-width: 0.8"/>
      </g>
     </g>
     <g id="text_12">
      <!-- 0.8 -->
      <g transform="translate(71.246844 83.716219) scale(0.1 -0.1)">
       <use xlink:href="#DejaVuSans-30"/>
       <use xlink:href="#DejaVuSans-2e" transform="translate(63.623047 0)"/>
       <use xlink:href="#DejaVuSans-38" transform="translate(95.410156 0)"/>
      </g>
     </g>
    </g>
    <g id="ytick_6">
     <g id="line2d_12">
      <g>
       <use xlink:href="#mdc0b4b32f6" x="94.149969" y="26.88" style="stroke: #000000; stroke-width: 0.8"/>
      </g>
     </g>
     <g id="text_13">
      <!-- 1.0 -->
      <g transform="translate(71.246844 30.679219) scale(0.1 -0.1)">
       <use xlink:href="#DejaVuSans-31"/>
       <use xlink:href="#DejaVuSans-2e" transform="translate(63.623047 0)"/>
       <use xlink:href="#DejaVuSans-30" transform="translate(95.410156 0)"/>
      </g>
     </g>
    </g>
    <g id="text_14">
     <!-- Precision $\frac{{TP}}{{TP + FP}}$ -->
     <g transform="translate(61.786844 211.8325) rotate(-90) scale(0.14 -0.14)">
      <defs>
       <path id="DejaVuSans-50" d="M 1259 4147 
L 1259 2394 
L 2053 2394 
Q 2494 2394 2734 2622 
Q 2975 2850 2975 3272 
Q 2975 3691 2734 3919 
Q 2494 4147 2053 4147 
L 1259 4147 
z
M 628 4666 
L 2053 4666 
Q 2838 4666 3239 4311 
Q 3641 3956 3641 3272 
Q 3641 2581 3239 2228 
Q 2838 1875 2053 1875 
L 1259 1875 
L 1259 0 
L 628 0 
L 628 4666 
z
" transform="scale(0.015625)"/>
       <path id="DejaVuSans-72" d="M 2631 2963 
Q 2534 3019 2420 3045 
Q 2306 3072 2169 3072 
Q 1681 3072 1420 2755 
Q 1159 2438 1159 1844 
L 1159 0 
L 581 0 
L 581 3500 
L 1159 3500 
L 1159 2956 
Q 1341 3275 1631 3429 
Q 1922 3584 2338 3584 
Q 2397 3584 2469 3576 
Q 2541 3569 2628 3553 
L 2631 2963 
z
" transform="scale(0.015625)"/>
       <path id="DejaVuSans-69" d="M 603 3500 
L 1178 3500 
L 1178 0 
L 603 0 
L 603 3500 
z
M 603 4863 
L 1178 4863 
L 1178 4134 
L 603 4134 
L 603 4863 
z
" transform="scale(0.015625)"/>
       <path id="DejaVuSans-73" d="M 2834 3397 
L 2834 2853 
Q 2591 2978 2328 3040 
Q 2066 3103 1784 3103 
Q 1356 3103 1142 2972 
Q 928 2841 928 2578 
Q 928 2378 1081 2264 
Q 1234 2150 1697 2047 
L 1894 2003 
Q 2506 1872 2764 1633 
Q 3022 1394 3022 966 
Q 3022 478 2636 193 
Q 2250 -91 1575 -91 
Q 1294 -91 989 -36 
Q 684 19 347 128 
L 347 722 
Q 666 556 975 473 
Q 1284 391 1588 391 
Q 1994 391 2212 530 
Q 2431 669 2431 922 
Q 2431 1156 2273 1281 
Q 2116 1406 1581 1522 
L 1381 1569 
Q 847 1681 609 1914 
Q 372 2147 372 2553 
Q 372 3047 722 3315 
Q 1072 3584 1716 3584 
Q 2034 3584 2315 3537 
Q 2597 3491 2834 3397 
z
" transform="scale(0.015625)"/>
       <path id="DejaVuSans-6f" d="M 1959 3097 
Q 1497 3097 1228 2736 
Q 959 2375 959 1747 
Q 959 1119 1226 758 
Q 1494 397 1959 397 
Q 2419 397 2687 759 
Q 2956 1122 2956 1747 
Q 2956 2369 2687 2733 
Q 2419 3097 1959 3097 
z
M 1959 3584 
Q 2709 3584 3137 3096 
Q 3566 2609 3566 1747 
Q 3566 888 3137 398 
Q 2709 -91 1959 -91 
Q 1206 -91 779 398 
Q 353 888 353 1747 
Q 353 2609 779 3096 
Q 1206 3584 1959 3584 
z
" transform="scale(0.015625)"/>
       <path id="DejaVuSans-6e" d="M 3513 2113 
L 3513 0 
L 2938 0 
L 2938 2094 
Q 2938 2591 2744 2837 
Q 2550 3084 2163 3084 
Q 1697 3084 1428 2787 
Q 1159 2491 1159 1978 
L 1159 0 
L 581 0 
L 581 3500 
L 1159 3500 
L 1159 2956 
Q 1366 3272 1645 3428 
Q 1925 3584 2291 3584 
Q 2894 3584 3203 3211 
Q 3513 2838 3513 2113 
z
" transform="scale(0.015625)"/>
      </defs>
      <use xlink:href="#DejaVuSans-50" transform="translate(0 0.16875)"/>
      <use xlink:href="#DejaVuSans-72" transform="translate(60.302734 0.16875)"/>
      <use xlink:href="#DejaVuSans-65" transform="translate(101.416016 0.16875)"/>
      <use xlink:href="#DejaVuSans-63" transform="translate(162.939453 0.16875)"/>
      <use xlink:href="#DejaVuSans-69" transform="translate(217.919922 0.16875)"/>
      <use xlink:href="#DejaVuSans-73" transform="translate(245.703125 0.16875)"/>
      <use xlink:href="#DejaVuSans-69" transform="translate(297.802734 0.16875)"/>
      <use xlink:href="#DejaVuSans-6f" transform="translate(325.585938 0.16875)"/>
      <use xlink:href="#DejaVuSans-6e" transform="translate(386.767578 0.16875)"/>
      <use xlink:href="#DejaVuSans-20" transform="translate(450.146484 0.16875)"/>
      <use xlink:href="#DejaVuSans-Oblique-54" transform="translate(565.933594 43.965625) scale(0.7)"/>
      <use xlink:href="#DejaVuSans-Oblique-50" transform="translate(608.692383 43.965625) scale(0.7)"/>
      <use xlink:href="#DejaVuSans-Oblique-54" transform="translate(481.933594 -38.31875) scale(0.7)"/>
      <use xlink:href="#DejaVuSans-Oblique-50" transform="translate(524.692383 -38.31875) scale(0.7)"/>
      <use xlink:href="#DejaVuSans-2b" transform="translate(580.541992 -38.31875) scale(0.7)"/>
      <use xlink:href="#DejaVuSans-Oblique-46" transform="translate(652.832031 -38.31875) scale(0.7)"/>
      <use xlink:href="#DejaVuSans-Oblique-50" transform="translate(693.095703 -38.31875) scale(0.7)"/>
      <path d="M 481.933594 18.965625 
L 481.933594 25.215625 
L 735.307617 25.215625 
L 735.307617 18.965625 
L 481.933594 18.965625 
z
"/>
     </g>
    </g>
   </g>
   <g id="line2d_13">
    <path d="M 367.025334 159.4725 
L 282.166134 115.275 
L 271.558734 107.588478 
L 260.951334 102.647143 
L 255.647634 104.495122 
L 255.647634 99.805875 
L 250.343934 96.665526 
L 250.343934 91.384459 
L 245.040234 93.17625 
L 239.736534 95.070429 
L 239.736534 89.276471 
L 239.736534 83.131364 
L 234.432834 78.206129 
L 234.432834 71.0775 
L 229.129134 72.601552 
L 223.825434 74.234464 
L 223.825434 66.166667 
L 218.521734 67.677692 
L 213.218034 69.3096 
L 213.218034 60.028125 
L 207.914334 61.469348 
L 202.610634 63.041591 
L 197.306934 64.763571 
L 192.003234 66.65775 
L 186.699534 68.751316 
L 181.395834 71.0775 
L 176.092134 73.677353 
L 165.484734 79.917 
L 160.181034 83.705357 
L 160.181034 67.677692 
L 160.181034 48.97875 
L 154.877334 50.987727 
L 149.573634 53.3985 
L 144.269934 56.345 
L 138.966234 60.028125 
L 133.662534 64.763571 
L 128.358834 71.0775 
L 123.055134 79.917 
L 117.751434 93.17625 
L 112.447734 115.275 
L 112.447734 26.88 
L 107.144034 26.88 
" clip-path="url(#p106378276e)" style="fill: none; stroke: #1f77b4; stroke-width: 1.5; stroke-linecap: square"/>
   </g>
   <g id="line2d_14">
    <path d="M 367.025334 159.4725 
L 313.988334 174.205 
L 313.988334 159.4725 
L 260.951334 178.414286 
L 207.914334 203.67 
L 154.877334 203.67 
L 154.877334 159.4725 
L 154.877334 26.88 
" clip-path="url(#p106378276e)" style="fill: none; stroke: #ff7f0e; stroke-width: 1.5; stroke-linecap: square"/>
   </g>
   <g id="line2d_15">
    <path d="M 367.025334 159.4725 
L 367.025334 158.133182 
L 361.721634 159.4725 
L 356.417934 160.839433 
L 351.114234 162.234844 
L 351.114234 160.868211 
L 351.114234 159.4725 
L 345.810534 160.898226 
L 345.810534 159.4725 
L 345.810534 158.01544 
L 345.810534 156.526 
L 340.506834 157.982697 
L 340.506834 156.459034 
L 335.203134 157.948448 
L 335.203134 156.388953 
L 335.203134 154.792765 
L 335.203134 153.158571 
L 335.203134 151.485 
L 329.899434 153.004573 
L 324.595734 154.561667 
L 324.595734 152.842875 
L 324.595734 151.08057 
L 324.595734 149.273077 
L 324.595734 147.418636 
L 324.595734 145.515395 
L 324.595734 143.5614 
L 324.595734 141.554595 
L 324.595734 139.492808 
L 319.292034 141.056875 
L 319.292034 138.93 
L 319.292034 136.742357 
L 319.292034 134.491304 
L 319.292034 132.174044 
L 319.292034 129.787612 
L 319.292034 127.328864 
L 313.988334 128.874231 
L 313.988334 126.324375 
L 308.684634 127.902857 
L 308.684634 125.255081 
L 308.684634 122.520492 
L 308.684634 119.69475 
L 308.684634 116.77322 
L 308.684634 113.750948 
L 303.380934 115.275 
L 298.077234 116.853482 
L 292.773534 118.489364 
L 292.773534 115.275 
L 292.773534 111.93934 
L 292.773534 108.475385 
L 292.773534 104.875588 
L 292.773534 101.1318 
L 287.469834 102.647143 
L 282.166134 104.225625 
L 276.862434 105.871277 
L 271.558734 107.588478 
L 266.255034 109.382 
L 260.951334 111.257045 
L 255.647634 113.219302 
L 255.647634 108.961071 
L 250.343934 110.963049 
L 245.040234 113.065125 
L 239.736534 115.275 
L 234.432834 117.601184 
L 234.432834 112.885946 
L 229.129134 115.275 
L 229.129134 110.223857 
L 223.825434 112.675147 
L 223.825434 107.239091 
L 218.521734 109.750312 
L 213.218034 112.423548 
L 207.914334 115.275 
L 207.914334 109.178793 
L 207.914334 102.647143 
L 202.610634 105.453333 
L 202.610634 98.275962 
L 202.610634 90.5244 
L 197.306934 93.17625 
L 197.306934 84.528913 
L 197.306934 75.095455 
L 192.003234 77.391429 
L 186.699534 79.917 
L 181.395834 82.708421 
L 181.395834 71.0775 
L 176.092134 73.677353 
L 170.788434 76.602187 
L 165.484734 79.917 
L 160.181034 83.705357 
L 154.877334 88.076538 
L 149.573634 93.17625 
L 144.269934 99.203182 
L 138.966234 106.4355 
L 133.662534 115.275 
L 128.358834 126.324375 
L 123.055134 140.530714 
L 123.055134 115.275 
L 117.751434 132.954 
L 112.447734 159.4725 
L 107.144034 203.67 
L 107.144034 159.4725 
L 107.144034 26.88 
" clip-path="url(#p106378276e)" style="fill: none; stroke-dasharray: 5.55,2.4; stroke-dashoffset: 0; stroke: #2ca02c; stroke-width: 1.5"/>
   </g>
   <g id="line2d_16">
    <path d="M 367.025334 159.4725 
L 361.721634 160.811818 
L 361.721634 159.4725 
L 356.417934 160.839433 
L 351.114234 162.234844 
L 345.810534 163.659632 
L 345.810534 162.293617 
L 345.810534 160.898226 
L 345.810534 159.4725 
L 345.810534 158.01544 
L 345.810534 156.526 
L 340.506834 157.982697 
L 335.203134 159.4725 
L 335.203134 157.948448 
L 335.203134 156.388953 
L 335.203134 154.792765 
L 335.203134 153.158571 
L 335.203134 151.485 
L 335.203134 149.77061 
L 329.899434 151.287778 
L 329.899434 149.528062 
L 329.899434 147.723797 
L 329.899434 145.873269 
L 329.899434 143.974675 
L 329.899434 142.026118 
L 329.899434 140.0256 
L 329.899434 137.971014 
L 329.899434 135.860137 
L 324.595734 137.37375 
L 324.595734 135.195 
L 324.595734 132.954 
L 319.292034 134.491304 
L 313.988334 136.073824 
L 313.988334 133.745597 
L 308.684634 135.364773 
L 308.684634 132.954 
L 303.380934 134.611406 
L 303.380934 132.112143 
L 303.380934 129.532258 
L 303.380934 126.867787 
L 298.077234 128.53425 
L 292.773534 130.257203 
L 292.773534 127.467414 
L 292.773534 124.579737 
L 287.469834 126.324375 
L 282.166134 128.132455 
L 276.862434 130.0075 
L 271.558734 131.953302 
L 271.558734 128.874231 
L 266.255034 130.874118 
L 266.255034 127.6503 
L 266.255034 124.294898 
L 266.255034 120.799687 
L 266.255034 117.155745 
L 260.951334 119.118261 
L 255.647634 121.168 
L 255.647634 117.283977 
L 255.647634 113.219302 
L 255.647634 108.961071 
L 255.647634 104.495122 
L 250.343934 106.4355 
L 250.343934 101.675769 
L 245.040234 103.644079 
L 239.736534 105.718784 
L 239.736534 100.5425 
L 234.432834 102.647143 
L 229.129134 104.875588 
L 229.129134 99.203182 
L 223.825434 101.463281 
L 218.521734 103.869194 
L 213.218034 106.4355 
L 207.914334 109.178793 
L 202.610634 112.118036 
L 202.610634 105.453333 
L 202.610634 98.275962 
L 197.306934 101.1318 
L 192.003234 104.225625 
L 186.699534 107.588478 
L 181.395834 111.257045 
L 181.395834 102.647143 
L 181.395834 93.17625 
L 176.092134 96.665526 
L 170.788434 100.5425 
L 170.788434 89.276471 
L 165.484734 93.17625 
L 160.181034 97.596 
L 154.877334 102.647143 
L 149.573634 108.475385 
L 149.573634 93.17625 
L 144.269934 99.203182 
L 138.966234 106.4355 
L 133.662534 115.275 
L 128.358834 126.324375 
L 123.055134 140.530714 
L 123.055134 115.275 
L 117.751434 132.954 
L 112.447734 159.4725 
L 107.144034 203.67 
L 107.144034 159.4725 
L 107.144034 26.88 
" clip-path="url(#p106378276e)" style="fill: none; stroke-dasharray: 5.55,2.4; stroke-dashoffset: 0; stroke: #d62728; stroke-width: 1.5"/>
   </g>
   <g id="line2d_17">
    <path d="M 367.025334 159.4725 
L 367.025334 158.133182 
L 367.025334 156.766531 
L 367.025334 155.371701 
L 361.721634 156.710156 
L 361.721634 155.285368 
L 361.721634 153.830266 
L 361.721634 152.343871 
L 356.417934 153.707609 
L 356.417934 152.187198 
L 356.417934 150.633 
L 356.417934 149.043876 
L 356.417934 147.418636 
L 351.114234 148.804138 
L 345.810534 150.22186 
L 340.506834 151.672941 
L 340.506834 150.001607 
L 340.506834 148.29 
L 335.203134 149.77061 
L 335.203134 148.013889 
L 329.899434 149.528062 
L 324.595734 151.08057 
L 319.292034 152.672885 
L 313.988334 154.306558 
L 313.988334 152.493947 
L 313.988334 150.633 
L 313.988334 148.721757 
L 313.988334 146.758151 
L 313.988334 144.74 
L 313.988334 142.665 
L 313.988334 140.530714 
L 313.988334 138.334565 
L 313.988334 136.073824 
L 313.988334 133.745597 
L 308.684634 135.364773 
L 308.684634 132.954 
L 303.380934 134.611406 
L 303.380934 132.112143 
L 303.380934 129.532258 
L 303.380934 126.867787 
L 298.077234 128.53425 
L 298.077234 125.762542 
L 298.077234 122.895259 
L 292.773534 124.579737 
L 287.469834 126.324375 
L 282.166134 128.132455 
L 276.862434 130.0075 
L 271.558734 131.953302 
L 266.255034 133.973942 
L 260.951334 136.073824 
L 255.647634 138.2577 
L 250.343934 140.530714 
L 250.343934 137.37375 
L 250.343934 134.082447 
L 250.343934 130.648043 
L 245.040234 132.954 
L 245.040234 129.337841 
L 245.040234 125.553488 
L 245.040234 121.588929 
L 239.736534 123.898902 
L 234.432834 126.324375 
L 229.129134 128.874231 
L 223.825434 131.558289 
L 218.521734 134.387432 
L 213.218034 137.37375 
L 213.218034 132.954 
L 213.218034 128.274265 
L 213.218034 123.310909 
L 213.218034 118.037344 
L 207.914334 120.977903 
L 207.914334 115.275 
L 202.610634 118.323103 
L 202.610634 112.118036 
L 197.306934 115.275 
L 192.003234 118.674808 
L 186.699534 122.3466 
L 181.395834 126.324375 
L 176.092134 130.648043 
L 170.788434 135.364773 
L 165.484734 140.530714 
L 160.181034 146.21325 
L 154.877334 152.493947 
L 154.877334 144.74 
L 149.573634 151.672941 
L 149.573634 142.898437 
L 144.269934 150.633 
L 138.966234 159.4725 
L 138.966234 149.273077 
L 138.966234 137.37375 
L 138.966234 123.310909 
L 133.662534 132.954 
L 133.662534 115.275 
L 128.358834 126.324375 
L 123.055134 140.530714 
L 117.751434 159.4725 
L 112.447734 185.991 
L 107.144034 225.76875 
L 107.144034 203.67 
L 107.144034 159.4725 
L 107.144034 26.88 
" clip-path="url(#p106378276e)" style="fill: none; stroke-dasharray: 5.55,2.4; stroke-dashoffset: 0; stroke: #9467bd; stroke-width: 1.5"/>
   </g>
   <g id="patch_3">
    <path d="M 94.149969 292.065 
L 94.149969 26.88 
" style="fill: none; stroke: #000000; stroke-width: 0.8; stroke-linejoin: miter; stroke-linecap: square"/>
   </g>
   <g id="patch_4">
    <path d="M 380.019399 292.065 
L 380.019399 26.88 
" style="fill: none; stroke: #000000; stroke-width: 0.8; stroke-linejoin: miter; stroke-linecap: square"/>
   </g>
   <g id="patch_5">
    <path d="M 94.149969 292.065 
L 380.019399 292.065 
" style="fill: none; stroke: #000000; stroke-width: 0.8; stroke-linejoin: miter; stroke-linecap: square"/>
   </g>
   <g id="patch_6">
    <path d="M 94.149969 26.88 
L 380.019399 26.88 
" style="fill: none; stroke: #000000; stroke-width: 0.8; stroke-linejoin: miter; stroke-linecap: square"/>
   </g>
   <g id="text_15">
    <!-- Precision-Recall Curve for Same Author Data -->
    <g transform="translate(103.217184 20.88) scale(0.12 -0.12)">
     <defs>
      <path id="DejaVuSans-2d" d="M 313 2009 
L 1997 2009 
L 1997 1497 
L 313 1497 
L 313 2009 
z
" transform="scale(0.015625)"/>
      <path id="DejaVuSans-43" d="M 4122 4306 
L 4122 3641 
Q 3803 3938 3442 4084 
Q 3081 4231 2675 4231 
Q 1875 4231 1450 3742 
Q 1025 3253 1025 2328 
Q 1025 1406 1450 917 
Q 1875 428 2675 428 
Q 3081 428 3442 575 
Q 3803 722 4122 1019 
L 4122 359 
Q 3791 134 3420 21 
Q 3050 -91 2638 -91 
Q 1578 -91 968 557 
Q 359 1206 359 2328 
Q 359 3453 968 4101 
Q 1578 4750 2638 4750 
Q 3056 4750 3426 4639 
Q 3797 4528 4122 4306 
z
" transform="scale(0.015625)"/>
      <path id="DejaVuSans-75" d="M 544 1381 
L 544 3500 
L 1119 3500 
L 1119 1403 
Q 1119 906 1312 657 
Q 1506 409 1894 409 
Q 2359 409 2629 706 
Q 2900 1003 2900 1516 
L 2900 3500 
L 3475 3500 
L 3475 0 
L 2900 0 
L 2900 538 
Q 2691 219 2414 64 
Q 2138 -91 1772 -91 
Q 1169 -91 856 284 
Q 544 659 544 1381 
z
M 1991 3584 
L 1991 3584 
z
" transform="scale(0.015625)"/>
      <path id="DejaVuSans-76" d="M 191 3500 
L 800 3500 
L 1894 563 
L 2988 3500 
L 3597 3500 
L 2284 0 
L 1503 0 
L 191 3500 
z
" transform="scale(0.015625)"/>
      <path id="DejaVuSans-66" d="M 2375 4863 
L 2375 4384 
L 1825 4384 
Q 1516 4384 1395 4259 
Q 1275 4134 1275 3809 
L 1275 3500 
L 2222 3500 
L 2222 3053 
L 1275 3053 
L 1275 0 
L 697 0 
L 697 3053 
L 147 3053 
L 147 3500 
L 697 3500 
L 697 3744 
Q 697 4328 969 4595 
Q 1241 4863 1831 4863 
L 2375 4863 
z
" transform="scale(0.015625)"/>
      <path id="DejaVuSans-53" d="M 3425 4513 
L 3425 3897 
Q 3066 4069 2747 4153 
Q 2428 4238 2131 4238 
Q 1616 4238 1336 4038 
Q 1056 3838 1056 3469 
Q 1056 3159 1242 3001 
Q 1428 2844 1947 2747 
L 2328 2669 
Q 3034 2534 3370 2195 
Q 3706 1856 3706 1288 
Q 3706 609 3251 259 
Q 2797 -91 1919 -91 
Q 1588 -91 1214 -16 
Q 841 59 441 206 
L 441 856 
Q 825 641 1194 531 
Q 1563 422 1919 422 
Q 2459 422 2753 634 
Q 3047 847 3047 1241 
Q 3047 1584 2836 1778 
Q 2625 1972 2144 2069 
L 1759 2144 
Q 1053 2284 737 2584 
Q 422 2884 422 3419 
Q 422 4038 858 4394 
Q 1294 4750 2059 4750 
Q 2388 4750 2728 4690 
Q 3069 4631 3425 4513 
z
" transform="scale(0.015625)"/>
      <path id="DejaVuSans-6d" d="M 3328 2828 
Q 3544 3216 3844 3400 
Q 4144 3584 4550 3584 
Q 5097 3584 5394 3201 
Q 5691 2819 5691 2113 
L 5691 0 
L 5113 0 
L 5113 2094 
Q 5113 2597 4934 2840 
Q 4756 3084 4391 3084 
Q 3944 3084 3684 2787 
Q 3425 2491 3425 1978 
L 3425 0 
L 2847 0 
L 2847 2094 
Q 2847 2600 2669 2842 
Q 2491 3084 2119 3084 
Q 1678 3084 1418 2786 
Q 1159 2488 1159 1978 
L 1159 0 
L 581 0 
L 581 3500 
L 1159 3500 
L 1159 2956 
Q 1356 3278 1631 3431 
Q 1906 3584 2284 3584 
Q 2666 3584 2933 3390 
Q 3200 3197 3328 2828 
z
" transform="scale(0.015625)"/>
      <path id="DejaVuSans-41" d="M 2188 4044 
L 1331 1722 
L 3047 1722 
L 2188 4044 
z
M 1831 4666 
L 2547 4666 
L 4325 0 
L 3669 0 
L 3244 1197 
L 1141 1197 
L 716 0 
L 50 0 
L 1831 4666 
z
" transform="scale(0.015625)"/>
      <path id="DejaVuSans-74" d="M 1172 4494 
L 1172 3500 
L 2356 3500 
L 2356 3053 
L 1172 3053 
L 1172 1153 
Q 1172 725 1289 603 
Q 1406 481 1766 481 
L 2356 481 
L 2356 0 
L 1766 0 
Q 1100 0 847 248 
Q 594 497 594 1153 
L 594 3053 
L 172 3053 
L 172 3500 
L 594 3500 
L 594 4494 
L 1172 4494 
z
" transform="scale(0.015625)"/>
      <path id="DejaVuSans-68" d="M 3513 2113 
L 3513 0 
L 2938 0 
L 2938 2094 
Q 2938 2591 2744 2837 
Q 2550 3084 2163 3084 
Q 1697 3084 1428 2787 
Q 1159 2491 1159 1978 
L 1159 0 
L 581 0 
L 581 4863 
L 1159 4863 
L 1159 2956 
Q 1366 3272 1645 3428 
Q 1925 3584 2291 3584 
Q 2894 3584 3203 3211 
Q 3513 2838 3513 2113 
z
" transform="scale(0.015625)"/>
      <path id="DejaVuSans-44" d="M 1259 4147 
L 1259 519 
L 2022 519 
Q 2988 519 3436 956 
Q 3884 1394 3884 2338 
Q 3884 3275 3436 3711 
Q 2988 4147 2022 4147 
L 1259 4147 
z
M 628 4666 
L 1925 4666 
Q 3281 4666 3915 4102 
Q 4550 3538 4550 2338 
Q 4550 1131 3912 565 
Q 3275 0 1925 0 
L 628 0 
L 628 4666 
z
" transform="scale(0.015625)"/>
     </defs>
     <use xlink:href="#DejaVuSans-50"/>
     <use xlink:href="#DejaVuSans-72" transform="translate(58.552734 0)"/>
     <use xlink:href="#DejaVuSans-65" transform="translate(97.416016 0)"/>
     <use xlink:href="#DejaVuSans-63" transform="translate(158.939453 0)"/>
     <use xlink:href="#DejaVuSans-69" transform="translate(213.919922 0)"/>
     <use xlink:href="#DejaVuSans-73" transform="translate(241.703125 0)"/>
     <use xlink:href="#DejaVuSans-69" transform="translate(293.802734 0)"/>
     <use xlink:href="#DejaVuSans-6f" transform="translate(321.585938 0)"/>
     <use xlink:href="#DejaVuSans-6e" transform="translate(382.767578 0)"/>
     <use xlink:href="#DejaVuSans-2d" transform="translate(446.146484 0)"/>
     <use xlink:href="#DejaVuSans-52" transform="translate(482.230469 0)"/>
     <use xlink:href="#DejaVuSans-65" transform="translate(547.212891 0)"/>
     <use xlink:href="#DejaVuSans-63" transform="translate(608.736328 0)"/>
     <use xlink:href="#DejaVuSans-61" transform="translate(663.716797 0)"/>
     <use xlink:href="#DejaVuSans-6c" transform="translate(724.996094 0)"/>
     <use xlink:href="#DejaVuSans-6c" transform="translate(752.779297 0)"/>
     <use xlink:href="#DejaVuSans-20" transform="translate(780.5625 0)"/>
     <use xlink:href="#DejaVuSans-43" transform="translate(812.349609 0)"/>
     <use xlink:href="#DejaVuSans-75" transform="translate(882.173828 0)"/>
     <use xlink:href="#DejaVuSans-72" transform="translate(945.552734 0)"/>
     <use xlink:href="#DejaVuSans-76" transform="translate(986.666016 0)"/>
     <use xlink:href="#DejaVuSans-65" transform="translate(1045.845703 0)"/>
     <use xlink:href="#DejaVuSans-20" transform="translate(1107.369141 0)"/>
     <use xlink:href="#DejaVuSans-66" transform="translate(1139.15625 0)"/>
     <use xlink:href="#DejaVuSans-6f" transform="translate(1174.361328 0)"/>
     <use xlink:href="#DejaVuSans-72" transform="translate(1235.542969 0)"/>
     <use xlink:href="#DejaVuSans-20" transform="translate(1276.65625 0)"/>
     <use xlink:href="#DejaVuSans-53" transform="translate(1308.443359 0)"/>
     <use xlink:href="#DejaVuSans-61" transform="translate(1371.919922 0)"/>
     <use xlink:href="#DejaVuSans-6d" transform="translate(1433.199219 0)"/>
     <use xlink:href="#DejaVuSans-65" transform="translate(1530.611328 0)"/>
     <use xlink:href="#DejaVuSans-20" transform="translate(1592.134766 0)"/>
     <use xlink:href="#DejaVuSans-41" transform="translate(1623.921875 0)"/>
     <use xlink:href="#DejaVuSans-75" transform="translate(1692.330078 0)"/>
     <use xlink:href="#DejaVuSans-74" transform="translate(1755.708984 0)"/>
     <use xlink:href="#DejaVuSans-68" transform="translate(1794.917969 0)"/>
     <use xlink:href="#DejaVuSans-6f" transform="translate(1858.296875 0)"/>
     <use xlink:href="#DejaVuSans-72" transform="translate(1919.478516 0)"/>
     <use xlink:href="#DejaVuSans-20" transform="translate(1960.591797 0)"/>
     <use xlink:href="#DejaVuSans-44" transform="translate(1992.378906 0)"/>
     <use xlink:href="#DejaVuSans-61" transform="translate(2069.380859 0)"/>
     <use xlink:href="#DejaVuSans-74" transform="translate(2130.660156 0)"/>
     <use xlink:href="#DejaVuSans-61" transform="translate(2169.869141 0)"/>
    </g>
   </g>
   <g id="legend_1">
    <g id="patch_7">
     <path d="M 243.242836 287.065 
L 373.019399 287.065 
Q 375.019399 287.065 375.019399 285.065 
L 375.019399 212.674375 
Q 375.019399 210.674375 373.019399 210.674375 
L 243.242836 210.674375 
Q 241.242836 210.674375 241.242836 212.674375 
L 241.242836 285.065 
Q 241.242836 287.065 243.242836 287.065 
z
" style="fill: #ffffff; opacity: 0.8; stroke: #cccccc; stroke-linejoin: miter"/>
    </g>
    <g id="line2d_18">
     <path d="M 245.242836 218.772812 
L 255.242836 218.772812 
L 265.242836 218.772812 
" style="fill: none; stroke: #1f77b4; stroke-width: 1.5; stroke-linecap: square"/>
    </g>
    <g id="text_16">
     <!-- Fixed -->
     <g transform="translate(273.242836 222.272812) scale(0.1 -0.1)">
      <defs>
       <path id="DejaVuSans-46" d="M 628 4666 
L 3309 4666 
L 3309 4134 
L 1259 4134 
L 1259 2759 
L 3109 2759 
L 3109 2228 
L 1259 2228 
L 1259 0 
L 628 0 
L 628 4666 
z
" transform="scale(0.015625)"/>
       <path id="DejaVuSans-78" d="M 3513 3500 
L 2247 1797 
L 3578 0 
L 2900 0 
L 1881 1375 
L 863 0 
L 184 0 
L 1544 1831 
L 300 3500 
L 978 3500 
L 1906 2253 
L 2834 3500 
L 3513 3500 
z
" transform="scale(0.015625)"/>
       <path id="DejaVuSans-64" d="M 2906 2969 
L 2906 4863 
L 3481 4863 
L 3481 0 
L 2906 0 
L 2906 525 
Q 2725 213 2448 61 
Q 2172 -91 1784 -91 
Q 1150 -91 751 415 
Q 353 922 353 1747 
Q 353 2572 751 3078 
Q 1150 3584 1784 3584 
Q 2172 3584 2448 3432 
Q 2725 3281 2906 2969 
z
M 947 1747 
Q 947 1113 1208 752 
Q 1469 391 1925 391 
Q 2381 391 2643 752 
Q 2906 1113 2906 1747 
Q 2906 2381 2643 2742 
Q 2381 3103 1925 3103 
Q 1469 3103 1208 2742 
Q 947 2381 947 1747 
z
" transform="scale(0.015625)"/>
      </defs>
      <use xlink:href="#DejaVuSans-46"/>
      <use xlink:href="#DejaVuSans-69" transform="translate(50.269531 0)"/>
      <use xlink:href="#DejaVuSans-78" transform="translate(78.052734 0)"/>
      <use xlink:href="#DejaVuSans-65" transform="translate(134.107422 0)"/>
      <use xlink:href="#DejaVuSans-64" transform="translate(195.630859 0)"/>
     </g>
    </g>
    <g id="line2d_19">
     <path d="M 245.242836 233.450937 
L 255.242836 233.450937 
L 265.242836 233.450937 
" style="fill: none; stroke: #ff7f0e; stroke-width: 1.5; stroke-linecap: square"/>
    </g>
    <g id="text_17">
     <!-- On-the-Fly -->
     <g transform="translate(273.242836 236.950937) scale(0.1 -0.1)">
      <defs>
       <path id="DejaVuSans-4f" d="M 2522 4238 
Q 1834 4238 1429 3725 
Q 1025 3213 1025 2328 
Q 1025 1447 1429 934 
Q 1834 422 2522 422 
Q 3209 422 3611 934 
Q 4013 1447 4013 2328 
Q 4013 3213 3611 3725 
Q 3209 4238 2522 4238 
z
M 2522 4750 
Q 3503 4750 4090 4092 
Q 4678 3434 4678 2328 
Q 4678 1225 4090 567 
Q 3503 -91 2522 -91 
Q 1538 -91 948 565 
Q 359 1222 359 2328 
Q 359 3434 948 4092 
Q 1538 4750 2522 4750 
z
" transform="scale(0.015625)"/>
       <path id="DejaVuSans-79" d="M 2059 -325 
Q 1816 -950 1584 -1140 
Q 1353 -1331 966 -1331 
L 506 -1331 
L 506 -850 
L 844 -850 
Q 1081 -850 1212 -737 
Q 1344 -625 1503 -206 
L 1606 56 
L 191 3500 
L 800 3500 
L 1894 763 
L 2988 3500 
L 3597 3500 
L 2059 -325 
z
" transform="scale(0.015625)"/>
      </defs>
      <use xlink:href="#DejaVuSans-4f"/>
      <use xlink:href="#DejaVuSans-6e" transform="translate(78.710938 0)"/>
      <use xlink:href="#DejaVuSans-2d" transform="translate(142.089844 0)"/>
      <use xlink:href="#DejaVuSans-74" transform="translate(178.173828 0)"/>
      <use xlink:href="#DejaVuSans-68" transform="translate(217.382812 0)"/>
      <use xlink:href="#DejaVuSans-65" transform="translate(280.761719 0)"/>
      <use xlink:href="#DejaVuSans-2d" transform="translate(342.285156 0)"/>
      <use xlink:href="#DejaVuSans-46" transform="translate(378.369141 0)"/>
      <use xlink:href="#DejaVuSans-6c" transform="translate(435.888672 0)"/>
      <use xlink:href="#DejaVuSans-79" transform="translate(463.671875 0)"/>
     </g>
    </g>
    <g id="line2d_20">
     <path d="M 245.242836 248.129062 
L 255.242836 248.129062 
L 265.242836 248.129062 
" style="fill: none; stroke-dasharray: 5.55,2.4; stroke-dashoffset: 0; stroke: #2ca02c; stroke-width: 1.5"/>
    </g>
    <g id="text_18">
     <!-- Unsup. Min-Max (B) -->
     <g transform="translate(273.242836 251.629062) scale(0.1 -0.1)">
      <defs>
       <path id="DejaVuSans-55" d="M 556 4666 
L 1191 4666 
L 1191 1831 
Q 1191 1081 1462 751 
Q 1734 422 2344 422 
Q 2950 422 3222 751 
Q 3494 1081 3494 1831 
L 3494 4666 
L 4128 4666 
L 4128 1753 
Q 4128 841 3676 375 
Q 3225 -91 2344 -91 
Q 1459 -91 1007 375 
Q 556 841 556 1753 
L 556 4666 
z
" transform="scale(0.015625)"/>
       <path id="DejaVuSans-70" d="M 1159 525 
L 1159 -1331 
L 581 -1331 
L 581 3500 
L 1159 3500 
L 1159 2969 
Q 1341 3281 1617 3432 
Q 1894 3584 2278 3584 
Q 2916 3584 3314 3078 
Q 3713 2572 3713 1747 
Q 3713 922 3314 415 
Q 2916 -91 2278 -91 
Q 1894 -91 1617 61 
Q 1341 213 1159 525 
z
M 3116 1747 
Q 3116 2381 2855 2742 
Q 2594 3103 2138 3103 
Q 1681 3103 1420 2742 
Q 1159 2381 1159 1747 
Q 1159 1113 1420 752 
Q 1681 391 2138 391 
Q 2594 391 2855 752 
Q 3116 1113 3116 1747 
z
" transform="scale(0.015625)"/>
       <path id="DejaVuSans-4d" d="M 628 4666 
L 1569 4666 
L 2759 1491 
L 3956 4666 
L 4897 4666 
L 4897 0 
L 4281 0 
L 4281 4097 
L 3078 897 
L 2444 897 
L 1241 4097 
L 1241 0 
L 628 0 
L 628 4666 
z
" transform="scale(0.015625)"/>
       <path id="DejaVuSans-28" d="M 1984 4856 
Q 1566 4138 1362 3434 
Q 1159 2731 1159 2009 
Q 1159 1288 1364 580 
Q 1569 -128 1984 -844 
L 1484 -844 
Q 1016 -109 783 600 
Q 550 1309 550 2009 
Q 550 2706 781 3412 
Q 1013 4119 1484 4856 
L 1984 4856 
z
" transform="scale(0.015625)"/>
       <path id="DejaVuSans-42" d="M 1259 2228 
L 1259 519 
L 2272 519 
Q 2781 519 3026 730 
Q 3272 941 3272 1375 
Q 3272 1813 3026 2020 
Q 2781 2228 2272 2228 
L 1259 2228 
z
M 1259 4147 
L 1259 2741 
L 2194 2741 
Q 2656 2741 2882 2914 
Q 3109 3088 3109 3444 
Q 3109 3797 2882 3972 
Q 2656 4147 2194 4147 
L 1259 4147 
z
M 628 4666 
L 2241 4666 
Q 2963 4666 3353 4366 
Q 3744 4066 3744 3513 
Q 3744 3084 3544 2831 
Q 3344 2578 2956 2516 
Q 3422 2416 3680 2098 
Q 3938 1781 3938 1306 
Q 3938 681 3513 340 
Q 3088 0 2303 0 
L 628 0 
L 628 4666 
z
" transform="scale(0.015625)"/>
       <path id="DejaVuSans-29" d="M 513 4856 
L 1013 4856 
Q 1481 4119 1714 3412 
Q 1947 2706 1947 2009 
Q 1947 1309 1714 600 
Q 1481 -109 1013 -844 
L 513 -844 
Q 928 -128 1133 580 
Q 1338 1288 1338 2009 
Q 1338 2731 1133 3434 
Q 928 4138 513 4856 
z
" transform="scale(0.015625)"/>
      </defs>
      <use xlink:href="#DejaVuSans-55"/>
      <use xlink:href="#DejaVuSans-6e" transform="translate(73.193359 0)"/>
      <use xlink:href="#DejaVuSans-73" transform="translate(136.572266 0)"/>
      <use xlink:href="#DejaVuSans-75" transform="translate(188.671875 0)"/>
      <use xlink:href="#DejaVuSans-70" transform="translate(252.050781 0)"/>
      <use xlink:href="#DejaVuSans-2e" transform="translate(315.527344 0)"/>
      <use xlink:href="#DejaVuSans-20" transform="translate(347.314453 0)"/>
      <use xlink:href="#DejaVuSans-4d" transform="translate(379.101562 0)"/>
      <use xlink:href="#DejaVuSans-69" transform="translate(465.380859 0)"/>
      <use xlink:href="#DejaVuSans-6e" transform="translate(493.164062 0)"/>
      <use xlink:href="#DejaVuSans-2d" transform="translate(556.542969 0)"/>
      <use xlink:href="#DejaVuSans-4d" transform="translate(592.626953 0)"/>
      <use xlink:href="#DejaVuSans-61" transform="translate(678.90625 0)"/>
      <use xlink:href="#DejaVuSans-78" transform="translate(740.185547 0)"/>
      <use xlink:href="#DejaVuSans-20" transform="translate(799.365234 0)"/>
      <use xlink:href="#DejaVuSans-28" transform="translate(831.152344 0)"/>
      <use xlink:href="#DejaVuSans-42" transform="translate(870.166016 0)"/>
      <use xlink:href="#DejaVuSans-29" transform="translate(938.769531 0)"/>
     </g>
    </g>
    <g id="line2d_21">
     <path d="M 245.242836 262.807187 
L 255.242836 262.807187 
L 265.242836 262.807187 
" style="fill: none; stroke-dasharray: 5.55,2.4; stroke-dashoffset: 0; stroke: #d62728; stroke-width: 1.5"/>
    </g>
    <g id="text_19">
     <!-- Unsup. Cosine (B) -->
     <g transform="translate(273.242836 266.307187) scale(0.1 -0.1)">
      <use xlink:href="#DejaVuSans-55"/>
      <use xlink:href="#DejaVuSans-6e" transform="translate(73.193359 0)"/>
      <use xlink:href="#DejaVuSans-73" transform="translate(136.572266 0)"/>
      <use xlink:href="#DejaVuSans-75" transform="translate(188.671875 0)"/>
      <use xlink:href="#DejaVuSans-70" transform="translate(252.050781 0)"/>
      <use xlink:href="#DejaVuSans-2e" transform="translate(315.527344 0)"/>
      <use xlink:href="#DejaVuSans-20" transform="translate(347.314453 0)"/>
      <use xlink:href="#DejaVuSans-43" transform="translate(379.101562 0)"/>
      <use xlink:href="#DejaVuSans-6f" transform="translate(448.925781 0)"/>
      <use xlink:href="#DejaVuSans-73" transform="translate(510.107422 0)"/>
      <use xlink:href="#DejaVuSans-69" transform="translate(562.207031 0)"/>
      <use xlink:href="#DejaVuSans-6e" transform="translate(589.990234 0)"/>
      <use xlink:href="#DejaVuSans-65" transform="translate(653.369141 0)"/>
      <use xlink:href="#DejaVuSans-20" transform="translate(714.892578 0)"/>
      <use xlink:href="#DejaVuSans-28" transform="translate(746.679688 0)"/>
      <use xlink:href="#DejaVuSans-42" transform="translate(785.693359 0)"/>
      <use xlink:href="#DejaVuSans-29" transform="translate(854.296875 0)"/>
     </g>
    </g>
    <g id="line2d_22">
     <path d="M 245.242836 277.485312 
L 255.242836 277.485312 
L 265.242836 277.485312 
" style="fill: none; stroke-dasharray: 5.55,2.4; stroke-dashoffset: 0; stroke: #9467bd; stroke-width: 1.5"/>
    </g>
    <g id="text_20">
     <!-- Sup. SVC (B) -->
     <g transform="translate(273.242836 280.985312) scale(0.1 -0.1)">
      <defs>
       <path id="DejaVuSans-56" d="M 1831 0 
L 50 4666 
L 709 4666 
L 2188 738 
L 3669 4666 
L 4325 4666 
L 2547 0 
L 1831 0 
z
" transform="scale(0.015625)"/>
      </defs>
      <use xlink:href="#DejaVuSans-53"/>
      <use xlink:href="#DejaVuSans-75" transform="translate(63.476562 0)"/>
      <use xlink:href="#DejaVuSans-70" transform="translate(126.855469 0)"/>
      <use xlink:href="#DejaVuSans-2e" transform="translate(190.332031 0)"/>
      <use xlink:href="#DejaVuSans-20" transform="translate(222.119141 0)"/>
      <use xlink:href="#DejaVuSans-53" transform="translate(253.90625 0)"/>
      <use xlink:href="#DejaVuSans-56" transform="translate(317.382812 0)"/>
      <use xlink:href="#DejaVuSans-43" transform="translate(385.791016 0)"/>
      <use xlink:href="#DejaVuSans-20" transform="translate(455.615234 0)"/>
      <use xlink:href="#DejaVuSans-28" transform="translate(487.402344 0)"/>
      <use xlink:href="#DejaVuSans-42" transform="translate(526.416016 0)"/>
      <use xlink:href="#DejaVuSans-29" transform="translate(595.019531 0)"/>
     </g>
    </g>
   </g>
  </g>
 </g>
 <defs>
  <clipPath id="p106378276e">
   <rect x="94.149969" y="26.88" width="285.86943" height="265.185"/>
  </clipPath>
 </defs>
</svg>
