<?xml version="1.0" encoding="utf-8" standalone="no"?>
<!DOCTYPE svg PUBLIC "-//W3C//DTD SVG 1.1//EN"
  "http://www.w3.org/Graphics/SVG/1.1/DTD/svg11.dtd">
<svg xmlns:xlink="http://www.w3.org/1999/xlink" width="720pt" height="360pt" viewBox="0 0 720 360" xmlns="http://www.w3.org/2000/svg" version="1.1">
 <metadata>
  <rdf:RDF xmlns:dc="http://purl.org/dc/elements/1.1/" xmlns:cc="http://creativecommons.org/ns#" xmlns:rdf="http://www.w3.org/1999/02/22-rdf-syntax-ns#">
   <cc:Work>
    <dc:type rdf:resource="http://purl.org/dc/dcmitype/StillImage"/>
    <dc:date>2025-08-06T21:17:16.565757</dc:date>
    <dc:format>image/svg+xml</dc:format>
    <dc:creator>
     <cc:Agent>
      <dc:title>Matplotlib v3.10.3, https://matplotlib.org/</dc:title>
     </cc:Agent>
    </dc:creator>
   </cc:Work>
  </rdf:RDF>
 </metadata>
 <defs>
  <style type="text/css">*{stroke-linejoin: round; stroke-linecap: butt}</style>
 </defs>
 <g id="figure_1">
  <g id="patch_1">
   <path d="M 0 360 
L 720 360 
L 720 0 
L 0 0 
z
" style="fill: #ffffff"/>
  </g>
  <g id="axes_1">
   <g id="patch_2">
    <path d="M 239.491013 306.465 
L 480.508988 306.465 
L 480.508988 87.35775 
L 239.491013 87.35775 
z
" style="fill: #ffffff"/>
   </g>
   <g id="matplotlib.axis_1">
    <g id="xtick_1">
     <g id="line2d_1">
      <defs>
       <path id="mbd87ed6a8b" d="M 0 0 
L 0 3.5 
" style="stroke: #000000; stroke-width: 0.8"/>
      </defs>
      <g>
       <use xlink:href="#mbd87ed6a8b" x="250.446375" y="306.465" style="stroke: #000000; stroke-width: 0.8"/>
      </g>
     </g>
     <g id="text_1">
      <!-- 0.0 -->
      <g transform="translate(242.494813 321.063438) scale(0.1 -0.1)">
       <defs>
        <path id="DejaVuSans-30" d="M 2034 4250 
Q 1547 4250 1301 3770 
Q 1056 3291 1056 2328 
Q 1056 1369 1301 889 
Q 1547 409 2034 409 
Q 2525 409 2770 889 
Q 3016 1369 3016 2328 
Q 3016 3291 2770 3770 
Q 2525 4250 2034 4250 
z
M 2034 4750 
Q 2819 4750 3233 4129 
Q 3647 3509 3647 2328 
Q 3647 1150 3233 529 
Q 2819 -91 2034 -91 
Q 1250 -91 836 529 
Q 422 1150 422 2328 
Q 422 3509 836 4129 
Q 1250 4750 2034 4750 
z
" transform="scale(0.015625)"/>
        <path id="DejaVuSans-2e" d="M 684 794 
L 1344 794 
L 1344 0 
L 684 0 
L 684 794 
z
" transform="scale(0.015625)"/>
       </defs>
       <use xlink:href="#DejaVuSans-30"/>
       <use xlink:href="#DejaVuSans-2e" transform="translate(63.623047 0)"/>
       <use xlink:href="#DejaVuSans-30" transform="translate(95.410156 0)"/>
      </g>
     </g>
    </g>
    <g id="xtick_2">
     <g id="line2d_2">
      <g>
       <use xlink:href="#mbd87ed6a8b" x="294.267825" y="306.465" style="stroke: #000000; stroke-width: 0.8"/>
      </g>
     </g>
     <g id="text_2">
      <!-- 0.2 -->
      <g transform="translate(286.316262 321.063438) scale(0.1 -0.1)">
       <defs>
        <path id="DejaVuSans-32" d="M 1228 531 
L 3431 531 
L 3431 0 
L 469 0 
L 469 531 
Q 828 903 1448 1529 
Q 2069 2156 2228 2338 
Q 2531 2678 2651 2914 
Q 2772 3150 2772 3378 
Q 2772 3750 2511 3984 
Q 2250 4219 1831 4219 
Q 1534 4219 1204 4116 
Q 875 4013 500 3803 
L 500 4441 
Q 881 4594 1212 4672 
Q 1544 4750 1819 4750 
Q 2544 4750 2975 4387 
Q 3406 4025 3406 3419 
Q 3406 3131 3298 2873 
Q 3191 2616 2906 2266 
Q 2828 2175 2409 1742 
Q 1991 1309 1228 531 
z
" transform="scale(0.015625)"/>
       </defs>
       <use xlink:href="#DejaVuSans-30"/>
       <use xlink:href="#DejaVuSans-2e" transform="translate(63.623047 0)"/>
       <use xlink:href="#DejaVuSans-32" transform="translate(95.410156 0)"/>
      </g>
     </g>
    </g>
    <g id="xtick_3">
     <g id="line2d_3">
      <g>
       <use xlink:href="#mbd87ed6a8b" x="338.089275" y="306.465" style="stroke: #000000; stroke-width: 0.8"/>
      </g>
     </g>
     <g id="text_3">
      <!-- 0.4 -->
      <g transform="translate(330.137713 321.063438) scale(0.1 -0.1)">
       <defs>
        <path id="DejaVuSans-34" d="M 2419 4116 
L 825 1625 
L 2419 1625 
L 2419 4116 
z
M 2253 4666 
L 3047 4666 
L 3047 1625 
L 3713 1625 
L 3713 1100 
L 3047 1100 
L 3047 0 
L 2419 0 
L 2419 1100 
L 313 1100 
L 313 1709 
L 2253 4666 
z
" transform="scale(0.015625)"/>
       </defs>
       <use xlink:href="#DejaVuSans-30"/>
       <use xlink:href="#DejaVuSans-2e" transform="translate(63.623047 0)"/>
       <use xlink:href="#DejaVuSans-34" transform="translate(95.410156 0)"/>
      </g>
     </g>
    </g>
    <g id="xtick_4">
     <g id="line2d_4">
      <g>
       <use xlink:href="#mbd87ed6a8b" x="381.910725" y="306.465" style="stroke: #000000; stroke-width: 0.8"/>
      </g>
     </g>
     <g id="text_4">
      <!-- 0.6 -->
      <g transform="translate(373.959163 321.063438) scale(0.1 -0.1)">
       <defs>
        <path id="DejaVuSans-36" d="M 2113 2584 
Q 1688 2584 1439 2293 
Q 1191 2003 1191 1497 
Q 1191 994 1439 701 
Q 1688 409 2113 409 
Q 2538 409 2786 701 
Q 3034 994 3034 1497 
Q 3034 2003 2786 2293 
Q 2538 2584 2113 2584 
z
M 3366 4563 
L 3366 3988 
Q 3128 4100 2886 4159 
Q 2644 4219 2406 4219 
Q 1781 4219 1451 3797 
Q 1122 3375 1075 2522 
Q 1259 2794 1537 2939 
Q 1816 3084 2150 3084 
Q 2853 3084 3261 2657 
Q 3669 2231 3669 1497 
Q 3669 778 3244 343 
Q 2819 -91 2113 -91 
Q 1303 -91 875 529 
Q 447 1150 447 2328 
Q 447 3434 972 4092 
Q 1497 4750 2381 4750 
Q 2619 4750 2861 4703 
Q 3103 4656 3366 4563 
z
" transform="scale(0.015625)"/>
       </defs>
       <use xlink:href="#DejaVuSans-30"/>
       <use xlink:href="#DejaVuSans-2e" transform="translate(63.623047 0)"/>
       <use xlink:href="#DejaVuSans-36" transform="translate(95.410156 0)"/>
      </g>
     </g>
    </g>
    <g id="xtick_5">
     <g id="line2d_5">
      <g>
       <use xlink:href="#mbd87ed6a8b" x="425.732175" y="306.465" style="stroke: #000000; stroke-width: 0.8"/>
      </g>
     </g>
     <g id="text_5">
      <!-- 0.8 -->
      <g transform="translate(417.780613 321.063438) scale(0.1 -0.1)">
       <defs>
        <path id="DejaVuSans-38" d="M 2034 2216 
Q 1584 2216 1326 1975 
Q 1069 1734 1069 1313 
Q 1069 891 1326 650 
Q 1584 409 2034 409 
Q 2484 409 2743 651 
Q 3003 894 3003 1313 
Q 3003 1734 2745 1975 
Q 2488 2216 2034 2216 
z
M 1403 2484 
Q 997 2584 770 2862 
Q 544 3141 544 3541 
Q 544 4100 942 4425 
Q 1341 4750 2034 4750 
Q 2731 4750 3128 4425 
Q 3525 4100 3525 3541 
Q 3525 3141 3298 2862 
Q 3072 2584 2669 2484 
Q 3125 2378 3379 2068 
Q 3634 1759 3634 1313 
Q 3634 634 3220 271 
Q 2806 -91 2034 -91 
Q 1263 -91 848 271 
Q 434 634 434 1313 
Q 434 1759 690 2068 
Q 947 2378 1403 2484 
z
M 1172 3481 
Q 1172 3119 1398 2916 
Q 1625 2713 2034 2713 
Q 2441 2713 2670 2916 
Q 2900 3119 2900 3481 
Q 2900 3844 2670 4047 
Q 2441 4250 2034 4250 
Q 1625 4250 1398 4047 
Q 1172 3844 1172 3481 
z
" transform="scale(0.015625)"/>
       </defs>
       <use xlink:href="#DejaVuSans-30"/>
       <use xlink:href="#DejaVuSans-2e" transform="translate(63.623047 0)"/>
       <use xlink:href="#DejaVuSans-38" transform="translate(95.410156 0)"/>
      </g>
     </g>
    </g>
    <g id="xtick_6">
     <g id="line2d_6">
      <g>
       <use xlink:href="#mbd87ed6a8b" x="469.553625" y="306.465" style="stroke: #000000; stroke-width: 0.8"/>
      </g>
     </g>
     <g id="text_6">
      <!-- 1.0 -->
      <g transform="translate(461.602063 321.063438) scale(0.1 -0.1)">
       <defs>
        <path id="DejaVuSans-31" d="M 794 531 
L 1825 531 
L 1825 4091 
L 703 3866 
L 703 4441 
L 1819 4666 
L 2450 4666 
L 2450 531 
L 3481 531 
L 3481 0 
L 794 0 
L 794 531 
z
" transform="scale(0.015625)"/>
       </defs>
       <use xlink:href="#DejaVuSans-31"/>
       <use xlink:href="#DejaVuSans-2e" transform="translate(63.623047 0)"/>
       <use xlink:href="#DejaVuSans-30" transform="translate(95.410156 0)"/>
      </g>
     </g>
    </g>
    <g id="text_7">
     <!-- Recall $\frac{{TP}}{{TP + FN}}$ -->
     <g transform="translate(317.23 340.443125) scale(0.14 -0.14)">
      <defs>
       <path id="DejaVuSans-52" d="M 2841 2188 
Q 3044 2119 3236 1894 
Q 3428 1669 3622 1275 
L 4263 0 
L 3584 0 
L 2988 1197 
Q 2756 1666 2539 1819 
Q 2322 1972 1947 1972 
L 1259 1972 
L 1259 0 
L 628 0 
L 628 4666 
L 2053 4666 
Q 2853 4666 3247 4331 
Q 3641 3997 3641 3322 
Q 3641 2881 3436 2590 
Q 3231 2300 2841 2188 
z
M 1259 4147 
L 1259 2491 
L 2053 2491 
Q 2509 2491 2742 2702 
Q 2975 2913 2975 3322 
Q 2975 3731 2742 3939 
Q 2509 4147 2053 4147 
L 1259 4147 
z
" transform="scale(0.015625)"/>
       <path id="DejaVuSans-65" d="M 3597 1894 
L 3597 1613 
L 953 1613 
Q 991 1019 1311 708 
Q 1631 397 2203 397 
Q 2534 397 2845 478 
Q 3156 559 3463 722 
L 3463 178 
Q 3153 47 2828 -22 
Q 2503 -91 2169 -91 
Q 1331 -91 842 396 
Q 353 884 353 1716 
Q 353 2575 817 3079 
Q 1281 3584 2069 3584 
Q 2775 3584 3186 3129 
Q 3597 2675 3597 1894 
z
M 3022 2063 
Q 3016 2534 2758 2815 
Q 2500 3097 2075 3097 
Q 1594 3097 1305 2825 
Q 1016 2553 972 2059 
L 3022 2063 
z
" transform="scale(0.015625)"/>
       <path id="DejaVuSans-63" d="M 3122 3366 
L 3122 2828 
Q 2878 2963 2633 3030 
Q 2388 3097 2138 3097 
Q 1578 3097 1268 2742 
Q 959 2388 959 1747 
Q 959 1106 1268 751 
Q 1578 397 2138 397 
Q 2388 397 2633 464 
Q 2878 531 3122 666 
L 3122 134 
Q 2881 22 2623 -34 
Q 2366 -91 2075 -91 
Q 1284 -91 818 406 
Q 353 903 353 1747 
Q 353 2603 823 3093 
Q 1294 3584 2113 3584 
Q 2378 3584 2631 3529 
Q 2884 3475 3122 3366 
z
" transform="scale(0.015625)"/>
       <path id="DejaVuSans-61" d="M 2194 1759 
Q 1497 1759 1228 1600 
Q 959 1441 959 1056 
Q 959 750 1161 570 
Q 1363 391 1709 391 
Q 2188 391 2477 730 
Q 2766 1069 2766 1631 
L 2766 1759 
L 2194 1759 
z
M 3341 1997 
L 3341 0 
L 2766 0 
L 2766 531 
Q 2569 213 2275 61 
Q 1981 -91 1556 -91 
Q 1019 -91 701 211 
Q 384 513 384 1019 
Q 384 1609 779 1909 
Q 1175 2209 1959 2209 
L 2766 2209 
L 2766 2266 
Q 2766 2663 2505 2880 
Q 2244 3097 1772 3097 
Q 1472 3097 1187 3025 
Q 903 2953 641 2809 
L 641 3341 
Q 956 3463 1253 3523 
Q 1550 3584 1831 3584 
Q 2591 3584 2966 3190 
Q 3341 2797 3341 1997 
z
" transform="scale(0.015625)"/>
       <path id="DejaVuSans-6c" d="M 603 4863 
L 1178 4863 
L 1178 0 
L 603 0 
L 603 4863 
z
" transform="scale(0.015625)"/>
       <path id="DejaVuSans-20" transform="scale(0.015625)"/>
       <path id="DejaVuSans-Oblique-54" d="M 378 4666 
L 4325 4666 
L 4225 4134 
L 2559 4134 
L 1759 0 
L 1125 0 
L 1925 4134 
L 275 4134 
L 378 4666 
z
" transform="scale(0.015625)"/>
       <path id="DejaVuSans-Oblique-50" d="M 1081 4666 
L 2541 4666 
Q 3178 4666 3512 4369 
Q 3847 4072 3847 3500 
Q 3847 2731 3353 2303 
Q 2859 1875 1966 1875 
L 1172 1875 
L 806 0 
L 172 0 
L 1081 4666 
z
M 1613 4147 
L 1275 2394 
L 2069 2394 
Q 2606 2394 2893 2669 
Q 3181 2944 3181 3456 
Q 3181 3784 2986 3965 
Q 2791 4147 2438 4147 
L 1613 4147 
z
" transform="scale(0.015625)"/>
       <path id="DejaVuSans-2b" d="M 2944 4013 
L 2944 2272 
L 4684 2272 
L 4684 1741 
L 2944 1741 
L 2944 0 
L 2419 0 
L 2419 1741 
L 678 1741 
L 678 2272 
L 2419 2272 
L 2419 4013 
L 2944 4013 
z
" transform="scale(0.015625)"/>
       <path id="DejaVuSans-Oblique-46" d="M 1081 4666 
L 3756 4666 
L 3653 4134 
L 1606 4134 
L 1338 2759 
L 3188 2759 
L 3084 2228 
L 1234 2228 
L 800 0 
L 172 0 
L 1081 4666 
z
" transform="scale(0.015625)"/>
       <path id="DejaVuSans-Oblique-4e" d="M 1081 4666 
L 1931 4666 
L 3219 666 
L 4000 4666 
L 4616 4666 
L 3706 0 
L 2853 0 
L 1569 4025 
L 788 0 
L 172 0 
L 1081 4666 
z
" transform="scale(0.015625)"/>
      </defs>
      <use xlink:href="#DejaVuSans-52" transform="translate(0 0.16875)"/>
      <use xlink:href="#DejaVuSans-65" transform="translate(69.482422 0.16875)"/>
      <use xlink:href="#DejaVuSans-63" transform="translate(131.005859 0.16875)"/>
      <use xlink:href="#DejaVuSans-61" transform="translate(185.986328 0.16875)"/>
      <use xlink:href="#DejaVuSans-6c" transform="translate(247.265625 0.16875)"/>
      <use xlink:href="#DejaVuSans-6c" transform="translate(275.048828 0.16875)"/>
      <use xlink:href="#DejaVuSans-20" transform="translate(302.832031 0.16875)"/>
      <use xlink:href="#DejaVuSans-Oblique-54" transform="translate(423.619141 43.965625) scale(0.7)"/>
      <use xlink:href="#DejaVuSans-Oblique-50" transform="translate(466.37793 43.965625) scale(0.7)"/>
      <use xlink:href="#DejaVuSans-Oblique-54" transform="translate(334.619141 -38.31875) scale(0.7)"/>
      <use xlink:href="#DejaVuSans-Oblique-50" transform="translate(377.37793 -38.31875) scale(0.7)"/>
      <use xlink:href="#DejaVuSans-2b" transform="translate(433.227539 -38.31875) scale(0.7)"/>
      <use xlink:href="#DejaVuSans-Oblique-46" transform="translate(505.517578 -38.31875) scale(0.7)"/>
      <use xlink:href="#DejaVuSans-Oblique-4e" transform="translate(545.78125 -38.31875) scale(0.7)"/>
      <path d="M 334.619141 18.965625 
L 334.619141 25.215625 
L 598.144531 25.215625 
L 598.144531 18.965625 
L 334.619141 18.965625 
z
"/>
     </g>
    </g>
   </g>
   <g id="matplotlib.axis_2">
    <g id="ytick_1">
     <g id="line2d_7">
      <defs>
       <path id="ma39ff76c55" d="M 0 0 
L -3.5 0 
" style="stroke: #000000; stroke-width: 0.8"/>
      </defs>
      <g>
       <use xlink:href="#ma39ff76c55" x="239.491013" y="306.465" style="stroke: #000000; stroke-width: 0.8"/>
      </g>
     </g>
     <g id="text_8">
      <!-- 0.0 -->
      <g transform="translate(216.587888 310.264219) scale(0.1 -0.1)">
       <use xlink:href="#DejaVuSans-30"/>
       <use xlink:href="#DejaVuSans-2e" transform="translate(63.623047 0)"/>
       <use xlink:href="#DejaVuSans-30" transform="translate(95.410156 0)"/>
      </g>
     </g>
    </g>
    <g id="ytick_2">
     <g id="line2d_8">
      <g>
       <use xlink:href="#ma39ff76c55" x="239.491013" y="262.64355" style="stroke: #000000; stroke-width: 0.8"/>
      </g>
     </g>
     <g id="text_9">
      <!-- 0.2 -->
      <g transform="translate(216.587888 266.442769) scale(0.1 -0.1)">
       <use xlink:href="#DejaVuSans-30"/>
       <use xlink:href="#DejaVuSans-2e" transform="translate(63.623047 0)"/>
       <use xlink:href="#DejaVuSans-32" transform="translate(95.410156 0)"/>
      </g>
     </g>
    </g>
    <g id="ytick_3">
     <g id="line2d_9">
      <g>
       <use xlink:href="#ma39ff76c55" x="239.491013" y="218.8221" style="stroke: #000000; stroke-width: 0.8"/>
      </g>
     </g>
     <g id="text_10">
      <!-- 0.4 -->
      <g transform="translate(216.587888 222.621319) scale(0.1 -0.1)">
       <use xlink:href="#DejaVuSans-30"/>
       <use xlink:href="#DejaVuSans-2e" transform="translate(63.623047 0)"/>
       <use xlink:href="#DejaVuSans-34" transform="translate(95.410156 0)"/>
      </g>
     </g>
    </g>
    <g id="ytick_4">
     <g id="line2d_10">
      <g>
       <use xlink:href="#ma39ff76c55" x="239.491013" y="175.00065" style="stroke: #000000; stroke-width: 0.8"/>
      </g>
     </g>
     <g id="text_11">
      <!-- 0.6 -->
      <g transform="translate(216.587888 178.799869) scale(0.1 -0.1)">
       <use xlink:href="#DejaVuSans-30"/>
       <use xlink:href="#DejaVuSans-2e" transform="translate(63.623047 0)"/>
       <use xlink:href="#DejaVuSans-36" transform="translate(95.410156 0)"/>
      </g>
     </g>
    </g>
    <g id="ytick_5">
     <g id="line2d_11">
      <g>
       <use xlink:href="#ma39ff76c55" x="239.491013" y="131.1792" style="stroke: #000000; stroke-width: 0.8"/>
      </g>
     </g>
     <g id="text_12">
      <!-- 0.8 -->
      <g transform="translate(216.587888 134.978419) scale(0.1 -0.1)">
       <use xlink:href="#DejaVuSans-30"/>
       <use xlink:href="#DejaVuSans-2e" transform="translate(63.623047 0)"/>
       <use xlink:href="#DejaVuSans-38" transform="translate(95.410156 0)"/>
      </g>
     </g>
    </g>
    <g id="ytick_6">
     <g id="line2d_12">
      <g>
       <use xlink:href="#ma39ff76c55" x="239.491013" y="87.35775" style="stroke: #000000; stroke-width: 0.8"/>
      </g>
     </g>
     <g id="text_13">
      <!-- 1.0 -->
      <g transform="translate(216.587888 91.156969) scale(0.1 -0.1)">
       <use xlink:href="#DejaVuSans-31"/>
       <use xlink:href="#DejaVuSans-2e" transform="translate(63.623047 0)"/>
       <use xlink:href="#DejaVuSans-30" transform="translate(95.410156 0)"/>
      </g>
     </g>
    </g>
    <g id="text_14">
     <!-- Precision $\frac{{TP}}{{TP + FP}}$ -->
     <g transform="translate(207.127888 249.271375) rotate(-90) scale(0.14 -0.14)">
      <defs>
       <path id="DejaVuSans-50" d="M 1259 4147 
L 1259 2394 
L 2053 2394 
Q 2494 2394 2734 2622 
Q 2975 2850 2975 3272 
Q 2975 3691 2734 3919 
Q 2494 4147 2053 4147 
L 1259 4147 
z
M 628 4666 
L 2053 4666 
Q 2838 4666 3239 4311 
Q 3641 3956 3641 3272 
Q 3641 2581 3239 2228 
Q 2838 1875 2053 1875 
L 1259 1875 
L 1259 0 
L 628 0 
L 628 4666 
z
" transform="scale(0.015625)"/>
       <path id="DejaVuSans-72" d="M 2631 2963 
Q 2534 3019 2420 3045 
Q 2306 3072 2169 3072 
Q 1681 3072 1420 2755 
Q 1159 2438 1159 1844 
L 1159 0 
L 581 0 
L 581 3500 
L 1159 3500 
L 1159 2956 
Q 1341 3275 1631 3429 
Q 1922 3584 2338 3584 
Q 2397 3584 2469 3576 
Q 2541 3569 2628 3553 
L 2631 2963 
z
" transform="scale(0.015625)"/>
       <path id="DejaVuSans-69" d="M 603 3500 
L 1178 3500 
L 1178 0 
L 603 0 
L 603 3500 
z
M 603 4863 
L 1178 4863 
L 1178 4134 
L 603 4134 
L 603 4863 
z
" transform="scale(0.015625)"/>
       <path id="DejaVuSans-73" d="M 2834 3397 
L 2834 2853 
Q 2591 2978 2328 3040 
Q 2066 3103 1784 3103 
Q 1356 3103 1142 2972 
Q 928 2841 928 2578 
Q 928 2378 1081 2264 
Q 1234 2150 1697 2047 
L 1894 2003 
Q 2506 1872 2764 1633 
Q 3022 1394 3022 966 
Q 3022 478 2636 193 
Q 2250 -91 1575 -91 
Q 1294 -91 989 -36 
Q 684 19 347 128 
L 347 722 
Q 666 556 975 473 
Q 1284 391 1588 391 
Q 1994 391 2212 530 
Q 2431 669 2431 922 
Q 2431 1156 2273 1281 
Q 2116 1406 1581 1522 
L 1381 1569 
Q 847 1681 609 1914 
Q 372 2147 372 2553 
Q 372 3047 722 3315 
Q 1072 3584 1716 3584 
Q 2034 3584 2315 3537 
Q 2597 3491 2834 3397 
z
" transform="scale(0.015625)"/>
       <path id="DejaVuSans-6f" d="M 1959 3097 
Q 1497 3097 1228 2736 
Q 959 2375 959 1747 
Q 959 1119 1226 758 
Q 1494 397 1959 397 
Q 2419 397 2687 759 
Q 2956 1122 2956 1747 
Q 2956 2369 2687 2733 
Q 2419 3097 1959 3097 
z
M 1959 3584 
Q 2709 3584 3137 3096 
Q 3566 2609 3566 1747 
Q 3566 888 3137 398 
Q 2709 -91 1959 -91 
Q 1206 -91 779 398 
Q 353 888 353 1747 
Q 353 2609 779 3096 
Q 1206 3584 1959 3584 
z
" transform="scale(0.015625)"/>
       <path id="DejaVuSans-6e" d="M 3513 2113 
L 3513 0 
L 2938 0 
L 2938 2094 
Q 2938 2591 2744 2837 
Q 2550 3084 2163 3084 
Q 1697 3084 1428 2787 
Q 1159 2491 1159 1978 
L 1159 0 
L 581 0 
L 581 3500 
L 1159 3500 
L 1159 2956 
Q 1366 3272 1645 3428 
Q 1925 3584 2291 3584 
Q 2894 3584 3203 3211 
Q 3513 2838 3513 2113 
z
" transform="scale(0.015625)"/>
      </defs>
      <use xlink:href="#DejaVuSans-50" transform="translate(0 0.16875)"/>
      <use xlink:href="#DejaVuSans-72" transform="translate(60.302734 0.16875)"/>
      <use xlink:href="#DejaVuSans-65" transform="translate(101.416016 0.16875)"/>
      <use xlink:href="#DejaVuSans-63" transform="translate(162.939453 0.16875)"/>
      <use xlink:href="#DejaVuSans-69" transform="translate(217.919922 0.16875)"/>
      <use xlink:href="#DejaVuSans-73" transform="translate(245.703125 0.16875)"/>
      <use xlink:href="#DejaVuSans-69" transform="translate(297.802734 0.16875)"/>
      <use xlink:href="#DejaVuSans-6f" transform="translate(325.585938 0.16875)"/>
      <use xlink:href="#DejaVuSans-6e" transform="translate(386.767578 0.16875)"/>
      <use xlink:href="#DejaVuSans-20" transform="translate(450.146484 0.16875)"/>
      <use xlink:href="#DejaVuSans-Oblique-54" transform="translate(565.933594 43.965625) scale(0.7)"/>
      <use xlink:href="#DejaVuSans-Oblique-50" transform="translate(608.692383 43.965625) scale(0.7)"/>
      <use xlink:href="#DejaVuSans-Oblique-54" transform="translate(481.933594 -38.31875) scale(0.7)"/>
      <use xlink:href="#DejaVuSans-Oblique-50" transform="translate(524.692383 -38.31875) scale(0.7)"/>
      <use xlink:href="#DejaVuSans-2b" transform="translate(580.541992 -38.31875) scale(0.7)"/>
      <use xlink:href="#DejaVuSans-Oblique-46" transform="translate(652.832031 -38.31875) scale(0.7)"/>
      <use xlink:href="#DejaVuSans-Oblique-50" transform="translate(693.095703 -38.31875) scale(0.7)"/>
      <path d="M 481.933594 18.965625 
L 481.933594 25.215625 
L 735.307617 25.215625 
L 735.307617 18.965625 
L 481.933594 18.965625 
z
"/>
     </g>
    </g>
   </g>
   <g id="line2d_13">
    <path d="M 469.553625 210.781739 
L 461.740498 212.150322 
L 461.061096 212.061598 
L 460.381694 212.16954 
L 458.343487 212.693226 
L 456.644981 213.001823 
L 455.965578 212.9813 
L 446.453946 214.653175 
L 444.415739 214.876245 
L 438.98052 216.320802 
L 437.282015 216.599983 
L 434.564405 217.308747 
L 432.865899 217.597482 
L 428.110083 218.788572 
L 426.071876 219.193468 
L 422.674865 219.132157 
L 419.617554 220.00271 
L 419.277853 219.901961 
L 416.899945 220.574958 
L 415.54114 220.796357 
L 414.522037 220.981315 
L 408.747117 222.290244 
L 407.728013 222.13694 
L 406.70891 222.403837 
L 406.029508 222.418835 
L 402.292795 223.393803 
L 398.216381 224.157872 
L 393.460565 225.40687 
L 391.422358 225.710552 
L 389.723852 226.11261 
L 388.704748 226.485941 
L 387.685645 226.717857 
L 383.948932 227.969878 
L 380.212219 228.894129 
L 378.174012 229.326118 
L 375.116702 229.954666 
L 374.097598 230.290178 
L 373.418196 230.345207 
L 371.379989 230.95466 
L 369.341782 231.574827 
L 367.982977 232.140384 
L 367.643276 232.136582 
L 363.566862 233.64792 
L 359.490448 234.915227 
L 358.471345 235.148618 
L 357.791942 235.159242 
L 353.375827 236.285828 
L 352.356724 236.685621 
L 349.299413 237.535044 
L 347.600908 238.277107 
L 347.600908 238.202828 
L 347.261206 238.292984 
L 345.902402 238.806607 
L 344.543597 239.028658 
L 344.203896 238.896731 
L 343.524494 238.857583 
L 340.806884 239.703799 
L 340.127482 239.67018 
L 336.73047 240.836177 
L 335.371666 241.02078 
L 333.333459 242.13026 
L 332.314355 242.459125 
L 330.615849 243.327868 
L 330.276148 243.286836 
L 329.257045 243.630782 
L 327.89824 244.330108 
L 323.821826 246.175617 
L 323.142424 246.504704 
L 320.424815 247.463571 
L 320.424815 247.153445 
L 315.329297 249.604287 
L 315.329297 249.449353 
L 314.649895 249.346007 
L 311.592584 250.838336 
L 310.913182 250.98692 
L 309.214676 251.767231 
L 308.195573 251.928788 
L 304.119159 254.406435 
L 303.439756 254.597426 
L 301.401549 255.823879 
L 300.042745 256.791617 
L 299.363342 256.855811 
L 298.68394 257.078921 
L 294.607526 259.770012 
L 294.607526 259.53923 
L 293.588423 259.854245 
L 293.588423 258.898127 
L 290.531112 260.541988 
L 290.191411 260.440676 
L 289.172308 260.800966 
L 285.435595 263.88378 
L 284.756192 264.232496 
L 284.416491 264.247803 
L 283.737089 264.851608 
L 283.397388 264.954447 
L 283.057687 264.812929 
L 282.038583 265.547381 
L 281.01948 265.805923 
L 280.679778 265.75405 
L 280.000376 266.078706 
L 279.660675 265.590329 
L 278.641572 266.407948 
L 278.30187 266.449867 
L 278.30187 265.816144 
L 276.943066 266.903969 
L 276.603365 266.006347 
L 271.168146 271.568023 
L 270.828445 271.029865 
L 268.110835 273.535587 
L 267.771134 273.008504 
L 266.41233 274.383876 
L 264.374123 276.816824 
L 264.034422 276.347165 
L 261.996215 279.375376 
L 261.316812 279.703809 
L 261.316812 277.84691 
L 259.278605 281.14594 
L 256.221295 287.064879 
L 254.522789 289.610596 
L 254.522789 289.610596 
" clip-path="url(#p83b1403fcb)" style="fill: none; stroke: #1f77b4; stroke-width: 1.5; stroke-linecap: square"/>
   </g>
   <g id="line2d_14">
    <path d="M 469.553625 210.781739 
L 468.874223 210.884293 
L 468.874223 210.754428 
L 467.515418 211.025646 
L 467.515418 210.960544 
L 466.836016 211.064236 
L 466.836016 210.998982 
L 465.816912 211.253214 
L 465.816912 211.18791 
L 465.816912 210.991463 
L 464.458108 211.332286 
L 464.458108 211.266678 
L 464.458108 211.200978 
L 462.419901 211.650212 
L 462.419901 211.584414 
L 460.721395 211.951141 
L 460.721395 211.81923 
L 460.041992 211.993181 
L 460.041992 211.927117 
L 460.041992 211.86096 
L 459.36259 212.035456 
L 459.36259 211.969237 
L 459.36259 211.902924 
L 456.984682 212.451445 
L 456.984682 212.251982 
L 454.267073 212.896068 
L 454.267073 212.695849 
L 450.870061 213.529502 
L 450.870061 213.462642 
L 447.473049 214.376446 
L 447.473049 214.309666 
L 447.473049 214.24279 
L 445.095141 214.823793 
L 445.095141 214.756852 
L 443.056934 215.250748 
L 443.056934 215.183728 
L 441.358428 215.588045 
L 441.358428 215.520927 
L 439.320222 216.091386 
L 439.320222 216.024294 
L 439.320222 215.957102 
L 436.262911 216.755669 
L 436.262911 216.688471 
L 435.243808 216.979757 
L 435.243808 216.912525 
L 435.243808 216.777758 
L 433.545302 217.199083 
L 433.545302 217.13156 
L 428.789485 218.453289 
L 428.789485 218.318405 
L 427.430681 218.721051 
L 427.430681 218.653556 
L 427.430681 218.518253 
L 426.411577 218.8221 
L 426.411577 218.75437 
L 426.411577 218.618595 
L 421.995462 219.885062 
L 421.995462 219.817262 
L 419.277853 220.584635 
L 419.277853 220.516852 
L 414.861738 221.829797 
L 414.861738 221.762197 
L 414.182335 221.977244 
L 414.182335 221.9096 
L 414.182335 221.841847 
L 413.842634 221.949693 
L 413.842634 221.881864 
L 413.842634 221.813926 
L 412.48383 222.179389 
L 412.48383 222.043224 
L 410.445623 222.631113 
L 410.445623 222.494687 
L 409.76622 222.714959 
L 409.76622 222.646647 
L 409.76622 222.578224 
L 408.407416 222.95281 
L 408.407416 222.884302 
L 407.728013 223.107024 
L 407.728013 223.038473 
L 407.728013 222.969809 
L 407.388312 223.081516 
L 407.388312 223.012775 
L 407.388312 222.94392 
L 406.029508 223.324055 
L 406.029508 223.04761 
L 404.670703 223.500286 
L 404.670703 223.431034 
L 404.670703 223.22258 
L 402.632496 223.908189 
L 402.632496 223.838697 
L 402.632496 223.769088 
L 401.273691 224.230326 
L 401.273691 224.160754 
L 401.273691 224.091064 
L 398.895783 224.836809 
L 398.895783 224.697393 
L 398.216381 224.862557 
L 398.216381 224.792632 
L 395.15907 225.791112 
L 395.15907 225.651417 
L 393.120863 226.303811 
L 393.120863 226.093782 
L 389.044449 227.493482 
L 389.044449 227.423658 
L 387.006242 228.101019 
L 387.006242 227.961333 
L 384.288633 228.901427 
L 384.288633 228.831676 
L 383.26953 229.214383 
L 383.26953 229.144662 
L 383.26953 229.074815 
L 382.590127 229.331317 
L 382.590127 229.261449 
L 382.590127 229.191455 
L 380.55192 229.897412 
L 380.55192 229.827487 
L 379.532817 230.149001 
L 379.532817 229.938571 
L 378.853415 230.201151 
L 378.853415 230.130861 
L 378.853415 229.989893 
L 378.513713 230.121716 
L 378.513713 230.051093 
L 378.513713 229.98034 
L 378.174012 230.11252 
L 378.174012 230.041692 
L 378.174012 229.970733 
L 377.834311 230.103273 
L 377.834311 230.032238 
L 377.834311 229.961072 
L 376.815208 230.289395 
L 376.815208 229.931763 
L 375.456403 230.397577 
L 375.456403 230.253783 
L 372.738794 231.270901 
L 372.738794 231.127264 
L 371.71969 231.468559 
L 371.71969 231.396585 
L 366.284472 233.500574 
L 366.284472 233.42925 
L 365.605069 233.715384 
L 365.605069 233.644061 
L 365.605069 233.500994 
L 363.227161 234.441627 
L 363.227161 234.370246 
L 362.208058 234.808653 
L 362.208058 234.737353 
L 362.208058 234.378715 
L 361.528655 234.601338 
L 361.528655 234.529186 
L 360.849253 234.753161 
L 360.849253 234.680871 
L 358.471345 235.65595 
L 358.471345 235.511736 
L 357.791942 235.814091 
L 357.791942 235.741924 
L 357.791942 235.597148 
L 357.11254 235.901229 
L 357.11254 235.828782 
L 357.11254 235.756186 
L 356.093437 236.142652 
L 356.093437 235.997208 
L 353.375827 237.164899 
L 353.375827 237.092485 
L 352.356724 237.491049 
L 352.356724 237.345994 
L 351.33762 237.748154 
L 351.33762 237.675515 
L 348.28031 239.047385 
L 348.28031 238.97528 
L 347.940609 239.137612 
L 347.940609 239.065449 
L 347.940609 238.92066 
L 347.600908 239.083631 
L 347.600908 239.0111 
L 347.600908 238.865568 
L 344.543597 240.278841 
L 344.543597 240.206585 
L 343.864195 240.541046 
L 343.864195 240.46884 
L 343.864195 240.396476 
L 341.486287 241.508426 
L 341.486287 241.292144 
L 340.127482 241.906614 
L 340.127482 241.834482 
L 339.44808 242.180454 
L 339.44808 242.108386 
L 339.44808 242.036157 
L 338.089275 242.66176 
L 338.089275 242.589666 
L 337.409873 242.869245 
L 337.409873 242.797059 
L 335.711367 243.61252 
L 335.711367 243.396285 
L 334.692263 243.934968 
L 334.692263 243.862929 
L 334.692263 243.790723 
L 334.012861 244.080297 
L 334.012861 243.935553 
L 331.974654 245.033061 
L 331.974654 244.961211 
L 331.974654 244.889192 
L 328.577642 246.684849 
L 328.577642 246.613851 
L 328.577642 246.471348 
L 328.237941 246.660995 
L 328.237941 246.58963 
L 328.237941 246.518094 
L 327.89824 246.708477 
L 327.89824 246.636913 
L 327.89824 246.276502 
L 326.539435 246.974062 
L 326.539435 246.829491 
L 324.501228 247.928994 
L 324.501228 247.785171 
L 323.821826 248.180313 
L 323.821826 248.108445 
L 323.821826 247.964177 
L 322.802723 248.490038 
L 322.802723 248.200525 
L 322.463022 248.401579 
L 322.463022 248.328909 
L 322.463022 248.183021 
L 321.783619 248.51472 
L 321.783619 248.441642 
L 321.104217 248.848934 
L 321.104217 248.776003 
L 321.104217 248.702886 
L 320.764516 248.907639 
L 320.764516 248.834503 
L 320.764516 248.687674 
L 320.424815 248.893452 
L 320.424815 248.819925 
L 320.424815 248.598213 
L 319.745412 248.938772 
L 319.745412 248.86464 
L 318.726309 249.417646 
L 318.726309 249.269471 
L 317.707205 249.902763 
L 317.707205 249.828922 
L 317.707205 249.456806 
L 316.348401 250.239065 
L 316.348401 250.164594 
L 315.329297 250.814089 
L 315.329297 250.739987 
L 315.329297 250.665687 
L 314.310194 251.321542 
L 314.310194 251.247623 
L 314.310194 251.09919 
L 313.630791 251.540541 
L 313.630791 251.466419 
L 313.630791 251.392097 
L 312.611688 251.985888 
L 312.611688 251.762917 
L 311.592584 252.364444 
L 311.592584 252.29013 
L 311.252883 252.516998 
L 311.252883 252.442689 
L 311.252883 252.293456 
L 310.573481 252.750342 
L 310.573481 252.675842 
L 310.573481 252.375763 
L 308.874975 253.460152 
L 308.874975 253.310632 
L 308.195573 253.705464 
L 308.195573 253.630628 
L 307.51617 254.103666 
L 307.51617 254.029077 
L 307.51617 253.80403 
L 307.176469 254.042492 
L 307.176469 253.96728 
L 307.176469 253.891852 
L 305.817665 254.779788 
L 305.817665 254.554416 
L 305.138262 255.04187 
L 305.138262 254.9668 
L 305.138262 254.89151 
L 304.45886 255.382811 
L 304.45886 255.307801 
L 304.45886 255.232569 
L 303.779458 255.727775 
L 303.779458 255.652831 
L 303.779458 255.577665 
L 303.100055 256.076834 
L 303.100055 256.001963 
L 303.100055 255.926869 
L 302.080952 256.682785 
L 302.080952 256.60826 
L 302.080952 256.307919 
L 301.741251 256.562745 
L 301.741251 256.487364 
L 301.741251 256.335917 
L 301.401549 256.592333 
L 301.401549 256.516539 
L 301.401549 256.440514 
L 301.061848 256.698262 
L 301.061848 256.622282 
L 301.061848 256.469624 
L 300.382446 256.989169 
L 300.382446 256.913053 
L 300.382446 256.760115 
L 299.703044 257.208331 
L 299.703044 257.055122 
L 299.363342 257.319449 
L 299.363342 257.242778 
L 299.363342 257.088718 
L 298.004538 258.081696 
L 298.004538 257.928584 
L 296.645733 258.939344 
L 296.645733 258.863425 
L 294.947227 260.244308 
L 294.947227 260.094968 
L 294.947227 259.94466 
L 294.607526 260.224834 
L 294.607526 260.149646 
L 294.607526 260.074214 
L 292.569319 261.778653 
L 292.569319 261.631173 
L 292.569319 261.482717 
L 292.229618 261.771481 
L 292.229618 261.69724 
L 292.229618 261.3223 
L 291.550216 261.907055 
L 291.550216 261.832042 
L 291.550216 261.756775 
L 291.210515 262.051368 
L 291.210515 261.976218 
L 291.210515 261.900814 
L 290.531112 262.494497 
L 290.531112 262.41959 
L 290.531112 262.19333 
L 289.85171 262.718974 
L 289.85171 262.567865 
L 289.172308 263.175179 
L 289.172308 263.100023 
L 289.172308 262.948926 
L 288.832606 263.255368 
L 288.832606 263.179826 
L 288.832606 263.027949 
L 288.492905 263.336684 
L 288.492905 263.260754 
L 288.492905 263.184556 
L 288.153204 263.495204 
L 288.153204 263.419151 
L 288.153204 263.189369 
L 287.813503 263.502794 
L 287.813503 263.426076 
L 287.813503 263.116443 
L 287.473802 263.433126 
L 287.473802 263.355451 
L 287.473802 263.199257 
L 287.134101 263.518388 
L 287.134101 263.440304 
L 287.134101 263.283279 
L 286.114997 264.174079 
L 286.114997 264.096195 
L 286.114997 263.939563 
L 285.775296 264.266567 
L 285.775296 264.188276 
L 285.775296 264.109695 
L 283.737089 266.027127 
L 283.737089 265.950829 
L 283.737089 265.642737 
L 283.397388 265.982327 
L 283.397388 265.827518 
L 283.397388 265.593071 
L 281.01948 267.874682 
L 281.01948 267.72305 
L 280.679778 268.0781 
L 280.679778 267.926373 
L 280.340077 268.208179 
L 280.340077 268.132121 
L 280.340077 267.979096 
L 279.660675 268.551069 
L 279.660675 268.243451 
L 278.30187 269.572198 
L 278.30187 269.496287 
L 277.282767 270.553231 
L 277.282767 270.47857 
L 277.282767 270.024005 
L 276.603365 270.720809 
L 276.603365 270.644919 
L 276.603365 270.568706 
L 276.263663 270.959348 
L 276.263663 270.807289 
L 276.263663 270.73077 
L 275.923962 271.125121 
L 275.923962 270.972465 
L 275.923962 270.895641 
L 274.565158 272.349617 
L 274.565158 272.047711 
L 272.866652 273.968194 
L 272.866652 273.747628 
L 271.847548 274.949574 
L 271.847548 274.877456 
L 271.847548 274.805007 
L 271.507847 275.235921 
L 271.507847 275.091676 
L 271.507847 274.872792 
L 270.828445 275.604824 
L 270.828445 274.938777 
L 270.149042 275.768815 
L 270.149042 275.69449 
L 270.149042 275.619805 
L 269.46964 276.464985 
L 269.46964 276.391456 
L 269.46964 276.24331 
L 268.790238 277.032683 
L 268.790238 276.661999 
L 268.110835 277.547292 
L 268.110835 277.47371 
L 268.110835 277.175599 
L 267.771134 277.66482 
L 267.771134 277.515597 
L 267.771134 277.212461 
L 267.091732 278.13715 
L 267.091732 278.062208 
L 267.091732 277.681474 
L 266.752031 278.193097 
L 266.752031 278.040276 
L 266.752031 277.963244 
L 266.41233 278.481194 
L 266.41233 278.328277 
L 266.41233 278.173679 
L 264.713824 280.687676 
L 264.713824 280.615268 
L 264.713824 280.17213 
L 261.316812 285.597643 
L 261.316812 285.535352 
L 261.316812 284.75778 
L 260.63741 285.987687 
L 260.63741 285.794505 
L 260.63741 285.663679 
L 259.958008 286.926774 
L 259.958008 286.738302 
L 259.958008 286.674668 
L 259.618306 287.319706 
L 259.618306 287.132007 
L 259.618306 286.745348 
L 259.278605 287.412196 
L 259.278605 287.219093 
L 259.278605 286.95545 
L 258.259502 288.782661 
L 258.259502 288.402395 
L 256.900697 291.159714 
L 256.900697 291.046342 
L 256.900697 290.755424 
L 256.221295 292.138757 
L 256.221295 292.027701 
L 256.221295 291.971524 
L 255.881594 292.770797 
L 255.881594 292.498004 
L 255.881594 292.214122 
L 255.541892 293.05027 
L 255.541892 292.770797 
L 255.541892 292.713499 
L 254.86249 294.292375 
L 254.86249 294.187439 
L 254.86249 293.338759 
L 254.183088 295.254862 
L 254.183088 294.933039 
L 254.183088 293.846258 
L 253.503685 295.805728 
L 253.503685 295.689234 
L 253.503685 295.448434 
L 252.824283 297.799742 
L 252.824283 297.389552 
L 252.824283 295.813953 
L 252.144881 298.639741 
L 252.144881 298.289356 
L 252.144881 297.972471 
L 251.465478 301.077117 
L 251.465478 300.749159 
L 251.465478 297.70071 
L 250.786076 303.289533 
L 250.786076 302.481232 
L 250.786076 299.397024 
L 250.446375 306.465 
L 250.446375 306.465 
" clip-path="url(#p83b1403fcb)" style="fill: none; stroke-dasharray: 5.55,2.4; stroke-dashoffset: 0; stroke: #ff7f0e; stroke-width: 1.5"/>
   </g>
   <g id="line2d_15">
    <path d="M 469.553625 210.781739 
L 468.534522 210.968154 
L 468.534522 210.838314 
L 467.175717 211.110003 
L 467.175717 210.979737 
L 466.156613 211.233581 
L 466.156613 211.168354 
L 466.156613 211.103037 
L 464.797809 211.377878 
L 464.797809 211.312437 
L 464.458108 211.397805 
L 464.458108 211.332286 
L 464.458108 211.200978 
L 462.759602 211.629798 
L 462.759602 211.564077 
L 462.759602 211.498265 
L 462.419901 211.584414 
L 462.419901 211.518525 
L 462.419901 211.320307 
L 460.381694 211.840066 
L 460.381694 211.773895 
L 460.381694 211.641274 
L 459.702291 211.749164 
L 459.702291 211.68265 
L 458.003785 212.054189 
L 458.003785 211.987562 
L 453.247969 213.164695 
L 453.247969 213.098099 
L 452.568567 213.277857 
L 452.568567 213.211199 
L 452.568567 213.144446 
L 451.549463 213.348351 
L 451.549463 213.281457 
L 449.850958 213.668495 
L 449.850958 213.601494 
L 446.114245 214.54528 
L 446.114245 214.478283 
L 444.076038 214.969665 
L 444.076038 214.835409 
L 442.717233 215.143422 
L 442.717233 215.008729 
L 441.018727 215.413765 
L 441.018727 215.34627 
L 438.640819 215.946419 
L 438.640819 215.878868 
L 436.262911 216.486272 
L 436.262911 216.41867 
L 434.564405 216.837732 
L 434.564405 216.770038 
L 433.545302 216.996206 
L 433.545302 216.928375 
L 432.526198 217.223749 
L 432.526198 217.155885 
L 432.526198 217.087918 
L 430.827692 217.515497 
L 430.827692 217.447441 
L 428.110083 218.180646 
L 428.110083 218.112578 
L 426.751278 218.517078 
L 426.751278 218.449007 
L 426.751278 218.380831 
L 426.071876 218.515894 
L 426.071876 218.447558 
L 425.052773 218.753842 
L 425.052773 218.685478 
L 425.052773 218.617007 
L 420.296956 219.998051 
L 420.296956 219.929751 
L 419.277853 220.244649 
L 419.277853 220.176329 
L 419.277853 220.1079 
L 418.258749 220.424474 
L 418.258749 220.356025 
L 418.258749 220.287467 
L 417.579347 220.499476 
L 417.579347 220.430868 
L 417.579347 220.362151 
L 414.861738 221.217485 
L 414.861738 221.148903 
L 414.861738 221.08021 
L 413.163232 221.552077 
L 413.163232 221.483322 
L 412.144128 221.809926 
L 412.144128 221.741157 
L 412.144128 221.672276 
L 411.464726 221.822101 
L 411.464726 221.683909 
L 411.125025 221.793653 
L 411.125025 221.72442 
L 411.125025 221.655074 
L 409.76622 222.096116 
L 409.76622 222.026791 
L 409.76622 221.957352 
L 408.747117 222.220793 
L 408.747117 222.151227 
L 407.728013 222.48598 
L 407.728013 222.416403 
L 407.728013 222.346711 
L 407.048611 222.501208 
L 407.048611 222.431354 
L 404.331002 223.26669 
L 404.331002 223.196892 
L 403.651599 223.425193 
L 403.651599 223.355353 
L 403.651599 223.145127 
L 401.613392 223.765487 
L 401.613392 223.624961 
L 401.273691 223.740834 
L 401.273691 223.670431 
L 401.273691 223.529263 
L 400.254588 223.807774 
L 400.254588 223.737006 
L 398.216381 224.370552 
L 398.216381 223.800946 
L 396.517875 224.395211 
L 396.517875 224.32366 
L 396.517875 224.251983 
L 395.498772 224.53961 
L 395.498772 224.395881 
L 392.10176 225.53699 
L 392.10176 225.465245 
L 391.082656 225.761796 
L 391.082656 225.61794 
L 389.384151 226.164942 
L 389.384151 226.092924 
L 388.704748 226.27017 
L 388.704748 226.125675 
L 388.025346 226.376159 
L 388.025346 226.303811 
L 388.025346 226.158723 
L 386.666541 226.590448 
L 386.666541 226.517769 
L 384.628334 227.281685 
L 384.628334 227.209172 
L 384.628334 227.136527 
L 382.250426 228.039158 
L 382.250426 227.966742 
L 382.250426 227.894193 
L 381.231323 228.284934 
L 381.231323 228.212411 
L 381.231323 228.139753 
L 380.212219 228.460369 
L 380.212219 228.387603 
L 378.513713 228.975851 
L 378.513713 228.830194 
L 377.154909 229.291247 
L 377.154909 229.218304 
L 373.418196 230.636296 
L 373.418196 230.49103 
L 372.738794 230.69304 
L 372.738794 230.400767 
L 372.059391 230.677178 
L 372.059391 230.603882 
L 372.059391 230.456865 
L 371.040288 230.800531 
L 371.040288 230.579074 
L 370.700587 230.718939 
L 370.700587 230.644896 
L 370.700587 230.570708 
L 367.643276 231.769347 
L 367.643276 231.323846 
L 365.94477 231.968535 
L 365.94477 231.893964 
L 365.605069 232.03879 
L 365.605069 231.96414 
L 365.605069 231.739288 
L 361.868356 233.280501 
L 361.868356 232.830596 
L 360.849253 233.203831 
L 360.849253 233.128382 
L 360.509552 233.278661 
L 360.509552 233.203133 
L 360.509552 233.127449 
L 359.830149 233.42925 
L 359.830149 233.353565 
L 359.830149 233.277724 
L 358.471345 233.810041 
L 358.471345 233.734201 
L 357.791942 233.964591 
L 357.791942 233.736123 
L 356.433138 234.277606 
L 356.433138 234.201298 
L 354.734632 234.905505 
L 354.734632 234.829296 
L 354.05523 235.14407 
L 354.05523 235.067873 
L 354.05523 234.8383 
L 353.375827 235.078444 
L 353.375827 234.84742 
L 352.696425 235.089153 
L 352.696425 235.011823 
L 352.356724 235.171969 
L 352.356724 235.09456 
L 352.356724 235.016984 
L 350.658218 235.746577 
L 350.658218 235.66912 
L 349.978816 235.917281 
L 349.978816 235.76189 
L 348.959712 236.17617 
L 348.959712 236.098331 
L 346.242103 237.350633 
L 346.242103 237.273237 
L 345.902402 237.441304 
L 345.902402 237.363836 
L 345.902402 237.208378 
L 344.883298 237.715773 
L 344.883298 237.63809 
L 344.883298 237.560231 
L 343.184792 238.337119 
L 343.184792 238.181576 
L 342.50539 238.526711 
L 342.50539 238.448889 
L 342.50539 238.370889 
L 340.467183 239.339658 
L 340.467183 238.6339 
L 338.428976 239.701732 
L 338.428976 239.623095 
L 338.428976 239.544272 
L 337.749574 239.904051 
L 337.749574 239.82528 
L 337.749574 239.667179 
L 337.409873 239.848069 
L 337.409873 239.768857 
L 337.409873 239.689457 
L 336.73047 240.053017 
L 336.73047 239.973672 
L 336.73047 239.894137 
L 335.711367 240.364135 
L 335.711367 240.284591 
L 334.012861 241.131202 
L 334.012861 241.051913 
L 333.67316 241.238662 
L 333.67316 241.159311 
L 333.67316 241.000029 
L 332.654056 241.564199 
L 332.654056 241.484664 
L 332.654056 241.003328 
L 332.314355 241.193248 
L 332.314355 241.112466 
L 332.314355 240.868916 
L 330.615849 241.747464 
L 330.615849 241.666365 
L 329.936447 242.054075 
L 329.936447 241.973055 
L 329.936447 241.810402 
L 329.257045 242.11958 
L 329.257045 241.956266 
L 328.917344 242.152707 
L 328.917344 242.070885 
L 328.917344 241.824164 
L 328.577642 242.021691 
L 328.577642 241.939177 
L 328.577642 241.856452 
L 327.89824 242.253621 
L 327.89824 242.170981 
L 327.89824 242.088128 
L 327.218838 242.487948 
L 327.218838 242.405183 
L 327.218838 242.155599 
L 326.199734 242.677902 
L 326.199734 242.427101 
L 324.84093 243.160926 
L 324.84093 243.077302 
L 324.501228 243.28328 
L 324.501228 243.199595 
L 324.501228 243.115689 
L 324.161527 243.322539 
L 324.161527 243.238573 
L 324.161527 243.154383 
L 323.482125 243.570396 
L 323.482125 243.486312 
L 323.482125 243.402003 
L 323.142424 243.611178 
L 323.142424 243.52681 
L 323.142424 243.442216 
L 321.104217 244.711195 
L 321.104217 244.627404 
L 321.104217 244.034441 
L 320.764516 244.249361 
L 320.764516 244.1639 
L 320.764516 244.078204 
L 320.424815 244.294072 
L 320.424815 244.208319 
L 320.424815 244.122329 
L 319.06601 244.907748 
L 319.06601 244.822013 
L 318.386608 245.176259 
L 318.386608 245.09042 
L 317.027803 245.979055 
L 317.027803 245.893743 
L 317.027803 245.722396 
L 316.008699 246.3118 
L 316.008699 245.967576 
L 315.668998 246.194811 
L 315.668998 246.10834 
L 315.668998 246.021621 
L 313.970492 247.08376 
L 313.970492 246.997575 
L 312.611688 247.844201 
L 312.611688 247.238077 
L 311.932285 247.624626 
L 311.932285 247.537196 
L 311.592584 247.775558 
L 311.592584 247.688092 
L 311.592584 247.600366 
L 310.913182 247.9926 
L 310.913182 247.639826 
L 310.573481 247.881944 
L 310.573481 247.793316 
L 310.573481 247.346123 
L 309.894078 247.835384 
L 309.894078 247.745599 
L 309.894078 247.655539 
L 308.874975 248.306903 
L 308.874975 248.0364 
L 308.535274 248.285901 
L 308.535274 248.19542 
L 308.535274 248.104658 
L 308.195573 248.355433 
L 308.195573 248.264637 
L 308.195573 248.173556 
L 307.51617 248.678473 
L 307.51617 248.587613 
L 307.51617 248.496468 
L 306.157366 249.427557 
L 306.157366 249.336878 
L 305.477963 249.853557 
L 305.477963 249.763124 
L 305.477963 249.490081 
L 305.138262 249.750744 
L 305.138262 249.659417 
L 305.138262 249.567795 
L 303.779458 250.530304 
L 303.779458 250.071823 
L 302.760354 250.876011 
L 302.760354 250.78428 
L 302.760354 250.692245 
L 302.420653 250.962667 
L 302.420653 250.870623 
L 302.420653 250.778274 
L 301.061848 251.779941 
L 301.061848 251.503754 
L 300.382446 251.966242 
L 300.382446 251.781187 
L 300.042745 252.060819 
L 300.042745 251.968137 
L 300.042745 251.875139 
L 299.023641 252.721712 
L 299.023641 252.62937 
L 299.023641 252.53671 
L 298.68394 252.821501 
L 298.68394 252.728852 
L 298.68394 252.542592 
L 298.344239 252.829371 
L 298.344239 252.736092 
L 298.344239 252.642487 
L 297.664837 253.220406 
L 297.664837 253.127158 
L 297.664837 252.939679 
L 297.325135 253.231196 
L 297.325135 253.13731 
L 297.325135 253.043091 
L 296.306032 253.832476 
L 296.306032 253.455181 
L 295.966331 253.753382 
L 295.966331 253.658576 
L 295.966331 253.179389 
L 294.947227 254.087172 
L 294.947227 253.991417 
L 294.947227 252.914534 
L 294.267825 253.534597 
L 294.267825 253.43529 
L 294.267825 253.235555 
L 293.928124 253.548532 
L 293.928124 253.448501 
L 293.928124 253.2473 
L 293.248722 253.778906 
L 293.248722 253.678167 
L 292.90902 253.996789 
L 292.90902 253.896082 
L 292.90902 253.591629 
L 292.569319 253.913164 
L 292.569319 253.81132 
L 292.569319 253.70908 
L 291.889917 254.255851 
L 291.889917 254.15368 
L 290.870813 255.138695 
L 290.870813 255.03746 
L 290.870813 254.935825 
L 289.172308 256.508547 
L 289.172308 256.307919 
L 288.832606 256.647859 
L 288.832606 256.547421 
L 288.832606 256.243663 
L 288.153204 256.830501 
L 288.153204 256.728998 
L 287.473802 257.424568 
L 287.473802 257.323662 
L 287.473802 257.22234 
L 286.794399 257.925713 
L 286.794399 257.825009 
L 286.794399 257.723886 
L 285.435595 259.053137 
L 285.435595 258.953323 
L 283.737089 260.778807 
L 283.737089 260.681396 
L 283.737089 260.287558 
L 283.057687 260.936221 
L 283.057687 260.73827 
L 282.038583 261.778653 
L 282.038583 261.680441 
L 280.679778 263.22654 
L 280.679778 263.130455 
L 280.679778 263.033942 
L 280.000376 263.819965 
L 280.000376 263.724348 
L 280.000376 263.531823 
L 278.981273 264.730286 
L 278.981273 264.635434 
L 278.981273 263.959206 
L 277.962169 265.0951 
L 277.962169 264.90133 
L 277.282767 265.640772 
L 277.282767 265.054778 
L 276.943066 265.48091 
L 276.943066 265.382391 
L 276.943066 265.283396 
L 275.584261 267.015033 
L 275.584261 266.918813 
L 275.584261 266.822123 
L 275.24456 267.261987 
L 275.24456 267.165665 
L 275.24456 266.775597 
L 274.904859 267.22191 
L 274.904859 267.124047 
L 274.904859 267.025695 
L 274.565158 267.475991 
L 274.565158 267.378028 
L 274.565158 267.279572 
L 274.225456 267.73392 
L 274.225456 267.635867 
L 274.225456 267.238638 
L 273.546054 268.06476 
L 273.546054 267.865795 
L 272.187249 269.755932 
L 272.187249 269.562726 
L 272.187249 269.465359 
L 271.847548 269.947125 
L 271.847548 269.850261 
L 271.847548 269.358127 
L 271.168146 270.341913 
L 271.168146 270.145592 
L 271.168146 269.947125 
L 270.828445 270.44737 
L 270.828445 270.34842 
L 270.828445 270.148881 
L 270.488744 270.655228 
L 270.488744 270.555756 
L 270.488744 270.253998 
L 269.809341 271.185019 
L 269.809341 271.085076 
L 269.809341 270.781819 
L 269.46964 271.30739 
L 269.46964 271.104752 
L 269.46964 270.796378 
L 268.790238 271.869118 
L 268.790238 271.665613 
L 268.790238 271.355826 
L 268.450537 271.90344 
L 268.450537 271.696484 
L 268.450537 271.487035 
L 267.771134 272.396495 
L 267.771134 271.869118 
L 267.091732 272.914202 
L 267.091732 272.809027 
L 267.091732 272.38165 
L 265.732927 274.556177 
L 265.732927 274.137701 
L 265.053525 275.26761 
L 265.053525 275.163964 
L 265.053525 274.954593 
L 264.374123 276.115685 
L 264.374123 276.012806 
L 264.374123 275.804941 
L 264.034422 276.450308 
L 264.034422 276.24331 
L 264.034422 275.927404 
L 263.355019 277.044239 
L 263.355019 276.622435 
L 263.015318 277.303244 
L 263.015318 277.091927 
L 263.015318 276.985115 
L 262.335916 278.374327 
L 262.335916 278.167016 
L 262.335916 276.969793 
L 261.996215 277.701886 
L 261.996215 277.478049 
L 261.996215 276.785133 
L 261.656513 277.542843 
L 261.656513 277.3096 
L 261.656513 276.831642 
L 260.977111 278.397542 
L 260.977111 278.163647 
L 260.977111 277.683963 
L 260.63741 278.493862 
L 260.63741 278.253766 
L 260.63741 277.635099 
L 259.958008 279.19832 
L 259.958008 279.076594 
L 259.958008 278.829851 
L 259.618306 279.696241 
L 259.618306 279.451777 
L 259.618306 278.820627 
L 258.599203 281.304359 
L 258.599203 281.061261 
L 257.919801 282.835787 
L 257.919801 282.719387 
L 257.919801 282.11975 
L 255.202191 289.793796 
L 255.202191 289.702697 
L 255.202191 289.32812 
L 254.86249 290.462785 
L 254.86249 290.094918 
L 254.86249 289.807724 
L 254.522789 290.998606 
L 254.522789 290.625922 
L 254.522789 290.432762 
L 254.183088 291.678621 
L 254.183088 291.306637 
L 254.183088 290.608554 
L 253.843387 291.954586 
L 253.843387 291.559745 
L 253.843387 291.457654 
L 253.503685 292.86524 
L 253.503685 292.479431 
L 253.503685 291.638194 
L 252.824283 294.482572 
L 252.824283 294.292375 
L 252.824283 293.683744 
L 252.144881 297.101442 
L 252.144881 296.595304 
L 252.144881 294.556997 
L 251.465478 298.821724 
L 251.465478 298.448881 
L 251.465478 297.074689 
L 251.125777 300.114065 
L 251.125777 299.161425 
L 251.125777 294.933039 
L 250.786076 300.543182 
L 250.786076 298.909578 
L 250.786076 291.85785 
L 250.446375 306.465 
L 250.446375 306.465 
" clip-path="url(#p83b1403fcb)" style="fill: none; stroke-dasharray: 5.55,2.4; stroke-dashoffset: 0; stroke: #2ca02c; stroke-width: 1.5"/>
   </g>
   <g id="line2d_16">
    <path d="M 469.553625 210.781739 
L 465.13751 211.813064 
L 465.13751 211.748323 
L 464.118406 211.939307 
L 464.118406 211.87443 
L 461.740498 212.41068 
L 461.740498 212.345725 
L 460.381694 212.626968 
L 460.381694 212.561893 
L 457.664084 213.19534 
L 457.664084 213.064984 
L 456.984682 213.175639 
L 456.984682 213.110264 
L 454.946475 213.57587 
L 454.946475 213.444856 
L 453.58767 213.735959 
L 453.58767 213.604521 
L 449.171555 214.712859 
L 449.171555 214.647134 
L 448.831854 214.738381 
L 448.831854 214.67258 
L 448.831854 214.606684 
L 447.812751 214.881322 
L 447.812751 214.815387 
L 447.812751 214.683232 
L 445.434842 215.262997 
L 445.434842 215.196813 
L 444.415739 215.475735 
L 444.415739 215.409513 
L 444.415739 215.343194 
L 443.056934 215.650811 
L 443.056934 215.584378 
L 441.358428 215.988678 
L 441.358428 215.855526 
L 440.339325 216.073153 
L 440.339325 216.006394 
L 438.640819 216.416471 
L 438.640819 216.34962 
L 436.262911 216.956661 
L 436.262911 216.889764 
L 434.904106 217.211259 
L 434.904106 217.077144 
L 434.224704 217.205194 
L 434.224704 217.003096 
L 433.545302 217.13156 
L 433.545302 217.063934 
L 433.205601 217.162197 
L 433.205601 217.094492 
L 433.205601 217.026684 
L 431.846796 217.353597 
L 431.846796 217.285677 
L 428.789485 218.115302 
L 428.789485 218.047393 
L 427.430681 218.382533 
L 427.430681 218.314516 
L 425.732175 218.754107 
L 425.732175 218.686009 
L 424.033669 219.129739 
L 424.033669 219.061561 
L 421.655761 219.717118 
L 421.655761 219.64892 
L 419.277853 220.312861 
L 419.277853 220.176329 
L 417.579347 220.636364 
L 417.579347 220.567975 
L 416.899945 220.712163 
L 416.899945 220.506191 
L 415.54114 220.865222 
L 415.54114 220.796357 
L 414.522037 221.050309 
L 414.522037 220.842992 
L 414.182335 220.951077 
L 414.182335 220.881779 
L 414.182335 220.812369 
L 413.163232 221.06844 
L 413.163232 220.789594 
L 411.804427 221.156849 
L 411.804427 221.086867 
L 409.426519 221.789366 
L 409.426519 221.719386 
L 408.407416 221.983349 
L 408.407416 221.843014 
L 406.70891 222.333669 
L 406.70891 222.263383 
L 405.010404 222.75904 
L 405.010404 222.688699 
L 403.651599 223.074815 
L 403.651599 222.933834 
L 400.93399 223.78654 
L 400.93399 223.645451 
L 400.594289 223.761836 
L 400.594289 223.69115 
L 400.594289 223.620343 
L 398.556082 224.323331 
L 398.556082 224.252641 
L 398.556082 224.03984 
L 397.197277 224.442182 
L 397.197277 224.371043 
L 396.857576 224.489979 
L 396.857576 224.418758 
L 396.857576 224.347413 
L 394.139967 225.235932 
L 394.139967 225.164678 
L 391.762059 226.016089 
L 391.762059 225.945021 
L 391.762059 225.659489 
L 391.082656 225.833532 
L 391.082656 225.761796 
L 390.063553 226.060465 
L 390.063553 225.988611 
L 387.685645 226.789636 
L 387.685645 226.645948 
L 383.948932 227.969878 
L 383.948932 227.826508 
L 382.929828 228.140685 
L 382.929828 228.068828 
L 382.590127 228.198039 
L 382.590127 228.126103 
L 382.590127 228.054034 
L 380.891622 228.632267 
L 380.891622 228.5602 
L 380.212219 228.750079 
L 380.212219 228.677854 
L 378.513713 229.26553 
L 378.513713 229.048474 
L 377.834311 229.31456 
L 377.834311 229.24205 
L 377.834311 229.169404 
L 376.475506 229.632496 
L 376.475506 229.559806 
L 375.456403 229.891906 
L 375.456403 229.819118 
L 374.437299 230.226538 
L 374.437299 230.153792 
L 374.437299 229.934717 
L 374.097598 230.071284 
L 374.097598 229.99804 
L 374.097598 229.85113 
L 373.418196 230.125419 
L 373.418196 230.051874 
L 373.418196 229.978188 
L 372.059391 230.456865 
L 372.059391 230.235267 
L 370.360885 230.859077 
L 370.360885 230.710975 
L 367.643276 231.769347 
L 367.643276 231.695464 
L 366.624173 232.051217 
L 366.624173 231.977247 
L 365.94477 232.265334 
L 365.94477 232.191356 
L 365.94477 232.117231 
L 362.88746 233.42925 
L 362.88746 233.355625 
L 362.88746 233.281852 
L 362.208058 233.576946 
L 362.208058 233.503173 
L 362.208058 233.42925 
L 361.528655 233.65192 
L 361.528655 233.354724 
L 360.849253 233.57876 
L 360.849253 233.354265 
L 359.150747 234.032851 
L 359.150747 233.957947 
L 358.131644 234.339353 
L 358.131644 234.189247 
L 357.452241 234.420341 
L 357.452241 234.345059 
L 356.093437 234.962004 
L 356.093437 234.886896 
L 356.093437 234.508976 
L 355.753735 234.664527 
L 355.753735 234.588548 
L 355.753735 234.206226 
L 354.05523 234.991512 
L 354.05523 234.914988 
L 354.05523 234.607246 
L 353.715528 234.765749 
L 353.715528 234.688487 
L 353.715528 234.611058 
L 352.696425 235.089153 
L 352.696425 235.011823 
L 352.696425 234.934325 
L 352.017023 235.177658 
L 352.017023 235.100002 
L 349.978816 235.994721 
L 349.978816 235.917281 
L 349.639115 236.080713 
L 349.639115 236.003197 
L 349.639115 235.92551 
L 349.299413 236.089493 
L 349.299413 236.01173 
L 349.299413 235.933795 
L 348.959712 236.098331 
L 348.959712 236.020319 
L 348.959712 235.942134 
L 348.620011 236.107228 
L 348.620011 236.028965 
L 348.620011 235.950529 
L 348.28031 236.116184 
L 348.28031 236.03767 
L 348.28031 235.95898 
L 346.921505 236.54763 
L 346.921505 236.468983 
L 346.581804 236.636901 
L 346.581804 236.479276 
L 344.883298 237.247028 
L 344.883298 237.01025 
L 344.203896 237.352313 
L 344.203896 237.273237 
L 344.203896 237.034918 
L 343.524494 237.3794 
L 343.524494 237.299808 
L 343.524494 237.140073 
L 343.184792 237.313232 
L 343.184792 237.233195 
L 343.184792 237.072565 
L 342.165689 237.515166 
L 342.165689 237.434711 
L 341.486287 237.705348 
L 341.486287 237.624739 
L 340.127482 238.33271 
L 340.127482 238.252366 
L 340.127482 238.171831 
L 339.44808 238.528788 
L 339.44808 238.448294 
L 339.44808 238.124405 
L 339.108378 238.304103 
L 339.108378 238.222766 
L 339.108378 238.141234 
L 337.070172 239.229923 
L 337.070172 239.148917 
L 337.070172 239.067716 
L 336.73047 239.25094 
L 336.73047 239.169666 
L 336.73047 239.088194 
L 336.051068 239.375052 
L 336.051068 239.293434 
L 334.012861 240.410608 
L 334.012861 240.32956 
L 334.012861 240.166865 
L 333.333459 240.462322 
L 333.333459 240.380737 
L 332.993758 240.570122 
L 332.993758 240.488467 
L 332.993758 240.324551 
L 332.314355 240.705539 
L 332.314355 240.623545 
L 332.314355 240.541346 
L 331.974654 240.732825 
L 331.974654 240.650557 
L 331.974654 240.402513 
L 329.596746 241.678212 
L 329.596746 241.430619 
L 327.89824 242.336049 
L 327.89824 242.253621 
L 327.558539 242.452972 
L 327.558539 242.370482 
L 327.558539 241.871044 
L 326.879137 242.273423 
L 326.879137 242.189731 
L 326.879137 241.682962 
L 326.539435 241.886021 
L 326.539435 241.800937 
L 326.539435 241.630094 
L 325.860033 241.953316 
L 325.860033 241.695613 
L 325.520332 241.901397 
L 325.520332 241.815197 
L 325.520332 241.642105 
L 325.180631 241.848921 
L 325.180631 241.762188 
L 325.180631 241.675222 
L 323.142424 242.843628 
L 323.142424 242.757185 
L 322.463022 243.094281 
L 322.463022 242.9209 
L 322.12332 243.134 
L 322.12332 243.047127 
L 322.12332 242.960014 
L 321.783619 243.174047 
L 321.783619 243.08687 
L 321.783619 242.82389 
L 321.443918 243.039217 
L 321.443918 242.951248 
L 321.443918 242.596917 
L 320.424815 243.249183 
L 320.424815 243.160521 
L 320.424815 242.893037 
L 320.085113 243.11241 
L 320.085113 243.022929 
L 320.085113 242.662463 
L 319.745412 242.88338 
L 319.745412 242.792808 
L 319.745412 242.610887 
L 318.726309 243.188337 
L 318.726309 243.097292 
L 317.367504 243.908292 
L 317.367504 243.817499 
L 316.348401 244.411268 
L 316.348401 244.320546 
L 316.008699 244.55036 
L 316.008699 244.459576 
L 316.008699 244.18562 
L 315.668998 244.416929 
L 315.668998 244.325278 
L 315.668998 244.233355 
L 315.329297 244.465763 
L 315.329297 244.373776 
L 315.329297 244.281516 
L 314.989596 244.515033 
L 314.989596 244.422709 
L 314.989596 244.050641 
L 314.310194 244.42861 
L 314.310194 244.335041 
L 312.951389 245.194888 
L 312.951389 245.008088 
L 312.611688 245.248776 
L 312.611688 245.155173 
L 312.611688 244.872639 
L 312.271987 245.11497 
L 312.271987 245.02044 
L 312.271987 244.925618 
L 311.592584 245.318791 
L 311.592584 245.033061 
L 310.913182 245.525796 
L 310.913182 245.43043 
L 310.913182 245.142531 
L 309.554377 246.045568 
L 309.554377 245.949664 
L 308.874975 246.454734 
L 308.874975 246.359024 
L 308.874975 246.263008 
L 307.855872 247.028202 
L 307.855872 246.932644 
L 307.855872 246.836779 
L 307.51617 247.094003 
L 307.51617 246.998089 
L 307.51617 246.416031 
L 306.836768 246.839093 
L 306.836768 246.445522 
L 306.497067 246.708477 
L 306.497067 246.609543 
L 306.497067 246.310763 
L 306.157366 246.575685 
L 306.157366 246.475703 
L 306.157366 246.375386 
L 305.477963 246.808908 
L 305.477963 246.708477 
L 303.779458 247.961874 
L 303.779458 247.561167 
L 303.439756 247.835959 
L 303.439756 247.735222 
L 303.439756 247.634138 
L 302.760354 248.187769 
L 302.760354 248.086944 
L 302.760354 247.985769 
L 302.420653 248.264637 
L 302.420653 248.163419 
L 302.420653 248.061848 
L 302.080952 248.342309 
L 302.080952 248.240696 
L 302.080952 248.0364 
L 301.741251 248.318788 
L 301.741251 248.216418 
L 301.741251 248.010592 
L 300.382446 249.154029 
L 300.382446 249.05187 
L 300.382446 248.949347 
L 299.703044 249.528528 
L 299.703044 249.426308 
L 299.703044 249.323721 
L 298.344239 250.395813 
L 298.344239 250.293869 
L 297.325135 251.187485 
L 297.325135 251.086245 
L 297.325135 250.470925 
L 296.645733 250.974151 
L 296.645733 250.662404 
L 295.62663 251.481483 
L 295.62663 251.273212 
L 295.286928 251.584247 
L 295.286928 251.479911 
L 295.286928 251.375177 
L 294.607526 252.002395 
L 294.607526 251.89806 
L 294.607526 251.048769 
L 294.267825 251.367855 
L 294.267825 251.260244 
L 294.267825 251.152211 
L 293.588423 251.688188 
L 293.588423 251.253451 
L 293.248722 251.579287 
L 293.248722 251.469953 
L 293.248722 251.360183 
L 292.569319 251.908175 
L 292.569319 251.688188 
L 292.229618 252.020168 
L 292.229618 251.909956 
L 292.229618 251.464609 
L 291.889917 251.800206 
L 291.889917 251.688188 
L 291.889917 251.349362 
L 291.550216 251.688188 
L 291.550216 251.574778 
L 291.550216 251.231714 
L 291.210515 251.573831 
L 291.210515 251.458996 
L 291.210515 251.343679 
L 290.870813 251.688188 
L 290.870813 251.572868 
L 290.870813 251.340766 
L 289.512009 252.624543 
L 289.512009 252.509253 
L 288.832606 253.104829 
L 288.832606 252.757583 
L 288.492905 253.117148 
L 288.492905 253.000922 
L 288.492905 252.884188 
L 287.813503 253.494016 
L 287.813503 253.260149 
L 287.473802 253.62719 
L 287.473802 253.510033 
L 287.473802 253.392355 
L 286.794399 254.016508 
L 286.794399 253.662127 
L 286.114997 254.296607 
L 286.114997 254.058938 
L 285.775296 254.439534 
L 285.775296 254.320483 
L 285.775296 253.594573 
L 285.095894 254.36957 
L 285.095894 254.247852 
L 285.095894 254.002701 
L 284.756192 254.394806 
L 284.756192 254.271999 
L 284.756192 254.148612 
L 284.416491 254.543851 
L 284.416491 254.420523 
L 284.416491 254.296607 
L 283.737089 254.972169 
L 283.737089 254.093023 
L 283.057687 254.783683 
L 283.057687 254.528467 
L 282.038583 255.649603 
L 282.038583 255.266572 
L 281.359181 255.987127 
L 281.359181 255.47073 
L 280.679778 256.335064 
L 280.679778 256.205863 
L 280.679778 255.147776 
L 280.000376 255.901788 
L 280.000376 255.767312 
L 279.660675 256.216404 
L 279.660675 256.082049 
L 279.660675 255.946975 
L 279.320974 256.400171 
L 279.320974 256.265226 
L 279.320974 255.99314 
L 278.641572 256.912134 
L 278.641572 256.776744 
L 278.641572 256.640612 
L 278.30187 257.105674 
L 278.30187 256.969698 
L 278.30187 256.695486 
L 277.622468 257.638872 
L 277.622468 257.502486 
L 277.622468 256.808966 
L 277.282767 257.290362 
L 277.282767 257.150263 
L 277.282767 253.040701 
L 276.943066 253.553652 
L 276.943066 253.389331 
L 276.943066 253.057608 
L 276.603365 253.577043 
L 276.603365 253.410729 
L 276.603365 251.865459 
L 276.263663 252.399575 
L 276.263663 252.223466 
L 276.263663 252.046206 
L 275.24456 253.501989 
L 275.24456 253.148903 
L 274.565158 254.261595 
L 274.565158 254.085826 
L 274.565158 253.908869 
L 274.225456 254.473449 
L 274.225456 254.296607 
L 274.225456 252.837351 
L 273.206353 254.407604 
L 273.206353 254.222346 
L 272.866652 254.818291 
L 272.866652 254.633177 
L 272.866652 254.446732 
L 272.526951 255.049941 
L 272.526951 254.863655 
L 272.526951 253.911601 
L 272.187249 254.528467 
L 272.187249 254.335394 
L 272.187249 253.747466 
L 271.168146 255.645448 
L 271.168146 255.45148 
L 271.168146 254.255851 
L 270.488744 255.368843 
L 270.488744 255.16608 
L 270.149042 255.834639 
L 270.149042 255.632118 
L 270.149042 255.014715 
L 269.129939 257.076071 
L 269.129939 256.872824 
L 269.129939 256.252922 
L 268.450537 257.466332 
L 268.450537 257.258711 
L 267.771134 258.505902 
L 267.771134 258.299182 
L 267.431433 259.039188 
L 267.431433 258.832989 
L 267.431433 258.203491 
L 267.091732 258.959446 
L 267.091732 258.74831 
L 267.091732 258.320358 
L 265.732927 261.236439 
L 265.732927 261.028013 
L 265.393226 261.832042 
L 265.393226 261.624447 
L 265.393226 260.98991 
L 264.374123 263.482238 
L 264.374123 263.27559 
L 264.374123 262.428739 
L 264.034422 263.291158 
L 264.034422 263.077426 
L 264.034422 258.832989 
L 263.015318 261.426288 
L 263.015318 261.174675 
L 262.675617 262.151174 
L 262.675617 261.900814 
L 262.675617 260.870428 
L 261.996215 262.899816 
L 261.996215 262.64355 
L 261.996215 262.384251 
L 261.316812 264.480377 
L 261.316812 264.227458 
L 261.316812 263.971473 
L 260.63741 265.889583 
L 260.63741 265.637562 
L 260.297709 266.751811 
L 260.297709 266.502042 
L 260.297709 264.934868 
L 259.278605 268.23152 
L 259.278605 266.346771 
L 258.599203 268.903757 
L 258.599203 268.633532 
L 258.599203 268.359391 
L 257.240398 273.762425 
L 257.240398 273.266932 
L 257.240398 272.756192 
L 256.900697 274.19339 
L 256.900697 273.941268 
L 256.900697 272.059729 
L 256.560996 273.598913 
L 256.560996 273.322727 
L 256.560996 272.465599 
L 255.881594 275.713105 
L 255.881594 275.163964 
L 255.881594 274.594855 
L 254.522789 281.183394 
L 254.522789 280.937942 
L 254.522789 279.358948 
L 254.183088 281.358961 
L 254.183088 280.82479 
L 254.183088 280.267394 
L 253.503685 284.308087 
L 253.503685 284.056304 
L 253.503685 283.535172 
L 253.163984 285.843141 
L 253.163984 285.088683 
L 253.163984 282.77773 
L 252.824283 285.454716 
L 252.824283 284.862877 
L 252.824283 284.554275 
L 252.144881 289.610596 
L 252.144881 289.347246 
L 252.144881 288.505389 
L 251.80518 291.85785 
L 251.80518 290.814482 
L 251.80518 277.2507 
L 251.465478 283.798733 
L 251.465478 282.11975 
L 251.465478 281.183394 
L 250.786076 296.031321 
L 250.786076 294.292375 
L 250.786076 289.610596 
L 250.446375 306.465 
L 250.446375 306.465 
" clip-path="url(#p83b1403fcb)" style="fill: none; stroke-dasharray: 5.55,2.4; stroke-dashoffset: 0; stroke: #d62728; stroke-width: 1.5"/>
   </g>
   <g id="patch_3">
    <path d="M 239.491013 306.465 
L 239.491013 87.35775 
" style="fill: none; stroke: #000000; stroke-width: 0.8; stroke-linejoin: miter; stroke-linecap: square"/>
   </g>
   <g id="patch_4">
    <path d="M 480.508988 306.465 
L 480.508988 87.35775 
" style="fill: none; stroke: #000000; stroke-width: 0.8; stroke-linejoin: miter; stroke-linecap: square"/>
   </g>
   <g id="patch_5">
    <path d="M 239.491013 306.465 
L 480.508988 306.465 
" style="fill: none; stroke: #000000; stroke-width: 0.8; stroke-linejoin: miter; stroke-linecap: square"/>
   </g>
   <g id="patch_6">
    <path d="M 239.491013 87.35775 
L 480.508988 87.35775 
" style="fill: none; stroke: #000000; stroke-width: 0.8; stroke-linejoin: miter; stroke-linecap: square"/>
   </g>
   <g id="text_15">
    <!-- Precision-Recall Curve for Different Author Data -->
    <g transform="translate(216.773438 26.607) scale(0.12 -0.12)">
     <defs>
      <path id="DejaVuSans-2d" d="M 313 2009 
L 1997 2009 
L 1997 1497 
L 313 1497 
L 313 2009 
z
" transform="scale(0.015625)"/>
      <path id="DejaVuSans-43" d="M 4122 4306 
L 4122 3641 
Q 3803 3938 3442 4084 
Q 3081 4231 2675 4231 
Q 1875 4231 1450 3742 
Q 1025 3253 1025 2328 
Q 1025 1406 1450 917 
Q 1875 428 2675 428 
Q 3081 428 3442 575 
Q 3803 722 4122 1019 
L 4122 359 
Q 3791 134 3420 21 
Q 3050 -91 2638 -91 
Q 1578 -91 968 557 
Q 359 1206 359 2328 
Q 359 3453 968 4101 
Q 1578 4750 2638 4750 
Q 3056 4750 3426 4639 
Q 3797 4528 4122 4306 
z
" transform="scale(0.015625)"/>
      <path id="DejaVuSans-75" d="M 544 1381 
L 544 3500 
L 1119 3500 
L 1119 1403 
Q 1119 906 1312 657 
Q 1506 409 1894 409 
Q 2359 409 2629 706 
Q 2900 1003 2900 1516 
L 2900 3500 
L 3475 3500 
L 3475 0 
L 2900 0 
L 2900 538 
Q 2691 219 2414 64 
Q 2138 -91 1772 -91 
Q 1169 -91 856 284 
Q 544 659 544 1381 
z
M 1991 3584 
L 1991 3584 
z
" transform="scale(0.015625)"/>
      <path id="DejaVuSans-76" d="M 191 3500 
L 800 3500 
L 1894 563 
L 2988 3500 
L 3597 3500 
L 2284 0 
L 1503 0 
L 191 3500 
z
" transform="scale(0.015625)"/>
      <path id="DejaVuSans-66" d="M 2375 4863 
L 2375 4384 
L 1825 4384 
Q 1516 4384 1395 4259 
Q 1275 4134 1275 3809 
L 1275 3500 
L 2222 3500 
L 2222 3053 
L 1275 3053 
L 1275 0 
L 697 0 
L 697 3053 
L 147 3053 
L 147 3500 
L 697 3500 
L 697 3744 
Q 697 4328 969 4595 
Q 1241 4863 1831 4863 
L 2375 4863 
z
" transform="scale(0.015625)"/>
      <path id="DejaVuSans-44" d="M 1259 4147 
L 1259 519 
L 2022 519 
Q 2988 519 3436 956 
Q 3884 1394 3884 2338 
Q 3884 3275 3436 3711 
Q 2988 4147 2022 4147 
L 1259 4147 
z
M 628 4666 
L 1925 4666 
Q 3281 4666 3915 4102 
Q 4550 3538 4550 2338 
Q 4550 1131 3912 565 
Q 3275 0 1925 0 
L 628 0 
L 628 4666 
z
" transform="scale(0.015625)"/>
      <path id="DejaVuSans-74" d="M 1172 4494 
L 1172 3500 
L 2356 3500 
L 2356 3053 
L 1172 3053 
L 1172 1153 
Q 1172 725 1289 603 
Q 1406 481 1766 481 
L 2356 481 
L 2356 0 
L 1766 0 
Q 1100 0 847 248 
Q 594 497 594 1153 
L 594 3053 
L 172 3053 
L 172 3500 
L 594 3500 
L 594 4494 
L 1172 4494 
z
" transform="scale(0.015625)"/>
      <path id="DejaVuSans-41" d="M 2188 4044 
L 1331 1722 
L 3047 1722 
L 2188 4044 
z
M 1831 4666 
L 2547 4666 
L 4325 0 
L 3669 0 
L 3244 1197 
L 1141 1197 
L 716 0 
L 50 0 
L 1831 4666 
z
" transform="scale(0.015625)"/>
      <path id="DejaVuSans-68" d="M 3513 2113 
L 3513 0 
L 2938 0 
L 2938 2094 
Q 2938 2591 2744 2837 
Q 2550 3084 2163 3084 
Q 1697 3084 1428 2787 
Q 1159 2491 1159 1978 
L 1159 0 
L 581 0 
L 581 4863 
L 1159 4863 
L 1159 2956 
Q 1366 3272 1645 3428 
Q 1925 3584 2291 3584 
Q 2894 3584 3203 3211 
Q 3513 2838 3513 2113 
z
" transform="scale(0.015625)"/>
     </defs>
     <use xlink:href="#DejaVuSans-50"/>
     <use xlink:href="#DejaVuSans-72" transform="translate(58.552734 0)"/>
     <use xlink:href="#DejaVuSans-65" transform="translate(97.416016 0)"/>
     <use xlink:href="#DejaVuSans-63" transform="translate(158.939453 0)"/>
     <use xlink:href="#DejaVuSans-69" transform="translate(213.919922 0)"/>
     <use xlink:href="#DejaVuSans-73" transform="translate(241.703125 0)"/>
     <use xlink:href="#DejaVuSans-69" transform="translate(293.802734 0)"/>
     <use xlink:href="#DejaVuSans-6f" transform="translate(321.585938 0)"/>
     <use xlink:href="#DejaVuSans-6e" transform="translate(382.767578 0)"/>
     <use xlink:href="#DejaVuSans-2d" transform="translate(446.146484 0)"/>
     <use xlink:href="#DejaVuSans-52" transform="translate(482.230469 0)"/>
     <use xlink:href="#DejaVuSans-65" transform="translate(547.212891 0)"/>
     <use xlink:href="#DejaVuSans-63" transform="translate(608.736328 0)"/>
     <use xlink:href="#DejaVuSans-61" transform="translate(663.716797 0)"/>
     <use xlink:href="#DejaVuSans-6c" transform="translate(724.996094 0)"/>
     <use xlink:href="#DejaVuSans-6c" transform="translate(752.779297 0)"/>
     <use xlink:href="#DejaVuSans-20" transform="translate(780.5625 0)"/>
     <use xlink:href="#DejaVuSans-43" transform="translate(812.349609 0)"/>
     <use xlink:href="#DejaVuSans-75" transform="translate(882.173828 0)"/>
     <use xlink:href="#DejaVuSans-72" transform="translate(945.552734 0)"/>
     <use xlink:href="#DejaVuSans-76" transform="translate(986.666016 0)"/>
     <use xlink:href="#DejaVuSans-65" transform="translate(1045.845703 0)"/>
     <use xlink:href="#DejaVuSans-20" transform="translate(1107.369141 0)"/>
     <use xlink:href="#DejaVuSans-66" transform="translate(1139.15625 0)"/>
     <use xlink:href="#DejaVuSans-6f" transform="translate(1174.361328 0)"/>
     <use xlink:href="#DejaVuSans-72" transform="translate(1235.542969 0)"/>
     <use xlink:href="#DejaVuSans-20" transform="translate(1276.65625 0)"/>
     <use xlink:href="#DejaVuSans-44" transform="translate(1308.443359 0)"/>
     <use xlink:href="#DejaVuSans-69" transform="translate(1385.445312 0)"/>
     <use xlink:href="#DejaVuSans-66" transform="translate(1413.228516 0)"/>
     <use xlink:href="#DejaVuSans-66" transform="translate(1448.433594 0)"/>
     <use xlink:href="#DejaVuSans-65" transform="translate(1483.638672 0)"/>
     <use xlink:href="#DejaVuSans-72" transform="translate(1545.162109 0)"/>
     <use xlink:href="#DejaVuSans-65" transform="translate(1584.025391 0)"/>
     <use xlink:href="#DejaVuSans-6e" transform="translate(1645.548828 0)"/>
     <use xlink:href="#DejaVuSans-74" transform="translate(1708.927734 0)"/>
     <use xlink:href="#DejaVuSans-20" transform="translate(1748.136719 0)"/>
     <use xlink:href="#DejaVuSans-41" transform="translate(1779.923828 0)"/>
     <use xlink:href="#DejaVuSans-75" transform="translate(1848.332031 0)"/>
     <use xlink:href="#DejaVuSans-74" transform="translate(1911.710938 0)"/>
     <use xlink:href="#DejaVuSans-68" transform="translate(1950.919922 0)"/>
     <use xlink:href="#DejaVuSans-6f" transform="translate(2014.298828 0)"/>
     <use xlink:href="#DejaVuSans-72" transform="translate(2075.480469 0)"/>
     <use xlink:href="#DejaVuSans-20" transform="translate(2116.59375 0)"/>
     <use xlink:href="#DejaVuSans-44" transform="translate(2148.380859 0)"/>
     <use xlink:href="#DejaVuSans-61" transform="translate(2225.382812 0)"/>
     <use xlink:href="#DejaVuSans-74" transform="translate(2286.662109 0)"/>
     <use xlink:href="#DejaVuSans-61" transform="translate(2325.871094 0)"/>
    </g>
    <!-- rounds=100, top_n=100000 -->
    <g transform="translate(274.595625 40.044375) scale(0.12 -0.12)">
     <defs>
      <path id="DejaVuSans-64" d="M 2906 2969 
L 2906 4863 
L 3481 4863 
L 3481 0 
L 2906 0 
L 2906 525 
Q 2725 213 2448 61 
Q 2172 -91 1784 -91 
Q 1150 -91 751 415 
Q 353 922 353 1747 
Q 353 2572 751 3078 
Q 1150 3584 1784 3584 
Q 2172 3584 2448 3432 
Q 2725 3281 2906 2969 
z
M 947 1747 
Q 947 1113 1208 752 
Q 1469 391 1925 391 
Q 2381 391 2643 752 
Q 2906 1113 2906 1747 
Q 2906 2381 2643 2742 
Q 2381 3103 1925 3103 
Q 1469 3103 1208 2742 
Q 947 2381 947 1747 
z
" transform="scale(0.015625)"/>
      <path id="DejaVuSans-3d" d="M 678 2906 
L 4684 2906 
L 4684 2381 
L 678 2381 
L 678 2906 
z
M 678 1631 
L 4684 1631 
L 4684 1100 
L 678 1100 
L 678 1631 
z
" transform="scale(0.015625)"/>
      <path id="DejaVuSans-2c" d="M 750 794 
L 1409 794 
L 1409 256 
L 897 -744 
L 494 -744 
L 750 256 
L 750 794 
z
" transform="scale(0.015625)"/>
      <path id="DejaVuSans-70" d="M 1159 525 
L 1159 -1331 
L 581 -1331 
L 581 3500 
L 1159 3500 
L 1159 2969 
Q 1341 3281 1617 3432 
Q 1894 3584 2278 3584 
Q 2916 3584 3314 3078 
Q 3713 2572 3713 1747 
Q 3713 922 3314 415 
Q 2916 -91 2278 -91 
Q 1894 -91 1617 61 
Q 1341 213 1159 525 
z
M 3116 1747 
Q 3116 2381 2855 2742 
Q 2594 3103 2138 3103 
Q 1681 3103 1420 2742 
Q 1159 2381 1159 1747 
Q 1159 1113 1420 752 
Q 1681 391 2138 391 
Q 2594 391 2855 752 
Q 3116 1113 3116 1747 
z
" transform="scale(0.015625)"/>
      <path id="DejaVuSans-5f" d="M 3263 -1063 
L 3263 -1509 
L -63 -1509 
L -63 -1063 
L 3263 -1063 
z
" transform="scale(0.015625)"/>
     </defs>
     <use xlink:href="#DejaVuSans-72"/>
     <use xlink:href="#DejaVuSans-6f" transform="translate(38.863281 0)"/>
     <use xlink:href="#DejaVuSans-75" transform="translate(100.044922 0)"/>
     <use xlink:href="#DejaVuSans-6e" transform="translate(163.423828 0)"/>
     <use xlink:href="#DejaVuSans-64" transform="translate(226.802734 0)"/>
     <use xlink:href="#DejaVuSans-73" transform="translate(290.279297 0)"/>
     <use xlink:href="#DejaVuSans-3d" transform="translate(342.378906 0)"/>
     <use xlink:href="#DejaVuSans-31" transform="translate(426.167969 0)"/>
     <use xlink:href="#DejaVuSans-30" transform="translate(489.791016 0)"/>
     <use xlink:href="#DejaVuSans-30" transform="translate(553.414062 0)"/>
     <use xlink:href="#DejaVuSans-2c" transform="translate(617.037109 0)"/>
     <use xlink:href="#DejaVuSans-20" transform="translate(648.824219 0)"/>
     <use xlink:href="#DejaVuSans-74" transform="translate(680.611328 0)"/>
     <use xlink:href="#DejaVuSans-6f" transform="translate(719.820312 0)"/>
     <use xlink:href="#DejaVuSans-70" transform="translate(781.001953 0)"/>
     <use xlink:href="#DejaVuSans-5f" transform="translate(844.478516 0)"/>
     <use xlink:href="#DejaVuSans-6e" transform="translate(894.478516 0)"/>
     <use xlink:href="#DejaVuSans-3d" transform="translate(957.857422 0)"/>
     <use xlink:href="#DejaVuSans-31" transform="translate(1041.646484 0)"/>
     <use xlink:href="#DejaVuSans-30" transform="translate(1105.269531 0)"/>
     <use xlink:href="#DejaVuSans-30" transform="translate(1168.892578 0)"/>
     <use xlink:href="#DejaVuSans-30" transform="translate(1232.515625 0)"/>
     <use xlink:href="#DejaVuSans-30" transform="translate(1296.138672 0)"/>
     <use xlink:href="#DejaVuSans-30" transform="translate(1359.761719 0)"/>
    </g>
    <!-- n_impostors=50, dataset_name=blog -->
    <g transform="translate(246.30375 53.8155) scale(0.12 -0.12)">
     <defs>
      <path id="DejaVuSans-6d" d="M 3328 2828 
Q 3544 3216 3844 3400 
Q 4144 3584 4550 3584 
Q 5097 3584 5394 3201 
Q 5691 2819 5691 2113 
L 5691 0 
L 5113 0 
L 5113 2094 
Q 5113 2597 4934 2840 
Q 4756 3084 4391 3084 
Q 3944 3084 3684 2787 
Q 3425 2491 3425 1978 
L 3425 0 
L 2847 0 
L 2847 2094 
Q 2847 2600 2669 2842 
Q 2491 3084 2119 3084 
Q 1678 3084 1418 2786 
Q 1159 2488 1159 1978 
L 1159 0 
L 581 0 
L 581 3500 
L 1159 3500 
L 1159 2956 
Q 1356 3278 1631 3431 
Q 1906 3584 2284 3584 
Q 2666 3584 2933 3390 
Q 3200 3197 3328 2828 
z
" transform="scale(0.015625)"/>
      <path id="DejaVuSans-35" d="M 691 4666 
L 3169 4666 
L 3169 4134 
L 1269 4134 
L 1269 2991 
Q 1406 3038 1543 3061 
Q 1681 3084 1819 3084 
Q 2600 3084 3056 2656 
Q 3513 2228 3513 1497 
Q 3513 744 3044 326 
Q 2575 -91 1722 -91 
Q 1428 -91 1123 -41 
Q 819 9 494 109 
L 494 744 
Q 775 591 1075 516 
Q 1375 441 1709 441 
Q 2250 441 2565 725 
Q 2881 1009 2881 1497 
Q 2881 1984 2565 2268 
Q 2250 2553 1709 2553 
Q 1456 2553 1204 2497 
Q 953 2441 691 2322 
L 691 4666 
z
" transform="scale(0.015625)"/>
      <path id="DejaVuSans-62" d="M 3116 1747 
Q 3116 2381 2855 2742 
Q 2594 3103 2138 3103 
Q 1681 3103 1420 2742 
Q 1159 2381 1159 1747 
Q 1159 1113 1420 752 
Q 1681 391 2138 391 
Q 2594 391 2855 752 
Q 3116 1113 3116 1747 
z
M 1159 2969 
Q 1341 3281 1617 3432 
Q 1894 3584 2278 3584 
Q 2916 3584 3314 3078 
Q 3713 2572 3713 1747 
Q 3713 922 3314 415 
Q 2916 -91 2278 -91 
Q 1894 -91 1617 61 
Q 1341 213 1159 525 
L 1159 0 
L 581 0 
L 581 4863 
L 1159 4863 
L 1159 2969 
z
" transform="scale(0.015625)"/>
      <path id="DejaVuSans-67" d="M 2906 1791 
Q 2906 2416 2648 2759 
Q 2391 3103 1925 3103 
Q 1463 3103 1205 2759 
Q 947 2416 947 1791 
Q 947 1169 1205 825 
Q 1463 481 1925 481 
Q 2391 481 2648 825 
Q 2906 1169 2906 1791 
z
M 3481 434 
Q 3481 -459 3084 -895 
Q 2688 -1331 1869 -1331 
Q 1566 -1331 1297 -1286 
Q 1028 -1241 775 -1147 
L 775 -588 
Q 1028 -725 1275 -790 
Q 1522 -856 1778 -856 
Q 2344 -856 2625 -561 
Q 2906 -266 2906 331 
L 2906 616 
Q 2728 306 2450 153 
Q 2172 0 1784 0 
Q 1141 0 747 490 
Q 353 981 353 1791 
Q 353 2603 747 3093 
Q 1141 3584 1784 3584 
Q 2172 3584 2450 3431 
Q 2728 3278 2906 2969 
L 2906 3500 
L 3481 3500 
L 3481 434 
z
" transform="scale(0.015625)"/>
     </defs>
     <use xlink:href="#DejaVuSans-6e"/>
     <use xlink:href="#DejaVuSans-5f" transform="translate(63.378906 0)"/>
     <use xlink:href="#DejaVuSans-69" transform="translate(113.378906 0)"/>
     <use xlink:href="#DejaVuSans-6d" transform="translate(141.162109 0)"/>
     <use xlink:href="#DejaVuSans-70" transform="translate(238.574219 0)"/>
     <use xlink:href="#DejaVuSans-6f" transform="translate(302.050781 0)"/>
     <use xlink:href="#DejaVuSans-73" transform="translate(363.232422 0)"/>
     <use xlink:href="#DejaVuSans-74" transform="translate(415.332031 0)"/>
     <use xlink:href="#DejaVuSans-6f" transform="translate(454.541016 0)"/>
     <use xlink:href="#DejaVuSans-72" transform="translate(515.722656 0)"/>
     <use xlink:href="#DejaVuSans-73" transform="translate(556.835938 0)"/>
     <use xlink:href="#DejaVuSans-3d" transform="translate(608.935547 0)"/>
     <use xlink:href="#DejaVuSans-35" transform="translate(692.724609 0)"/>
     <use xlink:href="#DejaVuSans-30" transform="translate(756.347656 0)"/>
     <use xlink:href="#DejaVuSans-2c" transform="translate(819.970703 0)"/>
     <use xlink:href="#DejaVuSans-20" transform="translate(851.757812 0)"/>
     <use xlink:href="#DejaVuSans-64" transform="translate(883.544922 0)"/>
     <use xlink:href="#DejaVuSans-61" transform="translate(947.021484 0)"/>
     <use xlink:href="#DejaVuSans-74" transform="translate(1008.300781 0)"/>
     <use xlink:href="#DejaVuSans-61" transform="translate(1047.509766 0)"/>
     <use xlink:href="#DejaVuSans-73" transform="translate(1108.789062 0)"/>
     <use xlink:href="#DejaVuSans-65" transform="translate(1160.888672 0)"/>
     <use xlink:href="#DejaVuSans-74" transform="translate(1222.412109 0)"/>
     <use xlink:href="#DejaVuSans-5f" transform="translate(1261.621094 0)"/>
     <use xlink:href="#DejaVuSans-6e" transform="translate(1311.621094 0)"/>
     <use xlink:href="#DejaVuSans-61" transform="translate(1375 0)"/>
     <use xlink:href="#DejaVuSans-6d" transform="translate(1436.279297 0)"/>
     <use xlink:href="#DejaVuSans-65" transform="translate(1533.691406 0)"/>
     <use xlink:href="#DejaVuSans-3d" transform="translate(1595.214844 0)"/>
     <use xlink:href="#DejaVuSans-62" transform="translate(1679.003906 0)"/>
     <use xlink:href="#DejaVuSans-6c" transform="translate(1742.480469 0)"/>
     <use xlink:href="#DejaVuSans-6f" transform="translate(1770.263672 0)"/>
     <use xlink:href="#DejaVuSans-67" transform="translate(1831.445312 0)"/>
    </g>
    <!-- impostor_technique=fixed, balanced=True -->
    <g transform="translate(231.788438 67.586625) scale(0.12 -0.12)">
     <defs>
      <path id="DejaVuSans-71" d="M 947 1747 
Q 947 1113 1208 752 
Q 1469 391 1925 391 
Q 2381 391 2643 752 
Q 2906 1113 2906 1747 
Q 2906 2381 2643 2742 
Q 2381 3103 1925 3103 
Q 1469 3103 1208 2742 
Q 947 2381 947 1747 
z
M 2906 525 
Q 2725 213 2448 61 
Q 2172 -91 1784 -91 
Q 1150 -91 751 415 
Q 353 922 353 1747 
Q 353 2572 751 3078 
Q 1150 3584 1784 3584 
Q 2172 3584 2448 3432 
Q 2725 3281 2906 2969 
L 2906 3500 
L 3481 3500 
L 3481 -1331 
L 2906 -1331 
L 2906 525 
z
" transform="scale(0.015625)"/>
      <path id="DejaVuSans-78" d="M 3513 3500 
L 2247 1797 
L 3578 0 
L 2900 0 
L 1881 1375 
L 863 0 
L 184 0 
L 1544 1831 
L 300 3500 
L 978 3500 
L 1906 2253 
L 2834 3500 
L 3513 3500 
z
" transform="scale(0.015625)"/>
      <path id="DejaVuSans-54" d="M -19 4666 
L 3928 4666 
L 3928 4134 
L 2272 4134 
L 2272 0 
L 1638 0 
L 1638 4134 
L -19 4134 
L -19 4666 
z
" transform="scale(0.015625)"/>
     </defs>
     <use xlink:href="#DejaVuSans-69"/>
     <use xlink:href="#DejaVuSans-6d" transform="translate(27.783203 0)"/>
     <use xlink:href="#DejaVuSans-70" transform="translate(125.195312 0)"/>
     <use xlink:href="#DejaVuSans-6f" transform="translate(188.671875 0)"/>
     <use xlink:href="#DejaVuSans-73" transform="translate(249.853516 0)"/>
     <use xlink:href="#DejaVuSans-74" transform="translate(301.953125 0)"/>
     <use xlink:href="#DejaVuSans-6f" transform="translate(341.162109 0)"/>
     <use xlink:href="#DejaVuSans-72" transform="translate(402.34375 0)"/>
     <use xlink:href="#DejaVuSans-5f" transform="translate(443.457031 0)"/>
     <use xlink:href="#DejaVuSans-74" transform="translate(493.457031 0)"/>
     <use xlink:href="#DejaVuSans-65" transform="translate(532.666016 0)"/>
     <use xlink:href="#DejaVuSans-63" transform="translate(594.189453 0)"/>
     <use xlink:href="#DejaVuSans-68" transform="translate(649.169922 0)"/>
     <use xlink:href="#DejaVuSans-6e" transform="translate(712.548828 0)"/>
     <use xlink:href="#DejaVuSans-69" transform="translate(775.927734 0)"/>
     <use xlink:href="#DejaVuSans-71" transform="translate(803.710938 0)"/>
     <use xlink:href="#DejaVuSans-75" transform="translate(867.1875 0)"/>
     <use xlink:href="#DejaVuSans-65" transform="translate(930.566406 0)"/>
     <use xlink:href="#DejaVuSans-3d" transform="translate(992.089844 0)"/>
     <use xlink:href="#DejaVuSans-66" transform="translate(1075.878906 0)"/>
     <use xlink:href="#DejaVuSans-69" transform="translate(1111.083984 0)"/>
     <use xlink:href="#DejaVuSans-78" transform="translate(1138.867188 0)"/>
     <use xlink:href="#DejaVuSans-65" transform="translate(1194.921875 0)"/>
     <use xlink:href="#DejaVuSans-64" transform="translate(1256.445312 0)"/>
     <use xlink:href="#DejaVuSans-2c" transform="translate(1319.921875 0)"/>
     <use xlink:href="#DejaVuSans-20" transform="translate(1351.708984 0)"/>
     <use xlink:href="#DejaVuSans-62" transform="translate(1383.496094 0)"/>
     <use xlink:href="#DejaVuSans-61" transform="translate(1446.972656 0)"/>
     <use xlink:href="#DejaVuSans-6c" transform="translate(1508.251953 0)"/>
     <use xlink:href="#DejaVuSans-61" transform="translate(1536.035156 0)"/>
     <use xlink:href="#DejaVuSans-6e" transform="translate(1597.314453 0)"/>
     <use xlink:href="#DejaVuSans-63" transform="translate(1660.693359 0)"/>
     <use xlink:href="#DejaVuSans-65" transform="translate(1715.673828 0)"/>
     <use xlink:href="#DejaVuSans-64" transform="translate(1777.197266 0)"/>
     <use xlink:href="#DejaVuSans-3d" transform="translate(1840.673828 0)"/>
     <use xlink:href="#DejaVuSans-54" transform="translate(1924.462891 0)"/>
     <use xlink:href="#DejaVuSans-72" transform="translate(1970.796875 0)"/>
     <use xlink:href="#DejaVuSans-75" transform="translate(2011.910156 0)"/>
     <use xlink:href="#DejaVuSans-65" transform="translate(2075.289062 0)"/>
    </g>
    <!-- upsample=True, fig2reproduce=4 -->
    <g transform="translate(258.302813 81.35775) scale(0.12 -0.12)">
     <use xlink:href="#DejaVuSans-75"/>
     <use xlink:href="#DejaVuSans-70" transform="translate(63.378906 0)"/>
     <use xlink:href="#DejaVuSans-73" transform="translate(126.855469 0)"/>
     <use xlink:href="#DejaVuSans-61" transform="translate(178.955078 0)"/>
     <use xlink:href="#DejaVuSans-6d" transform="translate(240.234375 0)"/>
     <use xlink:href="#DejaVuSans-70" transform="translate(337.646484 0)"/>
     <use xlink:href="#DejaVuSans-6c" transform="translate(401.123047 0)"/>
     <use xlink:href="#DejaVuSans-65" transform="translate(428.90625 0)"/>
     <use xlink:href="#DejaVuSans-3d" transform="translate(490.429688 0)"/>
     <use xlink:href="#DejaVuSans-54" transform="translate(574.21875 0)"/>
     <use xlink:href="#DejaVuSans-72" transform="translate(620.552734 0)"/>
     <use xlink:href="#DejaVuSans-75" transform="translate(661.666016 0)"/>
     <use xlink:href="#DejaVuSans-65" transform="translate(725.044922 0)"/>
     <use xlink:href="#DejaVuSans-2c" transform="translate(786.568359 0)"/>
     <use xlink:href="#DejaVuSans-20" transform="translate(818.355469 0)"/>
     <use xlink:href="#DejaVuSans-66" transform="translate(850.142578 0)"/>
     <use xlink:href="#DejaVuSans-69" transform="translate(885.347656 0)"/>
     <use xlink:href="#DejaVuSans-67" transform="translate(913.130859 0)"/>
     <use xlink:href="#DejaVuSans-32" transform="translate(976.607422 0)"/>
     <use xlink:href="#DejaVuSans-72" transform="translate(1040.230469 0)"/>
     <use xlink:href="#DejaVuSans-65" transform="translate(1079.09375 0)"/>
     <use xlink:href="#DejaVuSans-70" transform="translate(1140.617188 0)"/>
     <use xlink:href="#DejaVuSans-72" transform="translate(1204.09375 0)"/>
     <use xlink:href="#DejaVuSans-6f" transform="translate(1242.957031 0)"/>
     <use xlink:href="#DejaVuSans-64" transform="translate(1304.138672 0)"/>
     <use xlink:href="#DejaVuSans-75" transform="translate(1367.615234 0)"/>
     <use xlink:href="#DejaVuSans-63" transform="translate(1430.994141 0)"/>
     <use xlink:href="#DejaVuSans-65" transform="translate(1485.974609 0)"/>
     <use xlink:href="#DejaVuSans-3d" transform="translate(1547.498047 0)"/>
     <use xlink:href="#DejaVuSans-34" transform="translate(1631.287109 0)"/>
    </g>
   </g>
   <g id="legend_1">
    <g id="patch_7">
     <path d="M 278.1293 154.904625 
L 473.508988 154.904625 
Q 475.508988 154.904625 475.508988 152.904625 
L 475.508988 94.35775 
Q 475.508988 92.35775 473.508988 92.35775 
L 278.1293 92.35775 
Q 276.1293 92.35775 276.1293 94.35775 
L 276.1293 152.904625 
Q 276.1293 154.904625 278.1293 154.904625 
z
" style="fill: #ffffff; opacity: 0.8; stroke: #cccccc; stroke-linejoin: miter"/>
    </g>
    <g id="line2d_17">
     <path d="M 280.1293 100.456187 
L 290.1293 100.456187 
L 300.1293 100.456187 
" style="fill: none; stroke: #1f77b4; stroke-width: 1.5; stroke-linecap: square"/>
    </g>
    <g id="text_16">
     <!-- fixed -->
     <g transform="translate(308.1293 103.956187) scale(0.1 -0.1)">
      <use xlink:href="#DejaVuSans-66"/>
      <use xlink:href="#DejaVuSans-69" transform="translate(35.205078 0)"/>
      <use xlink:href="#DejaVuSans-78" transform="translate(62.988281 0)"/>
      <use xlink:href="#DejaVuSans-65" transform="translate(119.042969 0)"/>
      <use xlink:href="#DejaVuSans-64" transform="translate(180.566406 0)"/>
     </g>
    </g>
    <g id="line2d_18">
     <path d="M 280.1293 115.134312 
L 290.1293 115.134312 
L 300.1293 115.134312 
" style="fill: none; stroke-dasharray: 5.55,2.4; stroke-dashoffset: 0; stroke: #ff7f0e; stroke-width: 1.5"/>
    </g>
    <g id="text_17">
     <!-- unsupervised_baseline_min-max -->
     <g transform="translate(308.1293 118.634312) scale(0.1 -0.1)">
      <use xlink:href="#DejaVuSans-75"/>
      <use xlink:href="#DejaVuSans-6e" transform="translate(63.378906 0)"/>
      <use xlink:href="#DejaVuSans-73" transform="translate(126.757812 0)"/>
      <use xlink:href="#DejaVuSans-75" transform="translate(178.857422 0)"/>
      <use xlink:href="#DejaVuSans-70" transform="translate(242.236328 0)"/>
      <use xlink:href="#DejaVuSans-65" transform="translate(305.712891 0)"/>
      <use xlink:href="#DejaVuSans-72" transform="translate(367.236328 0)"/>
      <use xlink:href="#DejaVuSans-76" transform="translate(408.349609 0)"/>
      <use xlink:href="#DejaVuSans-69" transform="translate(467.529297 0)"/>
      <use xlink:href="#DejaVuSans-73" transform="translate(495.3125 0)"/>
      <use xlink:href="#DejaVuSans-65" transform="translate(547.412109 0)"/>
      <use xlink:href="#DejaVuSans-64" transform="translate(608.935547 0)"/>
      <use xlink:href="#DejaVuSans-5f" transform="translate(672.412109 0)"/>
      <use xlink:href="#DejaVuSans-62" transform="translate(722.412109 0)"/>
      <use xlink:href="#DejaVuSans-61" transform="translate(785.888672 0)"/>
      <use xlink:href="#DejaVuSans-73" transform="translate(847.167969 0)"/>
      <use xlink:href="#DejaVuSans-65" transform="translate(899.267578 0)"/>
      <use xlink:href="#DejaVuSans-6c" transform="translate(960.791016 0)"/>
      <use xlink:href="#DejaVuSans-69" transform="translate(988.574219 0)"/>
      <use xlink:href="#DejaVuSans-6e" transform="translate(1016.357422 0)"/>
      <use xlink:href="#DejaVuSans-65" transform="translate(1079.736328 0)"/>
      <use xlink:href="#DejaVuSans-5f" transform="translate(1141.259766 0)"/>
      <use xlink:href="#DejaVuSans-6d" transform="translate(1191.259766 0)"/>
      <use xlink:href="#DejaVuSans-69" transform="translate(1288.671875 0)"/>
      <use xlink:href="#DejaVuSans-6e" transform="translate(1316.455078 0)"/>
      <use xlink:href="#DejaVuSans-2d" transform="translate(1379.833984 0)"/>
      <use xlink:href="#DejaVuSans-6d" transform="translate(1415.917969 0)"/>
      <use xlink:href="#DejaVuSans-61" transform="translate(1513.330078 0)"/>
      <use xlink:href="#DejaVuSans-78" transform="translate(1574.609375 0)"/>
     </g>
    </g>
    <g id="line2d_19">
     <path d="M 280.1293 130.090563 
L 290.1293 130.090563 
L 300.1293 130.090563 
" style="fill: none; stroke-dasharray: 5.55,2.4; stroke-dashoffset: 0; stroke: #2ca02c; stroke-width: 1.5"/>
    </g>
    <g id="text_18">
     <!-- unsupervised_baseline_cosine -->
     <g transform="translate(308.1293 133.590563) scale(0.1 -0.1)">
      <use xlink:href="#DejaVuSans-75"/>
      <use xlink:href="#DejaVuSans-6e" transform="translate(63.378906 0)"/>
      <use xlink:href="#DejaVuSans-73" transform="translate(126.757812 0)"/>
      <use xlink:href="#DejaVuSans-75" transform="translate(178.857422 0)"/>
      <use xlink:href="#DejaVuSans-70" transform="translate(242.236328 0)"/>
      <use xlink:href="#DejaVuSans-65" transform="translate(305.712891 0)"/>
      <use xlink:href="#DejaVuSans-72" transform="translate(367.236328 0)"/>
      <use xlink:href="#DejaVuSans-76" transform="translate(408.349609 0)"/>
      <use xlink:href="#DejaVuSans-69" transform="translate(467.529297 0)"/>
      <use xlink:href="#DejaVuSans-73" transform="translate(495.3125 0)"/>
      <use xlink:href="#DejaVuSans-65" transform="translate(547.412109 0)"/>
      <use xlink:href="#DejaVuSans-64" transform="translate(608.935547 0)"/>
      <use xlink:href="#DejaVuSans-5f" transform="translate(672.412109 0)"/>
      <use xlink:href="#DejaVuSans-62" transform="translate(722.412109 0)"/>
      <use xlink:href="#DejaVuSans-61" transform="translate(785.888672 0)"/>
      <use xlink:href="#DejaVuSans-73" transform="translate(847.167969 0)"/>
      <use xlink:href="#DejaVuSans-65" transform="translate(899.267578 0)"/>
      <use xlink:href="#DejaVuSans-6c" transform="translate(960.791016 0)"/>
      <use xlink:href="#DejaVuSans-69" transform="translate(988.574219 0)"/>
      <use xlink:href="#DejaVuSans-6e" transform="translate(1016.357422 0)"/>
      <use xlink:href="#DejaVuSans-65" transform="translate(1079.736328 0)"/>
      <use xlink:href="#DejaVuSans-5f" transform="translate(1141.259766 0)"/>
      <use xlink:href="#DejaVuSans-63" transform="translate(1191.259766 0)"/>
      <use xlink:href="#DejaVuSans-6f" transform="translate(1246.240234 0)"/>
      <use xlink:href="#DejaVuSans-73" transform="translate(1307.421875 0)"/>
      <use xlink:href="#DejaVuSans-69" transform="translate(1359.521484 0)"/>
      <use xlink:href="#DejaVuSans-6e" transform="translate(1387.304688 0)"/>
      <use xlink:href="#DejaVuSans-65" transform="translate(1450.683594 0)"/>
     </g>
    </g>
    <g id="line2d_20">
     <path d="M 280.1293 145.046812 
L 290.1293 145.046812 
L 300.1293 145.046812 
" style="fill: none; stroke-dasharray: 5.55,2.4; stroke-dashoffset: 0; stroke: #d62728; stroke-width: 1.5"/>
    </g>
    <g id="text_19">
     <!-- supervised_baseline -->
     <g transform="translate(308.1293 148.546812) scale(0.1 -0.1)">
      <use xlink:href="#DejaVuSans-73"/>
      <use xlink:href="#DejaVuSans-75" transform="translate(52.099609 0)"/>
      <use xlink:href="#DejaVuSans-70" transform="translate(115.478516 0)"/>
      <use xlink:href="#DejaVuSans-65" transform="translate(178.955078 0)"/>
      <use xlink:href="#DejaVuSans-72" transform="translate(240.478516 0)"/>
      <use xlink:href="#DejaVuSans-76" transform="translate(281.591797 0)"/>
      <use xlink:href="#DejaVuSans-69" transform="translate(340.771484 0)"/>
      <use xlink:href="#DejaVuSans-73" transform="translate(368.554688 0)"/>
      <use xlink:href="#DejaVuSans-65" transform="translate(420.654297 0)"/>
      <use xlink:href="#DejaVuSans-64" transform="translate(482.177734 0)"/>
      <use xlink:href="#DejaVuSans-5f" transform="translate(545.654297 0)"/>
      <use xlink:href="#DejaVuSans-62" transform="translate(595.654297 0)"/>
      <use xlink:href="#DejaVuSans-61" transform="translate(659.130859 0)"/>
      <use xlink:href="#DejaVuSans-73" transform="translate(720.410156 0)"/>
      <use xlink:href="#DejaVuSans-65" transform="translate(772.509766 0)"/>
      <use xlink:href="#DejaVuSans-6c" transform="translate(834.033203 0)"/>
      <use xlink:href="#DejaVuSans-69" transform="translate(861.816406 0)"/>
      <use xlink:href="#DejaVuSans-6e" transform="translate(889.599609 0)"/>
      <use xlink:href="#DejaVuSans-65" transform="translate(952.978516 0)"/>
     </g>
    </g>
   </g>
  </g>
 </g>
 <defs>
  <clipPath id="p83b1403fcb">
   <rect x="239.491013" y="87.35775" width="241.017975" height="219.10725"/>
  </clipPath>
 </defs>
</svg>
