<?xml version="1.0" encoding="utf-8" standalone="no"?>
<!DOCTYPE svg PUBLIC "-//W3C//DTD SVG 1.1//EN"
  "http://www.w3.org/Graphics/SVG/1.1/DTD/svg11.dtd">
<svg xmlns:xlink="http://www.w3.org/1999/xlink" width="564.716644pt" height="509.369625pt" viewBox="0 0 564.716644 509.369625" xmlns="http://www.w3.org/2000/svg" version="1.1">
 <metadata>
  <rdf:RDF xmlns:dc="http://purl.org/dc/elements/1.1/" xmlns:cc="http://creativecommons.org/ns#" xmlns:rdf="http://www.w3.org/1999/02/22-rdf-syntax-ns#">
   <cc:Work>
    <dc:type rdf:resource="http://purl.org/dc/dcmitype/StillImage"/>
    <dc:date>2025-08-14T13:42:18.622370</dc:date>
    <dc:format>image/svg+xml</dc:format>
    <dc:creator>
     <cc:Agent>
      <dc:title>Matplotlib v3.10.3, https://matplotlib.org/</dc:title>
     </cc:Agent>
    </dc:creator>
   </cc:Work>
  </rdf:RDF>
 </metadata>
 <defs>
  <style type="text/css">*{stroke-linejoin: round; stroke-linecap: butt}</style>
 </defs>
 <g id="figure_1">
  <g id="patch_1">
   <path d="M 0 509.369625 
L 564.716644 509.369625 
L 564.716644 0 
L 0 0 
L 0 509.369625 
z
" style="fill: none"/>
  </g>
  <g id="axes_1">
   <g id="patch_2">
    <path d="M 427.107531 295.56 
C 427.107531 270.920457 422.254079 246.520503 412.824934 223.756534 
C 403.395789 200.992564 389.574325 180.307282 372.151537 162.884494 
C 354.728749 145.461706 334.043467 131.640242 311.279498 122.211097 
C 288.515528 112.781953 264.115574 107.9285 239.476031 107.9285 
C 214.836488 107.9285 190.436534 112.781953 167.672565 122.211097 
C 144.908596 131.640242 124.223313 145.461706 106.800525 162.884494 
C 89.377737 180.307282 75.556274 200.992564 66.127129 223.756534 
C 56.697984 246.520503 51.844531 270.920457 51.844531 295.56 
C 51.844531 320.199543 56.697984 344.599497 66.127129 367.363466 
C 75.556274 390.127436 89.377737 410.812718 106.800525 428.235506 
C 124.223313 445.658294 144.908596 459.479758 167.672565 468.908903 
C 190.436534 478.338047 214.836488 483.1915 239.476031 483.1915 
C 264.115574 483.1915 288.515528 478.338047 311.279498 468.908903 
C 334.043467 459.479758 354.728749 445.658294 372.151537 428.235506 
C 389.574325 410.812718 403.395789 390.127436 412.824934 367.363466 
C 422.254079 344.599497 427.107531 320.199543 427.107531 295.56 
M 239.476031 295.56 
C 239.476031 295.56 239.476031 295.56 239.476031 295.56 
C 239.476031 295.56 239.476031 295.56 239.476031 295.56 
C 239.476031 295.56 239.476031 295.56 239.476031 295.56 
C 239.476031 295.56 239.476031 295.56 239.476031 295.56 
C 239.476031 295.56 239.476031 295.56 239.476031 295.56 
C 239.476031 295.56 239.476031 295.56 239.476031 295.56 
C 239.476031 295.56 239.476031 295.56 239.476031 295.56 
C 239.476031 295.56 239.476031 295.56 239.476031 295.56 
C 239.476031 295.56 239.476031 295.56 239.476031 295.56 
C 239.476031 295.56 239.476031 295.56 239.476031 295.56 
C 239.476031 295.56 239.476031 295.56 239.476031 295.56 
C 239.476031 295.56 239.476031 295.56 239.476031 295.56 
C 239.476031 295.56 239.476031 295.56 239.476031 295.56 
C 239.476031 295.56 239.476031 295.56 239.476031 295.56 
C 239.476031 295.56 239.476031 295.56 239.476031 295.56 
C 239.476031 295.56 239.476031 295.56 239.476031 295.56 
L 239.476031 295.56 
z
" style="fill: none"/>
   </g>
   <g id="FillBetweenPolyCollection_1">
    <defs>
     <path id="mdd45e23289" d="M 333.291781 -213.809625 
L 333.291781 -213.809625 
L 239.476031 -337.713485 
L 145.729666 -213.809625 
L 239.476031 -170.136701 
L 333.291781 -213.809625 
L 333.291781 -213.809625 
L 333.291781 -213.809625 
L 239.476031 -74.708254 
L 145.216959 -213.809625 
L 239.476031 -392.91242 
L 333.291781 -213.809625 
z
" style="stroke: #1f77b4; stroke-opacity: 0.2"/>
    </defs>
    <g clip-path="url(#pc30ae5e7ec)">
     <use xlink:href="#mdd45e23289" x="0" y="509.369625" style="fill: #1f77b4; fill-opacity: 0.2; stroke: #1f77b4; stroke-opacity: 0.2"/>
    </g>
   </g>
   <g id="FillBetweenPolyCollection_2">
    <defs>
     <path id="mb995c7bbf3" d="M 418.578827 -213.809625 
L 337.75037 -213.809625 
L 239.476031 -312.083964 
L 145.722603 -213.809625 
L 239.476031 -205.28092 
L 337.75037 -213.809625 
L 418.578827 -213.809625 
L 418.578827 -213.809625 
L 239.476031 -205.206655 
L 144.065307 -213.809625 
L 239.476031 -392.91242 
L 418.578827 -213.809625 
z
" style="stroke: #ff7f0e; stroke-opacity: 0.2"/>
    </defs>
    <g clip-path="url(#pc30ae5e7ec)">
     <use xlink:href="#mb995c7bbf3" x="0" y="509.369625" style="fill: #ff7f0e; fill-opacity: 0.2; stroke: #ff7f0e; stroke-opacity: 0.2"/>
    </g>
   </g>
   <g id="matplotlib.axis_1">
    <g id="xtick_1">
     <g id="line2d_1">
      <path d="M 239.476031 295.56 
L 427.107531 295.56 
" clip-path="url(#pc30ae5e7ec)" style="fill: none; stroke: #b0b0b0; stroke-width: 0.8; stroke-linecap: square"/>
     </g>
     <g id="text_1">
      <!-- genre_match -->
      <g transform="translate(408.355969 298.180312) scale(0.1 -0.1)">
       <defs>
        <path id="DejaVuSans-67" d="M 2906 1791 
Q 2906 2416 2648 2759 
Q 2391 3103 1925 3103 
Q 1463 3103 1205 2759 
Q 947 2416 947 1791 
Q 947 1169 1205 825 
Q 1463 481 1925 481 
Q 2391 481 2648 825 
Q 2906 1169 2906 1791 
z
M 3481 434 
Q 3481 -459 3084 -895 
Q 2688 -1331 1869 -1331 
Q 1566 -1331 1297 -1286 
Q 1028 -1241 775 -1147 
L 775 -588 
Q 1028 -725 1275 -790 
Q 1522 -856 1778 -856 
Q 2344 -856 2625 -561 
Q 2906 -266 2906 331 
L 2906 616 
Q 2728 306 2450 153 
Q 2172 0 1784 0 
Q 1141 0 747 490 
Q 353 981 353 1791 
Q 353 2603 747 3093 
Q 1141 3584 1784 3584 
Q 2172 3584 2450 3431 
Q 2728 3278 2906 2969 
L 2906 3500 
L 3481 3500 
L 3481 434 
z
" transform="scale(0.015625)"/>
        <path id="DejaVuSans-65" d="M 3597 1894 
L 3597 1613 
L 953 1613 
Q 991 1019 1311 708 
Q 1631 397 2203 397 
Q 2534 397 2845 478 
Q 3156 559 3463 722 
L 3463 178 
Q 3153 47 2828 -22 
Q 2503 -91 2169 -91 
Q 1331 -91 842 396 
Q 353 884 353 1716 
Q 353 2575 817 3079 
Q 1281 3584 2069 3584 
Q 2775 3584 3186 3129 
Q 3597 2675 3597 1894 
z
M 3022 2063 
Q 3016 2534 2758 2815 
Q 2500 3097 2075 3097 
Q 1594 3097 1305 2825 
Q 1016 2553 972 2059 
L 3022 2063 
z
" transform="scale(0.015625)"/>
        <path id="DejaVuSans-6e" d="M 3513 2113 
L 3513 0 
L 2938 0 
L 2938 2094 
Q 2938 2591 2744 2837 
Q 2550 3084 2163 3084 
Q 1697 3084 1428 2787 
Q 1159 2491 1159 1978 
L 1159 0 
L 581 0 
L 581 3500 
L 1159 3500 
L 1159 2956 
Q 1366 3272 1645 3428 
Q 1925 3584 2291 3584 
Q 2894 3584 3203 3211 
Q 3513 2838 3513 2113 
z
" transform="scale(0.015625)"/>
        <path id="DejaVuSans-72" d="M 2631 2963 
Q 2534 3019 2420 3045 
Q 2306 3072 2169 3072 
Q 1681 3072 1420 2755 
Q 1159 2438 1159 1844 
L 1159 0 
L 581 0 
L 581 3500 
L 1159 3500 
L 1159 2956 
Q 1341 3275 1631 3429 
Q 1922 3584 2338 3584 
Q 2397 3584 2469 3576 
Q 2541 3569 2628 3553 
L 2631 2963 
z
" transform="scale(0.015625)"/>
        <path id="DejaVuSans-5f" d="M 3263 -1063 
L 3263 -1509 
L -63 -1509 
L -63 -1063 
L 3263 -1063 
z
" transform="scale(0.015625)"/>
        <path id="DejaVuSans-6d" d="M 3328 2828 
Q 3544 3216 3844 3400 
Q 4144 3584 4550 3584 
Q 5097 3584 5394 3201 
Q 5691 2819 5691 2113 
L 5691 0 
L 5113 0 
L 5113 2094 
Q 5113 2597 4934 2840 
Q 4756 3084 4391 3084 
Q 3944 3084 3684 2787 
Q 3425 2491 3425 1978 
L 3425 0 
L 2847 0 
L 2847 2094 
Q 2847 2600 2669 2842 
Q 2491 3084 2119 3084 
Q 1678 3084 1418 2786 
Q 1159 2488 1159 1978 
L 1159 0 
L 581 0 
L 581 3500 
L 1159 3500 
L 1159 2956 
Q 1356 3278 1631 3431 
Q 1906 3584 2284 3584 
Q 2666 3584 2933 3390 
Q 3200 3197 3328 2828 
z
" transform="scale(0.015625)"/>
        <path id="DejaVuSans-61" d="M 2194 1759 
Q 1497 1759 1228 1600 
Q 959 1441 959 1056 
Q 959 750 1161 570 
Q 1363 391 1709 391 
Q 2188 391 2477 730 
Q 2766 1069 2766 1631 
L 2766 1759 
L 2194 1759 
z
M 3341 1997 
L 3341 0 
L 2766 0 
L 2766 531 
Q 2569 213 2275 61 
Q 1981 -91 1556 -91 
Q 1019 -91 701 211 
Q 384 513 384 1019 
Q 384 1609 779 1909 
Q 1175 2209 1959 2209 
L 2766 2209 
L 2766 2266 
Q 2766 2663 2505 2880 
Q 2244 3097 1772 3097 
Q 1472 3097 1187 3025 
Q 903 2953 641 2809 
L 641 3341 
Q 956 3463 1253 3523 
Q 1550 3584 1831 3584 
Q 2591 3584 2966 3190 
Q 3341 2797 3341 1997 
z
" transform="scale(0.015625)"/>
        <path id="DejaVuSans-74" d="M 1172 4494 
L 1172 3500 
L 2356 3500 
L 2356 3053 
L 1172 3053 
L 1172 1153 
Q 1172 725 1289 603 
Q 1406 481 1766 481 
L 2356 481 
L 2356 0 
L 1766 0 
Q 1100 0 847 248 
Q 594 497 594 1153 
L 594 3053 
L 172 3053 
L 172 3500 
L 594 3500 
L 594 4494 
L 1172 4494 
z
" transform="scale(0.015625)"/>
        <path id="DejaVuSans-63" d="M 3122 3366 
L 3122 2828 
Q 2878 2963 2633 3030 
Q 2388 3097 2138 3097 
Q 1578 3097 1268 2742 
Q 959 2388 959 1747 
Q 959 1106 1268 751 
Q 1578 397 2138 397 
Q 2388 397 2633 464 
Q 2878 531 3122 666 
L 3122 134 
Q 2881 22 2623 -34 
Q 2366 -91 2075 -91 
Q 1284 -91 818 406 
Q 353 903 353 1747 
Q 353 2603 823 3093 
Q 1294 3584 2113 3584 
Q 2378 3584 2631 3529 
Q 2884 3475 3122 3366 
z
" transform="scale(0.015625)"/>
        <path id="DejaVuSans-68" d="M 3513 2113 
L 3513 0 
L 2938 0 
L 2938 2094 
Q 2938 2591 2744 2837 
Q 2550 3084 2163 3084 
Q 1697 3084 1428 2787 
Q 1159 2491 1159 1978 
L 1159 0 
L 581 0 
L 581 4863 
L 1159 4863 
L 1159 2956 
Q 1366 3272 1645 3428 
Q 1925 3584 2291 3584 
Q 2894 3584 3203 3211 
Q 3513 2838 3513 2113 
z
" transform="scale(0.015625)"/>
       </defs>
       <use xlink:href="#DejaVuSans-67"/>
       <use xlink:href="#DejaVuSans-65" transform="translate(63.476562 0)"/>
       <use xlink:href="#DejaVuSans-6e" transform="translate(125 0)"/>
       <use xlink:href="#DejaVuSans-72" transform="translate(188.378906 0)"/>
       <use xlink:href="#DejaVuSans-65" transform="translate(227.242188 0)"/>
       <use xlink:href="#DejaVuSans-5f" transform="translate(288.765625 0)"/>
       <use xlink:href="#DejaVuSans-6d" transform="translate(338.765625 0)"/>
       <use xlink:href="#DejaVuSans-61" transform="translate(436.177734 0)"/>
       <use xlink:href="#DejaVuSans-74" transform="translate(497.457031 0)"/>
       <use xlink:href="#DejaVuSans-63" transform="translate(536.666016 0)"/>
       <use xlink:href="#DejaVuSans-68" transform="translate(591.646484 0)"/>
      </g>
     </g>
    </g>
    <g id="xtick_2">
     <g id="line2d_2">
      <path d="M 239.476031 295.56 
L 239.476031 107.9285 
" clip-path="url(#pc30ae5e7ec)" style="fill: none; stroke: #b0b0b0; stroke-width: 0.8; stroke-linecap: square"/>
     </g>
     <g id="text_2">
      <!-- time_match -->
      <g transform="translate(209.867438 96.548812) scale(0.1 -0.1)">
       <defs>
        <path id="DejaVuSans-69" d="M 603 3500 
L 1178 3500 
L 1178 0 
L 603 0 
L 603 3500 
z
M 603 4863 
L 1178 4863 
L 1178 4134 
L 603 4134 
L 603 4863 
z
" transform="scale(0.015625)"/>
       </defs>
       <use xlink:href="#DejaVuSans-74"/>
       <use xlink:href="#DejaVuSans-69" transform="translate(39.208984 0)"/>
       <use xlink:href="#DejaVuSans-6d" transform="translate(66.992188 0)"/>
       <use xlink:href="#DejaVuSans-65" transform="translate(164.404297 0)"/>
       <use xlink:href="#DejaVuSans-5f" transform="translate(225.927734 0)"/>
       <use xlink:href="#DejaVuSans-6d" transform="translate(275.927734 0)"/>
       <use xlink:href="#DejaVuSans-61" transform="translate(373.339844 0)"/>
       <use xlink:href="#DejaVuSans-74" transform="translate(434.619141 0)"/>
       <use xlink:href="#DejaVuSans-63" transform="translate(473.828125 0)"/>
       <use xlink:href="#DejaVuSans-68" transform="translate(528.808594 0)"/>
      </g>
     </g>
    </g>
    <g id="xtick_3">
     <g id="line2d_3">
      <path d="M 239.476031 295.56 
L 51.844531 295.56 
" clip-path="url(#pc30ae5e7ec)" style="fill: none; stroke: #b0b0b0; stroke-width: 0.8; stroke-linecap: square"/>
     </g>
     <g id="text_3">
      <!-- topic_match -->
      <g transform="translate(7.2 298.180312) scale(0.1 -0.1)">
       <defs>
        <path id="DejaVuSans-6f" d="M 1959 3097 
Q 1497 3097 1228 2736 
Q 959 2375 959 1747 
Q 959 1119 1226 758 
Q 1494 397 1959 397 
Q 2419 397 2687 759 
Q 2956 1122 2956 1747 
Q 2956 2369 2687 2733 
Q 2419 3097 1959 3097 
z
M 1959 3584 
Q 2709 3584 3137 3096 
Q 3566 2609 3566 1747 
Q 3566 888 3137 398 
Q 2709 -91 1959 -91 
Q 1206 -91 779 398 
Q 353 888 353 1747 
Q 353 2609 779 3096 
Q 1206 3584 1959 3584 
z
" transform="scale(0.015625)"/>
        <path id="DejaVuSans-70" d="M 1159 525 
L 1159 -1331 
L 581 -1331 
L 581 3500 
L 1159 3500 
L 1159 2969 
Q 1341 3281 1617 3432 
Q 1894 3584 2278 3584 
Q 2916 3584 3314 3078 
Q 3713 2572 3713 1747 
Q 3713 922 3314 415 
Q 2916 -91 2278 -91 
Q 1894 -91 1617 61 
Q 1341 213 1159 525 
z
M 3116 1747 
Q 3116 2381 2855 2742 
Q 2594 3103 2138 3103 
Q 1681 3103 1420 2742 
Q 1159 2381 1159 1747 
Q 1159 1113 1420 752 
Q 1681 391 2138 391 
Q 2594 391 2855 752 
Q 3116 1113 3116 1747 
z
" transform="scale(0.015625)"/>
       </defs>
       <use xlink:href="#DejaVuSans-74"/>
       <use xlink:href="#DejaVuSans-6f" transform="translate(39.208984 0)"/>
       <use xlink:href="#DejaVuSans-70" transform="translate(100.390625 0)"/>
       <use xlink:href="#DejaVuSans-69" transform="translate(163.867188 0)"/>
       <use xlink:href="#DejaVuSans-63" transform="translate(191.650391 0)"/>
       <use xlink:href="#DejaVuSans-5f" transform="translate(246.630859 0)"/>
       <use xlink:href="#DejaVuSans-6d" transform="translate(296.630859 0)"/>
       <use xlink:href="#DejaVuSans-61" transform="translate(394.042969 0)"/>
       <use xlink:href="#DejaVuSans-74" transform="translate(455.322266 0)"/>
       <use xlink:href="#DejaVuSans-63" transform="translate(494.53125 0)"/>
       <use xlink:href="#DejaVuSans-68" transform="translate(549.511719 0)"/>
      </g>
     </g>
    </g>
    <g id="xtick_4">
     <g id="line2d_4">
      <path d="M 239.476031 295.56 
L 239.476031 483.1915 
" clip-path="url(#pc30ae5e7ec)" style="fill: none; stroke: #b0b0b0; stroke-width: 0.8; stroke-linecap: square"/>
     </g>
     <g id="text_4">
      <!-- length_diff -->
      <g transform="translate(212.954937 499.811812) scale(0.1 -0.1)">
       <defs>
        <path id="DejaVuSans-6c" d="M 603 4863 
L 1178 4863 
L 1178 0 
L 603 0 
L 603 4863 
z
" transform="scale(0.015625)"/>
        <path id="DejaVuSans-64" d="M 2906 2969 
L 2906 4863 
L 3481 4863 
L 3481 0 
L 2906 0 
L 2906 525 
Q 2725 213 2448 61 
Q 2172 -91 1784 -91 
Q 1150 -91 751 415 
Q 353 922 353 1747 
Q 353 2572 751 3078 
Q 1150 3584 1784 3584 
Q 2172 3584 2448 3432 
Q 2725 3281 2906 2969 
z
M 947 1747 
Q 947 1113 1208 752 
Q 1469 391 1925 391 
Q 2381 391 2643 752 
Q 2906 1113 2906 1747 
Q 2906 2381 2643 2742 
Q 2381 3103 1925 3103 
Q 1469 3103 1208 2742 
Q 947 2381 947 1747 
z
" transform="scale(0.015625)"/>
        <path id="DejaVuSans-66" d="M 2375 4863 
L 2375 4384 
L 1825 4384 
Q 1516 4384 1395 4259 
Q 1275 4134 1275 3809 
L 1275 3500 
L 2222 3500 
L 2222 3053 
L 1275 3053 
L 1275 0 
L 697 0 
L 697 3053 
L 147 3053 
L 147 3500 
L 697 3500 
L 697 3744 
Q 697 4328 969 4595 
Q 1241 4863 1831 4863 
L 2375 4863 
z
" transform="scale(0.015625)"/>
       </defs>
       <use xlink:href="#DejaVuSans-6c"/>
       <use xlink:href="#DejaVuSans-65" transform="translate(27.783203 0)"/>
       <use xlink:href="#DejaVuSans-6e" transform="translate(89.306641 0)"/>
       <use xlink:href="#DejaVuSans-67" transform="translate(152.685547 0)"/>
       <use xlink:href="#DejaVuSans-74" transform="translate(216.162109 0)"/>
       <use xlink:href="#DejaVuSans-68" transform="translate(255.371094 0)"/>
       <use xlink:href="#DejaVuSans-5f" transform="translate(318.75 0)"/>
       <use xlink:href="#DejaVuSans-64" transform="translate(368.75 0)"/>
       <use xlink:href="#DejaVuSans-69" transform="translate(432.226562 0)"/>
       <use xlink:href="#DejaVuSans-66" transform="translate(460.009766 0)"/>
       <use xlink:href="#DejaVuSans-66" transform="translate(495.214844 0)"/>
      </g>
     </g>
    </g>
   </g>
   <g id="matplotlib.axis_2">
    <g id="ytick_1">
     <g id="line2d_5">
      <path d="M 248.004736 295.56 
C 248.004736 294.440021 247.784124 293.330932 247.355527 292.296206 
C 246.926929 291.26148 246.298681 290.32124 245.506736 289.529295 
C 244.714791 288.73735 243.774551 288.109102 242.739825 287.680504 
C 241.705099 287.251907 240.59601 287.031295 239.476031 287.031295 
C 238.356052 287.031295 237.246963 287.251907 236.212237 287.680504 
C 235.177511 288.109102 234.237271 288.73735 233.445326 289.529295 
C 232.653382 290.32124 232.025133 291.26148 231.596536 292.296206 
C 231.167938 293.330932 230.947327 294.440021 230.947327 295.56 
C 230.947327 296.679979 231.167938 297.789068 231.596536 298.823794 
C 232.025133 299.85852 232.653382 300.79876 233.445326 301.590705 
C 234.237271 302.38265 235.177511 303.010898 236.212237 303.439496 
C 237.246963 303.868093 238.356052 304.088705 239.476031 304.088705 
C 240.59601 304.088705 241.705099 303.868093 242.739825 303.439496 
C 243.774551 303.010898 244.714791 302.38265 245.506736 301.590705 
C 246.298681 300.79876 246.926929 299.85852 247.355527 298.823794 
C 247.784124 297.789068 248.004736 296.679979 248.004736 295.56 
" clip-path="url(#pc30ae5e7ec)" style="fill: none; stroke: #b0b0b0; stroke-width: 0.8; stroke-linecap: square"/>
     </g>
     <g id="text_5">
      <!-- −1.00 -->
      <g transform="translate(247.355527 290.216519) scale(0.1 -0.1)">
       <defs>
        <path id="DejaVuSans-2212" d="M 678 2272 
L 4684 2272 
L 4684 1741 
L 678 1741 
L 678 2272 
z
" transform="scale(0.015625)"/>
        <path id="DejaVuSans-31" d="M 794 531 
L 1825 531 
L 1825 4091 
L 703 3866 
L 703 4441 
L 1819 4666 
L 2450 4666 
L 2450 531 
L 3481 531 
L 3481 0 
L 794 0 
L 794 531 
z
" transform="scale(0.015625)"/>
        <path id="DejaVuSans-2e" d="M 684 794 
L 1344 794 
L 1344 0 
L 684 0 
L 684 794 
z
" transform="scale(0.015625)"/>
        <path id="DejaVuSans-30" d="M 2034 4250 
Q 1547 4250 1301 3770 
Q 1056 3291 1056 2328 
Q 1056 1369 1301 889 
Q 1547 409 2034 409 
Q 2525 409 2770 889 
Q 3016 1369 3016 2328 
Q 3016 3291 2770 3770 
Q 2525 4250 2034 4250 
z
M 2034 4750 
Q 2819 4750 3233 4129 
Q 3647 3509 3647 2328 
Q 3647 1150 3233 529 
Q 2819 -91 2034 -91 
Q 1250 -91 836 529 
Q 422 1150 422 2328 
Q 422 3509 836 4129 
Q 1250 4750 2034 4750 
z
" transform="scale(0.015625)"/>
       </defs>
       <use xlink:href="#DejaVuSans-2212"/>
       <use xlink:href="#DejaVuSans-31" transform="translate(83.789062 0)"/>
       <use xlink:href="#DejaVuSans-2e" transform="translate(147.412109 0)"/>
       <use xlink:href="#DejaVuSans-30" transform="translate(179.199219 0)"/>
       <use xlink:href="#DejaVuSans-30" transform="translate(242.822266 0)"/>
      </g>
     </g>
    </g>
    <g id="ytick_2">
     <g id="line2d_6">
      <path d="M 269.326497 295.56 
C 269.326497 291.640073 268.554357 287.758262 267.054266 284.136721 
C 265.554175 280.515181 263.355305 277.22434 260.583498 274.452533 
C 257.811691 271.680726 254.520851 269.481857 250.89931 267.981766 
C 247.277769 266.481674 243.395959 265.709534 239.476031 265.709534 
C 235.556104 265.709534 231.674293 266.481674 228.052752 267.981766 
C 224.431212 269.481857 221.140372 271.680726 218.368564 274.452533 
C 215.596757 277.22434 213.397888 280.515181 211.897797 284.136721 
C 210.397706 287.758262 209.625565 291.640073 209.625565 295.56 
C 209.625565 299.479927 210.397706 303.361738 211.897797 306.983279 
C 213.397888 310.604819 215.596757 313.89566 218.368564 316.667467 
C 221.140372 319.439274 224.431212 321.638143 228.052752 323.138234 
C 231.674293 324.638326 235.556104 325.410466 239.476031 325.410466 
C 243.395959 325.410466 247.277769 324.638326 250.89931 323.138234 
C 254.520851 321.638143 257.811691 319.439274 260.583498 316.667467 
C 263.355305 313.89566 265.554175 310.604819 267.054266 306.983279 
C 268.554357 303.361738 269.326497 299.479927 269.326497 295.56 
" clip-path="url(#pc30ae5e7ec)" style="fill: none; stroke: #b0b0b0; stroke-width: 0.8; stroke-linecap: square"/>
     </g>
     <g id="text_6">
      <!-- −0.75 -->
      <g transform="translate(267.054266 282.057034) scale(0.1 -0.1)">
       <defs>
        <path id="DejaVuSans-37" d="M 525 4666 
L 3525 4666 
L 3525 4397 
L 1831 0 
L 1172 0 
L 2766 4134 
L 525 4134 
L 525 4666 
z
" transform="scale(0.015625)"/>
        <path id="DejaVuSans-35" d="M 691 4666 
L 3169 4666 
L 3169 4134 
L 1269 4134 
L 1269 2991 
Q 1406 3038 1543 3061 
Q 1681 3084 1819 3084 
Q 2600 3084 3056 2656 
Q 3513 2228 3513 1497 
Q 3513 744 3044 326 
Q 2575 -91 1722 -91 
Q 1428 -91 1123 -41 
Q 819 9 494 109 
L 494 744 
Q 775 591 1075 516 
Q 1375 441 1709 441 
Q 2250 441 2565 725 
Q 2881 1009 2881 1497 
Q 2881 1984 2565 2268 
Q 2250 2553 1709 2553 
Q 1456 2553 1204 2497 
Q 953 2441 691 2322 
L 691 4666 
z
" transform="scale(0.015625)"/>
       </defs>
       <use xlink:href="#DejaVuSans-2212"/>
       <use xlink:href="#DejaVuSans-30" transform="translate(83.789062 0)"/>
       <use xlink:href="#DejaVuSans-2e" transform="translate(147.412109 0)"/>
       <use xlink:href="#DejaVuSans-37" transform="translate(179.199219 0)"/>
       <use xlink:href="#DejaVuSans-35" transform="translate(242.822266 0)"/>
      </g>
     </g>
    </g>
    <g id="ytick_3">
     <g id="line2d_7">
      <path d="M 290.648259 295.56 
C 290.648259 288.840125 289.32459 282.185592 286.753005 275.977236 
C 284.18142 269.768881 280.41193 264.12744 275.66026 259.375771 
C 270.908591 254.624102 265.26715 250.854612 259.058795 248.283027 
C 252.85044 245.711442 246.195907 244.387773 239.476031 244.387773 
C 232.756156 244.387773 226.101623 245.711442 219.893268 248.283027 
C 213.684912 250.854612 208.043472 254.624102 203.291802 259.375771 
C 198.540133 264.12744 194.770643 269.768881 192.199058 275.977236 
C 189.627473 282.185592 188.303804 288.840125 188.303804 295.56 
C 188.303804 302.279875 189.627473 308.934408 192.199058 315.142764 
C 194.770643 321.351119 198.540133 326.99256 203.291802 331.744229 
C 208.043472 336.495898 213.684912 340.265388 219.893268 342.836973 
C 226.101623 345.408558 232.756156 346.732227 239.476031 346.732227 
C 246.195907 346.732227 252.85044 345.408558 259.058795 342.836973 
C 265.26715 340.265388 270.908591 336.495898 275.66026 331.744229 
C 280.41193 326.99256 284.18142 321.351119 286.753005 315.142764 
C 289.32459 308.934408 290.648259 302.279875 290.648259 295.56 
" clip-path="url(#pc30ae5e7ec)" style="fill: none; stroke: #b0b0b0; stroke-width: 0.8; stroke-linecap: square"/>
     </g>
     <g id="text_7">
      <!-- −0.50 -->
      <g transform="translate(286.753005 273.897549) scale(0.1 -0.1)">
       <use xlink:href="#DejaVuSans-2212"/>
       <use xlink:href="#DejaVuSans-30" transform="translate(83.789062 0)"/>
       <use xlink:href="#DejaVuSans-2e" transform="translate(147.412109 0)"/>
       <use xlink:href="#DejaVuSans-35" transform="translate(179.199219 0)"/>
       <use xlink:href="#DejaVuSans-30" transform="translate(242.822266 0)"/>
      </g>
     </g>
    </g>
    <g id="ytick_4">
     <g id="line2d_8">
      <path d="M 311.97002 295.56 
C 311.97002 286.040177 310.094822 276.612922 306.451744 267.817752 
C 302.808665 259.022582 297.468554 251.030541 290.737022 244.299009 
C 284.005491 237.567477 276.01345 232.227366 267.21828 228.584288 
C 258.42311 224.941209 248.995855 223.066011 239.476031 223.066011 
C 229.956208 223.066011 220.528953 224.941209 211.733783 228.584288 
C 202.938613 232.227366 194.946572 237.567477 188.21504 244.299009 
C 181.483509 251.030541 176.143398 259.022582 172.500319 267.817752 
C 168.85724 276.612922 166.982043 286.040177 166.982043 295.56 
C 166.982043 305.079823 168.85724 314.507078 172.500319 323.302248 
C 176.143398 332.097418 181.483509 340.089459 188.21504 346.820991 
C 194.946572 353.552523 202.938613 358.892634 211.733783 362.535712 
C 220.528953 366.178791 229.956208 368.053989 239.476031 368.053989 
C 248.995855 368.053989 258.42311 366.178791 267.21828 362.535712 
C 276.01345 358.892634 284.005491 353.552523 290.737022 346.820991 
C 297.468554 340.089459 302.808665 332.097418 306.451744 323.302248 
C 310.094822 314.507078 311.97002 305.079823 311.97002 295.56 
" clip-path="url(#pc30ae5e7ec)" style="fill: none; stroke: #b0b0b0; stroke-width: 0.8; stroke-linecap: square"/>
     </g>
     <g id="text_8">
      <!-- −0.25 -->
      <g transform="translate(306.451744 265.738064) scale(0.1 -0.1)">
       <defs>
        <path id="DejaVuSans-32" d="M 1228 531 
L 3431 531 
L 3431 0 
L 469 0 
L 469 531 
Q 828 903 1448 1529 
Q 2069 2156 2228 2338 
Q 2531 2678 2651 2914 
Q 2772 3150 2772 3378 
Q 2772 3750 2511 3984 
Q 2250 4219 1831 4219 
Q 1534 4219 1204 4116 
Q 875 4013 500 3803 
L 500 4441 
Q 881 4594 1212 4672 
Q 1544 4750 1819 4750 
Q 2544 4750 2975 4387 
Q 3406 4025 3406 3419 
Q 3406 3131 3298 2873 
Q 3191 2616 2906 2266 
Q 2828 2175 2409 1742 
Q 1991 1309 1228 531 
z
" transform="scale(0.015625)"/>
       </defs>
       <use xlink:href="#DejaVuSans-2212"/>
       <use xlink:href="#DejaVuSans-30" transform="translate(83.789062 0)"/>
       <use xlink:href="#DejaVuSans-2e" transform="translate(147.412109 0)"/>
       <use xlink:href="#DejaVuSans-32" transform="translate(179.199219 0)"/>
       <use xlink:href="#DejaVuSans-35" transform="translate(242.822266 0)"/>
      </g>
     </g>
    </g>
    <g id="ytick_5">
     <g id="line2d_9">
      <path d="M 333.291781 295.56 
C 333.291781 283.240229 330.865055 271.040251 326.150483 259.658267 
C 321.43591 248.276282 314.525178 237.933641 305.813784 229.222247 
C 297.10239 220.510853 286.759749 213.600121 275.377764 208.885549 
C 263.99578 204.170976 251.795803 201.74425 239.476031 201.74425 
C 227.15626 201.74425 214.956283 204.170976 203.574298 208.885549 
C 192.192313 213.600121 181.849672 220.510853 173.138278 229.222247 
C 164.426884 237.933641 157.516152 248.276282 152.80158 259.658267 
C 148.087008 271.040251 145.660281 283.240229 145.660281 295.56 
C 145.660281 307.879771 148.087008 320.079749 152.80158 331.461733 
C 157.516152 342.843718 164.426884 353.186359 173.138278 361.897753 
C 181.849672 370.609147 192.192313 377.519879 203.574298 382.234451 
C 214.956283 386.949024 227.15626 389.37575 239.476031 389.37575 
C 251.795803 389.37575 263.99578 386.949024 275.377764 382.234451 
C 286.759749 377.519879 297.10239 370.609147 305.813784 361.897753 
C 314.525178 353.186359 321.43591 342.843718 326.150483 331.461733 
C 330.865055 320.079749 333.291781 307.879771 333.291781 295.56 
" clip-path="url(#pc30ae5e7ec)" style="fill: none; stroke: #b0b0b0; stroke-width: 0.8; stroke-linecap: square"/>
     </g>
     <g id="text_9">
      <!-- 0.00 -->
      <g transform="translate(326.150483 257.578579) scale(0.1 -0.1)">
       <use xlink:href="#DejaVuSans-30"/>
       <use xlink:href="#DejaVuSans-2e" transform="translate(63.623047 0)"/>
       <use xlink:href="#DejaVuSans-30" transform="translate(95.410156 0)"/>
       <use xlink:href="#DejaVuSans-30" transform="translate(159.033203 0)"/>
      </g>
     </g>
    </g>
    <g id="ytick_6">
     <g id="line2d_10">
      <path d="M 354.613543 295.56 
C 354.613543 280.440281 351.635288 265.467581 345.849221 251.498782 
C 340.063155 237.529983 331.581802 224.836741 320.890546 214.145485 
C 310.19929 203.454229 297.506049 194.972876 283.537249 189.18681 
C 269.56845 183.400744 254.595751 180.422489 239.476031 180.422489 
C 224.356312 180.422489 209.383613 183.400744 195.414813 189.18681 
C 181.446014 194.972876 168.752772 203.454229 158.061516 214.145485 
C 147.37026 224.836741 138.888907 237.529983 133.102841 251.498782 
C 127.316775 265.467581 124.33852 280.440281 124.33852 295.56 
C 124.33852 310.679719 127.316775 325.652419 133.102841 339.621218 
C 138.888907 353.590017 147.37026 366.283259 158.061516 376.974515 
C 168.752772 387.665771 181.446014 396.147124 195.414813 401.93319 
C 209.383613 407.719256 224.356312 410.697511 239.476031 410.697511 
C 254.595751 410.697511 269.56845 407.719256 283.537249 401.93319 
C 297.506049 396.147124 310.19929 387.665771 320.890546 376.974515 
C 331.581802 366.283259 340.063155 353.590017 345.849221 339.621218 
C 351.635288 325.652419 354.613543 310.679719 354.613543 295.56 
" clip-path="url(#pc30ae5e7ec)" style="fill: none; stroke: #b0b0b0; stroke-width: 0.8; stroke-linecap: square"/>
     </g>
     <g id="text_10">
      <!-- 0.25 -->
      <g transform="translate(345.849221 249.419094) scale(0.1 -0.1)">
       <use xlink:href="#DejaVuSans-30"/>
       <use xlink:href="#DejaVuSans-2e" transform="translate(63.623047 0)"/>
       <use xlink:href="#DejaVuSans-32" transform="translate(95.410156 0)"/>
       <use xlink:href="#DejaVuSans-35" transform="translate(159.033203 0)"/>
      </g>
     </g>
    </g>
    <g id="ytick_7">
     <g id="line2d_11">
      <path d="M 375.935304 295.56 
C 375.935304 277.640332 372.40552 259.894911 365.54796 243.339297 
C 358.6904 226.783683 348.638427 211.739841 335.967308 199.068723 
C 323.29619 186.397604 308.252348 176.345631 291.696734 169.488071 
C 275.14112 162.630511 257.395699 159.100727 239.476031 159.100727 
C 221.556364 159.100727 203.810942 162.630511 187.255328 169.488071 
C 170.699714 176.345631 155.655873 186.397604 142.984754 199.068723 
C 130.313636 211.739841 120.261662 226.783683 113.404102 243.339297 
C 106.546542 259.894911 103.016759 277.640332 103.016759 295.56 
C 103.016759 313.479668 106.546542 331.225089 113.404102 347.780703 
C 120.261662 364.336317 130.313636 379.380159 142.984754 392.051277 
C 155.655873 404.722396 170.699714 414.774369 187.255328 421.631929 
C 203.810942 428.489489 221.556364 432.019273 239.476031 432.019273 
C 257.395699 432.019273 275.14112 428.489489 291.696734 421.631929 
C 308.252348 414.774369 323.29619 404.722396 335.967308 392.051277 
C 348.638427 379.380159 358.6904 364.336317 365.54796 347.780703 
C 372.40552 331.225089 375.935304 313.479668 375.935304 295.56 
" clip-path="url(#pc30ae5e7ec)" style="fill: none; stroke: #b0b0b0; stroke-width: 0.8; stroke-linecap: square"/>
     </g>
     <g id="text_11">
      <!-- 0.50 -->
      <g transform="translate(365.54796 241.25961) scale(0.1 -0.1)">
       <use xlink:href="#DejaVuSans-30"/>
       <use xlink:href="#DejaVuSans-2e" transform="translate(63.623047 0)"/>
       <use xlink:href="#DejaVuSans-35" transform="translate(95.410156 0)"/>
       <use xlink:href="#DejaVuSans-30" transform="translate(159.033203 0)"/>
      </g>
     </g>
    </g>
    <g id="ytick_8">
     <g id="line2d_12">
      <path d="M 397.257065 295.56 
C 397.257065 274.840384 393.175753 254.322241 385.246699 235.179812 
C 377.317646 216.037384 365.695051 198.642942 351.04407 183.991961 
C 336.39309 169.34098 318.998648 157.718386 299.856219 149.789332 
C 280.71379 141.860278 260.195647 137.778966 239.476031 137.778966 
C 218.756416 137.778966 198.238272 141.860278 179.095844 149.789332 
C 159.953415 157.718386 142.558973 169.34098 127.907992 183.991961 
C 113.257011 198.642942 101.634417 216.037384 93.705363 235.179812 
C 85.77631 254.322241 81.694997 274.840384 81.694997 295.56 
C 81.694997 316.279616 85.77631 336.797759 93.705363 355.940188 
C 101.634417 375.082616 113.257011 392.477058 127.907992 407.128039 
C 142.558973 421.77902 159.953415 433.401614 179.095844 441.330668 
C 198.238272 449.259722 218.756416 453.341034 239.476031 453.341034 
C 260.195647 453.341034 280.71379 449.259722 299.856219 441.330668 
C 318.998648 433.401614 336.39309 421.77902 351.04407 407.128039 
C 365.695051 392.477058 377.317646 375.082616 385.246699 355.940188 
C 393.175753 336.797759 397.257065 316.279616 397.257065 295.56 
" clip-path="url(#pc30ae5e7ec)" style="fill: none; stroke: #b0b0b0; stroke-width: 0.8; stroke-linecap: square"/>
     </g>
     <g id="text_12">
      <!-- 0.75 -->
      <g transform="translate(385.246699 233.100125) scale(0.1 -0.1)">
       <use xlink:href="#DejaVuSans-30"/>
       <use xlink:href="#DejaVuSans-2e" transform="translate(63.623047 0)"/>
       <use xlink:href="#DejaVuSans-37" transform="translate(95.410156 0)"/>
       <use xlink:href="#DejaVuSans-35" transform="translate(159.033203 0)"/>
      </g>
     </g>
    </g>
    <g id="ytick_9">
     <g id="line2d_13">
      <path d="M 418.578827 295.56 
C 418.578827 272.040436 413.945986 248.749571 404.945438 227.020327 
C 395.944891 205.291084 382.751675 185.546042 366.120832 168.915199 
C 349.48999 152.284356 329.744947 139.09114 308.015704 130.090593 
C 286.28646 121.090046 262.995595 116.457205 239.476031 116.457205 
C 215.956468 116.457205 192.665602 121.090046 170.936359 130.090593 
C 149.207115 139.09114 129.462073 152.284356 112.83123 168.915199 
C 96.200387 185.546042 83.007172 205.291084 74.006624 227.020327 
C 65.006077 248.749571 60.373236 272.040436 60.373236 295.56 
C 60.373236 319.079564 65.006077 342.370429 74.006624 364.099673 
C 83.007172 385.828916 96.200387 405.573958 112.83123 422.204801 
C 129.462073 438.835644 149.207115 452.02886 170.936359 461.029407 
C 192.665602 470.029954 215.956468 474.662795 239.476031 474.662795 
C 262.995595 474.662795 286.28646 470.029954 308.015704 461.029407 
C 329.744947 452.02886 349.48999 438.835644 366.120832 422.204801 
C 382.751675 405.573958 395.944891 385.828916 404.945438 364.099673 
C 413.945986 342.370429 418.578827 319.079564 418.578827 295.56 
" clip-path="url(#pc30ae5e7ec)" style="fill: none; stroke: #b0b0b0; stroke-width: 0.8; stroke-linecap: square"/>
     </g>
     <g id="text_13">
      <!-- 1.00 -->
      <g transform="translate(404.945438 224.94064) scale(0.1 -0.1)">
       <use xlink:href="#DejaVuSans-31"/>
       <use xlink:href="#DejaVuSans-2e" transform="translate(63.623047 0)"/>
       <use xlink:href="#DejaVuSans-30" transform="translate(95.410156 0)"/>
       <use xlink:href="#DejaVuSans-30" transform="translate(159.033203 0)"/>
      </g>
     </g>
    </g>
   </g>
   <g id="line2d_14">
    <path d="M 333.291781 295.56 
L 239.476031 133.514614 
L 145.473312 295.56 
L 239.476031 386.947147 
L 333.291781 295.56 
" clip-path="url(#pc30ae5e7ec)" style="fill: none; stroke: #1f77b4; stroke-opacity: 0.7; stroke-width: 2; stroke-linecap: square"/>
   </g>
   <g id="line2d_15">
    <path d="M 384.464009 295.56 
L 239.476031 150.572023 
L 144.893955 295.56 
L 239.476031 304.11821 
L 384.464009 295.56 
" clip-path="url(#pc30ae5e7ec)" style="fill: none; stroke-dasharray: 7.4,3.2; stroke-dashoffset: 0; stroke: #ff7f0e; stroke-opacity: 0.7; stroke-width: 2"/>
   </g>
   <g id="patch_3">
    <path d="M 427.107531 295.56 
C 427.107531 270.920457 422.254079 246.520503 412.824934 223.756534 
C 403.395789 200.992564 389.574325 180.307282 372.151537 162.884494 
C 354.728749 145.461706 334.043467 131.640242 311.279498 122.211097 
C 288.515528 112.781953 264.115574 107.9285 239.476031 107.9285 
C 214.836488 107.9285 190.436534 112.781953 167.672565 122.211097 
C 144.908596 131.640242 124.223313 145.461706 106.800525 162.884494 
C 89.377737 180.307282 75.556274 200.992564 66.127129 223.756534 
C 56.697984 246.520503 51.844531 270.920457 51.844531 295.56 
C 51.844531 320.199543 56.697984 344.599497 66.127129 367.363466 
C 75.556274 390.127436 89.377737 410.812718 106.800525 428.235506 
C 124.223313 445.658294 144.908596 459.479758 167.672565 468.908903 
C 190.436534 478.338047 214.836488 483.1915 239.476031 483.1915 
C 264.115574 483.1915 288.515528 478.338047 311.279498 468.908903 
C 334.043467 459.479758 354.728749 445.658294 372.151537 428.235506 
C 389.574325 410.812718 403.395789 390.127436 412.824934 367.363466 
C 422.254079 344.599497 427.107531 320.199543 427.107531 295.56 
" style="fill: none; stroke: #000000; stroke-width: 0.8; stroke-linejoin: miter; stroke-linecap: square"/>
   </g>
   <g id="legend_1">
    <g id="patch_4">
     <path d="M 471.633831 177.9811 
L 555.516644 177.9811 
Q 557.516644 177.9811 557.516644 175.9811 
L 557.516644 132.946725 
Q 557.516644 130.946725 555.516644 130.946725 
L 471.633831 130.946725 
Q 469.633831 130.946725 469.633831 132.946725 
L 469.633831 175.9811 
Q 469.633831 177.9811 471.633831 177.9811 
z
" style="fill: #ffffff; opacity: 0.8; stroke: #cccccc; stroke-linejoin: miter"/>
    </g>
    <g id="text_14">
     <!-- Dataset -->
     <g transform="translate(493.99555 142.545162) scale(0.1 -0.1)">
      <defs>
       <path id="DejaVuSans-44" d="M 1259 4147 
L 1259 519 
L 2022 519 
Q 2988 519 3436 956 
Q 3884 1394 3884 2338 
Q 3884 3275 3436 3711 
Q 2988 4147 2022 4147 
L 1259 4147 
z
M 628 4666 
L 1925 4666 
Q 3281 4666 3915 4102 
Q 4550 3538 4550 2338 
Q 4550 1131 3912 565 
Q 3275 0 1925 0 
L 628 0 
L 628 4666 
z
" transform="scale(0.015625)"/>
       <path id="DejaVuSans-73" d="M 2834 3397 
L 2834 2853 
Q 2591 2978 2328 3040 
Q 2066 3103 1784 3103 
Q 1356 3103 1142 2972 
Q 928 2841 928 2578 
Q 928 2378 1081 2264 
Q 1234 2150 1697 2047 
L 1894 2003 
Q 2506 1872 2764 1633 
Q 3022 1394 3022 966 
Q 3022 478 2636 193 
Q 2250 -91 1575 -91 
Q 1294 -91 989 -36 
Q 684 19 347 128 
L 347 722 
Q 666 556 975 473 
Q 1284 391 1588 391 
Q 1994 391 2212 530 
Q 2431 669 2431 922 
Q 2431 1156 2273 1281 
Q 2116 1406 1581 1522 
L 1381 1569 
Q 847 1681 609 1914 
Q 372 2147 372 2553 
Q 372 3047 722 3315 
Q 1072 3584 1716 3584 
Q 2034 3584 2315 3537 
Q 2597 3491 2834 3397 
z
" transform="scale(0.015625)"/>
      </defs>
      <use xlink:href="#DejaVuSans-44"/>
      <use xlink:href="#DejaVuSans-61" transform="translate(77.001953 0)"/>
      <use xlink:href="#DejaVuSans-74" transform="translate(138.28125 0)"/>
      <use xlink:href="#DejaVuSans-61" transform="translate(177.490234 0)"/>
      <use xlink:href="#DejaVuSans-73" transform="translate(238.769531 0)"/>
      <use xlink:href="#DejaVuSans-65" transform="translate(290.869141 0)"/>
      <use xlink:href="#DejaVuSans-74" transform="translate(352.392578 0)"/>
     </g>
    </g>
    <g id="line2d_16">
     <path d="M 473.633831 153.723287 
L 483.633831 153.723287 
L 493.633831 153.723287 
" style="fill: none; stroke: #1f77b4; stroke-opacity: 0.7; stroke-width: 2; stroke-linecap: square"/>
    </g>
    <g id="text_15">
     <!-- blog -->
     <g transform="translate(501.633831 157.223287) scale(0.1 -0.1)">
      <defs>
       <path id="DejaVuSans-62" d="M 3116 1747 
Q 3116 2381 2855 2742 
Q 2594 3103 2138 3103 
Q 1681 3103 1420 2742 
Q 1159 2381 1159 1747 
Q 1159 1113 1420 752 
Q 1681 391 2138 391 
Q 2594 391 2855 752 
Q 3116 1113 3116 1747 
z
M 1159 2969 
Q 1341 3281 1617 3432 
Q 1894 3584 2278 3584 
Q 2916 3584 3314 3078 
Q 3713 2572 3713 1747 
Q 3713 922 3314 415 
Q 2916 -91 2278 -91 
Q 1894 -91 1617 61 
Q 1341 213 1159 525 
L 1159 0 
L 581 0 
L 581 4863 
L 1159 4863 
L 1159 2969 
z
" transform="scale(0.015625)"/>
      </defs>
      <use xlink:href="#DejaVuSans-62"/>
      <use xlink:href="#DejaVuSans-6c" transform="translate(63.476562 0)"/>
      <use xlink:href="#DejaVuSans-6f" transform="translate(91.259766 0)"/>
      <use xlink:href="#DejaVuSans-67" transform="translate(152.441406 0)"/>
     </g>
    </g>
    <g id="line2d_17">
     <path d="M 473.633831 168.401412 
L 483.633831 168.401412 
L 493.633831 168.401412 
" style="fill: none; stroke-dasharray: 7.4,3.2; stroke-dashoffset: 0; stroke: #ff7f0e; stroke-opacity: 0.7; stroke-width: 2"/>
    </g>
    <g id="text_16">
     <!-- gutenberg -->
     <g transform="translate(501.633831 171.901412) scale(0.1 -0.1)">
      <defs>
       <path id="DejaVuSans-75" d="M 544 1381 
L 544 3500 
L 1119 3500 
L 1119 1403 
Q 1119 906 1312 657 
Q 1506 409 1894 409 
Q 2359 409 2629 706 
Q 2900 1003 2900 1516 
L 2900 3500 
L 3475 3500 
L 3475 0 
L 2900 0 
L 2900 538 
Q 2691 219 2414 64 
Q 2138 -91 1772 -91 
Q 1169 -91 856 284 
Q 544 659 544 1381 
z
M 1991 3584 
L 1991 3584 
z
" transform="scale(0.015625)"/>
      </defs>
      <use xlink:href="#DejaVuSans-67"/>
      <use xlink:href="#DejaVuSans-75" transform="translate(63.476562 0)"/>
      <use xlink:href="#DejaVuSans-74" transform="translate(126.855469 0)"/>
      <use xlink:href="#DejaVuSans-65" transform="translate(166.064453 0)"/>
      <use xlink:href="#DejaVuSans-6e" transform="translate(227.587891 0)"/>
      <use xlink:href="#DejaVuSans-62" transform="translate(290.966797 0)"/>
      <use xlink:href="#DejaVuSans-65" transform="translate(354.443359 0)"/>
      <use xlink:href="#DejaVuSans-72" transform="translate(415.966797 0)"/>
      <use xlink:href="#DejaVuSans-67" transform="translate(455.330078 0)"/>
     </g>
    </g>
   </g>
  </g>
  <g id="text_17">
   <!-- Radar plot of Metric Distributions by Dataset -->
   <g transform="translate(151.724531 16.318125) scale(0.12 -0.12)">
    <defs>
     <path id="DejaVuSans-52" d="M 2841 2188 
Q 3044 2119 3236 1894 
Q 3428 1669 3622 1275 
L 4263 0 
L 3584 0 
L 2988 1197 
Q 2756 1666 2539 1819 
Q 2322 1972 1947 1972 
L 1259 1972 
L 1259 0 
L 628 0 
L 628 4666 
L 2053 4666 
Q 2853 4666 3247 4331 
Q 3641 3997 3641 3322 
Q 3641 2881 3436 2590 
Q 3231 2300 2841 2188 
z
M 1259 4147 
L 1259 2491 
L 2053 2491 
Q 2509 2491 2742 2702 
Q 2975 2913 2975 3322 
Q 2975 3731 2742 3939 
Q 2509 4147 2053 4147 
L 1259 4147 
z
" transform="scale(0.015625)"/>
     <path id="DejaVuSans-20" transform="scale(0.015625)"/>
     <path id="DejaVuSans-4d" d="M 628 4666 
L 1569 4666 
L 2759 1491 
L 3956 4666 
L 4897 4666 
L 4897 0 
L 4281 0 
L 4281 4097 
L 3078 897 
L 2444 897 
L 1241 4097 
L 1241 0 
L 628 0 
L 628 4666 
z
" transform="scale(0.015625)"/>
     <path id="DejaVuSans-79" d="M 2059 -325 
Q 1816 -950 1584 -1140 
Q 1353 -1331 966 -1331 
L 506 -1331 
L 506 -850 
L 844 -850 
Q 1081 -850 1212 -737 
Q 1344 -625 1503 -206 
L 1606 56 
L 191 3500 
L 800 3500 
L 1894 763 
L 2988 3500 
L 3597 3500 
L 2059 -325 
z
" transform="scale(0.015625)"/>
    </defs>
    <use xlink:href="#DejaVuSans-52"/>
    <use xlink:href="#DejaVuSans-61" transform="translate(67.232422 0)"/>
    <use xlink:href="#DejaVuSans-64" transform="translate(128.511719 0)"/>
    <use xlink:href="#DejaVuSans-61" transform="translate(191.988281 0)"/>
    <use xlink:href="#DejaVuSans-72" transform="translate(253.267578 0)"/>
    <use xlink:href="#DejaVuSans-20" transform="translate(294.380859 0)"/>
    <use xlink:href="#DejaVuSans-70" transform="translate(326.167969 0)"/>
    <use xlink:href="#DejaVuSans-6c" transform="translate(389.644531 0)"/>
    <use xlink:href="#DejaVuSans-6f" transform="translate(417.427734 0)"/>
    <use xlink:href="#DejaVuSans-74" transform="translate(478.609375 0)"/>
    <use xlink:href="#DejaVuSans-20" transform="translate(517.818359 0)"/>
    <use xlink:href="#DejaVuSans-6f" transform="translate(549.605469 0)"/>
    <use xlink:href="#DejaVuSans-66" transform="translate(610.787109 0)"/>
    <use xlink:href="#DejaVuSans-20" transform="translate(645.992188 0)"/>
    <use xlink:href="#DejaVuSans-4d" transform="translate(677.779297 0)"/>
    <use xlink:href="#DejaVuSans-65" transform="translate(764.058594 0)"/>
    <use xlink:href="#DejaVuSans-74" transform="translate(825.582031 0)"/>
    <use xlink:href="#DejaVuSans-72" transform="translate(864.791016 0)"/>
    <use xlink:href="#DejaVuSans-69" transform="translate(905.904297 0)"/>
    <use xlink:href="#DejaVuSans-63" transform="translate(933.6875 0)"/>
    <use xlink:href="#DejaVuSans-20" transform="translate(988.667969 0)"/>
    <use xlink:href="#DejaVuSans-44" transform="translate(1020.455078 0)"/>
    <use xlink:href="#DejaVuSans-69" transform="translate(1097.457031 0)"/>
    <use xlink:href="#DejaVuSans-73" transform="translate(1125.240234 0)"/>
    <use xlink:href="#DejaVuSans-74" transform="translate(1177.339844 0)"/>
    <use xlink:href="#DejaVuSans-72" transform="translate(1216.548828 0)"/>
    <use xlink:href="#DejaVuSans-69" transform="translate(1257.662109 0)"/>
    <use xlink:href="#DejaVuSans-62" transform="translate(1285.445312 0)"/>
    <use xlink:href="#DejaVuSans-75" transform="translate(1348.921875 0)"/>
    <use xlink:href="#DejaVuSans-74" transform="translate(1412.300781 0)"/>
    <use xlink:href="#DejaVuSans-69" transform="translate(1451.509766 0)"/>
    <use xlink:href="#DejaVuSans-6f" transform="translate(1479.292969 0)"/>
    <use xlink:href="#DejaVuSans-6e" transform="translate(1540.474609 0)"/>
    <use xlink:href="#DejaVuSans-73" transform="translate(1603.853516 0)"/>
    <use xlink:href="#DejaVuSans-20" transform="translate(1655.953125 0)"/>
    <use xlink:href="#DejaVuSans-62" transform="translate(1687.740234 0)"/>
    <use xlink:href="#DejaVuSans-79" transform="translate(1751.216797 0)"/>
    <use xlink:href="#DejaVuSans-20" transform="translate(1810.396484 0)"/>
    <use xlink:href="#DejaVuSans-44" transform="translate(1842.183594 0)"/>
    <use xlink:href="#DejaVuSans-61" transform="translate(1919.185547 0)"/>
    <use xlink:href="#DejaVuSans-74" transform="translate(1980.464844 0)"/>
    <use xlink:href="#DejaVuSans-61" transform="translate(2019.673828 0)"/>
    <use xlink:href="#DejaVuSans-73" transform="translate(2080.953125 0)"/>
    <use xlink:href="#DejaVuSans-65" transform="translate(2133.052734 0)"/>
    <use xlink:href="#DejaVuSans-74" transform="translate(2194.576172 0)"/>
   </g>
  </g>
 </g>
 <defs>
  <clipPath id="pc30ae5e7ec">
   <path d="M 427.107531 295.56 
C 427.107531 270.920457 422.254079 246.520503 412.824934 223.756534 
C 403.395789 200.992564 389.574325 180.307282 372.151537 162.884494 
C 354.728749 145.461706 334.043467 131.640242 311.279498 122.211097 
C 288.515528 112.781953 264.115574 107.9285 239.476031 107.9285 
C 214.836488 107.9285 190.436534 112.781953 167.672565 122.211097 
C 144.908596 131.640242 124.223313 145.461706 106.800525 162.884494 
C 89.377737 180.307282 75.556274 200.992564 66.127129 223.756534 
C 56.697984 246.520503 51.844531 270.920457 51.844531 295.56 
C 51.844531 320.199543 56.697984 344.599497 66.127129 367.363466 
C 75.556274 390.127436 89.377737 410.812718 106.800525 428.235506 
C 124.223313 445.658294 144.908596 459.479758 167.672565 468.908903 
C 190.436534 478.338047 214.836488 483.1915 239.476031 483.1915 
C 264.115574 483.1915 288.515528 478.338047 311.279498 468.908903 
C 334.043467 459.479758 354.728749 445.658294 372.151537 428.235506 
C 389.574325 410.812718 403.395789 390.127436 412.824934 367.363466 
C 422.254079 344.599497 427.107531 320.199543 427.107531 295.56 
M 239.476031 295.56 
C 239.476031 295.56 239.476031 295.56 239.476031 295.56 
C 239.476031 295.56 239.476031 295.56 239.476031 295.56 
C 239.476031 295.56 239.476031 295.56 239.476031 295.56 
C 239.476031 295.56 239.476031 295.56 239.476031 295.56 
C 239.476031 295.56 239.476031 295.56 239.476031 295.56 
C 239.476031 295.56 239.476031 295.56 239.476031 295.56 
C 239.476031 295.56 239.476031 295.56 239.476031 295.56 
C 239.476031 295.56 239.476031 295.56 239.476031 295.56 
C 239.476031 295.56 239.476031 295.56 239.476031 295.56 
C 239.476031 295.56 239.476031 295.56 239.476031 295.56 
C 239.476031 295.56 239.476031 295.56 239.476031 295.56 
C 239.476031 295.56 239.476031 295.56 239.476031 295.56 
C 239.476031 295.56 239.476031 295.56 239.476031 295.56 
C 239.476031 295.56 239.476031 295.56 239.476031 295.56 
C 239.476031 295.56 239.476031 295.56 239.476031 295.56 
C 239.476031 295.56 239.476031 295.56 239.476031 295.56 
z
"/>
  </clipPath>
 </defs>
</svg>
