<?xml version="1.0" encoding="utf-8" standalone="no"?>
<!DOCTYPE svg PUBLIC "-//W3C//DTD SVG 1.1//EN"
  "http://www.w3.org/Graphics/SVG/1.1/DTD/svg11.dtd">
<svg xmlns:xlink="http://www.w3.org/1999/xlink" width="562.465519pt" height="496.904625pt" viewBox="0 0 562.465519 496.904625" xmlns="http://www.w3.org/2000/svg" version="1.1">
 <metadata>
  <rdf:RDF xmlns:dc="http://purl.org/dc/elements/1.1/" xmlns:cc="http://creativecommons.org/ns#" xmlns:rdf="http://www.w3.org/1999/02/22-rdf-syntax-ns#">
   <cc:Work>
    <dc:type rdf:resource="http://purl.org/dc/dcmitype/StillImage"/>
    <dc:date>2025-08-14T17:51:13.098238</dc:date>
    <dc:format>image/svg+xml</dc:format>
    <dc:creator>
     <cc:Agent>
      <dc:title>Matplotlib v3.10.3, https://matplotlib.org/</dc:title>
     </cc:Agent>
    </dc:creator>
   </cc:Work>
  </rdf:RDF>
 </metadata>
 <defs>
  <style type="text/css">*{stroke-linejoin: round; stroke-linecap: butt}</style>
 </defs>
 <g id="figure_1">
  <g id="patch_1">
   <path d="M 0 496.904625 
L 562.465519 496.904625 
L 562.465519 0 
L 0 0 
L 0 496.904625 
z
" style="fill: none"/>
  </g>
  <g id="axes_1">
   <g id="patch_2">
    <path d="M 402.177531 295.56 
C 402.177531 272.557346 397.64651 249.778364 388.843775 228.526683 
C 380.041041 207.275001 367.137784 187.963913 350.872451 171.69858 
C 334.607119 155.433247 315.29603 142.52999 294.044349 133.727256 
C 272.792667 124.924521 250.013685 120.3935 227.011031 120.3935 
C 204.008377 120.3935 181.229395 124.924521 159.977714 133.727256 
C 138.726033 142.52999 119.414944 155.433247 103.149611 171.69858 
C 86.884279 187.963913 73.981022 207.275001 65.178287 228.526683 
C 56.375553 249.778364 51.844531 272.557346 51.844531 295.56 
C 51.844531 318.562654 56.375553 341.341636 65.178287 362.593317 
C 73.981022 383.844999 86.884279 403.156087 103.149611 419.42142 
C 119.414944 435.686753 138.726033 448.59001 159.977714 457.392744 
C 181.229395 466.195479 204.008377 470.7265 227.011031 470.7265 
C 250.013685 470.7265 272.792667 466.195479 294.044349 457.392744 
C 315.29603 448.59001 334.607119 435.686753 350.872451 419.42142 
C 367.137784 403.156087 380.041041 383.844999 388.843775 362.593317 
C 397.64651 341.341636 402.177531 318.562654 402.177531 295.56 
M 227.011031 295.56 
C 227.011031 295.56 227.011031 295.56 227.011031 295.56 
C 227.011031 295.56 227.011031 295.56 227.011031 295.56 
C 227.011031 295.56 227.011031 295.56 227.011031 295.56 
C 227.011031 295.56 227.011031 295.56 227.011031 295.56 
C 227.011031 295.56 227.011031 295.56 227.011031 295.56 
C 227.011031 295.56 227.011031 295.56 227.011031 295.56 
C 227.011031 295.56 227.011031 295.56 227.011031 295.56 
C 227.011031 295.56 227.011031 295.56 227.011031 295.56 
C 227.011031 295.56 227.011031 295.56 227.011031 295.56 
C 227.011031 295.56 227.011031 295.56 227.011031 295.56 
C 227.011031 295.56 227.011031 295.56 227.011031 295.56 
C 227.011031 295.56 227.011031 295.56 227.011031 295.56 
C 227.011031 295.56 227.011031 295.56 227.011031 295.56 
C 227.011031 295.56 227.011031 295.56 227.011031 295.56 
C 227.011031 295.56 227.011031 295.56 227.011031 295.56 
C 227.011031 295.56 227.011031 295.56 227.011031 295.56 
L 227.011031 295.56 
z
" style="fill: none"/>
   </g>
   <g id="FillBetweenPolyCollection_1">
    <defs>
     <path id="m952754d503" d="M 314.594281 -201.344625 
L 314.594281 -201.344625 
L 227.011031 -316.795273 
L 139.427781 -201.344625 
L 227.011031 -179.846918 
L 314.594281 -201.344625 
L 314.594281 -201.344625 
L 314.594281 -201.344625 
L 227.011031 -63.600059 
L 139.427781 -201.344625 
L 227.011031 -368.549011 
L 314.594281 -201.344625 
z
" style="stroke: #1f77b4; stroke-opacity: 0.2"/>
    </defs>
    <g clip-path="url(#pdd7e842ce3)">
     <use xlink:href="#m952754d503" x="0" y="496.904625" style="fill: #1f77b4; fill-opacity: 0.2; stroke: #1f77b4; stroke-opacity: 0.2"/>
    </g>
   </g>
   <g id="FillBetweenPolyCollection_2">
    <defs>
     <path id="m3243cc0d0b" d="M 314.594281 -201.344625 
L 314.594281 -201.344625 
L 227.011031 -292.908932 
L 139.427781 -201.344625 
L 227.011031 -193.382511 
L 314.594281 -201.344625 
L 314.594281 -201.344625 
L 314.594281 -201.344625 
L 227.011031 -193.382511 
L 137.835359 -201.344625 
L 227.011031 -368.549011 
L 314.594281 -201.344625 
z
" style="stroke: #ff7f0e; stroke-opacity: 0.2"/>
    </defs>
    <g clip-path="url(#pdd7e842ce3)">
     <use xlink:href="#m3243cc0d0b" x="0" y="496.904625" style="fill: #ff7f0e; fill-opacity: 0.2; stroke: #ff7f0e; stroke-opacity: 0.2"/>
    </g>
   </g>
   <g id="FillBetweenPolyCollection_3">
    <defs>
     <path id="md92f7651ae" d="M 366.34802 -201.344625 
L 294.688997 -201.344625 
L 227.011031 -292.908932 
L 138.63157 -201.344625 
L 227.011031 -102.614416 
L 294.688997 -201.344625 
L 366.34802 -201.344625 
L 366.34802 -201.344625 
L 227.011031 -70.765961 
L 138.63157 -201.344625 
L 227.011031 -368.549011 
L 366.34802 -201.344625 
z
" style="stroke: #2ca02c; stroke-opacity: 0.2"/>
    </defs>
    <g clip-path="url(#pdd7e842ce3)">
     <use xlink:href="#md92f7651ae" x="0" y="496.904625" style="fill: #2ca02c; fill-opacity: 0.2; stroke: #2ca02c; stroke-opacity: 0.2"/>
    </g>
   </g>
   <g id="matplotlib.axis_1">
    <g id="xtick_1">
     <g id="line2d_1">
      <path d="M 227.011031 295.56 
L 402.177531 295.56 
" clip-path="url(#pdd7e842ce3)" style="fill: none; stroke: #b0b0b0; stroke-width: 0.8; stroke-linecap: square"/>
     </g>
     <g id="text_1">
      <!-- genre_match -->
      <g transform="translate(383.425969 298.180312) scale(0.1 -0.1)">
       <defs>
        <path id="DejaVuSans-67" d="M 2906 1791 
Q 2906 2416 2648 2759 
Q 2391 3103 1925 3103 
Q 1463 3103 1205 2759 
Q 947 2416 947 1791 
Q 947 1169 1205 825 
Q 1463 481 1925 481 
Q 2391 481 2648 825 
Q 2906 1169 2906 1791 
z
M 3481 434 
Q 3481 -459 3084 -895 
Q 2688 -1331 1869 -1331 
Q 1566 -1331 1297 -1286 
Q 1028 -1241 775 -1147 
L 775 -588 
Q 1028 -725 1275 -790 
Q 1522 -856 1778 -856 
Q 2344 -856 2625 -561 
Q 2906 -266 2906 331 
L 2906 616 
Q 2728 306 2450 153 
Q 2172 0 1784 0 
Q 1141 0 747 490 
Q 353 981 353 1791 
Q 353 2603 747 3093 
Q 1141 3584 1784 3584 
Q 2172 3584 2450 3431 
Q 2728 3278 2906 2969 
L 2906 3500 
L 3481 3500 
L 3481 434 
z
" transform="scale(0.015625)"/>
        <path id="DejaVuSans-65" d="M 3597 1894 
L 3597 1613 
L 953 1613 
Q 991 1019 1311 708 
Q 1631 397 2203 397 
Q 2534 397 2845 478 
Q 3156 559 3463 722 
L 3463 178 
Q 3153 47 2828 -22 
Q 2503 -91 2169 -91 
Q 1331 -91 842 396 
Q 353 884 353 1716 
Q 353 2575 817 3079 
Q 1281 3584 2069 3584 
Q 2775 3584 3186 3129 
Q 3597 2675 3597 1894 
z
M 3022 2063 
Q 3016 2534 2758 2815 
Q 2500 3097 2075 3097 
Q 1594 3097 1305 2825 
Q 1016 2553 972 2059 
L 3022 2063 
z
" transform="scale(0.015625)"/>
        <path id="DejaVuSans-6e" d="M 3513 2113 
L 3513 0 
L 2938 0 
L 2938 2094 
Q 2938 2591 2744 2837 
Q 2550 3084 2163 3084 
Q 1697 3084 1428 2787 
Q 1159 2491 1159 1978 
L 1159 0 
L 581 0 
L 581 3500 
L 1159 3500 
L 1159 2956 
Q 1366 3272 1645 3428 
Q 1925 3584 2291 3584 
Q 2894 3584 3203 3211 
Q 3513 2838 3513 2113 
z
" transform="scale(0.015625)"/>
        <path id="DejaVuSans-72" d="M 2631 2963 
Q 2534 3019 2420 3045 
Q 2306 3072 2169 3072 
Q 1681 3072 1420 2755 
Q 1159 2438 1159 1844 
L 1159 0 
L 581 0 
L 581 3500 
L 1159 3500 
L 1159 2956 
Q 1341 3275 1631 3429 
Q 1922 3584 2338 3584 
Q 2397 3584 2469 3576 
Q 2541 3569 2628 3553 
L 2631 2963 
z
" transform="scale(0.015625)"/>
        <path id="DejaVuSans-5f" d="M 3263 -1063 
L 3263 -1509 
L -63 -1509 
L -63 -1063 
L 3263 -1063 
z
" transform="scale(0.015625)"/>
        <path id="DejaVuSans-6d" d="M 3328 2828 
Q 3544 3216 3844 3400 
Q 4144 3584 4550 3584 
Q 5097 3584 5394 3201 
Q 5691 2819 5691 2113 
L 5691 0 
L 5113 0 
L 5113 2094 
Q 5113 2597 4934 2840 
Q 4756 3084 4391 3084 
Q 3944 3084 3684 2787 
Q 3425 2491 3425 1978 
L 3425 0 
L 2847 0 
L 2847 2094 
Q 2847 2600 2669 2842 
Q 2491 3084 2119 3084 
Q 1678 3084 1418 2786 
Q 1159 2488 1159 1978 
L 1159 0 
L 581 0 
L 581 3500 
L 1159 3500 
L 1159 2956 
Q 1356 3278 1631 3431 
Q 1906 3584 2284 3584 
Q 2666 3584 2933 3390 
Q 3200 3197 3328 2828 
z
" transform="scale(0.015625)"/>
        <path id="DejaVuSans-61" d="M 2194 1759 
Q 1497 1759 1228 1600 
Q 959 1441 959 1056 
Q 959 750 1161 570 
Q 1363 391 1709 391 
Q 2188 391 2477 730 
Q 2766 1069 2766 1631 
L 2766 1759 
L 2194 1759 
z
M 3341 1997 
L 3341 0 
L 2766 0 
L 2766 531 
Q 2569 213 2275 61 
Q 1981 -91 1556 -91 
Q 1019 -91 701 211 
Q 384 513 384 1019 
Q 384 1609 779 1909 
Q 1175 2209 1959 2209 
L 2766 2209 
L 2766 2266 
Q 2766 2663 2505 2880 
Q 2244 3097 1772 3097 
Q 1472 3097 1187 3025 
Q 903 2953 641 2809 
L 641 3341 
Q 956 3463 1253 3523 
Q 1550 3584 1831 3584 
Q 2591 3584 2966 3190 
Q 3341 2797 3341 1997 
z
" transform="scale(0.015625)"/>
        <path id="DejaVuSans-74" d="M 1172 4494 
L 1172 3500 
L 2356 3500 
L 2356 3053 
L 1172 3053 
L 1172 1153 
Q 1172 725 1289 603 
Q 1406 481 1766 481 
L 2356 481 
L 2356 0 
L 1766 0 
Q 1100 0 847 248 
Q 594 497 594 1153 
L 594 3053 
L 172 3053 
L 172 3500 
L 594 3500 
L 594 4494 
L 1172 4494 
z
" transform="scale(0.015625)"/>
        <path id="DejaVuSans-63" d="M 3122 3366 
L 3122 2828 
Q 2878 2963 2633 3030 
Q 2388 3097 2138 3097 
Q 1578 3097 1268 2742 
Q 959 2388 959 1747 
Q 959 1106 1268 751 
Q 1578 397 2138 397 
Q 2388 397 2633 464 
Q 2878 531 3122 666 
L 3122 134 
Q 2881 22 2623 -34 
Q 2366 -91 2075 -91 
Q 1284 -91 818 406 
Q 353 903 353 1747 
Q 353 2603 823 3093 
Q 1294 3584 2113 3584 
Q 2378 3584 2631 3529 
Q 2884 3475 3122 3366 
z
" transform="scale(0.015625)"/>
        <path id="DejaVuSans-68" d="M 3513 2113 
L 3513 0 
L 2938 0 
L 2938 2094 
Q 2938 2591 2744 2837 
Q 2550 3084 2163 3084 
Q 1697 3084 1428 2787 
Q 1159 2491 1159 1978 
L 1159 0 
L 581 0 
L 581 4863 
L 1159 4863 
L 1159 2956 
Q 1366 3272 1645 3428 
Q 1925 3584 2291 3584 
Q 2894 3584 3203 3211 
Q 3513 2838 3513 2113 
z
" transform="scale(0.015625)"/>
       </defs>
       <use xlink:href="#DejaVuSans-67"/>
       <use xlink:href="#DejaVuSans-65" transform="translate(63.476562 0)"/>
       <use xlink:href="#DejaVuSans-6e" transform="translate(125 0)"/>
       <use xlink:href="#DejaVuSans-72" transform="translate(188.378906 0)"/>
       <use xlink:href="#DejaVuSans-65" transform="translate(227.242188 0)"/>
       <use xlink:href="#DejaVuSans-5f" transform="translate(288.765625 0)"/>
       <use xlink:href="#DejaVuSans-6d" transform="translate(338.765625 0)"/>
       <use xlink:href="#DejaVuSans-61" transform="translate(436.177734 0)"/>
       <use xlink:href="#DejaVuSans-74" transform="translate(497.457031 0)"/>
       <use xlink:href="#DejaVuSans-63" transform="translate(536.666016 0)"/>
       <use xlink:href="#DejaVuSans-68" transform="translate(591.646484 0)"/>
      </g>
     </g>
    </g>
    <g id="xtick_2">
     <g id="line2d_2">
      <path d="M 227.011031 295.56 
L 227.011031 120.3935 
" clip-path="url(#pdd7e842ce3)" style="fill: none; stroke: #b0b0b0; stroke-width: 0.8; stroke-linecap: square"/>
     </g>
     <g id="text_2">
      <!-- time_match -->
      <g transform="translate(197.402438 109.013812) scale(0.1 -0.1)">
       <defs>
        <path id="DejaVuSans-69" d="M 603 3500 
L 1178 3500 
L 1178 0 
L 603 0 
L 603 3500 
z
M 603 4863 
L 1178 4863 
L 1178 4134 
L 603 4134 
L 603 4863 
z
" transform="scale(0.015625)"/>
       </defs>
       <use xlink:href="#DejaVuSans-74"/>
       <use xlink:href="#DejaVuSans-69" transform="translate(39.208984 0)"/>
       <use xlink:href="#DejaVuSans-6d" transform="translate(66.992188 0)"/>
       <use xlink:href="#DejaVuSans-65" transform="translate(164.404297 0)"/>
       <use xlink:href="#DejaVuSans-5f" transform="translate(225.927734 0)"/>
       <use xlink:href="#DejaVuSans-6d" transform="translate(275.927734 0)"/>
       <use xlink:href="#DejaVuSans-61" transform="translate(373.339844 0)"/>
       <use xlink:href="#DejaVuSans-74" transform="translate(434.619141 0)"/>
       <use xlink:href="#DejaVuSans-63" transform="translate(473.828125 0)"/>
       <use xlink:href="#DejaVuSans-68" transform="translate(528.808594 0)"/>
      </g>
     </g>
    </g>
    <g id="xtick_3">
     <g id="line2d_3">
      <path d="M 227.011031 295.56 
L 51.844531 295.56 
" clip-path="url(#pdd7e842ce3)" style="fill: none; stroke: #b0b0b0; stroke-width: 0.8; stroke-linecap: square"/>
     </g>
     <g id="text_3">
      <!-- topic_match -->
      <g transform="translate(7.2 298.180312) scale(0.1 -0.1)">
       <defs>
        <path id="DejaVuSans-6f" d="M 1959 3097 
Q 1497 3097 1228 2736 
Q 959 2375 959 1747 
Q 959 1119 1226 758 
Q 1494 397 1959 397 
Q 2419 397 2687 759 
Q 2956 1122 2956 1747 
Q 2956 2369 2687 2733 
Q 2419 3097 1959 3097 
z
M 1959 3584 
Q 2709 3584 3137 3096 
Q 3566 2609 3566 1747 
Q 3566 888 3137 398 
Q 2709 -91 1959 -91 
Q 1206 -91 779 398 
Q 353 888 353 1747 
Q 353 2609 779 3096 
Q 1206 3584 1959 3584 
z
" transform="scale(0.015625)"/>
        <path id="DejaVuSans-70" d="M 1159 525 
L 1159 -1331 
L 581 -1331 
L 581 3500 
L 1159 3500 
L 1159 2969 
Q 1341 3281 1617 3432 
Q 1894 3584 2278 3584 
Q 2916 3584 3314 3078 
Q 3713 2572 3713 1747 
Q 3713 922 3314 415 
Q 2916 -91 2278 -91 
Q 1894 -91 1617 61 
Q 1341 213 1159 525 
z
M 3116 1747 
Q 3116 2381 2855 2742 
Q 2594 3103 2138 3103 
Q 1681 3103 1420 2742 
Q 1159 2381 1159 1747 
Q 1159 1113 1420 752 
Q 1681 391 2138 391 
Q 2594 391 2855 752 
Q 3116 1113 3116 1747 
z
" transform="scale(0.015625)"/>
       </defs>
       <use xlink:href="#DejaVuSans-74"/>
       <use xlink:href="#DejaVuSans-6f" transform="translate(39.208984 0)"/>
       <use xlink:href="#DejaVuSans-70" transform="translate(100.390625 0)"/>
       <use xlink:href="#DejaVuSans-69" transform="translate(163.867188 0)"/>
       <use xlink:href="#DejaVuSans-63" transform="translate(191.650391 0)"/>
       <use xlink:href="#DejaVuSans-5f" transform="translate(246.630859 0)"/>
       <use xlink:href="#DejaVuSans-6d" transform="translate(296.630859 0)"/>
       <use xlink:href="#DejaVuSans-61" transform="translate(394.042969 0)"/>
       <use xlink:href="#DejaVuSans-74" transform="translate(455.322266 0)"/>
       <use xlink:href="#DejaVuSans-63" transform="translate(494.53125 0)"/>
       <use xlink:href="#DejaVuSans-68" transform="translate(549.511719 0)"/>
      </g>
     </g>
    </g>
    <g id="xtick_4">
     <g id="line2d_4">
      <path d="M 227.011031 295.56 
L 227.011031 470.7265 
" clip-path="url(#pdd7e842ce3)" style="fill: none; stroke: #b0b0b0; stroke-width: 0.8; stroke-linecap: square"/>
     </g>
     <g id="text_4">
      <!-- length_diff -->
      <g transform="translate(200.489937 487.346812) scale(0.1 -0.1)">
       <defs>
        <path id="DejaVuSans-6c" d="M 603 4863 
L 1178 4863 
L 1178 0 
L 603 0 
L 603 4863 
z
" transform="scale(0.015625)"/>
        <path id="DejaVuSans-64" d="M 2906 2969 
L 2906 4863 
L 3481 4863 
L 3481 0 
L 2906 0 
L 2906 525 
Q 2725 213 2448 61 
Q 2172 -91 1784 -91 
Q 1150 -91 751 415 
Q 353 922 353 1747 
Q 353 2572 751 3078 
Q 1150 3584 1784 3584 
Q 2172 3584 2448 3432 
Q 2725 3281 2906 2969 
z
M 947 1747 
Q 947 1113 1208 752 
Q 1469 391 1925 391 
Q 2381 391 2643 752 
Q 2906 1113 2906 1747 
Q 2906 2381 2643 2742 
Q 2381 3103 1925 3103 
Q 1469 3103 1208 2742 
Q 947 2381 947 1747 
z
" transform="scale(0.015625)"/>
        <path id="DejaVuSans-66" d="M 2375 4863 
L 2375 4384 
L 1825 4384 
Q 1516 4384 1395 4259 
Q 1275 4134 1275 3809 
L 1275 3500 
L 2222 3500 
L 2222 3053 
L 1275 3053 
L 1275 0 
L 697 0 
L 697 3053 
L 147 3053 
L 147 3500 
L 697 3500 
L 697 3744 
Q 697 4328 969 4595 
Q 1241 4863 1831 4863 
L 2375 4863 
z
" transform="scale(0.015625)"/>
       </defs>
       <use xlink:href="#DejaVuSans-6c"/>
       <use xlink:href="#DejaVuSans-65" transform="translate(27.783203 0)"/>
       <use xlink:href="#DejaVuSans-6e" transform="translate(89.306641 0)"/>
       <use xlink:href="#DejaVuSans-67" transform="translate(152.685547 0)"/>
       <use xlink:href="#DejaVuSans-74" transform="translate(216.162109 0)"/>
       <use xlink:href="#DejaVuSans-68" transform="translate(255.371094 0)"/>
       <use xlink:href="#DejaVuSans-5f" transform="translate(318.75 0)"/>
       <use xlink:href="#DejaVuSans-64" transform="translate(368.75 0)"/>
       <use xlink:href="#DejaVuSans-69" transform="translate(432.226562 0)"/>
       <use xlink:href="#DejaVuSans-66" transform="translate(460.009766 0)"/>
       <use xlink:href="#DejaVuSans-66" transform="translate(495.214844 0)"/>
      </g>
     </g>
    </g>
   </g>
   <g id="matplotlib.axis_2">
    <g id="ytick_1">
     <g id="line2d_5">
      <path d="M 234.973145 295.56 
C 234.973145 294.514425 234.767189 293.479017 234.367065 292.513031 
C 233.966941 291.547046 233.380429 290.669269 232.641096 289.929935 
C 231.901762 289.190602 231.023986 288.60409 230.058 288.203966 
C 229.092015 287.803842 228.056606 287.597886 227.011031 287.597886 
C 225.965456 287.597886 224.930048 287.803842 223.964062 288.203966 
C 222.998077 288.60409 222.1203 289.190602 221.380967 289.929935 
C 220.641633 290.669269 220.055122 291.547046 219.654997 292.513031 
C 219.254873 293.479017 219.048918 294.514425 219.048918 295.56 
C 219.048918 296.605575 219.254873 297.640983 219.654997 298.606969 
C 220.055122 299.572954 220.641633 300.450731 221.380967 301.190065 
C 222.1203 301.929398 222.998077 302.51591 223.964062 302.916034 
C 224.930048 303.316158 225.965456 303.522114 227.011031 303.522114 
C 228.056606 303.522114 229.092015 303.316158 230.058 302.916034 
C 231.023986 302.51591 231.901762 301.929398 232.641096 301.190065 
C 233.380429 300.450731 233.966941 299.572954 234.367065 298.606969 
C 234.767189 297.640983 234.973145 296.605575 234.973145 295.56 
" clip-path="url(#pdd7e842ce3)" style="fill: none; stroke: #b0b0b0; stroke-width: 0.8; stroke-linecap: square"/>
     </g>
     <g id="text_5">
      <!-- −1.00 -->
      <g transform="translate(234.367065 290.433344) scale(0.1 -0.1)">
       <defs>
        <path id="DejaVuSans-2212" d="M 678 2272 
L 4684 2272 
L 4684 1741 
L 678 1741 
L 678 2272 
z
" transform="scale(0.015625)"/>
        <path id="DejaVuSans-31" d="M 794 531 
L 1825 531 
L 1825 4091 
L 703 3866 
L 703 4441 
L 1819 4666 
L 2450 4666 
L 2450 531 
L 3481 531 
L 3481 0 
L 794 0 
L 794 531 
z
" transform="scale(0.015625)"/>
        <path id="DejaVuSans-2e" d="M 684 794 
L 1344 794 
L 1344 0 
L 684 0 
L 684 794 
z
" transform="scale(0.015625)"/>
        <path id="DejaVuSans-30" d="M 2034 4250 
Q 1547 4250 1301 3770 
Q 1056 3291 1056 2328 
Q 1056 1369 1301 889 
Q 1547 409 2034 409 
Q 2525 409 2770 889 
Q 3016 1369 3016 2328 
Q 3016 3291 2770 3770 
Q 2525 4250 2034 4250 
z
M 2034 4750 
Q 2819 4750 3233 4129 
Q 3647 3509 3647 2328 
Q 3647 1150 3233 529 
Q 2819 -91 2034 -91 
Q 1250 -91 836 529 
Q 422 1150 422 2328 
Q 422 3509 836 4129 
Q 1250 4750 2034 4750 
z
" transform="scale(0.015625)"/>
       </defs>
       <use xlink:href="#DejaVuSans-2212"/>
       <use xlink:href="#DejaVuSans-31" transform="translate(83.789062 0)"/>
       <use xlink:href="#DejaVuSans-2e" transform="translate(147.412109 0)"/>
       <use xlink:href="#DejaVuSans-30" transform="translate(179.199219 0)"/>
       <use xlink:href="#DejaVuSans-30" transform="translate(242.822266 0)"/>
      </g>
     </g>
    </g>
    <g id="ytick_2">
     <g id="line2d_6">
      <path d="M 254.878429 295.56 
C 254.878429 291.900487 254.157585 288.276558 252.75715 284.895609 
C 251.356715 281.514659 249.303924 278.442441 246.716257 275.854774 
C 244.128591 273.267108 241.056372 271.214317 237.675423 269.813882 
C 234.294473 268.413447 230.670544 267.692602 227.011031 267.692602 
C 223.351518 267.692602 219.727589 268.413447 216.34664 269.813882 
C 212.965691 271.214317 209.893472 273.267108 207.305805 275.854774 
C 204.718139 278.442441 202.665348 281.514659 201.264913 284.895609 
C 199.864478 288.276558 199.143634 291.900487 199.143634 295.56 
C 199.143634 299.219513 199.864478 302.843442 201.264913 306.224391 
C 202.665348 309.605341 204.718139 312.677559 207.305805 315.265226 
C 209.893472 317.852892 212.965691 319.905683 216.34664 321.306118 
C 219.727589 322.706553 223.351518 323.427398 227.011031 323.427398 
C 230.670544 323.427398 234.294473 322.706553 237.675423 321.306118 
C 241.056372 319.905683 244.128591 317.852892 246.716257 315.265226 
C 249.303924 312.677559 251.356715 309.605341 252.75715 306.224391 
C 254.157585 302.843442 254.878429 299.219513 254.878429 295.56 
" clip-path="url(#pdd7e842ce3)" style="fill: none; stroke: #b0b0b0; stroke-width: 0.8; stroke-linecap: square"/>
     </g>
     <g id="text_6">
      <!-- −0.75 -->
      <g transform="translate(252.75715 282.815921) scale(0.1 -0.1)">
       <defs>
        <path id="DejaVuSans-37" d="M 525 4666 
L 3525 4666 
L 3525 4397 
L 1831 0 
L 1172 0 
L 2766 4134 
L 525 4134 
L 525 4666 
z
" transform="scale(0.015625)"/>
        <path id="DejaVuSans-35" d="M 691 4666 
L 3169 4666 
L 3169 4134 
L 1269 4134 
L 1269 2991 
Q 1406 3038 1543 3061 
Q 1681 3084 1819 3084 
Q 2600 3084 3056 2656 
Q 3513 2228 3513 1497 
Q 3513 744 3044 326 
Q 2575 -91 1722 -91 
Q 1428 -91 1123 -41 
Q 819 9 494 109 
L 494 744 
Q 775 591 1075 516 
Q 1375 441 1709 441 
Q 2250 441 2565 725 
Q 2881 1009 2881 1497 
Q 2881 1984 2565 2268 
Q 2250 2553 1709 2553 
Q 1456 2553 1204 2497 
Q 953 2441 691 2322 
L 691 4666 
z
" transform="scale(0.015625)"/>
       </defs>
       <use xlink:href="#DejaVuSans-2212"/>
       <use xlink:href="#DejaVuSans-30" transform="translate(83.789062 0)"/>
       <use xlink:href="#DejaVuSans-2e" transform="translate(147.412109 0)"/>
       <use xlink:href="#DejaVuSans-37" transform="translate(179.199219 0)"/>
       <use xlink:href="#DejaVuSans-35" transform="translate(242.822266 0)"/>
      </g>
     </g>
    </g>
    <g id="ytick_3">
     <g id="line2d_7">
      <path d="M 274.783713 295.56 
C 274.783713 289.286549 273.54798 283.074099 271.147234 277.278186 
C 268.746488 271.482273 265.227418 266.215613 260.791419 261.779613 
C 256.355419 257.343613 251.088758 253.824543 245.292845 251.423797 
C 239.496932 249.023051 233.284482 247.787318 227.011031 247.787318 
C 220.73758 247.787318 214.52513 249.023051 208.729217 251.423797 
C 202.933304 253.824543 197.666644 257.343613 193.230644 261.779613 
C 188.794644 266.215613 185.275574 271.482273 182.874828 277.278186 
C 180.474083 283.074099 179.238349 289.286549 179.238349 295.56 
C 179.238349 301.833451 180.474083 308.045901 182.874828 313.841814 
C 185.275574 319.637727 188.794644 324.904387 193.230644 329.340387 
C 197.666644 333.776387 202.933304 337.295457 208.729217 339.696203 
C 214.52513 342.096949 220.73758 343.332682 227.011031 343.332682 
C 233.284482 343.332682 239.496932 342.096949 245.292845 339.696203 
C 251.088758 337.295457 256.355419 333.776387 260.791419 329.340387 
C 265.227418 324.904387 268.746488 319.637727 271.147234 313.841814 
C 273.54798 308.045901 274.783713 301.833451 274.783713 295.56 
" clip-path="url(#pdd7e842ce3)" style="fill: none; stroke: #b0b0b0; stroke-width: 0.8; stroke-linecap: square"/>
     </g>
     <g id="text_7">
      <!-- −0.50 -->
      <g transform="translate(271.147234 275.198499) scale(0.1 -0.1)">
       <use xlink:href="#DejaVuSans-2212"/>
       <use xlink:href="#DejaVuSans-30" transform="translate(83.789062 0)"/>
       <use xlink:href="#DejaVuSans-2e" transform="translate(147.412109 0)"/>
       <use xlink:href="#DejaVuSans-35" transform="translate(179.199219 0)"/>
       <use xlink:href="#DejaVuSans-30" transform="translate(242.822266 0)"/>
      </g>
     </g>
    </g>
    <g id="ytick_4">
     <g id="line2d_8">
      <path d="M 294.688997 295.56 
C 294.688997 286.672611 292.938375 277.871641 289.537319 269.660764 
C 286.136262 261.449887 281.150913 253.988784 274.86658 247.704451 
C 268.582247 241.420118 261.121144 236.434769 252.910268 233.033712 
C 244.699391 229.632656 235.89842 227.882034 227.011031 227.882034 
C 218.123642 227.882034 209.322672 229.632656 201.111795 233.033712 
C 192.900918 236.434769 185.439816 241.420118 179.155483 247.704451 
C 172.87115 253.988784 167.8858 261.449887 164.484744 269.660764 
C 161.083687 277.871641 159.333065 286.672611 159.333065 295.56 
C 159.333065 304.447389 161.083687 313.248359 164.484744 321.459236 
C 167.8858 329.670113 172.87115 337.131216 179.155483 343.415549 
C 185.439816 349.699882 192.900918 354.685231 201.111795 358.086288 
C 209.322672 361.487344 218.123642 363.237966 227.011031 363.237966 
C 235.89842 363.237966 244.699391 361.487344 252.910268 358.086288 
C 261.121144 354.685231 268.582247 349.699882 274.86658 343.415549 
C 281.150913 337.131216 286.136262 329.670113 289.537319 321.459236 
C 292.938375 313.248359 294.688997 304.447389 294.688997 295.56 
" clip-path="url(#pdd7e842ce3)" style="fill: none; stroke: #b0b0b0; stroke-width: 0.8; stroke-linecap: square"/>
     </g>
     <g id="text_8">
      <!-- −0.25 -->
      <g transform="translate(289.537319 267.581076) scale(0.1 -0.1)">
       <defs>
        <path id="DejaVuSans-32" d="M 1228 531 
L 3431 531 
L 3431 0 
L 469 0 
L 469 531 
Q 828 903 1448 1529 
Q 2069 2156 2228 2338 
Q 2531 2678 2651 2914 
Q 2772 3150 2772 3378 
Q 2772 3750 2511 3984 
Q 2250 4219 1831 4219 
Q 1534 4219 1204 4116 
Q 875 4013 500 3803 
L 500 4441 
Q 881 4594 1212 4672 
Q 1544 4750 1819 4750 
Q 2544 4750 2975 4387 
Q 3406 4025 3406 3419 
Q 3406 3131 3298 2873 
Q 3191 2616 2906 2266 
Q 2828 2175 2409 1742 
Q 1991 1309 1228 531 
z
" transform="scale(0.015625)"/>
       </defs>
       <use xlink:href="#DejaVuSans-2212"/>
       <use xlink:href="#DejaVuSans-30" transform="translate(83.789062 0)"/>
       <use xlink:href="#DejaVuSans-2e" transform="translate(147.412109 0)"/>
       <use xlink:href="#DejaVuSans-32" transform="translate(179.199219 0)"/>
       <use xlink:href="#DejaVuSans-35" transform="translate(242.822266 0)"/>
      </g>
     </g>
    </g>
    <g id="ytick_5">
     <g id="line2d_9">
      <path d="M 314.594281 295.56 
C 314.594281 284.058673 312.328771 272.669182 307.927403 262.043341 
C 303.526036 251.417501 297.074408 241.761956 288.941741 233.62929 
C 280.809075 225.496624 271.153531 219.044995 260.52769 214.643628 
C 249.901849 210.242261 238.512358 207.97675 227.011031 207.97675 
C 215.509704 207.97675 204.120213 210.242261 193.494373 214.643628 
C 182.868532 219.044995 173.212988 225.496624 165.080321 233.62929 
C 156.947655 241.761956 150.496026 251.417501 146.094659 262.043341 
C 141.693292 272.669182 139.427781 284.058673 139.427781 295.56 
C 139.427781 307.061327 141.693292 318.450818 146.094659 329.076659 
C 150.496026 339.702499 156.947655 349.358044 165.080321 357.49071 
C 173.212988 365.623376 182.868532 372.075005 193.494373 376.476372 
C 204.120213 380.877739 215.509704 383.14325 227.011031 383.14325 
C 238.512358 383.14325 249.901849 380.877739 260.52769 376.476372 
C 271.153531 372.075005 280.809075 365.623376 288.941741 357.49071 
C 297.074408 349.358044 303.526036 339.702499 307.927403 329.076659 
C 312.328771 318.450818 314.594281 307.061327 314.594281 295.56 
" clip-path="url(#pdd7e842ce3)" style="fill: none; stroke: #b0b0b0; stroke-width: 0.8; stroke-linecap: square"/>
     </g>
     <g id="text_9">
      <!-- 0.00 -->
      <g transform="translate(307.927403 259.963654) scale(0.1 -0.1)">
       <use xlink:href="#DejaVuSans-30"/>
       <use xlink:href="#DejaVuSans-2e" transform="translate(63.623047 0)"/>
       <use xlink:href="#DejaVuSans-30" transform="translate(95.410156 0)"/>
       <use xlink:href="#DejaVuSans-30" transform="translate(159.033203 0)"/>
      </g>
     </g>
    </g>
    <g id="ytick_6">
     <g id="line2d_10">
      <path d="M 334.499565 295.56 
C 334.499565 281.444735 331.719166 267.466723 326.317488 254.425919 
C 320.91581 241.385114 312.997902 229.535128 303.016903 219.554129 
C 293.035903 209.573129 281.185917 201.655221 268.145112 196.253543 
C 255.104308 190.851865 241.126296 188.071466 227.011031 188.071466 
C 212.895766 188.071466 198.917754 190.851865 185.87695 196.253543 
C 172.836146 201.655221 160.986159 209.573129 151.00516 219.554129 
C 141.02416 229.535128 133.106253 241.385114 127.704575 254.425919 
C 122.302897 267.466723 119.522497 281.444735 119.522497 295.56 
C 119.522497 309.675265 122.302897 323.653277 127.704575 336.694081 
C 133.106253 349.734886 141.02416 361.584872 151.00516 371.565871 
C 160.986159 381.546871 172.836146 389.464779 185.87695 394.866457 
C 198.917754 400.268135 212.895766 403.048534 227.011031 403.048534 
C 241.126296 403.048534 255.104308 400.268135 268.145112 394.866457 
C 281.185917 389.464779 293.035903 381.546871 303.016903 371.565871 
C 312.997902 361.584872 320.91581 349.734886 326.317488 336.694081 
C 331.719166 323.653277 334.499565 309.675265 334.499565 295.56 
" clip-path="url(#pdd7e842ce3)" style="fill: none; stroke: #b0b0b0; stroke-width: 0.8; stroke-linecap: square"/>
     </g>
     <g id="text_10">
      <!-- 0.25 -->
      <g transform="translate(326.317488 252.346231) scale(0.1 -0.1)">
       <use xlink:href="#DejaVuSans-30"/>
       <use xlink:href="#DejaVuSans-2e" transform="translate(63.623047 0)"/>
       <use xlink:href="#DejaVuSans-32" transform="translate(95.410156 0)"/>
       <use xlink:href="#DejaVuSans-35" transform="translate(159.033203 0)"/>
      </g>
     </g>
    </g>
    <g id="ytick_7">
     <g id="line2d_11">
      <path d="M 354.404849 295.56 
C 354.404849 278.830797 351.109561 262.264265 344.707572 246.808496 
C 338.305584 231.352728 328.921397 217.3083 317.092064 205.478967 
C 305.262731 193.649634 291.218303 184.265448 275.762535 177.863459 
C 260.306767 171.46147 243.740234 168.166182 227.011031 168.166182 
C 210.281828 168.166182 193.715296 171.46147 178.259528 177.863459 
C 162.803759 184.265448 148.759331 193.649634 136.929999 205.478967 
C 125.100666 217.3083 115.716479 231.352728 109.31449 246.808496 
C 102.912501 262.264265 99.617213 278.830797 99.617213 295.56 
C 99.617213 312.289203 102.912501 328.855735 109.31449 344.311504 
C 115.716479 359.767272 125.100666 373.8117 136.929999 385.641033 
C 148.759331 397.470366 162.803759 406.854552 178.259528 413.256541 
C 193.715296 419.65853 210.281828 422.953818 227.011031 422.953818 
C 243.740234 422.953818 260.306767 419.65853 275.762535 413.256541 
C 291.218303 406.854552 305.262731 397.470366 317.092064 385.641033 
C 328.921397 373.8117 338.305584 359.767272 344.707572 344.311504 
C 351.109561 328.855735 354.404849 312.289203 354.404849 295.56 
" clip-path="url(#pdd7e842ce3)" style="fill: none; stroke: #b0b0b0; stroke-width: 0.8; stroke-linecap: square"/>
     </g>
     <g id="text_11">
      <!-- 0.50 -->
      <g transform="translate(344.707572 244.728809) scale(0.1 -0.1)">
       <use xlink:href="#DejaVuSans-30"/>
       <use xlink:href="#DejaVuSans-2e" transform="translate(63.623047 0)"/>
       <use xlink:href="#DejaVuSans-35" transform="translate(95.410156 0)"/>
       <use xlink:href="#DejaVuSans-30" transform="translate(159.033203 0)"/>
      </g>
     </g>
    </g>
    <g id="ytick_8">
     <g id="line2d_12">
      <path d="M 374.310134 295.56 
C 374.310134 276.216859 370.499957 257.061806 363.097657 239.191074 
C 355.695357 221.320342 344.844891 205.081472 331.167225 191.403806 
C 317.489559 177.72614 301.250689 166.875674 283.379957 159.473374 
C 265.509225 152.071075 246.354172 148.260898 227.011031 148.260898 
C 207.66789 148.260898 188.512837 152.071075 170.642105 159.473374 
C 152.771373 166.875674 136.532503 177.72614 122.854837 191.403806 
C 109.177171 205.081472 98.326705 221.320342 90.924406 239.191074 
C 83.522106 257.061806 79.711929 276.216859 79.711929 295.56 
C 79.711929 314.903141 83.522106 334.058194 90.924406 351.928926 
C 98.326705 369.799658 109.177171 386.038528 122.854837 399.716194 
C 136.532503 413.39386 152.771373 424.244326 170.642105 431.646626 
C 188.512837 439.048925 207.66789 442.859102 227.011031 442.859102 
C 246.354172 442.859102 265.509225 439.048925 283.379957 431.646626 
C 301.250689 424.244326 317.489559 413.39386 331.167225 399.716194 
C 344.844891 386.038528 355.695357 369.799658 363.097657 351.928926 
C 370.499957 334.058194 374.310134 314.903141 374.310134 295.56 
" clip-path="url(#pdd7e842ce3)" style="fill: none; stroke: #b0b0b0; stroke-width: 0.8; stroke-linecap: square"/>
     </g>
     <g id="text_12">
      <!-- 0.75 -->
      <g transform="translate(363.097657 237.111386) scale(0.1 -0.1)">
       <use xlink:href="#DejaVuSans-30"/>
       <use xlink:href="#DejaVuSans-2e" transform="translate(63.623047 0)"/>
       <use xlink:href="#DejaVuSans-37" transform="translate(95.410156 0)"/>
       <use xlink:href="#DejaVuSans-35" transform="translate(159.033203 0)"/>
      </g>
     </g>
    </g>
    <g id="ytick_9">
     <g id="line2d_13">
      <path d="M 394.215418 295.56 
C 394.215418 273.602921 389.890352 251.859347 381.487742 231.573652 
C 373.085131 211.287956 360.768386 192.854644 345.242387 177.328645 
C 329.716387 161.802645 311.283075 149.4859 290.99738 141.08329 
C 270.711684 132.680679 248.96811 128.355614 227.011031 128.355614 
C 205.053952 128.355614 183.310379 132.680679 163.024683 141.08329 
C 142.738987 149.4859 124.305675 161.802645 108.779676 177.328645 
C 93.253676 192.854644 80.936931 211.287956 72.534321 231.573652 
C 64.131711 251.859347 59.806645 273.602921 59.806645 295.56 
C 59.806645 317.517079 64.131711 339.260653 72.534321 359.546348 
C 80.936931 379.832044 93.253676 398.265356 108.779676 413.791355 
C 124.305675 429.317355 142.738987 441.6341 163.024683 450.03671 
C 183.310379 458.439321 205.053952 462.764386 227.011031 462.764386 
C 248.96811 462.764386 270.711684 458.439321 290.99738 450.03671 
C 311.283075 441.6341 329.716387 429.317355 345.242387 413.791355 
C 360.768386 398.265356 373.085131 379.832044 381.487742 359.546348 
C 389.890352 339.260653 394.215418 317.517079 394.215418 295.56 
" clip-path="url(#pdd7e842ce3)" style="fill: none; stroke: #b0b0b0; stroke-width: 0.8; stroke-linecap: square"/>
     </g>
     <g id="text_13">
      <!-- 1.00 -->
      <g transform="translate(381.487742 229.493964) scale(0.1 -0.1)">
       <use xlink:href="#DejaVuSans-31"/>
       <use xlink:href="#DejaVuSans-2e" transform="translate(63.623047 0)"/>
       <use xlink:href="#DejaVuSans-30" transform="translate(95.410156 0)"/>
       <use xlink:href="#DejaVuSans-30" transform="translate(159.033203 0)"/>
      </g>
     </g>
    </g>
   </g>
   <g id="line2d_14">
    <path d="M 314.594281 295.56 
L 227.011031 144.279841 
L 139.427781 295.56 
L 227.011031 375.181136 
L 314.594281 295.56 
" clip-path="url(#pdd7e842ce3)" style="fill: none; stroke: #1f77b4; stroke-opacity: 0.7; stroke-width: 2; stroke-linecap: square"/>
   </g>
   <g id="line2d_15">
    <path d="M 314.594281 295.56 
L 227.011031 160.204068 
L 138.63157 295.56 
L 227.011031 303.522114 
L 314.594281 295.56 
" clip-path="url(#pdd7e842ce3)" style="fill: none; stroke-dasharray: 7.4,3.2; stroke-dashoffset: 0; stroke: #ff7f0e; stroke-opacity: 0.7; stroke-width: 2"/>
   </g>
   <g id="line2d_16">
    <path d="M 330.518509 295.56 
L 227.011031 160.204068 
L 138.63157 295.56 
L 227.011031 410.214436 
L 330.518509 295.56 
" clip-path="url(#pdd7e842ce3)" style="fill: none; stroke-dasharray: 2,3.3; stroke-dashoffset: 0; stroke: #2ca02c; stroke-opacity: 0.7; stroke-width: 2"/>
   </g>
   <g id="patch_3">
    <path d="M 402.177531 295.56 
C 402.177531 272.557346 397.64651 249.778364 388.843775 228.526683 
C 380.041041 207.275001 367.137784 187.963913 350.872451 171.69858 
C 334.607119 155.433247 315.29603 142.52999 294.044349 133.727256 
C 272.792667 124.924521 250.013685 120.3935 227.011031 120.3935 
C 204.008377 120.3935 181.229395 124.924521 159.977714 133.727256 
C 138.726033 142.52999 119.414944 155.433247 103.149611 171.69858 
C 86.884279 187.963913 73.981022 207.275001 65.178287 228.526683 
C 56.375553 249.778364 51.844531 272.557346 51.844531 295.56 
C 51.844531 318.562654 56.375553 341.341636 65.178287 362.593317 
C 73.981022 383.844999 86.884279 403.156087 103.149611 419.42142 
C 119.414944 435.686753 138.726033 448.59001 159.977714 457.392744 
C 181.229395 466.195479 204.008377 470.7265 227.011031 470.7265 
C 250.013685 470.7265 272.792667 466.195479 294.044349 457.392744 
C 315.29603 448.59001 334.607119 435.686753 350.872451 419.42142 
C 367.137784 403.156087 380.041041 383.844999 388.843775 362.593317 
C 397.64651 341.341636 402.177531 318.562654 402.177531 295.56 
" style="fill: none; stroke: #000000; stroke-width: 0.8; stroke-linejoin: miter; stroke-linecap: square"/>
   </g>
   <g id="legend_1">
    <g id="patch_4">
     <path d="M 444.210831 185.4601 
L 553.265519 185.4601 
Q 555.265519 185.4601 555.265519 183.4601 
L 555.265519 125.469475 
Q 555.265519 123.469475 553.265519 123.469475 
L 444.210831 123.469475 
Q 442.210831 123.469475 442.210831 125.469475 
L 442.210831 183.4601 
Q 442.210831 185.4601 444.210831 185.4601 
z
" style="fill: #ffffff; opacity: 0.8; stroke: #cccccc; stroke-linejoin: miter"/>
    </g>
    <g id="text_14">
     <!-- Dataset -->
     <g transform="translate(479.158488 135.067912) scale(0.1 -0.1)">
      <defs>
       <path id="DejaVuSans-44" d="M 1259 4147 
L 1259 519 
L 2022 519 
Q 2988 519 3436 956 
Q 3884 1394 3884 2338 
Q 3884 3275 3436 3711 
Q 2988 4147 2022 4147 
L 1259 4147 
z
M 628 4666 
L 1925 4666 
Q 3281 4666 3915 4102 
Q 4550 3538 4550 2338 
Q 4550 1131 3912 565 
Q 3275 0 1925 0 
L 628 0 
L 628 4666 
z
" transform="scale(0.015625)"/>
       <path id="DejaVuSans-73" d="M 2834 3397 
L 2834 2853 
Q 2591 2978 2328 3040 
Q 2066 3103 1784 3103 
Q 1356 3103 1142 2972 
Q 928 2841 928 2578 
Q 928 2378 1081 2264 
Q 1234 2150 1697 2047 
L 1894 2003 
Q 2506 1872 2764 1633 
Q 3022 1394 3022 966 
Q 3022 478 2636 193 
Q 2250 -91 1575 -91 
Q 1294 -91 989 -36 
Q 684 19 347 128 
L 347 722 
Q 666 556 975 473 
Q 1284 391 1588 391 
Q 1994 391 2212 530 
Q 2431 669 2431 922 
Q 2431 1156 2273 1281 
Q 2116 1406 1581 1522 
L 1381 1569 
Q 847 1681 609 1914 
Q 372 2147 372 2553 
Q 372 3047 722 3315 
Q 1072 3584 1716 3584 
Q 2034 3584 2315 3537 
Q 2597 3491 2834 3397 
z
" transform="scale(0.015625)"/>
      </defs>
      <use xlink:href="#DejaVuSans-44"/>
      <use xlink:href="#DejaVuSans-61" transform="translate(77.001953 0)"/>
      <use xlink:href="#DejaVuSans-74" transform="translate(138.28125 0)"/>
      <use xlink:href="#DejaVuSans-61" transform="translate(177.490234 0)"/>
      <use xlink:href="#DejaVuSans-73" transform="translate(238.769531 0)"/>
      <use xlink:href="#DejaVuSans-65" transform="translate(290.869141 0)"/>
      <use xlink:href="#DejaVuSans-74" transform="translate(352.392578 0)"/>
     </g>
    </g>
    <g id="line2d_17">
     <path d="M 446.210831 146.246037 
L 456.210831 146.246037 
L 466.210831 146.246037 
" style="fill: none; stroke: #1f77b4; stroke-opacity: 0.7; stroke-width: 2; stroke-linecap: square"/>
    </g>
    <g id="text_15">
     <!-- blog -->
     <g transform="translate(474.210831 149.746037) scale(0.1 -0.1)">
      <defs>
       <path id="DejaVuSans-62" d="M 3116 1747 
Q 3116 2381 2855 2742 
Q 2594 3103 2138 3103 
Q 1681 3103 1420 2742 
Q 1159 2381 1159 1747 
Q 1159 1113 1420 752 
Q 1681 391 2138 391 
Q 2594 391 2855 752 
Q 3116 1113 3116 1747 
z
M 1159 2969 
Q 1341 3281 1617 3432 
Q 1894 3584 2278 3584 
Q 2916 3584 3314 3078 
Q 3713 2572 3713 1747 
Q 3713 922 3314 415 
Q 2916 -91 2278 -91 
Q 1894 -91 1617 61 
Q 1341 213 1159 525 
L 1159 0 
L 581 0 
L 581 4863 
L 1159 4863 
L 1159 2969 
z
" transform="scale(0.015625)"/>
      </defs>
      <use xlink:href="#DejaVuSans-62"/>
      <use xlink:href="#DejaVuSans-6c" transform="translate(63.476562 0)"/>
      <use xlink:href="#DejaVuSans-6f" transform="translate(91.259766 0)"/>
      <use xlink:href="#DejaVuSans-67" transform="translate(152.441406 0)"/>
     </g>
    </g>
    <g id="line2d_18">
     <path d="M 446.210831 160.924162 
L 456.210831 160.924162 
L 466.210831 160.924162 
" style="fill: none; stroke-dasharray: 7.4,3.2; stroke-dashoffset: 0; stroke: #ff7f0e; stroke-opacity: 0.7; stroke-width: 2"/>
    </g>
    <g id="text_16">
     <!-- gutenberg -->
     <g transform="translate(474.210831 164.424162) scale(0.1 -0.1)">
      <defs>
       <path id="DejaVuSans-75" d="M 544 1381 
L 544 3500 
L 1119 3500 
L 1119 1403 
Q 1119 906 1312 657 
Q 1506 409 1894 409 
Q 2359 409 2629 706 
Q 2900 1003 2900 1516 
L 2900 3500 
L 3475 3500 
L 3475 0 
L 2900 0 
L 2900 538 
Q 2691 219 2414 64 
Q 2138 -91 1772 -91 
Q 1169 -91 856 284 
Q 544 659 544 1381 
z
M 1991 3584 
L 1991 3584 
z
" transform="scale(0.015625)"/>
      </defs>
      <use xlink:href="#DejaVuSans-67"/>
      <use xlink:href="#DejaVuSans-75" transform="translate(63.476562 0)"/>
      <use xlink:href="#DejaVuSans-74" transform="translate(126.855469 0)"/>
      <use xlink:href="#DejaVuSans-65" transform="translate(166.064453 0)"/>
      <use xlink:href="#DejaVuSans-6e" transform="translate(227.587891 0)"/>
      <use xlink:href="#DejaVuSans-62" transform="translate(290.966797 0)"/>
      <use xlink:href="#DejaVuSans-65" transform="translate(354.443359 0)"/>
      <use xlink:href="#DejaVuSans-72" transform="translate(415.966797 0)"/>
      <use xlink:href="#DejaVuSans-67" transform="translate(455.330078 0)"/>
     </g>
    </g>
    <g id="line2d_19">
     <path d="M 446.210831 175.602287 
L 456.210831 175.602287 
L 466.210831 175.602287 
" style="fill: none; stroke-dasharray: 2,3.3; stroke-dashoffset: 0; stroke: #2ca02c; stroke-opacity: 0.7; stroke-width: 2"/>
    </g>
    <g id="text_17">
     <!-- student_essays -->
     <g transform="translate(474.210831 179.102287) scale(0.1 -0.1)">
      <defs>
       <path id="DejaVuSans-79" d="M 2059 -325 
Q 1816 -950 1584 -1140 
Q 1353 -1331 966 -1331 
L 506 -1331 
L 506 -850 
L 844 -850 
Q 1081 -850 1212 -737 
Q 1344 -625 1503 -206 
L 1606 56 
L 191 3500 
L 800 3500 
L 1894 763 
L 2988 3500 
L 3597 3500 
L 2059 -325 
z
" transform="scale(0.015625)"/>
      </defs>
      <use xlink:href="#DejaVuSans-73"/>
      <use xlink:href="#DejaVuSans-74" transform="translate(52.099609 0)"/>
      <use xlink:href="#DejaVuSans-75" transform="translate(91.308594 0)"/>
      <use xlink:href="#DejaVuSans-64" transform="translate(154.6875 0)"/>
      <use xlink:href="#DejaVuSans-65" transform="translate(218.164062 0)"/>
      <use xlink:href="#DejaVuSans-6e" transform="translate(279.6875 0)"/>
      <use xlink:href="#DejaVuSans-74" transform="translate(343.066406 0)"/>
      <use xlink:href="#DejaVuSans-5f" transform="translate(382.275391 0)"/>
      <use xlink:href="#DejaVuSans-65" transform="translate(432.275391 0)"/>
      <use xlink:href="#DejaVuSans-73" transform="translate(493.798828 0)"/>
      <use xlink:href="#DejaVuSans-73" transform="translate(545.898438 0)"/>
      <use xlink:href="#DejaVuSans-61" transform="translate(597.998047 0)"/>
      <use xlink:href="#DejaVuSans-79" transform="translate(659.277344 0)"/>
      <use xlink:href="#DejaVuSans-73" transform="translate(718.457031 0)"/>
     </g>
    </g>
   </g>
  </g>
  <g id="text_18">
   <!-- Radar plot of Metric Distributions by Dataset -->
   <g transform="translate(151.724531 16.318125) scale(0.12 -0.12)">
    <defs>
     <path id="DejaVuSans-52" d="M 2841 2188 
Q 3044 2119 3236 1894 
Q 3428 1669 3622 1275 
L 4263 0 
L 3584 0 
L 2988 1197 
Q 2756 1666 2539 1819 
Q 2322 1972 1947 1972 
L 1259 1972 
L 1259 0 
L 628 0 
L 628 4666 
L 2053 4666 
Q 2853 4666 3247 4331 
Q 3641 3997 3641 3322 
Q 3641 2881 3436 2590 
Q 3231 2300 2841 2188 
z
M 1259 4147 
L 1259 2491 
L 2053 2491 
Q 2509 2491 2742 2702 
Q 2975 2913 2975 3322 
Q 2975 3731 2742 3939 
Q 2509 4147 2053 4147 
L 1259 4147 
z
" transform="scale(0.015625)"/>
     <path id="DejaVuSans-20" transform="scale(0.015625)"/>
     <path id="DejaVuSans-4d" d="M 628 4666 
L 1569 4666 
L 2759 1491 
L 3956 4666 
L 4897 4666 
L 4897 0 
L 4281 0 
L 4281 4097 
L 3078 897 
L 2444 897 
L 1241 4097 
L 1241 0 
L 628 0 
L 628 4666 
z
" transform="scale(0.015625)"/>
    </defs>
    <use xlink:href="#DejaVuSans-52"/>
    <use xlink:href="#DejaVuSans-61" transform="translate(67.232422 0)"/>
    <use xlink:href="#DejaVuSans-64" transform="translate(128.511719 0)"/>
    <use xlink:href="#DejaVuSans-61" transform="translate(191.988281 0)"/>
    <use xlink:href="#DejaVuSans-72" transform="translate(253.267578 0)"/>
    <use xlink:href="#DejaVuSans-20" transform="translate(294.380859 0)"/>
    <use xlink:href="#DejaVuSans-70" transform="translate(326.167969 0)"/>
    <use xlink:href="#DejaVuSans-6c" transform="translate(389.644531 0)"/>
    <use xlink:href="#DejaVuSans-6f" transform="translate(417.427734 0)"/>
    <use xlink:href="#DejaVuSans-74" transform="translate(478.609375 0)"/>
    <use xlink:href="#DejaVuSans-20" transform="translate(517.818359 0)"/>
    <use xlink:href="#DejaVuSans-6f" transform="translate(549.605469 0)"/>
    <use xlink:href="#DejaVuSans-66" transform="translate(610.787109 0)"/>
    <use xlink:href="#DejaVuSans-20" transform="translate(645.992188 0)"/>
    <use xlink:href="#DejaVuSans-4d" transform="translate(677.779297 0)"/>
    <use xlink:href="#DejaVuSans-65" transform="translate(764.058594 0)"/>
    <use xlink:href="#DejaVuSans-74" transform="translate(825.582031 0)"/>
    <use xlink:href="#DejaVuSans-72" transform="translate(864.791016 0)"/>
    <use xlink:href="#DejaVuSans-69" transform="translate(905.904297 0)"/>
    <use xlink:href="#DejaVuSans-63" transform="translate(933.6875 0)"/>
    <use xlink:href="#DejaVuSans-20" transform="translate(988.667969 0)"/>
    <use xlink:href="#DejaVuSans-44" transform="translate(1020.455078 0)"/>
    <use xlink:href="#DejaVuSans-69" transform="translate(1097.457031 0)"/>
    <use xlink:href="#DejaVuSans-73" transform="translate(1125.240234 0)"/>
    <use xlink:href="#DejaVuSans-74" transform="translate(1177.339844 0)"/>
    <use xlink:href="#DejaVuSans-72" transform="translate(1216.548828 0)"/>
    <use xlink:href="#DejaVuSans-69" transform="translate(1257.662109 0)"/>
    <use xlink:href="#DejaVuSans-62" transform="translate(1285.445312 0)"/>
    <use xlink:href="#DejaVuSans-75" transform="translate(1348.921875 0)"/>
    <use xlink:href="#DejaVuSans-74" transform="translate(1412.300781 0)"/>
    <use xlink:href="#DejaVuSans-69" transform="translate(1451.509766 0)"/>
    <use xlink:href="#DejaVuSans-6f" transform="translate(1479.292969 0)"/>
    <use xlink:href="#DejaVuSans-6e" transform="translate(1540.474609 0)"/>
    <use xlink:href="#DejaVuSans-73" transform="translate(1603.853516 0)"/>
    <use xlink:href="#DejaVuSans-20" transform="translate(1655.953125 0)"/>
    <use xlink:href="#DejaVuSans-62" transform="translate(1687.740234 0)"/>
    <use xlink:href="#DejaVuSans-79" transform="translate(1751.216797 0)"/>
    <use xlink:href="#DejaVuSans-20" transform="translate(1810.396484 0)"/>
    <use xlink:href="#DejaVuSans-44" transform="translate(1842.183594 0)"/>
    <use xlink:href="#DejaVuSans-61" transform="translate(1919.185547 0)"/>
    <use xlink:href="#DejaVuSans-74" transform="translate(1980.464844 0)"/>
    <use xlink:href="#DejaVuSans-61" transform="translate(2019.673828 0)"/>
    <use xlink:href="#DejaVuSans-73" transform="translate(2080.953125 0)"/>
    <use xlink:href="#DejaVuSans-65" transform="translate(2133.052734 0)"/>
    <use xlink:href="#DejaVuSans-74" transform="translate(2194.576172 0)"/>
   </g>
  </g>
 </g>
 <defs>
  <clipPath id="pdd7e842ce3">
   <path d="M 402.177531 295.56 
C 402.177531 272.557346 397.64651 249.778364 388.843775 228.526683 
C 380.041041 207.275001 367.137784 187.963913 350.872451 171.69858 
C 334.607119 155.433247 315.29603 142.52999 294.044349 133.727256 
C 272.792667 124.924521 250.013685 120.3935 227.011031 120.3935 
C 204.008377 120.3935 181.229395 124.924521 159.977714 133.727256 
C 138.726033 142.52999 119.414944 155.433247 103.149611 171.69858 
C 86.884279 187.963913 73.981022 207.275001 65.178287 228.526683 
C 56.375553 249.778364 51.844531 272.557346 51.844531 295.56 
C 51.844531 318.562654 56.375553 341.341636 65.178287 362.593317 
C 73.981022 383.844999 86.884279 403.156087 103.149611 419.42142 
C 119.414944 435.686753 138.726033 448.59001 159.977714 457.392744 
C 181.229395 466.195479 204.008377 470.7265 227.011031 470.7265 
C 250.013685 470.7265 272.792667 466.195479 294.044349 457.392744 
C 315.29603 448.59001 334.607119 435.686753 350.872451 419.42142 
C 367.137784 403.156087 380.041041 383.844999 388.843775 362.593317 
C 397.64651 341.341636 402.177531 318.562654 402.177531 295.56 
M 227.011031 295.56 
C 227.011031 295.56 227.011031 295.56 227.011031 295.56 
C 227.011031 295.56 227.011031 295.56 227.011031 295.56 
C 227.011031 295.56 227.011031 295.56 227.011031 295.56 
C 227.011031 295.56 227.011031 295.56 227.011031 295.56 
C 227.011031 295.56 227.011031 295.56 227.011031 295.56 
C 227.011031 295.56 227.011031 295.56 227.011031 295.56 
C 227.011031 295.56 227.011031 295.56 227.011031 295.56 
C 227.011031 295.56 227.011031 295.56 227.011031 295.56 
C 227.011031 295.56 227.011031 295.56 227.011031 295.56 
C 227.011031 295.56 227.011031 295.56 227.011031 295.56 
C 227.011031 295.56 227.011031 295.56 227.011031 295.56 
C 227.011031 295.56 227.011031 295.56 227.011031 295.56 
C 227.011031 295.56 227.011031 295.56 227.011031 295.56 
C 227.011031 295.56 227.011031 295.56 227.011031 295.56 
C 227.011031 295.56 227.011031 295.56 227.011031 295.56 
C 227.011031 295.56 227.011031 295.56 227.011031 295.56 
z
"/>
  </clipPath>
 </defs>
</svg>
